<svg width="35" height="35" viewBox="0 0 35 35" fill="none" xmlns="http://www.w3.org/2000/svg">
<path d="M17.5 1.09375C14.1652 1.09751 10.9681 2.42391 8.61008 4.78195C6.25204 7.13999 4.92564 10.3371 4.92188 13.6719C4.92216 13.7462 4.93769 13.8197 4.96751 13.8878C4.99733 13.9559 5.0408 14.0172 5.09523 14.0678H5.0925L14.4873 22.9688H12.0312C11.8862 22.9688 11.7471 23.0264 11.6446 23.1289C11.542 23.2315 11.4844 23.3706 11.4844 23.5156V33.3594C11.4844 33.5044 11.542 33.6435 11.6446 33.7461C11.7471 33.8486 11.8862 33.9062 12.0312 33.9062H22.9688C23.1138 33.9062 23.2529 33.8486 23.3554 33.7461C23.458 33.6435 23.5156 33.5044 23.5156 33.3594V23.5156C23.5156 23.3706 23.458 23.2315 23.3554 23.1289C23.2529 23.0264 23.1138 22.9688 22.9688 22.9688H20.5127L29.907 14.0689L29.9108 14.0634C29.9636 14.0128 30.0057 13.9521 30.0345 13.8848C30.0632 13.8175 30.0781 13.7451 30.0781 13.6719C30.0744 10.3371 28.748 7.13999 26.3899 4.78195C24.0319 2.42391 20.8348 1.09751 17.5 1.09375ZM16.9531 2.24875V13.125H12.0378C12.1702 7.525 14.3194 2.82789 16.9531 2.24875ZM16.9531 14.2188V22.3896L12.4141 14.2188H16.9531ZM16.4062 24.0625H18.5938V26.8685L17.8035 26.3419C17.7136 26.2819 17.608 26.2499 17.5 26.2499C17.392 26.2499 17.2864 26.2819 17.1965 26.3419L16.4062 26.8685V24.0625ZM18.0469 14.2188H22.5859L18.0469 22.3896V14.2188ZM18.0469 13.125V2.24875C20.6806 2.82789 22.8298 7.525 22.9622 13.125H18.0469ZM14.2948 2.64797C12.3545 4.68891 11.042 8.55586 10.9446 13.125H6.0282C6.14592 10.736 7.00537 8.44306 8.48698 6.56527C9.96859 4.68748 11.9987 3.31821 14.2948 2.64797ZM11.1628 14.2188L15.9644 22.8594L6.84086 14.2188H11.1628ZM22.4219 32.8125H12.5781V24.0625H15.3125V27.8906C15.3125 27.9896 15.3393 28.0868 15.3902 28.1717C15.4411 28.2567 15.5141 28.3262 15.6014 28.3729C15.6887 28.4196 15.787 28.4417 15.8859 28.4369C15.9848 28.4321 16.0805 28.4006 16.1629 28.3456L17.5 27.4531L18.8371 28.3445C18.9194 28.3994 19.015 28.431 19.1138 28.4358C19.2126 28.4407 19.3109 28.4186 19.3981 28.3721C19.4854 28.3255 19.5584 28.2561 19.6094 28.1713C19.6603 28.0866 19.6873 27.9895 19.6875 27.8906V24.0625H22.4219V32.8125ZM19.0356 22.8594L23.8372 14.2188H28.1575L19.0356 22.8594ZM24.0554 13.125C23.958 8.55586 22.6455 4.68891 20.7052 2.64797C23.0013 3.31821 25.0314 4.68748 26.513 6.56527C27.9946 8.44306 28.8541 10.736 28.9718 13.125H24.0554Z" fill="#FFD500"/>
</svg>
