<svg width="35" height="35" viewBox="0 0 35 35" fill="none" xmlns="http://www.w3.org/2000/svg">
<path d="M31.408 9.19013L26.6381 6.44208L26.3867 6.85743V6.85613L26.6374 6.44235L17.7334 1.29852C17.6612 1.25651 17.5791 1.23438 17.4956 1.23438C17.4121 1.23438 17.33 1.25651 17.2578 1.29852L3.59632 9.18678C3.52135 9.22813 3.45889 9.2889 3.41548 9.3627C3.37208 9.43649 3.34933 9.52061 3.34961 9.60623V25.3931C3.34961 25.4771 3.37173 25.5597 3.41372 25.6324C3.45572 25.7051 3.51613 25.7655 3.58887 25.8075L17.2607 33.7009C17.3335 33.7429 17.416 33.765 17.5 33.765C17.584 33.765 17.6665 33.7429 17.7393 33.7009L31.4111 25.8074C31.4839 25.7654 31.5443 25.705 31.5863 25.6323C31.6283 25.5595 31.6504 25.477 31.6504 25.393V9.60623C31.6502 9.52168 31.6276 9.43869 31.5851 9.36564C31.5425 9.29258 31.4814 9.23204 31.408 9.19013ZM25.4529 6.85682L12.7393 14.1971L10.2116 12.7378L22.9251 5.39748L25.4529 6.85682ZM12.2363 15.0118V22.8458L11.2686 21.7466C11.2001 21.6715 11.1102 21.6192 11.011 21.5966C10.9118 21.5741 10.8081 21.5824 10.7138 21.6205L9.70703 22.0309V13.5666L12.2363 15.0118ZM17.5 2.26532L21.9681 4.84493L9.25456 12.1852L4.78653 9.60555L17.5 2.26532ZM17.0215 32.4577L4.30664 25.1169V10.4333L8.75 13.0137V22.7463C8.75295 22.8258 8.77497 22.9035 8.81423 22.9727C8.85348 23.0419 8.90881 23.1007 8.97554 23.1441C9.04228 23.1874 9.11846 23.2141 9.19767 23.2219C9.27688 23.2296 9.35679 23.2182 9.43066 23.1886L10.773 22.6355L12.354 24.4296C12.4184 24.5027 12.5035 24.5544 12.5979 24.5779C12.6924 24.6014 12.7918 24.5956 12.8829 24.5613C12.974 24.527 13.0525 24.4658 13.1079 24.3858C13.1634 24.3058 13.1932 24.2108 13.1934 24.1135V15.5644L17.0215 17.7746V32.4577ZM17.5 16.946L13.6964 14.7499L26.4102 7.40916L30.2135 9.60555L17.5 16.946ZM30.6934 25.1169L17.9785 32.4577V17.7746L30.6934 10.4336V25.1169Z" fill="#FFD500"/>
<path d="M19.8985 20.8035C20.0102 20.8636 20.1413 20.8768 20.2629 20.8403C20.3844 20.8037 20.4864 20.7204 20.5465 20.6086L20.8503 20.0434V23.0406C20.8503 23.1675 20.9007 23.2892 20.9905 23.3789C21.0802 23.4687 21.2019 23.5191 21.3288 23.5191C21.4557 23.5191 21.5774 23.4687 21.6672 23.3789C21.7569 23.2892 21.8073 23.1675 21.8073 23.0406V19.3468L22.2557 19.8219C22.3428 19.9142 22.463 19.9681 22.5899 19.9717C22.7167 19.9754 22.8399 19.9285 22.9321 19.8414C23.0244 19.7543 23.0783 19.6341 23.082 19.5072C23.0857 19.3803 23.0388 19.2572 22.9517 19.1649L21.6768 17.8141C21.6248 17.759 21.5604 17.717 21.489 17.6917C21.4176 17.6663 21.3411 17.6583 21.266 17.6682C21.1908 17.6782 21.1191 17.7058 21.0568 17.7489C20.9944 17.792 20.9432 17.8493 20.9073 17.9161L19.7035 20.1555C19.6738 20.2108 19.6552 20.2715 19.6489 20.334C19.6426 20.3965 19.6487 20.4597 19.6668 20.5199C19.6849 20.58 19.7147 20.6361 19.7544 20.6847C19.7942 20.7334 19.8431 20.7737 19.8985 20.8035Z" fill="#FFD500"/>
<path d="M23.2643 18.5001C23.3748 18.5632 23.5059 18.5799 23.6288 18.5466C23.7517 18.5133 23.8564 18.4327 23.92 18.3223L24.2687 17.7189V21.2752C24.2687 21.4021 24.3191 21.5238 24.4088 21.6136C24.4985 21.7033 24.6203 21.7537 24.7472 21.7537C24.8741 21.7537 24.9958 21.7033 25.0855 21.6136C25.1753 21.5238 25.2257 21.4021 25.2257 21.2752V17.2242L25.6358 17.6617C25.6788 17.7078 25.7305 17.7449 25.788 17.771C25.8454 17.797 25.9074 17.8114 25.9704 17.8134C26.0335 17.8153 26.0963 17.8048 26.1552 17.7824C26.2141 17.7599 26.268 17.7261 26.3138 17.6827C26.3596 17.6393 26.3963 17.5874 26.4219 17.5297C26.4475 17.4721 26.4614 17.41 26.4629 17.3469C26.4644 17.2839 26.4533 17.2212 26.4305 17.1624C26.4076 17.1037 26.3733 17.05 26.3296 17.0046L25.054 15.654C25.0027 15.5997 24.9394 15.5581 24.8692 15.5326C24.7989 15.5071 24.7237 15.4984 24.6495 15.5073C24.5753 15.5161 24.5042 15.5422 24.4419 15.5834C24.3796 15.6247 24.3278 15.6799 24.2907 15.7448L23.0868 17.8468C23.0555 17.9014 23.0353 17.9615 23.0273 18.0239C23.0193 18.0863 23.0237 18.1496 23.0402 18.2102C23.0567 18.2709 23.0849 18.3277 23.1234 18.3775C23.1618 18.4272 23.2097 18.4689 23.2643 18.5001Z" fill="#FFD500"/>
<path d="M5.60547 22.707C5.47856 22.707 5.35685 22.7574 5.26711 22.8472C5.17737 22.9369 5.12695 23.0586 5.12695 23.1855V25.0312C5.12695 25.1582 5.17737 25.2799 5.26711 25.3696C5.35685 25.4594 5.47856 25.5098 5.60547 25.5098C5.73238 25.5098 5.85409 25.4594 5.94383 25.3696C6.03357 25.2799 6.08398 25.1582 6.08398 25.0312V23.1855C6.08398 23.0586 6.03357 22.9369 5.94383 22.8472C5.85409 22.7574 5.73238 22.707 5.60547 22.707Z" fill="#FFD500"/>
<path d="M7.58789 24.0742C7.46098 24.0742 7.33927 24.1246 7.24953 24.2144C7.15979 24.3041 7.10938 24.4258 7.10938 24.5527V26.2159C7.10938 26.3428 7.15979 26.4645 7.24953 26.5543C7.33927 26.644 7.46098 26.6944 7.58789 26.6944C7.7148 26.6944 7.83651 26.644 7.92625 26.5543C8.01599 26.4645 8.06641 26.3428 8.06641 26.2159V24.5527C8.06641 24.4899 8.05403 24.4277 8.02998 24.3696C8.00593 24.3116 7.97069 24.2588 7.92625 24.2144C7.88182 24.1699 7.82907 24.1347 7.77101 24.1106C7.71295 24.0866 7.65073 24.0742 7.58789 24.0742Z" fill="#FFD500"/>
<path d="M9.63867 25.4414C9.51176 25.4414 9.39005 25.4918 9.30031 25.5816C9.21057 25.6713 9.16016 25.793 9.16016 25.9199V27.3842C9.16016 27.5111 9.21057 27.6328 9.30031 27.7225C9.39005 27.8123 9.51176 27.8627 9.63867 27.8627C9.76558 27.8627 9.88729 27.8123 9.97703 27.7225C10.0668 27.6328 10.1172 27.5111 10.1172 27.3842V25.9199C10.1172 25.793 10.0668 25.6713 9.97703 25.5816C9.88729 25.4918 9.76558 25.4414 9.63867 25.4414Z" fill="#FFD500"/>
<path d="M11.6895 26.8086C11.5625 26.8086 11.4408 26.859 11.3511 26.9487C11.2614 27.0385 11.2109 27.1602 11.2109 27.2871V28.5531C11.2109 28.68 11.2614 28.8017 11.3511 28.8915C11.4408 28.9812 11.5625 29.0316 11.6895 29.0316C11.8164 29.0316 11.9381 28.9812 12.0278 28.8915C12.1176 28.8017 12.168 28.68 12.168 28.5531V27.2871C12.168 27.1602 12.1176 27.0385 12.0278 26.9487C11.9381 26.859 11.8164 26.8086 11.6895 26.8086Z" fill="#FFD500"/>
<path d="M13.1934 29.748C13.1934 29.875 13.2438 29.9967 13.3335 30.0864C13.4233 30.1761 13.545 30.2266 13.6719 30.2266C13.7988 30.2266 13.9205 30.1761 14.0102 30.0864C14.1 29.9967 14.1504 29.875 14.1504 29.748V28.6543C14.1504 28.5274 14.1 28.4057 14.0102 28.3159C13.9205 28.2262 13.7988 28.1758 13.6719 28.1758C13.545 28.1758 13.4233 28.2262 13.3335 28.3159C13.2438 28.4057 13.1934 28.5274 13.1934 28.6543V29.748Z" fill="#FFD500"/>
<path d="M23.6065 23.0549C23.5521 23.0864 23.5044 23.1282 23.4661 23.178C23.4278 23.2279 23.3998 23.2848 23.3835 23.3455C23.3672 23.4062 23.3631 23.4695 23.3713 23.5318C23.3795 23.5941 23.3999 23.6542 23.4313 23.7087C23.4627 23.7631 23.5045 23.8108 23.5544 23.8491C23.6043 23.8873 23.6612 23.9154 23.7219 23.9316C23.7826 23.9479 23.8459 23.9521 23.9082 23.9439C23.9705 23.9357 24.0306 23.9153 24.085 23.8839L26.8782 22.2719C26.9326 22.2405 26.9803 22.1987 27.0186 22.1488C27.0568 22.099 27.0849 22.0421 27.1012 21.9814C27.1174 21.9207 27.1216 21.8573 27.1134 21.795C27.1052 21.7327 27.0848 21.6726 27.0534 21.6182C27.022 21.5638 26.9801 21.5161 26.9303 21.4778C26.8804 21.4396 26.8235 21.4115 26.7628 21.3952C26.7021 21.379 26.6388 21.3748 26.5765 21.383C26.5142 21.3912 26.4541 21.4116 26.3997 21.443L23.6065 23.0549Z" fill="#FFD500"/>
<path d="M22.3645 23.7727L20.0936 25.0839C20.0387 25.1151 19.9906 25.1568 19.9519 25.2067C19.9132 25.2565 19.8848 25.3136 19.8683 25.3745C19.8517 25.4354 19.8474 25.499 19.8556 25.5615C19.8637 25.6241 19.8841 25.6845 19.9157 25.7391C19.9472 25.7938 19.9893 25.8416 20.0394 25.88C20.0895 25.9183 20.1468 25.9463 20.2078 25.9625C20.2688 25.9786 20.3324 25.9825 20.3949 25.974C20.4574 25.9654 20.5176 25.9446 20.5721 25.9127L22.843 24.6015C22.8978 24.5703 22.946 24.5286 22.9847 24.4787C23.0233 24.4289 23.0517 24.3718 23.0683 24.3109C23.0848 24.25 23.0891 24.1864 23.081 24.1239C23.0729 24.0613 23.0524 24.0009 23.0209 23.9463C22.9893 23.8916 22.9473 23.8438 22.8971 23.8054C22.847 23.7671 22.7898 23.7391 22.7288 23.7229C22.6678 23.7068 22.6042 23.7029 22.5416 23.7114C22.4791 23.72 22.4189 23.7408 22.3645 23.7727Z" fill="#FFD500"/>
</svg>
