<svg width="35" height="35" viewBox="0 0 35 35" fill="none" xmlns="http://www.w3.org/2000/svg">
<path d="M33.9062 0.546875H1.09375C0.791875 0.546875 0.546875 0.791875 0.546875 1.09375V33.9062C0.546875 34.2087 0.791875 34.4531 1.09375 34.4531H33.9062C34.2081 34.4531 34.4531 34.2087 34.4531 33.9062V1.09375C34.4531 0.791875 34.2081 0.546875 33.9062 0.546875ZM15.3125 28.9844C15.1676 28.9844 15.0281 29.0418 14.9259 29.1446L11.4844 32.5861V2.90008L14.8575 7.95977C14.9592 8.1118 15.1298 8.20312 15.3125 8.20312H20.4854L20.236 11.4423H20.2388C20.2382 11.457 20.2344 11.4702 20.2344 11.4844C20.2344 12.5005 20.9344 13.3498 21.875 13.5942V28.9844H15.3125ZM7.10938 2.90008L10.3906 7.82195V29.3048L7.10938 32.5861V2.90008ZM22.4219 12.5781C21.822 12.5781 21.3341 12.0925 21.3292 11.4937L21.3352 11.4177C21.3702 10.8456 21.8416 10.3906 22.4219 10.3906C23.0021 10.3906 23.4735 10.8456 23.5091 11.4171L23.5151 11.4931C23.5096 12.0925 23.0218 12.5781 22.4219 12.5781ZM23.3625 9.51781C23.0765 9.38055 22.7598 9.29688 22.4219 9.29688C22.0839 9.29688 21.7673 9.38055 21.4812 9.51781L21.5819 8.20312H23.2613L23.3625 9.51781ZM21.6661 7.10938L21.7612 5.87398C21.9636 5.96367 22.1867 6.01562 22.4219 6.01562C22.657 6.01562 22.8802 5.96367 23.0825 5.87398L23.1777 7.10938H21.6661ZM21.875 4.375C21.875 4.07367 22.1205 3.82812 22.4219 3.82812C22.7232 3.82812 22.9688 4.07367 22.9688 4.375C22.9688 4.67633 22.7232 4.92188 22.4219 4.92188C22.1205 4.92188 21.875 4.67633 21.875 4.375ZM24.0609 4.33289H24.0581C24.0357 3.44805 23.3122 2.73438 22.4219 2.73438C21.5316 2.73438 20.808 3.44805 20.7856 4.33344H20.7829L20.5691 7.10938H15.6051L11.9591 1.64062H32.8841L29.2381 7.10938H24.2741L24.0609 4.33289ZM10.3906 5.84992L7.58406 1.64062H10.3906V5.84992ZM6.01562 7.10938H5.76133L2.11531 1.64062H6.01562V7.10938ZM5.01375 7.95977C5.11547 8.1118 5.28609 8.20312 5.46875 8.20312H6.01562V28.9844H5.46875C5.32383 28.9844 5.18438 29.0418 5.08211 29.1446L1.64062 32.5861V2.90008L5.01375 7.95977ZM5.69516 30.0781H6.01562V33.3594H2.41391L5.69516 30.0781ZM10.3906 30.8514V33.3594H7.88266L10.3906 30.8514ZM15.5389 30.0781H29.3048L32.5861 33.3594H12.2577L15.5389 30.0781ZM29.9179 29.1446C29.8156 29.0418 29.6762 28.9844 29.5312 28.9844H22.9688V13.5942C23.9094 13.3498 24.6094 12.5005 24.6094 11.4844C24.6094 11.4702 24.6055 11.457 24.605 11.4428H24.6077L24.3584 8.20312H29.5312C29.7139 8.20312 29.8845 8.1118 29.9862 7.95977L33.3594 2.90008V32.5861L29.9179 29.1446Z" fill="#FFD500"/>
</svg>
