<svg width="30" height="28" viewBox="0 0 30 28" fill="none" xmlns="http://www.w3.org/2000/svg">
<path d="M29.2922 19.5413L20.1308 3.23316C19.0904 1.38107 17.1244 0.230469 15 0.230469C12.8756 0.230469 10.9096 1.38107 9.86918 3.23316L0.707812 19.5413C0.244746 20.3657 0 21.301 0 22.2464C0 25.2919 2.47764 27.7695 5.52311 27.7695H24.4769C27.5224 27.7695 30 25.2919 30 22.2464C30 21.301 29.7553 20.3657 29.2922 19.5413ZM24.4769 26.0117H5.52311C3.44695 26.0117 1.75781 24.3226 1.75781 22.2464C1.75781 21.6019 1.92469 20.9642 2.24033 20.4022L11.4017 4.09408C12.1314 2.79518 13.5102 1.98828 15 1.98828C16.4899 1.98828 17.8686 2.79518 18.5982 4.09408L27.7596 20.4022C28.0753 20.9642 28.2421 21.6019 28.2421 22.2464C28.2422 24.3226 26.5531 26.0117 24.4769 26.0117Z" fill="#DADADA"/>
<path d="M15 4.33203C13.5461 4.33203 12.3633 5.51486 12.3633 6.96875V14.5859C12.3633 16.0398 13.5461 17.2227 15 17.2227C16.4539 17.2227 17.6367 16.0398 17.6367 14.5859V6.96875C17.6367 5.51486 16.4539 4.33203 15 4.33203ZM15.8789 14.5859C15.8789 15.0706 15.4846 15.4648 15 15.4648C14.5154 15.4648 14.1211 15.0706 14.1211 14.5859V6.96875C14.1211 6.48412 14.5154 6.08984 15 6.08984C15.4846 6.08984 15.8789 6.48412 15.8789 6.96875V14.5859Z" fill="#DADADA"/>
<path d="M15 18.9805C13.5461 18.9805 12.3633 20.1633 12.3633 21.6172C12.3633 23.0711 13.5461 24.2539 15 24.2539C16.4539 24.2539 17.6367 23.0711 17.6367 21.6172C17.6367 20.1633 16.4539 18.9805 15 18.9805ZM15 22.4961C14.5154 22.4961 14.1211 22.1018 14.1211 21.6172C14.1211 21.1326 14.5154 20.7383 15 20.7383C15.4846 20.7383 15.8789 21.1326 15.8789 21.6172C15.8789 22.1018 15.4846 22.4961 15 22.4961Z" fill="#DADADA"/>
</svg>
