<svg width="30" height="30" viewBox="0 0 30 30" fill="none" xmlns="http://www.w3.org/2000/svg">
<g clip-path="url(#clip0)">
<path d="M29.2922 20.5413L20.1308 4.23316C19.0904 2.38107 17.1244 1.23047 15 1.23047C12.8756 1.23047 10.9096 2.38107 9.86918 4.23316L0.707812 20.5413C0.244746 21.3657 0 22.301 0 23.2464C0 26.2919 2.47764 28.7695 5.52311 28.7695H24.4769C27.5224 28.7695 30 26.2919 30 23.2464C30 22.301 29.7553 21.3657 29.2922 20.5413ZM24.4769 27.0117H5.52311C3.44695 27.0117 1.75781 25.3226 1.75781 23.2464C1.75781 22.6019 1.92469 21.9642 2.24033 21.4022L11.4017 5.09408C12.1314 3.79518 13.5102 2.98828 15 2.98828C16.4899 2.98828 17.8686 3.79518 18.5982 5.09408L27.7596 21.4022C28.0753 21.9642 28.2421 22.6019 28.2421 23.2464C28.2422 25.3226 26.5531 27.0117 24.4769 27.0117Z" fill="#DADADA"/>
<path d="M15 5.33203C13.5461 5.33203 12.3633 6.51486 12.3633 7.96875V15.5859C12.3633 17.0398 13.5461 18.2227 15 18.2227C16.4539 18.2227 17.6367 17.0398 17.6367 15.5859V7.96875C17.6367 6.51486 16.4539 5.33203 15 5.33203ZM15.8789 15.5859C15.8789 16.0706 15.4846 16.4648 15 16.4648C14.5154 16.4648 14.1211 16.0706 14.1211 15.5859V7.96875C14.1211 7.48412 14.5154 7.08984 15 7.08984C15.4846 7.08984 15.8789 7.48412 15.8789 7.96875V15.5859Z" fill="#DADADA"/>
<path d="M15 19.9805C13.5461 19.9805 12.3633 21.1633 12.3633 22.6172C12.3633 24.0711 13.5461 25.2539 15 25.2539C16.4539 25.2539 17.6367 24.0711 17.6367 22.6172C17.6367 21.1633 16.4539 19.9805 15 19.9805ZM15 23.4961C14.5154 23.4961 14.1211 23.1018 14.1211 22.6172C14.1211 22.1326 14.5154 21.7383 15 21.7383C15.4846 21.7383 15.8789 22.1326 15.8789 22.6172C15.8789 23.1018 15.4846 23.4961 15 23.4961Z" fill="#DADADA"/>
</g>
<defs>
<clipPath id="clip0">
<rect width="30" height="30" fill="white"/>
</clipPath>
</defs>
</svg>
