<svg width="32" height="32" viewBox="0 0 32 32" fill="none" xmlns="http://www.w3.org/2000/svg">
<path d="M16.4211 5.33331C20.8427 5.33331 24.8421 8.76798 24.8421 14.08C24.8421 17.6213 22.0317 21.8127 16.4211 26.6666C10.8104 21.8116 8 17.6213 8 14.08C8 8.76798 12.0006 5.33331 16.4211 5.33331ZM16.4211 7.01752C12.6742 7.01752 9.68421 9.94917 9.68421 14.08C9.68421 16.7073 11.7502 20.0589 16 24.0258L16.4211 24.4132L16.4615 24.3772C20.8472 20.3688 23.0378 16.9723 23.1534 14.3012L23.1579 14.08C23.1579 9.94917 20.1679 7.01752 16.4211 7.01752Z" fill="#FDCD0F"/>
<path d="M16.4214 16.0741C15.1863 16.0741 14.1758 15.0636 14.1758 13.8285C14.1758 12.5934 15.1863 11.5829 16.4214 11.5829C17.6565 11.5829 18.667 12.5934 18.667 13.8285C18.667 15.0636 17.6565 16.0741 16.4214 16.0741Z" fill="#FDCD0F"/>
</svg>
