<svg width="32" height="32" viewBox="0 0 32 32" fill="none" xmlns="http://www.w3.org/2000/svg">
<path fill-rule="evenodd" clip-rule="evenodd" d="M0 0H32V32H0V0Z" fill="white" fill-opacity="0.01"/>
<path d="M15.9996 29.0909C24.033 29.0909 30.545 22.5789 30.545 14.5455C30.545 6.512 24.033 0 15.9996 0C7.9661 0 1.4541 6.512 1.4541 14.5455C1.4541 22.5789 7.9661 29.0909 15.9996 29.0909Z" fill="#F6DE8E"/>
<path d="M16.5773 18.9091C18.9758 18.9091 20.3976 17.7294 20.3976 15.7454C20.3976 14.2531 19.4209 13.1978 17.8813 13.0029V12.8778C18.9678 12.6822 19.8274 11.6196 19.8274 10.4487C19.8274 8.72144 18.562 7.63562 16.4914 7.63562H12.1787V18.9091H16.5773ZM15.8354 12.4945H13.5845V8.8778H16.194C17.5918 8.8778 18.4049 9.5418 18.4049 10.6902C18.4049 11.8858 17.5373 12.4953 15.834 12.4953L15.8354 12.4945ZM16.3663 17.6669H13.5845V13.7062H16.2325C18.0296 13.7062 18.9518 14.3702 18.9518 15.6749C18.9518 16.9796 18.0609 17.6669 16.3656 17.6669H16.3663Z" fill="#646464"/>
<path fill-rule="evenodd" clip-rule="evenodd" d="M18.9085 15.2727L28.403 23.6363L18.9085 32L18.9078 29.0909H15.9994C9.48666 29.0909 3.97321 24.8102 2.12012 18.9091H18.9078L18.9085 15.2727Z" fill="url(#paint0_linear)"/>
<defs>
<linearGradient id="paint0_linear" x1="28.1357" y1="23.6363" x2="2.71122" y2="23.6363" gradientUnits="userSpaceOnUse">
<stop stop-color="#EFB900"/>
<stop offset="1" stop-color="#EFD52B"/>
</linearGradient>
</defs>
</svg>
