<svg width="48" height="48" viewBox="0 0 48 48" fill="none" xmlns="http://www.w3.org/2000/svg">
<path d="M0 25.144H9.16914C9.72571 32.4469 15.5543 38.2754 22.8571 38.8309V48C10.632 47.4263 0.798857 37.72 0.0217143 25.5509L0 25.144ZM48 25.144C47.4206 37.5029 37.5029 47.4206 25.144 48V38.8309C32.4469 38.2743 38.2754 32.4469 38.8309 25.144H48ZM25.144 0C37.5029 0.579429 47.4206 10.4971 48 22.856H38.8309C38.2743 15.5531 32.4457 9.72457 25.1429 9.16914V0H25.144Z" fill="#FDCD0F"/>
<path d="M22.856 0V9.16914C15.5531 9.72571 9.72457 15.5543 9.16914 22.8571H0C0.579429 10.4971 10.4971 0.579429 22.856 0Z" fill="#FDCD0F"/>
</svg>
