<svg width="32" height="32" viewBox="0 0 32 32" fill="none" xmlns="http://www.w3.org/2000/svg">
<path fill-rule="evenodd" clip-rule="evenodd" d="M17.4546 29.0909C25.4881 29.0909 32.0001 22.5789 32.0001 14.5455C32.0001 6.512 25.4881 0 17.4546 0C9.42118 0 2.90918 6.512 2.90918 14.5455C2.90918 22.5789 9.42118 29.0909 17.4546 29.0909Z" fill="#DBE4ED"/>
<path fill-rule="evenodd" clip-rule="evenodd" d="M0 10.1818H7.27273C16.1091 10.1818 23.2727 17.3454 23.2727 26.1818V31.2727H15.2727C6.83782 31.2727 0 24.4349 0 15.9999V10.1818Z" fill="url(#paint0_linear)"/>
<path d="M17.7718 6V7.09091H17.5172C16.4467 7.09091 15.5667 7.95491 15.5027 9.05236L15.499 9.17964V14.8989C15.499 15.6109 16.0547 16.1818 16.7325 16.1818C17.3798 16.1818 17.9179 15.6691 17.9798 15.0051L17.9856 14.8931L18.0445 9.26255C18.0445 9.02255 17.8627 8.83564 17.6459 8.83564C17.4452 8.83564 17.275 8.99127 17.2423 9.2L17.2365 9.27127V15.0429H16.1456V9.27127C16.1456 8.432 16.8139 7.74473 17.6459 7.74473C18.0539 7.74473 18.4227 7.912 18.691 8.18109L19.0263 8.18182H24.2263V18.3025H24.2016L20.1652 22.3353L20.1659 22.3636H11.499V8.18182H14.5645C14.9579 6.96291 16.0539 6.06764 17.3659 6.00364L17.5165 6H17.771H17.7718ZM14.4074 9.27273H12.5899V21.2727H19.075V17.2116H23.1354V9.27273H19.1354L19.0765 14.9047C19.0627 16.2138 18.0205 17.2727 16.7325 17.2727C15.4903 17.2727 14.4801 16.2785 14.4125 15.0327L14.4081 14.8989V9.27273H14.4074ZM20.1659 18.3025V20.7935L22.6583 18.3025H20.1659Z" fill="#646464"/>
<defs>
<linearGradient id="paint0_linear" x1="0.340015" y1="12.3195" x2="21.4247" y2="31.4273" gradientUnits="userSpaceOnUse">
<stop stop-color="#CAE2F2"/>
<stop offset="1" stop-color="#9FA8CA"/>
</linearGradient>
</defs>
</svg>
