<svg width="20" height="20" viewBox="0 0 20 20" fill="none" xmlns="http://www.w3.org/2000/svg">
<path d="M10 1.75C12.278 1.75 14.34 2.673 15.834 4.166C17.327 5.66 18.25 7.722 18.25 10C18.25 12.278 17.327 14.34 15.834 15.834C14.34 17.327 12.278 18.25 10 18.25C7.722 18.25 5.66 17.327 4.166 15.834C2.673 14.34 1.75 12.278 1.75 10C1.75 7.722 2.673 5.66 4.166 4.166C5.66 2.673 7.722 1.75 10 1.75Z" stroke="#999999" stroke-width="1.5"/>
<path d="M13.6674 6.54504L14.6374 7.51504L8.80142 13.385L5.10742 9.70804L6.07742 8.73804L8.80342 11.445L13.6674 6.54504Z" fill="#999999"/>
</svg>
