<svg width="50" height="50" viewBox="0 0 50 50" fill="none" xmlns="http://www.w3.org/2000/svg">
<path d="M46.875 10.1562H42.1875C41.5659 10.1562 40.9698 10.4032 40.5302 10.8427C40.0907 11.2823 39.8438 11.8784 39.8438 12.5V48.4375C39.8438 48.6447 39.9261 48.8434 40.0726 48.9899C40.2191 49.1364 40.4178 49.2188 40.625 49.2188H48.4375C48.6447 49.2188 48.8434 49.1364 48.9899 48.9899C49.1364 48.8434 49.2188 48.6447 49.2188 48.4375V12.5C49.2188 11.8784 48.9718 11.2823 48.5323 10.8427C48.0927 10.4032 47.4966 10.1562 46.875 10.1562Z" fill="white"/>
<path d="M32.8125 22.6562H28.125C27.5034 22.6563 26.9073 22.9032 26.4677 23.3427C26.0282 23.7823 25.7812 24.3784 25.7812 25V48.4375C25.7812 48.6447 25.8636 48.8434 26.0101 48.9899C26.1566 49.1364 26.3553 49.2188 26.5625 49.2188H34.375C34.5822 49.2188 34.7809 49.1364 34.9274 48.9899C35.0739 48.8434 35.1562 48.6447 35.1562 48.4375V25C35.1562 24.3784 34.9093 23.7823 34.4698 23.3427C34.0302 22.9032 33.4341 22.6563 32.8125 22.6562Z" fill="white"/>
<path d="M18.75 35.1562H14.0625C13.4409 35.1562 12.8448 35.4032 12.4052 35.8427C11.9657 36.2823 11.7188 36.8784 11.7188 37.5V48.4375C11.7188 48.6447 11.8011 48.8434 11.9476 48.9899C12.0941 49.1364 12.2928 49.2188 12.5 49.2188H20.3125C20.5197 49.2188 20.7184 49.1364 20.8649 48.9899C21.0114 48.8434 21.0938 48.6447 21.0938 48.4375V37.5C21.0938 36.8784 20.8468 36.2823 20.4073 35.8427C19.9677 35.4032 19.3716 35.1562 18.75 35.1562Z" fill="white"/>
<path d="M39.0628 3.9064H36.719V1.56265C36.7199 1.40747 36.6746 1.25554 36.5888 1.12623C36.503 0.99692 36.3807 0.896083 36.2374 0.836578C36.0941 0.777073 35.9363 0.761595 35.7841 0.792118C35.632 0.822641 35.4924 0.897782 35.3831 1.00796L31.4769 4.91421C31.4044 4.98721 31.3472 5.07379 31.3083 5.16897C31.2694 5.26416 31.2497 5.36608 31.2503 5.4689V8.27359L29.555 9.9689C26.2387 6.9405 21.8689 5.33036 17.3806 5.48303C12.8922 5.63569 8.64189 7.53904 5.53911 10.7858C2.43632 14.0325 0.727551 18.3647 0.778449 22.8554C0.829347 27.346 2.63587 31.6384 5.81145 34.814C8.98703 37.9896 13.2794 39.7961 17.7701 39.847C22.2607 39.8979 26.5929 38.1891 29.8397 35.0863C33.0864 31.9835 34.9897 27.7332 35.1424 23.2449C35.2951 18.7565 33.6849 14.3867 30.6565 11.0705L32.3518 9.37515H35.1565C35.2594 9.37574 35.3613 9.35604 35.4565 9.31716C35.5517 9.27828 35.6382 9.22099 35.7112 9.14859L39.6175 5.24234C39.7277 5.13306 39.8028 4.99345 39.8333 4.84131C39.8638 4.68916 39.8484 4.53137 39.7889 4.38805C39.7294 4.24474 39.6285 4.12239 39.4992 4.03661C39.3699 3.95083 39.218 3.9055 39.0628 3.9064ZM33.594 22.6564C33.6087 26.2548 32.3859 29.7488 30.1305 32.5527C27.8752 35.3567 24.7245 37.3 21.2066 38.0569C17.6887 38.8139 14.0175 38.3384 10.8085 36.7102C7.59952 35.082 5.04784 32.4001 3.58124 29.1141C2.11464 25.8282 1.8223 22.1379 2.75323 18.662C3.68416 15.1861 5.78175 12.1359 8.69435 10.0227C11.607 7.90962 15.1575 6.86204 18.7507 7.05564C22.3439 7.24924 25.7613 8.67224 28.43 11.0861L25.1175 14.3986C22.9758 12.5443 20.1983 11.5932 17.3695 11.7457C14.5408 11.8981 11.8815 13.1421 9.95158 15.2159C8.02162 17.2896 6.97153 20.0312 7.02236 22.8636C7.07319 25.696 8.22099 28.3982 10.2241 30.4013C12.2272 32.4044 14.9294 33.5522 17.7618 33.6031C20.5942 33.6539 23.3359 32.6038 25.4096 30.6739C27.4833 28.7439 28.7273 26.0846 28.8798 23.2559C29.0322 20.4271 28.0812 17.6496 26.2268 15.508L29.5394 12.1955C32.1452 15.0566 33.5909 18.7864 33.594 22.6564ZM17.4144 23.2111C17.487 23.2843 17.5734 23.3424 17.6686 23.3821C17.7638 23.4218 17.8659 23.4422 17.969 23.4422C18.0722 23.4422 18.1743 23.4218 18.2695 23.3821C18.3647 23.3424 18.4511 23.2843 18.5237 23.2111L21.2268 20.508C21.7598 21.3157 21.9739 22.2926 21.8277 23.2492C21.6815 24.2059 21.1854 25.0742 20.4356 25.6859C19.6857 26.2977 18.7354 26.6093 17.7689 26.5604C16.8024 26.5115 15.8885 26.1056 15.2042 25.4213C14.5199 24.737 14.1139 23.823 14.065 22.8565C14.0161 21.89 14.3278 20.9397 14.9395 20.1899C15.5512 19.44 16.4196 18.9439 17.3762 18.7977C18.3328 18.6515 19.3097 18.8656 20.1175 19.3986L17.4144 22.1017C17.3411 22.1743 17.283 22.2607 17.2433 22.3559C17.2037 22.4512 17.1833 22.5533 17.1833 22.6564C17.1833 22.7595 17.2037 22.8616 17.2433 22.9569C17.283 23.0521 17.3411 23.1385 17.4144 23.2111ZM21.2347 18.2814C20.1271 17.4543 18.7474 17.0772 17.3731 17.2262C15.9988 17.3751 14.7319 18.039 13.8273 19.0842C12.9227 20.1294 12.4474 21.4784 12.4971 22.8598C12.5469 24.2413 13.1179 25.5526 14.0954 26.5301C15.0728 27.5075 16.3842 28.0786 17.7656 28.1283C19.147 28.178 20.4961 27.7028 21.5413 26.7981C22.5865 25.8935 23.2503 24.6266 23.3993 23.2523C23.5482 21.878 23.1712 20.4983 22.344 19.3908L25.1175 16.6095C26.6799 18.4562 27.4681 20.8352 27.3173 23.2494C27.1664 25.6636 26.0883 27.9261 24.3083 29.564C22.5282 31.2018 20.1839 32.0882 17.7655 32.0379C15.3472 31.9876 13.0418 31.0045 11.3314 29.2941C9.62093 27.5836 8.63781 25.2783 8.58752 22.8599C8.53722 20.4415 9.42363 18.0973 11.0615 16.3172C12.6993 14.5371 14.9618 13.459 17.376 13.3082C19.7902 13.1574 22.1693 13.9456 24.0159 15.508L21.2347 18.2814ZM34.8362 7.81265H32.8128V5.78921L35.1565 3.44546V4.68765C35.1565 4.89485 35.2388 5.09356 35.3854 5.24008C35.5319 5.38659 35.7306 5.4689 35.9378 5.4689H37.18L34.8362 7.81265Z" fill="#FFD500"/>
</svg>
