<svg width="50" height="50" viewBox="0 0 50 50" fill="none" xmlns="http://www.w3.org/2000/svg">
<path d="M35.1291 29.1162L41.4636 37.0343C41.5378 37.1269 41.6318 37.2017 41.7388 37.253C41.8458 37.3044 41.9629 37.3311 42.0816 37.3311C42.2002 37.3311 42.3174 37.3044 42.4244 37.253C42.5313 37.2017 42.6254 37.1269 42.6996 37.0343L49.034 29.1162C49.1272 28.9998 49.1856 28.8595 49.2026 28.7114C49.2196 28.5633 49.1944 28.4135 49.1299 28.279C49.0655 28.1446 48.9644 28.0311 48.8383 27.9516C48.7123 27.8721 48.5663 27.8298 48.4172 27.8295H46.1162C45.0532 24.2543 42.8198 21.14 39.7743 18.9866C36.7289 16.8332 33.0482 15.7655 29.3232 15.9551C25.5981 16.1447 22.0448 17.5804 19.2337 20.0319C16.4226 22.4833 14.5168 25.8083 13.8223 29.4729C13.1277 33.1375 13.6847 36.9293 15.4038 40.2393C17.1229 43.5494 19.9044 46.1858 23.3018 47.7253C26.6991 49.2647 30.5152 49.618 34.1374 48.7283C37.7596 47.8385 40.9777 45.7575 43.2752 42.8192C43.383 42.6782 43.4403 42.505 43.4378 42.3276C43.4354 42.1501 43.3734 41.9786 43.2618 41.8406L39.6622 37.3407C39.5814 37.2415 39.4778 37.1633 39.3602 37.1129C39.2426 37.0625 39.1146 37.0413 38.987 37.0512C38.8594 37.0611 38.7361 37.1017 38.6277 37.1696C38.5193 37.2376 38.429 37.3308 38.3644 37.4413C37.5136 38.8731 36.3009 40.0557 34.8481 40.8703C33.3954 41.685 31.7539 42.1029 30.0885 42.0821C27.5685 42.0665 25.1578 41.0505 23.3869 39.2576C21.616 37.4647 20.6298 35.0418 20.6454 32.5218C20.6609 30.0018 21.6769 27.5911 23.4698 25.8202C25.2627 24.0493 27.6856 23.0631 30.2056 23.0787C31.8711 23.0789 33.5071 23.5182 34.9487 24.3523C36.3903 25.1863 37.5865 26.3857 38.4167 27.8295H35.7483C35.599 27.8293 35.4527 27.8713 35.3263 27.9507C35.1999 28.03 35.0984 28.1435 35.0337 28.278C34.969 28.4125 34.9436 28.5625 34.9605 28.7108C34.9774 28.8592 35.0358 28.9997 35.1291 29.1162Z" fill="white"/>
<path d="M28.5878 11.4272L30.0297 9.9853C30.2532 9.76536 30.431 9.50334 30.5527 9.21436C30.6744 8.92538 30.7377 8.61516 30.739 8.30159C30.7402 7.98802 30.6794 7.6773 30.5599 7.38737C30.4405 7.09744 30.2648 6.83402 30.0431 6.61232C29.8213 6.39062 29.5579 6.21501 29.2679 6.09564C28.9779 5.97626 28.6672 5.91548 28.3536 5.91679C28.0401 5.91811 27.7299 5.98149 27.4409 6.10329C27.152 6.22509 26.89 6.4029 26.6701 6.62645L24.7698 8.52679C23.0164 7.56045 21.1017 6.92134 19.1194 6.6407V4.86706H20.703C21.333 4.86706 21.9372 4.61679 22.3827 4.17131C22.8282 3.72583 23.0784 3.12163 23.0784 2.49163C23.0784 1.86163 22.8282 1.25743 22.3827 0.811956C21.9372 0.366478 21.333 0.116211 20.703 0.116211H12.785C12.155 0.116211 11.5508 0.366478 11.1053 0.811956C10.6598 1.25743 10.4095 1.86163 10.4095 2.49163C10.4095 3.12163 10.6598 3.72583 11.1053 4.17131C11.5508 4.61679 12.155 4.86706 12.785 4.86706H14.3686V6.6407C12.3861 6.92075 10.4712 7.55933 8.71744 8.52521L6.8171 6.62487C6.59716 6.40137 6.33514 6.22362 6.04616 6.10189C5.75718 5.98016 5.44696 5.91685 5.13339 5.91561C4.81982 5.91437 4.50911 5.97522 4.21917 6.09467C3.92924 6.21411 3.66583 6.38978 3.44412 6.61153C3.22242 6.83329 3.04682 7.09674 2.92744 7.38671C2.80807 7.67667 2.74728 7.98739 2.7486 8.30096C2.74991 8.61453 2.8133 8.92474 2.9351 9.21369C3.0569 9.50264 3.2347 9.76462 3.45825 9.98451L4.89934 11.4264C2.59835 13.7615 1.03893 16.7246 0.417107 19.9434C-0.204719 23.1622 0.138791 26.4929 1.40446 29.517C2.67013 32.5412 4.80149 35.1237 7.53063 36.94C10.2598 38.7563 13.4649 39.7253 16.7432 39.7253C20.0215 39.7253 23.2266 38.7563 25.9558 36.94C28.6849 35.1237 30.8163 32.5412 32.0819 29.517C33.3476 26.4929 33.6911 23.1622 33.0693 19.9434C32.4475 16.7246 30.8881 13.7615 28.5871 11.4264L28.5878 11.4272ZM27.7897 7.74607C27.939 7.60183 28.1391 7.52202 28.3467 7.52383C28.5543 7.52563 28.7529 7.6089 28.8997 7.75571C29.0465 7.90252 29.1298 8.10112 29.1316 8.30872C29.1334 8.51633 29.0536 8.71635 28.9093 8.86568L27.4239 10.3511C27.0158 10.0091 26.5935 9.68626 26.157 9.38273L27.7897 7.74607ZM11.9931 2.49163C11.9931 2.28163 12.0766 2.08023 12.2251 1.93174C12.3736 1.78325 12.575 1.69983 12.785 1.69983H20.703C20.913 1.69983 21.1144 1.78325 21.2629 1.93174C21.4114 2.08023 21.4948 2.28163 21.4948 2.49163C21.4948 2.70163 21.4114 2.90303 21.2629 3.05153C21.1144 3.20002 20.913 3.28344 20.703 3.28344H12.785C12.575 3.28344 12.3736 3.20002 12.2251 3.05153C12.0766 2.90303 11.9931 2.70163 11.9931 2.49163ZM15.9522 4.86706H17.5358V6.49105C17.2713 6.47838 17.0116 6.45067 16.744 6.45067C16.4764 6.45067 16.2166 6.47838 15.9522 6.49105V4.86706ZM4.57866 7.74607C4.72715 7.59763 4.92851 7.51424 5.13847 7.51424C5.34843 7.51424 5.54979 7.59763 5.69828 7.74607L7.33573 9.38036C6.89655 9.68388 6.47266 10.0067 6.06409 10.3487L4.57866 8.86568C4.43022 8.7172 4.34683 8.51583 4.34683 8.30588C4.34683 8.09592 4.43022 7.89455 4.57866 7.74607ZM16.744 38.123C13.7685 38.123 10.8598 37.2406 8.3858 35.5875C5.91177 33.9344 3.9835 31.5848 2.84483 28.8358C1.70616 26.0869 1.40823 23.0619 1.98872 20.1436C2.56921 17.2253 4.00205 14.5447 6.10603 12.4407C8.21002 10.3367 10.8907 8.90385 13.809 8.32336C16.7273 7.74287 19.7522 8.0408 22.5012 9.17947C25.2502 10.3181 27.5998 12.2464 29.2529 14.7204C30.906 17.1945 31.7883 20.1031 31.7883 23.0786C31.7839 27.0673 30.1975 30.8913 27.3771 33.7117C24.5567 36.5321 20.7326 38.1186 16.744 38.123Z" fill="#FFD500"/>
<path d="M16.7431 10.4097C14.2375 10.4097 11.7881 11.1527 9.70467 12.5448C7.62128 13.9368 5.99747 15.9155 5.03859 18.2304C4.07971 20.5453 3.82882 23.0926 4.31765 25.5502C4.80649 28.0077 6.01308 30.2651 7.78486 32.0369C9.55664 33.8086 11.814 35.0152 14.2716 35.5041C16.7291 35.9929 19.2764 35.742 21.5913 34.7831C23.9063 33.8243 25.8849 32.2005 27.277 30.1171C28.669 28.0337 29.4121 25.5843 29.4121 23.0786C29.4081 19.7198 28.072 16.4997 25.697 14.1247C23.322 11.7497 20.1019 10.4136 16.7431 10.4097ZM17.535 34.1235V32.5803C17.535 32.3703 17.4515 32.1689 17.303 32.0204C17.1545 31.8719 16.9531 31.7885 16.7431 31.7885C16.5331 31.7885 16.3317 31.8719 16.1833 32.0204C16.0348 32.1689 15.9513 32.3703 15.9513 32.5803V34.1235C13.2959 33.9306 10.7985 32.7885 8.91591 30.9058C7.03327 29.0232 5.8911 26.5259 5.69822 23.8704H7.24145C7.45145 23.8704 7.65285 23.787 7.80135 23.6385C7.94984 23.49 8.03326 23.2886 8.03326 23.0786C8.03326 22.8686 7.94984 22.6672 7.80135 22.5187C7.65285 22.3702 7.45145 22.2868 7.24145 22.2868H5.69822C5.8911 19.6313 7.03327 17.134 8.91591 15.2513C10.7985 13.3687 13.2959 12.2265 15.9513 12.0337V13.5769C15.9513 13.7869 16.0348 13.9883 16.1833 14.1368C16.3317 14.2853 16.5331 14.3687 16.7431 14.3687C16.9531 14.3687 17.1545 14.2853 17.303 14.1368C17.4515 13.9883 17.535 13.7869 17.535 13.5769V12.0337C20.1904 12.2265 22.6877 13.3687 24.5704 15.2513C26.453 17.134 27.5952 19.6313 27.7881 22.2868H26.2448C26.0348 22.2868 25.8334 22.3702 25.6849 22.5187C25.5364 22.6672 25.453 22.8686 25.453 23.0786C25.453 23.2886 25.5364 23.49 25.6849 23.6385C25.8334 23.787 26.0348 23.8704 26.2448 23.8704H27.7881C27.5952 26.5259 26.453 29.0232 24.5704 30.9058C22.6877 32.7885 20.1904 33.9306 17.535 34.1235Z" fill="#FFD500"/>
<path d="M20.8949 17.0206L16.8021 21.796L13.4305 17.076C13.3085 16.9051 13.1236 16.7896 12.9165 16.755C12.7093 16.7204 12.4969 16.7695 12.326 16.8916C12.155 17.0136 12.0396 17.1985 12.005 17.4056C11.9704 17.6128 12.0195 17.8252 12.1415 17.9961L16.1005 23.5388C16.1703 23.6365 16.2614 23.7172 16.367 23.7745C16.4725 23.8319 16.5898 23.8644 16.7098 23.8698C16.8298 23.8751 16.9494 23.8531 17.0597 23.8053C17.1699 23.7576 17.2678 23.6854 17.346 23.5942L22.0969 18.0515C22.1691 17.9733 22.2249 17.8813 22.2608 17.7811C22.2967 17.6808 22.312 17.5743 22.3058 17.468C22.2995 17.3617 22.272 17.2578 22.2246 17.1624C22.1773 17.067 22.1112 16.9821 22.0303 16.9128C21.9495 16.8435 21.8554 16.7913 21.7539 16.7592C21.6523 16.7271 21.5454 16.7158 21.4394 16.7261C21.3334 16.7363 21.2305 16.7678 21.137 16.8186C21.0434 16.8695 20.9611 16.9388 20.8949 17.0222V17.0206Z" fill="#FFD500"/>
</svg>
