<svg width="50" height="50" viewBox="0 0 50 50" fill="none" xmlns="http://www.w3.org/2000/svg">
<path d="M32.8125 16.0156C29.5677 16.0156 26.3957 16.9778 23.6977 18.7806C20.9997 20.5833 18.8969 23.1456 17.6551 26.1435C16.4134 29.1413 16.0885 32.4401 16.7215 35.6226C17.3545 38.8051 18.9171 41.7284 21.2115 44.0228C23.506 46.3173 26.4293 47.8798 29.6118 48.5129C32.7943 49.1459 36.0931 48.821 39.0909 47.5793C42.0888 46.3375 44.6511 44.2347 46.4538 41.5367C48.2565 38.8387 49.2188 35.6667 49.2188 32.4219C49.2138 28.0722 47.4837 23.9021 44.408 20.8264C41.3323 17.7507 37.1622 16.0206 32.8125 16.0156ZM41.375 29.0008L32.3234 38.0523C32.0417 38.3342 31.6629 38.4977 31.2645 38.5095C30.8662 38.5213 30.4784 38.3804 30.1805 38.1156L24.3211 32.9031C24.166 32.7673 24.0393 32.6021 23.9483 32.417C23.8574 32.232 23.8039 32.0308 23.7911 31.825C23.7782 31.6192 23.8063 31.4129 23.8735 31.218C23.9408 31.0231 24.0459 30.8435 24.1829 30.6894C24.32 30.5353 24.4861 30.4099 24.6718 30.3203C24.8575 30.2307 25.0591 30.1788 25.265 30.1675C25.4709 30.1562 25.677 30.1858 25.8714 30.2545C26.0658 30.3233 26.2446 30.4298 26.3977 30.568L31.1594 34.8008L39.1656 26.7914C39.4603 26.5068 39.855 26.3493 40.2647 26.3529C40.6744 26.3564 41.0663 26.5207 41.356 26.8104C41.6457 27.1001 41.81 27.492 41.8136 27.9017C41.8171 28.3114 41.6596 28.7061 41.375 29.0008Z" fill="white"/>
<path d="M31.25 1.17188H3.125C2.5034 1.17188 1.90726 1.41881 1.46772 1.85834C1.02818 2.29788 0.78125 2.89402 0.78125 3.51562V37.8906C0.78125 38.5122 1.02818 39.1084 1.46772 39.5479C1.90726 39.9874 2.5034 40.2344 3.125 40.2344H31.25C31.8716 40.2344 32.4677 39.9874 32.9073 39.5479C33.3468 39.1084 33.5938 38.5122 33.5938 37.8906V3.51562C33.5938 2.89402 33.3468 2.29788 32.9073 1.85834C32.4677 1.41881 31.8716 1.17188 31.25 1.17188ZM11.0813 5.85938C11.2423 6.31477 11.54 6.7093 11.9338 6.98899C12.3276 7.26868 12.7982 7.41987 13.2812 7.42188H21.0938C21.5768 7.41987 22.0474 7.26868 22.4412 6.98899C22.835 6.7093 23.1327 6.31477 23.2938 5.85938H28.9062V35.5469H5.46875V5.85938H11.0813ZM21.875 2.73438V5.07812C21.875 5.28533 21.7927 5.48404 21.6462 5.63055C21.4997 5.77706 21.301 5.85938 21.0938 5.85938H13.2812C13.074 5.85938 12.8753 5.77706 12.7288 5.63055C12.5823 5.48404 12.5 5.28533 12.5 5.07812V2.73438H21.875ZM32.0312 37.8906C32.0312 38.0978 31.9489 38.2965 31.8024 38.4431C31.6559 38.5896 31.4572 38.6719 31.25 38.6719H3.125C2.9178 38.6719 2.71909 38.5896 2.57257 38.4431C2.42606 38.2965 2.34375 38.0978 2.34375 37.8906V3.51562C2.34375 3.30842 2.42606 3.10971 2.57257 2.9632C2.71909 2.81668 2.9178 2.73438 3.125 2.73438H10.9375V4.29688H4.6875C4.4803 4.29688 4.28159 4.37919 4.13507 4.5257C3.98856 4.67221 3.90625 4.87092 3.90625 5.07812V36.3281C3.90625 36.5353 3.98856 36.734 4.13507 36.8806C4.28159 37.0271 4.4803 37.1094 4.6875 37.1094H29.6875C29.8947 37.1094 30.0934 37.0271 30.2399 36.8806C30.3864 36.734 30.4688 36.5353 30.4688 36.3281V5.07812C30.4688 4.87092 30.3864 4.67221 30.2399 4.5257C30.0934 4.37919 29.8947 4.29688 29.6875 4.29688H23.4375V2.73438H31.25C31.4572 2.73438 31.6559 2.81668 31.8024 2.9632C31.9489 3.10971 32.0312 3.30842 32.0312 3.51562V37.8906Z" fill="#FFD500"/>
<path d="M8.59375 14.4531H11.7188C11.926 14.4531 12.1247 14.3708 12.2712 14.2243C12.4177 14.0778 12.5 13.8791 12.5 13.6719V10.5469C12.5 10.3397 12.4177 10.141 12.2712 9.99445C12.1247 9.84794 11.926 9.76562 11.7188 9.76562H8.59375C8.38655 9.76562 8.18784 9.84794 8.04132 9.99445C7.89481 10.141 7.8125 10.3397 7.8125 10.5469V13.6719C7.8125 13.8791 7.89481 14.0778 8.04132 14.2243C8.18784 14.3708 8.38655 14.4531 8.59375 14.4531ZM9.375 11.3281H10.9375V12.8906H9.375V11.3281Z" fill="#FFD500"/>
<path d="M8.59375 23.0469H11.7188C11.926 23.0469 12.1247 22.9646 12.2712 22.8181C12.4177 22.6715 12.5 22.4728 12.5 22.2656V19.1406C12.5 18.9334 12.4177 18.7347 12.2712 18.5882C12.1247 18.4417 11.926 18.3594 11.7188 18.3594H8.59375C8.38655 18.3594 8.18784 18.4417 8.04132 18.5882C7.89481 18.7347 7.8125 18.9334 7.8125 19.1406V22.2656C7.8125 22.4728 7.89481 22.6715 8.04132 22.8181C8.18784 22.9646 8.38655 23.0469 8.59375 23.0469ZM9.375 19.9219H10.9375V21.4844H9.375V19.9219Z" fill="#FFD500"/>
<path d="M8.59375 31.6406H11.7188C11.926 31.6406 12.1247 31.5583 12.2712 31.4118C12.4177 31.2653 12.5 31.0666 12.5 30.8594V27.7344C12.5 27.5272 12.4177 27.3285 12.2712 27.1819C12.1247 27.0354 11.926 26.9531 11.7188 26.9531H8.59375C8.38655 26.9531 8.18784 27.0354 8.04132 27.1819C7.89481 27.3285 7.8125 27.5272 7.8125 27.7344V30.8594C7.8125 31.0666 7.89481 31.2653 8.04132 31.4118C8.18784 31.5583 8.38655 31.6406 8.59375 31.6406ZM9.375 28.5156H10.9375V30.0781H9.375V28.5156Z" fill="#FFD500"/>
<path d="M14.8438 12.8906H25.7812C25.9885 12.8906 26.1872 12.8083 26.3337 12.6618C26.4802 12.5153 26.5625 12.3166 26.5625 12.1094C26.5625 11.9022 26.4802 11.7035 26.3337 11.5569C26.1872 11.4104 25.9885 11.3281 25.7812 11.3281H14.8438C14.6365 11.3281 14.4378 11.4104 14.2913 11.5569C14.1448 11.7035 14.0625 11.9022 14.0625 12.1094C14.0625 12.3166 14.1448 12.5153 14.2913 12.6618C14.4378 12.8083 14.6365 12.8906 14.8438 12.8906Z" fill="#FFD500"/>
<path d="M14.8438 21.4844H25.7812C25.9885 21.4844 26.1872 21.4021 26.3337 21.2556C26.4802 21.109 26.5625 20.9103 26.5625 20.7031C26.5625 20.4959 26.4802 20.2972 26.3337 20.1507C26.1872 20.0042 25.9885 19.9219 25.7812 19.9219H14.8438C14.6365 19.9219 14.4378 20.0042 14.2913 20.1507C14.1448 20.2972 14.0625 20.4959 14.0625 20.7031C14.0625 20.9103 14.1448 21.109 14.2913 21.2556C14.4378 21.4021 14.6365 21.4844 14.8438 21.4844Z" fill="#FFD500"/>
<path d="M14.8438 30.0781H25.7812C25.9885 30.0781 26.1872 29.9958 26.3337 29.8493C26.4802 29.7028 26.5625 29.5041 26.5625 29.2969C26.5625 29.0897 26.4802 28.891 26.3337 28.7444C26.1872 28.5979 25.9885 28.5156 25.7812 28.5156H14.8438C14.6365 28.5156 14.4378 28.5979 14.2913 28.7444C14.1448 28.891 14.0625 29.0897 14.0625 29.2969C14.0625 29.5041 14.1448 29.7028 14.2913 29.8493C14.4378 29.9958 14.6365 30.0781 14.8438 30.0781Z" fill="#FFD500"/>
</svg>
