<svg width="50" height="50" viewBox="0 0 50 50" fill="none" xmlns="http://www.w3.org/2000/svg">
<g clip-path="url(#clip0)">
<path d="M26.1719 25.0001H37.8906V28.1251C37.8897 28.2803 37.9351 28.4323 38.0208 28.5616C38.1066 28.6909 38.229 28.7917 38.3723 28.8512C38.5156 28.9107 38.6734 28.9262 38.8255 28.8957C38.9777 28.8652 39.1173 28.79 39.2266 28.6798L47.8203 20.0861C47.8935 20.0135 47.9517 19.9271 47.9913 19.8318C48.031 19.7366 48.0514 19.6345 48.0514 19.5314C48.0514 19.4283 48.031 19.3262 47.9913 19.2309C47.9517 19.1357 47.8935 19.0493 47.8203 18.9767L39.2266 10.383C39.1173 10.2728 38.9777 10.1976 38.8255 10.1671C38.6734 10.1366 38.5156 10.1521 38.3723 10.2116C38.229 10.2711 38.1066 10.3719 38.0208 10.5012C37.9351 10.6305 37.8897 10.7825 37.8906 10.9376V14.0626H26.1719C25.5503 14.0626 24.9541 14.3096 24.5146 14.7491C24.0751 15.1887 23.8281 15.7848 23.8281 16.4064V22.6564C23.8281 23.278 24.0751 23.8741 24.5146 24.3137C24.9541 24.7532 25.5503 25.0001 26.1719 25.0001Z" fill="white"/>
<path d="M46.7108 35.7346L44.5311 37.9377L36.2186 29.6877C35.7734 29.2599 35.1799 29.021 34.5624 29.021C33.9449 29.021 33.3514 29.2599 32.9061 29.6877L28.4843 34.1096C28.0454 34.549 27.7988 35.1447 27.7988 35.7658C27.7988 36.3869 28.0454 36.9826 28.4843 37.4221L36.7655 45.7033L34.5624 47.9143C34.4527 48.0231 34.3777 48.162 34.3469 48.3134C34.3162 48.4648 34.331 48.6219 34.3895 48.7649C34.4481 48.9079 34.5477 49.0303 34.6758 49.1167C34.8039 49.2031 34.9548 49.2495 35.1093 49.2502H47.2655C47.4727 49.2502 47.6714 49.1679 47.8179 49.0214C47.9645 48.8749 48.0468 48.6761 48.0468 48.4689V36.2814C48.0461 36.1269 47.9997 35.9761 47.9133 35.848C47.8269 35.7199 47.7045 35.6202 47.5615 35.5617C47.4185 35.5032 47.2614 35.4883 47.1099 35.5191C46.9585 35.5499 46.8196 35.6249 46.7108 35.7346Z" fill="white"/>
<path d="M26.9538 39.0625H23.8288V27.3438C23.8288 26.7221 23.5818 26.126 23.1423 25.6865C22.7028 25.2469 22.1066 25 21.485 25H15.235C14.6134 25 14.0173 25.2469 13.5777 25.6865C13.1382 26.126 12.8913 26.7221 12.8913 27.3438V39.0625H9.76626C9.61109 39.0616 9.45916 39.1069 9.32985 39.1927C9.20053 39.2785 9.0997 39.4008 9.04019 39.5442C8.98069 39.6875 8.96521 39.8453 8.99573 39.9974C9.02625 40.1496 9.1014 40.2892 9.21157 40.3984L17.8053 48.9922C17.878 49.0654 17.9644 49.1235 18.0596 49.1632C18.1548 49.2029 18.2569 49.2233 18.36 49.2233C18.4631 49.2233 18.5653 49.2029 18.6605 49.1632C18.7557 49.1235 18.8421 49.0654 18.9147 48.9922L27.5084 40.3984C27.6186 40.2892 27.6938 40.1496 27.7243 39.9974C27.7548 39.8453 27.7393 39.6875 27.6798 39.5442C27.6203 39.4008 27.5195 39.2785 27.3902 39.1927C27.2609 39.1069 27.1089 39.0616 26.9538 39.0625Z" fill="white"/>
<g clip-path="url(#clip1)">
<path d="M24.8781 10.8665C24.259 10.8665 23.6847 11.063 23.2116 11.3967C22.8955 10.1085 21.7438 9.15079 20.375 9.15079C19.6879 9.15079 19.0558 9.39272 18.5562 9.79605C18.1074 8.7448 17.0733 8.007 15.8721 8.007C15.2902 8.007 14.7479 8.18074 14.292 8.47866V2.9591C14.292 1.32742 12.9808 0 11.3691 0C9.75737 0 8.44624 1.32742 8.44624 2.9591V17.9914L6.75954 16.4046C5.99604 15.6373 4.98474 15.2153 3.90934 15.2153C3.90593 15.2153 3.90252 15.2153 3.89911 15.2153C2.8156 15.218 1.79851 15.6487 1.03528 16.4282C0.342485 17.1356 0.345417 18.2837 1.04169 18.9878L11.0052 29.0581C12.8335 31.0721 15.4263 32.2267 18.1237 32.2267C23.4598 32.2267 27.801 27.8205 27.801 22.4045V17.2572V16.6852V13.8256C27.801 12.194 26.4898 10.8665 24.8781 10.8665ZM26.4582 16.6852V17.2571V22.4045C26.4582 27.08 22.7193 30.8839 18.1236 30.8839C15.7959 30.8839 13.5575 29.8827 11.9823 28.1372C11.9779 28.1323 11.9731 28.1282 11.9686 28.1234C11.9659 28.1206 11.9637 28.1177 11.961 28.115L1.99625 18.0433C1.81249 17.8575 1.81174 17.5544 1.99462 17.3676C2.50405 16.8473 3.18164 16.5598 3.90246 16.5581C3.90477 16.5581 3.90689 16.5581 3.90921 16.5581C4.6273 16.5581 5.30352 16.8419 5.81377 17.3579C5.81943 17.3636 5.82516 17.3692 5.83102 17.3747L8.65756 20.0338C8.85271 20.2174 9.13822 20.2673 9.38404 20.1611C9.62986 20.0548 9.78901 19.8126 9.78901 19.5448V2.9591C9.78901 2.06788 10.4978 1.34276 11.3691 1.34276C12.2404 1.34276 12.9492 2.06788 12.9492 2.9591V10.966V12.6817V13.2537C12.9492 13.6245 13.2498 13.9251 13.6206 13.9251C13.9913 13.9251 14.292 13.6244 14.292 13.2537V12.6817V10.966C14.292 10.0747 15.0008 9.34969 15.8721 9.34969C16.7434 9.34969 17.4522 10.0747 17.4522 10.966V12.1098V14.3975C17.4522 14.7683 17.7528 15.0689 18.1236 15.0689C18.4943 15.0689 18.795 14.7683 18.795 14.3975V12.1098C18.795 11.2186 19.5038 10.4935 20.375 10.4935C21.2463 10.4935 21.9551 11.2186 21.9551 12.1098V15.5413C21.9551 15.9121 22.2558 16.2127 22.6265 16.2127C22.9973 16.2127 23.2979 15.9121 23.2979 15.5413V13.8256C23.2979 12.9343 24.0067 12.2092 24.878 12.2092C25.7493 12.2092 26.4581 12.9343 26.4581 13.8256V16.6852H26.4582Z" fill="#FFD500"/>
</g>
</g>
<defs>
<clipPath id="clip0">
<rect width="50" height="50" fill="white"/>
</clipPath>
<clipPath id="clip1">
<rect width="32.2266" height="32.2266" fill="white" transform="translate(-1.95312)"/>
</clipPath>
</defs>
</svg>
