<svg width="50" height="50" viewBox="0 0 50 50" fill="none" xmlns="http://www.w3.org/2000/svg">
<g clip-path="url(#clip0)">
<path d="M40.625 19.5312H18.75C18.1284 19.5312 17.5323 19.7782 17.0927 20.2177C16.6532 20.6573 16.4063 21.2534 16.4062 21.875V46.875C16.4063 47.4966 16.6532 48.0927 17.0927 48.5323C17.5323 48.9718 18.1284 49.2188 18.75 49.2188H40.625C41.2466 49.2188 41.8427 48.9718 42.2823 48.5323C42.7218 48.0927 42.9688 47.4966 42.9688 46.875V21.875C42.9688 21.2534 42.7218 20.6573 42.2823 20.2177C41.8427 19.7782 41.2466 19.5312 40.625 19.5312ZM38.2812 44.5312H21.0938C20.8865 44.5312 20.6878 44.4489 20.5413 44.3024C20.3948 44.1559 20.3125 43.9572 20.3125 43.75C20.3125 43.5428 20.3948 43.3441 20.5413 43.1976C20.6878 43.0511 20.8865 42.9688 21.0938 42.9688H38.2812C38.4885 42.9688 38.6872 43.0511 38.8337 43.1976C38.9802 43.3441 39.0625 43.5428 39.0625 43.75C39.0625 43.9572 38.9802 44.1559 38.8337 44.3024C38.6872 44.4489 38.4885 44.5312 38.2812 44.5312ZM38.2812 39.8438H21.0938C20.8865 39.8438 20.6878 39.7614 20.5413 39.6149C20.3948 39.4684 20.3125 39.2697 20.3125 39.0625C20.3125 38.8553 20.3948 38.6566 20.5413 38.5101C20.6878 38.3636 20.8865 38.2812 21.0938 38.2812H38.2812C38.4885 38.2812 38.6872 38.3636 38.8337 38.5101C38.9802 38.6566 39.0625 38.8553 39.0625 39.0625C39.0625 39.2697 38.9802 39.4684 38.8337 39.6149C38.6872 39.7614 38.4885 39.8438 38.2812 39.8438ZM38.2812 35.1562H21.0938C20.8865 35.1562 20.6878 35.0739 20.5413 34.9274C20.3948 34.7809 20.3125 34.5822 20.3125 34.375C20.3125 34.1678 20.3948 33.9691 20.5413 33.8226C20.6878 33.6761 20.8865 33.5938 21.0938 33.5938H38.2812C38.4885 33.5938 38.6872 33.6761 38.8337 33.8226C38.9802 33.9691 39.0625 34.1678 39.0625 34.375C39.0625 34.5822 38.9802 34.7809 38.8337 34.9274C38.6872 35.0739 38.4885 35.1562 38.2812 35.1562ZM38.2812 30.4688H21.0938C20.8865 30.4688 20.6878 30.3864 20.5413 30.2399C20.3948 30.0934 20.3125 29.8947 20.3125 29.6875C20.3125 29.4803 20.3948 29.2816 20.5413 29.1351C20.6878 28.9886 20.8865 28.9062 21.0938 28.9062H38.2812C38.4885 28.9062 38.6872 28.9886 38.8337 29.1351C38.9802 29.2816 39.0625 29.4803 39.0625 29.6875C39.0625 29.8947 38.9802 30.0934 38.8337 30.2399C38.6872 30.3864 38.4885 30.4688 38.2812 30.4688ZM38.2812 25.7812H21.0938C20.8865 25.7812 20.6878 25.6989 20.5413 25.5524C20.3948 25.4059 20.3125 25.2072 20.3125 25C20.3125 24.7928 20.3948 24.5941 20.5413 24.4476C20.6878 24.3011 20.8865 24.2188 21.0938 24.2188H38.2812C38.4885 24.2188 38.6872 24.3011 38.8337 24.4476C38.9802 24.5941 39.0625 24.7928 39.0625 25C39.0625 25.2072 38.9802 25.4059 38.8337 25.5524C38.6872 25.6989 38.4885 25.7812 38.2812 25.7812Z" fill="white"/>
<path d="M46.875 13.2812H25C24.3784 13.2813 23.7823 13.5282 23.3427 13.9677C22.9032 14.4073 22.6563 15.0034 22.6562 15.625V17.9688H42.9688C43.3832 17.9688 43.7806 18.1334 44.0736 18.4264C44.3666 18.7194 44.5312 19.1168 44.5312 19.5312V49.2188H46.875C47.4966 49.2188 48.0927 48.9718 48.5323 48.5323C48.9718 48.0927 49.2188 47.4966 49.2188 46.875V15.625C49.2188 15.0034 48.9718 14.4073 48.5323 13.9677C48.0927 13.5282 47.4966 13.2813 46.875 13.2812Z" fill="white"/>
<path d="M20.9766 0C20.6099 0 20.3125 0.297367 20.3125 0.664062V3.71875C20.3125 4.08545 20.6099 4.38281 20.9766 4.38281C21.3433 4.38281 21.6406 4.08545 21.6406 3.71875V0.664062C21.6406 0.297367 21.3433 0 20.9766 0Z" fill="#FFD500"/>
<path d="M30.2734 19.3906C30.2734 17.926 29.0818 16.7344 27.6172 16.7344H22.6598C23.4273 14.7686 23.7379 12.4547 23.678 10.395C23.6666 10.0019 23.6515 9.7746 23.6312 9.6315C23.5968 8.19666 22.4186 7.03906 20.9766 7.03906C19.5119 7.03906 18.3203 8.23066 18.3203 9.69531V10.3594C18.3203 14.5593 12.9272 16.9191 8.85716 17.931C8.54943 17.2274 7.84698 16.7344 7.03125 16.7344H0.390625C0.0239297 16.7344 -0.273438 17.0317 -0.273438 17.3984V33.3359C-0.273438 33.7026 0.0239297 34 0.390625 34H7.03125C7.84154 34 8.53993 33.5134 8.85085 32.8174C9.18786 32.9038 9.5007 32.9855 9.7895 33.0609C12.1081 33.6665 13.3853 34 16.4915 34H23.6328C25.0975 34 26.2891 32.8084 26.2891 31.3438C26.2891 30.7976 26.1232 30.2896 25.8395 29.867C26.8653 29.5082 27.6172 28.5281 27.6172 27.3594C27.6172 26.8152 27.4554 26.3056 27.1725 25.881C28.1939 25.5216 28.9453 24.5438 28.9453 23.375C28.9453 22.8289 28.7795 22.3209 28.4957 21.8983C29.5216 21.5395 30.2734 20.5593 30.2734 19.3906ZM7.69531 32.0078C7.69531 32.374 7.39741 32.6719 7.03125 32.6719H1.05469V18.0625H7.03125C7.39741 18.0625 7.69531 18.3604 7.69531 18.7266V32.0078ZM27.6172 20.7188C26.1928 20.7188 25.8533 20.7188 24.2969 20.7188C23.9302 20.7188 23.6328 21.0161 23.6328 21.3828C23.6328 21.7495 23.9302 22.0469 24.2969 22.0469H26.2891C27.0214 22.0469 27.6172 22.6427 27.6172 23.375C27.6172 24.1085 27.0226 24.7031 26.2891 24.7031H22.9688C22.6021 24.7031 22.3047 25.0005 22.3047 25.3672C22.3047 25.7339 22.6021 26.0312 22.9688 26.0312H24.9609C25.6846 26.0312 26.2891 26.6093 26.2891 27.3594C26.2891 28.0929 25.6945 28.6875 24.9609 28.6875C23.5366 28.6875 23.1971 28.6875 21.6406 28.6875C21.2739 28.6875 20.9766 28.9849 20.9766 29.3516C20.9766 29.7183 21.2739 30.0156 21.6406 30.0156H23.6328C24.3651 30.0156 24.9609 30.6114 24.9609 31.3438C24.9609 32.0761 24.3651 32.6719 23.6328 32.6719H16.4915C13.5559 32.6719 12.4093 32.3724 10.1251 31.7759C9.7905 31.6885 9.42347 31.5927 9.02344 31.4907V19.2595C13.8291 18.1148 19.6484 15.3207 19.6484 10.3594V9.69531C19.6484 8.96298 20.2442 8.36719 20.9766 8.36719C21.7076 8.36719 22.3033 8.96205 22.3047 9.69325V9.69531C22.3047 9.98391 22.6649 13.5258 21.2205 16.7344H18.9844C18.6177 16.7344 18.3203 17.0317 18.3203 17.3984C18.3203 17.7651 18.6177 18.0625 18.9844 18.0625C19.4481 18.0625 26.8603 18.0625 27.6172 18.0625C28.3495 18.0625 28.9453 18.6583 28.9453 19.3906C28.9453 20.1241 28.3507 20.7188 27.6172 20.7188Z" fill="#FFD500"/>
<path d="M5.70312 23.375C5.33643 23.375 5.03906 23.6724 5.03906 24.0391V29.3516C5.03906 29.7183 5.33643 30.0156 5.70312 30.0156C6.06982 30.0156 6.36719 29.7183 6.36719 29.3516V24.0391C6.36719 23.6724 6.06982 23.375 5.70312 23.375Z" fill="#FFD500"/>
<path d="M15.6641 8.36719H13.0078C12.6411 8.36719 12.3438 8.66455 12.3438 9.03125C12.3438 9.39795 12.6411 9.69531 13.0078 9.69531H15.6641C16.0308 9.69531 16.3281 9.39795 16.3281 9.03125C16.3281 8.66455 16.0308 8.36719 15.6641 8.36719Z" fill="#FFD500"/>
<path d="M28.9453 8.36719H26.2891C25.9224 8.36719 25.625 8.66455 25.625 9.03125C25.625 9.39795 25.9224 9.69531 26.2891 9.69531H28.9453C29.312 9.69531 29.6094 9.39795 29.6094 9.03125C29.6094 8.66455 29.312 8.36719 28.9453 8.36719Z" fill="#FFD500"/>
<path d="M27.0799 2.9271C26.8206 2.66785 26.4002 2.66785 26.1408 2.9271L24.2628 4.805C24.0035 5.06432 24.0035 5.48481 24.2628 5.74419C24.5223 6.0035 24.9426 6.00344 25.202 5.74419L27.0799 3.86629C27.3393 3.60697 27.3393 3.18649 27.0799 2.9271Z" fill="#FFD500"/>
<path d="M17.6893 4.805L15.8114 2.9271C15.552 2.66785 15.1317 2.66785 14.8722 2.9271C14.6129 3.18642 14.6129 3.6069 14.8722 3.86629L16.7501 5.74419C17.0096 6.0035 17.4299 6.00344 17.6893 5.74419C17.9486 5.48487 17.9486 5.06439 17.6893 4.805Z" fill="#FFD500"/>
</g>
<defs>
<clipPath id="clip0">
<rect width="50" height="50" fill="white"/>
</clipPath>
</defs>
</svg>
