<svg width="50" height="50" viewBox="0 0 50 50" fill="none" xmlns="http://www.w3.org/2000/svg">
<path d="M35.9375 32.3921C40.6837 32.3921 44.5312 28.5445 44.5312 23.7983C44.5312 19.0521 40.6837 15.2046 35.9375 15.2046C31.1913 15.2046 27.3438 19.0521 27.3438 23.7983C27.3438 28.5445 31.1913 32.3921 35.9375 32.3921Z" fill="white"/>
<path d="M35.9375 10.5171C33.3107 10.5171 30.7429 11.296 28.5588 12.7554C26.3747 14.2147 24.6725 16.289 23.6672 18.7158C22.662 21.1427 22.399 23.8131 22.9115 26.3894C23.4239 28.9657 24.6888 31.3322 26.5462 33.1896C28.4037 35.047 30.7702 36.3119 33.3465 36.8244C35.9228 37.3369 38.5932 37.0738 41.02 36.0686C43.4469 35.0634 45.5211 33.3611 46.9805 31.177C48.4398 28.9929 49.2188 26.4251 49.2188 23.7983C49.2148 20.2771 47.8143 16.9013 45.3244 14.4114C42.8346 11.9216 39.4587 10.521 35.9375 10.5171ZM35.9375 33.9546C33.9288 33.9546 31.9652 33.3589 30.295 32.243C28.6248 31.127 27.3231 29.5408 26.5544 27.685C25.7857 25.8292 25.5845 23.7871 25.9764 21.817C26.3683 19.8468 27.3356 18.0372 28.756 16.6168C30.1763 15.1964 31.986 14.2291 33.9561 13.8372C35.9262 13.4454 37.9683 13.6465 39.8241 14.4152C41.6799 15.1839 43.2661 16.4856 44.3821 18.1558C45.4981 19.826 46.0938 21.7896 46.0938 23.7983C46.0907 26.491 45.0196 29.0725 43.1156 30.9765C41.2116 32.8805 38.6302 33.9515 35.9375 33.9546Z" fill="white"/>
<path d="M11.7253 42.6397C11.3511 42.9875 11.0508 43.4071 10.8424 43.8736C10.6339 44.34 10.5217 44.8437 10.5124 45.3545C10.503 45.8653 10.5967 46.3727 10.7879 46.8465C10.9791 47.3203 11.2639 47.7506 11.6251 48.1118C11.9864 48.4731 12.4168 48.7577 12.8906 48.9489C13.3644 49.14 13.8718 49.2336 14.3826 49.2242C14.8934 49.2148 15.3971 49.1025 15.8635 48.894C16.3299 48.6855 16.7495 48.3851 17.0972 48.0108L24.5472 40.028L19.7081 35.189L11.7253 42.6397Z" fill="white"/>
<path d="M23.4133 31.7312L20.8516 34.1226L25.6172 38.8882L28.0086 36.3257C26.1583 35.1499 24.5894 33.5813 23.4133 31.7312Z" fill="white"/>
<path d="M11.9483 28.4288C12.0948 28.5753 12.2935 28.6576 12.5006 28.6576C12.7078 28.6576 12.9065 28.5753 13.053 28.4288L24.8662 16.6156C25.0127 16.469 25.095 16.2704 25.095 16.0632C25.095 15.8561 25.0127 15.6574 24.8662 15.5109L21.5522 12.196C21.4057 12.0496 21.207 11.9673 20.9998 11.9673C20.7927 11.9673 20.594 12.0496 20.4475 12.196L12.5006 20.1421L9.24124 16.8835C9.09473 16.7371 8.89606 16.6548 8.6889 16.6548C8.48174 16.6548 8.28306 16.7371 8.13655 16.8835L4.82249 20.1984C4.67603 20.3449 4.59375 20.5436 4.59375 20.7507C4.59375 20.9579 4.67603 21.1565 4.82249 21.3031L11.9483 28.4288ZM8.6889 18.5406L11.9483 21.7968C12.0948 21.9433 12.2935 22.0255 12.5006 22.0255C12.7078 22.0255 12.9065 21.9433 13.053 21.7968L20.9998 13.8531L23.2092 16.0632L12.5006 26.7718L6.47952 20.7507L8.6889 18.5406Z" fill="#FFD500"/>
<path d="M27.3438 0H7.03125C6.82389 0.00106334 6.62524 0.083551 6.47812 0.229688L0.228125 6.47969C0.0830798 6.62677 0.00122138 6.82469 0 7.03125V36.7188C0 37.3404 0.24693 37.9365 0.686468 38.376C1.12601 38.8156 1.72215 39.0625 2.34375 39.0625H27.3438C27.9654 39.0625 28.5615 38.8156 29.001 38.376C29.4406 37.9365 29.6875 37.3404 29.6875 36.7188V2.34375C29.6875 1.72215 29.4406 1.12601 29.001 0.686468C28.5615 0.24693 27.9654 0 27.3438 0ZM6.25 2.66719V6.25H2.66719L6.25 2.66719ZM28.125 36.7188C28.125 36.9259 28.0427 37.1247 27.8962 37.2712C27.7497 37.4177 27.551 37.5 27.3438 37.5H2.34375C2.13655 37.5 1.93784 37.4177 1.79132 37.2712C1.64481 37.1247 1.5625 36.9259 1.5625 36.7188V7.8125H7.03125C7.23845 7.8125 7.43716 7.73019 7.58368 7.58368C7.73019 7.43716 7.8125 7.23845 7.8125 7.03125V1.5625H27.3438C27.551 1.5625 27.7497 1.64481 27.8962 1.79132C28.0427 1.93784 28.125 2.13655 28.125 2.34375V36.7188Z" fill="#FFD500"/>
<path d="M25 33.5938H4.6875C4.4803 33.5938 4.28159 33.6761 4.13507 33.8226C3.98856 33.9691 3.90625 34.1678 3.90625 34.375C3.90625 34.5822 3.98856 34.7809 4.13507 34.9274C4.28159 35.0739 4.4803 35.1562 4.6875 35.1562H25C25.2072 35.1562 25.4059 35.0739 25.5524 34.9274C25.6989 34.7809 25.7812 34.5822 25.7812 34.375C25.7812 34.1678 25.6989 33.9691 25.5524 33.8226C25.4059 33.6761 25.2072 33.5938 25 33.5938Z" fill="#FFD500"/>
</svg>
