<svg width="25" height="25" viewBox="0 0 25 25" fill="none" xmlns="http://www.w3.org/2000/svg">
<path d="M12.5 0C5.60748 0 0 5.60876 0 12.5C0 19.3937 5.60748 24.9999 12.5 24.9999C19.3925 24.9999 24.9999 19.3937 24.9999 12.5C25 5.60876 19.3925 0 12.5 0ZM12.5 5.93877C13.3625 5.93877 14.0625 6.63878 14.0625 7.50128C14.0625 8.36501 13.3625 9.0638 12.5 9.0638C11.6375 9.0638 10.9375 8.36372 10.9375 7.49999C10.9375 6.6375 11.6375 5.93877 12.5 5.93877ZM16.25 18.75H8.74997V16.25H11.25V12.5H10V9.99995H12.5C13.1913 9.99995 13.75 10.5599 13.75 11.2499V16.2499H16.25V18.75H16.25Z" fill="#3072C4"/>
</svg>
