<svg width="50" height="50" viewBox="0 0 50 50" fill="none" xmlns="http://www.w3.org/2000/svg">
<path d="M13.2812 29.6875H10.9375C10.7303 29.6875 10.5316 29.6052 10.3851 29.4587C10.2386 29.3122 10.1562 29.1135 10.1562 28.9062C10.1562 28.699 10.2386 28.5003 10.3851 28.3538C10.5316 28.2073 10.7303 28.125 10.9375 28.125H13.2812C13.4885 28.125 13.6872 28.2073 13.8337 28.3538C13.9802 28.5003 14.0625 28.699 14.0625 28.9062C14.0625 29.1135 13.9802 29.3122 13.8337 29.4587C13.6872 29.6052 13.4885 29.6875 13.2812 29.6875Z" fill="white"/>
<path d="M12.2816 37.7735C12.2345 37.6818 12.206 37.5816 12.1978 37.4788C12.1896 37.376 12.2018 37.2726 12.2338 37.1746C12.2657 37.0765 12.3168 36.9858 12.384 36.9076C12.4512 36.8293 12.5332 36.7652 12.6253 36.7188L14.7113 35.6563C14.803 35.6092 14.9032 35.5807 15.006 35.5725C15.1087 35.5643 15.2122 35.5766 15.3102 35.6085C15.4083 35.6405 15.499 35.6915 15.5772 35.7587C15.6554 35.8259 15.7196 35.908 15.7659 36.0001C15.8586 36.1846 15.8745 36.3983 15.8101 36.5944C15.7456 36.7906 15.6062 36.9533 15.4222 37.0469L13.3363 38.1173C13.2445 38.1644 13.1444 38.1928 13.0416 38.201C12.9388 38.2092 12.8354 38.197 12.7373 38.1651C12.6393 38.1331 12.5485 38.0821 12.4703 38.0149C12.3921 37.9476 12.3279 37.8656 12.2816 37.7735Z" fill="white"/>
<path d="M48.4375 29.6875H46.0938C45.8865 29.6875 45.6878 29.6052 45.5413 29.4587C45.3948 29.3122 45.3125 29.1135 45.3125 28.9062C45.3125 28.699 45.3948 28.5003 45.5413 28.3538C45.6878 28.2073 45.8865 28.125 46.0938 28.125H48.4375C48.6447 28.125 48.8434 28.2073 48.9899 28.3538C49.1364 28.5003 49.2188 28.699 49.2188 28.9062C49.2188 29.1135 49.1364 29.3122 48.9899 29.4587C48.8434 29.6052 48.6447 29.6875 48.4375 29.6875Z" fill="white"/>
<path d="M43.6085 21.8127C43.5158 21.6282 43.5 21.4145 43.5644 21.2184C43.6288 21.0222 43.7682 20.8595 43.9522 20.7658L46.0382 19.6955C46.2236 19.6012 46.4389 19.5845 46.6367 19.649C46.8345 19.7134 46.9986 19.8538 47.0929 20.0393C47.1871 20.2247 47.2039 20.44 47.1394 20.6378C47.075 20.8356 46.9346 20.9997 46.7491 21.094L44.6632 22.1565C44.5714 22.2036 44.4713 22.232 44.3685 22.2402C44.2657 22.2484 44.1623 22.2362 44.0642 22.2043C43.9662 22.1723 43.8754 22.1213 43.7972 22.054C43.719 21.9868 43.6549 21.9048 43.6085 21.8127Z" fill="white"/>
<path d="M46.0382 38.1173L43.9522 37.0469C43.7682 36.9533 43.6288 36.7906 43.5644 36.5944C43.5 36.3983 43.5158 36.1846 43.6085 36.0001C43.6549 35.908 43.719 35.8259 43.7972 35.7587C43.8754 35.6915 43.9662 35.6405 44.0642 35.6085C44.1623 35.5766 44.2657 35.5643 44.3685 35.5725C44.4713 35.5807 44.5714 35.6092 44.6632 35.6563L46.7491 36.7188C46.9346 36.8131 47.075 36.9772 47.1394 37.175C47.2039 37.3728 47.1871 37.5881 47.0929 37.7735C46.9986 37.959 46.8345 38.0994 46.6367 38.1638C46.4389 38.2283 46.2236 38.2115 46.0382 38.1173Z" fill="white"/>
<path d="M23.0868 42.9688H28.9071V35.5782L26.9149 34.2422C26.8192 34.1909 26.7351 34.12 26.6683 34.0343C26.6014 33.9486 26.5532 33.8499 26.5266 33.7445C26.5001 33.6391 26.4958 33.5293 26.5142 33.4221C26.5325 33.315 26.573 33.2128 26.633 33.1222C26.693 33.0316 26.7713 32.9545 26.8629 32.8959C26.9544 32.8373 27.0572 32.7984 27.1646 32.7817C27.272 32.7651 27.3817 32.7711 27.4867 32.7992C27.5917 32.8274 27.6897 32.8772 27.7743 32.9454L29.6884 34.2188L31.6024 32.9454C31.774 32.8533 31.9737 32.8287 32.1625 32.8762C32.3512 32.9237 32.5155 33.04 32.623 33.2023C32.7305 33.3645 32.7736 33.5611 32.7438 33.7535C32.714 33.9458 32.6134 34.1201 32.4618 34.2422L30.4696 35.5782V42.9688H36.2353C37.0009 41.0832 38.102 39.3521 39.4853 37.8594C41.2209 35.9628 42.3688 33.6033 42.7896 31.0671C43.2104 28.5309 42.8861 25.927 41.856 23.5715C40.8259 21.216 39.1343 19.2101 36.9865 17.7973C34.8386 16.3844 32.3269 15.6253 29.756 15.612C27.1852 15.5987 24.6657 16.3319 22.5034 17.7226C20.3411 19.1132 18.6289 21.1015 17.5745 23.4463C16.5202 25.791 16.169 28.3914 16.5637 30.9318C16.9583 33.4722 18.0818 35.8435 19.7978 37.7579C21.186 39.2925 22.2987 41.0554 23.0868 42.9688ZM33.5946 25C34.2127 25 34.8169 25.1833 35.3308 25.5267C35.8447 25.8701 36.2452 26.3581 36.4818 26.9292C36.7183 27.5002 36.7802 28.1285 36.6596 28.7347C36.539 29.3409 36.2414 29.8977 35.8043 30.3348C35.3673 30.7718 34.8105 31.0694 34.2043 31.19C33.5981 31.3106 32.9698 31.2487 32.3987 31.0122C31.8277 30.7756 31.3397 30.3751 30.9963 29.8612C30.6529 29.3473 30.4696 28.7431 30.4696 28.125C30.4696 27.2962 30.7989 26.5014 31.3849 25.9153C31.971 25.3293 32.7658 25 33.5946 25ZM25.7821 25C26.4002 25 27.0044 25.1833 27.5183 25.5267C28.0322 25.8701 28.4327 26.3581 28.6693 26.9292C28.9058 27.5002 28.9677 28.1285 28.8471 28.7347C28.7265 29.3409 28.4289 29.8977 27.9918 30.3348C27.5548 30.7718 26.998 31.0694 26.3918 31.19C25.7856 31.3106 25.1573 31.2487 24.5863 31.0122C24.0152 30.7756 23.5272 30.3751 23.1838 29.8612C22.8404 29.3473 22.6571 28.7431 22.6571 28.125C22.6571 27.2962 22.9864 26.5014 23.5724 25.9153C24.1585 25.3293 24.9533 25 25.7821 25Z" fill="white"/>
<path d="M23.6328 44.5312C23.8529 45.2802 24.0122 46.0457 24.1094 46.8203L24.2188 47.75C24.2418 47.9405 24.3341 48.116 24.4782 48.2428C24.6223 48.3696 24.8081 48.4389 25 48.4375H34.375C34.5669 48.4389 34.7527 48.3696 34.8968 48.2428C35.0409 48.116 35.1332 47.9405 35.1563 47.75L35.3047 46.5547C35.3942 45.8718 35.53 45.1958 35.7109 44.5312H23.6328Z" fill="white"/>
<path d="M32.4141 12.1016C33.3979 11.3637 34.1246 10.335 34.4913 9.16114C34.858 7.9873 34.846 6.72784 34.4571 5.56117C34.0682 4.39449 33.3221 3.37976 32.3245 2.66069C31.3268 1.94163 30.1282 1.55469 28.8984 1.55469C27.6687 1.55469 26.47 1.94163 25.4724 2.66069C24.4748 3.37976 23.7286 4.39449 23.3397 5.56117C22.9509 6.72784 22.9389 7.9873 23.3056 9.16114C23.6723 10.335 24.399 11.3637 25.3828 12.1016C25.0001 12.2083 24.6243 12.3388 24.2578 12.4922C23.1803 11.4878 21.7621 10.9292 20.2891 10.9292C18.816 10.9292 17.3978 11.4878 16.3203 12.4922C15.9538 12.3388 15.5781 12.2083 15.1953 12.1016C16.1791 11.3637 16.9059 10.335 17.2725 9.16114C17.6392 7.9873 17.6273 6.72784 17.2384 5.56117C16.8495 4.39449 16.1034 3.37976 15.1057 2.66069C14.1081 1.94163 12.9095 1.55469 11.6797 1.55469C10.4499 1.55469 9.2513 1.94163 8.25365 2.66069C7.256 3.37976 6.50989 4.39449 6.121 5.56117C5.73211 6.72784 5.72015 7.9873 6.08684 9.16114C6.45352 10.335 7.18024 11.3637 8.16406 12.1016C6.03751 12.7052 4.16597 13.9862 2.83354 15.7501C1.50111 17.514 0.780553 19.6644 0.781251 21.875V22.6563C0.781251 22.8635 0.863561 23.0622 1.01007 23.2087C1.15659 23.3552 1.3553 23.4375 1.5625 23.4375H13.0469C11.8986 24.3901 10.9742 25.584 10.3396 26.9342C9.70497 28.2845 9.37563 29.758 9.375 31.25V32.0313C9.375 32.2385 9.45731 32.4372 9.60382 32.5837C9.75034 32.7302 9.94905 32.8125 10.1563 32.8125H30.4688C30.676 32.8125 30.8747 32.7302 31.0212 32.5837C31.1677 32.4372 31.25 32.2385 31.25 32.0313V31.25C31.2484 29.7574 30.9179 28.2835 30.2819 26.9332C29.6459 25.5829 28.7201 24.3893 27.5703 23.4375H39.0625C39.2697 23.4375 39.4684 23.3552 39.6149 23.2087C39.7614 23.0622 39.8438 22.8635 39.8438 22.6563V21.875C39.8416 19.6584 39.1143 17.5033 37.7728 15.7386C36.4313 13.974 34.5493 12.6967 32.4141 12.1016ZM24.6016 7.41406C24.6031 6.56489 24.8562 5.73521 25.329 5.02979C25.8017 4.32437 26.4729 3.77484 27.2577 3.45059C28.0425 3.12634 28.9058 3.04191 29.7386 3.20795C30.5714 3.374 31.3363 3.78308 31.9368 4.38353C32.5372 4.98399 32.9463 5.7489 33.1124 6.58169C33.2784 7.41447 33.194 8.27778 32.8697 9.06261C32.5455 9.84745 31.9959 10.5186 31.2905 10.9913C30.5851 11.4641 29.7554 11.7172 28.9062 11.7188C27.7673 11.7167 26.6756 11.2633 25.8702 10.4579C25.0648 9.65257 24.6114 8.56084 24.6094 7.42188L24.6016 7.41406ZM20.3125 12.5C21.1623 12.5 21.9931 12.752 22.6997 13.2242C23.4063 13.6963 23.9571 14.3674 24.2823 15.1525C24.6075 15.9377 24.6926 16.8016 24.5268 17.6352C24.361 18.4687 23.9518 19.2343 23.3508 19.8352C22.7499 20.4362 21.9843 20.8454 21.1508 21.0112C20.3173 21.177 19.4533 21.0919 18.6682 20.7667C17.883 20.4415 17.2119 19.8907 16.7398 19.1841C16.2676 18.4775 16.0156 17.6467 16.0156 16.7969C16.0177 15.6579 16.4711 14.5662 17.2764 13.7608C18.0818 12.9554 19.1735 12.5021 20.3125 12.5ZM7.42188 7.42188C7.42188 6.57204 7.67388 5.74128 8.14603 5.03466C8.61818 4.32804 9.28926 3.7773 10.0744 3.45208C10.8596 3.12686 11.7235 3.04177 12.557 3.20756C13.3905 3.37336 14.1562 3.7826 14.7571 4.38353C15.358 4.98446 15.7673 5.75009 15.9331 6.5836C16.0989 7.41711 16.0138 8.28107 15.6885 9.06622C15.3633 9.85137 14.8126 10.5225 14.106 10.9946C13.3993 11.4667 12.5686 11.7188 11.7188 11.7188C10.5798 11.7167 9.48806 11.2633 8.68268 10.4579C7.87731 9.65257 7.42394 8.56084 7.42188 7.42188ZM2.34375 21.875C2.34375 19.5958 3.24916 17.4099 4.8608 15.7983C6.47244 14.1867 8.6583 13.2813 10.9375 13.2813H12.5C13.4575 13.2823 14.4081 13.4434 15.3125 13.7578C14.5513 14.998 14.2822 16.4784 14.5584 17.9072C14.8347 19.336 15.6361 20.6094 16.8047 21.4766C16.4031 21.5831 16.009 21.7162 15.625 21.875H2.34375ZM29.6875 31.25H10.9375C10.9375 28.9708 11.8429 26.7849 13.4546 25.1733C15.0662 23.5617 17.252 22.6563 19.5312 22.6563H21.0938C23.373 22.6563 25.5588 23.5617 27.1705 25.1733C28.7821 26.7849 29.6875 28.9708 29.6875 31.25ZM25 21.875C24.6186 21.7165 24.2271 21.5834 23.8281 21.4766C24.9968 20.6094 25.7982 19.336 26.0744 17.9072C26.3506 16.4784 26.0815 14.998 25.3203 13.7578C26.2222 13.4442 27.1701 13.2832 28.125 13.2813H29.6875C30.816 13.2813 31.9335 13.5035 32.9762 13.9354C34.0188 14.3673 34.9662 15.0003 35.7642 15.7983C36.5622 16.5963 37.1952 17.5437 37.6271 18.5863C38.059 19.629 38.2812 20.7465 38.2812 21.875H25Z" fill="#FFD500"/>
</svg>
