<svg width="50" height="50" viewBox="0 0 50 50" fill="none" xmlns="http://www.w3.org/2000/svg">
<path d="M42.1875 15.6248H38.9844C38.8051 14.7417 38.326 13.9478 37.6283 13.3776C36.9307 12.8074 36.0573 12.4958 35.1562 12.4958C34.2552 12.4958 33.3818 12.8074 32.6842 13.3776C31.9865 13.9478 31.5074 14.7417 31.3281 15.6248H28.125C27.9178 15.6248 27.7191 15.7071 27.5726 15.8536C27.4261 16.0001 27.3438 16.1988 27.3438 16.406V20.3123C27.3438 20.5195 27.4261 20.7182 27.5726 20.8647C27.7191 21.0112 27.9178 21.0935 28.125 21.0935H42.1875C42.3947 21.0935 42.5934 21.0112 42.7399 20.8647C42.8864 20.7182 42.9688 20.5195 42.9688 20.3123V16.406C42.9688 16.1988 42.8864 16.0001 42.7399 15.8536C42.5934 15.7071 42.3947 15.6248 42.1875 15.6248Z" fill="white"/>
<path d="M46.0938 17.1875H44.5312V20.3125C44.5312 20.9341 44.2843 21.5302 43.8448 21.9698C43.4052 22.4093 42.8091 22.6562 42.1875 22.6562H28.125C27.5034 22.6562 26.9073 22.4093 26.4677 21.9698C26.0282 21.5302 25.7812 20.9341 25.7812 20.3125V17.1875H24.2188C23.5971 17.1875 23.001 17.4344 22.5615 17.874C22.1219 18.3135 21.875 18.9096 21.875 19.5312V46.875C21.875 47.4966 22.1219 48.0927 22.5615 48.5323C23.001 48.9718 23.5971 49.2188 24.2188 49.2188H46.0938C46.7154 49.2188 47.3115 48.9718 47.751 48.5323C48.1906 48.0927 48.4375 47.4966 48.4375 46.875V19.5312C48.4375 18.9096 48.1906 18.3135 47.751 17.874C47.3115 17.4344 46.7154 17.1875 46.0938 17.1875ZM28.9062 46.0938H26.5625C26.3553 46.0938 26.1566 46.0114 26.0101 45.8649C25.8636 45.7184 25.7812 45.5197 25.7812 45.3125C25.7812 45.1053 25.8636 44.9066 26.0101 44.7601C26.1566 44.6136 26.3553 44.5312 26.5625 44.5312H28.9062C29.1135 44.5312 29.3122 44.6136 29.4587 44.7601C29.6052 44.9066 29.6875 45.1053 29.6875 45.3125C29.6875 45.5197 29.6052 45.7184 29.4587 45.8649C29.3122 46.0114 29.1135 46.0938 28.9062 46.0938ZM28.9062 41.4062H26.5625C26.3553 41.4062 26.1566 41.3239 26.0101 41.1774C25.8636 41.0309 25.7812 40.8322 25.7812 40.625C25.7812 40.4178 25.8636 40.2191 26.0101 40.0726C26.1566 39.9261 26.3553 39.8438 26.5625 39.8438H28.9062C29.1135 39.8438 29.3122 39.9261 29.4587 40.0726C29.6052 40.2191 29.6875 40.4178 29.6875 40.625C29.6875 40.8322 29.6052 41.0309 29.4587 41.1774C29.3122 41.3239 29.1135 41.4062 28.9062 41.4062ZM28.9062 36.7188H26.5625C26.3553 36.7188 26.1566 36.6364 26.0101 36.4899C25.8636 36.3434 25.7812 36.1447 25.7812 35.9375C25.7812 35.7303 25.8636 35.5316 26.0101 35.3851C26.1566 35.2386 26.3553 35.1562 26.5625 35.1562H28.9062C29.1135 35.1562 29.3122 35.2386 29.4587 35.3851C29.6052 35.5316 29.6875 35.7303 29.6875 35.9375C29.6875 36.1447 29.6052 36.3434 29.4587 36.4899C29.3122 36.6364 29.1135 36.7188 28.9062 36.7188ZM28.9062 32.0312H26.5625C26.3553 32.0312 26.1566 31.9489 26.0101 31.8024C25.8636 31.6559 25.7812 31.4572 25.7812 31.25C25.7812 31.0428 25.8636 30.8441 26.0101 30.6976C26.1566 30.5511 26.3553 30.4688 26.5625 30.4688H28.9062C29.1135 30.4688 29.3122 30.5511 29.4587 30.6976C29.6052 30.8441 29.6875 31.0428 29.6875 31.25C29.6875 31.4572 29.6052 31.6559 29.4587 31.8024C29.3122 31.9489 29.1135 32.0312 28.9062 32.0312ZM28.9062 27.3438H26.5625C26.3553 27.3438 26.1566 27.2614 26.0101 27.1149C25.8636 26.9684 25.7812 26.7697 25.7812 26.5625C25.7812 26.3553 25.8636 26.1566 26.0101 26.0101C26.1566 25.8636 26.3553 25.7812 26.5625 25.7812H28.9062C29.1135 25.7812 29.3122 25.8636 29.4587 26.0101C29.6052 26.1566 29.6875 26.3553 29.6875 26.5625C29.6875 26.7697 29.6052 26.9684 29.4587 27.1149C29.3122 27.2614 29.1135 27.3438 28.9062 27.3438ZM43.75 46.0938H32.8125C32.6053 46.0938 32.4066 46.0114 32.2601 45.8649C32.1136 45.7184 32.0312 45.5197 32.0312 45.3125C32.0312 45.1053 32.1136 44.9066 32.2601 44.7601C32.4066 44.6136 32.6053 44.5312 32.8125 44.5312H43.75C43.9572 44.5312 44.1559 44.6136 44.3024 44.7601C44.4489 44.9066 44.5312 45.1053 44.5312 45.3125C44.5312 45.5197 44.4489 45.7184 44.3024 45.8649C44.1559 46.0114 43.9572 46.0938 43.75 46.0938ZM43.75 41.4062H32.8125C32.6053 41.4062 32.4066 41.3239 32.2601 41.1774C32.1136 41.0309 32.0312 40.8322 32.0312 40.625C32.0312 40.4178 32.1136 40.2191 32.2601 40.0726C32.4066 39.9261 32.6053 39.8438 32.8125 39.8438H43.75C43.9572 39.8438 44.1559 39.9261 44.3024 40.0726C44.4489 40.2191 44.5312 40.4178 44.5312 40.625C44.5312 40.8322 44.4489 41.0309 44.3024 41.1774C44.1559 41.3239 43.9572 41.4062 43.75 41.4062ZM43.75 36.7188H32.8125C32.6053 36.7188 32.4066 36.6364 32.2601 36.4899C32.1136 36.3434 32.0312 36.1447 32.0312 35.9375C32.0312 35.7303 32.1136 35.5316 32.2601 35.3851C32.4066 35.2386 32.6053 35.1562 32.8125 35.1562H43.75C43.9572 35.1562 44.1559 35.2386 44.3024 35.3851C44.4489 35.5316 44.5312 35.7303 44.5312 35.9375C44.5312 36.1447 44.4489 36.3434 44.3024 36.4899C44.1559 36.6364 43.9572 36.7188 43.75 36.7188ZM43.75 32.0312H32.8125C32.6053 32.0312 32.4066 31.9489 32.2601 31.8024C32.1136 31.6559 32.0312 31.4572 32.0312 31.25C32.0312 31.0428 32.1136 30.8441 32.2601 30.6976C32.4066 30.5511 32.6053 30.4688 32.8125 30.4688H43.75C43.9572 30.4688 44.1559 30.5511 44.3024 30.6976C44.4489 30.8441 44.5312 31.0428 44.5312 31.25C44.5312 31.4572 44.4489 31.6559 44.3024 31.8024C44.1559 31.9489 43.9572 32.0312 43.75 32.0312ZM43.75 27.3438H32.8125C32.6053 27.3438 32.4066 27.2614 32.2601 27.1149C32.1136 26.9684 32.0312 26.7697 32.0312 26.5625C32.0312 26.3553 32.1136 26.1566 32.2601 26.0101C32.4066 25.8636 32.6053 25.7812 32.8125 25.7812H43.75C43.9572 25.7812 44.1559 25.8636 44.3024 26.0101C44.4489 26.1566 44.5312 26.3553 44.5312 26.5625C44.5312 26.7697 44.4489 26.9684 44.3024 27.1149C44.1559 27.2614 43.9572 27.3438 43.75 27.3438Z" fill="white"/>
<path d="M27.625 23.0233C28.3385 21.9621 28.7787 20.741 28.9062 19.4686C29.999 19.2839 30.991 18.718 31.7061 17.8713C32.4212 17.0246 32.8132 15.9519 32.8125 14.8436V11.7186C32.8132 10.6103 32.4212 9.53764 31.7061 8.69094C30.991 7.84425 29.999 7.27832 28.9062 7.0936C28.7277 5.35602 27.9088 3.7471 26.6091 2.58019C25.3093 1.41329 23.6217 0.771955 21.875 0.781102H17.1875C15.4475 0.781654 13.7695 1.42734 12.478 2.59332C11.1865 3.7593 10.3732 5.36274 10.1953 7.0936C9.09539 7.26998 8.09423 7.83232 7.37126 8.67983C6.6483 9.52734 6.2508 10.6046 6.25 11.7186V14.8436C6.25 16.0868 6.74386 17.2791 7.62294 18.1582C8.50201 19.0372 9.6943 19.5311 10.9375 19.5311C11.1447 19.5311 11.3434 19.4488 11.4899 19.3023C11.6364 19.1558 11.7188 18.9571 11.7188 18.7499V18.453C12.6104 19.7785 13.8259 20.8542 15.25 21.578C11.3434 22.5448 7.87308 24.7918 5.39233 27.9607C2.91159 31.1296 1.56331 35.0379 1.5625 39.0624C1.5625 39.2696 1.64481 39.4683 1.79132 39.6148C1.93784 39.7613 2.13655 39.8436 2.34375 39.8436H36.7188C36.9259 39.8436 37.1247 39.7613 37.2712 39.6148C37.4177 39.4683 37.5 39.2696 37.5 39.0624C37.4993 35.737 36.5759 32.477 34.8324 29.6453C33.089 26.8135 30.5939 24.5212 27.625 23.0233ZM28.9062 8.69517C29.5767 8.86827 30.1706 9.25912 30.5948 9.80635C31.019 10.3536 31.2495 11.0262 31.25 11.7186V14.8436C31.2495 15.536 31.019 16.2086 30.5948 16.7559C30.1706 17.3031 29.5767 17.6939 28.9062 17.867V8.69517ZM10.1562 17.867C9.48584 17.6939 8.89189 17.3031 8.46768 16.7559C8.04347 16.2086 7.81302 15.536 7.8125 14.8436V11.7186C7.81302 11.0262 8.04347 10.3536 8.46768 9.80635C8.89189 9.25912 9.48584 8.86827 10.1562 8.69517V17.867ZM11.7188 7.81235C11.7188 6.36195 12.2949 4.97095 13.3205 3.94536C14.3461 2.91977 15.7371 2.3436 17.1875 2.3436H21.875C23.3254 2.3436 24.7164 2.91977 25.742 3.94536C26.7676 4.97095 27.3438 6.36195 27.3438 7.81235V8.10923C26.4886 6.82001 25.3277 5.76246 23.9645 5.03089C22.6013 4.29931 21.0783 3.91645 19.5312 3.91645C17.9842 3.91645 16.4612 4.29931 15.098 5.03089C13.7348 5.76246 12.5739 6.82001 11.7188 8.10923V7.81235ZM11.7188 13.2811C11.7188 11.7359 12.1769 10.2255 13.0354 8.94071C13.8938 7.65595 15.114 6.6546 16.5415 6.06329C17.9691 5.47198 19.5399 5.31727 21.0554 5.61872C22.5709 5.92017 23.9629 6.66423 25.0555 7.75683C26.1481 8.84943 26.8922 10.2415 27.1936 11.757C27.4951 13.2724 27.3404 14.8433 26.7491 16.2708C26.1577 17.6984 25.1564 18.9185 23.8716 19.777C22.5869 20.6354 21.0764 21.0936 19.5312 21.0936C17.4592 21.0936 15.4721 20.2705 14.007 18.8054C12.5419 17.3402 11.7188 15.3531 11.7188 13.2811ZM27.3438 18.453V18.7499C27.3422 20.0498 26.9353 21.317 26.1797 22.3749C25.4166 22.0628 24.6336 21.8018 23.8359 21.5936C25.2533 20.8622 26.4607 19.7812 27.3438 18.453ZM3.125 38.2811C3.23959 35.7213 3.9539 33.2241 5.21038 30.9909C6.46685 28.7577 8.23035 26.8509 10.3588 25.4241C12.4872 23.9973 14.921 23.0904 17.4641 22.7765C20.0073 22.4626 22.5885 22.7506 25 23.617C23.893 24.5088 22.5152 24.9965 21.0938 24.9999H19.5312C19.324 24.9999 19.1253 25.0822 18.9788 25.2287C18.8323 25.3752 18.75 25.5739 18.75 25.7811C18.75 25.9883 18.8323 26.187 18.9788 26.3335C19.1253 26.48 19.324 26.5624 19.5312 26.5624H21.0938C23.1618 26.5619 25.1452 25.7416 26.6094 24.2811C29.2832 25.5553 31.5621 27.5296 33.2044 29.9945C34.8468 32.4593 35.7912 35.3228 35.9375 38.2811H3.125Z" fill="#FFD500"/>
<path d="M19.5312 29.6875C19.9627 29.6875 20.3125 29.3377 20.3125 28.9062C20.3125 28.4748 19.9627 28.125 19.5312 28.125C19.0998 28.125 18.75 28.4748 18.75 28.9062C18.75 29.3377 19.0998 29.6875 19.5312 29.6875Z" fill="#FFD500"/>
<path d="M19.5312 32.8125C19.9627 32.8125 20.3125 32.4627 20.3125 32.0312C20.3125 31.5998 19.9627 31.25 19.5312 31.25C19.0998 31.25 18.75 31.5998 18.75 32.0312C18.75 32.4627 19.0998 32.8125 19.5312 32.8125Z" fill="#FFD500"/>
<path d="M19.5312 35.9375C19.9627 35.9375 20.3125 35.5877 20.3125 35.1562C20.3125 34.7248 19.9627 34.375 19.5312 34.375C19.0998 34.375 18.75 34.7248 18.75 35.1562C18.75 35.5877 19.0998 35.9375 19.5312 35.9375Z" fill="#FFD500"/>
</svg>
