<svg width="50" height="50" viewBox="0 0 50 50" fill="none" xmlns="http://www.w3.org/2000/svg">
<path d="M46.875 10.1562H17.1875C16.5659 10.1562 15.9698 10.4032 15.5302 10.8427C15.0907 11.2823 14.8438 11.8784 14.8438 12.5V23.4375C14.8438 24.0591 15.0907 24.6552 15.5302 25.0948C15.9698 25.5343 16.5659 25.7812 17.1875 25.7812H27.0203L31.4789 30.2398C31.5882 30.3491 31.7274 30.4234 31.8789 30.4536C32.0304 30.4837 32.1875 30.4682 32.3302 30.4091C32.4729 30.35 32.5949 30.2499 32.6808 30.1215C32.7666 29.993 32.8125 29.842 32.8125 29.6875V25.7812H46.875C47.4966 25.7812 48.0927 25.5343 48.5323 25.0948C48.9718 24.6552 49.2188 24.0591 49.2188 23.4375V12.5C49.2188 11.8784 48.9718 11.2823 48.5323 10.8427C48.0927 10.4032 47.4966 10.1562 46.875 10.1562ZM43.75 21.0937H27.3438C27.1365 21.0937 26.9378 21.0114 26.7913 20.8649C26.6448 20.7184 26.5625 20.5197 26.5625 20.3125C26.5625 20.1053 26.6448 19.9066 26.7913 19.7601C26.9378 19.6136 27.1365 19.5312 27.3438 19.5312H43.75C43.9572 19.5312 44.1559 19.6136 44.3024 19.7601C44.4489 19.9066 44.5312 20.1053 44.5312 20.3125C44.5312 20.5197 44.4489 20.7184 44.3024 20.8649C44.1559 21.0114 43.9572 21.0937 43.75 21.0937ZM43.75 16.4062H20.3125C20.1053 16.4062 19.9066 16.3239 19.7601 16.1774C19.6136 16.0309 19.5312 15.8322 19.5312 15.625C19.5312 15.4178 19.6136 15.2191 19.7601 15.0726C19.9066 14.9261 20.1053 14.8437 20.3125 14.8437H43.75C43.9572 14.8437 44.1559 14.9261 44.3024 15.0726C44.4489 15.2191 44.5312 15.4178 44.5312 15.625C44.5312 15.8322 44.4489 16.0309 44.3024 16.1774C44.1559 16.3239 43.9572 16.4062 43.75 16.4062Z" fill="white"/>
<path d="M48.4375 47.656H46.875V46.0935C46.8734 44.5616 46.4221 43.0639 45.577 41.7862C44.7319 40.5084 43.5302 39.507 42.1211 38.906C43.0919 38.251 43.8269 37.3016 44.2177 36.1976C44.6086 35.0936 44.6347 33.8933 44.2922 32.7734C43.9497 31.6534 43.2568 30.673 42.3153 29.9764C41.3739 29.2798 40.2336 28.9038 39.0625 28.9038C37.8914 28.9038 36.7511 29.2798 35.8097 29.9764C34.8682 30.673 34.1753 31.6534 33.8328 32.7734C33.4903 33.8933 33.5164 35.0936 33.9073 36.1976C34.2981 37.3016 35.0331 38.251 36.0039 38.906C34.5948 39.507 33.3931 40.5084 32.548 41.7862C31.7029 43.0639 31.2516 44.5616 31.25 46.0935V47.656H10.9375C10.7303 47.656 10.5316 47.7383 10.3851 47.8848C10.2386 48.0313 10.1562 48.2301 10.1562 48.4373C10.1562 48.6445 10.2386 48.8432 10.3851 48.9897C10.5316 49.1362 10.7303 49.2185 10.9375 49.2185H48.4375C48.6447 49.2185 48.8434 49.1362 48.9899 48.9897C49.1364 48.8432 49.2188 48.6445 49.2188 48.4373C49.2188 48.2301 49.1364 48.0313 48.9899 47.8848C48.8434 47.7383 48.6447 47.656 48.4375 47.656Z" fill="white"/>
<path d="M37.5 0.78125H3.125C2.5034 0.78125 1.90726 1.02818 1.46772 1.46772C1.02818 1.90726 0.78125 2.5034 0.78125 3.125V14.0625C0.78125 14.6841 1.02818 15.2802 1.46772 15.7198C1.90726 16.1593 2.5034 16.4062 3.125 16.4062H19.5312V20.3125C19.5313 20.467 19.5771 20.618 19.663 20.7465C19.7488 20.8749 19.8708 20.975 20.0136 21.0341C20.1563 21.0932 20.3133 21.1087 20.4649 21.0786C20.6164 21.0484 20.7556 20.9741 20.8648 20.8648L25.3234 16.4062H37.5C38.1216 16.4062 38.7177 16.1593 39.1573 15.7198C39.5968 15.2802 39.8438 14.6841 39.8438 14.0625V3.125C39.8438 2.5034 39.5968 1.90726 39.1573 1.46772C38.7177 1.02818 38.1216 0.78125 37.5 0.78125ZM38.2812 14.0625C38.2812 14.2697 38.1989 14.4684 38.0524 14.6149C37.9059 14.7614 37.7072 14.8437 37.5 14.8437H25C24.7928 14.8438 24.5941 14.9261 24.4477 15.0727L21.0938 18.4266V15.625C21.0938 15.4178 21.0114 15.2191 20.8649 15.0726C20.7184 14.9261 20.5197 14.8437 20.3125 14.8437H3.125C2.9178 14.8437 2.71909 14.7614 2.57257 14.6149C2.42606 14.4684 2.34375 14.2697 2.34375 14.0625V3.125C2.34375 2.9178 2.42606 2.71909 2.57257 2.57257C2.71909 2.42606 2.9178 2.34375 3.125 2.34375H37.5C37.7072 2.34375 37.9059 2.42606 38.0524 2.57257C38.1989 2.71909 38.2812 2.9178 38.2812 3.125V14.0625Z" fill="#FFD500"/>
<path d="M34.375 5.46875H6.25C6.0428 5.46875 5.84409 5.55106 5.69757 5.69757C5.55106 5.84409 5.46875 6.0428 5.46875 6.25C5.46875 6.4572 5.55106 6.65591 5.69757 6.80243C5.84409 6.94894 6.0428 7.03125 6.25 7.03125H34.375C34.5822 7.03125 34.7809 6.94894 34.9274 6.80243C35.0739 6.65591 35.1562 6.4572 35.1562 6.25C35.1562 6.0428 35.0739 5.84409 34.9274 5.69757C34.7809 5.55106 34.5822 5.46875 34.375 5.46875Z" fill="#FFD500"/>
<path d="M25 10.1562H6.25C6.0428 10.1562 5.84409 10.2386 5.69757 10.3851C5.55106 10.5316 5.46875 10.7303 5.46875 10.9375C5.46875 11.1447 5.55106 11.3434 5.69757 11.4899C5.84409 11.6364 6.0428 11.7188 6.25 11.7188H25C25.2072 11.7188 25.4059 11.6364 25.5524 11.4899C25.6989 11.3434 25.7812 11.1447 25.7812 10.9375C25.7812 10.7303 25.6989 10.5316 25.5524 10.3851C25.4059 10.2386 25.2072 10.1562 25 10.1562Z" fill="#FFD500"/>
<path d="M29.6875 39.844C29.8947 39.844 30.0934 39.7617 30.2399 39.6152C30.3864 39.4687 30.4688 39.27 30.4688 39.0628C30.4688 38.8556 30.3864 38.6569 30.2399 38.5104C30.0934 38.3638 29.8947 38.2815 29.6875 38.2815H18.75V36.719C18.7484 35.1871 18.2971 33.6894 17.452 32.4117C16.6069 31.1339 15.4052 30.1325 13.9961 29.5315C14.9669 28.8765 15.7019 27.9271 16.0927 26.8231C16.4836 25.7191 16.5097 24.5188 16.1672 23.3989C15.8247 22.2789 15.1318 21.2985 14.1903 20.6019C13.2489 19.9053 12.1086 19.5293 10.9375 19.5293C9.76635 19.5293 8.62614 19.9053 7.68469 20.6019C6.74323 21.2985 6.05027 22.2789 5.7078 23.3989C5.36532 24.5188 5.39143 25.7191 5.78228 26.8231C6.17312 27.9271 6.90805 28.8765 7.87891 29.5315C6.46979 30.1325 5.26813 31.1339 4.42303 32.4117C3.57793 33.6894 3.12659 35.1871 3.125 36.719V38.2815H1.5625C1.3553 38.2815 1.15659 38.3638 1.01007 38.5104C0.86356 38.6569 0.78125 38.8556 0.78125 39.0628C0.78125 39.27 0.86356 39.4687 1.01007 39.6152C1.15659 39.7617 1.3553 39.844 1.5625 39.844H29.6875ZM7.03125 25.0003C7.03125 24.2277 7.26035 23.4724 7.68957 22.8301C8.1188 22.1877 8.72887 21.687 9.44264 21.3914C10.1564 21.0957 10.9418 21.0183 11.6996 21.1691C12.4573 21.3198 13.1533 21.6918 13.6996 22.2381C14.2459 22.7844 14.618 23.4805 14.7687 24.2382C14.9194 24.9959 14.8421 25.7813 14.5464 26.4951C14.2507 27.2089 13.7501 27.819 13.1077 28.2482C12.4653 28.6774 11.7101 28.9065 10.9375 28.9065C9.90188 28.9053 8.90903 28.4933 8.17673 27.761C7.44444 27.0287 7.03249 26.0359 7.03125 25.0003ZM4.6875 36.719C4.6875 35.0614 5.34598 33.4717 6.51808 32.2996C7.69018 31.1275 9.2799 30.469 10.9375 30.469C12.5951 30.469 14.1848 31.1275 15.3569 32.2996C16.529 33.4717 17.1875 35.0614 17.1875 36.719V38.2815H4.6875V36.719Z" fill="#FFD500"/>
</svg>
