<svg width="50" height="50" viewBox="0 0 50 50" fill="none" xmlns="http://www.w3.org/2000/svg">
<path d="M49.2188 32.0312V17.1875C49.2188 16.5659 48.9718 15.9698 48.5323 15.5302C48.0927 15.0907 47.4966 14.8438 46.875 14.8438H17.1875C16.5659 14.8438 15.9698 15.0907 15.5302 15.5302C15.0907 15.9698 14.8438 16.5659 14.8438 17.1875V32.0312H49.2188ZM32.0312 29.6875H30.4688C30.2615 29.6875 30.0628 29.6052 29.9163 29.4587C29.7698 29.3122 29.6875 29.1135 29.6875 28.9063C29.6875 28.699 29.7698 28.5003 29.9163 28.3538C30.0628 28.2073 30.2615 28.125 30.4688 28.125H32.0312C32.2385 28.125 32.4372 28.2073 32.5837 28.3538C32.7302 28.5003 32.8125 28.699 32.8125 28.9063C32.8125 29.1135 32.7302 29.3122 32.5837 29.4587C32.4372 29.6052 32.2385 29.6875 32.0312 29.6875ZM25.7813 25C25.574 25 25.3753 24.9177 25.2288 24.7712C25.0823 24.6247 25 24.426 25 24.2188C25 24.0115 25.0823 23.8128 25.2288 23.6663C25.3753 23.5198 25.574 23.4375 25.7813 23.4375H34.375C34.5822 23.4375 34.7809 23.5198 34.9274 23.6663C35.0739 23.8128 35.1563 24.0115 35.1563 24.2188C35.1563 24.426 35.0739 24.6247 34.9274 24.7712C34.7809 24.9177 34.5822 25 34.375 25H25.7813ZM39.0625 29.6875H35.1563C34.9491 29.6875 34.7503 29.6052 34.6038 29.4587C34.4573 29.3122 34.375 29.1135 34.375 28.9063C34.375 28.699 34.4573 28.5003 34.6038 28.3538C34.7503 28.2073 34.9491 28.125 35.1563 28.125H39.0625C39.2697 28.125 39.4684 28.2073 39.6149 28.3538C39.7614 28.5003 39.8438 28.699 39.8438 28.9063C39.8438 29.1135 39.7614 29.3122 39.6149 29.4587C39.4684 29.6052 39.2697 29.6875 39.0625 29.6875ZM43.75 29.6875H42.1875C41.9803 29.6875 41.7816 29.6052 41.6351 29.4587C41.4886 29.3122 41.4063 29.1135 41.4063 28.9063C41.4063 28.699 41.4886 28.5003 41.6351 28.3538C41.7816 28.2073 41.9803 28.125 42.1875 28.125H43.75C43.9572 28.125 44.1559 28.2073 44.3024 28.3538C44.4489 28.5003 44.5313 28.699 44.5313 28.9063C44.5313 29.1135 44.4489 29.3122 44.3024 29.4587C44.1559 29.6052 43.9572 29.6875 43.75 29.6875ZM43.75 25H42.1875C41.9803 25 41.7816 24.9177 41.6351 24.7712C41.4886 24.6247 41.4063 24.426 41.4063 24.2188C41.4063 24.0115 41.4886 23.8128 41.6351 23.6663C41.7816 23.5198 41.9803 23.4375 42.1875 23.4375H43.75C43.9572 23.4375 44.1559 23.5198 44.3024 23.6663C44.4489 23.8128 44.5313 24.0115 44.5313 24.2188C44.5313 24.426 44.4489 24.6247 44.3024 24.7712C44.1559 24.9177 43.9572 25 43.75 25ZM39.8438 18.75H43.75C43.9572 18.75 44.1559 18.8323 44.3024 18.9788C44.4489 19.1253 44.5313 19.324 44.5313 19.5312C44.5313 19.7385 44.4489 19.9372 44.3024 20.0837C44.1559 20.2302 43.9572 20.3125 43.75 20.3125H39.8438C39.6366 20.3125 39.4378 20.2302 39.2913 20.0837C39.1448 19.9372 39.0625 19.7385 39.0625 19.5312C39.0625 19.324 39.1448 19.1253 39.2913 18.9788C39.4378 18.8323 39.6366 18.75 39.8438 18.75ZM39.8438 24.2188C39.8438 24.426 39.7614 24.6247 39.6149 24.7712C39.4684 24.9177 39.2697 25 39.0625 25H37.5C37.2928 25 37.0941 24.9177 36.9476 24.7712C36.8011 24.6247 36.7188 24.426 36.7188 24.2188C36.7188 24.0115 36.8011 23.8128 36.9476 23.6663C37.0941 23.5198 37.2928 23.4375 37.5 23.4375H39.0625C39.2697 23.4375 39.4684 23.5198 39.6149 23.6663C39.7614 23.8128 39.8438 24.0115 39.8438 24.2188ZM32.8125 18.75H36.7188C36.926 18.75 37.1247 18.8323 37.2712 18.9788C37.4177 19.1253 37.5 19.324 37.5 19.5312C37.5 19.7385 37.4177 19.9372 37.2712 20.0837C37.1247 20.2302 36.926 20.3125 36.7188 20.3125H32.8125C32.6053 20.3125 32.4066 20.2302 32.2601 20.0837C32.1136 19.9372 32.0312 19.7385 32.0312 19.5312C32.0312 19.324 32.1136 19.1253 32.2601 18.9788C32.4066 18.8323 32.6053 18.75 32.8125 18.75ZM28.125 18.75H29.6875C29.8947 18.75 30.0934 18.8323 30.2399 18.9788C30.3864 19.1253 30.4688 19.324 30.4688 19.5312C30.4688 19.7385 30.3864 19.9372 30.2399 20.0837C30.0934 20.2302 29.8947 20.3125 29.6875 20.3125H28.125C27.9178 20.3125 27.7191 20.2302 27.5726 20.0837C27.4261 19.9372 27.3438 19.7385 27.3438 19.5312C27.3438 19.324 27.4261 19.1253 27.5726 18.9788C27.7191 18.8323 27.9178 18.75 28.125 18.75ZM21.0938 18.75H25C25.2072 18.75 25.4059 18.8323 25.5524 18.9788C25.6989 19.1253 25.7813 19.324 25.7813 19.5312C25.7813 19.7385 25.6989 19.9372 25.5524 20.0837C25.4059 20.2302 25.2072 20.3125 25 20.3125H21.0938C20.8865 20.3125 20.6878 20.2302 20.5413 20.0837C20.3948 19.9372 20.3125 19.7385 20.3125 19.5312C20.3125 19.324 20.3948 19.1253 20.5413 18.9788C20.6878 18.8323 20.8865 18.75 21.0938 18.75ZM20.3125 23.4375H22.6563C22.8635 23.4375 23.0622 23.5198 23.2087 23.6663C23.3552 23.8128 23.4375 24.0115 23.4375 24.2188C23.4375 24.426 23.3552 24.6247 23.2087 24.7712C23.0622 24.9177 22.8635 25 22.6563 25H20.3125C20.1053 25 19.9066 24.9177 19.7601 24.7712C19.6136 24.6247 19.5312 24.426 19.5312 24.2188C19.5312 24.0115 19.6136 23.8128 19.7601 23.6663C19.9066 23.5198 20.1053 23.4375 20.3125 23.4375ZM20.3125 28.125H27.3438C27.551 28.125 27.7497 28.2073 27.8962 28.3538C28.0427 28.5003 28.125 28.699 28.125 28.9063C28.125 29.1135 28.0427 29.3122 27.8962 29.4587C27.7497 29.6052 27.551 29.6875 27.3438 29.6875H20.3125C20.1053 29.6875 19.9066 29.6052 19.7601 29.4587C19.6136 29.3122 19.5312 29.1135 19.5312 28.9063C19.5312 28.699 19.6136 28.5003 19.7601 28.3538C19.9066 28.2073 20.1053 28.125 20.3125 28.125ZM39.0625 48.4375C39.0625 48.6447 38.9802 48.8434 38.8337 48.9899C38.6872 49.1364 38.4885 49.2188 38.2813 49.2188H25.7813C25.574 49.2188 25.3753 49.1364 25.2288 48.9899C25.0823 48.8434 25 48.6447 25 48.4375C25 48.2303 25.0823 48.0316 25.2288 47.8851C25.3753 47.7386 25.574 47.6562 25.7813 47.6562H26.7344L28.2969 41.4063H35.7656L37.3281 47.6562H38.2813C38.4885 47.6562 38.6872 47.7386 38.8337 47.8851C38.9802 48.0316 39.0625 48.2303 39.0625 48.4375ZM49.2188 33.5938V37.5C49.2188 38.1216 48.9718 38.7177 48.5323 39.1573C48.0927 39.5968 47.4966 39.8438 46.875 39.8438H17.1875C16.5659 39.8438 15.9698 39.5968 15.5302 39.1573C15.0907 38.7177 14.8438 38.1216 14.8438 37.5V33.5938H49.2188Z" fill="white"/>
<path d="M37.5 0.78125H3.125C2.5034 0.78125 1.90726 1.02818 1.46772 1.46772C1.02818 1.90726 0.78125 2.5034 0.78125 3.125V32.8125C0.78125 33.4341 1.02818 34.0302 1.46772 34.4698C1.90726 34.9093 2.5034 35.1562 3.125 35.1562H37.5C38.1216 35.1562 38.7177 34.9093 39.1573 34.4698C39.5968 34.0302 39.8438 33.4341 39.8438 32.8125V3.125C39.8438 2.5034 39.5968 1.90726 39.1573 1.46772C38.7177 1.02818 38.1216 0.78125 37.5 0.78125ZM3.125 2.34375H37.5C37.7072 2.34375 37.9059 2.42606 38.0524 2.57257C38.1989 2.71909 38.2812 2.9178 38.2812 3.125V5.46875H2.34375V3.125C2.34375 2.9178 2.42606 2.71909 2.57257 2.57257C2.71909 2.42606 2.9178 2.34375 3.125 2.34375ZM37.5 33.5938H3.125C2.9178 33.5938 2.71909 33.5114 2.57257 33.3649C2.42606 33.2184 2.34375 33.0197 2.34375 32.8125V7.03125H38.2812V32.8125C38.2812 33.0197 38.1989 33.2184 38.0524 33.3649C37.9059 33.5114 37.7072 33.5938 37.5 33.5938ZM13.8984 13.7578L8.80469 20.3125L13.8984 26.8672C14.01 27.0318 14.0547 27.2327 14.0232 27.4291C13.9918 27.6255 13.8867 27.8025 13.7293 27.924C13.5719 28.0455 13.3741 28.1025 13.1761 28.0832C12.9782 28.0639 12.7951 27.9699 12.6641 27.8203L7.19531 20.7891C7.09015 20.6525 7.03313 20.4849 7.03313 20.3125C7.03313 20.1401 7.09015 19.9725 7.19531 19.8359L12.6641 12.8047C12.7239 12.7164 12.8012 12.6413 12.8912 12.5841C12.9812 12.5268 13.0819 12.4886 13.1872 12.4717C13.2925 12.4548 13.4002 12.4597 13.5035 12.4861C13.6069 12.5124 13.7037 12.5596 13.7882 12.6248C13.8726 12.6899 13.9427 12.7717 13.9944 12.8651C14.046 12.9584 14.0779 13.0613 14.0883 13.1674C14.0986 13.2736 14.0871 13.3807 14.0544 13.4823C14.0218 13.5838 13.9687 13.6776 13.8984 13.7578ZM33.4297 19.8359C33.5349 19.9725 33.5919 20.1401 33.5919 20.3125C33.5919 20.4849 33.5349 20.6525 33.4297 20.7891C27.75 27.9062 28.0469 28.125 27.3438 28.125C27.1711 28.1245 27.0036 28.0668 26.8672 27.9609C26.7038 27.8343 26.5973 27.6481 26.571 27.4431C26.5446 27.2381 26.6006 27.031 26.7266 26.8672L31.8203 20.3125L26.7266 13.7578C26.615 13.5932 26.5703 13.3923 26.6018 13.1959C26.6332 12.9995 26.7383 12.8225 26.8957 12.701C27.0531 12.5795 27.2509 12.5225 27.4489 12.5418C27.6468 12.5611 27.8299 12.6551 27.9609 12.8047L33.4297 19.8359ZM23.4375 13.5312L18.75 27.5938C18.6837 27.7906 18.5419 27.953 18.3558 28.0453C18.1698 28.1376 17.9547 28.1522 17.7578 28.0859C17.561 28.0196 17.3985 27.8778 17.3062 27.6918C17.2139 27.5057 17.1993 27.2906 17.2656 27.0938L21.9531 13.0312C21.986 12.9338 22.0377 12.8437 22.1053 12.7663C22.1729 12.6888 22.2551 12.6254 22.3473 12.5797C22.4394 12.534 22.5396 12.5069 22.6423 12.4999C22.7449 12.4929 22.8478 12.5062 22.9453 12.5391C23.0428 12.5719 23.1328 12.6236 23.2103 12.6912C23.2878 12.7589 23.3512 12.8411 23.3969 12.9332C23.4426 13.0254 23.4697 13.1256 23.4767 13.2282C23.4836 13.3308 23.4703 13.4338 23.4375 13.5312Z" fill="#FFD500"/>
</svg>
