<svg width="50" height="50" viewBox="0 0 50 50" fill="none" xmlns="http://www.w3.org/2000/svg">
<g clip-path="url(#clip0)">
<path d="M44.3266 35.5352C44.8959 33.9069 45.1883 32.1943 45.1915 30.4688C45.1841 27.5707 44.3749 24.7315 42.8539 22.2671C41.3328 19.8028 39.1597 17.8099 36.5763 16.5102C36.4121 14.7713 35.607 13.1562 34.3184 11.9807C33.0298 10.8052 31.3503 10.1538 29.6082 10.1538C27.8662 10.1538 26.1867 10.8052 24.8981 11.9807C23.6095 13.1562 22.8044 14.7713 22.6402 16.5102C20.0568 17.8099 17.8837 19.8028 16.3627 22.2672C14.8417 24.7316 14.0325 27.5707 14.025 30.4688C14.0282 32.1945 14.3206 33.9074 14.8899 35.536C13.78 35.9128 12.782 36.5626 11.9873 37.426C11.1925 38.2894 10.6264 39.3388 10.3406 40.4782C10.0548 41.6177 10.0585 42.8108 10.3513 43.9484C10.6441 45.0861 11.2168 46.1319 12.0169 46.9903C12.8169 47.8488 13.8189 48.4924 14.9311 48.8622C16.0433 49.2321 17.2303 49.3165 18.3834 49.1076C19.5365 48.8987 20.619 48.4033 21.5318 47.6666C22.4447 46.93 23.1587 45.9755 23.6087 44.8907C25.5097 45.6851 27.5488 46.0941 29.6082 46.0941C31.6677 46.0941 33.7068 45.6851 35.6078 44.8907C36.0571 45.9773 36.7711 46.9334 37.6843 47.6717C38.5976 48.4099 39.681 48.9066 40.8353 49.1163C41.9896 49.326 43.178 49.242 44.2915 48.872C45.4051 48.502 46.4082 47.8578 47.2092 46.9983C48.0101 46.1389 48.5832 45.0918 48.876 43.9527C49.1688 42.8137 49.172 41.6192 48.8852 40.4787C48.5984 39.3381 48.0308 38.288 47.2344 37.4243C46.438 36.5606 45.4382 35.9111 44.3266 35.5352ZM42.8135 35.1938H42.8057C42.5628 35.1689 42.3189 35.1564 42.0748 35.1563C40.2156 35.1584 38.4332 35.8998 37.1185 37.218C35.8039 38.5362 35.0644 40.3234 35.0624 42.1876C35.0709 42.587 35.105 42.9855 35.1644 43.3805C33.409 44.1363 31.5186 44.526 29.6082 44.526C27.6979 44.526 25.8074 44.1363 24.052 43.3805C24.1115 42.9855 24.1456 42.587 24.1541 42.1876C24.152 40.3234 23.4126 38.5362 22.0979 37.218C20.7833 35.8998 19.0008 35.1584 17.1417 35.1563C16.8973 35.1561 16.6531 35.1684 16.41 35.193H16.403C15.8582 33.678 15.5808 32.0793 15.5833 30.4688C15.5886 27.9867 16.2469 25.55 17.4918 23.4046C18.7368 21.2592 20.5242 19.4812 22.6737 18.2501C22.9266 19.9118 23.7649 21.4277 25.0366 22.5231C26.3084 23.6184 27.9294 24.2206 29.6059 24.2206C31.2824 24.2206 32.9034 23.6184 34.1752 22.5231C35.4469 21.4277 36.2852 19.9118 36.5381 18.2501C38.6884 19.4806 40.4768 21.2584 41.7226 23.4038C42.9684 25.5492 43.6274 27.9863 43.6331 30.4688C43.6357 32.0796 43.3584 33.6785 42.8135 35.1938Z" fill="white"/>
<path d="M16.3194 14.5861C16.2374 14.3958 16.0835 14.2459 15.8913 14.1694C15.6992 14.0929 15.4846 14.0961 15.2948 14.1783C15.105 14.2604 14.9555 14.4148 14.8792 14.6075C14.8029 14.8001 14.8061 15.0153 14.8881 15.2056C15.3348 16.2375 16.0668 17.1195 16.9975 17.7476C17.9282 18.3757 19.0188 18.7236 20.1404 18.7501H20.3967C21.5151 18.7207 22.6018 18.3714 23.5289 17.7434C24.456 17.1154 25.1848 16.2349 25.6296 15.2056C25.7115 15.0153 25.7147 14.8001 25.6384 14.6075C25.5621 14.4148 25.4127 14.2604 25.2228 14.1783C25.033 14.0961 24.8185 14.0929 24.6263 14.1694C24.4342 14.2459 24.2802 14.3958 24.1983 14.5861C23.8744 15.3388 23.3432 15.9833 22.667 16.4441C21.9908 16.9048 21.1976 17.1628 20.3804 17.1876H20.1614C19.3402 17.1667 18.5421 16.9106 17.8614 16.4496C17.1806 15.9886 16.6456 15.342 16.3194 14.5861Z" fill="#FFD500"/>
<path d="M32.9025 16.2992C33.979 15.7563 34.9224 14.9815 35.6652 14.0302C36.408 13.079 36.9319 11.9748 37.1994 10.7968C37.4669 9.61875 37.4713 8.39601 37.2124 7.21607C36.9535 6.03613 36.4376 4.92818 35.7017 3.97153C34.9657 3.01488 34.028 2.23319 32.9555 1.68243C31.8831 1.13167 30.7025 0.825446 29.4982 0.785689C28.2939 0.745932 27.0957 0.973622 25.9895 1.45246C24.8832 1.9313 23.8962 2.64944 23.0991 3.55548C21.2466 2.9965 19.2709 2.9965 17.4183 3.55548C16.6209 2.64978 15.6337 1.93205 14.5273 1.45367C13.4209 0.975291 12.2227 0.748099 11.0184 0.788361C9.81423 0.828622 8.63379 1.13534 7.56163 1.68655C6.48947 2.23777 5.55211 3.01985 4.81666 3.9768C4.08121 4.93375 3.56587 6.0419 3.30752 7.22191C3.04918 8.40193 3.05422 9.62462 3.32229 10.8025C3.59035 11.9803 4.11482 13.0841 4.85813 14.035C5.60144 14.9858 6.54522 15.7601 7.62189 16.3024C5.61544 17.0542 3.88544 18.4018 2.66281 20.1653C1.44019 21.9287 0.783113 24.0242 0.779297 26.1719V31.25C0.779297 31.4572 0.861387 31.6559 1.00751 31.8024C1.15363 31.949 1.35181 32.0313 1.55846 32.0313H7.21984C7.08285 32.805 7.0135 33.5892 7.01259 34.375V39.0625C7.01259 39.2697 7.09468 39.4684 7.2408 39.615C7.38692 39.7615 7.5851 39.8438 7.79175 39.8438H32.7249C32.9315 39.8438 33.1297 39.7615 33.2758 39.615C33.422 39.4684 33.5041 39.2697 33.5041 39.0625V34.375C33.5031 33.5892 33.4338 32.805 33.2968 32.0313H38.9582C39.1648 32.0313 39.363 31.949 39.5091 31.8024C39.6553 31.6559 39.7374 31.4572 39.7374 31.25V26.1719C39.7415 24.023 39.0885 21.9245 37.8664 20.1592C36.6443 18.3939 34.9119 17.0467 32.9025 16.2992ZM29.2187 2.34376C30.9392 2.34603 32.5914 3.01959 33.8254 4.22184C35.0593 5.4241 35.7782 7.06066 35.8299 8.78507C35.8815 10.5095 35.2618 12.1863 34.102 13.4607C32.9422 14.735 31.3334 15.5067 29.616 15.6125C29.8626 14.7261 29.991 13.8109 29.9978 12.8906C29.9869 11.086 29.4826 9.31893 28.54 7.78159C27.5973 6.24424 26.2523 4.99548 24.6512 4.17111C25.8812 2.99342 27.518 2.33859 29.2187 2.34376ZM23.082 5.18673C24.8804 5.84595 26.3911 7.11676 27.3512 8.77785C28.3113 10.4389 28.66 12.3851 28.3364 14.2774C28.0128 16.1696 27.0376 17.8882 25.5804 19.1337C24.1233 20.3792 22.2766 21.0729 20.3619 21.0938C20.249 21.0938 20.1975 21.0938 20.0666 21.0938C18.1626 21.0477 16.3342 20.3375 14.8962 19.0852C13.4583 17.833 12.5008 16.1172 12.1887 14.2333C11.8766 12.3494 12.2294 10.4154 13.1864 8.76427C14.1434 7.11315 15.6446 5.84829 17.4315 5.18751C19.257 4.52513 21.2563 4.52485 23.082 5.18673ZM4.6751 8.98439C4.67422 7.68441 5.0539 6.41276 5.76706 5.32711C6.48022 4.24147 7.4955 3.38959 8.687 2.87709C9.8785 2.36459 11.1938 2.21402 12.4699 2.44404C13.7459 2.67407 14.9266 3.27458 15.8654 4.17111C14.2637 4.99465 12.9181 6.24322 11.9753 7.78075C11.0325 9.31828 10.5287 11.0858 10.5188 12.8906C10.5258 13.8108 10.6542 14.7261 10.9006 15.6125C9.21669 15.5092 7.63539 14.7661 6.47875 13.5346C5.3221 12.3032 4.6771 10.676 4.6751 8.98439ZM2.33762 26.1719C2.34141 24.9751 2.58284 23.791 3.04782 22.6887C3.51281 21.5864 4.19204 20.588 5.04591 19.7517C5.89977 18.9154 6.91117 18.258 8.02111 17.8177C9.13104 17.3775 10.3173 17.1632 11.5107 17.1875C12.5054 19.1889 14.1451 20.7949 16.1638 21.7453C14.1449 22.4088 12.3136 23.5468 10.8225 25.0643C9.3314 26.5818 8.22387 28.4348 7.59228 30.4688H2.33762V26.1719ZM31.9457 38.2813H8.57091V34.375C8.57091 27.1711 15.0099 22.2328 20.4578 22.6641C23.5236 22.7097 26.4482 23.9642 28.5983 26.156C30.7484 28.3479 31.951 31.3006 31.9457 34.375V38.2813ZM38.179 30.4688H32.9236C32.2925 28.4362 31.1866 26.584 29.698 25.0662C28.2093 23.5484 26.3808 22.4088 24.3645 21.7422C26.3757 20.7866 28.0098 19.1831 29.006 17.1875C30.2007 17.1582 31.3891 17.369 32.5013 17.8074C33.6135 18.2459 34.6269 18.9031 35.4817 19.7404C36.3366 20.5777 37.0157 21.5781 37.4789 22.6827C37.9422 23.7873 38.1802 24.9736 38.179 26.1719V30.4688Z" fill="#FFD500"/>
</g>
<defs>
<clipPath id="clip0">
<rect width="49.8663" height="50" fill="white"/>
</clipPath>
</defs>
</svg>
