<svg width="62" height="42" viewBox="0 0 62 42" fill="none" xmlns="http://www.w3.org/2000/svg">
<path d="M29.283 9.21855L25.6133 18.1309C25.4889 18.4331 25.2063 18.6408 24.8808 18.6694L6.10994 20.3189C5.64939 20.3593 5.29988 20.7511 5.31194 21.213L5.69367 35.9473C5.7042 36.3525 5.99161 36.6973 6.38823 36.7809L28.4864 41.4291C29.0266 41.5427 29.5757 41.599 30.1248 41.5977L30.1252 37.2279V9.3852C30.125 8.1689 29.7461 8.09394 29.283 9.21855ZM26.7134 36.6963L18.4177 35.3604V31.0122H26.7134V36.6963ZM23.0861 16.5514L0.96424 18.7867C0.28842 18.855 -0.204034 18.1606 0.0838809 17.5455L5.97439 4.95443C6.09423 4.69822 6.33058 4.51567 6.60877 4.46461L30.9158 0.000101252L23.7978 16.036C23.6703 16.323 23.3987 16.5198 23.0861 16.5514ZM55.8901 20.3189L37.1193 18.6695C36.7937 18.6409 36.5111 18.4332 36.3868 18.131L32.717 9.21865C32.2539 8.09394 31.8749 8.1689 31.8749 9.3852V37.2278L31.8753 41.5976C32.4243 41.599 32.9735 41.5426 33.5138 41.429L55.612 36.7808C56.0086 36.6973 56.296 36.3524 56.3064 35.9472L56.6882 21.213C56.7002 20.751 56.3505 20.3593 55.8901 20.3189ZM48.1652 28.189L47.1285 28.2177L47.1075 34.7425C47.1066 35.0299 46.8147 35.3047 46.4516 35.3569L44.7526 35.6013C44.3644 35.6571 44.0468 35.4582 44.0476 35.1563L44.0634 28.3028L42.8776 28.3356C42.301 28.3515 41.9362 27.8893 42.2297 27.5066L45.0498 23.8318C45.3169 23.4835 45.9726 23.5156 46.2301 23.8826L48.7056 27.4106C48.9402 27.7452 48.6435 28.1757 48.1652 28.189ZM61.0357 18.7867L38.9138 16.5514C38.6012 16.5198 38.3295 16.323 38.2021 16.0359L31.0842 0L55.3912 4.46451C55.6694 4.51557 55.9058 4.69812 56.0257 4.95433L61.9162 17.5454C62.204 18.1606 61.7115 18.855 61.0357 18.7867Z" fill="#F0F5F9"/>
<path d="M42.8821 21.499C42.6008 21.499 42.3727 21.7271 42.3727 22.0084C42.3727 22.365 42.0826 22.6551 41.726 22.6551C41.3694 22.6551 41.0792 22.365 41.0792 22.0084C41.0792 21.727 40.8512 21.499 40.5699 21.499C40.2886 21.499 40.0605 21.7271 40.0605 22.0084C40.0605 22.9267 40.8077 23.6738 41.726 23.6738C42.6443 23.6738 43.3914 22.9266 43.3914 22.0084C43.3914 21.7269 43.1634 21.499 42.8821 21.499Z" fill="#FFD500"/>
<path d="M47.6632 21.5821L46.2295 21.1228C46.0459 21.064 45.9012 20.9174 45.8425 20.7307C45.5403 19.7701 45.0844 18.8682 44.4873 18.0501C44.2151 17.6772 43.9125 17.3211 43.5819 16.9821C43.7934 16.0543 43.9084 15.0042 43.8935 14.097C43.8722 12.7992 43.6128 12.038 43.1007 11.7698C42.8248 11.6251 41.9854 11.1857 37.4417 13.2656C37.3341 13.3148 37.2336 13.3755 37.1406 13.4449C36.8343 13.3626 36.5212 13.2865 36.2062 13.2181C36.1683 13.2098 36.1292 13.2025 36.0909 13.1945C36.4591 12.3901 36.6741 11.5166 36.7145 10.6148C36.7186 10.5244 36.6988 10.4385 36.6608 10.3631C36.5807 10.204 36.4192 10.0916 36.2284 10.0831C35.9481 10.0692 35.7093 10.2881 35.6968 10.5692C35.6304 12.052 35.0153 13.4471 33.9649 14.4976C33.3373 15.1252 32.6024 15.5811 31.8192 15.8682C30.461 15.6776 29.0775 15.6776 27.7193 15.8682C26.9361 15.5811 26.2013 15.1252 25.5737 14.4976C24.453 13.3769 23.8358 11.8869 23.8358 10.302C23.8358 8.71698 24.453 7.22702 25.5737 6.10634C26.6943 4.98559 28.1844 4.36837 29.7693 4.36837C31.3541 4.36837 32.8442 4.98559 33.9649 6.10634C34.4153 6.55669 34.7874 7.07062 35.071 7.63369C35.1976 7.88498 35.5039 7.98615 35.7551 7.85955C35.9251 7.77397 36.0264 7.60603 36.0349 7.42854C36.039 7.34374 36.0219 7.25677 35.981 7.17555C35.6485 6.51526 35.2126 5.91322 34.6853 5.3859C33.3722 4.07278 31.6263 3.34961 29.7693 3.34961C27.9124 3.34961 26.1665 4.07278 24.8533 5.3859C23.5402 6.69908 22.8171 8.44491 22.8171 10.3019C22.8171 11.681 23.2159 12.9989 23.9591 14.1237C24.1257 14.3759 24.3096 14.6183 24.5102 14.8495C24.6196 14.9757 24.7341 15.0986 24.8533 15.2179C25.2321 15.5967 25.6442 15.9224 26.0801 16.1953C26.0802 16.1953 26.0803 16.1952 26.0805 16.1952C25.7638 16.2775 25.4494 16.3699 25.1386 16.4739C24.8718 16.5631 24.7278 16.8516 24.8171 17.1185C24.9062 17.3853 25.1949 17.5293 25.4616 17.4401C28.2395 16.5115 31.2992 16.5115 34.0771 17.4401C34.1307 17.458 34.1851 17.4665 34.2386 17.4665C34.4517 17.4665 34.6503 17.3317 34.7216 17.1185C34.8108 16.8517 34.6669 16.5631 34.4001 16.4739C34.0892 16.3699 33.7749 16.2775 33.4582 16.1952C33.4584 16.1952 33.4585 16.1953 33.4586 16.1953C33.8946 15.9224 34.3066 15.5967 34.6853 15.2179C35.0204 14.8828 35.3162 14.5169 35.5731 14.128C35.7135 14.1552 35.8529 14.1838 35.9902 14.2136C36.1731 14.2533 36.3552 14.296 36.5357 14.3408C36.53 14.3629 36.5242 14.385 36.5195 14.4075C36.2711 15.5863 36.2872 16.629 36.5674 17.5062C36.8192 18.2947 37.2738 18.9336 37.9182 19.405C38.6777 19.9607 39.5947 20.2007 40.4253 20.2007C41.0505 20.2007 41.6268 20.0646 42.0501 19.8249C42.5289 19.5537 42.93 18.9823 43.2476 18.1244C43.3943 18.2957 43.5334 18.4712 43.6646 18.6508C44.1962 19.3791 44.602 20.1818 44.8708 21.0364C45.0287 21.5384 45.4205 21.9334 45.9189 22.0931L47.3525 22.5524C47.7287 22.6729 47.9814 23.0191 47.9814 23.4141V25.7913C47.9814 26.1863 47.7287 26.5325 47.3525 26.653L45.0427 27.3929C44.6732 27.5114 44.3604 27.7653 44.1621 28.1081C43.2547 29.6764 41.8279 30.9742 39.9213 31.9655C39.7011 32.0801 39.5485 32.2851 39.5026 32.5281L38.7628 36.4453C38.7423 36.5532 38.6478 36.6315 38.5379 36.6315H36.1326C36.0227 36.6315 35.9282 36.5531 35.9077 36.4453L35.498 34.2804C35.4173 33.8544 35.0178 33.5715 34.5879 33.6366C33.5517 33.7933 32.4841 33.8727 31.4148 33.8727C30.6192 33.8727 29.8338 33.8283 29.0803 33.7407C28.6636 33.6928 28.2755 33.9769 28.1976 34.3882L27.8083 36.4453C27.7878 36.5532 27.6933 36.6315 27.5834 36.6315H25.1781C25.0682 36.6315 24.9737 36.5531 24.9529 36.4436L24.2406 32.7439C24.1948 32.5055 24.0451 32.3028 23.8297 32.1878C20.5796 30.4527 18.8617 27.554 18.8617 23.8052C18.8617 21.9111 19.2761 20.2362 20.0933 18.8269C20.856 17.5118 21.9698 16.4244 23.4039 15.5948C23.4246 15.5829 23.4441 15.5697 23.4623 15.5555C23.6599 15.4016 23.7187 15.1217 23.5898 14.8988C23.4522 14.6609 23.1516 14.5761 22.9108 14.7036C22.9051 14.7066 22.8994 14.7097 22.8938 14.7129C20.113 16.3216 18.4358 18.8033 17.9741 21.9553V21.9553C17.9251 21.9508 17.876 21.9466 17.8271 21.9415C17.836 21.6014 17.7745 21.2583 17.6405 20.9252C17.345 20.1906 16.7379 19.6604 16.0939 19.5745C15.5864 19.5066 15.1035 19.722 14.7683 20.1649C14.2823 20.807 14.3616 21.3152 14.5135 21.6284C14.7701 22.157 15.4295 22.531 16.5239 22.7661C16.4938 22.8111 16.4607 22.8564 16.4245 22.9018C15.7779 23.7128 15.0161 23.8921 14.5214 23.909C14.2319 23.9187 14 24.1512 14 24.441V24.4435C14 24.7293 14.2255 24.9624 14.5111 24.9754C14.5476 24.9771 14.5858 24.978 14.6256 24.978C15.2515 24.978 16.2561 24.7472 17.2212 23.537C17.3735 23.346 17.4977 23.1445 17.5931 22.9363C17.6892 22.9471 17.7816 22.9564 17.87 22.9646C17.87 22.9644 17.87 22.9643 17.8701 22.9641C17.8527 23.2401 17.8431 23.5202 17.8431 23.8052C17.8431 25.9262 18.3488 27.8174 19.3459 29.4264C20.2653 30.9098 21.5817 32.1244 23.2598 33.0378L23.9523 36.6346C24.0637 37.223 24.5792 37.6502 25.1781 37.6502H27.5834C28.1823 37.6502 28.6978 37.223 28.8092 36.6346L29.1612 34.7747C29.8924 34.8521 30.6494 34.8914 31.4147 34.8914C32.4647 34.8914 33.5135 34.8182 34.5356 34.6739L34.9067 36.6347C35.0181 37.2232 35.5336 37.6502 36.1324 37.6502H38.5378C39.1367 37.6502 39.6522 37.2231 39.7636 36.6345L40.4839 32.8206C42.5188 31.7446 44.0527 30.3311 45.0438 28.6182C45.1152 28.4948 45.2252 28.4042 45.3534 28.3631L47.6632 27.6233C48.4628 27.367 49 26.6308 49 25.7912V23.414C49 22.5744 48.4628 21.8382 47.6632 21.5821ZM42.7983 15.5284C42.6022 17.205 42.0764 18.6391 41.5479 18.9384C40.9473 19.2786 39.5607 19.3443 38.5196 18.5827C37.4772 17.8203 37.1303 16.4491 37.5162 14.6175C37.5549 14.4335 37.6856 14.2743 37.8658 14.1919C40.4158 13.0246 41.886 12.6428 42.4322 12.6428C42.5147 12.6428 42.5761 12.6515 42.6169 12.6675C42.781 12.8423 42.9962 13.8363 42.7983 15.5284ZM15.4301 21.1836C15.3774 21.0749 15.5019 20.8839 15.5807 20.7795C15.7058 20.6144 15.821 20.5806 15.908 20.5806C15.9264 20.5806 15.9435 20.5821 15.9592 20.5842C16.1934 20.6155 16.5216 20.8732 16.6954 21.3053C16.7364 21.407 16.7895 21.5755 16.802 21.7857C16.0969 21.6396 15.549 21.429 15.4301 21.1836Z" fill="#FFD500"/>
<path d="M36.2284 10.0831C36.4192 10.0916 36.5807 10.204 36.6608 10.3631L36.3224 8.7763L36.0349 7.42854C36.0264 7.60603 35.9251 7.77397 35.7551 7.85955C35.5039 7.98615 35.1976 7.88498 35.071 7.63369L35.3583 8.98138L35.6968 10.5692C35.7093 10.2881 35.9481 10.0692 36.2284 10.0831Z" fill="#FFD500"/>
<path d="M24.5102 14.8495C24.3096 14.6183 24.1257 14.3759 23.9591 14.1237L22.9108 14.7036C23.1516 14.5761 23.4522 14.6609 23.5898 14.8988C23.7187 15.1217 23.6599 15.4016 23.4623 15.5555L24.5102 14.8495Z" fill="#FFD500"/>
<path d="M27.8666 11.6217C27.8666 10.4005 28.7197 10.0053 29.5009 9.71803L29.9769 9.54747C30.4528 9.36789 30.8389 9.17936 30.8389 8.66755C30.8389 8.20059 30.4797 7.97609 29.9769 7.91327L29.5009 7.89529C29.1158 7.92281 28.879 8.04129 28.7038 8.12896C28.593 8.1844 28.5068 8.22752 28.4233 8.22752C28.1539 8.22752 28.0282 7.88634 28.0282 7.71571C28.0282 7.27568 28.8903 7.08715 29.5009 7.06917L30.0307 7.08701C30.8838 7.17684 31.7368 7.62582 31.7368 8.75724C31.7368 9.90663 30.8389 10.2299 30.0307 10.5172L29.5548 10.7148C29.1148 10.9033 28.7646 11.1547 28.7646 11.7204C28.7646 12.2324 29.0699 12.5197 29.5548 12.6094L30.0307 12.6274C30.6043 12.5824 30.9137 12.3191 31.1377 12.1286C31.2714 12.0148 31.3746 11.927 31.4854 11.927C31.7099 11.927 31.8984 12.2233 31.8984 12.4389C31.8984 12.8788 31.1442 13.4805 30.0307 13.4984L29.5009 13.4715C28.5311 13.3368 27.8666 12.7262 27.8666 11.6217Z" fill="#FFD500"/>
<path d="M27.8666 11.6217C27.8666 10.4005 28.7197 10.0053 29.5009 9.71803L29.9769 9.54747C30.4528 9.36789 30.8389 9.17936 30.8389 8.66755C30.8389 8.20059 30.4797 7.97609 29.9769 7.91327L29.5009 7.89529C29.1158 7.92281 28.879 8.04129 28.7038 8.12896C28.593 8.1844 28.5068 8.22752 28.4233 8.22752C28.1539 8.22752 28.0282 7.88634 28.0282 7.71571C28.0282 7.27568 28.8903 7.08715 29.5009 7.06917L30.0307 7.08701C30.8838 7.17684 31.7368 7.62582 31.7368 8.75724C31.7368 9.90663 30.8389 10.2299 30.0307 10.5172L29.5548 10.7148C29.1148 10.9033 28.7646 11.1547 28.7646 11.7204C28.7646 12.2324 29.0699 12.5197 29.5548 12.6094L30.0307 12.6274C30.6043 12.5824 30.9137 12.3191 31.1377 12.1286C31.2714 12.0148 31.3746 11.927 31.4854 11.927C31.7099 11.927 31.8984 12.2233 31.8984 12.4389C31.8984 12.8788 31.1442 13.4805 30.0307 13.4984L29.5009 13.4715C28.5311 13.3368 27.8666 12.7262 27.8666 11.6217Z" stroke="#FFD500"/>
<line x1="28.25" y1="9.75" x2="31.75" y2="9.75" stroke="#FFD500" stroke-width="0.5" stroke-linecap="round"/>
<line x1="27.9902" y1="10.3379" x2="31.25" y2="10.3379" stroke="#FFD500" stroke-width="0.5" stroke-linecap="round"/>
</svg>
