<svg width="62" height="42" viewBox="0 0 62 42" fill="none" xmlns="http://www.w3.org/2000/svg">
<path d="M29.283 9.21855L25.6133 18.1309C25.4889 18.4331 25.2063 18.6408 24.8808 18.6694L6.10994 20.3189C5.64939 20.3593 5.29988 20.7511 5.31194 21.213L5.69367 35.9473C5.7042 36.3525 5.99161 36.6973 6.38823 36.7809L28.4864 41.4291C29.0266 41.5427 29.5757 41.599 30.1248 41.5977L30.1252 37.2279V9.3852C30.125 8.1689 29.7461 8.09394 29.283 9.21855ZM26.7134 36.6963L18.4177 35.3604V31.0122H26.7134V36.6963ZM23.0861 16.5514L0.96424 18.7867C0.28842 18.855 -0.204034 18.1606 0.0838809 17.5455L5.97439 4.95443C6.09423 4.69822 6.33058 4.51567 6.60877 4.46461L30.9158 0.000101252L23.7978 16.036C23.6703 16.323 23.3987 16.5198 23.0861 16.5514ZM55.8901 20.3189L37.1193 18.6695C36.7937 18.6409 36.5111 18.4332 36.3868 18.131L32.717 9.21865C32.2539 8.09394 31.8749 8.1689 31.8749 9.3852V37.2278L31.8753 41.5976C32.4243 41.599 32.9735 41.5426 33.5138 41.429L55.612 36.7808C56.0086 36.6973 56.296 36.3524 56.3064 35.9472L56.6882 21.213C56.7002 20.751 56.3505 20.3593 55.8901 20.3189ZM48.1652 28.189L47.1285 28.2177L47.1075 34.7425C47.1066 35.0299 46.8147 35.3047 46.4516 35.3569L44.7526 35.6013C44.3644 35.6571 44.0468 35.4582 44.0476 35.1563L44.0634 28.3028L42.8776 28.3356C42.301 28.3515 41.9362 27.8893 42.2297 27.5066L45.0498 23.8318C45.3169 23.4835 45.9726 23.5156 46.2301 23.8826L48.7056 27.4106C48.9402 27.7452 48.6435 28.1757 48.1652 28.189ZM61.0357 18.7867L38.9138 16.5514C38.6012 16.5198 38.3295 16.323 38.2021 16.0359L31.0842 0L55.3912 4.46451C55.6694 4.51557 55.9058 4.69812 56.0257 4.95433L61.9162 17.5454C62.204 18.1606 61.7115 18.855 61.0357 18.7867Z" fill="#F0F5F9"/>
<g clip-path="url(#clip0)">
<path d="M46.8019 14.4177L45.2688 7.84784C44.9423 6.44804 43.9588 5.27683 42.6381 4.71485C40.4207 3.77121 37.6673 3.43119 37.4866 3.40959C37.0687 3.35258 28.8559 2.26593 22.7553 3.88968C22.0152 4.08669 21.3358 4.48106 20.7905 5.02985L20.7422 5.07859C19.2447 6.59535 18.299 8.51434 18.0075 10.628C17.8606 11.6927 17.8872 12.755 18.0811 13.786C17.6919 15.5237 17.2821 15.6844 17.2788 15.6852C17.2779 15.6852 17.1953 15.6792 17.0258 15.517C16.7997 15.3005 16.4411 15.3083 16.2248 15.5342C16.0084 15.7601 16.016 16.1188 16.2421 16.3352C16.6309 16.7077 16.9893 16.8185 17.278 16.8185C17.4033 16.8185 17.5156 16.7976 17.6115 16.7681C18.0221 16.6422 18.3638 16.2939 18.6505 15.6995C18.7923 16.0433 18.9533 16.3814 19.1354 16.7118C21.0175 20.127 23.1986 23.3628 25.6245 26.3403C24.5792 27.6144 24.0071 29.2012 24.0071 30.8627C24.0071 34.7987 27.2094 38.001 31.1454 38.001C35.0814 38.001 38.2836 34.7987 38.2836 30.8627C38.2836 29.0059 37.5875 27.2719 36.3154 25.9398C38.0284 20.9606 38.1944 15.5186 38.2076 14.1189L39.6195 13.3044L42.6846 14.9008L43.016 20.5336C43.0338 20.8357 42.9292 21.1234 42.7217 21.3436C42.514 21.5638 42.233 21.685 41.9304 21.685H41.4185C41.2319 21.685 41.0573 21.777 40.9515 21.9309C40.8459 22.0847 40.8228 22.2807 40.8898 22.4549L41.6452 24.4189C41.7293 24.6376 41.9394 24.7821 42.1739 24.7821C43.8392 24.7821 45.3044 23.601 45.6582 21.9739L46.8188 16.635C46.9766 15.9084 46.9708 15.1417 46.8019 14.4177ZM31.1453 36.8681C28.5897 36.8681 26.4033 35.2628 25.5377 33.0083C27.1996 34.0786 29.1415 34.6556 31.1453 34.6556C33.1489 34.6556 35.0909 34.0786 36.7528 33.0083C35.8872 35.2628 33.7008 36.8681 31.1453 36.8681ZM37.1504 30.8629C37.1504 31.0163 37.1427 31.1679 37.1314 31.3184C35.4628 32.7414 33.3459 33.5225 31.1452 33.5225C28.9445 33.5225 26.8275 32.7414 25.159 31.3184C25.1476 31.1679 25.1399 31.0163 25.1399 30.8629C25.1399 30.4538 25.1822 30.0505 25.2624 29.6571C26.983 30.8428 29.0414 31.4883 31.1451 31.4883C33.2497 31.4883 35.309 30.8423 37.0301 29.6555C37.1095 30.048 37.1504 30.4518 37.1504 30.8629ZM36.677 28.5146C35.0885 29.7043 33.1398 30.3553 31.1453 30.3553C29.1522 30.3553 27.2048 29.7052 25.6169 28.5172C25.8289 28.0177 26.109 27.5467 26.4528 27.1166C26.4808 27.1209 26.5089 27.1237 26.5375 27.1237C26.5799 27.1237 26.6225 27.119 26.6649 27.1092L30.5928 26.2028C30.7827 26.159 30.9366 26.0208 31.0005 25.8368C31.0645 25.6528 31.0294 25.4489 30.9078 25.2968L30.5777 24.8843C30.7657 24.8666 30.9551 24.8576 31.1453 24.8576C31.5174 24.8576 31.8849 24.8923 32.2454 24.959C32.2273 24.9767 32.2099 24.9949 32.1915 25.0122C32.0427 25.1527 31.9813 25.3626 32.0308 25.5611C32.0803 25.7597 32.233 25.9161 32.4303 25.9704L35.4518 26.8013C35.4962 26.8135 35.5409 26.8195 35.5851 26.8208C36.0479 27.3271 36.4154 27.898 36.677 28.5146ZM29.8742 23.8384C29.2502 22.4011 28.2054 19.5183 28.6074 18.1444C28.6615 17.9594 28.6957 17.7701 28.7103 17.5799L31.6826 16.4012C31.7877 17.0858 32.1181 17.7263 32.6358 18.2106L33.2042 18.7424C33.5858 19.0992 33.7778 19.6023 33.7313 20.1226L33.5429 22.2268C33.4875 22.8448 33.3014 23.4374 33.0035 23.9696C32.401 23.8073 31.7784 23.7246 31.1453 23.7246C30.7168 23.7246 30.2912 23.7631 29.8742 23.8384ZM35.2446 25.5692L33.6071 25.1189C34.2091 24.3096 34.5802 23.3456 34.6712 22.3278L34.8596 20.2236C34.9376 19.3532 34.6163 18.5118 33.9783 17.9149L33.4099 17.3831C32.9364 16.9402 32.7077 16.2926 32.7982 15.6507L33.3681 11.6043C33.4118 11.2945 33.196 11.008 32.8861 10.9643C32.5768 10.9208 32.2897 11.1364 32.246 11.4463L31.7221 15.1665L28.5516 16.4239C28.5397 16.3917 28.5276 16.3596 28.5144 16.3278L26.7592 12.0649C26.6399 11.7756 26.3087 11.6376 26.0196 11.7568C25.7303 11.876 25.5923 12.2071 25.7114 12.4964L27.4668 16.7593C27.6044 17.0937 27.6233 17.4726 27.5199 17.8262C26.8701 20.0467 28.8219 24.2837 29.0466 24.7597C29.0655 24.7995 29.089 24.8372 29.1165 24.8716L29.4603 25.3013L26.7503 25.9266C24.2679 22.919 22.0408 19.6365 20.1275 16.1649C19.217 14.5129 18.8721 12.6518 19.1299 10.7829C19.3877 8.91329 20.224 7.21612 21.5487 5.87443L21.5939 5.82884C21.9982 5.42203 22.5005 5.13013 23.0465 4.98473C27.4929 3.80129 33.2967 4.13721 35.9297 4.38043C35.649 4.56507 35.411 4.81356 35.2395 5.10901L34.2904 6.74328C33.9053 7.40637 33.8979 8.23434 34.2709 8.9042L37.075 13.9387C37.0702 14.8943 36.9668 20.5552 35.2446 25.5692ZM45.7114 16.3942L44.5508 21.7332C44.3366 22.7184 43.5253 23.4639 42.5513 23.6192L42.235 22.797C42.7323 22.7274 43.1983 22.4896 43.5458 22.121C43.9636 21.6779 44.1827 21.0751 44.147 20.4672L43.8592 15.5736L44.2282 15.7906C44.3184 15.8437 44.4173 15.8689 44.515 15.8689C44.7091 15.8689 44.8983 15.7691 45.0039 15.5896C45.1625 15.32 45.0724 14.9727 44.8028 14.8141L43.5187 14.0587C43.5136 14.0557 43.5082 14.0534 43.503 14.0505C43.4995 14.0487 43.4965 14.0463 43.4931 14.0446L40.2166 12.3381L40.4699 10.3117C40.5087 10.0012 40.2885 9.71815 39.978 9.67933C39.6671 9.64036 39.3844 9.86068 39.3455 10.1712L39.0784 12.3088L37.8567 13.0136L35.261 8.35294C35.0813 8.03042 35.085 7.63161 35.2703 7.31244L36.2194 5.67817C36.3687 5.42128 36.6106 5.24416 36.9006 5.17949C37.1908 5.11482 37.4846 5.17245 37.7289 5.34164L39.5851 6.62796C39.8422 6.80624 40.1952 6.74212 40.3734 6.48495C40.5516 6.22771 40.4877 5.87484 40.2304 5.69656L38.9385 4.80139C39.8936 4.99485 41.1263 5.30288 42.1946 5.75754C43.1839 6.17849 43.9207 7.05623 44.1656 8.10541L45.6986 14.6753C45.8294 15.2365 45.8339 15.8309 45.7114 16.3942Z" fill="#FFD500"/>
<path d="M43.5159 9.94052L42.7605 9.63837C42.4701 9.52209 42.1403 9.66339 42.0241 9.95399C41.9079 10.2445 42.0492 10.5742 42.3397 10.6904L43.0951 10.9926C43.1641 11.0201 43.2353 11.0332 43.3053 11.0332C43.5302 11.0332 43.7429 10.8984 43.8315 10.6769C43.9476 10.3864 43.8063 10.0567 43.5159 9.94052Z" fill="#FFD500"/>
</g>
<defs>
<clipPath id="clip0">
<rect width="35" height="35" fill="white" transform="translate(14 3)"/>
</clipPath>
</defs>
</svg>
