<svg width="62" height="42" viewBox="0 0 62 42" fill="none" xmlns="http://www.w3.org/2000/svg">
<path d="M29.283 9.21855L25.6133 18.1309C25.4889 18.4331 25.2063 18.6408 24.8808 18.6694L6.10994 20.3189C5.64939 20.3593 5.29988 20.7511 5.31194 21.213L5.69367 35.9473C5.7042 36.3525 5.99161 36.6973 6.38823 36.7809L28.4864 41.4291C29.0266 41.5427 29.5757 41.599 30.1248 41.5977L30.1252 37.2279V9.3852C30.125 8.1689 29.7461 8.09394 29.283 9.21855ZM26.7134 36.6963L18.4177 35.3604V31.0122H26.7134V36.6963ZM23.0861 16.5514L0.96424 18.7867C0.28842 18.855 -0.204034 18.1606 0.0838809 17.5455L5.97439 4.95443C6.09423 4.69822 6.33058 4.51567 6.60877 4.46461L30.9158 0.000101252L23.7978 16.036C23.6703 16.323 23.3987 16.5198 23.0861 16.5514ZM55.8901 20.3189L37.1193 18.6695C36.7937 18.6409 36.5111 18.4332 36.3868 18.131L32.717 9.21865C32.2539 8.09394 31.8749 8.1689 31.8749 9.3852V37.2278L31.8753 41.5976C32.4243 41.599 32.9735 41.5426 33.5138 41.429L55.612 36.7808C56.0086 36.6973 56.296 36.3524 56.3064 35.9472L56.6882 21.213C56.7002 20.751 56.3505 20.3593 55.8901 20.3189ZM48.1652 28.189L47.1285 28.2177L47.1075 34.7425C47.1066 35.0299 46.8147 35.3047 46.4516 35.3569L44.7526 35.6013C44.3644 35.6571 44.0468 35.4582 44.0476 35.1563L44.0634 28.3028L42.8776 28.3356C42.301 28.3515 41.9362 27.8893 42.2297 27.5066L45.0498 23.8318C45.3169 23.4835 45.9726 23.5156 46.2301 23.8826L48.7056 27.4106C48.9402 27.7452 48.6435 28.1757 48.1652 28.189ZM61.0357 18.7867L38.9138 16.5514C38.6012 16.5198 38.3295 16.323 38.2021 16.0359L31.0842 0L55.3912 4.46451C55.6694 4.51557 55.9058 4.69812 56.0257 4.95433L61.9162 17.5454C62.204 18.1606 61.7115 18.855 61.0357 18.7867Z" fill="#F0F5F9"/>
<path d="M31.4996 35.8123C28.8728 35.8215 26.2883 35.1507 23.9975 33.8652C21.7067 32.5797 19.7876 30.7231 18.4269 28.4762C18.3699 28.3828 18.3421 28.2745 18.3473 28.1652C18.3525 28.0559 18.3903 27.9506 18.4559 27.863C18.5216 27.7755 18.612 27.7096 18.7154 27.674C18.8189 27.6383 18.9307 27.6345 19.0363 27.6631C21.7821 28.4055 24.6875 28.3074 27.377 27.3814C30.0664 26.4555 32.4164 24.7443 34.1233 22.469C35.8302 20.1936 36.8155 17.4587 36.952 14.6176C37.0884 11.7765 36.3697 8.95969 34.8887 6.53125C34.8317 6.43788 34.8039 6.32954 34.8091 6.22024C34.8143 6.11094 34.8521 6.0057 34.9178 5.91814C34.9834 5.83057 35.0737 5.76471 35.1772 5.72906C35.2807 5.69341 35.3924 5.68961 35.4981 5.71816C39.0814 6.6871 42.1908 8.92474 44.2478 12.0148C46.3047 15.1048 47.1691 18.8369 46.6802 22.5166C46.1913 26.1963 44.3824 29.5732 41.5899 32.0189C38.7975 34.4646 35.2116 35.8127 31.4996 35.8123ZM20.1151 29.0215C21.4386 30.7894 23.1557 32.2247 25.1303 33.2137C27.105 34.2027 29.2828 34.7181 31.4912 34.7192C33.6997 34.7204 35.878 34.2071 37.8536 33.2201C39.8292 32.2331 41.5478 30.7995 42.8731 29.0329C44.1984 27.2664 45.094 25.2154 45.489 23.0426C45.884 20.8697 45.7675 18.6348 45.1487 16.5148C44.5299 14.3949 43.4258 12.4482 41.9239 10.829C40.4221 9.20986 38.5638 7.96277 36.4962 7.18657C37.7415 9.72289 38.2608 12.5543 37.9966 15.3674C37.7325 18.1806 36.6952 20.8658 34.9996 23.126C33.3039 25.3862 31.016 27.1332 28.3891 28.1737C25.7621 29.2142 22.8985 29.5076 20.1151 29.0215Z" fill="#FFD500"/>
<path d="M28.6281 12.5479C28.5395 12.5479 28.4523 12.5264 28.3739 12.4851L26.5917 11.5484L24.8107 12.4851C24.7204 12.5326 24.6185 12.5539 24.5167 12.5466C24.4149 12.5393 24.3172 12.5036 24.2346 12.4436C24.1521 12.3836 24.0879 12.3017 24.0495 12.2072C24.011 12.1126 23.9998 12.0092 24.0171 11.9086L24.3573 9.9246L22.9153 8.51951C22.8422 8.44828 22.7904 8.35799 22.766 8.25887C22.7415 8.15976 22.7452 8.05577 22.7768 7.95867C22.8084 7.86157 22.8665 7.77525 22.9445 7.70948C23.0226 7.6437 23.1176 7.6011 23.2186 7.58649L25.2107 7.29703L26.1015 5.4919C26.1518 5.40662 26.2235 5.33594 26.3094 5.28684C26.3954 5.23774 26.4927 5.21191 26.5917 5.21191C26.6908 5.21191 26.7881 5.23774 26.874 5.28684C26.96 5.33594 27.0317 5.40662 27.082 5.4919L27.9734 7.2973L29.9655 7.58676C30.0665 7.60137 30.1615 7.64397 30.2395 7.70975C30.3176 7.77553 30.3757 7.86185 30.4073 7.95894C30.4389 8.05604 30.4426 8.16003 30.4181 8.25915C30.3936 8.35827 30.3419 8.44855 30.2688 8.51978L28.8268 9.92487L29.167 11.9089C29.1805 11.9874 29.1766 12.0678 29.1558 12.1447C29.1349 12.2215 29.0975 12.2929 29.0462 12.3538C28.9948 12.4147 28.9308 12.4636 28.8586 12.4972C28.7864 12.5308 28.7078 12.5482 28.6281 12.5482L28.6281 12.5479ZM26.5917 10.3836C26.6803 10.3835 26.7676 10.4051 26.846 10.4464L27.9018 11.0012L27.7005 9.82605C27.6855 9.73868 27.692 9.64897 27.7193 9.56464C27.7467 9.48032 27.7941 9.4039 27.8575 9.34196L28.7112 8.50961L27.5315 8.33817C27.4437 8.32546 27.3604 8.29159 27.2887 8.23949C27.2169 8.18738 27.1589 8.1186 27.1197 8.03908L26.5917 6.96978L26.0643 8.03881C26.0252 8.11839 25.9672 8.18724 25.8954 8.2394C25.8237 8.29156 25.7403 8.32546 25.6525 8.33817L24.4728 8.50961L25.3268 9.34196C25.3902 9.4039 25.4376 9.48032 25.465 9.56464C25.4923 9.64897 25.4988 9.73868 25.4838 9.82605L25.2823 11.0012L26.3371 10.4464C26.4156 10.4051 26.503 10.3836 26.5917 10.3836Z" fill="#FFD500"/>
<path d="M29.8776 20.7011C29.7375 20.7011 29.6028 20.6473 29.5011 20.551C29.3995 20.4546 29.3387 20.3229 29.3313 20.183L29.2438 18.5112L27.8167 17.6362C27.7297 17.5828 27.6594 17.5062 27.6136 17.415C27.5679 17.3237 27.5486 17.2215 27.558 17.1199C27.5673 17.0183 27.6049 16.9213 27.6665 16.8399C27.7281 16.7585 27.8112 16.696 27.9065 16.6594L29.4691 16.0591L29.8601 14.4318C29.884 14.3326 29.9351 14.242 30.0078 14.1703C30.0805 14.0986 30.1718 14.0487 30.2713 14.0262C30.3709 14.0037 30.4747 14.0094 30.5712 14.0428C30.6676 14.0762 30.7528 14.136 30.8171 14.2153L31.8708 15.5157L33.5397 15.3849C33.6416 15.3762 33.7437 15.3966 33.8345 15.4436C33.9252 15.4906 34.0008 15.5624 34.0524 15.6505C34.1046 15.7382 34.1312 15.8387 34.1293 15.9408C34.1273 16.0428 34.0969 16.1422 34.0415 16.2279L33.1297 17.6321L33.7696 19.1787C33.8086 19.273 33.8204 19.3763 33.8037 19.477C33.7871 19.5777 33.7426 19.6716 33.6753 19.7483C33.608 19.825 33.5206 19.8814 33.423 19.911C33.3254 19.9406 33.2214 19.9424 33.1229 19.916L31.5057 19.4834L30.2325 20.5702C30.1335 20.6546 30.0077 20.701 29.8776 20.7011ZM29.3328 17.2831L30.0602 17.729C30.1359 17.7753 30.1991 17.8394 30.2445 17.9156C30.2899 17.9918 30.3161 18.0779 30.3208 18.1665L30.3657 19.0189L31.0145 18.4648C31.082 18.4072 31.1625 18.3669 31.249 18.3474C31.3356 18.3278 31.4255 18.3297 31.5112 18.3526L32.3352 18.5732L32.009 17.7847C31.9751 17.7028 31.9616 17.6139 31.9697 17.5256C31.9778 17.4373 32.0072 17.3523 32.0554 17.2779L32.5203 16.5619L31.6695 16.6287C31.581 16.6361 31.4921 16.6216 31.4105 16.5865C31.329 16.5515 31.2572 16.4969 31.2017 16.4276L30.665 15.7649L30.4657 16.5943C30.445 16.6805 30.4035 16.7605 30.345 16.8271C30.2865 16.8938 30.2126 16.9453 30.1298 16.9771L29.3328 17.2831Z" fill="#FFD500"/>
<path d="M21.3141 24.1549C21.2257 24.1549 21.1386 24.1334 21.0603 24.0924C20.982 24.0513 20.9148 23.9919 20.8645 23.9192L19.3651 21.7527L16.7311 21.7597H16.7291C16.6273 21.7596 16.5274 21.7311 16.4409 21.6773C16.3544 21.6235 16.2846 21.5467 16.2394 21.4554C16.1942 21.3641 16.1754 21.262 16.1851 21.1606C16.1948 21.0591 16.2327 20.9625 16.2944 20.8814L17.8913 18.7857L17.0706 16.2824C17.0387 16.1854 17.0347 16.0814 17.0589 15.9823C17.0831 15.8831 17.1345 15.7927 17.2074 15.7213C17.2803 15.6498 17.3718 15.6002 17.4714 15.578C17.571 15.5559 17.6749 15.562 17.7712 15.5958L20.2578 16.4672L22.3851 14.9131C22.4675 14.8528 22.5652 14.8168 22.667 14.8092C22.7688 14.8015 22.8707 14.8225 22.9612 14.8698C23.0516 14.917 23.1271 14.9887 23.179 15.0766C23.2308 15.1645 23.2571 15.2652 23.2547 15.3673L23.1938 18.0013L25.3295 19.5444C25.4122 19.6041 25.4766 19.6859 25.5153 19.7803C25.554 19.8748 25.5655 19.9781 25.5485 20.0788C25.5314 20.1794 25.4866 20.2733 25.419 20.3498C25.3515 20.4263 25.2638 20.4823 25.1661 20.5116L22.6426 21.2678L21.8349 23.7759C21.8036 23.873 21.7457 23.9595 21.6679 24.0255C21.59 24.0914 21.4952 24.1343 21.3943 24.1492C21.3677 24.1531 21.341 24.155 21.3141 24.1549ZM19.6511 20.6582C19.7395 20.6582 19.8266 20.6797 19.905 20.7207C19.9833 20.7618 20.0505 20.8212 20.1008 20.894L21.1331 22.3856L21.6893 20.6587C21.7166 20.5743 21.7639 20.4979 21.8273 20.4358C21.8906 20.3738 21.9681 20.328 22.053 20.3025L23.7908 19.7818L22.32 18.7193C22.2482 18.6673 22.1901 18.5986 22.1507 18.5193C22.1112 18.4399 22.0916 18.3521 22.0935 18.2635L22.1352 16.45L20.6709 17.5201C20.5993 17.5725 20.516 17.6067 20.4283 17.6196C20.3405 17.6326 20.2509 17.624 20.1672 17.5945L18.4554 16.9946L19.0205 18.7182C19.0482 18.8025 19.0549 18.8922 19.0401 18.9796C19.0253 19.067 18.9895 19.1495 18.9356 19.22L17.8359 20.663L19.6495 20.6582H19.6511Z" fill="#FFD500"/>
</svg>
