<svg width="62" height="42" viewBox="0 0 62 42" fill="none" xmlns="http://www.w3.org/2000/svg">
<path d="M29.283 9.21855L25.6133 18.1309C25.4889 18.4331 25.2063 18.6408 24.8808 18.6694L6.10994 20.3189C5.64939 20.3593 5.29988 20.7511 5.31194 21.213L5.69367 35.9473C5.7042 36.3525 5.99161 36.6973 6.38823 36.7809L28.4864 41.4291C29.0266 41.5427 29.5757 41.599 30.1248 41.5977L30.1252 37.2279V9.3852C30.125 8.1689 29.7461 8.09394 29.283 9.21855ZM26.7134 36.6963L18.4177 35.3604V31.0122H26.7134V36.6963ZM23.0861 16.5514L0.96424 18.7867C0.28842 18.855 -0.204034 18.1606 0.0838809 17.5455L5.97439 4.95443C6.09423 4.69822 6.33058 4.51567 6.60877 4.46461L30.9158 0.000101252L23.7978 16.036C23.6703 16.323 23.3987 16.5198 23.0861 16.5514ZM55.8901 20.3189L37.1193 18.6695C36.7937 18.6409 36.5111 18.4332 36.3868 18.131L32.717 9.21865C32.2539 8.09394 31.8749 8.1689 31.8749 9.3852V37.2278L31.8753 41.5976C32.4243 41.599 32.9735 41.5426 33.5138 41.429L55.612 36.7808C56.0086 36.6973 56.296 36.3524 56.3064 35.9472L56.6882 21.213C56.7002 20.751 56.3505 20.3593 55.8901 20.3189ZM48.1652 28.189L47.1285 28.2177L47.1075 34.7425C47.1066 35.0299 46.8147 35.3047 46.4516 35.3569L44.7526 35.6013C44.3644 35.6571 44.0468 35.4582 44.0476 35.1563L44.0634 28.3028L42.8776 28.3356C42.301 28.3515 41.9362 27.8893 42.2297 27.5066L45.0498 23.8318C45.3169 23.4835 45.9726 23.5156 46.2301 23.8826L48.7056 27.4106C48.9402 27.7452 48.6435 28.1757 48.1652 28.189ZM61.0357 18.7867L38.9138 16.5514C38.6012 16.5198 38.3295 16.323 38.2021 16.0359L31.0842 0L55.3912 4.46451C55.6694 4.51557 55.9058 4.69812 56.0257 4.95433L61.9162 17.5454C62.204 18.1606 61.7115 18.855 61.0357 18.7867Z" fill="#F0F5F9"/>
<path d="M40.7969 10.5625H36.4219V13.8438H40.7969V10.5625ZM39.7031 12.75H37.5156V11.6562H39.7031V12.75Z" fill="#FFD500"/>
<path d="M48.4532 26.9687L46.1672 15.4844H44.0782V12.1096L45.3103 12.9895C45.5903 13.1908 45.9206 13.2969 46.2651 13.2969C46.794 13.2969 47.2933 13.0398 47.6006 12.6094C47.8554 12.2529 47.9561 11.8181 47.8839 11.3855C47.8111 10.9524 47.5749 10.5745 47.2189 10.3219L39.5621 4.85201C39.0021 4.45279 38.2146 4.45279 37.6562 4.85311L30.0011 10.3208C29.644 10.5745 29.4077 10.9529 29.335 11.3855C29.2628 11.8181 29.3629 12.2529 29.6188 12.6105C30.1263 13.3193 31.1976 13.4976 31.9069 12.9906L33.1407 12.109V15.4844H27.8847L27.1229 14.8073C26.5208 14.2703 25.5413 14.2714 24.9414 14.8062L15.0982 23.5551C14.77 23.8461 14.5754 24.2475 14.5497 24.685C14.5245 25.123 14.6705 25.5441 14.9609 25.8706C15.2721 26.2217 15.7194 26.4229 16.1875 26.4229C16.5895 26.4229 16.9767 26.2753 17.278 26.0073L17.8282 25.5184V38.4531H47.3594V30.7969H48.4532V26.9687ZM45.2704 16.5781L47.3594 27.0229V27.5156H34.2344V25.5184L34.7846 26.0073C35.4354 26.5865 36.5231 26.5214 37.1011 25.8717C37.3921 25.5441 37.5381 25.123 37.5124 24.685C37.4867 24.2469 37.292 23.8461 36.965 23.5562L34.6522 21.5H44.0782V16.5781H45.2704ZM39.7032 20.4062H37.5157V16.0312H39.7032V20.4062ZM31.2709 12.1008C31.0336 12.2698 30.6765 12.2091 30.508 11.9745C30.4227 11.8553 30.3893 11.7104 30.4134 11.566C30.438 11.4194 30.5146 11.2975 30.6354 11.2111L38.2917 5.74287C38.4787 5.60943 38.7407 5.61053 38.9266 5.74232L46.5834 11.2127C46.7015 11.2964 46.7803 11.4222 46.8044 11.566C46.8284 11.7104 46.7951 11.8547 46.7103 11.9734C46.5413 12.2108 46.1858 12.272 45.9463 12.1003L38.6094 6.85959L31.2709 12.1008ZM38.6094 8.20326L42.9844 11.3287V20.4062H40.7969V14.9375H36.4219V20.4062H34.2344V11.3281L38.6094 8.20326ZM33.1407 16.5781V20.1563L29.1151 16.5781H33.1407ZM16.5512 25.1903C16.333 25.3844 15.9726 25.362 15.7785 25.1444C15.6817 25.0361 15.633 24.8955 15.6418 24.749C15.6505 24.603 15.715 24.4695 15.8244 24.3727L25.6682 15.6227C25.7688 15.5336 25.8973 15.4844 26.0313 15.4844C26.1653 15.4844 26.2943 15.5336 26.3955 15.6238L36.2393 24.3738C36.3481 24.4706 36.4126 24.6035 36.4208 24.7495C36.4296 24.8977 36.382 25.0344 36.2836 25.146C36.0911 25.3626 35.729 25.3844 35.5114 25.1908L26.0313 16.7635L16.5512 25.1903ZM26.0313 18.2269L33.1407 24.5461V26.4219H28.7657V22.0469H23.2969V26.4219H18.9219V24.5461L26.0313 18.2269ZM27.6719 26.4219H24.3907V23.1406H27.6719V26.4219ZM18.9219 27.5156H33.1407V37.3594H26.5782V30.7969H20.0157V37.3594H18.9219V27.5156ZM25.4844 37.3594H21.1094V31.8906H25.4844V37.3594ZM46.2657 37.3594H34.2344V30.7969H46.2657V37.3594ZM34.2344 29.7031V28.6094H47.3594V29.7031H34.2344Z" fill="#FFD500"/>
<path d="M32.0469 28.6094H27.6719V32.9844H32.0469V28.6094ZM30.9531 31.8906H28.7656V29.7031H30.9531V31.8906Z" fill="#FFD500"/>
<path d="M39.7031 36.2656V31.8906H35.3281V36.2656H39.7031ZM36.4219 32.9844H38.6094V35.1719H36.4219V32.9844Z" fill="#FFD500"/>
<path d="M45.1719 31.8906H40.7969V36.2656H45.1719V31.8906ZM44.0781 35.1719H41.8906V32.9844H44.0781V35.1719Z" fill="#FFD500"/>
</svg>
