<svg width="62" height="42" viewBox="0 0 62 42" fill="none" xmlns="http://www.w3.org/2000/svg">
<path d="M29.283 9.21855L25.6133 18.1309C25.4889 18.4331 25.2063 18.6408 24.8808 18.6694L6.10994 20.3189C5.64939 20.3593 5.29988 20.7511 5.31194 21.213L5.69367 35.9473C5.7042 36.3525 5.99161 36.6973 6.38823 36.7809L28.4864 41.4291C29.0266 41.5427 29.5757 41.599 30.1248 41.5977L30.1252 37.2279V9.3852C30.125 8.1689 29.7461 8.09394 29.283 9.21855ZM26.7134 36.6963L18.4177 35.3604V31.0122H26.7134V36.6963ZM23.0861 16.5514L0.96424 18.7867C0.28842 18.855 -0.204034 18.1606 0.0838809 17.5455L5.97439 4.95443C6.09423 4.69822 6.33058 4.51567 6.60877 4.46461L30.9158 0.000101252L23.7978 16.036C23.6703 16.323 23.3987 16.5198 23.0861 16.5514ZM55.8901 20.3189L37.1193 18.6695C36.7937 18.6409 36.5111 18.4332 36.3868 18.131L32.717 9.21865C32.2539 8.09394 31.8749 8.1689 31.8749 9.3852V37.2278L31.8753 41.5976C32.4243 41.599 32.9735 41.5426 33.5138 41.429L55.612 36.7808C56.0086 36.6973 56.296 36.3524 56.3064 35.9472L56.6882 21.213C56.7002 20.751 56.3505 20.3593 55.8901 20.3189ZM48.1652 28.189L47.1285 28.2177L47.1075 34.7425C47.1066 35.0299 46.8147 35.3047 46.4516 35.3569L44.7526 35.6013C44.3644 35.6571 44.0468 35.4582 44.0476 35.1563L44.0634 28.3028L42.8776 28.3356C42.301 28.3515 41.9362 27.8893 42.2297 27.5066L45.0498 23.8318C45.3169 23.4835 45.9726 23.5156 46.2301 23.8826L48.7056 27.4106C48.9402 27.7452 48.6435 28.1757 48.1652 28.189ZM61.0357 18.7867L38.9138 16.5514C38.6012 16.5198 38.3295 16.323 38.2021 16.0359L31.0842 0L55.3912 4.46451C55.6694 4.51557 55.9058 4.69812 56.0257 4.95433L61.9162 17.5454C62.204 18.1606 61.7115 18.855 61.0357 18.7867Z" fill="#F0F5F9"/>
<path d="M47.8816 31.8203L45.1473 23.0703C45.1123 22.9592 45.0428 22.8622 44.9489 22.7933C44.8549 22.7244 44.7415 22.6874 44.625 22.6875H44.0781V10.1094C44.0775 10.0399 44.0636 9.97124 44.0371 9.90703L41.8496 4.43828C41.8093 4.33696 41.7395 4.25002 41.6494 4.18862C41.5592 4.12723 41.4528 4.09419 41.3438 4.09375H21.6562C21.5469 4.09367 21.4401 4.12634 21.3496 4.18756C21.259 4.24877 21.1889 4.33572 21.1482 4.43719L18.9607 9.90594C18.9348 9.97063 18.9216 10.0397 18.9219 10.1094V22.6875H18.375C18.2585 22.6874 18.1451 22.7244 18.0511 22.7933C17.9572 22.8622 17.8877 22.9592 17.8527 23.0703L15.1184 31.8203C15.116 31.8405 15.1147 31.8607 15.1145 31.881C15.104 31.9146 15.097 31.9493 15.0938 31.9844V36.3594C15.0938 36.5044 15.1514 36.6435 15.2539 36.7461C15.3565 36.8486 15.4956 36.9062 15.6406 36.9062H18.9219C19.0669 36.9062 19.206 36.8486 19.3086 36.7461C19.4111 36.6435 19.4688 36.5044 19.4688 36.3594V34.7188H29.3125V36.3594C29.3125 36.5044 29.3701 36.6435 29.4727 36.7461C29.5752 36.8486 29.7143 36.9062 29.8594 36.9062H33.1406C33.2857 36.9062 33.4248 36.8486 33.5273 36.7461C33.6299 36.6435 33.6875 36.5044 33.6875 36.3594V34.7188H43.5312V36.3594C43.5312 36.5044 43.5889 36.6435 43.6914 36.7461C43.794 36.8486 43.9331 36.9062 44.0781 36.9062H47.3594C47.5044 36.9062 47.6435 36.8486 47.7461 36.7461C47.8486 36.6435 47.9062 36.5044 47.9062 36.3594V31.9844C47.9029 31.9497 47.896 31.9154 47.8855 31.8821C47.8853 31.8615 47.8841 31.8408 47.8816 31.8203ZM16.1875 32.5312H46.8125V33.625H16.1875V32.5312ZM18.9219 27.0625H17.7516L18.0934 25.9688H18.9219V27.0625ZM18.9219 28.1562V29.25H17.068L17.4098 28.1562H18.9219ZM42.7235 9.5625H32.0469V7.92188H42.0673L42.7235 9.5625ZM42.9844 20.5H32.0469V10.6562H42.9844V20.5ZM44.0781 25.9688H44.9066L45.2484 27.0625H44.0781V25.9688ZM44.0781 28.1562H45.5902L45.932 29.25H44.0781V28.1562ZM44.0781 30.3438H46.2738L46.6156 31.4375H44.0781V30.3438ZM42.9844 31.4375H32.0469V21.5938H42.9844V31.4375ZM30.9531 9.5625H20.2765L20.9327 7.92188H30.9531V9.5625ZM30.9531 10.6562V20.5H20.0156V10.6562H30.9531ZM30.9531 31.4375H20.0156V21.5938H30.9531V31.4375ZM44.223 23.7812L44.5648 24.875H44.0781V23.7812H44.223ZM41.6298 6.82813H32.0469V5.1875H40.9735L41.6298 6.82813ZM22.0265 5.1875H30.9531V6.82813H21.3702L22.0265 5.1875ZM18.9219 23.7812V24.875H18.4352L18.777 23.7812H18.9219ZM16.7344 30.318V30.3438H18.9219V31.4375H16.3844L16.7344 30.318ZM18.375 35.8125H16.1875V34.7188H18.375V35.8125ZM32.5938 35.8125H30.4062V34.7188H32.5938V35.8125ZM44.625 35.8125V34.7188H46.8125V35.8125H44.625Z" fill="#FFD500"/>
<path d="M21.6562 15.5781H24.9375C25.0825 15.5781 25.2216 15.5205 25.3242 15.4179C25.4268 15.3154 25.4844 15.1763 25.4844 15.0312V12.2969C25.4844 12.1518 25.4268 12.0127 25.3242 11.9102C25.2216 11.8076 25.0825 11.75 24.9375 11.75H21.6562C21.5112 11.75 21.3721 11.8076 21.2696 11.9102C21.167 12.0127 21.1094 12.1518 21.1094 12.2969V15.0312C21.1094 15.1763 21.167 15.3154 21.2696 15.4179C21.3721 15.5205 21.5112 15.5781 21.6562 15.5781ZM22.2031 12.8438H24.3906V14.4844H22.2031V12.8438Z" fill="#FFD500"/>
<path d="M33.6875 15.5781H36.9688C37.1138 15.5781 37.2529 15.5205 37.3554 15.4179C37.458 15.3154 37.5156 15.1763 37.5156 15.0312V12.2969C37.5156 12.1518 37.458 12.0127 37.3554 11.9102C37.2529 11.8076 37.1138 11.75 36.9688 11.75H33.6875C33.5425 11.75 33.4034 11.8076 33.3008 11.9102C33.1982 12.0127 33.1406 12.1518 33.1406 12.2969V15.0312C33.1406 15.1763 33.1982 15.3154 33.3008 15.4179C33.4034 15.5205 33.5425 15.5781 33.6875 15.5781ZM34.2344 12.8438H36.4219V14.4844H34.2344V12.8438Z" fill="#FFD500"/>
<path d="M21.6562 26.5156H24.9375C25.0825 26.5156 25.2216 26.458 25.3242 26.3554C25.4268 26.2529 25.4844 26.1138 25.4844 25.9688V23.2344C25.4844 23.0893 25.4268 22.9502 25.3242 22.8477C25.2216 22.7451 25.0825 22.6875 24.9375 22.6875H21.6562C21.5112 22.6875 21.3721 22.7451 21.2696 22.8477C21.167 22.9502 21.1094 23.0893 21.1094 23.2344V25.9688C21.1094 26.1138 21.167 26.2529 21.2696 26.3554C21.3721 26.458 21.5112 26.5156 21.6562 26.5156ZM22.2031 23.7812H24.3906V25.4219H22.2031V23.7812Z" fill="#FFD500"/>
<path d="M33.6875 26.5156H36.9688C37.1138 26.5156 37.2529 26.458 37.3554 26.3554C37.458 26.2529 37.5156 26.1138 37.5156 25.9688V23.2344C37.5156 23.0893 37.458 22.9502 37.3554 22.8477C37.2529 22.7451 37.1138 22.6875 36.9688 22.6875H33.6875C33.5425 22.6875 33.4034 22.7451 33.3008 22.8477C33.1982 22.9502 33.1406 23.0893 33.1406 23.2344V25.9688C33.1406 26.1138 33.1982 26.2529 33.3008 26.3554C33.4034 26.458 33.5425 26.5156 33.6875 26.5156ZM34.2344 23.7812H36.4219V25.4219H34.2344V23.7812Z" fill="#FFD500"/>
<path d="M27.6719 16.6719H29.8594V17.7656H27.6719V16.6719Z" fill="#FFD500"/>
<path d="M27.6719 18.3125H29.8594V19.4062H27.6719V18.3125Z" fill="#FFD500"/>
<path d="M27.6719 27.6094H29.8594V28.7031H27.6719V27.6094Z" fill="#FFD500"/>
<path d="M27.6719 29.25H29.8594V30.3438H27.6719V29.25Z" fill="#FFD500"/>
<path d="M39.7031 27.6094H41.8906V28.7031H39.7031V27.6094Z" fill="#FFD500"/>
<path d="M39.7031 29.25H41.8906V30.3438H39.7031V29.25Z" fill="#FFD500"/>
<path d="M39.7031 16.6719H41.8906V17.7656H39.7031V16.6719Z" fill="#FFD500"/>
<path d="M39.7031 18.3125H41.8906V19.4062H39.7031V18.3125Z" fill="#FFD500"/>
</svg>
