<svg width="62" height="42" viewBox="0 0 62 42" fill="none" xmlns="http://www.w3.org/2000/svg">
<path d="M29.283 9.21855L25.6133 18.1309C25.4889 18.4331 25.2063 18.6408 24.8808 18.6694L6.10994 20.3189C5.64939 20.3593 5.29988 20.7511 5.31194 21.213L5.69367 35.9473C5.7042 36.3525 5.99161 36.6973 6.38823 36.7809L28.4864 41.4291C29.0266 41.5427 29.5757 41.599 30.1248 41.5977L30.1252 37.2279V9.3852C30.125 8.1689 29.7461 8.09394 29.283 9.21855ZM26.7134 36.6963L18.4177 35.3604V31.0122H26.7134V36.6963ZM23.0861 16.5514L0.96424 18.7867C0.28842 18.855 -0.204034 18.1606 0.0838809 17.5455L5.97439 4.95443C6.09423 4.69822 6.33058 4.51567 6.60877 4.46461L30.9158 0.000101252L23.7978 16.036C23.6703 16.323 23.3987 16.5198 23.0861 16.5514ZM55.8901 20.3189L37.1193 18.6695C36.7937 18.6409 36.5111 18.4332 36.3868 18.131L32.717 9.21865C32.2539 8.09394 31.8749 8.1689 31.8749 9.3852V37.2278L31.8753 41.5976C32.4243 41.599 32.9735 41.5426 33.5138 41.429L55.612 36.7808C56.0086 36.6973 56.296 36.3524 56.3064 35.9472L56.6882 21.213C56.7002 20.751 56.3505 20.3593 55.8901 20.3189ZM48.1652 28.189L47.1285 28.2177L47.1075 34.7425C47.1066 35.0299 46.8147 35.3047 46.4516 35.3569L44.7526 35.6013C44.3644 35.6571 44.0468 35.4582 44.0476 35.1563L44.0634 28.3028L42.8776 28.3356C42.301 28.3515 41.9362 27.8893 42.2297 27.5066L45.0498 23.8318C45.3169 23.4835 45.9726 23.5156 46.2301 23.8826L48.7056 27.4106C48.9402 27.7452 48.6435 28.1757 48.1652 28.189ZM61.0357 18.7867L38.9138 16.5514C38.6012 16.5198 38.3295 16.323 38.2021 16.0359L31.0842 0L55.3912 4.46451C55.6694 4.51557 55.9058 4.69812 56.0257 4.95433L61.9162 17.5454C62.204 18.1606 61.7115 18.855 61.0357 18.7867Z" fill="#F0F5F9"/>
<g clip-path="url(#clip0)">
<path d="M28.7065 28.028V11.5496C28.7065 11.141 28.3721 10.8066 27.9635 10.8066C27.5549 10.8066 27.2206 11.141 27.2206 11.5496V28.028C25.7421 28.3698 24.6426 29.6848 24.6426 31.2673C24.6426 33.0949 26.1359 34.5882 27.9635 34.5882C29.7912 34.5882 31.2845 33.1023 31.2845 31.2673C31.2919 29.6848 30.1849 28.3624 28.7065 28.028ZM27.9635 33.0949C26.9531 33.0949 26.1285 32.2702 26.1285 31.2598C26.1285 30.2494 26.9531 29.4248 27.9635 29.4248C28.9739 29.4248 29.7986 30.2494 29.7986 31.2598C29.806 32.2777 28.9814 33.0949 27.9635 33.0949Z" fill="#FFD500"/>
<path d="M32.1473 25.734V7.16047C32.1473 4.86478 30.2751 3 27.9645 3C25.654 3 23.7818 4.86478 23.7818 7.16047V25.734C21.5604 27.4873 20.6391 30.4443 21.4786 33.2229C21.9095 34.6122 22.7565 35.8009 23.9303 36.6701C25.1116 37.5393 26.5009 38 27.9645 38C29.4281 38 30.8248 37.5393 31.9987 36.6701C33.1725 35.8009 34.0195 34.6122 34.4504 33.2154C35.2899 30.4443 34.3612 27.4873 32.1473 25.734ZM33.0165 32.7845C32.3256 35.0133 30.2973 36.5141 27.9571 36.5141C25.6168 36.5141 23.5886 35.0208 22.8977 32.792C22.2067 30.5037 23.0314 28.0668 24.9482 26.7221C25.1488 26.581 25.2676 26.3581 25.2676 26.1129V7.1679C25.2676 5.71917 26.5083 4.49331 27.9645 4.49331C29.4281 4.49331 30.6614 5.71917 30.6465 7.16047V26.1055C30.6465 26.3506 30.7654 26.5735 30.966 26.7147C32.8828 28.0594 33.7074 30.5037 33.0165 32.7845Z" fill="#FFD500"/>
<path d="M47.0284 12.4868H46.1815C45.2008 12.4868 44.2721 12.0336 43.8263 11.3426C43.8189 11.3352 43.8115 11.3203 43.8041 11.3129C43.336 10.6591 43.3434 9.84188 43.8189 9.12866L43.8263 9.12123C44.287 8.41543 45.1636 7.9771 46.122 7.9771H47.0284C47.437 7.9771 47.7714 7.64277 47.7714 7.23415C47.7714 6.82553 47.437 6.49121 47.0284 6.49121H46.122C44.6659 6.49121 43.3137 7.18215 42.5856 8.30399C41.7684 9.52985 41.7684 11.0009 42.5931 12.1599C43.3137 13.2594 44.7179 13.9652 46.1889 13.9652H47.0284C47.437 13.9652 47.7714 13.6383 47.7714 13.2297C47.7714 12.8211 47.437 12.4868 47.0284 12.4868Z" fill="#FFD500"/>
<path d="M38.4025 3.00586C37.0281 3.00586 35.9062 4.12027 35.9062 5.48728V6.32681C35.9062 7.69382 37.0281 8.80824 38.4025 8.80824C39.777 8.80824 40.8988 7.69382 40.8988 6.32681V5.48728C40.8988 4.12027 39.777 3.00586 38.4025 3.00586ZM39.4129 6.32681C39.4129 6.88401 38.9672 7.32235 38.4025 7.32235C37.8379 7.32235 37.3921 6.88401 37.3921 6.32681V5.48728C37.3921 4.93008 37.8379 4.49174 38.4025 4.49174C38.9672 4.49174 39.4129 4.93008 39.4129 5.48728V6.32681Z" fill="#FFD500"/>
<path d="M20.2518 25.3682H15.9724C15.5638 25.3682 15.2295 25.7025 15.2295 26.1111C15.2295 26.5197 15.5638 26.854 15.9724 26.854H20.2518C20.6604 26.854 20.9947 26.5197 20.9947 26.1111C20.9947 25.7025 20.6604 25.3682 20.2518 25.3682Z" fill="#FFD500"/>
<path d="M20.2518 15.0566H17.659C17.2503 15.0566 16.916 15.391 16.916 15.7996C16.916 16.2082 17.2503 16.5425 17.659 16.5425H20.2518C20.6604 16.5425 20.9948 16.2082 20.9948 15.7996C20.9948 15.391 20.6604 15.0566 20.2518 15.0566Z" fill="#FFD500"/>
<path d="M20.2518 11.6396H15.9724C15.5638 11.6396 15.2295 11.974 15.2295 12.3826C15.2295 12.7912 15.5638 13.1255 15.9724 13.1255H20.2518C20.6604 13.1255 20.9947 12.7912 20.9947 12.3826C20.9947 11.974 20.6604 11.6396 20.2518 11.6396Z" fill="#FFD500"/>
<path d="M20.2518 8.16309H17.659C17.2503 8.16309 16.916 8.49741 16.916 8.90603C16.916 9.31465 17.2503 9.64897 17.659 9.64897H20.2518C20.6604 9.64897 20.9948 9.31465 20.9948 8.90603C20.9948 8.49741 20.6604 8.16309 20.2518 8.16309Z" fill="#FFD500"/>
<path d="M20.2518 4.74609H15.9724C15.5638 4.74609 15.2295 5.08042 15.2295 5.48904C15.2295 5.89765 15.5638 6.23198 15.9724 6.23198H20.2518C20.6604 6.23198 20.9947 5.89765 20.9947 5.48904C20.9947 5.08042 20.6604 4.74609 20.2518 4.74609Z" fill="#FFD500"/>
<path d="M20.2518 21.9512H17.659C17.2503 21.9512 16.916 22.2855 16.916 22.6941C16.916 23.1027 17.2503 23.4371 17.659 23.4371H20.2518C20.6604 23.4371 20.9948 23.1027 20.9948 22.6941C20.9948 22.2855 20.6604 21.9512 20.2518 21.9512Z" fill="#FFD500"/>
<path d="M20.2518 18.4746H15.9724C15.5638 18.4746 15.2295 18.8089 15.2295 19.2176C15.2295 19.6262 15.5638 19.9605 15.9724 19.9605H20.2518C20.6604 19.9605 20.9947 19.6262 20.9947 19.2176C20.9947 18.8089 20.6604 18.4746 20.2518 18.4746Z" fill="#FFD500"/>
</g>
<defs>
<clipPath id="clip0">
<rect width="35" height="35" fill="white" transform="translate(14 3)"/>
</clipPath>
</defs>
</svg>
