<svg width="62" height="42" viewBox="0 0 62 42" fill="none" xmlns="http://www.w3.org/2000/svg">
<path d="M29.283 9.21855L25.6133 18.1309C25.4889 18.4331 25.2063 18.6408 24.8808 18.6694L6.10994 20.3189C5.64939 20.3593 5.29988 20.7511 5.31194 21.213L5.69367 35.9473C5.7042 36.3525 5.99161 36.6973 6.38823 36.7809L28.4864 41.4291C29.0266 41.5427 29.5757 41.599 30.1248 41.5977L30.1252 37.2279V9.3852C30.125 8.1689 29.7461 8.09394 29.283 9.21855ZM26.7134 36.6963L18.4177 35.3604V31.0122H26.7134V36.6963ZM23.0861 16.5514L0.96424 18.7867C0.28842 18.855 -0.204034 18.1606 0.0838809 17.5455L5.97439 4.95443C6.09423 4.69822 6.33058 4.51567 6.60877 4.46461L30.9158 0.000101252L23.7978 16.036C23.6703 16.323 23.3987 16.5198 23.0861 16.5514ZM55.8901 20.3189L37.1193 18.6695C36.7937 18.6409 36.5111 18.4332 36.3868 18.131L32.717 9.21865C32.2539 8.09394 31.8749 8.1689 31.8749 9.3852V37.2278L31.8753 41.5976C32.4243 41.599 32.9735 41.5426 33.5138 41.429L55.612 36.7808C56.0086 36.6973 56.296 36.3524 56.3064 35.9472L56.6882 21.213C56.7002 20.751 56.3505 20.3593 55.8901 20.3189ZM48.1652 28.189L47.1285 28.2177L47.1075 34.7425C47.1066 35.0299 46.8147 35.3047 46.4516 35.3569L44.7526 35.6013C44.3644 35.6571 44.0468 35.4582 44.0476 35.1563L44.0634 28.3028L42.8776 28.3356C42.301 28.3515 41.9362 27.8893 42.2297 27.5066L45.0498 23.8318C45.3169 23.4835 45.9726 23.5156 46.2301 23.8826L48.7056 27.4106C48.9402 27.7452 48.6435 28.1757 48.1652 28.189ZM61.0357 18.7867L38.9138 16.5514C38.6012 16.5198 38.3295 16.323 38.2021 16.0359L31.0842 0L55.3912 4.46451C55.6694 4.51557 55.9058 4.69812 56.0257 4.95433L61.9162 17.5454C62.204 18.1606 61.7115 18.855 61.0357 18.7867Z" fill="#F0F5F9"/>
<g clip-path="url(#clip0)">
<path d="M48.9531 17.3529L46.2519 11.2936C46.1639 11.0962 45.968 10.9691 45.7519 10.9691H38.6055C38.3031 10.9691 38.058 11.2141 38.058 11.5165V21.7352H34.2814V18.6164C34.2814 18.314 34.0363 18.0689 33.734 18.0689H32.3611V14.9501C32.3611 14.6478 32.116 14.4027 31.8137 14.4027H29.9505V11.0533C29.9505 10.7509 29.7055 10.5059 29.4031 10.5059H25.1013H20.7976C20.4952 10.5059 20.2501 10.7509 20.2501 11.0533V14.4027H18.6952C18.3928 14.4027 18.1478 14.6478 18.1478 14.9501V18.0689H16.5442C16.2419 18.0689 15.9968 18.314 15.9968 18.6164V21.7352H14.5464C14.2441 21.7352 13.999 21.9803 13.999 22.2826V25.2513C13.999 25.9891 14.5992 26.5892 15.337 26.5892H16.7196C16.7011 26.7338 16.6906 26.8807 16.6906 27.0301C16.6906 28.9411 18.2453 30.4958 20.1563 30.4958C22.0673 30.4958 23.6219 28.9411 23.6219 27.0301C23.6219 26.8807 23.6113 26.7338 23.5929 26.5892H24.1373C24.1189 26.7338 24.1083 26.8807 24.1083 27.0301C24.1083 28.9411 25.663 30.4958 27.574 30.4958C29.485 30.4958 31.0396 28.9411 31.0396 27.0301C31.0396 26.8807 31.0291 26.7338 31.0107 26.5892H38.8042C38.7857 26.7338 38.7752 26.8807 38.7752 27.0301C38.7752 28.9411 40.3299 30.4958 42.2409 30.4958C44.1508 30.4958 45.7046 28.9411 45.7046 27.0301C45.7046 26.8807 45.694 26.7338 45.6756 26.5892H47.6608C48.3996 26.5892 49.0007 25.9891 49.0007 25.2513V24.0498V22.643V20.2034V17.5758C49.0005 17.499 48.9843 17.4231 48.9531 17.3529ZM47.6098 17.0284H43.4072C43.2201 17.0284 42.9373 16.6663 42.9373 16.1206V13.8175H46.1784L47.6098 17.0284ZM47.9057 22.0956H47.0744V20.7508H47.9057V22.0956ZM39.1529 12.0639H45.3966L45.6902 12.7228H42.3898C42.0875 12.7228 41.8424 12.9678 41.8424 13.2702V16.1206C41.8424 17.2436 42.5297 18.1233 43.4072 18.1233H47.9056V19.656H46.8815C46.3841 19.656 45.9795 20.0607 45.9795 20.558V22.2865C45.9795 22.785 46.3841 23.1905 46.8815 23.1905H47.9056V23.5025H46.1527C46.0175 22.5059 45.1611 21.7353 44.128 21.7353H39.1528V12.0639H39.1529ZM33.1866 21.7352H30.0009V19.1638H33.1866V21.7352ZM21.3954 19.1638H24.6025V21.7352H21.3954V19.1638ZM23.5463 15.4976H26.7552V18.069H25.1498H23.5463V15.4976ZM25.6972 19.1638H28.9061V21.7352H25.6972V19.1638ZM31.2663 18.0689H29.4534H29.4321H27.8499V15.4976H31.2662V18.0689H31.2663ZM28.8557 14.4028H27.5099C27.4744 14.4028 27.4398 14.4064 27.4062 14.4129C27.3726 14.4064 27.338 14.4028 27.3025 14.4028H25.6486V11.6008H28.8556V14.4028H28.8557ZM21.345 11.6008H24.5539V14.4028H22.9989H21.345V11.6008ZM19.2425 15.4976H22.4515V18.069H20.848H19.2425V15.4976ZM17.0917 19.1638H20.3006V21.7352H17.0917V19.1638ZM20.1562 29.4009C18.8489 29.4009 17.7854 28.3373 17.7854 27.03C17.7854 25.7228 18.849 24.6592 20.1562 24.6592C21.4635 24.6592 22.5271 25.7227 22.5271 27.03C22.5271 28.3373 21.4635 29.4009 20.1562 29.4009ZM27.5739 29.4009C26.2666 29.4009 25.2031 28.3373 25.2031 27.03C25.2031 25.7228 26.2667 24.6592 27.5739 24.6592C28.8811 24.6592 29.9447 25.7227 29.9447 27.03C29.9447 28.3373 28.8812 29.4009 27.5739 29.4009ZM42.2407 29.4009C40.9334 29.4009 39.8699 28.3373 39.8699 27.03C39.8699 25.7228 40.9335 24.6592 42.2407 24.6592C43.547 24.6592 44.6096 25.7227 44.6096 27.03C44.6096 28.3373 43.5469 29.4009 42.2407 29.4009ZM47.9057 25.2512C47.9057 25.383 47.7934 25.4944 47.6605 25.4944H45.3447C44.7778 24.3519 43.5997 23.5644 42.2407 23.5644C40.881 23.5644 39.7023 24.3519 39.135 25.4944H30.6797C30.1124 24.3519 28.9337 23.5644 27.574 23.5644C26.2142 23.5644 25.0355 24.3519 24.4683 25.4944H23.262C22.6947 24.3519 21.516 23.5644 20.1563 23.5644C18.7966 23.5644 17.6178 24.3519 17.0506 25.4944H15.337C15.2052 25.4944 15.0939 25.383 15.0939 25.2512V22.83H16.5442H20.848H25.1498H29.4322H29.4536H33.7341H44.1281C44.6512 22.83 45.0766 23.2555 45.0766 23.7785V24.0498C45.0766 24.3521 45.3217 24.5972 45.6241 24.5972H47.9058V25.2512H47.9057ZM42.2407 25.3336C41.3042 25.3336 40.5423 26.0946 40.5423 27.03C40.5423 27.9655 41.3042 28.7265 42.2407 28.7265C43.1762 28.7265 43.9372 27.9655 43.9372 27.03C43.9371 26.0946 43.1762 25.3336 42.2407 25.3336ZM42.2407 27.6317C41.9079 27.6317 41.6371 27.3618 41.6371 27.03C41.6371 26.6983 41.9079 26.4284 42.2407 26.4284C42.5725 26.4284 42.8424 26.6983 42.8424 27.03C42.8424 27.3618 42.5725 27.6317 42.2407 27.6317ZM20.1562 25.3336C19.2207 25.3336 18.4597 26.0946 18.4597 27.03C18.4597 27.9655 19.2208 28.7265 20.1562 28.7265C21.0917 28.7265 21.8527 27.9655 21.8527 27.03C21.8527 26.0946 21.0917 25.3336 20.1562 25.3336ZM20.1562 27.6317C19.8244 27.6317 19.5545 27.3618 19.5545 27.03C19.5545 26.6983 19.8244 26.4284 20.1562 26.4284C20.488 26.4284 20.7579 26.6983 20.7579 27.03C20.7579 27.3618 20.488 27.6317 20.1562 27.6317ZM27.5739 25.3336C26.6384 25.3336 25.8774 26.0946 25.8774 27.03C25.8774 27.9655 26.6385 28.7265 27.5739 28.7265C28.5104 28.7265 29.2723 27.9655 29.2723 27.03C29.2724 26.0946 28.5104 25.3336 27.5739 25.3336ZM27.5739 27.6317C27.2421 27.6317 26.9722 27.3618 26.9722 27.03C26.9722 26.6983 27.2421 26.4284 27.5739 26.4284C27.9067 26.4284 28.1775 26.6983 28.1775 27.03C28.1775 27.3618 27.9067 27.6317 27.5739 27.6317ZM42.2358 19.4263C42.2358 19.7287 41.9908 19.9738 41.6884 19.9738H40.5606C40.2583 19.9738 40.0132 19.7287 40.0132 19.4263C40.0132 19.124 40.2583 18.8789 40.5606 18.8789H41.6884C41.9908 18.8789 42.2358 19.124 42.2358 19.4263Z" fill="#FFD500"/>
</g>
<defs>
<clipPath id="clip0">
<rect width="35" height="35" fill="white" transform="translate(14 3)"/>
</clipPath>
</defs>
</svg>
