<svg width="62" height="42" viewBox="0 0 62 42" fill="none" xmlns="http://www.w3.org/2000/svg">
<path d="M29.283 9.21855L25.6133 18.1309C25.4889 18.4331 25.2063 18.6408 24.8808 18.6694L6.10994 20.3189C5.64939 20.3593 5.29988 20.7511 5.31194 21.213L5.69367 35.9473C5.7042 36.3525 5.99161 36.6973 6.38823 36.7809L28.4864 41.4291C29.0266 41.5427 29.5757 41.599 30.1248 41.5977L30.1252 37.2279V9.3852C30.125 8.1689 29.7461 8.09394 29.283 9.21855ZM26.7134 36.6963L18.4177 35.3604V31.0122H26.7134V36.6963ZM23.0861 16.5514L0.96424 18.7867C0.28842 18.855 -0.204034 18.1606 0.0838809 17.5455L5.97439 4.95443C6.09423 4.69822 6.33058 4.51567 6.60877 4.46461L30.9158 0.000101252L23.7978 16.036C23.6703 16.323 23.3987 16.5198 23.0861 16.5514ZM55.8901 20.3189L37.1193 18.6695C36.7937 18.6409 36.5111 18.4332 36.3868 18.131L32.717 9.21865C32.2539 8.09394 31.8749 8.1689 31.8749 9.3852V37.2278L31.8753 41.5976C32.4243 41.599 32.9735 41.5426 33.5138 41.429L55.612 36.7808C56.0086 36.6973 56.296 36.3524 56.3064 35.9472L56.6882 21.213C56.7002 20.751 56.3505 20.3593 55.8901 20.3189ZM48.1652 28.189L47.1285 28.2177L47.1075 34.7425C47.1066 35.0299 46.8147 35.3047 46.4516 35.3569L44.7526 35.6013C44.3644 35.6571 44.0468 35.4582 44.0476 35.1563L44.0634 28.3028L42.8776 28.3356C42.301 28.3515 41.9362 27.8893 42.2297 27.5066L45.0498 23.8318C45.3169 23.4835 45.9726 23.5156 46.2301 23.8826L48.7056 27.4106C48.9402 27.7452 48.6435 28.1757 48.1652 28.189ZM61.0357 18.7867L38.9138 16.5514C38.6012 16.5198 38.3295 16.323 38.2021 16.0359L31.0842 0L55.3912 4.46451C55.6694 4.51557 55.9058 4.69812 56.0257 4.95433L61.9162 17.5454C62.204 18.1606 61.7115 18.855 61.0357 18.7867Z" fill="#F0F5F9"/>
<g clip-path="url(#clip0)">
<path d="M48.7119 12.9979L31.7952 3.08117C31.6172 2.97733 31.3985 2.97384 31.2183 3.07358L14.3016 12.407C14.1155 12.509 14 12.705 14 12.9173V37.4173C14 37.7399 14.2613 38.0006 14.5833 38.0006H17.5C17.822 38.0006 18.0833 37.7399 18.0833 37.4173V17.0007H44.9166V37.4174C44.9166 37.74 45.1773 38.0007 45.4999 38.0007H48.4166C48.7392 38.0007 48.9999 37.74 48.9999 37.4174V13.5007C49 13.2936 48.8903 13.1022 48.7119 12.9979ZM47.8333 36.834H46.0833V16.4173C46.0833 16.0954 45.8226 15.834 45.5 15.834H17.5C17.178 15.834 16.9167 16.0954 16.9167 16.4173V36.834H15.1667V13.2615L31.4912 4.25483L47.8333 13.8349V36.834Z" fill="#FFD500"/>
<path d="M43.1673 29.833H36.1673C35.8447 29.833 35.584 30.0937 35.584 30.4163V37.4163C35.584 37.7389 35.8447 37.9996 36.1673 37.9996H43.1673C43.4899 37.9996 43.7506 37.7389 43.7506 37.4163V30.4163C43.7506 30.0937 43.4899 29.833 43.1673 29.833ZM42.5839 36.833H36.7506V30.9997H42.5839V36.833Z" fill="#FFD500"/>
<path d="M40.2504 30.416V32.166H39.0837V30.416H37.917V32.7493C37.917 33.0719 38.1777 33.3326 38.5003 33.3326H40.8336C41.1562 33.3326 41.4169 33.0719 41.4169 32.7493V30.416H40.2504Z" fill="#FFD500"/>
<path d="M36.1663 29.833H29.1663C28.8443 29.833 28.583 30.0937 28.583 30.4163V37.4163C28.583 37.7389 28.8443 37.9996 29.1663 37.9996H36.1663C36.4889 37.9996 36.7496 37.7389 36.7496 37.4163V30.4163C36.7496 30.0937 36.4889 29.833 36.1663 29.833ZM35.5829 36.833H29.7496V30.9997H35.5829V36.833Z" fill="#FFD500"/>
<path d="M33.2504 30.416V32.166H32.0837V30.416H30.917V32.7493C30.917 33.0719 31.1783 33.3326 31.5003 33.3326H33.8336C34.1562 33.3326 34.4169 33.0719 34.4169 32.7493V30.416H33.2504Z" fill="#FFD500"/>
<path d="M43.1673 22.833H36.1673C35.8447 22.833 35.584 23.0937 35.584 23.4163V30.4163C35.584 30.7389 35.8447 30.9996 36.1673 30.9996H43.1673C43.4899 30.9996 43.7506 30.7389 43.7506 30.4163V23.4163C43.7506 23.0937 43.4899 22.833 43.1673 22.833ZM42.5839 29.833H36.7506V23.9997H42.5839V29.833Z" fill="#FFD500"/>
<path d="M40.2504 23.417V25.167H39.0837V23.417H37.917V25.7503C37.917 26.0729 38.1777 26.3336 38.5003 26.3336H40.8336C41.1562 26.3336 41.4169 26.0729 41.4169 25.7503V23.417H40.2504Z" fill="#FFD500"/>
<path d="M45.5 20.5H17.5V21.6667H45.5V20.5Z" fill="#FFD500"/>
<path d="M45.5 18.167H17.5V19.3337H45.5V18.167Z" fill="#FFD500"/>
<path d="M34.4166 11.167H28.5833C28.2613 11.167 28 11.4283 28 11.7503V14.0836C28 14.4056 28.2613 14.6669 28.5833 14.6669H34.4166C34.7392 14.6669 34.9999 14.4056 34.9999 14.0836V11.7503C34.9999 11.4283 34.7392 11.167 34.4166 11.167ZM33.8332 13.5004H29.1666V12.3337H33.8332V13.5004Z" fill="#FFD500"/>
</g>
<defs>
<clipPath id="clip0">
<rect width="35" height="35" fill="white" transform="translate(14 3)"/>
</clipPath>
</defs>
</svg>
