<svg width="62" height="42" viewBox="0 0 62 42" fill="none" xmlns="http://www.w3.org/2000/svg">
<path d="M29.283 9.21855L25.6133 18.1309C25.4889 18.4331 25.2063 18.6408 24.8808 18.6694L6.10994 20.3189C5.64939 20.3593 5.29988 20.7511 5.31194 21.213L5.69367 35.9473C5.7042 36.3525 5.99161 36.6973 6.38823 36.7809L28.4864 41.4291C29.0266 41.5427 29.5757 41.599 30.1248 41.5977L30.1252 37.2279V9.3852C30.125 8.1689 29.7461 8.09394 29.283 9.21855ZM26.7134 36.6963L18.4177 35.3604V31.0122H26.7134V36.6963ZM23.0861 16.5514L0.96424 18.7867C0.28842 18.855 -0.204034 18.1606 0.0838809 17.5455L5.97439 4.95443C6.09423 4.69822 6.33058 4.51567 6.60877 4.46461L30.9158 0.000101252L23.7978 16.036C23.6703 16.323 23.3987 16.5198 23.0861 16.5514ZM55.8901 20.3189L37.1193 18.6695C36.7937 18.6409 36.5111 18.4332 36.3868 18.131L32.717 9.21865C32.2539 8.09394 31.8749 8.1689 31.8749 9.3852V37.2278L31.8753 41.5976C32.4243 41.599 32.9735 41.5426 33.5138 41.429L55.612 36.7808C56.0086 36.6973 56.296 36.3524 56.3064 35.9472L56.6882 21.213C56.7002 20.751 56.3505 20.3593 55.8901 20.3189ZM48.1652 28.189L47.1285 28.2177L47.1075 34.7425C47.1066 35.0299 46.8147 35.3047 46.4516 35.3569L44.7526 35.6013C44.3644 35.6571 44.0468 35.4582 44.0476 35.1563L44.0634 28.3028L42.8776 28.3356C42.301 28.3515 41.9362 27.8893 42.2297 27.5066L45.0498 23.8318C45.3169 23.4835 45.9726 23.5156 46.2301 23.8826L48.7056 27.4106C48.9402 27.7452 48.6435 28.1757 48.1652 28.189ZM61.0357 18.7867L38.9138 16.5514C38.6012 16.5198 38.3295 16.323 38.2021 16.0359L31.0842 0L55.3912 4.46451C55.6694 4.51557 55.9058 4.69812 56.0257 4.95433L61.9162 17.5454C62.204 18.1606 61.7115 18.855 61.0357 18.7867Z" fill="#F0F5F9"/>
<path d="M47.4585 24.3828C47.3562 24.1035 47.1976 23.8482 46.9925 23.6328C46.7874 23.4174 46.5402 23.2464 46.2663 23.1305V7.92188C46.265 7.48715 46.0917 7.07061 45.7843 6.76321C45.4769 6.45582 45.0604 6.28255 44.6257 6.28125H27.1257C26.691 6.28255 26.2744 6.45582 25.967 6.76321C25.6596 7.07061 25.4863 7.48715 25.485 7.92188V23.2508C24.8646 23.5328 24.2714 23.8715 23.7132 24.2625L21.996 25.4656L21.3671 24.5687C21.2836 24.4508 21.1572 24.3704 21.015 24.3448C20.8728 24.3192 20.7262 24.3505 20.6069 24.432L15.2311 28.1945C15.1128 28.279 15.0323 28.4064 15.0067 28.5495C14.9812 28.6926 15.0126 28.84 15.0944 28.9602L20.7436 37.0211C20.8264 37.1399 20.953 37.221 21.0955 37.2466C21.238 37.2722 21.3848 37.2403 21.5038 37.1578L26.8796 33.3953C26.9977 33.3107 27.078 33.1833 27.1036 33.0403C27.1291 32.8973 27.0978 32.7499 27.0163 32.6297L26.7046 32.1867C27.7598 31.4658 29.0563 31.1888 30.314 31.4156L31.2874 31.5797C32.5172 31.7981 33.7829 31.6887 34.9569 31.2625L46.1515 27.1883C46.4216 27.09 46.6697 26.9395 46.8816 26.7452C47.0934 26.551 47.265 26.317 47.3864 26.0564C47.5078 25.7959 47.5766 25.514 47.589 25.2268C47.6014 24.9396 47.557 24.6528 47.4585 24.3828ZM38.6101 7.375H44.6257C44.7707 7.375 44.9098 7.43262 45.0124 7.53518C45.1149 7.63774 45.1726 7.77683 45.1726 7.92188V9.5625H38.6101V7.375ZM34.2351 7.375H37.5163V12.0727L36.264 10.8148C36.1607 10.7124 36.0211 10.6549 35.8757 10.6549C35.7302 10.6549 35.5906 10.7124 35.4874 10.8148L34.2351 12.0727V7.375ZM26.5788 7.92188C26.5788 7.77683 26.6364 7.63774 26.739 7.53518C26.8415 7.43262 26.9806 7.375 27.1257 7.375H33.1413V9.5625H26.5788V7.92188ZM26.5788 10.6562H33.1413V13.3906C33.1409 13.4988 33.173 13.6046 33.2335 13.6943C33.2939 13.784 33.3799 13.8535 33.4804 13.8938C33.58 13.9356 33.6897 13.9471 33.7958 13.9266C33.9019 13.9062 33.9996 13.8548 34.0765 13.7789L35.8757 11.9742L37.6749 13.7789C37.7783 13.8809 37.9179 13.9379 38.0632 13.9375C38.1349 13.9394 38.2061 13.9244 38.271 13.8938C38.3714 13.8535 38.4574 13.784 38.5179 13.6943C38.5784 13.6046 38.6105 13.4988 38.6101 13.3906V10.6562H45.1726V22.9664C44.9973 22.9812 44.8246 23.018 44.6585 23.0758L42.7226 23.7812H38.878C38.5895 23.5349 38.2401 23.3706 37.8663 23.3055L32.3702 22.3375C30.5944 22.0234 28.7696 22.1321 27.0436 22.6547L26.9452 22.6875C26.8194 22.7203 26.6991 22.7695 26.5788 22.8133V10.6562ZM21.3233 35.9492L16.3085 28.7797L20.7874 25.6406L25.8022 32.8102L21.3233 35.9492ZM46.4851 25.3234C46.4513 25.5126 46.3683 25.6895 46.2445 25.8364C46.1207 25.9833 45.9603 26.0949 45.7796 26.1602L34.5851 30.2344C33.5912 30.5954 32.5198 30.6879 31.4788 30.5023L30.4999 30.3383C28.9574 30.0606 27.3676 30.4025 26.0757 31.2898L22.6249 26.357L24.3421 25.1594C25.228 24.5336 26.2084 24.0536 27.246 23.7375L27.3444 23.7102C28.9123 23.2345 30.5696 23.1315 32.1843 23.4094L37.6749 24.3773C37.962 24.4302 38.2171 24.5931 38.3858 24.8312C38.4815 24.972 38.5433 25.1329 38.5663 25.3016C38.5943 25.4547 38.5849 25.6122 38.539 25.7609C38.4635 26.0225 38.2937 26.2468 38.0623 26.3903C37.8309 26.5338 37.5545 26.5862 37.2866 26.5375L31.3749 25.493L31.189 26.5648L37.0952 27.6094C37.2229 27.6356 37.3531 27.6485 37.4835 27.6477C37.9543 27.6472 38.4126 27.4955 38.7907 27.2149C39.1688 26.9343 39.4467 26.5396 39.5835 26.0891L45.0304 24.1039C45.303 24.0054 45.6037 24.0192 45.8662 24.1422C46.1287 24.2653 46.3316 24.4876 46.4304 24.7602C46.5004 24.9392 46.5193 25.1342 46.4851 25.3234Z" fill="#FFD500"/>
</svg>
