<svg width="62" height="42" viewBox="0 0 62 42" fill="none" xmlns="http://www.w3.org/2000/svg">
<path d="M29.283 9.21855L25.6133 18.1309C25.4889 18.4331 25.2063 18.6408 24.8808 18.6694L6.10994 20.3189C5.64939 20.3593 5.29988 20.7511 5.31194 21.213L5.69367 35.9473C5.7042 36.3525 5.99161 36.6973 6.38823 36.7809L28.4864 41.4291C29.0266 41.5427 29.5757 41.599 30.1248 41.5977L30.1252 37.2279V9.3852C30.125 8.1689 29.7461 8.09394 29.283 9.21855ZM26.7134 36.6963L18.4177 35.3604V31.0122H26.7134V36.6963ZM23.0861 16.5514L0.96424 18.7867C0.28842 18.855 -0.204034 18.1606 0.0838809 17.5455L5.97439 4.95443C6.09423 4.69822 6.33058 4.51567 6.60877 4.46461L30.9158 0.000101252L23.7978 16.036C23.6703 16.323 23.3987 16.5198 23.0861 16.5514ZM55.8901 20.3189L37.1193 18.6695C36.7937 18.6409 36.5111 18.4332 36.3868 18.131L32.717 9.21865C32.2539 8.09394 31.8749 8.1689 31.8749 9.3852V37.2278L31.8753 41.5976C32.4243 41.599 32.9735 41.5426 33.5138 41.429L55.612 36.7808C56.0086 36.6973 56.296 36.3524 56.3064 35.9472L56.6882 21.213C56.7002 20.751 56.3505 20.3593 55.8901 20.3189ZM48.1652 28.189L47.1285 28.2177L47.1075 34.7425C47.1066 35.0299 46.8147 35.3047 46.4516 35.3569L44.7526 35.6013C44.3644 35.6571 44.0468 35.4582 44.0476 35.1563L44.0634 28.3028L42.8776 28.3356C42.301 28.3515 41.9362 27.8893 42.2297 27.5066L45.0498 23.8318C45.3169 23.4835 45.9726 23.5156 46.2301 23.8826L48.7056 27.4106C48.9402 27.7452 48.6435 28.1757 48.1652 28.189ZM61.0357 18.7867L38.9138 16.5514C38.6012 16.5198 38.3295 16.323 38.2021 16.0359L31.0842 0L55.3912 4.46451C55.6694 4.51557 55.9058 4.69812 56.0257 4.95433L61.9162 17.5454C62.204 18.1606 61.7115 18.855 61.0357 18.7867Z" fill="#F0F5F9"/>
<path d="M47.9061 20.5C47.9061 16.1488 46.1776 11.9758 43.1009 8.89903C40.0241 5.82226 35.8511 4.09375 31.4999 4.09375C27.1487 4.09375 22.9757 5.82226 19.8989 8.89903C16.8221 11.9758 15.0936 16.1488 15.0936 20.5C15.0916 22.422 15.4305 24.3291 16.0944 26.1328C15.4514 26.8345 15.0944 27.7514 15.0936 28.7031V33.0781C15.0948 34.0931 15.4985 35.0661 16.2161 35.7837C16.9338 36.5014 17.9068 36.9051 18.9218 36.9062H44.078C45.0929 36.9051 46.066 36.5014 46.7836 35.7837C47.5013 35.0661 47.905 34.0931 47.9061 33.0781V28.7031C47.9054 27.7514 47.5483 26.8345 46.9054 26.1328C47.5693 24.3291 47.9081 22.422 47.9061 20.5ZM44.078 35.8125H18.9218C18.1989 35.8109 17.506 35.5238 16.9939 35.0137C16.4817 34.5037 16.1919 33.8119 16.1874 33.0891L18.1944 34.6094C18.2896 34.6817 18.4058 34.7208 18.5253 34.7208C18.6448 34.7208 18.761 34.6817 18.8561 34.6094L21.4046 32.6734L23.953 34.6094C24.0482 34.6817 24.1644 34.7208 24.2839 34.7208C24.4034 34.7208 24.5196 34.6817 24.6147 34.6094L27.1686 32.6734L29.7225 34.6094C29.8177 34.6817 29.9339 34.7208 30.0534 34.7208C30.1729 34.7208 30.2891 34.6817 30.3843 34.6094L32.9327 32.6734L35.4866 34.6094C35.5823 34.6804 35.6983 34.7188 35.8175 34.7188C35.9366 34.7188 36.0526 34.6804 36.1483 34.6094L38.7022 32.6734L41.2561 34.6094C41.3513 34.6817 41.4675 34.7208 41.587 34.7208C41.7065 34.7208 41.8227 34.6817 41.9179 34.6094L44.4718 32.668L46.5444 34.2375C46.3252 34.707 45.9768 35.1045 45.5401 35.3834C45.1033 35.6623 44.5962 35.8111 44.078 35.8125ZM46.8124 33.0727L44.8054 31.5469C44.7102 31.4746 44.594 31.4354 44.4745 31.4354C44.355 31.4354 44.2388 31.4746 44.1436 31.5469L41.5843 33.4883L39.0304 31.5469C38.9352 31.4746 38.819 31.4354 38.6995 31.4354C38.58 31.4354 38.4638 31.4746 38.3686 31.5469L35.8202 33.4828L33.2663 31.5469C33.1711 31.4746 33.0549 31.4354 32.9354 31.4354C32.8159 31.4354 32.6997 31.4746 32.6046 31.5469L30.0507 33.4828L27.4968 31.5469C27.4016 31.4746 27.2854 31.4354 27.1659 31.4354C27.0464 31.4354 26.9302 31.4746 26.835 31.5469L24.2866 33.4828L21.7327 31.5469C21.6376 31.4746 21.5213 31.4354 21.4018 31.4354C21.2823 31.4354 21.1661 31.4746 21.071 31.5469L18.5225 33.4828L16.1874 31.7109V29.2555L18.1944 30.7812C18.2896 30.8535 18.4058 30.8927 18.5253 30.8927C18.6448 30.8927 18.761 30.8535 18.8561 30.7812L21.4046 28.8453L23.953 30.7812C24.0482 30.8535 24.1644 30.8927 24.2839 30.8927C24.4034 30.8927 24.5196 30.8535 24.6147 30.7812L27.1686 28.8453L29.7225 30.7812C29.8177 30.8535 29.9339 30.8927 30.0534 30.8927C30.1729 30.8927 30.2891 30.8535 30.3843 30.7812L32.9327 28.8453L35.4866 30.7812C35.5823 30.8523 35.6983 30.8906 35.8175 30.8906C35.9366 30.8906 36.0526 30.8523 36.1483 30.7812L38.7022 28.8453L41.2561 30.7812C41.3513 30.8535 41.4675 30.8927 41.587 30.8927C41.7065 30.8927 41.8227 30.8535 41.9179 30.7812L44.4718 28.8398L46.8124 30.6172V33.0727ZM46.8124 29.2445L44.8054 27.7188C44.7102 27.6465 44.594 27.6073 44.4745 27.6073C44.355 27.6073 44.2388 27.6465 44.1436 27.7188L41.5843 29.6602L39.0304 27.7188C38.9352 27.6465 38.819 27.6073 38.6995 27.6073C38.58 27.6073 38.4638 27.6465 38.3686 27.7188L35.8202 29.6547L33.2663 27.7188C33.1711 27.6465 33.0549 27.6073 32.9354 27.6073C32.8159 27.6073 32.6997 27.6465 32.6046 27.7188L30.0507 29.6547L27.4968 27.7188C27.4016 27.6465 27.2854 27.6073 27.1659 27.6073C27.0464 27.6073 26.9302 27.6465 26.835 27.7188L24.2866 29.6547L21.7327 27.7188C21.6376 27.6465 21.5213 27.6073 21.4018 27.6073C21.2823 27.6073 21.1661 27.6465 21.071 27.7188L18.5225 29.6547L16.3022 27.9703C16.4609 27.3967 16.8028 26.8907 17.2757 26.5294C17.7486 26.168 18.3266 25.9712 18.9218 25.9688H44.078C44.8032 25.9688 45.4987 26.2568 46.0115 26.7696C46.5243 27.2824 46.8124 27.9779 46.8124 28.7031V29.2445ZM27.2343 19.2914H27.2671C27.3753 19.2918 27.4811 19.2597 27.5708 19.1993C27.6605 19.1388 27.73 19.0528 27.7702 18.9523C27.8143 18.8479 27.8248 18.7323 27.8003 18.6216C27.7758 18.5109 27.7175 18.4105 27.6335 18.3344L24.3796 15.4305C24.9466 14.641 25.6394 13.9501 26.4304 13.3852L29.3343 16.6336C29.3868 16.6899 29.4503 16.7349 29.5208 16.766C29.5913 16.797 29.6674 16.8134 29.7444 16.8141C29.8187 16.813 29.892 16.797 29.96 16.767C30.028 16.7371 30.0894 16.6938 30.1404 16.6398C30.1913 16.5857 30.231 16.522 30.2569 16.4524C30.2828 16.3827 30.2945 16.3086 30.2913 16.2344L30.0507 11.8758C30.1874 11.8539 30.3296 11.8266 30.4718 11.8102C31.1547 11.7281 31.8451 11.7281 32.528 11.8102C32.6702 11.8266 32.8124 11.8539 32.9491 11.8758L32.7085 16.2344C32.7053 16.3086 32.7169 16.3827 32.7429 16.4524C32.7688 16.522 32.8084 16.5857 32.8594 16.6398C32.9104 16.6938 32.9717 16.7371 33.0397 16.767C33.1077 16.797 33.1811 16.813 33.2554 16.8141C33.3324 16.8134 33.4085 16.797 33.479 16.766C33.5495 16.7349 33.6129 16.6899 33.6655 16.6336L36.5694 13.3852C37.3604 13.9501 38.0532 14.641 38.6202 15.4305L35.3663 18.3344C35.2822 18.4105 35.2239 18.5109 35.1995 18.6216C35.175 18.7323 35.1855 18.8479 35.2296 18.9523C35.2698 19.0528 35.3393 19.1388 35.429 19.1993C35.5187 19.2597 35.6245 19.2918 35.7327 19.2914H35.7655L40.1186 19.0508C40.204 19.5292 40.2479 20.0141 40.2499 20.5C40.2492 20.9858 40.2071 21.4706 40.1241 21.9492L35.7655 21.7086C35.6523 21.7031 35.5401 21.7326 35.4443 21.7932C35.3484 21.8537 35.2736 21.9423 35.2299 22.047C35.1863 22.1516 35.176 22.2671 35.2004 22.3778C35.2248 22.4885 35.2827 22.589 35.3663 22.6656L37.8382 24.875H34.1194L33.66 24.3664C33.5841 24.2824 33.4839 24.224 33.3733 24.1994C33.2628 24.1748 33.1473 24.1851 33.0428 24.2289C32.9384 24.2727 32.8501 24.3479 32.7902 24.444C32.7303 24.5402 32.7018 24.6525 32.7085 24.7656L32.7139 24.875H30.2858L30.2913 24.7656C30.298 24.6525 30.2695 24.5402 30.2096 24.444C30.1497 24.3479 30.0614 24.2727 29.957 24.2289C29.8525 24.1851 29.737 24.1748 29.6264 24.1994C29.5159 24.224 29.4157 24.2824 29.3397 24.3664L28.8804 24.875H25.1616L27.6335 22.6656C27.7175 22.5895 27.7758 22.4891 27.8003 22.3784C27.8248 22.2677 27.8143 22.1521 27.7702 22.0477C27.7263 21.9431 27.6513 21.8546 27.5555 21.794C27.4597 21.7333 27.3475 21.7035 27.2343 21.7086L22.8757 21.9492C22.7926 21.4706 22.7506 20.9858 22.7499 20.5C22.7519 20.0141 22.7958 19.5292 22.8811 19.0508L27.2343 19.2914ZM23.1327 17.968C23.2496 17.5816 23.3921 17.2034 23.5593 16.8359C23.6304 16.6773 23.7124 16.5242 23.7944 16.3711L25.7413 18.1102L23.1327 17.968ZM27.371 12.7945C27.8804 12.5224 28.4153 12.3008 28.9679 12.1328L29.11 14.7414L27.371 12.7945ZM33.8897 14.7414L34.0319 12.1328C34.5845 12.3008 35.1194 12.5224 35.6288 12.7945L33.8897 14.7414ZM39.2054 16.3711C39.2874 16.5242 39.3694 16.6773 39.4405 16.8359C39.6077 17.2034 39.7502 17.5816 39.8671 17.968L37.2585 18.1102L39.2054 16.3711ZM39.8725 23.032C39.7051 23.5856 39.4815 24.1207 39.2054 24.6289L37.2585 22.8898L39.8725 23.032ZM23.7944 24.6289C23.5183 24.1207 23.2947 23.5856 23.1272 23.032L25.7413 22.8898L23.7944 24.6289ZM46.0085 25.4C45.4225 25.0579 44.7565 24.8768 44.078 24.875H40.31C40.9874 23.5159 41.3412 22.0185 41.3436 20.5C41.3444 19.8572 41.2803 19.2159 41.1522 18.5859C41.0056 17.8227 40.765 17.0806 40.4358 16.3766C39.7254 14.8525 38.6388 13.5342 37.2783 12.5459C35.9179 11.5577 34.3283 10.9318 32.6593 10.7273C31.8891 10.6344 31.1106 10.6344 30.3405 10.7273C28.6715 10.9318 27.0819 11.5577 25.7214 12.5459C24.361 13.5342 23.2744 14.8525 22.5639 16.3766C22.2356 17.079 21.995 17.8192 21.8475 18.5805C21.7197 19.2123 21.6556 19.8554 21.6561 20.5C21.6586 22.0185 22.0124 23.5159 22.6897 24.875H18.9218C18.2432 24.8768 17.5773 25.0579 16.9913 25.4C16.2812 23.296 16.0373 21.0627 16.2764 18.855C16.5155 16.6473 17.2319 14.5181 18.3759 12.6148C19.52 10.7116 21.0643 9.08001 22.9018 7.83312C24.7392 6.58623 26.8259 5.7539 29.0171 5.39386C31.2083 5.03381 33.4517 5.15466 35.5915 5.74802C37.7314 6.34138 39.7166 7.39306 41.4095 8.83013C43.1023 10.2672 44.4624 12.0553 45.3954 14.0704C46.3283 16.0855 46.8118 18.2794 46.8124 20.5C46.8146 22.1663 46.543 23.8217 46.0085 25.4Z" fill="#FFD500"/>
<path d="M31.5 23.2344C32.0408 23.2344 32.5695 23.074 33.0191 22.7735C33.4688 22.4731 33.8193 22.046 34.0262 21.5464C34.2332 21.0468 34.2874 20.497 34.1818 19.9665C34.0763 19.4361 33.8159 18.9489 33.4335 18.5665C33.0511 18.1841 32.5639 17.9237 32.0335 17.8182C31.503 17.7127 30.9532 17.7668 30.4536 17.9738C29.954 18.1807 29.5269 18.5312 29.2265 18.9809C28.926 19.4305 28.7656 19.9592 28.7656 20.5C28.7665 21.2249 29.0549 21.9199 29.5675 22.4325C30.0801 22.9451 30.7751 23.2335 31.5 23.2344ZM31.5 18.8594C31.8245 18.8594 32.1417 18.9556 32.4115 19.1359C32.6813 19.3161 32.8916 19.5724 33.0158 19.8722C33.1399 20.1719 33.1724 20.5018 33.1091 20.8201C33.0458 21.1383 32.8896 21.4306 32.6601 21.6601C32.4307 21.8895 32.1383 22.0458 31.8201 22.1091C31.5018 22.1724 31.172 22.1399 30.8722 22.0157C30.5724 21.8916 30.3161 21.6813 30.1359 21.4115C29.9556 21.1417 29.8594 20.8245 29.8594 20.5C29.8594 20.0649 30.0322 19.6476 30.3399 19.3399C30.6476 19.0322 31.0649 18.8594 31.5 18.8594Z" fill="#FFD500"/>
</svg>
