<svg width="62" height="42" viewBox="0 0 62 42" fill="none" xmlns="http://www.w3.org/2000/svg">
<path d="M29.283 9.21855L25.6133 18.1309C25.4889 18.4331 25.2063 18.6408 24.8808 18.6694L6.10994 20.3189C5.64939 20.3593 5.29988 20.7511 5.31194 21.213L5.69367 35.9473C5.7042 36.3525 5.99161 36.6973 6.38823 36.7809L28.4864 41.4291C29.0266 41.5427 29.5757 41.599 30.1248 41.5977L30.1252 37.2279V9.3852C30.125 8.1689 29.7461 8.09394 29.283 9.21855ZM26.7134 36.6963L18.4177 35.3604V31.0122H26.7134V36.6963ZM23.0861 16.5514L0.96424 18.7867C0.28842 18.855 -0.204034 18.1606 0.0838809 17.5455L5.97439 4.95443C6.09423 4.69822 6.33058 4.51567 6.60877 4.46461L30.9158 0.000101252L23.7978 16.036C23.6703 16.323 23.3987 16.5198 23.0861 16.5514ZM55.8901 20.3189L37.1193 18.6695C36.7937 18.6409 36.5111 18.4332 36.3868 18.131L32.717 9.21865C32.2539 8.09394 31.8749 8.1689 31.8749 9.3852V37.2278L31.8753 41.5976C32.4243 41.599 32.9735 41.5426 33.5138 41.429L55.612 36.7808C56.0086 36.6973 56.296 36.3524 56.3064 35.9472L56.6882 21.213C56.7002 20.751 56.3505 20.3593 55.8901 20.3189ZM48.1652 28.189L47.1285 28.2177L47.1075 34.7425C47.1066 35.0299 46.8147 35.3047 46.4516 35.3569L44.7526 35.6013C44.3644 35.6571 44.0468 35.4582 44.0476 35.1563L44.0634 28.3028L42.8776 28.3356C42.301 28.3515 41.9362 27.8893 42.2297 27.5066L45.0498 23.8318C45.3169 23.4835 45.9726 23.5156 46.2301 23.8826L48.7056 27.4106C48.9402 27.7452 48.6435 28.1757 48.1652 28.189ZM61.0357 18.7867L38.9138 16.5514C38.6012 16.5198 38.3295 16.323 38.2021 16.0359L31.0842 0L55.3912 4.46451C55.6694 4.51557 55.9058 4.69812 56.0257 4.95433L61.9162 17.5454C62.204 18.1606 61.7115 18.855 61.0357 18.7867Z" fill="#F0F5F9"/>
<path d="M33.1556 12.9551H36.8115C37.6478 12.9555 38.4501 12.6239 39.042 12.0332C39.6339 11.4424 39.967 10.6408 39.9682 9.80449C39.9681 9.74197 39.9556 9.68009 39.9314 9.62242C39.9073 9.56476 39.8719 9.51246 39.8274 9.46853C39.783 9.4246 39.7302 9.38993 39.6722 9.3665C39.6143 9.34308 39.5522 9.33137 39.4897 9.33206H34.0141C33.657 9.33423 33.315 9.47676 33.0621 9.72887C32.8091 9.98097 32.6655 10.3224 32.6621 10.6796V12.4991C32.6621 12.7637 32.8913 12.9551 33.1556 12.9551ZM33.6191 10.6796C33.6222 10.5762 33.665 10.4779 33.7386 10.4052C33.8122 10.3325 33.9109 10.2909 34.0143 10.2891H38.9588C38.74 11.3145 37.8601 11.9981 36.8115 11.9981H33.6191V10.6796Z" fill="#FFD500"/>
<path d="M21.454 15.1342C21.543 15.2232 21.6635 15.2735 21.7893 15.2743C21.9152 15.2751 22.0363 15.2263 22.1264 15.1384L22.2982 14.9709L22.8451 15.5565L21.6443 16.7217C21.4326 16.9268 21.2641 17.1721 21.1487 17.4433C21.0332 17.7145 20.9732 18.0061 20.9722 18.3008V31.8052C20.9744 32.8432 21.388 33.8381 22.1224 34.5717C22.8569 35.3053 23.8522 35.7178 24.8902 35.7188H39.4892C40.5259 35.7172 41.5195 35.3042 42.2518 34.5703C42.984 33.8364 43.3949 32.8419 43.3941 31.8052V9.47729C43.3947 9.18944 43.3387 8.90429 43.2291 8.63811C43.1195 8.37194 42.9585 8.12997 42.7553 7.92604C42.5522 7.7221 42.3109 7.56018 42.0451 7.44955C41.7794 7.33891 41.4944 7.28173 41.2066 7.28125H32.2964C32.0097 7.28221 31.7261 7.3399 31.4619 7.45099C31.1977 7.56209 30.9581 7.72439 30.757 7.92855C30.5558 8.1327 30.397 8.37466 30.2898 8.64048C30.1826 8.90629 30.1291 9.1907 30.1324 9.47729V11.2461H28.1841C27.6148 11.2424 27.0666 11.4616 26.6569 11.8569L25.7067 12.777L25.1564 12.1856L25.5172 11.8329C25.5625 11.7886 25.5986 11.7358 25.6234 11.6774C25.6482 11.6191 25.6612 11.5564 25.6616 11.493C25.662 11.4296 25.6498 11.3667 25.6258 11.3081C25.6017 11.2494 25.5663 11.1961 25.5215 11.1513L23.8043 9.43361C23.7153 9.3446 23.5948 9.29423 23.4689 9.29342C23.3431 9.29262 23.2219 9.34144 23.1318 9.42931L19.7408 12.7357C19.6954 12.7799 19.6593 12.8327 19.6345 12.891C19.6097 12.9493 19.5967 13.012 19.5963 13.0753C19.5959 13.1387 19.6081 13.2015 19.6322 13.2601C19.6562 13.3187 19.6917 13.3719 19.7365 13.4167L21.454 15.1342ZM27.3233 12.544C27.5546 12.3222 27.8636 12.1999 28.1841 12.2031H30.5785C30.7104 12.2011 30.8365 12.149 30.9313 12.0575C31.0262 11.9659 31.0827 11.8418 31.0894 11.7101V9.47729C31.0894 8.79411 31.6132 8.23828 32.2964 8.23828H41.2066C41.3688 8.23861 41.5294 8.27095 41.679 8.33344C41.8287 8.39593 41.9646 8.48734 42.0789 8.60244C42.1932 8.71754 42.2837 8.85406 42.3452 9.00418C42.4066 9.15431 42.4378 9.31508 42.4371 9.47729V31.8052C42.4381 32.5881 42.1282 33.3395 41.5754 33.8939C41.0226 34.4483 40.2721 34.7605 39.4892 34.7617H24.8902C24.1059 34.761 23.3539 34.4494 22.7989 33.8952C22.2439 33.3411 21.9311 32.5895 21.9292 31.8052V18.3008C21.9301 18.1347 21.9643 17.9706 22.0297 17.818C22.0952 17.6654 22.1907 17.5275 22.3104 17.4125L27.3233 12.544ZM23.5311 14.8892L22.9836 14.3026L24.4713 12.8521L25.0208 13.4407L23.5311 14.8892ZM23.4617 10.4443L24.5024 11.4854L21.7966 14.1233L20.7559 13.0826L23.4617 10.4443Z" fill="#FFD500"/>
<path d="M25.0778 30.7326C24.988 30.8223 24.9376 30.9441 24.9376 31.071C24.9376 31.1979 24.988 31.3196 25.0778 31.4094C25.1675 31.4991 25.2893 31.5495 25.4162 31.5495C25.5431 31.5495 25.6648 31.4991 25.7545 31.4094L28.2804 28.8835H36.0889L38.6493 31.4115C38.6939 31.4562 38.7469 31.4916 38.8053 31.5158C38.8636 31.5399 38.9262 31.5522 38.9893 31.5521C39.0525 31.5519 39.115 31.5393 39.1732 31.5148C39.2314 31.4904 39.2843 31.4547 39.3286 31.4098C39.373 31.3648 39.408 31.3116 39.4317 31.253C39.4554 31.1945 39.4673 31.1318 39.4666 31.0687C39.466 31.0055 39.4528 30.9431 39.428 30.8851C39.4031 30.827 39.367 30.7745 39.3217 30.7305L36.7638 28.2049V20.4001L39.3239 17.8401C39.4136 17.7504 39.464 17.6286 39.464 17.5017C39.464 17.3748 39.4136 17.2531 39.3239 17.1633C39.2341 17.0736 39.1124 17.0232 38.9855 17.0232C38.8586 17.0232 38.7369 17.0736 38.6471 17.1633L36.0871 19.7233H28.2822L25.7567 17.1655C25.7126 17.1202 25.6601 17.0841 25.6021 17.0592C25.544 17.0343 25.4816 17.0212 25.4185 17.0205C25.3553 17.0199 25.2927 17.0317 25.2341 17.0554C25.1756 17.0791 25.1223 17.1141 25.0774 17.1585C25.0324 17.2029 24.9967 17.2557 24.9723 17.3139C24.9479 17.3722 24.9352 17.4347 24.9351 17.4978C24.9349 17.561 24.9472 17.6235 24.9714 17.6819C24.9955 17.7402 25.031 17.7932 25.0757 17.8378L27.6037 20.3982V28.2067L25.0778 30.7326ZM28.5607 20.6804H35.8068V27.9264H28.5607V20.6804Z" fill="#FFD500"/>
<path d="M33.8242 22.1836H30.543C30.4161 22.1836 30.2943 22.234 30.2046 22.3237C30.1149 22.4135 30.0645 22.5352 30.0645 22.6621V25.9434C30.0645 26.0703 30.1149 26.192 30.2046 26.2817C30.2943 26.3715 30.4161 26.4219 30.543 26.4219H33.8242C33.9511 26.4219 34.0728 26.3715 34.1626 26.2817C34.2523 26.192 34.3027 26.0703 34.3027 25.9434V22.6621C34.3027 22.5352 34.2523 22.4135 34.1626 22.3237C34.0728 22.234 33.9511 22.1836 33.8242 22.1836ZM33.3457 25.4648H31.0215V23.1406H33.3457V25.4648Z" fill="#FFD500"/>
</svg>
