<svg width="62" height="42" viewBox="0 0 62 42" fill="none" xmlns="http://www.w3.org/2000/svg">
<path d="M29.283 9.21855L25.6133 18.1309C25.4889 18.4331 25.2063 18.6408 24.8808 18.6694L6.10994 20.3189C5.64939 20.3593 5.29988 20.7511 5.31194 21.213L5.69367 35.9473C5.7042 36.3525 5.99161 36.6973 6.38823 36.7809L28.4864 41.4291C29.0266 41.5427 29.5757 41.599 30.1248 41.5977L30.1252 37.2279V9.3852C30.125 8.1689 29.7461 8.09394 29.283 9.21855ZM26.7134 36.6963L18.4177 35.3604V31.0122H26.7134V36.6963ZM23.0861 16.5514L0.96424 18.7867C0.28842 18.855 -0.204034 18.1606 0.0838809 17.5455L5.97439 4.95443C6.09423 4.69822 6.33058 4.51567 6.60877 4.46461L30.9158 0.000101252L23.7978 16.036C23.6703 16.323 23.3987 16.5198 23.0861 16.5514ZM55.8901 20.3189L37.1193 18.6695C36.7937 18.6409 36.5111 18.4332 36.3868 18.131L32.717 9.21865C32.2539 8.09394 31.8749 8.1689 31.8749 9.3852V37.2278L31.8753 41.5976C32.4243 41.599 32.9735 41.5426 33.5138 41.429L55.612 36.7808C56.0086 36.6973 56.296 36.3524 56.3064 35.9472L56.6882 21.213C56.7002 20.751 56.3505 20.3593 55.8901 20.3189ZM48.1652 28.189L47.1285 28.2177L47.1075 34.7425C47.1066 35.0299 46.8147 35.3047 46.4516 35.3569L44.7526 35.6013C44.3644 35.6571 44.0468 35.4582 44.0476 35.1563L44.0634 28.3028L42.8776 28.3356C42.301 28.3515 41.9362 27.8893 42.2297 27.5066L45.0498 23.8318C45.3169 23.4835 45.9726 23.5156 46.2301 23.8826L48.7056 27.4106C48.9402 27.7452 48.6435 28.1757 48.1652 28.189ZM61.0357 18.7867L38.9138 16.5514C38.6012 16.5198 38.3295 16.323 38.2021 16.0359L31.0842 0L55.3912 4.46451C55.6694 4.51557 55.9058 4.69812 56.0257 4.95433L61.9162 17.5454C62.204 18.1606 61.7115 18.855 61.0357 18.7867Z" fill="#F0F5F9"/>
<g clip-path="url(#clip0)">
<path d="M37.0833 22.5833C37.0833 22.9055 37.3445 23.1667 37.6667 23.1667L39.4167 23.1667C39.7388 23.1667 40 22.9055 40 22.5833C40 22.2612 39.7388 22 39.4167 22L37.6667 22C37.3445 22 37.0833 22.2612 37.0833 22.5833Z" fill="#FFD500"/>
<path fill-rule="evenodd" clip-rule="evenodd" d="M44.9148 20.1595L43.7481 20.1595L42.5814 20.1595L41.4148 20.1595L41.2608 20.1595C40.3569 18.8562 38.7773 18.1979 37.2154 18.4736C35.9151 16.601 33.7779 15.4867 31.4981 15.4928L16.3314 15.4928C15.0428 15.4928 13.9981 16.5375 13.9981 17.8261L13.9981 27.1595C13.9981 28.4481 15.0428 29.4928 16.3314 29.4928L31.4981 29.4928C33.7784 29.5016 35.9166 28.3866 37.2148 26.512C38.0464 26.6621 38.9041 26.5447 39.6648 26.1766L39.6648 26.8678L38.0314 28.0928C37.5313 28.4679 37.2692 29.0814 37.344 29.7021C37.4188 30.3229 37.8191 30.8565 38.394 31.1021C38.969 31.3477 39.6313 31.2679 40.1314 30.8928L42.4648 29.1428C42.9034 28.8106 43.1622 28.293 43.1648 27.7428L43.1648 25.2864L44.9883 29.3872C45.1764 29.8063 45.5929 30.076 46.0523 30.0762L47.8314 30.0762C48.194 30.0758 48.536 29.9074 48.7572 29.6201C48.9783 29.3327 49.0538 28.9591 48.9614 28.6085L46.936 21.0222C46.8013 20.5104 46.3365 20.1551 45.8073 20.1595L44.9148 20.1595ZM37.9148 25.4095C39.5256 25.4095 40.8314 24.1036 40.8314 22.4928C40.8295 20.8828 39.5248 19.5781 37.9148 19.5761C36.304 19.5761 34.9981 20.882 34.9981 22.4928C34.9981 24.1036 36.304 25.4095 37.9148 25.4095ZM20.9981 28.3261L27.9981 28.3261L27.9981 16.6595L20.9981 16.6595L20.9981 28.3261ZM16.3314 16.6595C15.6871 16.6595 15.1648 17.1818 15.1648 17.8261L15.1648 27.1595C15.1648 27.8038 15.6871 28.3261 16.3314 28.3261L19.8314 28.3261L19.8314 16.6595L16.3314 16.6595ZM29.1648 28.3262L31.4981 28.3262C33.2761 28.3316 34.9584 27.521 36.0621 26.127C34.6951 25.431 33.8343 24.0268 33.8343 22.4928C33.8343 20.9588 34.6951 19.5546 36.0621 18.8586C34.9596 17.4632 33.2766 16.6522 31.4981 16.6595L29.1648 16.6594L29.1648 28.3262ZM38.6148 29.8428C38.8081 30.1006 39.1737 30.1528 39.4314 29.9595L41.7648 28.2095C41.9106 28.0984 41.9968 27.9261 41.9981 27.7428L41.9981 24.8262L41.2608 24.8262C41.1319 25.0105 40.9884 25.1842 40.8314 25.3453L40.8314 27.1595C40.8314 27.3431 40.745 27.516 40.5981 27.6261L38.7314 29.0262C38.482 29.2243 38.4308 29.5828 38.6148 29.8428ZM46.0546 28.9095L47.8314 28.9095L45.8067 21.3261L41.8231 21.3261C42.0527 22.087 42.0527 22.8986 41.8231 23.6595L43.3398 23.6595C43.571 23.6603 43.7799 23.7976 43.8724 24.0095L46.0546 28.9095Z" fill="#FFD500"/>
</g>
<defs>
<clipPath id="clip0">
<rect width="35" height="35" fill="white" transform="translate(49 4) rotate(90)"/>
</clipPath>
</defs>
</svg>
