<svg width="62" height="42" viewBox="0 0 62 42" fill="none" xmlns="http://www.w3.org/2000/svg">
<path d="M29.283 9.21855L25.6133 18.1309C25.4889 18.4331 25.2063 18.6408 24.8808 18.6694L6.10994 20.3189C5.64939 20.3593 5.29988 20.7511 5.31194 21.213L5.69367 35.9473C5.7042 36.3525 5.99161 36.6973 6.38823 36.7809L28.4864 41.4291C29.0266 41.5427 29.5757 41.599 30.1248 41.5977L30.1252 37.2279V9.3852C30.125 8.1689 29.7461 8.09394 29.283 9.21855ZM26.7134 36.6963L18.4177 35.3604V31.0122H26.7134V36.6963ZM23.0861 16.5514L0.96424 18.7867C0.28842 18.855 -0.204034 18.1606 0.0838809 17.5455L5.97439 4.95443C6.09423 4.69822 6.33058 4.51567 6.60877 4.46461L30.9158 0.000101252L23.7978 16.036C23.6703 16.323 23.3987 16.5198 23.0861 16.5514ZM55.8901 20.3189L37.1193 18.6695C36.7937 18.6409 36.5111 18.4332 36.3868 18.131L32.717 9.21865C32.2539 8.09394 31.8749 8.1689 31.8749 9.3852V37.2278L31.8753 41.5976C32.4243 41.599 32.9735 41.5426 33.5138 41.429L55.612 36.7808C56.0086 36.6973 56.296 36.3524 56.3064 35.9472L56.6882 21.213C56.7002 20.751 56.3505 20.3593 55.8901 20.3189ZM48.1652 28.189L47.1285 28.2177L47.1075 34.7425C47.1066 35.0299 46.8147 35.3047 46.4516 35.3569L44.7526 35.6013C44.3644 35.6571 44.0468 35.4582 44.0476 35.1563L44.0634 28.3028L42.8776 28.3356C42.301 28.3515 41.9362 27.8893 42.2297 27.5066L45.0498 23.8318C45.3169 23.4835 45.9726 23.5156 46.2301 23.8826L48.7056 27.4106C48.9402 27.7452 48.6435 28.1757 48.1652 28.189ZM61.0357 18.7867L38.9138 16.5514C38.6012 16.5198 38.3295 16.323 38.2021 16.0359L31.0842 0L55.3912 4.46451C55.6694 4.51557 55.9058 4.69812 56.0257 4.95433L61.9162 17.5454C62.204 18.1606 61.7115 18.855 61.0357 18.7867Z" fill="#F0F5F9"/>
<path d="M47.3594 11.2031H44.625V10.6562C44.625 10.0761 44.3945 9.51969 43.9843 9.10945C43.5741 8.69922 43.0177 8.46875 42.4375 8.46875C41.8573 8.46875 41.3009 8.69922 40.8907 9.10945C40.4805 9.51969 40.25 10.0761 40.25 10.6562V11.2031H39.1562V6.28125C39.1556 5.70129 38.9249 5.14527 38.5148 4.73517C38.1047 4.32508 37.5487 4.0944 36.9688 4.09375H26.0312C25.4513 4.0944 24.8953 4.32508 24.4852 4.73517C24.0751 5.14527 23.8444 5.70129 23.8438 6.28125V11.2031H22.75V10.6562C22.75 10.0761 22.5195 9.51969 22.1093 9.10945C21.6991 8.69922 21.1427 8.46875 20.5625 8.46875C19.9823 8.46875 19.4259 8.69922 19.0157 9.10945C18.6055 9.51969 18.375 10.0761 18.375 10.6562V11.2031H15.6406C15.4956 11.2031 15.3565 11.2607 15.2539 11.3633C15.1514 11.4659 15.0938 11.605 15.0938 11.75V13.9375C15.0938 14.0825 15.1514 14.2216 15.2539 14.3242C15.3565 14.4268 15.4956 14.4844 15.6406 14.4844H16.1875V33.0781H15.6406C15.4956 33.0781 15.3565 33.1357 15.2539 33.2383C15.1514 33.3409 15.0938 33.48 15.0938 33.625V36.3594C15.0938 36.5044 15.1514 36.6435 15.2539 36.7461C15.3565 36.8486 15.4956 36.9062 15.6406 36.9062H47.3594C47.5044 36.9062 47.6435 36.8486 47.7461 36.7461C47.8486 36.6435 47.9062 36.5044 47.9062 36.3594V33.625C47.9062 33.48 47.8486 33.3409 47.7461 33.2383C47.6435 33.1357 47.5044 33.0781 47.3594 33.0781H46.8125V14.4844H47.3594C47.5044 14.4844 47.6435 14.4268 47.7461 14.3242C47.8486 14.2216 47.9062 14.0825 47.9062 13.9375V11.75C47.9062 11.605 47.8486 11.4659 47.7461 11.3633C47.6435 11.2607 47.5044 11.2031 47.3594 11.2031ZM41.3438 10.6562C41.3438 10.3662 41.459 10.088 41.6641 9.88285C41.8692 9.67773 42.1474 9.5625 42.4375 9.5625C42.7276 9.5625 43.0058 9.67773 43.2109 9.88285C43.416 10.088 43.5312 10.3662 43.5312 10.6562V11.2031H41.3438V10.6562ZM27.125 11.2031V9.01562H35.875V11.2031H27.125ZM36.9688 9.01562H38.0625V11.2031H36.9688V9.01562ZM24.9375 6.28125C24.9378 5.99127 25.0532 5.71328 25.2582 5.50823C25.4633 5.30319 25.7413 5.18784 26.0312 5.1875H36.9688C37.2587 5.18784 37.5367 5.30319 37.7418 5.50823C37.9468 5.71328 38.0622 5.99127 38.0625 6.28125V7.92188H24.9375V6.28125ZM24.9375 9.01562H26.0312V11.2031H24.9375V9.01562ZM19.4688 10.6562C19.4688 10.3662 19.584 10.088 19.7891 9.88285C19.9942 9.67773 20.2724 9.5625 20.5625 9.5625C20.8526 9.5625 21.1308 9.67773 21.3359 9.88285C21.541 10.088 21.6562 10.3662 21.6562 10.6562V11.2031H19.4688V10.6562ZM46.8125 35.8125H16.1875V34.1719H46.8125V35.8125ZM17.2812 33.0781V31.4375H45.7188V33.0781H17.2812ZM45.7188 30.3438H17.2812V14.4844H45.7188V30.3438ZM46.8125 13.3906H16.1875V12.2969H46.8125V13.3906Z" fill="#FFD500"/>
<path d="M19.4688 16.125H22.75V17.2188H19.4688V16.125Z" fill="#FFD500"/>
<path d="M41.8906 18.8594H42.9844V17.7656H44.0781V16.6719H42.9844V15.5781H41.8906V16.6719H40.7969V17.7656H41.8906V18.8594Z" fill="#FFD500"/>
<path d="M22.2185 25.2421C22.1924 25.3988 22.2007 25.5592 22.2429 25.7124C22.2851 25.8655 22.3601 26.0076 22.4628 26.1288C22.5654 26.25 22.6932 26.3474 22.8373 26.4142C22.9814 26.481 23.1384 26.5156 23.2972 26.5156H25.0318C25.1449 26.8353 25.3544 27.1121 25.6314 27.3079C25.9083 27.5036 26.2392 27.6087 26.5783 27.6087C26.9175 27.6087 27.2483 27.5036 27.5252 27.3079C27.8022 27.1121 28.0117 26.8353 28.1249 26.5156H37.0631C37.1763 26.8353 37.3858 27.1121 37.6628 27.3079C37.9397 27.5036 38.2705 27.6087 38.6097 27.6087C38.9489 27.6087 39.2797 27.5036 39.5566 27.3079C39.8336 27.1121 40.0431 26.8353 40.1563 26.5156H41.891C42.036 26.5156 42.1751 26.458 42.2777 26.3554C42.3802 26.2529 42.4378 26.1138 42.4378 25.9687V24.3281C42.4372 23.7482 42.2065 23.1921 41.7964 22.782C41.3863 22.372 40.8303 22.1413 40.2503 22.1406H36.7319L35.589 20.2361C35.4366 19.9835 35.2217 19.7745 34.965 19.6292C34.7084 19.4839 34.4186 19.4071 34.1236 19.4062H28.6448C28.4207 19.4069 28.2005 19.4653 28.0054 19.5757C27.8103 19.6862 27.647 19.845 27.5311 20.0369L26.2688 22.1406H23.7199C23.4446 22.1399 23.1781 22.2371 22.9681 22.415C22.758 22.5929 22.6182 22.8397 22.5735 23.1113L22.2185 25.2421ZM26.5785 26.5156C26.4703 26.5156 26.3646 26.4836 26.2746 26.4235C26.1847 26.3634 26.1146 26.278 26.0732 26.178C26.0318 26.0781 26.021 25.9681 26.0421 25.8621C26.0632 25.756 26.1153 25.6585 26.1918 25.582C26.2682 25.5056 26.3657 25.4535 26.4718 25.4324C26.5778 25.4113 26.6878 25.4221 26.7877 25.4635C26.8877 25.5049 26.9731 25.575 27.0332 25.6649C27.0933 25.7549 27.1253 25.8606 27.1253 25.9687C27.1252 26.1137 27.0675 26.2527 26.965 26.3553C26.8624 26.4578 26.7234 26.5155 26.5785 26.5156ZM30.9535 23.2344V25.4219H28.125C28.0328 25.1627 27.8771 24.9307 27.6722 24.7472V23.2344H30.9535ZM32.0472 23.2344H35.8753V25.4219H32.0472V23.2344ZM38.6097 26.5156C38.5015 26.5156 38.3958 26.4836 38.3059 26.4235C38.2159 26.3634 38.1458 26.278 38.1045 26.178C38.0631 26.0781 38.0522 25.9681 38.0733 25.8621C38.0944 25.756 38.1465 25.6585 38.223 25.582C38.2995 25.5056 38.3969 25.4535 38.503 25.4324C38.6091 25.4113 38.7191 25.4221 38.819 25.4635C38.9189 25.5049 39.0043 25.575 39.0644 25.6649C39.1245 25.7549 39.1566 25.8606 39.1566 25.9687C39.1564 26.1137 39.0987 26.2527 38.9962 26.3553C38.8937 26.4578 38.7547 26.5155 38.6097 26.5156ZM41.3441 24.3281V25.4219H40.1563C40.0431 25.1022 39.8336 24.8254 39.5566 24.6296C39.2797 24.4339 38.9489 24.3288 38.6097 24.3288C38.2705 24.3288 37.9397 24.4339 37.6628 24.6296C37.3858 24.8254 37.1763 25.1022 37.0631 25.4219H36.9691V23.2344H40.2503C40.5403 23.2347 40.8183 23.3501 41.0233 23.5551C41.2284 23.7601 41.3437 24.0381 41.3441 24.3281ZM34.1236 20.5C34.2298 20.5003 34.3341 20.5279 34.4265 20.5803C34.5189 20.6326 34.5963 20.7078 34.6511 20.7987L35.4563 22.1406H32.0472V20.5H34.1236ZM28.469 20.5995C28.4873 20.5692 28.5131 20.5442 28.5439 20.5268C28.5747 20.5093 28.6094 20.5001 28.6448 20.5H30.9535V22.1406H27.5444L28.469 20.5995ZM23.6524 23.2915C23.6551 23.2755 23.6633 23.261 23.6756 23.2506C23.688 23.2401 23.7037 23.2344 23.7199 23.2344H26.5785V24.3281C26.2393 24.3286 25.9086 24.4339 25.6317 24.6297C25.3548 24.8256 25.1453 25.1023 25.0319 25.4219H23.2972L23.6524 23.2915Z" fill="#FFD500"/>
</svg>
