<svg width="62" height="42" viewBox="0 0 62 42" fill="none" xmlns="http://www.w3.org/2000/svg">
<path d="M29.283 9.21855L25.6133 18.1309C25.4889 18.4331 25.2063 18.6408 24.8808 18.6694L6.10994 20.3189C5.64939 20.3593 5.29988 20.7511 5.31194 21.213L5.69367 35.9473C5.7042 36.3525 5.99161 36.6973 6.38823 36.7809L28.4864 41.4291C29.0266 41.5427 29.5757 41.599 30.1248 41.5977L30.1252 37.2279V9.3852C30.125 8.1689 29.7461 8.09394 29.283 9.21855ZM26.7134 36.6963L18.4177 35.3604V31.0122H26.7134V36.6963ZM23.0861 16.5514L0.96424 18.7867C0.28842 18.855 -0.204034 18.1606 0.0838809 17.5455L5.97439 4.95443C6.09423 4.69822 6.33058 4.51567 6.60877 4.46461L30.9158 0.000101252L23.7978 16.036C23.6703 16.323 23.3987 16.5198 23.0861 16.5514ZM55.8901 20.3189L37.1193 18.6695C36.7937 18.6409 36.5111 18.4332 36.3868 18.131L32.717 9.21865C32.2539 8.09394 31.8749 8.1689 31.8749 9.3852V37.2278L31.8753 41.5976C32.4243 41.599 32.9735 41.5426 33.5138 41.429L55.612 36.7808C56.0086 36.6973 56.296 36.3524 56.3064 35.9472L56.6882 21.213C56.7002 20.751 56.3505 20.3593 55.8901 20.3189ZM48.1652 28.189L47.1285 28.2177L47.1075 34.7425C47.1066 35.0299 46.8147 35.3047 46.4516 35.3569L44.7526 35.6013C44.3644 35.6571 44.0468 35.4582 44.0476 35.1563L44.0634 28.3028L42.8776 28.3356C42.301 28.3515 41.9362 27.8893 42.2297 27.5066L45.0498 23.8318C45.3169 23.4835 45.9726 23.5156 46.2301 23.8826L48.7056 27.4106C48.9402 27.7452 48.6435 28.1757 48.1652 28.189ZM61.0357 18.7867L38.9138 16.5514C38.6012 16.5198 38.3295 16.323 38.2021 16.0359L31.0842 0L55.3912 4.46451C55.6694 4.51557 55.9058 4.69812 56.0257 4.95433L61.9162 17.5454C62.204 18.1606 61.7115 18.855 61.0357 18.7867Z" fill="#F0F5F9"/>
<g clip-path="url(#clip0)">
<path d="M48.558 7.80063L47.0112 6.25393C46.9604 6.20314 46.9001 6.16286 46.8338 6.13537C46.7674 6.10789 46.6963 6.09374 46.6245 6.09374C46.5527 6.09374 46.4816 6.10789 46.4152 6.13537C46.3489 6.16286 46.2886 6.20314 46.2378 6.25393L43.9176 8.57398L43.1442 7.80056L45.4644 5.48037C45.5669 5.37781 45.6245 5.23873 45.6245 5.0937C45.6245 4.94867 45.5669 4.80958 45.4644 4.70702L43.9176 3.16019C43.8668 3.1094 43.8065 3.06912 43.7402 3.04163C43.6738 3.01415 43.6027 3 43.5309 3C43.4591 3 43.388 3.01415 43.3216 3.04163C43.2553 3.06912 43.195 3.1094 43.1442 3.16019L40.8239 5.48037L39.8864 4.54282C39.6221 4.27911 39.2639 4.13101 38.8905 4.13101C38.5171 4.13101 38.1589 4.27911 37.8945 4.54282L37.5664 4.87095C37.3415 5.09658 37.1997 5.39169 37.164 5.70821C37.1283 6.02474 37.2008 6.34404 37.3697 6.61411L28.4239 15.5604C28.154 15.3907 27.8346 15.3178 27.5179 15.3536C27.2011 15.3893 26.906 15.5316 26.6807 15.7571L26.3522 16.0852C26.0886 16.3496 25.9405 16.7078 25.9405 17.0812C25.9405 17.4546 26.0886 17.8127 26.3522 18.0771L27.4665 19.1913L25.2478 21.4092C25.2266 21.4304 25.2072 21.4532 25.1898 21.4776L17.1726 32.6691C16.8374 32.364 16.3982 32.1988 15.9451 32.2075C15.4919 32.2161 15.0593 32.3978 14.7359 32.7154L14.4598 32.9915C14.3573 33.0941 14.2997 33.2332 14.2997 33.3782C14.2997 33.5232 14.3573 33.6623 14.4598 33.7649L18.5348 37.8399C18.6374 37.9424 18.7765 38 18.9215 38C19.0665 38 19.2056 37.9424 19.3082 37.8399L19.5843 37.5638C19.9135 37.2283 20.0963 36.7759 20.0924 36.3058C20.0886 35.8358 19.8985 35.3864 19.5638 35.0563L19.5052 34.9978L27.5999 23.698L29.7866 21.5117L33.6409 25.366C33.7716 25.4968 33.9269 25.6006 34.0978 25.6714C34.2687 25.7422 34.4518 25.7786 34.6368 25.7786C34.8218 25.7786 35.005 25.7422 35.1759 25.6714C35.3467 25.6006 35.502 25.4968 35.6328 25.366L35.9609 25.0379C36.1857 24.8122 36.3276 24.5171 36.3633 24.2006C36.399 23.884 36.3265 23.5648 36.1576 23.2947L45.1037 14.3488C45.3736 14.5184 45.693 14.5912 46.0097 14.5555C46.3265 14.5197 46.6216 14.3774 46.8469 14.1519L47.175 13.8238C47.4387 13.5594 47.5868 13.2013 47.5868 12.8278C47.5868 12.4544 47.4387 12.0963 47.175 11.8319L46.2379 10.8942L48.5581 8.57398C48.6606 8.4714 48.7182 8.3323 48.7182 8.18727C48.7182 8.04224 48.6605 7.90316 48.558 7.80063ZM43.5309 4.32031L44.3042 5.09366L42.3708 7.02721L41.5974 6.25393L43.5309 4.32031ZM33.5542 20.6391L29.2233 16.3079L38.1168 7.41357L44.3045 13.6012L35.4105 22.4952L33.5542 20.6391ZM18.9078 36.6661L15.6334 33.3916C15.7662 33.3158 15.9203 33.2862 16.0717 33.3075C16.2231 33.3288 16.3631 33.3997 16.4698 33.5092L16.8542 33.8936C16.8549 33.8944 16.8556 33.8952 16.8563 33.8959L18.4033 35.4429L18.4054 35.4448L18.79 35.8294C18.8996 35.9361 18.9706 36.0761 18.992 36.2276C19.0133 36.379 18.9837 36.5333 18.9078 36.6661ZM26.7947 22.9563C26.7736 22.9775 26.7542 23.0003 26.7368 23.0247L18.7212 34.2138L17.9581 33.4508L26.0528 22.151L28.2396 19.9648L29.0131 20.7384L26.7947 22.9563ZM35.1876 24.2645L34.8595 24.5926C34.8303 24.6219 34.7956 24.6451 34.7574 24.6609C34.7193 24.6767 34.6784 24.6849 34.637 24.6849C34.5957 24.6849 34.5548 24.6767 34.5166 24.6609C34.4784 24.6451 34.4438 24.6219 34.4145 24.5926L27.1254 17.3039C27.0665 17.2449 27.0334 17.1648 27.0334 17.0814C27.0334 16.998 27.0665 16.9179 27.1254 16.8589L27.4535 16.5307C27.4827 16.5015 27.5174 16.4783 27.5556 16.4625C27.5938 16.4466 27.6347 16.4385 27.676 16.4385C27.7174 16.4385 27.7583 16.4466 27.7965 16.4625C27.8346 16.4783 27.8693 16.5015 27.8985 16.5307L28.0584 16.6906C28.0599 16.6921 28.0611 16.6937 28.0626 16.6951L32.3718 21.004L35.1874 23.8196C35.2463 23.8787 35.2794 23.9586 35.2795 24.042C35.2795 24.1254 35.2465 24.2054 35.1876 24.2645ZM46.402 13.0502L46.0739 13.3783C46.0447 13.4076 46.01 13.4308 45.9718 13.4466C45.9336 13.4624 45.8927 13.4706 45.8514 13.4706C45.8101 13.4706 45.7691 13.4624 45.731 13.4466C45.6928 13.4308 45.6581 13.4076 45.6289 13.3783L45.4648 13.2143L38.5035 6.25345L38.5028 6.25283L38.3397 6.08986C38.2807 6.0308 38.2476 5.95076 38.2476 5.86732C38.2476 5.78388 38.2807 5.70384 38.3397 5.64478L38.6678 5.31665C38.7269 5.25773 38.8069 5.22463 38.8904 5.22463C38.9738 5.22463 39.0539 5.25773 39.113 5.31665L40.4372 6.64091L41.984 8.18768L43.5309 9.7341L45.0777 11.2809L46.402 12.6051C46.4609 12.6642 46.494 12.7442 46.494 12.8277C46.494 12.9111 46.4609 12.9911 46.402 13.0502ZM45.4644 10.1207L44.691 9.34739L46.6245 7.41392L47.3978 8.18727L45.4644 10.1207Z" fill="#FFD500"/>
</g>
<defs>
<clipPath id="clip0">
<rect width="35" height="35" fill="white" transform="translate(14 3)"/>
</clipPath>
</defs>
</svg>
