<svg width="62" height="42" viewBox="0 0 62 42" fill="none" xmlns="http://www.w3.org/2000/svg">
<path d="M29.283 9.21855L25.6133 18.1309C25.4889 18.4331 25.2063 18.6408 24.8808 18.6694L6.10994 20.3189C5.64939 20.3593 5.29988 20.7511 5.31194 21.213L5.69367 35.9473C5.7042 36.3525 5.99161 36.6973 6.38823 36.7809L28.4864 41.4291C29.0266 41.5427 29.5757 41.599 30.1248 41.5977L30.1252 37.2279V9.3852C30.125 8.1689 29.7461 8.09394 29.283 9.21855ZM26.7134 36.6963L18.4177 35.3604V31.0122H26.7134V36.6963ZM23.0861 16.5514L0.96424 18.7867C0.28842 18.855 -0.204034 18.1606 0.0838809 17.5455L5.97439 4.95443C6.09423 4.69822 6.33058 4.51567 6.60877 4.46461L30.9158 0.000101252L23.7978 16.036C23.6703 16.323 23.3987 16.5198 23.0861 16.5514ZM55.8901 20.3189L37.1193 18.6695C36.7937 18.6409 36.5111 18.4332 36.3868 18.131L32.717 9.21865C32.2539 8.09394 31.8749 8.1689 31.8749 9.3852V37.2278L31.8753 41.5976C32.4243 41.599 32.9735 41.5426 33.5138 41.429L55.612 36.7808C56.0086 36.6973 56.296 36.3524 56.3064 35.9472L56.6882 21.213C56.7002 20.751 56.3505 20.3593 55.8901 20.3189ZM48.1652 28.189L47.1285 28.2177L47.1075 34.7425C47.1066 35.0299 46.8147 35.3047 46.4516 35.3569L44.7526 35.6013C44.3644 35.6571 44.0468 35.4582 44.0476 35.1563L44.0634 28.3028L42.8776 28.3356C42.301 28.3515 41.9362 27.8893 42.2297 27.5066L45.0498 23.8318C45.3169 23.4835 45.9726 23.5156 46.2301 23.8826L48.7056 27.4106C48.9402 27.7452 48.6435 28.1757 48.1652 28.189ZM61.0357 18.7867L38.9138 16.5514C38.6012 16.5198 38.3295 16.323 38.2021 16.0359L31.0842 0L55.3912 4.46451C55.6694 4.51557 55.9058 4.69812 56.0257 4.95433L61.9162 17.5454C62.204 18.1606 61.7115 18.855 61.0357 18.7867Z" fill="#F0F5F9"/>
<path d="M45.408 12.1901L40.6381 9.44208L40.3867 9.85743V9.85613L40.6374 9.44235L31.7334 4.29852C31.6612 4.25651 31.5791 4.23438 31.4956 4.23438C31.4121 4.23438 31.33 4.25651 31.2578 4.29852L17.5963 12.1868C17.5214 12.2281 17.4589 12.2889 17.4155 12.3627C17.3721 12.4365 17.3493 12.5206 17.3496 12.6062V28.3931C17.3496 28.4771 17.3717 28.5597 17.4137 28.6324C17.4557 28.7051 17.5161 28.7655 17.5889 28.8075L31.2607 36.7009C31.3335 36.7429 31.416 36.765 31.5 36.765C31.584 36.765 31.6665 36.7429 31.7393 36.7009L45.4111 28.8074C45.4839 28.7654 45.5443 28.705 45.5863 28.6323C45.6283 28.5595 45.6504 28.477 45.6504 28.393V12.6062C45.6502 12.5217 45.6276 12.4387 45.5851 12.3656C45.5425 12.2926 45.4814 12.232 45.408 12.1901ZM39.4529 9.85682L26.7393 17.1971L24.2116 15.7378L36.9251 8.39748L39.4529 9.85682ZM26.2363 18.0118V25.8458L25.2686 24.7466C25.2001 24.6715 25.1102 24.6192 25.011 24.5966C24.9118 24.5741 24.8081 24.5824 24.7138 24.6205L23.707 25.0309V16.5666L26.2363 18.0118ZM31.5 5.26532L35.9681 7.84493L23.2546 15.1852L18.7865 12.6055L31.5 5.26532ZM31.0215 35.4577L18.3066 28.1169V13.4333L22.75 16.0137V25.7463C22.7529 25.8258 22.775 25.9035 22.8142 25.9727C22.8535 26.0419 22.9088 26.1007 22.9755 26.1441C23.0423 26.1874 23.1185 26.2141 23.1977 26.2219C23.2769 26.2296 23.3568 26.2182 23.4307 26.1886L24.773 25.6355L26.354 27.4296C26.4184 27.5027 26.5035 27.5544 26.5979 27.5779C26.6924 27.6014 26.7918 27.5956 26.8829 27.5613C26.974 27.527 27.0525 27.4658 27.1079 27.3858C27.1634 27.3058 27.1932 27.2108 27.1934 27.1135V18.5644L31.0215 20.7746V35.4577ZM31.5 19.946L27.6964 17.7499L40.4102 10.4092L44.2135 12.6055L31.5 19.946ZM44.6934 28.1169L31.9785 35.4577V20.7746L44.6934 13.4336V28.1169Z" fill="#FFD500"/>
<path d="M33.8979 23.8035C34.0096 23.8636 34.1407 23.8768 34.2622 23.8403C34.3838 23.8037 34.4858 23.7204 34.5459 23.6086L34.8497 23.0434V26.0406C34.8497 26.1675 34.9001 26.2892 34.9898 26.3789C35.0796 26.4687 35.2013 26.5191 35.3282 26.5191C35.4551 26.5191 35.5768 26.4687 35.6666 26.3789C35.7563 26.2892 35.8067 26.1675 35.8067 26.0406V22.3468L36.2551 22.8219C36.3422 22.9142 36.4624 22.9681 36.5893 22.9717C36.7161 22.9754 36.8392 22.9285 36.9315 22.8414C37.0238 22.7543 37.0777 22.6341 37.0814 22.5072C37.0851 22.3803 37.0382 22.2572 36.9511 22.1649L35.6762 20.8141C35.6242 20.759 35.5598 20.717 35.4884 20.6917C35.417 20.6663 35.3405 20.6583 35.2654 20.6682C35.1902 20.6782 35.1185 20.7058 35.0562 20.7489C34.9938 20.792 34.9426 20.8493 34.9067 20.9161L33.7029 23.1555C33.6731 23.2108 33.6546 23.2715 33.6483 23.334C33.642 23.3965 33.6481 23.4597 33.6662 23.5199C33.6843 23.58 33.714 23.6361 33.7538 23.6847C33.7936 23.7334 33.8425 23.7737 33.8979 23.8035Z" fill="#FFD500"/>
<path d="M37.2638 21.5001C37.3744 21.5632 37.5054 21.5799 37.6283 21.5466C37.7512 21.5133 37.8559 21.4327 37.9195 21.3223L38.2682 20.7189V24.2752C38.2682 24.4021 38.3186 24.5238 38.4083 24.6136C38.4981 24.7033 38.6198 24.7537 38.7467 24.7537C38.8736 24.7537 38.9953 24.7033 39.085 24.6136C39.1748 24.5238 39.2252 24.4021 39.2252 24.2752V20.2242L39.6354 20.6617C39.6784 20.7078 39.7301 20.7449 39.7875 20.771C39.8449 20.797 39.9069 20.8114 39.97 20.8134C40.033 20.8153 40.0958 20.8048 40.1547 20.7824C40.2136 20.7599 40.2676 20.7261 40.3133 20.6827C40.3591 20.6393 40.3959 20.5874 40.4214 20.5297C40.447 20.4721 40.461 20.41 40.4624 20.3469C40.4639 20.2839 40.4529 20.2212 40.43 20.1624C40.4071 20.1037 40.3728 20.05 40.3291 20.0046L39.0535 18.654C39.0023 18.5997 38.939 18.5581 38.8687 18.5326C38.7985 18.5071 38.7232 18.4984 38.649 18.5073C38.5748 18.5161 38.5037 18.5422 38.4414 18.5834C38.3791 18.6247 38.3273 18.6799 38.2902 18.7448L37.0863 20.8468C37.055 20.9014 37.0348 20.9615 37.0268 21.0239C37.0188 21.0863 37.0232 21.1496 37.0397 21.2102C37.0562 21.2709 37.0844 21.3277 37.1229 21.3775C37.1613 21.4272 37.2092 21.4689 37.2638 21.5001Z" fill="#FFD500"/>
<path d="M19.6055 25.707C19.4786 25.707 19.3568 25.7574 19.2671 25.8472C19.1774 25.9369 19.127 26.0586 19.127 26.1855V28.0312C19.127 28.1582 19.1774 28.2799 19.2671 28.3696C19.3568 28.4594 19.4786 28.5098 19.6055 28.5098C19.7324 28.5098 19.8541 28.4594 19.9438 28.3696C20.0336 28.2799 20.084 28.1582 20.084 28.0312V26.1855C20.084 26.0586 20.0336 25.9369 19.9438 25.8472C19.8541 25.7574 19.7324 25.707 19.6055 25.707Z" fill="#FFD500"/>
<path d="M21.5879 27.0742C21.461 27.0742 21.3393 27.1246 21.2495 27.2144C21.1598 27.3041 21.1094 27.4258 21.1094 27.5527V29.2159C21.1094 29.3428 21.1598 29.4645 21.2495 29.5543C21.3393 29.644 21.461 29.6944 21.5879 29.6944C21.7148 29.6944 21.8365 29.644 21.9263 29.5543C22.016 29.4645 22.0664 29.3428 22.0664 29.2159V27.5527C22.0664 27.4899 22.054 27.4277 22.03 27.3696C22.0059 27.3116 21.9707 27.2588 21.9263 27.2144C21.8818 27.1699 21.8291 27.1347 21.771 27.1106C21.713 27.0866 21.6507 27.0742 21.5879 27.0742Z" fill="#FFD500"/>
<path d="M23.6387 28.4414C23.5118 28.4414 23.39 28.4918 23.3003 28.5816C23.2106 28.6713 23.1602 28.793 23.1602 28.9199V30.3842C23.1602 30.5111 23.2106 30.6328 23.3003 30.7225C23.39 30.8123 23.5118 30.8627 23.6387 30.8627C23.7656 30.8627 23.8873 30.8123 23.977 30.7225C24.0668 30.6328 24.1172 30.5111 24.1172 30.3842V28.9199C24.1172 28.793 24.0668 28.6713 23.977 28.5816C23.8873 28.4918 23.7656 28.4414 23.6387 28.4414Z" fill="#FFD500"/>
<path d="M25.6895 29.8086C25.5625 29.8086 25.4408 29.859 25.3511 29.9487C25.2614 30.0385 25.2109 30.1602 25.2109 30.2871V31.5531C25.2109 31.68 25.2614 31.8017 25.3511 31.8915C25.4408 31.9812 25.5625 32.0316 25.6895 32.0316C25.8164 32.0316 25.9381 31.9812 26.0278 31.8915C26.1176 31.8017 26.168 31.68 26.168 31.5531V30.2871C26.168 30.1602 26.1176 30.0385 26.0278 29.9487C25.9381 29.859 25.8164 29.8086 25.6895 29.8086Z" fill="#FFD500"/>
<path d="M27.1934 32.748C27.1934 32.875 27.2438 32.9967 27.3335 33.0864C27.4233 33.1761 27.545 33.2266 27.6719 33.2266C27.7988 33.2266 27.9205 33.1761 28.0102 33.0864C28.1 32.9967 28.1504 32.875 28.1504 32.748V31.6543C28.1504 31.5274 28.1 31.4057 28.0102 31.3159C27.9205 31.2262 27.7988 31.1758 27.6719 31.1758C27.545 31.1758 27.4233 31.2262 27.3335 31.3159C27.2438 31.4057 27.1934 31.5274 27.1934 31.6543V32.748Z" fill="#FFD500"/>
<path d="M37.6069 26.0559C37.5524 26.0873 37.5047 26.1292 37.4665 26.179C37.4282 26.2289 37.4001 26.2858 37.3839 26.3465C37.3676 26.4072 37.3634 26.4705 37.3716 26.5328C37.3798 26.5951 37.4002 26.6552 37.4317 26.7096C37.4631 26.7641 37.5049 26.8118 37.5548 26.85C37.6046 26.8883 37.6615 26.9164 37.7222 26.9326C37.7829 26.9489 37.8462 26.953 37.9086 26.9449C37.9709 26.9367 38.0309 26.9163 38.0854 26.8848L40.8785 25.2729C40.933 25.2415 40.9807 25.1997 41.0189 25.1498C41.0572 25.0999 41.0853 25.043 41.1015 24.9823C41.1178 24.9216 41.1219 24.8583 41.1137 24.796C41.1055 24.7337 41.0852 24.6736 41.0537 24.6192C41.0223 24.5648 40.9805 24.5171 40.9306 24.4788C40.8808 24.4405 40.8239 24.4125 40.7632 24.3962C40.7025 24.3799 40.6391 24.3758 40.5768 24.384C40.5145 24.3922 40.4544 24.4126 40.4 24.444L37.6069 26.0559Z" fill="#FFD500"/>
<path d="M36.3639 26.7747L34.093 28.0858C34.0381 28.117 33.99 28.1588 33.9513 28.2086C33.9126 28.2585 33.8842 28.3155 33.8677 28.3764C33.8511 28.4373 33.8468 28.5009 33.8549 28.5635C33.8631 28.6261 33.8835 28.6864 33.9151 28.7411C33.9466 28.7957 33.9887 28.8436 34.0388 28.8819C34.0889 28.9203 34.1461 28.9483 34.2072 28.9644C34.2682 28.9806 34.3318 28.9845 34.3943 28.9759C34.4568 28.9674 34.517 28.9465 34.5715 28.9146L36.8424 27.6035C36.8972 27.5723 36.9454 27.5306 36.984 27.4807C37.0227 27.4308 37.0511 27.3738 37.0677 27.3129C37.0842 27.252 37.0885 27.1884 37.0804 27.1258C37.0722 27.0632 37.0518 27.0029 37.0203 26.9482C36.9887 26.8936 36.9467 26.8457 36.8965 26.8074C36.8464 26.769 36.7892 26.741 36.7282 26.7249C36.6672 26.7087 36.6036 26.7048 36.541 26.7134C36.4785 26.7219 36.4183 26.7428 36.3639 26.7747Z" fill="#FFD500"/>
</svg>
