<svg width="35" height="35" viewBox="0 0 35 35" fill="none" xmlns="http://www.w3.org/2000/svg">
<path d="M27.3441 14.2188C26.968 14.2214 26.5928 14.254 26.2219 14.3161L24.6436 8.79266C24.606 8.65988 24.5997 8.5202 24.6251 8.38457C24.6506 8.24894 24.7071 8.12105 24.7903 8.01095C24.8735 7.90084 24.9811 7.81151 25.1046 7.74997C25.2281 7.68843 25.3642 7.65635 25.5022 7.65625H27.891C28.036 7.65625 28.1751 7.71387 28.2777 7.81643C28.3802 7.91899 28.4378 8.05808 28.4378 8.20312C28.4378 8.34817 28.3802 8.48726 28.2777 8.58982C28.1751 8.69238 28.036 8.75 27.891 8.75H27.3441V9.84375H27.891C28.3261 9.84375 28.7434 9.6709 29.0511 9.36322C29.3587 9.05555 29.5316 8.63825 29.5316 8.20312C29.5316 7.768 29.3587 7.3507 29.0511 7.04303C28.7434 6.73535 28.3261 6.5625 27.891 6.5625H25.5022C25.1948 6.56243 24.8916 6.63373 24.6164 6.77079C24.3412 6.90786 24.1016 7.10693 23.9165 7.35235C23.7314 7.59776 23.6058 7.88281 23.5495 8.18503C23.4933 8.48726 23.508 8.79841 23.5925 9.09398L24.5878 12.5781H13.1067L12.258 11.1634C12.3597 11.062 12.4403 10.9416 12.4953 10.809C12.5503 10.6764 12.5786 10.5342 12.5785 10.3906H14.766C15.2011 10.3906 15.6184 10.2178 15.9261 9.9101C16.2337 9.60242 16.4066 9.18512 16.4066 8.75C16.4066 8.31488 16.2337 7.89758 15.9261 7.5899C15.6184 7.28223 15.2011 7.10938 14.766 7.10938H10.9378C10.3577 7.10938 9.80127 7.33984 9.39103 7.75008C8.9808 8.16031 8.75033 8.71671 8.75033 9.29688C8.75033 9.87704 8.9808 10.4334 9.39103 10.8437C9.80127 11.2539 10.3577 11.4844 10.9378 11.4844H11.1752L12.0447 12.9341L10.6813 14.9029C9.36515 14.2828 7.89031 14.0817 6.45614 14.3267C5.02196 14.5718 3.69758 15.2512 2.66197 16.2732C1.62635 17.2951 0.929427 18.6104 0.665369 20.0412C0.401311 21.472 0.582849 22.9494 1.18545 24.2737C1.78805 25.598 2.78267 26.7054 4.0349 27.4462C5.28712 28.187 6.73659 28.5256 8.18743 28.4162C9.63827 28.3067 11.0205 27.7545 12.1475 26.8342C13.2744 25.9139 14.0916 24.6698 14.4887 23.2701C14.8644 23.6439 15.3408 23.9002 15.8597 24.0078V25.1562H14.766V26.25H18.0472V25.1562H16.9535V24.0078C17.5155 23.8944 18.0275 23.6068 18.4168 23.1857C18.806 22.7647 19.0526 22.2317 19.1216 21.6625C19.1905 21.0933 19.0784 20.5168 18.801 20.015C18.5236 19.5132 18.0951 19.1115 17.5763 18.8672L23.7161 13.6719H24.9001L25.1566 14.5671C23.4572 15.12 22.0288 16.2933 21.1564 17.8529C20.284 19.4126 20.0317 21.2438 20.4499 22.9812C20.8682 24.7186 21.9262 26.2344 23.4128 27.2262C24.8994 28.2179 26.7053 28.6127 28.4701 28.3316C30.2349 28.0506 31.8288 27.1144 32.9338 25.71C34.0388 24.3055 34.5736 22.536 34.4315 20.7546C34.2894 18.9733 33.4808 17.311 32.1671 16.0995C30.8533 14.888 29.1311 14.2164 27.3441 14.2188ZM9.84408 9.29688C9.84408 9.00679 9.95931 8.7286 10.1644 8.52348C10.3695 8.31836 10.6477 8.20312 10.9378 8.20312H14.766C14.911 8.20312 15.0501 8.26074 15.1527 8.3633C15.2552 8.46586 15.3128 8.60496 15.3128 8.75C15.3128 8.89504 15.2552 9.03414 15.1527 9.1367C15.0501 9.23926 14.911 9.29688 14.766 9.29688H12.5785C12.2884 9.29688 12.0102 9.41211 11.8051 9.61723C11.5999 9.82235 11.4847 10.1005 11.4847 10.3906H10.9378C10.6477 10.3906 10.3695 10.2754 10.1644 10.0703C9.95931 9.86515 9.84408 9.58696 9.84408 9.29688ZM12.6627 13.9634L15.5343 18.7496C15.1425 18.8794 14.785 19.096 14.4887 19.3834C14.0299 17.7763 13.0213 16.3814 11.6389 15.4421L12.6627 13.9634ZM7.65658 27.3438C6.76222 27.3448 5.87889 27.1463 5.07089 26.7629C4.26288 26.3795 3.55054 25.8207 2.98571 25.1273C2.42087 24.4339 2.01776 23.6232 1.80572 22.7544C1.59368 21.8855 1.57804 20.9803 1.75995 20.1046C1.94185 19.229 2.31672 18.4049 2.85726 17.6923C3.3978 16.9798 4.09042 16.3968 4.8847 15.9857C5.67898 15.5746 6.55493 15.3458 7.44879 15.3159C8.34265 15.286 9.23193 15.4558 10.0519 15.8129L9.41314 16.7344C8.24236 16.2911 6.94633 16.3127 5.79096 16.7947C4.63559 17.2767 3.7085 18.1827 3.19993 19.3266C2.69136 20.4705 2.63986 21.7657 3.056 22.9464C3.47215 24.1271 4.32438 25.1038 5.43783 25.676C6.55128 26.2483 7.84151 26.3727 9.04379 26.0238C10.2461 25.6748 11.2692 24.879 11.9033 23.7996C12.5374 22.7201 12.7343 21.439 12.4537 20.2189C12.1731 18.9989 11.4362 17.9325 10.3942 17.2386L11.0171 16.339C12.0858 17.0589 12.8951 18.103 13.3258 19.3175C13.7565 20.532 13.7858 21.8526 13.4095 23.085C13.0331 24.3174 12.271 25.3964 11.2353 26.1631C10.1997 26.9298 8.94516 27.3437 7.65658 27.3438ZM7.65658 20.7812C7.76474 20.7812 7.87047 20.8133 7.96041 20.8734C8.05034 20.9335 8.12044 21.0189 8.16183 21.1188C8.20322 21.2188 8.21405 21.3287 8.19295 21.4348C8.17185 21.5409 8.11976 21.6383 8.04328 21.7148C7.9668 21.7913 7.86935 21.8434 7.76327 21.8645C7.65719 21.8856 7.54723 21.8748 7.4473 21.8334C7.34737 21.792 7.26196 21.7219 7.20187 21.632C7.14178 21.542 7.10971 21.4363 7.10971 21.3281C7.10971 21.1831 7.16732 21.044 7.26988 20.9414C7.37244 20.8389 7.51154 20.7812 7.65658 20.7812ZM7.34814 19.7187C6.97079 19.7891 6.62992 19.9892 6.38446 20.2844C6.13899 20.5795 6.00434 20.9511 6.0038 21.335C6.00326 21.7189 6.13686 22.0909 6.38149 22.3867C6.62613 22.6825 6.96643 22.8836 7.34358 22.9551C7.72073 23.0267 8.11102 22.9642 8.44699 22.7785C8.78296 22.5928 9.0435 22.2955 9.18356 21.9381C9.32362 21.5807 9.33442 21.1856 9.21407 20.8211C9.09372 20.4566 8.8498 20.1456 8.52447 19.9418L9.77135 18.1404C10.5744 18.6752 11.1453 19.4941 11.3694 20.4326C11.5934 21.371 11.4539 22.3595 10.979 23.1994C10.5041 24.0393 9.72886 24.6683 8.80918 24.96C7.88949 25.2517 6.89348 25.1846 6.02128 24.772C5.14908 24.3595 4.46533 23.6321 4.10745 22.7361C3.74956 21.8401 3.74405 20.8418 4.09203 19.9419C4.44 19.042 5.11568 18.3071 5.98327 17.885C6.85086 17.4628 7.84608 17.3847 8.76892 17.6663L7.34814 19.7187ZM16.9535 22.8681V21.3281H15.8597V22.8681C15.4948 22.7391 15.1873 22.4853 14.9915 22.1515C14.7956 21.8176 14.7241 21.4253 14.7896 21.0439C14.855 20.6625 15.0532 20.3164 15.3491 20.067C15.645 19.8175 16.0196 19.6807 16.4066 19.6807C16.7936 19.6807 17.1682 19.8175 17.4641 20.067C17.7599 20.3164 17.9581 20.6625 18.0236 21.0439C18.089 21.4253 18.0175 21.8176 17.8217 22.1515C17.6259 22.4853 17.3183 22.7391 16.9535 22.8681ZM16.5444 18.3077L13.763 13.6719H22.0235L16.5444 18.3077ZM27.3441 27.3438C25.9165 27.3408 24.5366 26.8302 23.4508 25.9033C22.3651 24.9764 21.6444 23.6937 21.4175 22.2842C21.1906 20.8748 21.4723 19.4307 22.2123 18.2099C22.9523 16.9891 24.1023 16.0712 25.4568 15.6204L25.7576 16.6737C24.5852 17.0797 23.6126 17.9189 23.0393 19.0193C22.466 20.1196 22.3356 21.3977 22.6747 22.5912C23.0138 23.7846 23.7967 24.8031 24.8629 25.4377C25.9291 26.0722 27.1977 26.2747 28.4085 26.0036C29.6192 25.7324 30.6803 25.0083 31.3741 23.9796C32.0679 22.951 32.3417 21.6959 32.1394 20.4717C31.9372 19.2476 31.2741 18.1473 30.2863 17.3965C29.2985 16.6457 28.0609 16.3014 26.8273 16.4341L26.5238 15.3748C27.3406 15.2617 28.172 15.3178 28.9663 15.5396C29.7606 15.7614 30.5007 16.1443 31.1407 16.6643C31.7807 17.1844 32.3069 17.8305 32.6866 18.5626C33.0662 19.2947 33.2912 20.097 33.3476 20.9197C33.404 21.7424 33.2906 22.568 33.0143 23.345C32.7381 24.122 32.305 24.8339 31.7419 25.4364C31.1788 26.0389 30.4979 26.5192 29.7413 26.8473C28.9847 27.1754 28.1687 27.3444 27.3441 27.3438ZM27.891 21.3281C27.891 21.4363 27.8589 21.542 27.7988 21.632C27.7387 21.7219 27.6533 21.792 27.5534 21.8334C27.4534 21.8748 27.3435 21.8856 27.2374 21.8645C27.1313 21.8434 27.0339 21.7913 26.9574 21.7148C26.8809 21.6383 26.8288 21.5409 26.8077 21.4348C26.7866 21.3287 26.7974 21.2188 26.8388 21.1188C26.8802 21.0189 26.9503 20.9335 27.0403 20.8734C27.1302 20.8133 27.2359 20.7812 27.3441 20.7812C27.4891 20.7812 27.6282 20.8389 27.7308 20.9414C27.8333 21.044 27.891 21.1831 27.891 21.3281ZM27.3441 22.9688C27.7411 22.9697 28.125 22.8262 28.4241 22.5651C28.7233 22.304 28.9173 21.9431 28.9701 21.5496C29.0229 21.156 28.9308 20.7567 28.7111 20.426C28.4913 20.0953 28.1588 19.8558 27.7756 19.752L27.1346 17.5098C27.2046 17.506 27.2735 17.4995 27.3441 17.4995C28.307 17.4954 29.2364 17.8528 29.9485 18.501C30.6606 19.1493 31.1034 20.0412 31.1895 21.0003C31.2756 21.9593 30.9986 22.9158 30.4134 23.6805C29.8281 24.4452 28.9772 24.9624 28.029 25.1299C27.0807 25.2974 26.1041 25.1029 25.2923 24.5849C24.4806 24.0669 23.8928 23.2631 23.6451 22.3326C23.3975 21.402 23.5081 20.4124 23.9551 19.5595C24.4021 18.7065 25.1528 18.0524 26.0589 17.7264L26.6605 19.8395C26.3218 19.9964 26.0468 20.2641 25.8808 20.5984C25.7148 20.9327 25.6677 21.3136 25.7474 21.6783C25.827 22.0429 26.0286 22.3695 26.3189 22.6041C26.6092 22.8387 26.9708 22.9674 27.3441 22.9688Z" fill="#FFD500"/>
</svg>
