<svg width="35" height="35" viewBox="0 0 35 35" fill="none" xmlns="http://www.w3.org/2000/svg">
<g clip-path="url(#clip0)">
<path fill-rule="evenodd" clip-rule="evenodd" d="M34.9388 22.1157C34.9331 22.0999 34.9267 22.0856 34.9198 22.0707C34.8998 22.0276 34.8741 21.9876 34.8435 21.9521C34.8403 21.9484 34.8375 21.9445 34.8347 21.9407C34.8309 21.9355 34.8272 21.9304 34.8227 21.9258C34.7874 21.8891 34.7468 21.8585 34.7025 21.8348L25.2012 16.8617V18.0072L33.3893 22.2929L31.9584 23.0419L24.9925 19.3958L24.7629 20.4212L30.8642 23.6146L29.0226 24.5785L22.1973 21.0061L20.7043 21.3702L27.9283 25.1513L26.0867 26.1152L17.9069 21.8338L17.0798 22.5464L24.9925 26.688L23.1508 27.6519L14.9619 23.3657L13.4302 23.7095L22.0566 28.2246L20.2936 29.1474L11.4579 24.5227L10.0551 24.934L17.2703 28.7105V29.7419L9.12687 25.4796L8.14828 25.9219V27.565L6.5929 26.7509V26.1185L5.61432 24.6803V27.0676C5.61719 27.0916 5.62177 27.1155 5.62808 27.1389C5.63123 27.1758 5.63823 27.2122 5.64901 27.2475C5.66151 27.277 5.67671 27.3051 5.69442 27.3315C5.70922 27.3604 5.72676 27.3878 5.74689 27.413C5.77183 27.4384 5.79936 27.4609 5.82895 27.4801C5.84644 27.4969 5.86513 27.5121 5.88485 27.5258L20.0749 34.9529C20.0771 34.9541 20.0795 34.9544 20.0818 34.9547C20.0841 34.955 20.0864 34.9553 20.0885 34.9563C20.2177 35.0239 20.3699 35.0239 20.4991 34.9563C20.5034 34.9542 20.5083 34.9552 20.5126 34.9529L34.7026 27.5258C34.7223 27.5121 34.7409 27.4969 34.7584 27.4802C34.7881 27.461 34.8156 27.4385 34.8406 27.413C34.8774 27.3606 34.9101 27.3053 34.9385 27.2474C34.9492 27.2122 34.9562 27.1758 34.9595 27.139C34.9657 27.1156 34.9703 27.0917 34.9732 27.0676V22.293C34.9718 22.2322 34.9603 22.1721 34.9388 22.1157ZM17.2703 32.3395L9.12687 28.0772V26.625L17.2703 30.8873V32.3395ZM19.8043 33.6658L18.2489 32.8517V29.2227L19.8043 30.0368V33.6658ZM22.3383 32.8517L20.7829 33.6658V30.0368L22.3383 29.2227V32.8517ZM31.4603 28.0772L23.3169 32.3395V30.8873L31.4603 26.625V28.0772ZM31.4603 25.4796L23.3169 29.7419V28.7105L31.4603 24.4482V25.4796ZM33.9943 26.7509L32.4389 27.565V23.9359L33.9943 23.1218V26.7509Z" fill="#FFD500"/>
<path d="M25.087 3.27677C25.072 3.26169 22.1008 0.236606 22.1008 0.236606C21.9872 0.120254 21.8697 0 21.6503 0H9.68847C9.33908 0 9.05481 0.303431 9.05481 0.676431V2.75362L4.83886 3.52514C4.50093 3.58843 4.27367 3.93369 4.33221 4.29408L4.54618 5.62596C3.17584 6.11826 1.76895 6.62575 0.410762 7.14659C0.0898291 7.27186 -0.0785915 7.65282 0.0359286 7.9975L2.73762 16.0153L2.73767 16.0154C2.79205 16.1767 2.93445 16.2771 3.08632 16.2771C3.12792 16.2771 3.17031 16.2696 3.21171 16.2536C3.40429 16.1797 3.50424 15.9531 3.43497 15.7475L0.773244 7.84829C2.05283 7.3592 3.37796 6.8805 4.673 6.41515L5.94621 14.3395L7.41126 23.4658C7.46417 23.788 7.72943 24.0172 8.02882 24.0172C8.06271 24.0172 8.0971 24.0142 8.13158 24.0082L12.0996 23.2812L15.2002 22.7138L10.5368 24.5032L6.85941 25.9148L4.00342 17.4343C4.00339 17.4342 4.00337 17.4341 4.00334 17.434C3.93403 17.2286 3.72194 17.122 3.52938 17.1959C3.33681 17.2697 3.23686 17.4963 3.30608 17.7019L6.20257 26.303C6.29521 26.5734 6.53522 26.7416 6.78891 26.7416C6.85901 26.7416 6.93021 26.7287 6.99957 26.7016L10.7875 25.2477L19.3885 21.9474L21.0317 21.6467H24.6615C25.0109 21.6467 25.2952 21.3426 25.2952 20.9687V3.72251C25.2952 3.48574 25.1749 3.36496 25.087 3.27677ZM24.1053 3.37045H22.2512L22.2052 3.37066C22.1164 3.37129 21.9086 3.37293 21.8559 3.31702C21.8437 3.3041 21.8295 3.26095 21.8295 3.18083L21.8252 1.04922L24.1053 3.37045ZM24.5541 20.8554H9.79588V13.1461C9.79588 12.9277 9.62998 12.7506 9.42534 12.7506C9.22071 12.7506 9.05481 12.9277 9.05481 13.1461V20.9686C9.05481 21.3424 9.33908 21.6466 9.68847 21.6466H16.6452L11.9743 22.5013L8.1216 23.2072L6.67661 14.2058L5.08237 4.28322L9.05476 3.55626V11.3107C9.05476 11.5291 9.22066 11.7062 9.42529 11.7062C9.62993 11.7062 9.79583 11.5291 9.79583 11.3107V0.791095H21.0836L21.0884 3.18173C21.0884 3.4715 21.171 3.70589 21.3338 3.87847C21.5839 4.14361 21.9375 4.16207 22.157 4.16207C22.1759 4.16207 22.1937 4.16191 22.2105 4.1618L24.5541 4.16165V20.8554Z" fill="#FFD500"/>
<path d="M9.42534 12.7506C9.62998 12.7506 9.79588 12.9277 9.79588 13.1461L9.79583 11.3107C9.79583 11.5291 9.62993 11.7062 9.42529 11.7062C9.22066 11.7062 9.05476 11.5291 9.05476 11.3107L9.05481 13.1461C9.05481 12.9277 9.22071 12.7506 9.42534 12.7506Z" fill="#FFD500"/>
<path d="M3.08632 16.2771C2.93445 16.2771 2.79205 16.1767 2.73767 16.0154L3.30608 17.7019C3.23686 17.4963 3.33681 17.2697 3.52938 17.1959C3.72194 17.122 3.93403 17.2286 4.00334 17.434L3.43497 15.7475C3.50424 15.9531 3.40429 16.1797 3.21171 16.2536C3.17031 16.2696 3.12792 16.2771 3.08632 16.2771Z" fill="#FFD500"/>
<path d="M11.5821 6.14264C11.5821 6.36111 11.748 6.53822 11.9526 6.53822H22.5468C22.7514 6.53822 22.9173 6.36111 22.9173 6.14264C22.9173 5.92418 22.7514 5.74707 22.5468 5.74707H11.9526C11.748 5.74707 11.5821 5.92418 11.5821 6.14264Z" fill="#FFD500"/>
<path d="M22.5468 8.55664H11.9526C11.748 8.55664 11.5821 8.73375 11.5821 8.95221C11.5821 9.17068 11.748 9.34779 11.9526 9.34779H22.5468C22.7514 9.34779 22.9173 9.17068 22.9173 8.95221C22.9173 8.73375 22.7514 8.55664 22.5468 8.55664Z" fill="#FFD500"/>
<path d="M22.5468 11.3672H11.9526C11.748 11.3672 11.5821 11.5443 11.5821 11.7628C11.5821 11.9812 11.748 12.1583 11.9526 12.1583H22.5468C22.7514 12.1583 22.9173 11.9812 22.9173 11.7628C22.9173 11.5443 22.7514 11.3672 22.5468 11.3672Z" fill="#FFD500"/>
<path d="M22.5468 14.1777H11.9526C11.748 14.1777 11.5821 14.3548 11.5821 14.5733C11.5821 14.7918 11.748 14.9689 11.9526 14.9689H22.5468C22.7514 14.9689 22.9173 14.7918 22.9173 14.5733C22.9173 14.3548 22.7514 14.1777 22.5468 14.1777Z" fill="#FFD500"/>
<path d="M22.5468 16.9873H11.9526C11.748 16.9873 11.5821 17.1644 11.5821 17.3829C11.5821 17.6013 11.748 17.7785 11.9526 17.7785H22.5468C22.7514 17.7785 22.9173 17.6013 22.9173 17.3829C22.9173 17.1644 22.7514 16.9873 22.5468 16.9873Z" fill="#FFD500"/>
</g>
<defs>
<clipPath id="clip0">
<rect width="35" height="35" fill="white"/>
</clipPath>
</defs>
</svg>
