<svg width="35" height="35" viewBox="0 0 35 35" fill="none" xmlns="http://www.w3.org/2000/svg">
<path d="M33.3594 1.09375H1.64062C1.49558 1.09375 1.35648 1.15137 1.25393 1.25393C1.15137 1.35648 1.09375 1.49558 1.09375 1.64063V24.6094C1.09375 24.7544 1.15137 24.8935 1.25393 24.9961C1.35648 25.0986 1.49558 25.1563 1.64062 25.1563H15.8594V26.25C15.7222 26.25 15.59 26.3015 15.489 26.3944C15.3881 26.4873 15.3257 26.6148 15.3143 26.7515L14.9492 31.134C14.9198 31.4868 14.964 31.8419 15.0788 32.1768C15.1937 32.5116 15.3768 32.819 15.6165 33.0796C15.8562 33.3401 16.1474 33.548 16.4716 33.6903C16.7958 33.8325 17.146 33.9059 17.5 33.9059C17.854 33.9059 18.2042 33.8325 18.5284 33.6903C18.8526 33.548 19.1438 33.3401 19.3835 33.0796C19.6232 32.819 19.8063 32.5116 19.9212 32.1768C20.036 31.8419 20.0802 31.4868 20.0508 31.134L19.6857 26.7515C19.6743 26.6148 19.6119 26.4873 19.511 26.3944C19.41 26.3015 19.2778 26.25 19.1406 26.25V25.1563H33.3594C33.5044 25.1563 33.6435 25.0986 33.7461 24.9961C33.8486 24.8935 33.9062 24.7544 33.9062 24.6094V1.64063C33.9062 1.49558 33.8486 1.35648 33.7461 1.25393C33.6435 1.15137 33.5044 1.09375 33.3594 1.09375ZM24.382 17.5C24.0395 16.2922 23.3275 15.2219 22.3461 14.4391C21.3646 13.6563 20.1627 13.2002 18.909 13.1348C18.5289 12.7789 18.0281 12.58 17.5073 12.5781C16.9865 12.5763 16.4843 12.7717 16.1017 13.125H13.6967C12.6296 13.1257 11.5989 12.7367 10.7983 12.0313H25.7031V17.5H24.382ZM21.9546 21.4779L19.5673 14.3161C20.4379 14.4913 21.2448 14.8989 21.9025 15.4957C22.5601 16.0925 23.0439 16.8562 23.3025 17.7058C23.5611 18.5554 23.5848 19.4591 23.3712 20.3211C23.1576 21.1831 22.7146 21.9712 22.0892 22.6017C22.1212 22.2219 22.0754 21.8395 21.9546 21.4779ZM32.8125 5.46875V10.9375H18.0469V5.46875H32.8125ZM16.9531 10.9375H9.89591C9.50303 10.2665 9.29625 9.50278 9.29688 8.72519V5.46875H16.9531V10.9375ZM26.7969 12.0313H32.8125V17.5H26.7969V12.0313ZM32.8125 4.375H26.7969V2.1875H32.8125V4.375ZM25.7031 4.375H9.29688V2.1875H25.7031V4.375ZM2.1875 2.1875H8.20312V8.72519C8.20477 10.1817 8.78408 11.578 9.81397 12.6079C10.8439 13.6378 12.2402 14.2171 13.6967 14.2188H15.4651L14.5537 16.9531H9.84375C9.69871 16.9531 9.55961 17.0107 9.45705 17.1133C9.35449 17.2159 9.29688 17.355 9.29688 17.5C9.29688 17.645 9.35449 17.7841 9.45705 17.8867C9.55961 17.9893 9.69871 18.0469 9.84375 18.0469H14.1892L13.6423 19.6875H12.0312C11.8862 19.6875 11.7471 19.7451 11.6446 19.8477C11.542 19.9502 11.4844 20.0893 11.4844 20.2344C11.4844 20.3794 11.542 20.5185 11.6446 20.6211C11.7471 20.7236 11.8862 20.7813 12.0312 20.7813H13.2776L13.0452 21.478C12.8993 21.9112 12.8626 22.3738 12.9384 22.8247C13.0141 23.2756 13.2001 23.7008 13.4796 24.0625H2.1875V2.1875ZM14.494 23.5643C14.2697 23.3416 14.1123 23.0604 14.0397 22.7528C13.9671 22.4452 13.9821 22.1234 14.0831 21.8239L16.5792 14.3356C16.6437 14.1424 16.7673 13.9743 16.9325 13.8553C17.0978 13.7362 17.2963 13.6721 17.5 13.6721C17.7037 13.6721 17.9022 13.7362 18.0675 13.8553C18.2327 13.9743 18.3563 14.1424 18.4208 14.3356L20.9169 21.8238C21.0179 22.1233 21.0329 22.4452 20.9603 22.7528C20.8877 23.0604 20.7303 23.3416 20.506 23.5643C20.4278 23.6425 20.3422 23.713 20.2505 23.7748C19.719 23.9655 19.1585 24.0628 18.5938 24.0625H15.6967C15.4732 24.0631 15.2519 24.0194 15.0454 23.9339C14.839 23.8484 14.6515 23.7227 14.494 23.5643ZM18.5788 32.3392C18.3719 32.564 18.1 32.7186 17.801 32.7813C17.5019 32.8441 17.1908 32.8118 16.911 32.689C16.6312 32.5663 16.3968 32.3592 16.2405 32.0967C16.0842 31.8342 16.0138 31.5294 16.0392 31.2249L16.3626 27.3438H18.6374L18.9608 31.2248C18.9787 31.4269 18.9539 31.6306 18.8881 31.8225C18.8222 32.0145 18.7169 32.1905 18.5788 32.3392ZM16.9531 26.25V25.1563H18.0469V26.25H16.9531ZM22.0485 24.0625C22.8392 23.5081 23.4848 22.7713 23.9306 21.9146C24.3763 21.0579 24.6092 20.1064 24.6094 19.1406C24.6094 18.9569 24.6004 18.7746 24.5841 18.5938H32.8125V24.0625H22.0485Z" fill="#FFD500"/>
<path d="M9.29688 19.6875H8.20312C8.05808 19.6875 7.91899 19.7451 7.81643 19.8477C7.71387 19.9502 7.65625 20.0893 7.65625 20.2344C7.65625 20.3794 7.71387 20.5185 7.81643 20.6211C7.91899 20.7236 8.05808 20.7812 8.20312 20.7812H9.29688C9.44192 20.7812 9.58102 20.7236 9.68357 20.6211C9.78613 20.5185 9.84375 20.3794 9.84375 20.2344C9.84375 20.0893 9.78613 19.9502 9.68357 19.8477C9.58102 19.7451 9.44192 19.6875 9.29688 19.6875Z" fill="#FFD500"/>
<path d="M7.10938 16.9531H6.01562C5.87058 16.9531 5.73149 17.0107 5.62893 17.1133C5.52637 17.2159 5.46875 17.355 5.46875 17.5C5.46875 17.645 5.52637 17.7841 5.62893 17.8867C5.73149 17.9893 5.87058 18.0469 6.01562 18.0469H7.10938C7.25442 18.0469 7.39351 17.9893 7.49607 17.8867C7.59863 17.7841 7.65625 17.645 7.65625 17.5C7.65625 17.355 7.59863 17.2159 7.49607 17.1133C7.39351 17.0107 7.25442 16.9531 7.10938 16.9531Z" fill="#FFD500"/>
</svg>
