<svg width="62" height="42" viewBox="0 0 62 42" fill="none" xmlns="http://www.w3.org/2000/svg">
<path d="M29.283 9.21855L25.6133 18.1309C25.4889 18.4331 25.2063 18.6408 24.8808 18.6694L6.10994 20.3189C5.64939 20.3593 5.29988 20.7511 5.31194 21.213L5.69367 35.9473C5.7042 36.3525 5.99161 36.6973 6.38823 36.7809L28.4864 41.4291C29.0266 41.5427 29.5757 41.599 30.1248 41.5977L30.1252 37.2279V9.3852C30.125 8.1689 29.7461 8.09394 29.283 9.21855ZM26.7134 36.6963L18.4177 35.3604V31.0122H26.7134V36.6963ZM23.0861 16.5514L0.96424 18.7867C0.28842 18.855 -0.204034 18.1606 0.0838809 17.5455L5.97439 4.95443C6.09423 4.69822 6.33058 4.51567 6.60877 4.46461L30.9158 0.000101252L23.7978 16.036C23.6703 16.323 23.3987 16.5198 23.0861 16.5514ZM55.8901 20.3189L37.1193 18.6695C36.7937 18.6409 36.5111 18.4332 36.3868 18.131L32.717 9.21865C32.2539 8.09394 31.8749 8.1689 31.8749 9.3852V37.2278L31.8753 41.5976C32.4243 41.599 32.9735 41.5426 33.5138 41.429L55.612 36.7808C56.0086 36.6973 56.296 36.3524 56.3064 35.9472L56.6882 21.213C56.7002 20.751 56.3505 20.3593 55.8901 20.3189ZM48.1652 28.189L47.1285 28.2177L47.1075 34.7425C47.1066 35.0299 46.8147 35.3047 46.4516 35.3569L44.7526 35.6013C44.3644 35.6571 44.0468 35.4582 44.0476 35.1563L44.0634 28.3028L42.8776 28.3356C42.301 28.3515 41.9362 27.8893 42.2297 27.5066L45.0498 23.8318C45.3169 23.4835 45.9726 23.5156 46.2301 23.8826L48.7056 27.4106C48.9402 27.7452 48.6435 28.1757 48.1652 28.189ZM61.0357 18.7867L38.9138 16.5514C38.6012 16.5198 38.3295 16.323 38.2021 16.0359L31.0842 0L55.3912 4.46451C55.6694 4.51557 55.9058 4.69812 56.0257 4.95433L61.9162 17.5454C62.204 18.1606 61.7115 18.855 61.0357 18.7867Z" fill="#F0F5F9"/>
<path d="M45.6846 34.9238H44.1465V32.2263C44.7786 32.0352 45.2402 31.4475 45.2402 30.7539C45.2402 30.3603 45.0914 30.0009 44.8474 29.7285C45.0915 29.4562 45.2402 29.0967 45.2402 28.7031C45.2402 28.3095 45.0914 27.9501 44.8474 27.6777C45.0915 27.4054 45.2402 27.046 45.2402 26.6523C45.2402 26.2587 45.0914 25.8993 44.8474 25.627C45.0915 25.3546 45.2402 24.9952 45.2402 24.6016C45.2402 24.2079 45.0914 23.8485 44.8474 23.5762C45.0915 23.3038 45.2402 22.9444 45.2402 22.5508C45.2402 22.1572 45.0914 21.7977 44.8474 21.5254C45.0915 21.253 45.2402 20.8936 45.2402 20.5C45.2402 20.1064 45.0914 19.747 44.8474 19.4746C45.0915 19.2023 45.2402 18.8428 45.2402 18.4492C45.2402 18.0556 45.0914 17.6962 44.8474 17.4238C45.0915 17.1515 45.2402 16.7921 45.2402 16.3984C45.2402 16.0048 45.0914 15.6454 44.8474 15.373C45.0915 15.1007 45.2402 14.7413 45.2402 14.3477C45.2402 13.954 45.0914 13.5946 44.8474 13.3223C45.0915 13.0499 45.2402 12.6905 45.2402 12.2969C45.2402 11.9033 45.0914 11.5438 44.8474 11.2715C45.0915 10.9991 45.2402 10.6397 45.2402 10.2461C45.2402 9.55245 44.7786 8.96483 44.1465 8.7737V8.48017C44.1465 8.19702 43.9169 7.96747 43.6338 7.96747C43.3506 7.96747 43.1211 8.19702 43.1211 8.48017V8.70801H27.5352C27.252 8.70801 27.0225 8.93756 27.0225 9.2207C27.0225 9.50385 27.252 9.7334 27.5352 9.7334H43.7021C43.9849 9.7334 44.2148 9.96336 44.2148 10.2461C44.2148 10.5288 43.9849 10.7588 43.7021 10.7588H23.0576C22.7749 10.7588 22.5449 10.5288 22.5449 10.2461C22.5449 9.96336 22.7749 9.7334 23.0576 9.7334H25.3477C25.6308 9.7334 25.8604 9.50385 25.8604 9.2207C25.8604 8.93756 25.6308 8.70801 25.3477 8.70801H23.6387V6.07617H43.1211V6.26983C43.1211 6.55298 43.3506 6.78253 43.6338 6.78253C43.9169 6.78253 44.1465 6.55298 44.1465 6.26983V6.07617H45.6846C46.5327 6.07617 47.2227 5.38622 47.2227 4.53809C47.2227 3.68995 46.5327 3 45.6846 3H21.0752C20.2271 3 19.5371 3.68995 19.5371 4.53809C19.5371 5.38622 20.2271 6.07617 21.0752 6.07617H22.6133V8.7737C21.9812 8.96483 21.5195 9.55245 21.5195 10.2461C21.5195 10.6397 21.6683 10.9991 21.9124 11.2715C21.6683 11.5438 21.5195 11.9033 21.5195 12.2969C21.5195 12.6905 21.6683 13.0499 21.9124 13.3223C21.6683 13.5946 21.5195 13.954 21.5195 14.3477C21.5195 14.7413 21.6683 15.1007 21.9124 15.373C21.6683 15.6454 21.5195 16.0048 21.5195 16.3984C21.5195 16.7921 21.6683 17.1515 21.9124 17.4238C21.6683 17.6962 21.5195 18.0556 21.5195 18.4492C21.5195 18.8428 21.6683 19.2023 21.9124 19.4746C21.6683 19.747 21.5195 20.1064 21.5195 20.5C21.5195 20.8936 21.6683 21.253 21.9124 21.5254C21.6683 21.7977 21.5195 22.1572 21.5195 22.5508C21.5195 22.7305 21.5508 22.903 21.6077 23.0635H17.3154C16.4673 23.0635 15.7773 23.7534 15.7773 24.6016C15.7773 25.4497 16.4673 26.1396 17.3154 26.1396H21.6077C21.5508 26.3001 21.5195 26.4726 21.5195 26.6523C21.5195 27.046 21.6683 27.4054 21.9124 27.6777C21.6683 27.9501 21.5195 28.3095 21.5195 28.7031C21.5195 29.0967 21.6683 29.4562 21.9124 29.7285C21.6683 30.0009 21.5195 30.3603 21.5195 30.7539C21.5195 31.4475 21.9812 32.0352 22.6133 32.2263V34.9238H21.0752C20.2271 34.9238 19.5371 35.6138 19.5371 36.4619C19.5371 37.31 20.2271 38 21.0752 38H45.6846C46.5327 38 47.2227 37.31 47.2227 36.4619C47.2227 35.6138 46.5327 34.9238 45.6846 34.9238ZM21.0752 5.05078C20.7925 5.05078 20.5625 4.82082 20.5625 4.53809C20.5625 4.25535 20.7925 4.02539 21.0752 4.02539H45.6846C45.9673 4.02539 46.1973 4.25535 46.1973 4.53809C46.1973 4.82082 45.9673 5.05078 45.6846 5.05078H21.0752ZM43.7021 27.165H23.0576C22.7749 27.165 22.5449 26.9351 22.5449 26.6523C22.5449 26.3696 22.7749 26.1396 23.0576 26.1396H43.7021C43.9849 26.1396 44.2148 26.3696 44.2148 26.6523C44.2148 26.9351 43.9849 27.165 43.7021 27.165ZM44.2148 28.7031C44.2148 28.9859 43.9849 29.2158 43.7021 29.2158H23.0576C22.7749 29.2158 22.5449 28.9859 22.5449 28.7031C22.5449 28.4204 22.7749 28.1904 23.0576 28.1904H43.7021C43.9849 28.1904 44.2148 28.4204 44.2148 28.7031ZM23.0576 11.7842H43.7021C43.9849 11.7842 44.2148 12.0141 44.2148 12.2969C44.2148 12.5796 43.9849 12.8096 43.7021 12.8096H23.0576C22.7749 12.8096 22.5449 12.5796 22.5449 12.2969C22.5449 12.0141 22.7749 11.7842 23.0576 11.7842ZM23.0576 13.835H43.7021C43.9849 13.835 44.2148 14.0649 44.2148 14.3477C44.2148 14.6304 43.9849 14.8604 43.7021 14.8604H23.0576C22.7749 14.8604 22.5449 14.6304 22.5449 14.3477C22.5449 14.0649 22.7749 13.835 23.0576 13.835ZM23.0576 15.8857H43.7021C43.9849 15.8857 44.2148 16.1157 44.2148 16.3984C44.2148 16.6812 43.9849 16.9111 43.7021 16.9111H23.0576C22.7749 16.9111 22.5449 16.6812 22.5449 16.3984C22.5449 16.1157 22.7749 15.8857 23.0576 15.8857ZM23.0576 17.9365H43.7021C43.9849 17.9365 44.2148 18.1665 44.2148 18.4492C44.2148 18.732 43.9849 18.9619 43.7021 18.9619H23.0576C22.7749 18.9619 22.5449 18.732 22.5449 18.4492C22.5449 18.1665 22.7749 17.9365 23.0576 17.9365ZM23.0576 19.9873H43.7021C43.9849 19.9873 44.2148 20.2173 44.2148 20.5C44.2148 20.7827 43.9849 21.0127 43.7021 21.0127H23.0576C22.7749 21.0127 22.5449 20.7827 22.5449 20.5C22.5449 20.2173 22.7749 19.9873 23.0576 19.9873ZM23.0576 22.0381H43.7021C43.9849 22.0381 44.2148 22.268 44.2148 22.5508C44.2148 22.8335 43.9849 23.0635 43.7021 23.0635H23.0576C22.7749 23.0635 22.5449 22.8335 22.5449 22.5508C22.5449 22.268 22.7749 22.0381 23.0576 22.0381ZM17.3154 25.1143C17.0327 25.1143 16.8027 24.8843 16.8027 24.6016C16.8027 24.3188 17.0327 24.0889 17.3154 24.0889H43.7021C43.9849 24.0889 44.2148 24.3188 44.2148 24.6016C44.2148 24.8843 43.9849 25.1143 43.7021 25.1143H17.3154ZM22.5449 30.7539C22.5449 30.4712 22.7749 30.2412 23.0576 30.2412H43.7021C43.9849 30.2412 44.2148 30.4712 44.2148 30.7539C44.2148 31.0366 43.9849 31.2666 43.7021 31.2666H40.6829C40.3998 31.2666 40.1702 31.4962 40.1702 31.7793C40.1702 32.0624 40.3998 32.292 40.6829 32.292H43.1211V34.9238H23.6387V32.292H38.4727C38.7558 32.292 38.9854 32.0624 38.9854 31.7793C38.9854 31.4962 38.7558 31.2666 38.4727 31.2666H23.0576C22.7749 31.2666 22.5449 31.0366 22.5449 30.7539ZM45.6846 36.9746H21.0752C20.7925 36.9746 20.5625 36.7446 20.5625 36.4619C20.5625 36.1792 20.7925 35.9492 21.0752 35.9492H45.6846C45.9673 35.9492 46.1973 36.1792 46.1973 36.4619C46.1973 36.7446 45.9673 36.9746 45.6846 36.9746Z" fill="#FFD500"/>
<path d="M43.6338 7.96747C43.9169 7.96747 44.1465 8.19702 44.1465 8.48017V6.26983C44.1465 6.55298 43.9169 6.78253 43.6338 6.78253C43.3506 6.78253 43.1211 6.55298 43.1211 6.26983V8.48017C43.1211 8.19702 43.3506 7.96747 43.6338 7.96747Z" fill="#FFD500"/>
<path d="M40.1702 31.7793C40.1702 31.4962 40.3998 31.2666 40.6829 31.2666H38.4727C38.7558 31.2666 38.9854 31.4962 38.9854 31.7793C38.9854 32.0624 38.7558 32.292 38.4727 32.292H40.6829C40.3998 32.292 40.1702 32.0624 40.1702 31.7793Z" fill="#FFD500"/>
<path d="M27.0225 9.2207C27.0225 8.93756 27.252 8.70801 27.5352 8.70801H25.3477C25.6308 8.70801 25.8604 8.93756 25.8604 9.2207C25.8604 9.50385 25.6308 9.7334 25.3477 9.7334H27.5352C27.252 9.7334 27.0225 9.50385 27.0225 9.2207Z" fill="#FFD500"/>
</svg>
