<svg width="62" height="42" viewBox="0 0 62 42" fill="none" xmlns="http://www.w3.org/2000/svg">
<path d="M29.283 9.21855L25.6133 18.1309C25.4889 18.4331 25.2063 18.6408 24.8808 18.6694L6.10994 20.3189C5.64939 20.3593 5.29988 20.7511 5.31194 21.213L5.69367 35.9473C5.7042 36.3525 5.99161 36.6973 6.38823 36.7809L28.4864 41.4291C29.0266 41.5427 29.5757 41.599 30.1248 41.5977L30.1252 37.2279V9.3852C30.125 8.1689 29.7461 8.09394 29.283 9.21855ZM26.7134 36.6963L18.4177 35.3604V31.0122H26.7134V36.6963ZM23.0861 16.5514L0.96424 18.7867C0.28842 18.855 -0.204034 18.1606 0.0838809 17.5455L5.97439 4.95443C6.09423 4.69822 6.33058 4.51567 6.60877 4.46461L30.9158 0.000101252L23.7978 16.036C23.6703 16.323 23.3987 16.5198 23.0861 16.5514ZM55.8901 20.3189L37.1193 18.6695C36.7937 18.6409 36.5111 18.4332 36.3868 18.131L32.717 9.21865C32.2539 8.09394 31.8749 8.1689 31.8749 9.3852V37.2278L31.8753 41.5976C32.4243 41.599 32.9735 41.5426 33.5138 41.429L55.612 36.7808C56.0086 36.6973 56.296 36.3524 56.3064 35.9472L56.6882 21.213C56.7002 20.751 56.3505 20.3593 55.8901 20.3189ZM48.1652 28.189L47.1285 28.2177L47.1075 34.7425C47.1066 35.0299 46.8147 35.3047 46.4516 35.3569L44.7526 35.6013C44.3644 35.6571 44.0468 35.4582 44.0476 35.1563L44.0634 28.3028L42.8776 28.3356C42.301 28.3515 41.9362 27.8893 42.2297 27.5066L45.0498 23.8318C45.3169 23.4835 45.9726 23.5156 46.2301 23.8826L48.7056 27.4106C48.9402 27.7452 48.6435 28.1757 48.1652 28.189ZM61.0357 18.7867L38.9138 16.5514C38.6012 16.5198 38.3295 16.323 38.2021 16.0359L31.0842 0L55.3912 4.46451C55.6694 4.51557 55.9058 4.69812 56.0257 4.95433L61.9162 17.5454C62.204 18.1606 61.7115 18.855 61.0357 18.7867Z" fill="#F0F5F9"/>
<path d="M29.2188 24.6025H21.5625C21.4114 24.6025 21.2891 24.7254 21.2891 24.876V27.0635C21.2891 27.2152 21.4114 27.3369 21.5625 27.3369H29.2188C29.3699 27.3369 29.4922 27.2152 29.4922 27.0635V24.876C29.4922 24.7254 29.3699 24.6025 29.2188 24.6025ZM28.9453 26.7901H21.836V25.1495H28.9453V26.7901Z" fill="#FFD500"/>
<path d="M43.438 10.3818H35.7817C35.6306 10.3818 35.5083 10.5042 35.5083 10.6553C35.5083 10.8064 35.6306 10.9287 35.7817 10.9287H43.438C43.5891 10.9287 43.7114 10.8064 43.7114 10.6553C43.7114 10.5042 43.5892 10.3818 43.438 10.3818Z" fill="#FFD500"/>
<path d="M43.6313 10.4639C43.5245 10.3571 43.3515 10.3571 43.2446 10.4639L29.0259 24.683C28.9191 24.7897 28.9191 24.9627 29.0259 25.0696C29.0793 25.123 29.1493 25.1497 29.2193 25.1497C29.2892 25.1497 29.3592 25.123 29.4126 25.0696L43.6313 10.8505C43.7381 10.7438 43.738 10.5708 43.6313 10.4639Z" fill="#FFD500"/>
<path d="M43.6313 12.6514C43.5245 12.5446 43.3515 12.5446 43.2446 12.6514L29.0259 26.8699C28.9191 26.9767 28.9191 27.1497 29.0259 27.2566C29.0793 27.3099 29.1493 27.3367 29.2193 27.3367C29.2892 27.3367 29.3592 27.31 29.4125 27.2566L43.6313 13.038C43.7381 12.9313 43.738 12.7583 43.6313 12.6514Z" fill="#FFD500"/>
<path d="M35.9748 10.4639C35.868 10.3571 35.695 10.3571 35.5881 10.4639L21.3694 24.683C21.2626 24.7897 21.2626 24.9627 21.3694 25.0696C21.4228 25.123 21.4928 25.1497 21.5627 25.1497C21.6327 25.1497 21.7027 25.123 21.7561 25.0696L35.9748 10.8505C36.0816 10.7438 36.0816 10.5708 35.9748 10.4639Z" fill="#FFD500"/>
<path d="M43.4373 10.3828C43.2861 10.3828 43.1638 10.5051 43.1638 10.6563V12.8443C43.1638 12.9954 43.2861 13.1177 43.4373 13.1177C43.5884 13.1177 43.7107 12.9954 43.7107 12.8443V10.6563C43.7107 10.5051 43.5884 10.3828 43.4373 10.3828Z" fill="#FFD500"/>
<path d="M33.761 20.2856C33.746 20.2739 32.3206 19.1985 30.6653 20.8549L26.8374 24.6828L27.2241 25.0694L31.0519 21.2413C32.3569 19.9369 33.3844 20.6859 33.4256 20.7171C33.5452 20.8108 33.7172 20.7886 33.809 20.6693C33.902 20.55 33.8806 20.3783 33.761 20.2856Z" fill="#FFD500"/>
<path d="M30.7791 13.7442C30.6722 13.6373 30.4992 13.6373 30.3924 13.7442L28.7518 15.3848C28.6449 15.4916 28.6449 15.6646 28.7518 15.7715C28.8052 15.8249 28.8751 15.8516 28.9451 15.8516C29.0151 15.8516 29.085 15.8249 29.1384 15.7715L30.7791 14.1308C30.8859 14.0241 30.8859 13.8511 30.7791 13.7442Z" fill="#FFD500"/>
<path d="M22.9297 27.8838H15.2734C15.1223 27.8838 15 28.0066 15 28.1572V30.3447C15 30.4964 15.1223 30.6181 15.2734 30.6181H22.9297C23.0808 30.6181 23.2031 30.4963 23.2031 30.3447V28.1572C23.2031 28.0066 23.0808 27.8838 22.9297 27.8838ZM22.6562 30.0712H15.5469V28.4306H22.6562V30.0712Z" fill="#FFD500"/>
<path d="M31.4076 13.6621H29.4924C29.3412 13.6621 29.219 13.7844 29.219 13.9355C29.219 14.0866 29.3412 14.209 29.4924 14.209H31.4076C31.5587 14.209 31.681 14.0866 31.681 13.9355C31.681 13.7844 31.5587 13.6621 31.4076 13.6621Z" fill="#FFD500"/>
<path d="M26.3805 27.1073C26.2737 27.0004 25.9998 26.8865 24.9066 27.9796L22.7361 30.1501C22.6293 30.2569 22.6293 30.4298 22.7361 30.5367C22.7895 30.5901 22.8596 30.6168 22.9294 30.6168C22.9994 30.6168 23.0694 30.5901 23.1228 30.5367L25.2932 28.3662C25.4 28.2595 26.4873 27.2141 26.3805 27.1073Z" fill="#FFD500"/>
<path d="M29.6857 13.7432C29.579 13.6364 29.406 13.6364 29.2991 13.7432L15.0804 27.9623C14.9735 28.069 14.9735 28.2421 15.0804 28.3489C15.1338 28.4023 15.2037 28.429 15.2737 28.429C15.3436 28.429 15.4136 28.4023 15.467 28.3489L29.6857 14.1298C29.7926 14.0231 29.7926 13.8501 29.6857 13.7432Z" fill="#FFD500"/>
<path d="M35.5078 27.8838H27.9766H27.8516C27.7004 27.8838 27.5781 28.0066 27.5781 28.1572V30.3447C27.5781 30.4964 27.7004 30.6181 27.8516 30.6181H35.5078C35.6589 30.6181 35.7812 30.4963 35.7812 30.3447V28.1572C35.7812 28.0066 35.659 27.8838 35.5078 27.8838ZM35.2344 30.0712H28.125V28.4306H35.2344V30.0712Z" fill="#FFD500"/>
<path d="M27.5781 28.1572C27.5781 28.0066 27.7004 27.8838 27.8516 27.8838H27.9766V27.3252H27.5781V28.1572Z" fill="#FFD500"/>
<path d="M49.7263 13.6641C49.7263 13.6641 43.8484 13.6641 43.4575 13.6641C43.4491 13.6641 43.4432 13.6641 43.44 13.6641C43.2888 13.6641 43.1665 13.7863 43.1665 13.9375C43.1665 14.0886 43.2888 14.2109 43.44 14.2109H49.7263C49.8775 14.2109 49.9997 14.0886 49.9997 13.9375C49.9997 13.7863 49.8775 13.6641 49.7263 13.6641Z" fill="#FFD500"/>
<path d="M43.1665 13.9375C43.1665 13.7863 43.2888 13.6641 43.44 13.6641V13L43.1665 13.3111V13.9375Z" fill="#FFD500"/>
<path d="M49.9196 13.7432C49.8128 13.6364 49.6399 13.6364 49.533 13.7432L35.3143 27.9623C35.2074 28.069 35.2074 28.2421 35.3143 28.3489C35.3677 28.4023 35.4377 28.429 35.5076 28.429C35.5776 28.429 35.6475 28.4023 35.7009 28.3489L49.9196 14.1298C50.0265 14.0231 50.0264 13.8501 49.9196 13.7432Z" fill="#FFD500"/>
<path d="M49.9196 15.9326C49.8129 15.8258 49.6399 15.8258 49.533 15.9326L35.3143 30.1512C35.2074 30.2579 35.2074 30.4309 35.3143 30.5378C35.3677 30.5912 35.4377 30.6179 35.5076 30.6179C35.5776 30.6179 35.6475 30.5912 35.7009 30.5378L49.9196 16.3193C50.0265 16.2125 50.0265 16.0395 49.9196 15.9326Z" fill="#FFD500"/>
<path d="M49.7265 13.6641C49.5754 13.6641 49.4531 13.7863 49.4531 13.9375V16.1255C49.4531 16.2767 49.5754 16.3989 49.7265 16.3989C49.8777 16.3989 49.9999 16.2767 49.9999 16.1255V13.9375C49.9999 13.7863 49.8777 13.6641 49.7265 13.6641Z" fill="#FFD500"/>
<path d="M32.9668 25.7755C32.86 25.6686 32.687 25.6686 32.5801 25.7755L30.3926 27.9629C30.2858 28.0697 30.2858 28.2428 30.3926 28.3496C30.446 28.4029 30.5161 28.4297 30.5859 28.4297C30.656 28.4297 30.7259 28.4029 30.7792 28.3496L32.9668 26.1621C33.0736 26.0553 33.0736 25.8823 32.9668 25.7755Z" fill="#FFD500"/>
<path d="M37.3416 24.1358C37.2348 24.029 37.0617 24.029 36.9549 24.1358L33.1268 27.9628C33.0199 28.0696 33.0199 28.2426 33.1268 28.3495C33.1801 28.4028 33.2501 28.4296 33.3201 28.4296C33.39 28.4296 33.46 28.4028 33.5134 28.3495L37.3416 24.5224C37.4483 24.4156 37.4483 24.2427 37.3416 24.1358Z" fill="#FFD500"/>
<path d="M44.4284 13.7676C44.3216 13.6607 44.1487 13.661 44.0418 13.7673L41.7058 16.103L42.0924 16.4896L44.4284 14.1545C44.5353 14.0477 44.5352 13.8744 44.4284 13.7676Z" fill="#FFD500"/>
<path d="M37.8899 10.4639C37.7831 10.3571 37.6101 10.3571 37.5032 10.4639L34.7684 13.1993C34.6615 13.3061 34.6615 13.4791 34.7684 13.586C34.8218 13.6393 34.8917 13.6661 34.9617 13.6661C35.0316 13.6661 35.1016 13.6394 35.155 13.586L37.8899 10.8505C37.9967 10.7438 37.9966 10.5708 37.8899 10.4639Z" fill="#FFD500"/>
<path d="M40.6232 10.4639C40.5164 10.3571 40.3435 10.3571 40.2366 10.4639L34.7684 15.9321C34.6615 16.0389 34.6615 16.2119 34.7684 16.3188C34.8218 16.3722 34.8917 16.3989 34.9617 16.3989C35.0316 16.3989 35.1016 16.3722 35.155 16.3188L40.6232 10.8505C40.7301 10.7438 40.73 10.5708 40.6232 10.4639Z" fill="#FFD500"/>
</svg>
