<svg width="62" height="42" viewBox="0 0 62 42" fill="none" xmlns="http://www.w3.org/2000/svg">
<path d="M29.283 9.21855L25.6133 18.1309C25.4889 18.4331 25.2063 18.6408 24.8808 18.6694L6.10994 20.3189C5.64939 20.3593 5.29988 20.7511 5.31194 21.213L5.69367 35.9473C5.7042 36.3525 5.99161 36.6973 6.38823 36.7809L28.4864 41.4291C29.0266 41.5427 29.5757 41.599 30.1248 41.5977L30.1252 37.2279V9.3852C30.125 8.1689 29.7461 8.09394 29.283 9.21855ZM26.7134 36.6963L18.4177 35.3604V31.0122H26.7134V36.6963ZM23.0861 16.5514L0.96424 18.7867C0.28842 18.855 -0.204034 18.1606 0.0838809 17.5455L5.97439 4.95443C6.09423 4.69822 6.33058 4.51567 6.60877 4.46461L30.9158 0.000101252L23.7978 16.036C23.6703 16.323 23.3987 16.5198 23.0861 16.5514ZM55.8901 20.3189L37.1193 18.6695C36.7937 18.6409 36.5111 18.4332 36.3868 18.131L32.717 9.21865C32.2539 8.09394 31.8749 8.1689 31.8749 9.3852V37.2278L31.8753 41.5976C32.4243 41.599 32.9735 41.5426 33.5138 41.429L55.612 36.7808C56.0086 36.6973 56.296 36.3524 56.3064 35.9472L56.6882 21.213C56.7002 20.751 56.3505 20.3593 55.8901 20.3189ZM48.1652 28.189L47.1285 28.2177L47.1075 34.7425C47.1066 35.0299 46.8147 35.3047 46.4516 35.3569L44.7526 35.6013C44.3644 35.6571 44.0468 35.4582 44.0476 35.1563L44.0634 28.3028L42.8776 28.3356C42.301 28.3515 41.9362 27.8893 42.2297 27.5066L45.0498 23.8318C45.3169 23.4835 45.9726 23.5156 46.2301 23.8826L48.7056 27.4106C48.9402 27.7452 48.6435 28.1757 48.1652 28.189ZM61.0357 18.7867L38.9138 16.5514C38.6012 16.5198 38.3295 16.323 38.2021 16.0359L31.0842 0L55.3912 4.46451C55.6694 4.51557 55.9058 4.69812 56.0257 4.95433L61.9162 17.5454C62.204 18.1606 61.7115 18.855 61.0357 18.7867Z" fill="#F0F5F9"/>
<path d="M48.9895 21.0312C48.9858 20.9925 48.9781 20.9542 48.9664 20.917C48.9554 20.8795 48.9405 20.8431 48.922 20.8086C48.9135 20.7928 48.9122 20.775 48.902 20.7597C48.8912 20.7438 48.8747 20.7353 48.8627 20.7207C48.7653 20.6013 48.6242 20.5258 48.4708 20.5109C48.4529 20.5064 48.4348 20.5027 48.4166 20.5H37.3333V3.58331C37.3333 3.56485 37.3245 3.54927 37.3228 3.53122C37.3191 3.49246 37.3114 3.45418 37.2997 3.41699C37.2887 3.37946 37.2739 3.3431 37.2554 3.30864C37.2468 3.29278 37.2455 3.27501 37.2353 3.2597C37.2246 3.24356 37.2078 3.23502 37.1958 3.22032C37.1472 3.16119 37.0877 3.1119 37.0206 3.0752C36.9525 3.03985 36.8784 3.01791 36.8022 3.01053C36.7841 3.00889 36.7685 3 36.75 3H32.0833C32.0657 3 32.0509 3.00854 32.0337 3.01005C31.9552 3.01798 31.879 3.04088 31.8091 3.07766C31.7931 3.08634 31.7751 3.08764 31.7597 3.09803L14.2598 14.7646C14.2436 14.7754 14.2352 14.7921 14.2205 14.8041C14.1897 14.829 14.1617 14.8572 14.1369 14.888C14.0658 14.9759 14.022 15.0827 14.0111 15.1952C14.0064 15.2132 14.0027 15.2315 14 15.25V37.4167C14 37.7389 14.2611 38 14.5833 38H30.9166H30.9168H30.9172C30.9861 37.9985 31.0544 37.9847 31.1185 37.9593C31.1384 37.9513 31.1578 37.9421 31.1767 37.9318C31.1985 37.9232 31.2197 37.9133 31.2402 37.902L48.7402 26.2353C48.7562 26.2246 48.7648 26.2078 48.7794 26.1958C48.8383 26.1475 48.8873 26.0884 48.924 26.0216C48.9592 25.9541 48.9812 25.8806 48.9889 25.8048C48.9935 25.7867 48.9972 25.7685 48.9999 25.75V21.0833C49 21.0649 48.9912 21.0493 48.9895 21.0312ZM32.26 4.16669H34.8234L19.0734 14.6667H16.51L32.26 4.16669ZM36.1667 4.6733V20.7712L19.8333 31.6601V15.5622L36.1667 4.6733ZM30.3333 36.8333H15.1667V15.8333H18.6667V32.75C18.6667 32.7685 18.6755 32.784 18.6772 32.8021C18.6854 32.8799 18.7083 32.9554 18.7447 33.0247C18.7532 33.0405 18.7545 33.0583 18.7647 33.0735C18.7824 33.0974 18.8018 33.1198 18.8229 33.1407C18.8316 33.1502 18.8385 33.1604 18.8477 33.1693C18.8948 33.2144 18.9493 33.2511 19.0088 33.2779C19.0213 33.2837 19.0341 33.2875 19.0472 33.2924C19.1116 33.3179 19.18 33.3317 19.2492 33.3332L19.2501 33.3334H30.3334V36.8333H30.3333ZM30.74 32.1667H21.1766L36.9266 21.6667H46.49L30.74 32.1667ZM47.8333 25.4378L31.5 36.3267V33.0621L47.8333 22.1732V25.4378Z" fill="#FFD500"/>
</svg>
