<svg width="62" height="42" viewBox="0 0 62 42" fill="none" xmlns="http://www.w3.org/2000/svg">
<path d="M29.283 9.21855L25.6133 18.1309C25.4889 18.4331 25.2063 18.6408 24.8808 18.6694L6.10994 20.3189C5.64939 20.3593 5.29988 20.7511 5.31194 21.213L5.69367 35.9473C5.7042 36.3525 5.99161 36.6973 6.38823 36.7809L28.4864 41.4291C29.0266 41.5427 29.5757 41.599 30.1248 41.5977L30.1252 37.2279V9.3852C30.125 8.1689 29.7461 8.09394 29.283 9.21855ZM26.7134 36.6963L18.4177 35.3604V31.0122H26.7134V36.6963ZM23.0861 16.5514L0.96424 18.7867C0.28842 18.855 -0.204034 18.1606 0.0838809 17.5455L5.97439 4.95443C6.09423 4.69822 6.33058 4.51567 6.60877 4.46461L30.9158 0.000101252L23.7978 16.036C23.6703 16.323 23.3987 16.5198 23.0861 16.5514ZM55.8901 20.3189L37.1193 18.6695C36.7937 18.6409 36.5111 18.4332 36.3868 18.131L32.717 9.21865C32.2539 8.09394 31.8749 8.1689 31.8749 9.3852V37.2278L31.8753 41.5976C32.4243 41.599 32.9735 41.5426 33.5138 41.429L55.612 36.7808C56.0086 36.6973 56.296 36.3524 56.3064 35.9472L56.6882 21.213C56.7002 20.751 56.3505 20.3593 55.8901 20.3189ZM48.1652 28.189L47.1285 28.2177L47.1075 34.7425C47.1066 35.0299 46.8147 35.3047 46.4516 35.3569L44.7526 35.6013C44.3644 35.6571 44.0468 35.4582 44.0476 35.1563L44.0634 28.3028L42.8776 28.3356C42.301 28.3515 41.9362 27.8893 42.2297 27.5066L45.0498 23.8318C45.3169 23.4835 45.9726 23.5156 46.2301 23.8826L48.7056 27.4106C48.9402 27.7452 48.6435 28.1757 48.1652 28.189ZM61.0357 18.7867L38.9138 16.5514C38.6012 16.5198 38.3295 16.323 38.2021 16.0359L31.0842 0L55.3912 4.46451C55.6694 4.51557 55.9058 4.69812 56.0257 4.95433L61.9162 17.5454C62.204 18.1606 61.7115 18.855 61.0357 18.7867Z" fill="#F0F5F9"/>
<path d="M46.5221 3.54688H16.4779C15.9659 3.54745 15.4751 3.75109 15.1131 4.1131C14.7511 4.47511 14.5475 4.96593 14.5469 5.47789V35.5221C14.5475 36.0341 14.7511 36.5249 15.1131 36.8869C15.4751 37.2489 15.9659 37.4525 16.4779 37.4531H46.5221C47.0341 37.4525 47.5249 37.2489 47.8869 36.8869C48.2489 36.5249 48.4525 36.0341 48.4531 35.5221V5.47789C48.4525 4.96593 48.2489 4.47511 47.8869 4.1131C47.5249 3.75109 47.0341 3.54745 46.5221 3.54688ZM39.1743 33.8438C38.4458 32.5311 38.0632 31.0548 38.0625 29.5535C38.0618 27.826 37.611 26.1285 36.7544 24.6284L34.0156 19.8323C33.8048 19.4617 33.4772 19.1713 33.0839 19.0064C32.6907 18.8415 32.2539 18.8114 31.8418 18.9208C31.4297 19.0302 31.0654 19.273 30.8057 19.6112C30.546 19.9494 30.4055 20.364 30.4062 20.7904C30.4079 25.9726 29.5722 31.121 27.9316 36.0367L27.8223 36.3594H25.4844V35.8245C25.4824 33.7848 26.0862 31.7905 27.2191 30.0944C28.1676 28.6718 28.7012 27.0132 28.7602 25.3044C28.8191 23.5956 28.401 21.9041 27.5527 20.4196L26.5059 18.5859L25.5566 19.1284L26.6027 20.9599C27.3504 22.2681 27.7189 23.7587 27.6671 25.2645C27.6152 26.7704 27.145 28.2321 26.3091 29.4857C25.0557 31.3619 24.3879 33.5682 24.3906 35.8245V36.3594H21.1094V35.8245C21.1074 33.7848 21.7112 31.7905 22.8441 30.0944C23.8541 28.5829 24.3924 26.8055 24.3906 24.9877C24.39 23.3848 23.9715 21.8098 23.1766 20.418L22.0741 18.5006C22.1597 17.9682 22.2028 17.4299 22.2031 16.8906V16.0703C22.201 14.2259 21.7716 12.407 20.9486 10.7563C20.6947 10.2471 20.5626 9.68583 20.5625 9.1168C20.5612 8.63622 20.6552 8.16015 20.8391 7.71614C21.023 7.27213 21.2931 6.869 21.6338 6.53008L23.5233 4.64062H25.789L25.2235 6.14836C24.9498 6.88147 24.8923 7.67778 25.058 8.44259C25.2237 9.20741 25.6055 9.90855 26.1581 10.4627C26.2918 10.5954 26.3978 10.7534 26.4699 10.9275C26.542 11.1015 26.5788 11.2882 26.5781 11.4766C26.5781 12.2743 26.895 13.0393 27.4591 13.6034C28.0232 14.1675 28.7882 14.4844 29.5859 14.4844C30.3837 14.4844 31.1487 14.1675 31.7128 13.6034C32.2769 13.0393 32.5938 12.2743 32.5938 11.4766C32.5945 10.3678 32.9832 9.29422 33.6924 8.44195L33.8341 8.27188C34.6885 7.24296 35.2023 5.97413 35.3046 4.64062H38.0625V5.17547C38.0645 7.21516 37.4607 9.2095 36.3278 10.9056C35.3793 12.3282 34.8456 13.9868 34.7867 15.6956C34.7278 17.4044 35.1459 19.0959 35.9942 20.5804L37.0409 22.4141L37.9903 21.8716L36.9441 20.0401C36.1965 18.7319 35.8279 17.2413 35.8798 15.7355C35.9317 14.2296 36.4019 12.7679 37.2378 11.5143C38.4912 9.6381 39.1589 7.43182 39.1562 5.17547V4.64062H41.8906V6.25828C41.8937 8.35796 41.4441 10.4336 40.5727 12.3439C39.636 14.3962 39.1529 16.6264 39.1562 18.8823V24.035C39.1544 24.7201 39.2884 25.3988 39.5506 26.0318C39.8128 26.6647 40.1979 27.2394 40.6837 27.7226L40.7777 27.8166C41.1317 28.1686 41.4124 28.5873 41.6034 29.0485C41.7944 29.5097 41.8921 30.0042 41.8906 30.5034C41.8871 31.6493 42.1893 32.7754 42.7661 33.7655C43.3429 34.7557 44.1734 35.5741 45.1719 36.1362V36.3594H40.5716L39.1743 33.8438ZM39.3203 36.3594H28.9762C30.6493 31.3392 31.5015 26.082 31.5 20.7904C31.5003 20.6058 31.5614 20.4265 31.674 20.2803C31.7866 20.1341 31.9444 20.0292 32.1227 19.9818C32.3011 19.9344 32.4901 19.9473 32.6604 20.0183C32.8307 20.0894 32.9728 20.2147 33.0646 20.3748L35.805 25.1709C36.567 26.5059 36.9681 28.0163 36.9688 29.5535C36.9697 31.2406 37.3997 32.8997 38.2184 34.3748L39.3203 36.3594ZM19.9702 11.242C20.7176 12.7405 21.1075 14.3919 21.1094 16.0665V16.8868C21.1125 18.7661 20.5252 20.5989 19.4305 22.1264C19.0458 22.6632 18.4742 23.0366 17.8281 23.1731V4.64062H21.9767L20.8605 5.7568C20.4179 6.19701 20.067 6.72064 19.8281 7.29738C19.5892 7.87413 19.467 8.49253 19.4688 9.1168C19.4697 9.85439 19.6413 10.5818 19.9702 11.242ZM17.8281 24.2827C18.3242 24.2097 18.8006 24.0376 19.2288 23.7767C19.657 23.5158 20.0284 23.1714 20.3208 22.7641C20.9155 21.9319 21.3801 21.0141 21.6989 20.0423L22.2277 20.9621C22.9278 22.1883 23.2963 23.5757 23.2969 24.9877C23.2984 26.5896 22.8241 28.1559 21.9341 29.4879C20.6811 31.3635 20.0134 33.5689 20.0156 35.8245V36.3594H17.8281V24.2827ZM26.9571 4.64062H34.2103C34.1094 5.71791 33.6855 6.73961 32.9941 7.57187L32.8524 7.74195C31.9793 8.79067 31.5008 10.1119 31.5 11.4766C31.5 11.9842 31.2983 12.4711 30.9394 12.83C30.5804 13.189 30.0936 13.3906 29.5859 13.3906C29.0783 13.3906 28.5914 13.189 28.2325 12.83C27.8735 12.4711 27.6719 11.9842 27.6719 11.4766C27.6729 11.1445 27.6079 10.8155 27.4808 10.5087C27.3537 10.202 27.167 9.92345 26.9314 9.68938C26.5275 9.28362 26.2485 8.77041 26.1277 8.21075C26.0069 7.65109 26.0494 7.06851 26.25 6.53227L26.9571 4.64062ZM45.1719 34.8281C44.4924 34.3303 43.9402 33.6791 43.56 32.9275C43.1799 32.1759 42.9827 31.3452 42.9844 30.5029C42.9861 29.86 42.8603 29.2232 42.6143 28.6293C42.3683 28.0353 42.0069 27.4961 41.551 27.0428L41.457 26.9487C41.0732 26.567 40.7689 26.1129 40.5617 25.6127C40.3545 25.1126 40.2486 24.5763 40.25 24.035V18.8823C40.2469 16.7827 40.6965 14.707 41.568 12.7967C42.5046 10.7444 42.9877 8.51424 42.9844 6.25828V4.64062H45.1719V34.8281ZM15.6406 35.5221V5.47789C15.6409 5.25592 15.7292 5.04313 15.8862 4.88617C16.0431 4.72922 16.2559 4.64091 16.4779 4.64062H16.7344V36.3594H16.4779C16.2559 36.3591 16.0431 36.2708 15.8862 36.1138C15.7292 35.9569 15.6409 35.7441 15.6406 35.5221ZM47.3594 35.5221C47.3591 35.7441 47.2708 35.9569 47.1138 36.1138C46.9569 36.2708 46.7441 36.3591 46.5221 36.3594H46.2656V4.64062H46.5221C46.7441 4.64091 46.9569 4.72922 47.1138 4.88617C47.2708 5.04313 47.3591 5.25592 47.3594 5.47789V35.5221Z" fill="#FFD500"/>
</svg>
