<svg width="62" height="42" viewBox="0 0 62 42" fill="none" xmlns="http://www.w3.org/2000/svg">
<path d="M29.283 9.21855L25.6133 18.1309C25.4889 18.4331 25.2063 18.6408 24.8808 18.6694L6.10994 20.3189C5.64939 20.3593 5.29988 20.7511 5.31194 21.213L5.69367 35.9473C5.7042 36.3525 5.99161 36.6973 6.38823 36.7809L28.4864 41.4291C29.0266 41.5427 29.5757 41.599 30.1248 41.5977L30.1252 37.2279V9.3852C30.125 8.1689 29.7461 8.09394 29.283 9.21855ZM26.7134 36.6963L18.4177 35.3604V31.0122H26.7134V36.6963ZM23.0861 16.5514L0.96424 18.7867C0.28842 18.855 -0.204034 18.1606 0.0838809 17.5455L5.97439 4.95443C6.09423 4.69822 6.33058 4.51567 6.60877 4.46461L30.9158 0.000101252L23.7978 16.036C23.6703 16.323 23.3987 16.5198 23.0861 16.5514ZM55.8901 20.3189L37.1193 18.6695C36.7937 18.6409 36.5111 18.4332 36.3868 18.131L32.717 9.21865C32.2539 8.09394 31.8749 8.1689 31.8749 9.3852V37.2278L31.8753 41.5976C32.4243 41.599 32.9735 41.5426 33.5138 41.429L55.612 36.7808C56.0086 36.6973 56.296 36.3524 56.3064 35.9472L56.6882 21.213C56.7002 20.751 56.3505 20.3593 55.8901 20.3189ZM48.1652 28.189L47.1285 28.2177L47.1075 34.7425C47.1066 35.0299 46.8147 35.3047 46.4516 35.3569L44.7526 35.6013C44.3644 35.6571 44.0468 35.4582 44.0476 35.1563L44.0634 28.3028L42.8776 28.3356C42.301 28.3515 41.9362 27.8893 42.2297 27.5066L45.0498 23.8318C45.3169 23.4835 45.9726 23.5156 46.2301 23.8826L48.7056 27.4106C48.9402 27.7452 48.6435 28.1757 48.1652 28.189ZM61.0357 18.7867L38.9138 16.5514C38.6012 16.5198 38.3295 16.323 38.2021 16.0359L31.0842 0L55.3912 4.46451C55.6694 4.51557 55.9058 4.69812 56.0257 4.95433L61.9162 17.5454C62.204 18.1606 61.7115 18.855 61.0357 18.7867Z" fill="#F0F5F9"/>
<g clip-path="url(#clip0)">
<path d="M46.0723 37.3045L40.2998 7.85375L40.3204 7.72373C40.5073 6.54344 40.168 5.34045 39.3918 4.43182C38.6157 3.52312 37.4806 2.99996 36.2855 3.00003H25.8591C23.8489 2.99203 22.1355 4.45622 21.8298 6.44309L16.9239 37.325C16.9214 37.3407 16.927 37.3551 16.9258 37.3706C16.9245 37.3866 16.9165 37.4004 16.9165 37.4167C16.9196 37.4403 16.9244 37.4636 16.9306 37.4865C16.9449 37.6373 17.0218 37.7751 17.1426 37.8665C17.1707 37.8898 17.2009 37.9101 17.233 37.9275C17.2681 37.9449 17.3049 37.9586 17.3429 37.9684C17.3641 37.9778 17.3859 37.986 17.4081 37.9926C17.4383 37.9976 17.4688 38 17.4994 38L17.4998 38H19.8622C19.8842 37.997 19.906 37.9926 19.9275 37.9868C19.9703 37.9832 20.0124 37.9747 20.0532 37.9615C20.1222 37.9345 20.1865 37.897 20.2438 37.8501C20.331 37.7505 20.3971 37.6342 20.4381 37.5083L21.9354 28.0833H33.5436L32.0757 37.3249C32.0733 37.3406 32.0788 37.355 32.0777 37.3706C32.0764 37.3866 32.0684 37.4003 32.0684 37.4167C32.0716 37.4402 32.0762 37.4636 32.0824 37.4865C32.0968 37.6372 32.1736 37.7751 32.2944 37.8665C32.3225 37.8897 32.3528 37.9101 32.3849 37.9274C32.42 37.9449 32.4568 37.9585 32.4947 37.9683C32.5159 37.9777 32.5377 37.9859 32.5599 37.9926C32.5901 37.9974 32.6206 37.9999 32.6513 37.9999L32.6517 38H35.014C35.036 37.9969 35.0578 37.9925 35.0793 37.9868C35.1525 37.9825 35.2236 37.9607 35.2867 37.9234C35.326 37.9033 35.3627 37.8786 35.396 37.8497C35.483 37.7501 35.5489 37.634 35.5899 37.5083L36.6315 30.9502L38.7185 32.6217C38.9313 32.7924 39.234 32.7926 39.4471 32.6223L41.3364 31.1126L42.5939 37.5288C42.6475 37.8025 42.8875 37.9999 43.1664 37.9998H45.4997C45.6741 38 45.8394 37.922 45.9503 37.7874C46.0613 37.6529 46.106 37.4756 46.0723 37.3045ZM22.1208 26.9167L22.3062 25.75H33.9141L33.7289 26.9167H22.1208ZM35.4893 15.8334L35.3039 17.0001H23.6963L23.8816 15.8334H35.4893ZM24.067 14.6667L25.2865 6.99051C25.3287 6.7073 25.5727 6.49826 25.859 6.50003H36.2855C36.4559 6.50024 36.6177 6.57454 36.729 6.70361C36.8402 6.83267 36.8898 7.0037 36.8649 7.17221L35.6745 14.6667H24.067V14.6667ZM35.1186 18.1667L34.0995 24.5834H22.4916L23.511 18.1667H35.1186ZM34.5162 36.8334H33.3349L38.0179 7.35118C38.0947 6.84607 37.9474 6.33255 37.6146 5.94489C37.2818 5.55722 36.7965 5.33396 36.2856 5.33341H25.8591C24.9966 5.32835 24.2615 5.95808 24.1342 6.81114L19.3644 36.8334H18.183L22.9817 6.62595C23.2002 5.20715 24.4235 4.16153 25.8591 4.16672H36.2856C37.1392 4.16659 37.95 4.54017 38.5046 5.18904C39.0592 5.8379 39.3018 6.69711 39.1686 7.54026L34.5162 36.8334ZM39.0837 31.4199L36.8421 29.6247L38.7233 17.7795L41.0835 29.8217L39.0837 31.4199ZM43.6467 36.8334L42.2876 29.8986L42.2872 29.8964L39.2556 14.4282L39.7676 11.2047L44.7912 36.8334H43.6467Z" fill="#FFD500"/>
</g>
<defs>
<clipPath id="clip0">
<rect width="35" height="35" fill="white" transform="translate(14 3)"/>
</clipPath>
</defs>
</svg>
