<svg width="62" height="42" viewBox="0 0 62 42" fill="none" xmlns="http://www.w3.org/2000/svg">
<path d="M29.283 9.21855L25.6133 18.1309C25.4889 18.4331 25.2063 18.6408 24.8808 18.6694L6.10994 20.3189C5.64939 20.3593 5.29988 20.7511 5.31194 21.213L5.69367 35.9473C5.7042 36.3525 5.99161 36.6973 6.38823 36.7809L28.4864 41.4291C29.0266 41.5427 29.5757 41.599 30.1248 41.5977L30.1252 37.2279V9.3852C30.125 8.1689 29.7461 8.09394 29.283 9.21855ZM26.7134 36.6963L18.4177 35.3604V31.0122H26.7134V36.6963ZM23.0861 16.5514L0.96424 18.7867C0.28842 18.855 -0.204034 18.1606 0.0838809 17.5455L5.97439 4.95443C6.09423 4.69822 6.33058 4.51567 6.60877 4.46461L30.9158 0.000101252L23.7978 16.036C23.6703 16.323 23.3987 16.5198 23.0861 16.5514ZM55.8901 20.3189L37.1193 18.6695C36.7937 18.6409 36.5111 18.4332 36.3868 18.131L32.717 9.21865C32.2539 8.09394 31.8749 8.1689 31.8749 9.3852V37.2278L31.8753 41.5976C32.4243 41.599 32.9735 41.5426 33.5138 41.429L55.612 36.7808C56.0086 36.6973 56.296 36.3524 56.3064 35.9472L56.6882 21.213C56.7002 20.751 56.3505 20.3593 55.8901 20.3189ZM48.1652 28.189L47.1285 28.2177L47.1075 34.7425C47.1066 35.0299 46.8147 35.3047 46.4516 35.3569L44.7526 35.6013C44.3644 35.6571 44.0468 35.4582 44.0476 35.1563L44.0634 28.3028L42.8776 28.3356C42.301 28.3515 41.9362 27.8893 42.2297 27.5066L45.0498 23.8318C45.3169 23.4835 45.9726 23.5156 46.2301 23.8826L48.7056 27.4106C48.9402 27.7452 48.6435 28.1757 48.1652 28.189ZM61.0357 18.7867L38.9138 16.5514C38.6012 16.5198 38.3295 16.323 38.2021 16.0359L31.0842 0L55.3912 4.46451C55.6694 4.51557 55.9058 4.69812 56.0257 4.95433L61.9162 17.5454C62.204 18.1606 61.7115 18.855 61.0357 18.7867Z" fill="#F0F5F9"/>
<path d="M44.0781 10.6562C44.2232 10.6562 44.3623 10.5986 44.4648 10.4961C44.5674 10.3935 44.625 10.2544 44.625 10.1094V4.64062C44.625 4.49558 44.5674 4.35648 44.4648 4.25393C44.3623 4.15137 44.2232 4.09375 44.0781 4.09375H18.9219C18.7768 4.09375 18.6377 4.15137 18.5352 4.25393C18.4326 4.35648 18.375 4.49558 18.375 4.64062V10.1094C18.375 10.2544 18.4326 10.3935 18.5352 10.4961C18.6377 10.5986 18.7768 10.6562 18.9219 10.6562H19.4688V34.1719H18.9219C18.7768 34.1719 18.6377 34.2295 18.5352 34.3321C18.4326 34.4346 18.375 34.5737 18.375 34.7188V36.3594C18.375 36.5044 18.4326 36.6435 18.5352 36.7461C18.6377 36.8486 18.7768 36.9062 18.9219 36.9062H44.0781C44.2232 36.9062 44.3623 36.8486 44.4648 36.7461C44.5674 36.6435 44.625 36.5044 44.625 36.3594V34.7188C44.625 34.5737 44.5674 34.4346 44.4648 34.3321C44.3623 34.2295 44.2232 34.1719 44.0781 34.1719H43.5312V10.6562H44.0781ZM43.5312 35.8125H19.4688V35.2656H43.5312V35.8125ZM20.5625 34.1719V10.6562H21.1094V34.1719H20.5625ZM30.7289 27.7844L28.4102 30.1031L26.0859 27.7789L28.4047 25.4602L30.7289 27.7844ZM26.0805 21.5938L28.4047 19.2695L30.7289 21.5938L28.4047 23.918L26.0805 21.5938ZM29.1758 24.6891L31.5 22.3648L33.8242 24.6891L31.5 27.0133L29.1758 24.6891ZM32.2711 21.5938L34.5953 19.2695L36.9195 21.5938L34.5953 23.918L32.2711 21.5938ZM34.5953 25.4602L36.9141 27.7789L34.5898 30.1031L32.2711 27.7844L34.5953 25.4602ZM35.3664 24.6891L37.6906 22.3648L40.0094 24.6836L37.6852 27.0078L35.3664 24.6891ZM35.3664 18.4984L37.6852 16.1797L40.0094 18.5039L37.6906 20.8227L35.3664 18.4984ZM34.5953 17.7273L32.2711 15.4031L34.5898 13.0844L36.9141 15.4086L34.5953 17.7273ZM33.8242 18.4984L31.5 20.8227L29.1758 18.4984L31.5 16.1742L33.8242 18.4984ZM28.4047 17.7273L26.0859 15.4086L28.4102 13.0844L30.7289 15.4031L28.4047 17.7273ZM27.6336 18.4984L25.3094 20.8227L22.9906 18.5039L25.3148 16.1797L27.6336 18.4984ZM27.6336 24.6891L25.3148 27.0078L22.9906 24.6836L25.3094 22.3648L27.6336 24.6891ZM27.6391 30.8742L25.3148 33.1984L22.9906 30.8742L25.3148 28.55L27.6391 30.8742ZM28.4102 31.6453L30.7289 33.9641L30.5211 34.1719H26.2883L26.0859 33.9695L28.4102 31.6453ZM29.1813 30.8742L31.5 28.5555L33.8188 30.8742L31.5 33.193L29.1813 30.8742ZM34.5898 31.6453L36.9141 33.9695L36.7117 34.1719H32.4789L32.2711 33.9641L34.5898 31.6453ZM35.3609 30.8742L37.6852 28.55L40.0094 30.8742L37.6852 33.1984L35.3609 30.8742ZM40.7969 31.6289V34.1719H38.2539L40.7969 31.6289ZM40.7805 30.1031L38.4563 27.7789L40.7805 25.4547L40.7969 25.4711V30.0867L40.7805 30.1031ZM40.7805 23.9125L38.4617 21.5938L40.7805 19.275L40.7969 19.2914V23.8961L40.7805 23.9125ZM40.7805 17.7328L38.4563 15.4086L40.7805 13.0844L40.7969 13.1008V17.7164L40.7805 17.7328ZM39.8945 10.6562H40.7969V11.5586L39.8945 10.6562ZM40.0094 12.3133L37.6852 14.6375L35.3609 12.3133L37.018 10.6562H38.3523L40.0094 12.3133ZM34.5898 11.5422L33.7039 10.6562H35.4758L34.5898 11.5422ZM33.8188 12.3133L31.5 14.632L29.1813 12.3133L30.8383 10.6562H32.1617L33.8188 12.3133ZM28.4102 11.5422L27.5242 10.6562H29.2961L28.4102 11.5422ZM27.6391 12.3133L25.3148 14.6375L22.9906 12.3133L24.6477 10.6562H25.982L27.6391 12.3133ZM22.2031 11.5586V10.6562H23.1055L22.2031 11.5586ZM22.2195 13.0844L24.5438 15.4086L22.2195 17.7328L22.2031 17.7164V13.1008L22.2195 13.0844ZM22.2195 19.275L24.5383 21.5938L22.2195 23.9125L22.2031 23.8961V19.2914L22.2195 19.275ZM22.2195 25.4547L24.5438 27.7789L22.2195 30.1031L22.2031 30.0867V25.4711L22.2195 25.4547ZM24.7461 34.1719H22.2031V31.6289L24.7461 34.1719ZM41.8906 34.1719V10.6562H42.4375V34.1719H41.8906ZM19.4688 9.5625V5.1875H43.5312V9.5625H19.4688Z" fill="#FFD500"/>
</svg>
