<svg width="62" height="42" viewBox="0 0 62 42" fill="none" xmlns="http://www.w3.org/2000/svg">
<path d="M29.283 9.21855L25.6133 18.1309C25.4889 18.4331 25.2063 18.6408 24.8808 18.6694L6.10994 20.3189C5.64939 20.3593 5.29988 20.7511 5.31194 21.213L5.69367 35.9473C5.7042 36.3525 5.99161 36.6973 6.38823 36.7809L28.4864 41.4291C29.0266 41.5427 29.5757 41.599 30.1248 41.5977L30.1252 37.2279V9.3852C30.125 8.1689 29.7461 8.09394 29.283 9.21855ZM26.7134 36.6963L18.4177 35.3604V31.0122H26.7134V36.6963ZM23.0861 16.5514L0.96424 18.7867C0.28842 18.855 -0.204034 18.1606 0.0838809 17.5455L5.97439 4.95443C6.09423 4.69822 6.33058 4.51567 6.60877 4.46461L30.9158 0.000101252L23.7978 16.036C23.6703 16.323 23.3987 16.5198 23.0861 16.5514ZM55.8901 20.3189L37.1193 18.6695C36.7937 18.6409 36.5111 18.4332 36.3868 18.131L32.717 9.21865C32.2539 8.09394 31.8749 8.1689 31.8749 9.3852V37.2278L31.8753 41.5976C32.4243 41.599 32.9735 41.5426 33.5138 41.429L55.612 36.7808C56.0086 36.6973 56.296 36.3524 56.3064 35.9472L56.6882 21.213C56.7002 20.751 56.3505 20.3593 55.8901 20.3189ZM48.1652 28.189L47.1285 28.2177L47.1075 34.7425C47.1066 35.0299 46.8147 35.3047 46.4516 35.3569L44.7526 35.6013C44.3644 35.6571 44.0468 35.4582 44.0476 35.1563L44.0634 28.3028L42.8776 28.3356C42.301 28.3515 41.9362 27.8893 42.2297 27.5066L45.0498 23.8318C45.3169 23.4835 45.9726 23.5156 46.2301 23.8826L48.7056 27.4106C48.9402 27.7452 48.6435 28.1757 48.1652 28.189ZM61.0357 18.7867L38.9138 16.5514C38.6012 16.5198 38.3295 16.323 38.2021 16.0359L31.0842 0L55.3912 4.46451C55.6694 4.51557 55.9058 4.69812 56.0257 4.95433L61.9162 17.5454C62.204 18.1606 61.7115 18.855 61.0357 18.7867Z" fill="#F0F5F9"/>
<g clip-path="url(#clip0)">
<path d="M47.8335 34.6073V14.6667C47.8335 8.86768 43.1324 4.16667 37.3335 4.16667C31.5345 4.16667 26.8335 8.86768 26.8335 14.6667V15.9407C26.1368 16.187 25.6699 16.8444 25.6668 17.5833V23.4167C25.6699 24.1556 26.1368 24.813 26.8335 25.0593V26.3333C26.8335 26.9777 26.3111 27.5 25.6668 27.5C25.0225 27.5 24.5001 26.9777 24.5001 26.3333V6.39267C25.3031 6.10984 25.785 5.28909 25.6408 4.45007C25.4965 3.61104 24.7681 2.99839 23.9168 3H15.7501C14.8988 2.99839 14.1704 3.61104 14.0261 4.45007C13.8819 5.28909 14.3638 6.10984 15.1668 6.39267V26.3333C15.1668 32.1323 19.8678 36.8333 25.6668 36.8333C31.4658 36.8333 36.1668 32.1323 36.1668 26.3333V25.0593C36.8635 24.813 37.3304 24.1556 37.3335 23.4167V17.5833C37.3304 16.8444 36.8635 16.187 36.1668 15.9407V14.6667C36.1668 14.0223 36.6891 13.5 37.3335 13.5C37.9778 13.5 38.5001 14.0223 38.5001 14.6667V34.6073C37.6971 34.8902 37.2152 35.7109 37.3595 36.5499C37.5037 37.389 38.2321 38.0016 39.0835 38H47.2501C48.1015 38.0016 48.8298 37.389 48.9741 36.5499C49.1184 35.7109 48.6364 34.8902 47.8335 34.6073ZM15.7501 4.16667H23.9168C24.239 4.16667 24.5001 4.42784 24.5001 4.75C24.5001 5.07217 24.239 5.33334 23.9168 5.33334H15.7501C15.428 5.33334 15.1668 5.07217 15.1668 4.75C15.1668 4.42784 15.428 4.16667 15.7501 4.16667ZM25.6668 35.6667C20.5147 35.6606 16.3396 31.4855 16.3335 26.3333V6.5H23.3335V26.3333C23.3335 27.622 24.3781 28.6667 25.6668 28.6667C26.9555 28.6667 28.0001 27.622 28.0001 26.3333V25.1667H35.0001V26.3333C34.994 31.4855 30.8189 35.6606 25.6668 35.6667ZM36.1668 23.4167C36.1668 23.7388 35.9056 24 35.5835 24H27.4168C27.0946 24 26.8335 23.7388 26.8335 23.4167V17.5833C26.8335 17.2612 27.0946 17 27.4168 17H35.5835C35.9056 17 36.1668 17.2612 36.1668 17.5833V23.4167ZM37.3335 12.3333C36.0448 12.3333 35.0001 13.378 35.0001 14.6667V15.8333H28.0001V14.6667C28.0001 9.51201 32.1788 5.33334 37.3335 5.33334C42.4881 5.33334 46.6668 9.51201 46.6668 14.6667V34.5H39.6668V14.6667C39.6668 13.378 38.6221 12.3333 37.3335 12.3333ZM47.2501 36.8333H39.0835C38.7613 36.8333 38.5001 36.5722 38.5001 36.25C38.5001 35.9278 38.7613 35.6667 39.0835 35.6667H47.2501C47.5723 35.6667 47.8335 35.9278 47.8335 36.25C47.8335 36.5722 47.5723 36.8333 47.2501 36.8333Z" fill="#FFD500"/>
<path d="M18.0831 7.66602C17.7609 7.66602 17.4998 7.92718 17.4998 8.24935V9.41602C17.4998 9.73818 17.7609 9.99935 18.0831 9.99935C18.4053 9.99935 18.6664 9.73818 18.6664 9.41602V8.24935C18.6664 7.92718 18.4053 7.66602 18.0831 7.66602Z" fill="#FFD500"/>
<path d="M18.0831 11.167C17.7609 11.167 17.4998 11.4282 17.4998 11.7503V19.917C17.4998 20.2392 17.7609 20.5003 18.0831 20.5003C18.4053 20.5003 18.6664 20.2392 18.6664 19.917V11.7503C18.6664 11.4282 18.4053 11.167 18.0831 11.167Z" fill="#FFD500"/>
</g>
<defs>
<clipPath id="clip0">
<rect width="35" height="35" fill="white" transform="translate(14 3)"/>
</clipPath>
</defs>
</svg>
