<svg width="62" height="42" viewBox="0 0 62 42" fill="none" xmlns="http://www.w3.org/2000/svg">
<path d="M29.283 9.21855L25.6133 18.1309C25.4889 18.4331 25.2063 18.6408 24.8808 18.6694L6.10994 20.3189C5.64939 20.3593 5.29988 20.7511 5.31194 21.213L5.69367 35.9473C5.7042 36.3525 5.99161 36.6973 6.38823 36.7809L28.4864 41.4291C29.0266 41.5427 29.5757 41.599 30.1248 41.5977L30.1252 37.2279V9.3852C30.125 8.1689 29.7461 8.09394 29.283 9.21855ZM26.7134 36.6963L18.4177 35.3604V31.0122H26.7134V36.6963ZM23.0861 16.5514L0.96424 18.7867C0.28842 18.855 -0.204034 18.1606 0.0838809 17.5455L5.97439 4.95443C6.09423 4.69822 6.33058 4.51567 6.60877 4.46461L30.9158 0.000101252L23.7978 16.036C23.6703 16.323 23.3987 16.5198 23.0861 16.5514ZM55.8901 20.3189L37.1193 18.6695C36.7937 18.6409 36.5111 18.4332 36.3868 18.131L32.717 9.21865C32.2539 8.09394 31.8749 8.1689 31.8749 9.3852V37.2278L31.8753 41.5976C32.4243 41.599 32.9735 41.5426 33.5138 41.429L55.612 36.7808C56.0086 36.6973 56.296 36.3524 56.3064 35.9472L56.6882 21.213C56.7002 20.751 56.3505 20.3593 55.8901 20.3189ZM48.1652 28.189L47.1285 28.2177L47.1075 34.7425C47.1066 35.0299 46.8147 35.3047 46.4516 35.3569L44.7526 35.6013C44.3644 35.6571 44.0468 35.4582 44.0476 35.1563L44.0634 28.3028L42.8776 28.3356C42.301 28.3515 41.9362 27.8893 42.2297 27.5066L45.0498 23.8318C45.3169 23.4835 45.9726 23.5156 46.2301 23.8826L48.7056 27.4106C48.9402 27.7452 48.6435 28.1757 48.1652 28.189ZM61.0357 18.7867L38.9138 16.5514C38.6012 16.5198 38.3295 16.323 38.2021 16.0359L31.0842 0L55.3912 4.46451C55.6694 4.51557 55.9058 4.69812 56.0257 4.95433L61.9162 17.5454C62.204 18.1606 61.7115 18.855 61.0357 18.7867Z" fill="#F0F5F9"/>
<g clip-path="url(#clip0)">
<path d="M44.3551 18.7163C43.8408 10.4923 39.4063 8.71387 37.9031 8.34702C37.9258 7.68674 38.27 6.20705 40.5971 4.65608C40.7594 4.54794 40.8569 4.36585 40.8569 4.17095C40.8569 3.97577 40.7594 3.79368 40.5971 3.68555C39.1548 2.85974 37.3862 2.84585 35.9311 3.64897C34.936 4.14745 34.7267 4.02383 34.2229 3.72587C33.4181 3.21457 32.4759 2.9628 31.5235 3.00445C30.5717 2.96333 29.6305 3.21511 28.8264 3.72587C28.3231 4.02383 28.1137 4.14638 27.1181 3.64897C25.6627 2.84639 23.8944 2.86027 22.4521 3.68555C22.2898 3.79368 22.1923 3.97577 22.1923 4.17095C22.1923 4.36585 22.2898 4.54794 22.4521 4.65608C24.7851 6.20999 25.1245 7.69208 25.1472 8.34648C23.6437 8.7128 19.2073 10.4875 18.6918 18.7163C18.4432 22.6916 18.5051 28.2232 20.2083 31.9835C20.1995 32.01 20.1923 32.0372 20.1872 32.0647L19.4377 36.264C19.3261 36.656 19.4303 37.0778 19.712 37.3723C19.9939 37.6719 20.4163 37.7947 20.8149 37.6932L24.6847 36.9085C25.349 37.3776 26.7798 38 31.5235 38C36.267 38 37.6978 37.3776 38.4059 36.9093L42.1889 37.6831C42.5902 37.7971 43.0217 37.685 43.3164 37.3897C43.6112 37.0946 43.7231 36.6629 43.6085 36.2619L42.8591 32.0623C42.8529 32.0404 42.8452 32.0191 42.8359 31.9982C44.5406 28.2216 44.6026 22.6905 44.3551 18.7163ZM23.962 4.3226C24.8564 4.13117 25.7898 4.26226 26.5967 4.69292C28.0518 5.42022 28.6598 5.17992 29.4202 4.7303C30.0452 4.32741 30.781 4.1317 31.5235 4.17095C32.2658 4.1317 33.0016 4.32741 33.6267 4.7303C34.3884 5.17992 34.9945 5.42022 36.4501 4.69292C37.257 4.26173 38.1904 4.13036 39.0848 4.3226C36.9636 6.05887 36.7179 7.74494 36.739 8.52777C35.399 9.35759 33.8889 9.87369 32.3213 10.0379L33.2435 7.27156C33.3452 6.96532 33.1797 6.63478 32.8737 6.53305C32.5678 6.43133 32.237 6.59686 32.1352 6.90284L31.5235 8.74244L30.9105 6.90284C30.8085 6.59686 30.478 6.43133 30.172 6.53305C29.866 6.63478 29.7005 6.96532 29.8022 7.27156L30.7279 10.0478C29.9979 9.9901 29.2773 9.8486 28.5797 9.62619C28.5879 9.57306 28.5943 9.53755 28.5943 9.53461C28.6381 9.31621 28.5535 9.09193 28.3767 8.95683C28.1997 8.82147 27.9613 8.79877 27.7621 8.89809C27.6254 8.97232 27.4949 9.05669 27.3712 9.15067C27.0028 8.97792 26.6469 8.77955 26.3062 8.55687C26.3324 7.78713 26.1113 6.0821 23.962 4.3226ZM41.7729 31.5198C41.6605 31.7659 41.64 32.0439 41.7147 32.3037L42.4637 36.551L38.6806 35.7765C38.3399 35.683 37.9755 35.749 37.689 35.9556C36.6613 36.6811 33.769 36.8335 31.5235 36.8335C29.2778 36.8335 26.3855 36.6811 25.3589 35.9586C25.1584 35.8147 24.9184 35.7356 24.6714 35.7322C24.5819 35.7319 24.493 35.7442 24.4071 35.769L20.5575 36.5855C20.5663 36.5588 20.5733 36.5315 20.5786 36.5038L21.3281 32.3045C21.4036 32.045 21.3841 31.7673 21.2733 31.5211C19.6658 27.9631 19.615 22.6323 19.8553 18.7892C20.3447 10.9588 24.5699 9.64942 25.5503 9.45051C25.8624 9.65502 26.186 9.84165 26.5198 10.0093C25.6686 11.2215 25.3698 12.7372 25.6972 14.1819C25.7442 14.4639 25.9885 14.6703 26.2742 14.6695C26.3065 14.6697 26.339 14.6671 26.3708 14.6614C26.6883 14.608 26.9024 14.3079 26.8498 13.9905C26.6084 12.9196 26.7881 11.7969 27.352 10.8549C27.3528 12.2056 27.862 13.5064 28.7786 14.4986C29.0074 14.7197 29.3713 14.7164 29.5964 14.4916C29.8212 14.2666 29.8244 13.9026 29.6033 13.6738C28.8955 12.8827 28.5097 11.8553 28.5215 10.7938C29.4933 11.0754 30.4999 11.2193 31.5118 11.2212C33.6248 11.1993 35.6892 10.5847 37.4698 9.44703C38.3826 9.63553 42.7 10.9419 43.1904 18.7892C43.4302 22.6315 43.3795 27.9597 41.7729 31.5198Z" fill="#FFD500"/>
<path d="M23.9208 19.4886C23.9758 19.2876 23.919 19.0724 23.7724 18.9245C23.6255 18.7766 23.4111 18.7181 23.2096 18.7712C23.008 18.8241 22.8499 18.9808 22.7952 19.1819C22.7218 19.4526 21.0146 25.8677 23.4194 30.6779C23.5633 30.9662 23.9136 31.0832 24.202 30.9393C24.4903 30.7954 24.6073 30.4448 24.4634 30.1564C22.2599 25.751 23.904 19.5506 23.9208 19.4886Z" fill="#FFD500"/>
<path d="M39.4887 18.7727C39.1782 18.8578 38.9955 19.1785 39.0804 19.489C39.0973 19.551 40.7462 25.741 38.5379 30.1568C38.4428 30.3434 38.4551 30.5669 38.5702 30.7418C38.685 30.9169 38.8853 31.0168 39.0943 31.0037C39.3031 30.9906 39.4892 30.8665 39.5813 30.6783C41.9867 25.8681 40.2814 19.453 40.2061 19.1822C40.1655 19.0327 40.067 18.9054 39.9324 18.8287C39.7976 18.7518 39.6382 18.7318 39.4887 18.7727Z" fill="#FFD500"/>
</g>
<defs>
<clipPath id="clip0">
<rect width="35" height="35" fill="white" transform="translate(14 3)"/>
</clipPath>
</defs>
</svg>
