<svg width="62" height="42" viewBox="0 0 62 42" fill="none" xmlns="http://www.w3.org/2000/svg">
<path d="M29.283 9.21855L25.6133 18.1309C25.4889 18.4331 25.2063 18.6408 24.8808 18.6694L6.10994 20.3189C5.64939 20.3593 5.29988 20.7511 5.31194 21.213L5.69367 35.9473C5.7042 36.3525 5.99161 36.6973 6.38823 36.7809L28.4864 41.4291C29.0266 41.5427 29.5757 41.599 30.1248 41.5977L30.1252 37.2279V9.3852C30.125 8.1689 29.7461 8.09394 29.283 9.21855ZM26.7134 36.6963L18.4177 35.3604V31.0122H26.7134V36.6963ZM23.0861 16.5514L0.96424 18.7867C0.28842 18.855 -0.204034 18.1606 0.0838809 17.5455L5.97439 4.95443C6.09423 4.69822 6.33058 4.51567 6.60877 4.46461L30.9158 0.000101252L23.7978 16.036C23.6703 16.323 23.3987 16.5198 23.0861 16.5514ZM55.8901 20.3189L37.1193 18.6695C36.7937 18.6409 36.5111 18.4332 36.3868 18.131L32.717 9.21865C32.2539 8.09394 31.8749 8.1689 31.8749 9.3852V37.2278L31.8753 41.5976C32.4243 41.599 32.9735 41.5426 33.5138 41.429L55.612 36.7808C56.0086 36.6973 56.296 36.3524 56.3064 35.9472L56.6882 21.213C56.7002 20.751 56.3505 20.3593 55.8901 20.3189ZM48.1652 28.189L47.1285 28.2177L47.1075 34.7425C47.1066 35.0299 46.8147 35.3047 46.4516 35.3569L44.7526 35.6013C44.3644 35.6571 44.0468 35.4582 44.0476 35.1563L44.0634 28.3028L42.8776 28.3356C42.301 28.3515 41.9362 27.8893 42.2297 27.5066L45.0498 23.8318C45.3169 23.4835 45.9726 23.5156 46.2301 23.8826L48.7056 27.4106C48.9402 27.7452 48.6435 28.1757 48.1652 28.189ZM61.0357 18.7867L38.9138 16.5514C38.6012 16.5198 38.3295 16.323 38.2021 16.0359L31.0842 0L55.3912 4.46451C55.6694 4.51557 55.9058 4.69812 56.0257 4.95433L61.9162 17.5454C62.204 18.1606 61.7115 18.855 61.0357 18.7867Z" fill="#F0F5F9"/>
<path d="M30.8751 6.25613C30.8208 5.96089 30.5376 5.76586 30.2424 5.8198C28.2227 6.19099 27.0419 7.40198 26.0931 8.37507C25.1058 9.38775 24.4537 10.0567 23.0215 10.0567C21.5895 10.0567 20.9373 9.38782 19.9499 8.37507C18.853 7.25001 17.3506 5.70898 14.5435 5.70898C14.2433 5.70898 14 5.95234 14 6.25244V13.2393C14 13.5394 14.2434 13.7827 14.5435 13.7827C14.8436 13.7827 15.0869 13.5394 15.0869 13.2393V6.81921C17.0853 6.99428 18.1889 8.12597 19.1718 9.13414C20.0713 10.0566 20.8664 10.871 22.2609 11.0872V26.5726C22.2609 26.8728 22.5043 27.1161 22.8044 27.1161C23.1045 27.1161 23.3478 26.8727 23.3478 26.5726V11.1339C25.0201 11.0325 25.8825 10.1483 26.8715 9.13393C27.7564 8.22625 28.7594 7.19751 30.4388 6.88894C30.734 6.83466 30.9294 6.55138 30.8751 6.25613Z" fill="#FFD500"/>
<path d="M48.4566 5.70898C45.6496 5.70898 44.1471 7.24994 43.0499 8.37521C42.0626 9.38782 41.4102 10.0568 39.9782 10.0568C38.546 10.0568 37.8938 9.38782 36.9063 8.37507C35.9577 7.40218 34.7771 6.19133 32.7578 5.82C32.6908 5.80774 32.6244 5.80832 32.5611 5.82C32.3458 5.85976 32.1671 6.02811 32.125 6.2562C32.0708 6.55145 32.2661 6.83473 32.5612 6.88901C34.2403 7.19772 35.2432 8.22632 36.1281 9.13386C37.1173 10.1484 37.9798 11.0325 39.6523 11.1338V17.8769C39.6523 18.1771 39.8957 18.4204 40.1958 18.4204C40.4959 18.4204 40.7392 18.177 40.7392 17.8769V11.0871C42.1336 10.8708 42.9287 10.0564 43.8283 9.1338C44.8111 8.12583 45.9147 6.99414 47.9132 6.81907V29.703C45.4517 29.8866 44.0741 31.2985 43.0502 32.3487C42.2565 33.1626 41.679 33.7544 40.7393 33.9553V20.7756C40.7393 20.4754 40.4959 20.2321 40.1958 20.2321C39.8957 20.2321 39.6524 20.4755 39.6524 20.7756V34.0176C38.4411 33.9218 37.8156 33.2812 36.9065 32.3488C35.8094 31.2237 34.3069 29.6827 31.4998 29.6827C28.6928 29.6827 27.1904 31.2238 26.0933 32.3489C25.1844 33.2812 24.5589 33.9218 23.348 34.0176V29.4712C23.348 29.1711 23.1046 28.9278 22.8045 28.9278C22.5043 28.9278 22.261 29.1711 22.261 29.4712V33.9553C21.3213 33.7545 20.7439 33.1628 19.9501 32.3488C18.9261 31.2986 17.5486 29.8866 15.0871 29.7031V16.7175C15.0871 16.4174 14.8437 16.1741 14.5436 16.1741C14.2435 16.1741 14 16.4174 14 16.7175V32.4C14 32.7001 14.2434 32.9434 14.5435 32.9434C15.9755 32.9434 16.6277 33.6123 17.6151 34.6251C18.7122 35.7502 20.2146 37.2912 23.0216 37.2912C25.8287 37.2912 27.3311 35.7502 28.4281 34.6251C29.4154 33.6124 30.0676 32.9434 31.4997 32.9434C32.9318 32.9434 33.5841 33.6124 34.5716 34.6251C35.6686 35.7503 37.1711 37.2912 39.9781 37.2912C42.7852 37.2912 44.2877 35.7503 45.3847 34.6251C46.3721 33.6124 47.0244 32.9434 48.4565 32.9434C48.7567 32.9434 49 32.7001 49 32.4V6.25244C49.0001 5.95234 48.7567 5.70898 48.4566 5.70898ZM47.9131 31.8842C46.3813 32.046 45.5519 32.8967 44.6065 33.8664C43.5379 34.9623 42.3269 36.2044 39.9781 36.2044C37.6294 36.2044 36.4183 34.9623 35.3496 33.8663C34.2982 32.7878 33.39 31.8566 31.4996 31.8566C29.6093 31.8566 28.7011 32.788 27.6498 33.8663C26.5813 34.9623 25.3702 36.2044 23.0215 36.2044C20.6728 36.2044 19.4617 34.9623 18.3932 33.8662C17.4479 32.8967 16.6183 32.0461 15.0868 31.8843V30.7929C17.0853 30.968 18.1888 32.0997 19.1717 33.1078C20.2232 34.1861 21.1313 35.1175 23.0215 35.1175C24.9119 35.1175 25.82 34.1861 26.8714 33.1077C27.9399 32.0117 29.1509 30.7696 31.4996 30.7696C33.8484 30.7696 35.0595 32.0117 36.128 33.1076C37.1795 34.1861 38.0876 35.1175 39.978 35.1175C41.8685 35.1175 42.7766 34.1861 43.8281 33.1077C44.8109 32.0998 45.9146 30.968 47.9131 30.793V31.8842Z" fill="#FFD500"/>
<path d="M22.8045 28.9278C23.1046 28.9278 23.348 29.1711 23.348 29.4712V26.1488H22.261V29.4712C22.261 29.1711 22.5043 28.9278 22.8045 28.9278Z" fill="#FFD500"/>
<path d="M40.1958 18.4204C39.8957 18.4204 39.6523 18.1771 39.6523 17.8769L39.6524 20.7756C39.6524 20.4755 39.8957 20.2321 40.1958 20.2321C40.4959 20.2321 40.7393 20.4754 40.7393 20.7756L40.7392 17.8769C40.7392 18.177 40.4959 18.4204 40.1958 18.4204Z" fill="#FFD500"/>
<path d="M32.125 6.2562C32.1671 6.02811 32.3458 5.85976 32.5611 5.82H30.3495L30.4298 6.88901H32.5612C32.2661 6.83473 32.0708 6.55145 32.125 6.2562Z" fill="#FFD500"/>
<path d="M14.5436 16.1741C14.8437 16.1741 15.0871 16.4174 15.0871 16.7175V13H14V16.7175C14 16.4174 14.2435 16.1741 14.5436 16.1741Z" fill="#FFD500"/>
</svg>
