<svg width="62" height="42" viewBox="0 0 62 42" fill="none" xmlns="http://www.w3.org/2000/svg">
<path d="M29.283 9.21855L25.6133 18.1309C25.4889 18.4331 25.2063 18.6408 24.8808 18.6694L6.10994 20.3189C5.64939 20.3593 5.29988 20.7511 5.31194 21.213L5.69367 35.9473C5.7042 36.3525 5.99161 36.6973 6.38823 36.7809L28.4864 41.4291C29.0266 41.5427 29.5757 41.599 30.1248 41.5977L30.1252 37.2279V9.3852C30.125 8.1689 29.7461 8.09394 29.283 9.21855ZM26.7134 36.6963L18.4177 35.3604V31.0122H26.7134V36.6963ZM23.0861 16.5514L0.96424 18.7867C0.28842 18.855 -0.204034 18.1606 0.0838809 17.5455L5.97439 4.95443C6.09423 4.69822 6.33058 4.51567 6.60877 4.46461L30.9158 0.000101252L23.7978 16.036C23.6703 16.323 23.3987 16.5198 23.0861 16.5514ZM55.8901 20.3189L37.1193 18.6695C36.7937 18.6409 36.5111 18.4332 36.3868 18.131L32.717 9.21865C32.2539 8.09394 31.8749 8.1689 31.8749 9.3852V37.2278L31.8753 41.5976C32.4243 41.599 32.9735 41.5426 33.5138 41.429L55.612 36.7808C56.0086 36.6973 56.296 36.3524 56.3064 35.9472L56.6882 21.213C56.7002 20.751 56.3505 20.3593 55.8901 20.3189ZM48.1652 28.189L47.1285 28.2177L47.1075 34.7425C47.1066 35.0299 46.8147 35.3047 46.4516 35.3569L44.7526 35.6013C44.3644 35.6571 44.0468 35.4582 44.0476 35.1563L44.0634 28.3028L42.8776 28.3356C42.301 28.3515 41.9362 27.8893 42.2297 27.5066L45.0498 23.8318C45.3169 23.4835 45.9726 23.5156 46.2301 23.8826L48.7056 27.4106C48.9402 27.7452 48.6435 28.1757 48.1652 28.189ZM61.0357 18.7867L38.9138 16.5514C38.6012 16.5198 38.3295 16.323 38.2021 16.0359L31.0842 0L55.3912 4.46451C55.6694 4.51557 55.9058 4.69812 56.0257 4.95433L61.9162 17.5454C62.204 18.1606 61.7115 18.855 61.0357 18.7867Z" fill="#F0F5F9"/>
<g clip-path="url(#clip0)">
<path d="M46.65 10.4425C46.6071 10.3139 46.6071 10.2282 46.5642 10.1425C46.5214 10.0568 46.4785 9.97109 46.4357 9.88537C46.3928 9.79966 46.3071 9.7568 46.2214 9.71394L41.507 7.39963L37.3498 5.38532L32.6355 3.07101C32.4641 2.98529 32.2926 2.98529 32.1212 3.02815C31.9498 3.07101 31.8212 3.19958 31.7355 3.37101L25.8211 15.414H18.1068C17.121 15.414 16.3496 16.1854 16.3496 17.1712V20.2569V36.2428C16.3496 37.2285 17.121 38 18.1068 38H42.7499C43.7356 38 44.5071 37.2285 44.5071 36.2428V31.7856H45.2356C45.6214 31.7856 45.9214 31.4856 45.9214 31.0999V25.9998C45.9214 25.6141 45.6214 25.3141 45.2356 25.3141H44.5071V20.2998C44.5071 19.314 43.7356 18.5426 42.7499 18.5426H42.7071L46.5642 10.6997C46.6071 10.614 46.6071 10.5282 46.65 10.4425ZM32.6355 4.61388L36.0641 6.28533C35.207 7.44249 33.8355 8.17107 32.3784 8.17107C31.9069 8.17107 31.4355 8.08535 31.0069 7.95678L32.6355 4.61388ZM30.3212 9.19965C30.9641 9.41394 31.6069 9.54251 32.2926 9.54251C34.307 9.54251 36.1498 8.55678 37.2213 6.88534L40.2642 8.38535C39.407 10.9568 40.4356 13.7854 42.7071 15.2426L41.1213 18.4998H37.2641V18.5426C36.8356 17.3426 35.9784 16.3569 34.8212 15.7997C34.1355 15.4569 33.4069 15.2854 32.6784 15.2854C30.7926 15.2854 29.1212 16.3569 28.264 18.0283C28.1783 18.1997 28.1355 18.3283 28.0497 18.4998H25.7783L30.3212 9.19965ZM35.807 18.5426H29.5926C30.1926 17.3855 31.3926 16.6997 32.7212 16.6997C33.2784 16.6997 33.7927 16.8283 34.2641 17.0426C34.9498 17.3855 35.4641 17.8997 35.807 18.5426ZM17.7211 17.1283C17.7211 16.9569 17.8925 16.7854 18.1068 16.7854H25.1354L24.2783 18.4998H18.1068C17.9782 18.4998 17.8496 18.4998 17.7211 18.5426V17.1283ZM44.5071 26.6856H44.5499V30.4142H44.5071H40.4785C40.0927 30.4142 39.7927 30.1142 39.7927 29.7285V27.3713C39.7927 26.9856 40.0927 26.6856 40.4785 26.6856H44.5071ZM43.0928 20.2998V25.3141H40.4356C39.2784 25.3141 38.3784 26.257 38.3784 27.3713V29.7285C38.3784 30.8856 39.3213 31.7856 40.4356 31.7856H43.0928V36.2428C43.0928 36.4571 42.9213 36.6285 42.7071 36.6285H18.1068C17.8925 36.6285 17.7211 36.4571 17.7211 36.2428V20.2998C17.7211 20.0855 17.8925 19.9141 18.1068 19.9141H24.7497H28.6069H36.7927H41.5928H42.7071C42.9213 19.9141 43.0928 20.0855 43.0928 20.2998ZM43.3928 14.0426C41.807 12.9283 41.0785 10.8711 41.5928 9.02822L45.0214 10.6997L43.3928 14.0426Z" fill="#FFD500"/>
<path d="M36.8352 11.7289C35.8923 11.2575 34.7351 11.686 34.2637 12.586C33.7923 13.5289 34.178 14.6861 35.1209 15.1575C35.378 15.2861 35.678 15.3718 35.978 15.3718C36.7066 15.3718 37.3923 14.9432 37.6923 14.3003C38.1637 13.3146 37.778 12.1575 36.8352 11.7289ZM36.4923 13.6575C36.3637 13.9146 36.0209 14.0432 35.7637 13.9146C35.5066 13.7861 35.378 13.4432 35.5066 13.186C35.5923 13.0146 35.7637 12.886 35.978 12.886C36.0637 12.886 36.1494 12.886 36.1923 12.9289C36.4923 13.0575 36.6209 13.4003 36.4923 13.6575Z" fill="#FFD500"/>
</g>
<defs>
<clipPath id="clip0">
<rect width="35" height="35" fill="white" transform="translate(14 3)"/>
</clipPath>
</defs>
</svg>
