<svg width="62" height="42" viewBox="0 0 62 42" fill="none" xmlns="http://www.w3.org/2000/svg">
<path d="M29.283 9.21855L25.6133 18.1309C25.4889 18.4331 25.2063 18.6408 24.8808 18.6694L6.10994 20.3189C5.64939 20.3593 5.29988 20.7511 5.31194 21.213L5.69367 35.9473C5.7042 36.3525 5.99161 36.6973 6.38823 36.7809L28.4864 41.4291C29.0266 41.5427 29.5757 41.599 30.1248 41.5977L30.1252 37.2279V9.3852C30.125 8.1689 29.7461 8.09394 29.283 9.21855ZM26.7134 36.6963L18.4177 35.3604V31.0122H26.7134V36.6963ZM23.0861 16.5514L0.96424 18.7867C0.28842 18.855 -0.204034 18.1606 0.0838809 17.5455L5.97439 4.95443C6.09423 4.69822 6.33058 4.51567 6.60877 4.46461L30.9158 0.000101252L23.7978 16.036C23.6703 16.323 23.3987 16.5198 23.0861 16.5514ZM55.8901 20.3189L37.1193 18.6695C36.7937 18.6409 36.5111 18.4332 36.3868 18.131L32.717 9.21865C32.2539 8.09394 31.8749 8.1689 31.8749 9.3852V37.2278L31.8753 41.5976C32.4243 41.599 32.9735 41.5426 33.5138 41.429L55.612 36.7808C56.0086 36.6973 56.296 36.3524 56.3064 35.9472L56.6882 21.213C56.7002 20.751 56.3505 20.3593 55.8901 20.3189ZM48.1652 28.189L47.1285 28.2177L47.1075 34.7425C47.1066 35.0299 46.8147 35.3047 46.4516 35.3569L44.7526 35.6013C44.3644 35.6571 44.0468 35.4582 44.0476 35.1563L44.0634 28.3028L42.8776 28.3356C42.301 28.3515 41.9362 27.8893 42.2297 27.5066L45.0498 23.8318C45.3169 23.4835 45.9726 23.5156 46.2301 23.8826L48.7056 27.4106C48.9402 27.7452 48.6435 28.1757 48.1652 28.189ZM61.0357 18.7867L38.9138 16.5514C38.6012 16.5198 38.3295 16.323 38.2021 16.0359L31.0842 0L55.3912 4.46451C55.6694 4.51557 55.9058 4.69812 56.0257 4.95433L61.9162 17.5454C62.204 18.1606 61.7115 18.855 61.0357 18.7867Z" fill="#F0F5F9"/>
<g clip-path="url(#clip0)">
<path d="M45.5437 9.02807L34.8587 3.24212C33.8451 2.69309 32.4514 3.11542 31.9024 4.12902L25.6519 15.7432H18.0499C17.0786 15.7432 16.3184 16.5033 16.3184 17.4747V20.5155V36.2685C16.3184 37.2398 17.0786 38 18.0499 38H42.334C43.3054 38 44.0655 37.2398 44.0655 36.2685V31.8762H44.7835C45.1636 31.8762 45.4592 31.5806 45.4592 31.2005V26.1748C45.4592 25.7947 45.1636 25.499 44.7835 25.499H44.0655V20.5577C44.0655 19.7553 43.4743 19.0373 42.7141 18.8684L46.4306 11.9844C46.9796 10.9286 46.5995 9.61934 45.5437 9.02807ZM37.9417 6.45185L31.2689 18.8262H29.3684L36.5058 5.69165L37.9417 6.45185ZM33.1272 4.76252C33.3383 4.38242 33.8451 4.21349 34.2252 4.42465L35.2811 5.01592L27.848 18.8262H25.5252L33.1272 4.76252ZM17.6276 17.4325C17.6276 17.3058 17.7965 17.0946 18.0077 17.0946H24.8917L23.9626 18.7839H18.0077C17.881 18.7839 17.7543 18.7839 17.6276 18.8262V17.4325ZM42.6719 36.2685C42.6719 36.4797 42.5029 36.6486 42.2918 36.6486H18.0077C17.7965 36.6486 17.6276 36.4797 17.6276 36.2685V20.5577C17.6276 20.3466 17.7965 20.1776 18.0077 20.1776H24.3849H27.0878H32.0291H41.5316H42.2495C42.4607 20.1776 42.6296 20.3466 42.6296 20.5577V25.499H40.0534C38.9131 25.499 38.0262 26.4282 38.0262 27.5262V29.849C38.0262 30.9893 38.9553 31.8762 40.0534 31.8762H42.6719V36.2685ZM44.0233 26.8505H44.0655V30.5248H44.0233H40.0534C39.6733 30.5248 39.3777 30.2291 39.3777 29.849V27.5262C39.3777 27.1461 39.6733 26.8505 40.0534 26.8505H44.0233ZM45.2058 11.3087L41.1515 18.8262H32.7893L39.1243 7.12758L44.868 10.2528C45.2903 10.4218 45.417 10.9286 45.2058 11.3087Z" fill="#FFD500"/>
<path d="M42.6304 10.6744L42.2925 10.5054C41.4479 10.0409 40.3076 10.3787 39.843 11.2234L39.4207 12.0258C39.2095 12.4482 39.125 12.955 39.294 13.4195C39.4207 13.8841 39.7585 14.2642 40.1809 14.4753L40.5187 14.6443C40.7721 14.771 41.0678 14.8554 41.3634 14.8554C42.0391 14.8554 42.6304 14.4753 42.9683 13.9263L43.3906 13.1239C43.8129 12.237 43.4751 11.1389 42.6304 10.6744ZM42.1658 12.4904L41.7435 13.2928C41.6168 13.504 41.3212 13.5885 41.11 13.4618L40.7721 13.2506C40.6877 13.2084 40.6032 13.0817 40.561 12.9972C40.5187 12.8705 40.5187 12.7438 40.6032 12.6593L41.0255 11.8569C41.11 11.7302 41.2789 11.6035 41.4479 11.6035C41.5323 11.6035 41.5746 11.6035 41.659 11.6457L41.9969 11.8147C42.1658 11.9836 42.2503 12.237 42.1658 12.4904Z" fill="#FFD500"/>
</g>
<defs>
<clipPath id="clip0">
<rect width="35" height="35" fill="white" transform="translate(14 3)"/>
</clipPath>
</defs>
</svg>
