<svg width="62" height="42" viewBox="0 0 62 42" fill="none" xmlns="http://www.w3.org/2000/svg">
<path d="M29.283 9.21855L25.6133 18.1309C25.4889 18.4331 25.2063 18.6408 24.8808 18.6694L6.10994 20.3189C5.64939 20.3593 5.29988 20.7511 5.31194 21.213L5.69367 35.9473C5.7042 36.3525 5.99161 36.6973 6.38823 36.7809L28.4864 41.4291C29.0266 41.5427 29.5757 41.599 30.1248 41.5977L30.1252 37.2279V9.3852C30.125 8.1689 29.7461 8.09394 29.283 9.21855ZM26.7134 36.6963L18.4177 35.3604V31.0122H26.7134V36.6963ZM23.0861 16.5514L0.96424 18.7867C0.28842 18.855 -0.204034 18.1606 0.0838809 17.5455L5.97439 4.95443C6.09423 4.69822 6.33058 4.51567 6.60877 4.46461L30.9158 0.000101252L23.7978 16.036C23.6703 16.323 23.3987 16.5198 23.0861 16.5514ZM55.8901 20.3189L37.1193 18.6695C36.7937 18.6409 36.5111 18.4332 36.3868 18.131L32.717 9.21865C32.2539 8.09394 31.8749 8.1689 31.8749 9.3852V37.2278L31.8753 41.5976C32.4243 41.599 32.9735 41.5426 33.5138 41.429L55.612 36.7808C56.0086 36.6973 56.296 36.3524 56.3064 35.9472L56.6882 21.213C56.7002 20.751 56.3505 20.3593 55.8901 20.3189ZM48.1652 28.189L47.1285 28.2177L47.1075 34.7425C47.1066 35.0299 46.8147 35.3047 46.4516 35.3569L44.7526 35.6013C44.3644 35.6571 44.0468 35.4582 44.0476 35.1563L44.0634 28.3028L42.8776 28.3356C42.301 28.3515 41.9362 27.8893 42.2297 27.5066L45.0498 23.8318C45.3169 23.4835 45.9726 23.5156 46.2301 23.8826L48.7056 27.4106C48.9402 27.7452 48.6435 28.1757 48.1652 28.189ZM61.0357 18.7867L38.9138 16.5514C38.6012 16.5198 38.3295 16.323 38.2021 16.0359L31.0842 0L55.3912 4.46451C55.6694 4.51557 55.9058 4.69812 56.0257 4.95433L61.9162 17.5454C62.204 18.1606 61.7115 18.855 61.0357 18.7867Z" fill="#F0F5F9"/>
<g clip-path="url(#clip0)">
<path d="M55.753 11.5697L41.253 3.06971C41.1005 2.98071 40.913 2.97772 40.7585 3.06321L26.2585 11.0632C26.099 11.1507 26 11.3187 26 11.5007V32.5007C26 32.7772 26.224 33.0007 26.5 33.0007H29C29.276 33.0007 29.5 32.7772 29.5 32.5007V15.0007H52.5V32.5008C52.5 32.7773 52.7234 33.0007 52.9999 33.0007H55.5C55.7765 33.0007 55.9999 32.7773 55.9999 32.5008V12.0007C56 11.8232 55.906 11.6592 55.753 11.5697ZM55 32.0007H53.5V14.5007C53.5 14.2247 53.2765 14.0007 53 14.0007H29C28.724 14.0007 28.5 14.2247 28.5 14.5007V32.0007H27V11.7957L40.9925 4.07571L55 12.2872V32.0007Z" fill="#DADADA"/>
<path d="M51 26H45C44.7235 26 44.5 26.2235 44.5 26.5V32.5C44.5 32.7765 44.7235 33 45 33H51C51.2765 33 51.5 32.7765 51.5 32.5V26.5C51.5 26.2235 51.2765 26 51 26ZM50.4999 32H45.5V27H50.4999V32Z" fill="#DADADA"/>
<path d="M48.5 26.5V28H47.5V26.5H46.5V28.5C46.5 28.7765 46.7235 29 47 29H49C49.2765 29 49.4999 28.7765 49.4999 28.5V26.5H48.5Z" fill="#DADADA"/>
<path d="M45 26H39C38.724 26 38.5 26.2235 38.5 26.5V32.5C38.5 32.7765 38.724 33 39 33H45C45.2765 33 45.5 32.7765 45.5 32.5V26.5C45.5 26.2235 45.2765 26 45 26ZM44.4999 32H39.5V27H44.4999V32Z" fill="#DADADA"/>
<path d="M42.5 26.5V28H41.5V26.5H40.5V28.5C40.5 28.7765 40.724 29 41 29H43C43.2765 29 43.4999 28.7765 43.4999 28.5V26.5H42.5Z" fill="#DADADA"/>
<path d="M51 20H45C44.7235 20 44.5 20.2235 44.5 20.5V26.5C44.5 26.7765 44.7235 27 45 27H51C51.2765 27 51.5 26.7765 51.5 26.5V20.5C51.5 20.2235 51.2765 20 51 20ZM50.4999 26H45.5V21H50.4999V26Z" fill="#DADADA"/>
<path d="M48.5 20.5V22H47.5V20.5H46.5V22.5C46.5 22.7765 46.7235 23 47 23H49C49.2765 23 49.4999 22.7765 49.4999 22.5V20.5H48.5Z" fill="#DADADA"/>
<path d="M53 18H29V19H53V18Z" fill="#DADADA"/>
<path d="M53 16H29V17H53V16Z" fill="#DADADA"/>
<path d="M43.5 10H38.5C38.224 10 38 10.224 38 10.5V12.5C38 12.7759 38.224 12.9999 38.5 12.9999H43.5C43.7765 12.9999 43.9999 12.7759 43.9999 12.5V10.5C43.9999 10.224 43.7765 10 43.5 10ZM42.9999 12H38.9999V11H42.9999V12Z" fill="#DADADA"/>
</g>
<g clip-path="url(#clip1)">
<path d="M35.753 16.5697L21.253 8.06971C21.1005 7.98071 20.913 7.97772 20.7585 8.06321L6.25852 16.0632C6.09902 16.1507 6 16.3187 6 16.5007V37.5007C6 37.7772 6.224 38.0007 6.49998 38.0007H9C9.27598 38.0007 9.49998 37.7772 9.49998 37.5007V20.0007H32.5V37.5008C32.5 37.7773 32.7234 38.0007 32.9999 38.0007H35.5C35.7765 38.0007 35.9999 37.7773 35.9999 37.5008V17.0007C36 16.8232 35.906 16.6592 35.753 16.5697ZM35 37.0007H33.5V19.5007C33.5 19.2247 33.2765 19.0007 33 19.0007H9C8.72402 19.0007 8.50002 19.2247 8.50002 19.5007V37.0007H7.00002V16.7957L20.9925 9.07571L35 17.2872V37.0007Z" fill="#FFD500"/>
<path d="M31 31H25C24.7235 31 24.5 31.2235 24.5 31.5V37.5C24.5 37.7765 24.7235 38 25 38H31C31.2765 38 31.5 37.7765 31.5 37.5V31.5C31.5 31.2235 31.2765 31 31 31ZM30.4999 37H25.5V32H30.4999V37Z" fill="#FFD500"/>
<path d="M28.5 31.5V33H27.5V31.5H26.5V33.5C26.5 33.7765 26.7235 34 27 34H29C29.2765 34 29.4999 33.7765 29.4999 33.5V31.5H28.5Z" fill="#FFD500"/>
<path d="M25 31H19C18.724 31 18.5 31.2235 18.5 31.5V37.5C18.5 37.7765 18.724 38 19 38H25C25.2765 38 25.5 37.7765 25.5 37.5V31.5C25.5 31.2235 25.2765 31 25 31ZM24.4999 37H19.5V32H24.4999V37Z" fill="#FFD500"/>
<path d="M22.5 31.5V33H21.5V31.5H20.5V33.5C20.5 33.7765 20.724 34 21 34H23C23.2765 34 23.4999 33.7765 23.4999 33.5V31.5H22.5Z" fill="#FFD500"/>
<path d="M31 25H25C24.7235 25 24.5 25.2235 24.5 25.5V31.5C24.5 31.7765 24.7235 32 25 32H31C31.2765 32 31.5 31.7765 31.5 31.5V25.5C31.5 25.2235 31.2765 25 31 25ZM30.4999 31H25.5V26H30.4999V31Z" fill="#FFD500"/>
<path d="M28.5 25.5V27H27.5V25.5H26.5V27.5C26.5 27.7765 26.7235 28 27 28H29C29.2765 28 29.4999 27.7765 29.4999 27.5V25.5H28.5Z" fill="#FFD500"/>
<path d="M33 23H9V24H33V23Z" fill="#FFD500"/>
<path d="M33 21H9V22H33V21Z" fill="#FFD500"/>
<path d="M23.5 15H18.5C18.224 15 18 15.224 18 15.5V17.5C18 17.7759 18.224 17.9999 18.5 17.9999H23.5C23.7765 17.9999 23.9999 17.7759 23.9999 17.5V15.5C23.9999 15.224 23.7765 15 23.5 15ZM22.9999 17H18.9999V16H22.9999V17Z" fill="#FFD500"/>
</g>
<defs>
<clipPath id="clip0">
<rect width="30" height="30" fill="white" transform="translate(26 3)"/>
</clipPath>
<clipPath id="clip1">
<rect width="30" height="30" fill="white" transform="translate(6 8)"/>
</clipPath>
</defs>
</svg>
