<svg width="62" height="42" viewBox="0 0 62 42" fill="none" xmlns="http://www.w3.org/2000/svg">
<path d="M29.283 9.21855L25.6133 18.1309C25.4889 18.4331 25.2063 18.6408 24.8808 18.6694L6.10994 20.3189C5.64939 20.3593 5.29988 20.7511 5.31194 21.213L5.69367 35.9473C5.7042 36.3525 5.99161 36.6973 6.38823 36.7809L28.4864 41.4291C29.0266 41.5427 29.5757 41.599 30.1248 41.5977L30.1252 37.2279V9.3852C30.125 8.1689 29.7461 8.09394 29.283 9.21855ZM26.7134 36.6963L18.4177 35.3604V31.0122H26.7134V36.6963ZM23.0861 16.5514L0.96424 18.7867C0.28842 18.855 -0.204034 18.1606 0.0838809 17.5455L5.97439 4.95443C6.09423 4.69822 6.33058 4.51567 6.60877 4.46461L30.9158 0.000101252L23.7978 16.036C23.6703 16.323 23.3987 16.5198 23.0861 16.5514ZM55.8901 20.3189L37.1193 18.6695C36.7937 18.6409 36.5111 18.4332 36.3868 18.131L32.717 9.21865C32.2539 8.09394 31.8749 8.1689 31.8749 9.3852V37.2278L31.8753 41.5976C32.4243 41.599 32.9735 41.5426 33.5138 41.429L55.612 36.7808C56.0086 36.6973 56.296 36.3524 56.3064 35.9472L56.6882 21.213C56.7002 20.751 56.3505 20.3593 55.8901 20.3189ZM48.1652 28.189L47.1285 28.2177L47.1075 34.7425C47.1066 35.0299 46.8147 35.3047 46.4516 35.3569L44.7526 35.6013C44.3644 35.6571 44.0468 35.4582 44.0476 35.1563L44.0634 28.3028L42.8776 28.3356C42.301 28.3515 41.9362 27.8893 42.2297 27.5066L45.0498 23.8318C45.3169 23.4835 45.9726 23.5156 46.2301 23.8826L48.7056 27.4106C48.9402 27.7452 48.6435 28.1757 48.1652 28.189ZM61.0357 18.7867L38.9138 16.5514C38.6012 16.5198 38.3295 16.323 38.2021 16.0359L31.0842 0L55.3912 4.46451C55.6694 4.51557 55.9058 4.69812 56.0257 4.95433L61.9162 17.5454C62.204 18.1606 61.7115 18.855 61.0357 18.7867Z" fill="#F0F5F9"/>
<path d="M48.3 15.6H45.5V4.4C45.4993 3.6272 44.8728 3.00068 44.1 3H18.9C18.1272 3.00068 17.5007 3.6272 17.5 4.4V15.6H14.7C14.3134 15.6 14 15.9134 14 16.3V21.9C14 22.2866 14.3134 22.6 14.7 22.6H17.5V28.9C17.5 29.088 17.5762 29.2681 17.7112 29.399C17.5738 29.6796 17.5017 29.9876 17.5 30.3V31.7C17.5014 32.8594 18.4406 33.7986 19.6 33.8V35.9C19.6014 37.0594 20.5406 37.9986 21.7 38H24.5C25.6594 37.9986 26.5986 37.0594 26.6 35.9V33.8H36.4V35.9C36.4014 37.0594 37.3406 37.9986 38.5 38H41.3C42.4594 37.9986 43.3986 37.0594 43.4 35.9V33.8C44.5594 33.7986 45.4986 32.8594 45.5 31.7V30.3C45.4983 29.9876 45.4262 29.6796 45.2891 29.399C45.4238 29.2681 45.5 29.088 45.5 28.9V22.6H48.3C48.6866 22.6 49 22.2866 49 21.9V16.3C49 15.9134 48.6866 15.6 48.3 15.6ZM43.4 28.2V23.6746L44.1 23.2081V28.2H43.4ZM23.8 28.2V26.1C23.8 25.9144 23.7262 25.7363 23.5949 25.6051L22.1949 24.2051C22.0637 24.0738 21.8856 24 21.7 24H21V12.1C21.0014 10.9406 21.9406 10.0014 23.1 10H39.9C41.0594 10.0014 41.9986 10.9406 42 12.1V24H41.3C41.1144 24 40.9363 24.0738 40.8051 24.2051L39.4051 25.6051C39.2738 25.7363 39.2 25.9144 39.2 26.1V28.2H23.8ZM18.9 28.2V23.2081L19.6 23.6746V28.2H18.9ZM21 25.4H21.4102L22.4 26.3898V28.2H21V25.4ZM40.6 26.3898L41.5898 25.4H42V28.2H40.6V26.3898ZM18.9 4.4H44.1V21.5254L43.4 21.9919V12.1C43.3976 10.1678 41.8322 8.60239 39.9 8.6H23.1C21.1678 8.60239 19.6024 10.1678 19.6 12.1V21.9919L18.9 21.5254V4.4ZM15.4 21.2V17H17.5V21.2H15.4ZM25.2 35.9C25.1997 36.2862 24.8862 36.5997 24.5 36.6H21.7C21.3138 36.5997 21.0003 36.2862 21 35.9V33.8H25.2V35.9ZM42 35.9C41.9997 36.2862 41.6862 36.5997 41.3 36.6H38.5C38.1138 36.5997 37.8003 36.2862 37.8 35.9V33.8H42V35.9ZM44.1 31.7C44.0997 32.0862 43.7862 32.3997 43.4 32.4H19.6C19.2138 32.3997 18.9003 32.0862 18.9 31.7V30.3C18.9003 29.9138 19.2138 29.6003 19.6 29.6H43.4C43.7862 29.6003 44.0997 29.9138 44.1 30.3V31.7ZM47.6 21.2H45.5V17H47.6V21.2Z" fill="#FFD500"/>
<path d="M25.6496 22.6004H37.3493C37.4446 22.6004 37.5386 22.5809 37.6261 22.5433L40.8763 21.1433C41.133 21.0326 41.2994 20.78 41.2994 20.5004V12.8004C41.3121 12.0413 40.7084 11.4151 39.9493 11.4004H23.0495C22.2904 11.4151 21.6868 12.0413 21.6994 12.8004V20.5004C21.6994 20.78 21.8659 21.0326 22.1226 21.1433L25.3727 22.5433C25.4602 22.5809 25.5542 22.6004 25.6496 22.6004ZM23.0495 12.8004H39.8994V20.0397L37.205 21.2004H35.0555L35.4554 20.5004H37.4494C37.836 20.5004 38.1494 20.187 38.1494 19.8004C38.1494 19.4138 37.836 19.1004 37.4494 19.1004H33.2494C32.8628 19.1004 32.5494 19.4138 32.5494 19.8004C32.5494 20.187 32.8628 20.5004 33.2494 20.5004H33.8431L33.4432 21.2004H28.0555L28.4554 20.5004H30.4494C30.836 20.5004 31.1494 20.187 31.1494 19.8004C31.1494 19.4138 30.836 19.1004 30.4494 19.1004H26.2494C25.8628 19.1004 25.5494 19.4138 25.5494 19.8004C25.5494 20.187 25.8628 20.5004 26.2494 20.5004H26.8431L26.4432 21.2004H25.7938L23.0963 20.0383L23.0495 12.8004Z" fill="#FFD500"/>
<path d="M37.1002 26.0996H25.9002C25.5136 26.0996 25.2002 26.413 25.2002 26.7996C25.2002 27.1862 25.5136 27.4996 25.9002 27.4996H37.1002C37.4868 27.4996 37.8002 27.1862 37.8002 26.7996C37.8002 26.413 37.4868 26.0996 37.1002 26.0996Z" fill="#FFD500"/>
<path d="M37.1002 24H25.9002C25.5136 24 25.2002 24.3134 25.2002 24.7C25.2002 25.0866 25.5136 25.4 25.9002 25.4H37.1002C37.4868 25.4 37.8002 25.0866 37.8002 24.7C37.8002 24.3134 37.4868 24 37.1002 24Z" fill="#FFD500"/>
</svg>
