<svg width="62" height="42" viewBox="0 0 62 42" fill="none" xmlns="http://www.w3.org/2000/svg">
<path d="M29.283 9.21855L25.6133 18.1309C25.4889 18.4331 25.2063 18.6408 24.8808 18.6694L6.10994 20.3189C5.64939 20.3593 5.29988 20.7511 5.31194 21.213L5.69367 35.9473C5.7042 36.3525 5.99161 36.6973 6.38823 36.7809L28.4864 41.4291C29.0266 41.5427 29.5757 41.599 30.1248 41.5977L30.1252 37.2279V9.3852C30.125 8.1689 29.7461 8.09394 29.283 9.21855ZM26.7134 36.6963L18.4177 35.3604V31.0122H26.7134V36.6963ZM23.0861 16.5514L0.96424 18.7867C0.28842 18.855 -0.204034 18.1606 0.0838809 17.5455L5.97439 4.95443C6.09423 4.69822 6.33058 4.51567 6.60877 4.46461L30.9158 0.000101252L23.7978 16.036C23.6703 16.323 23.3987 16.5198 23.0861 16.5514ZM55.8901 20.3189L37.1193 18.6695C36.7937 18.6409 36.5111 18.4332 36.3868 18.131L32.717 9.21865C32.2539 8.09394 31.8749 8.1689 31.8749 9.3852V37.2278L31.8753 41.5976C32.4243 41.599 32.9735 41.5426 33.5138 41.429L55.612 36.7808C56.0086 36.6973 56.296 36.3524 56.3064 35.9472L56.6882 21.213C56.7002 20.751 56.3505 20.3593 55.8901 20.3189ZM48.1652 28.189L47.1285 28.2177L47.1075 34.7425C47.1066 35.0299 46.8147 35.3047 46.4516 35.3569L44.7526 35.6013C44.3644 35.6571 44.0468 35.4582 44.0476 35.1563L44.0634 28.3028L42.8776 28.3356C42.301 28.3515 41.9362 27.8893 42.2297 27.5066L45.0498 23.8318C45.3169 23.4835 45.9726 23.5156 46.2301 23.8826L48.7056 27.4106C48.9402 27.7452 48.6435 28.1757 48.1652 28.189ZM61.0357 18.7867L38.9138 16.5514C38.6012 16.5198 38.3295 16.323 38.2021 16.0359L31.0842 0L55.3912 4.46451C55.6694 4.51557 55.9058 4.69812 56.0257 4.95433L61.9162 17.5454C62.204 18.1606 61.7115 18.855 61.0357 18.7867Z" fill="#F0F5F9"/>
<path fill-rule="evenodd" clip-rule="evenodd" d="M48.9391 11.9625C48.9408 11.9724 48.9426 11.9822 48.9429 11.9924C48.9431 11.9958 48.9438 11.9992 48.9444 12.0026C48.9452 12.0063 48.9459 12.0099 48.946 12.0138V23.7394V28.9862C48.9426 29.0134 48.9371 29.0404 48.9296 29.0669C48.9259 29.1089 48.9175 29.1503 48.9047 29.1905C48.8709 29.2562 48.8321 29.319 48.7884 29.3785C48.7589 29.4071 48.7265 29.4324 48.6916 29.454C48.6706 29.4732 48.6482 29.4907 48.6245 29.5064L31.76 37.9386C31.7574 37.9399 31.7545 37.9403 31.7517 37.9406C31.749 37.9409 31.7462 37.9412 31.7437 37.9424C31.5902 38.0191 31.4095 38.0191 31.2561 37.9424C31.2535 37.9412 31.2508 37.9409 31.2481 37.9406C31.2452 37.9403 31.2424 37.9399 31.2398 37.9386L14.3753 29.5064C14.3516 29.4907 14.3291 29.4732 14.3081 29.454C14.2733 29.4324 14.2408 29.4071 14.2114 29.3785C14.1874 29.3496 14.1663 29.3184 14.1485 29.2853C14.1276 29.2555 14.1097 29.2238 14.095 29.1906C14.0822 29.1504 14.0738 29.1089 14.0701 29.0669C14.0626 29.0406 14.0571 29.0135 14.0537 28.9862V23.8778V12.0138C14.0537 12.01 14.0545 12.0063 14.0552 12.0026C14.0559 11.9993 14.0566 11.9959 14.0568 11.9924C14.0571 11.9823 14.0589 11.9724 14.0606 11.9625C14.0617 11.9564 14.0628 11.9503 14.0635 11.9441C14.0686 11.899 14.079 11.8548 14.0945 11.8123C14.0959 11.8084 14.0973 11.8045 14.0987 11.8007C14.1023 11.7908 14.1058 11.7811 14.1103 11.7715C14.1116 11.7687 14.1121 11.7658 14.1126 11.7629C14.1131 11.7598 14.1136 11.7567 14.1151 11.7537C14.1167 11.7506 14.119 11.7481 14.1213 11.7457C14.1235 11.7434 14.1257 11.7411 14.1273 11.7382C14.1497 11.6977 14.1769 11.6601 14.2083 11.6262C14.212 11.6221 14.2153 11.6177 14.2186 11.6134C14.2229 11.6077 14.2271 11.6022 14.2323 11.5972C14.2339 11.5956 14.2355 11.5941 14.2371 11.5925C14.2419 11.5878 14.2468 11.5831 14.2519 11.5786C14.2572 11.574 14.263 11.5704 14.2688 11.5667C14.2734 11.5639 14.278 11.561 14.2823 11.5576C14.3111 11.5333 14.3423 11.5118 14.3753 11.4936L19.5219 8.92027L20.6583 9.65248L15.9358 12.0137L31.4999 19.7958L36.2224 17.4345L36.9412 18.3756L32.0814 20.8055V31.0568L47.7828 23.206L47.7827 12.9549L42.9229 15.3848L42.3416 14.375L47.064 12.0138L31.4999 4.23181L26.7775 6.59295L25.4771 5.94268L31.2398 3.06132C31.4035 2.97956 31.5962 2.97956 31.76 3.06132L48.6245 11.4935C48.6574 11.5117 48.6884 11.5331 48.7172 11.5574C48.7216 11.5608 48.7262 11.5636 48.7308 11.5665C48.7366 11.5701 48.7425 11.5738 48.7479 11.5785C48.7516 11.5818 48.7552 11.5852 48.7588 11.5886C48.7617 11.5914 48.7646 11.5942 48.7675 11.597C48.7727 11.602 48.7769 11.6076 48.7811 11.6132C48.7844 11.6176 48.7877 11.6219 48.7915 11.626C48.8229 11.66 48.8501 11.6976 48.8725 11.738C48.8741 11.7409 48.8762 11.7433 48.8784 11.7456C48.8808 11.748 48.8831 11.7504 48.8847 11.7536C48.8861 11.7566 48.8867 11.7597 48.8872 11.7627C48.8877 11.7656 48.8882 11.7685 48.8894 11.7713C48.8938 11.7809 48.8973 11.7904 48.9008 11.8001C48.9022 11.8041 48.9037 11.8082 48.9052 11.8122C48.9207 11.8548 48.9311 11.899 48.9361 11.944C48.9369 11.9502 48.938 11.9564 48.9391 11.9625ZM15.2169 28.6267L17.0654 29.551V25.4308L15.2169 24.5066V28.6267ZM18.2285 30.1325L27.9067 34.9716L27.9068 33.1257L18.2285 28.2866V30.1325ZM18.2285 26.9861L27.9067 31.8252L27.9068 30.8515L18.2285 26.0124V26.9861ZM29.0699 35.5532L30.9184 36.4775V32.3573L29.0699 31.433V35.5532ZM15.2169 23.206L30.9184 31.0568V20.8055L15.2169 12.9548V23.206ZM32.0815 36.4775L33.93 35.5532V31.4331L32.0815 32.3573V36.4775ZM35.093 34.9716L44.7712 30.1325V28.2866L35.093 33.1257V34.9716ZM35.093 31.8252L44.7712 26.9861V26.0124L35.093 30.8515V31.8252ZM45.9343 29.551L47.7828 28.6267V24.5066L45.9343 25.4308V29.551Z" fill="#FFD500"/>
<path fill-rule="evenodd" clip-rule="evenodd" d="M42.3416 14.375L26.7775 6.59295L25.4771 5.94268L19.5219 8.92027L20.6583 9.65248L36.2224 17.4345L36.9412 18.3756V19.8438C36.9413 20.0454 37.0456 20.2325 37.217 20.3385C37.3884 20.4444 37.6025 20.4541 37.7828 20.3641L42.6015 17.9547C42.7985 17.8562 42.9229 17.6548 42.9229 17.4345V15.3848L42.3416 14.375ZM41.0412 15.0251L25.4771 7.24312L24.3682 7.7976L39.9322 15.5796L41.0412 15.0251ZM41.7599 17.0749V15.9662L38.1043 17.794V18.9027L41.7599 17.0749ZM38.6316 16.2299L23.0675 8.4479L21.9589 9.00225L37.5229 16.7843L38.6316 16.2299Z" fill="#FFD500"/>
<path d="M42.4148 19.1572L37.0577 21.8357C36.2463 22.238 35.7342 23.0666 35.7373 23.9722V24.2902C35.7363 24.7009 35.9486 25.0827 36.298 25.2986C36.6474 25.5144 37.0838 25.5336 37.4507 25.349L42.8078 22.6705C43.6192 22.2682 44.1313 21.4396 44.1282 20.534V20.216C44.1281 19.8057 43.9157 19.4247 43.5666 19.209C43.2176 18.9934 42.7818 18.9737 42.4148 19.1572ZM42.965 20.5341C42.9666 20.9988 42.7038 21.4239 42.2875 21.6302L36.9004 24.2903V23.9722C36.8988 23.5076 37.1616 23.0826 37.5779 22.8762L42.965 20.2161V20.5341Z" fill="#FFD500"/>
</svg>
