<svg width="62" height="42" viewBox="0 0 62 42" fill="none" xmlns="http://www.w3.org/2000/svg">
<path d="M29.283 9.21855L25.6133 18.1309C25.4889 18.4331 25.2063 18.6408 24.8808 18.6694L6.10994 20.3189C5.64939 20.3593 5.29988 20.7511 5.31194 21.213L5.69367 35.9473C5.7042 36.3525 5.99161 36.6973 6.38823 36.7809L28.4864 41.4291C29.0266 41.5427 29.5757 41.599 30.1248 41.5977L30.1252 37.2279V9.3852C30.125 8.1689 29.7461 8.09394 29.283 9.21855ZM26.7134 36.6963L18.4177 35.3604V31.0122H26.7134V36.6963ZM23.0861 16.5514L0.96424 18.7867C0.28842 18.855 -0.204034 18.1606 0.0838809 17.5455L5.97439 4.95443C6.09423 4.69822 6.33058 4.51567 6.60877 4.46461L30.9158 0.000101252L23.7978 16.036C23.6703 16.323 23.3987 16.5198 23.0861 16.5514ZM55.8901 20.3189L37.1193 18.6695C36.7937 18.6409 36.5111 18.4332 36.3868 18.131L32.717 9.21865C32.2539 8.09394 31.8749 8.1689 31.8749 9.3852V37.2278L31.8753 41.5976C32.4243 41.599 32.9735 41.5426 33.5138 41.429L55.612 36.7808C56.0086 36.6973 56.296 36.3524 56.3064 35.9472L56.6882 21.213C56.7002 20.751 56.3505 20.3593 55.8901 20.3189ZM48.1652 28.189L47.1285 28.2177L47.1075 34.7425C47.1066 35.0299 46.8147 35.3047 46.4516 35.3569L44.7526 35.6013C44.3644 35.6571 44.0468 35.4582 44.0476 35.1563L44.0634 28.3028L42.8776 28.3356C42.301 28.3515 41.9362 27.8893 42.2297 27.5066L45.0498 23.8318C45.3169 23.4835 45.9726 23.5156 46.2301 23.8826L48.7056 27.4106C48.9402 27.7452 48.6435 28.1757 48.1652 28.189ZM61.0357 18.7867L38.9138 16.5514C38.6012 16.5198 38.3295 16.323 38.2021 16.0359L31.0842 0L55.3912 4.46451C55.6694 4.51557 55.9058 4.69812 56.0257 4.95433L61.9162 17.5454C62.204 18.1606 61.7115 18.855 61.0357 18.7867Z" fill="#F0F5F9"/>
<path d="M46.75 21.6562H44.7812C44.4183 21.6562 44.125 21.3622 44.125 21C44.125 20.6377 44.4183 20.3438 44.7812 20.3438H46.75C47.1129 20.3438 47.4062 20.6377 47.4062 21C47.4062 21.3622 47.1129 21.6562 46.75 21.6562Z" fill="#FFD500"/>
<path d="M34.8964 33.4566C32.973 33.4566 31.0298 33.0137 29.2251 32.0837C28.9029 31.9177 28.7763 31.522 28.9423 31.1998C29.1083 30.8776 29.5047 30.7509 29.8263 30.9169C34.9739 33.5695 41.3861 31.7924 44.4245 26.8712C47.4715 21.9355 46.1964 15.3999 41.5219 11.992C38.1363 9.5245 33.5452 9.1675 29.8263 11.0831C29.5047 11.2491 29.1083 11.1231 28.9423 10.8002C28.7763 10.478 28.9023 10.0823 29.2251 9.91628C33.3812 7.77428 38.5104 8.17262 42.295 10.9308C47.5201 14.7397 48.9461 22.0444 45.5408 27.5602C43.2105 31.3363 39.103 33.4566 34.8964 33.4566Z" fill="#FFD500"/>
<g clip-path="url(#clip0)">
<path d="M29.2616 25.5938H19.1875C18.8246 25.5938 18.5312 25.2997 18.5312 24.9375C18.5312 24.5752 18.8246 24.2812 19.1875 24.2812H29.2616C29.6245 24.2812 29.9178 24.5752 29.9178 24.9375C29.9178 25.2997 29.6238 25.5938 29.2616 25.5938Z" fill="#FFD500"/>
<path d="M29.2616 17.7187H19.1875C18.8246 17.7187 18.5312 17.4247 18.5312 17.0625C18.5312 16.7002 18.8246 16.4062 19.1875 16.4062H29.2616C29.6245 16.4062 29.9178 16.7002 29.9178 17.0625C29.9178 17.4247 29.6238 17.7187 29.2616 17.7187Z" fill="#FFD500"/>
<path d="M28.375 21.6562H15.25C14.8871 21.6562 14.5938 21.3622 14.5938 21C14.5938 20.6377 14.8871 20.3438 15.25 20.3438H28.375C28.7379 20.3438 29.0312 20.6377 29.0312 21C29.0312 21.3622 28.7379 21.6562 28.375 21.6562Z" fill="#FFD500"/>
<path d="M34.9375 23.5618C33.6335 23.5618 32.3125 22.6824 32.3125 21.0011C32.3125 19.3198 33.6335 18.4404 34.9375 18.4404C36.2415 18.4404 37.5625 19.3198 37.5625 21.0011C37.5625 22.6824 36.2415 23.5618 34.9375 23.5618ZM34.9375 19.7529C34.3318 19.7529 33.625 20.0797 33.625 21.0011C33.625 21.9225 34.3318 22.2493 34.9375 22.2493C35.5432 22.2493 36.25 21.9225 36.25 21.0011C36.25 20.0797 35.5432 19.7529 34.9375 19.7529Z" fill="#FFD500"/>
<path d="M36.3293 20.2663C36.1613 20.2663 35.9933 20.202 35.8653 20.074C35.6087 19.8174 35.6087 19.4027 35.8653 19.1461L39.5777 15.4337C39.8343 15.1771 40.249 15.1771 40.5056 15.4337C40.7622 15.6903 40.7622 16.105 40.5056 16.3616L36.7932 20.074C36.6653 20.202 36.4973 20.2663 36.3293 20.2663Z" fill="#FFD500"/>
<path d="M32.6174 23.9766C32.4494 23.9766 32.2814 23.9123 32.1534 23.7843C31.8968 23.5284 31.8968 23.113 32.1534 22.8564L33.0813 21.9278C33.3379 21.6712 33.7527 21.6712 34.0093 21.9278C34.2659 22.1837 34.2659 22.5991 34.0093 22.8557L33.0813 23.7843C32.9534 23.9123 32.7854 23.9766 32.6174 23.9766Z" fill="#FFD500"/>
<path d="M34.9375 33.4688C34.5746 33.4688 34.2812 33.1748 34.2812 32.8125V30.8438C34.2812 30.4815 34.5746 30.1875 34.9375 30.1875C35.3004 30.1875 35.5938 30.4815 35.5938 30.8438V32.8125C35.5938 33.1748 35.3004 33.4688 34.9375 33.4688Z" fill="#FFD500"/>
<path d="M43.2905 30.0099C43.1225 30.0099 42.9545 29.9456 42.8265 29.8176L41.4346 28.4251C41.178 28.1685 41.178 27.7531 41.4346 27.4971C41.6912 27.2405 42.106 27.2405 42.3626 27.4971L43.7545 28.8897C44.0111 29.1463 44.0111 29.5617 43.7545 29.8176C43.6259 29.9456 43.4579 30.0099 43.2905 30.0099Z" fill="#FFD500"/>
<path d="M41.8976 14.6964C41.7296 14.6964 41.5616 14.6321 41.4337 14.5041C41.1771 14.2482 41.1771 13.8328 41.4337 13.5762L42.8256 12.1837C43.0822 11.9271 43.4969 11.9271 43.7535 12.1837C44.0101 12.4396 44.0101 12.855 43.7535 13.1116L42.3616 14.5041C42.2336 14.6321 42.0656 14.6964 41.8976 14.6964Z" fill="#FFD500"/>
<path d="M34.9375 11.8125C34.5746 11.8125 34.2812 11.5185 34.2812 11.1562V9.1875C34.2812 8.82525 34.5746 8.53125 34.9375 8.53125C35.3004 8.53125 35.5938 8.82525 35.5938 9.1875V11.1562C35.5938 11.5185 35.3004 11.8125 34.9375 11.8125Z" fill="#FFD500"/>
<path d="M30.2053 13.7812H23.125C22.7621 13.7812 22.4688 13.4872 22.4688 13.125C22.4688 12.7627 22.7621 12.4688 23.125 12.4688H30.2053C30.5682 12.4688 30.8615 12.7627 30.8615 13.125C30.8615 13.4872 30.5682 13.7812 30.2053 13.7812Z" fill="#FFD500"/>
<path d="M30.2053 29.5312H23.125C22.7621 29.5312 22.4688 29.2372 22.4688 28.875C22.4688 28.5127 22.7621 28.2188 23.125 28.2188H30.2053C30.5682 28.2188 30.8615 28.5127 30.8615 28.875C30.8615 29.2372 30.5682 29.5312 30.2053 29.5312Z" fill="#FFD500"/>
</g>
<defs>
<clipPath id="clip0">
<rect width="31.2766" height="31.2766" fill="white" transform="translate(14.4678 7.14941)"/>
</clipPath>
</defs>
</svg>
