<svg width="62" height="42" viewBox="0 0 62 42" fill="none" xmlns="http://www.w3.org/2000/svg">
<path d="M29.283 9.21855L25.6133 18.1309C25.4889 18.4331 25.2063 18.6408 24.8808 18.6694L6.10994 20.3189C5.64939 20.3593 5.29988 20.7511 5.31194 21.213L5.69367 35.9473C5.7042 36.3525 5.99161 36.6973 6.38823 36.7809L28.4864 41.4291C29.0266 41.5427 29.5757 41.599 30.1248 41.5977L30.1252 37.2279V9.3852C30.125 8.1689 29.7461 8.09394 29.283 9.21855ZM26.7134 36.6963L18.4177 35.3604V31.0122H26.7134V36.6963ZM23.0861 16.5514L0.96424 18.7867C0.28842 18.855 -0.204034 18.1606 0.0838809 17.5455L5.97439 4.95443C6.09423 4.69822 6.33058 4.51567 6.60877 4.46461L30.9158 0.000101252L23.7978 16.036C23.6703 16.323 23.3987 16.5198 23.0861 16.5514ZM55.8901 20.3189L37.1193 18.6695C36.7937 18.6409 36.5111 18.4332 36.3868 18.131L32.717 9.21865C32.2539 8.09394 31.8749 8.1689 31.8749 9.3852V37.2278L31.8753 41.5976C32.4243 41.599 32.9735 41.5426 33.5138 41.429L55.612 36.7808C56.0086 36.6973 56.296 36.3524 56.3064 35.9472L56.6882 21.213C56.7002 20.751 56.3505 20.3593 55.8901 20.3189ZM48.1652 28.189L47.1285 28.2177L47.1075 34.7425C47.1066 35.0299 46.8147 35.3047 46.4516 35.3569L44.7526 35.6013C44.3644 35.6571 44.0468 35.4582 44.0476 35.1563L44.0634 28.3028L42.8776 28.3356C42.301 28.3515 41.9362 27.8893 42.2297 27.5066L45.0498 23.8318C45.3169 23.4835 45.9726 23.5156 46.2301 23.8826L48.7056 27.4106C48.9402 27.7452 48.6435 28.1757 48.1652 28.189ZM61.0357 18.7867L38.9138 16.5514C38.6012 16.5198 38.3295 16.323 38.2021 16.0359L31.0842 0L55.3912 4.46451C55.6694 4.51557 55.9058 4.69812 56.0257 4.95433L61.9162 17.5454C62.204 18.1606 61.7115 18.855 61.0357 18.7867Z" fill="#F0F5F9"/>
<path d="M47.9062 3.54688H15.0938C14.7919 3.54688 14.5469 3.79188 14.5469 4.09375V36.9062C14.5469 37.2087 14.7919 37.4531 15.0938 37.4531H47.9062C48.2081 37.4531 48.4531 37.2087 48.4531 36.9062V4.09375C48.4531 3.79188 48.2081 3.54688 47.9062 3.54688ZM29.3125 31.9844C29.1676 31.9844 29.0281 32.0418 28.9259 32.1446L25.4844 35.5861V5.90008L28.8575 10.9598C28.9592 11.1118 29.1298 11.2031 29.3125 11.2031H34.4854L34.236 14.4423H34.2388C34.2382 14.457 34.2344 14.4702 34.2344 14.4844C34.2344 15.5005 34.9344 16.3498 35.875 16.5942V31.9844H29.3125ZM21.1094 5.90008L24.3906 10.822V32.3048L21.1094 35.5861V5.90008ZM36.4219 15.5781C35.822 15.5781 35.3341 15.0925 35.3292 14.4937L35.3352 14.4177C35.3702 13.8456 35.8416 13.3906 36.4219 13.3906C37.0021 13.3906 37.4735 13.8456 37.5091 14.4171L37.5151 14.4931C37.5096 15.0925 37.0218 15.5781 36.4219 15.5781ZM37.3625 12.5178C37.0765 12.3805 36.7598 12.2969 36.4219 12.2969C36.0839 12.2969 35.7673 12.3805 35.4812 12.5178L35.5819 11.2031H37.2613L37.3625 12.5178ZM35.6661 10.1094L35.7612 8.87398C35.9636 8.96367 36.1867 9.01562 36.4219 9.01562C36.657 9.01562 36.8802 8.96367 37.0825 8.87398L37.1777 10.1094H35.6661ZM35.875 7.375C35.875 7.07367 36.1205 6.82812 36.4219 6.82812C36.7232 6.82812 36.9688 7.07367 36.9688 7.375C36.9688 7.67633 36.7232 7.92188 36.4219 7.92188C36.1205 7.92188 35.875 7.67633 35.875 7.375ZM38.0609 7.33289H38.0581C38.0357 6.44805 37.3122 5.73438 36.4219 5.73438C35.5316 5.73438 34.808 6.44805 34.7856 7.33344H34.7829L34.5691 10.1094H29.6051L25.9591 4.64062H46.8841L43.2381 10.1094H38.2741L38.0609 7.33289ZM24.3906 8.84992L21.5841 4.64062H24.3906V8.84992ZM20.0156 10.1094H19.7613L16.1153 4.64062H20.0156V10.1094ZM19.0138 10.9598C19.1155 11.1118 19.2861 11.2031 19.4688 11.2031H20.0156V31.9844H19.4688C19.3238 31.9844 19.1844 32.0418 19.0821 32.1446L15.6406 35.5861V5.90008L19.0138 10.9598ZM19.6952 33.0781H20.0156V36.3594H16.4139L19.6952 33.0781ZM24.3906 33.8514V36.3594H21.8827L24.3906 33.8514ZM29.5389 33.0781H43.3048L46.5861 36.3594H26.2577L29.5389 33.0781ZM43.9179 32.1446C43.8156 32.0418 43.6762 31.9844 43.5312 31.9844H36.9688V16.5942C37.9094 16.3498 38.6094 15.5005 38.6094 14.4844C38.6094 14.4702 38.6055 14.457 38.605 14.4428H38.6077L38.3584 11.2031H43.5312C43.7139 11.2031 43.8845 11.1118 43.9862 10.9598L47.3594 5.90008V35.5861L43.9179 32.1446Z" fill="#FFD500"/>
</svg>
