<svg width="62" height="42" viewBox="0 0 62 42" fill="none" xmlns="http://www.w3.org/2000/svg">
<path d="M29.283 9.21855L25.6133 18.1309C25.4889 18.4331 25.2063 18.6408 24.8808 18.6694L6.10994 20.3189C5.64939 20.3593 5.29988 20.7511 5.31194 21.213L5.69367 35.9473C5.7042 36.3525 5.99161 36.6973 6.38823 36.7809L28.4864 41.4291C29.0266 41.5427 29.5757 41.599 30.1248 41.5977L30.1252 37.2279V9.3852C30.125 8.1689 29.7461 8.09394 29.283 9.21855ZM26.7134 36.6963L18.4177 35.3604V31.0122H26.7134V36.6963ZM23.0861 16.5514L0.96424 18.7867C0.28842 18.855 -0.204034 18.1606 0.0838809 17.5455L5.97439 4.95443C6.09423 4.69822 6.33058 4.51567 6.60877 4.46461L30.9158 0.000101252L23.7978 16.036C23.6703 16.323 23.3987 16.5198 23.0861 16.5514ZM55.8901 20.3189L37.1193 18.6695C36.7937 18.6409 36.5111 18.4332 36.3868 18.131L32.717 9.21865C32.2539 8.09394 31.8749 8.1689 31.8749 9.3852V37.2278L31.8753 41.5976C32.4243 41.599 32.9735 41.5426 33.5138 41.429L55.612 36.7808C56.0086 36.6973 56.296 36.3524 56.3064 35.9472L56.6882 21.213C56.7002 20.751 56.3505 20.3593 55.8901 20.3189ZM48.1652 28.189L47.1285 28.2177L47.1075 34.7425C47.1066 35.0299 46.8147 35.3047 46.4516 35.3569L44.7526 35.6013C44.3644 35.6571 44.0468 35.4582 44.0476 35.1563L44.0634 28.3028L42.8776 28.3356C42.301 28.3515 41.9362 27.8893 42.2297 27.5066L45.0498 23.8318C45.3169 23.4835 45.9726 23.5156 46.2301 23.8826L48.7056 27.4106C48.9402 27.7452 48.6435 28.1757 48.1652 28.189ZM61.0357 18.7867L38.9138 16.5514C38.6012 16.5198 38.3295 16.323 38.2021 16.0359L31.0842 0L55.3912 4.46451C55.6694 4.51557 55.9058 4.69812 56.0257 4.95433L61.9162 17.5454C62.204 18.1606 61.7115 18.855 61.0357 18.7867Z" fill="#F0F5F9"/>
<g clip-path="url(#clip0)">
<path d="M40.1742 28.3723C40.4618 28.3925 40.7519 28.3684 41.0213 28.3306L41.0232 28.3304C41.0988 28.3194 41.1853 28.3193 41.2932 28.3277C40.5527 28.7966 39.7596 29.1128 38.9721 29.4268C38.1961 29.7362 37.4254 30.0435 36.7156 30.4927C36.4795 30.6442 35.7761 30.3348 35.8846 29.8786L35.3312 26.9535C35.3432 26.9425 35.3549 26.9312 35.3662 26.9196C35.4111 26.9265 35.4558 26.9338 35.5003 26.9417L35.5692 26.5547C35.5772 26.5213 35.5835 26.4863 35.5879 26.4495C35.3005 26.3983 35.0107 26.3705 34.7225 26.3428C33.8335 26.2574 32.9597 26.1735 32.2178 25.4111C31.5878 24.7652 30.9689 25.4335 30.4426 26.022C30.2389 26.2506 30.0435 26.4977 29.8472 26.7459C28.9973 27.8205 28.1306 28.9164 26.5038 28.6272C26.5831 28.4775 26.6464 28.3166 26.6985 28.1518M40.1742 28.3723C40.4463 28.2416 40.7109 28.1007 40.9668 27.9422C40.9669 27.9421 40.9671 27.942 40.9672 27.9419C41.0301 27.903 41.0925 27.863 41.1543 27.8218C41.0862 27.8218 41.0187 27.8258 40.9518 27.8355C40.065 27.9599 39.2564 27.8722 38.9741 26.896M40.1742 28.3723C39.8387 28.5334 39.4918 28.679 39.1354 28.8228C39.0219 28.8687 38.9069 28.9144 38.791 28.9606C38.0428 29.2587 37.2526 29.5734 36.5206 30.0249C36.5124 30.0227 36.5033 30.0198 36.4934 30.0162C36.4715 30.0081 36.4493 29.9975 36.4287 29.9852C36.4086 29.973 36.3927 29.9608 36.3813 29.9501M40.1742 28.3723C39.9663 28.3577 39.7597 28.32 39.5633 28.2476C39.0548 28.0601 38.6757 27.664 38.4937 27.035L38.9741 26.896M38.9741 26.896C38.6949 25.9311 39.872 25.5626 40.1846 25.5036M38.9741 26.896L36.3813 29.9501M40.1846 25.5036C41.8302 25.1836 43.2586 24.4058 44.683 23.6303C45.6222 23.1189 46.5597 22.6085 47.5566 22.2308M40.1846 25.5036L40.0919 25.0123C40.0914 25.0124 40.091 25.0125 40.0905 25.0126C40.0901 25.0127 40.0896 25.0127 40.0892 25.0128L40.1846 25.5036ZM47.5566 22.2308C48.6342 21.8203 48.5661 21.0435 48.4979 20.2671C48.4459 19.6738 48.3938 19.0807 48.8533 18.6516M47.5566 22.2308L47.3786 21.7635C47.3789 21.7634 47.3792 21.7633 47.3794 21.7632C47.7556 21.6198 47.8906 21.4499 47.9541 21.3049C48.03 21.1313 48.0436 20.9048 48.0213 20.5749C48.0166 20.5056 48.0098 20.4284 48.0025 20.346C47.9796 20.086 47.9521 19.7738 47.9718 19.492C47.9997 19.0936 48.1211 18.6632 48.4909 18.3062C48.4919 18.3033 48.493 18.2996 48.494 18.2952C48.5006 18.2679 48.5024 18.2301 48.4937 18.191C48.4855 18.1543 48.4689 18.1197 48.4407 18.0889C48.4134 18.0591 48.3625 18.0187 48.2651 17.9878C47.6197 17.7838 46.9504 17.5023 46.3083 17.2322C45.9708 17.0902 45.6409 16.9514 45.326 16.8288C44.3718 16.4571 43.4923 16.2027 42.6549 16.245L42.6543 16.245C41.1968 16.3166 40.1701 15.7769 39.362 15.0761C38.9661 14.7327 38.6212 14.3497 38.3086 13.9931C38.2627 13.9407 38.2177 13.8891 38.1734 13.8383C37.9083 13.5346 37.6682 13.2595 37.4188 13.02L37.7651 12.6593M47.5566 22.2308L22.2594 20.7393M48.8533 18.6516C49.0846 18.4331 49.1101 17.7313 48.4163 17.5112C47.7903 17.3134 47.1628 17.0492 46.5362 16.7853C45.223 16.2322 43.9136 15.6808 42.6297 15.7456C40.5885 15.8459 39.5199 14.6211 38.5523 13.5121C38.2883 13.2095 38.0318 12.9155 37.7651 12.6593M48.8533 18.6516L48.5099 18.2882C48.4964 18.301 48.4902 18.3103 48.4881 18.3138M48.8533 18.6516L48.4881 18.3138M37.7651 12.6593C37.4942 12.4007 37.313 12.0559 37.1346 11.7164C36.7332 10.9525 36.3461 10.2157 34.9834 10.5492C34.5209 10.6628 34.0065 10.7271 33.4934 10.7912C32.3932 10.9286 31.299 11.0653 30.7345 11.6864C29.7493 12.7705 28.9575 12.702 27.8983 12.6103C27.848 12.6059 27.7971 12.6015 27.7455 12.5971C25.8985 12.4376 24.0802 12.208 22.27 11.7518M37.7651 12.6593L37.4198 13.021C37.1392 12.7531 36.9476 12.4262 36.7957 12.1447C36.7547 12.0685 36.7169 11.9967 36.681 11.9286C36.5735 11.7242 36.4834 11.5529 36.3731 11.396C36.2369 11.2021 36.1045 11.0856 35.9448 11.024C35.7835 10.9619 35.5286 10.9306 35.1027 11.0348C34.7103 11.1312 34.2913 11.1928 33.8867 11.2454C33.7717 11.2603 33.6585 11.2745 33.5469 11.2884C33.2566 11.3247 32.977 11.3596 32.7038 11.4038C31.9239 11.5301 31.3899 11.7087 31.1045 12.0227C30.5318 12.653 29.9792 12.9703 29.3799 13.0933C28.8713 13.1977 28.353 13.1522 27.8621 13.1091C27.8089 13.1044 27.7561 13.0998 27.7036 13.0954L27.7025 13.0953C25.8442 12.9348 23.996 12.7023 22.1486 12.2369M22.27 11.7518C20.876 11.4057 19.391 11.3132 17.954 11.8619M22.27 11.7518L22.1478 12.2367C22.1481 12.2367 22.1483 12.2368 22.1486 12.2369M22.27 11.7518L22.1495 12.2371C22.1492 12.237 22.1489 12.2369 22.1486 12.2369M17.954 11.8619L17.9454 11.8652C16.9585 12.2466 16.0954 12.5801 17.0337 13.8699M17.954 11.8619L18.1323 12.329C18.1326 12.3289 18.1329 12.3287 18.1332 12.3286M17.954 11.8619L18.1342 12.3282C18.1339 12.3284 18.1336 12.3285 18.1332 12.3286M17.0337 13.8699C17.6031 14.6467 17.5313 15.3054 16.5265 15.8174C15.973 16.0965 15.5121 16.6516 15.1388 17.1747C13.5375 19.4093 13.6268 21.5481 15.3765 21.6964M17.0337 13.8699L17.438 13.5758C17.4378 13.5756 17.4377 13.5753 17.4375 13.5751M17.0337 13.8699L17.4369 13.5743C17.4371 13.5746 17.4373 13.5748 17.4375 13.5751M15.3765 21.6964C15.9015 21.7407 16.4289 21.8234 16.958 21.9063C18.8128 22.197 20.6883 22.491 22.5523 21.1446M15.3765 21.6964L15.4187 21.1982M15.3765 21.6964L15.4185 21.1982C15.4186 21.1982 15.4187 21.1982 15.4187 21.1982M22.5523 21.1446C24.1823 19.9643 26.4759 21.0616 27.4584 22.9405C27.6926 23.3892 27.814 23.549 27.9901 23.7805C28.0373 23.8426 28.0884 23.9098 28.1466 23.9892C28.2745 23.9847 28.4081 23.989 28.5474 24.0023L28.5 24.5L28.0821 24.7745C28.0172 24.6757 27.9593 24.59 27.9068 24.5141C26.8093 24.6998 26.6272 25.8197 26.4521 26.8961C26.3861 27.3015 26.3212 27.7007 26.2087 28.0415C26.3844 28.0953 26.5471 28.1311 26.6985 28.1518M22.5523 21.1446L22.2595 20.7393M22.5523 21.1446L22.259 20.7396C22.2591 20.7395 22.2593 20.7394 22.2594 20.7393M26.6985 28.1518C26.7763 27.9053 26.829 27.6502 26.8723 27.4106C26.9012 27.2512 26.926 27.0979 26.9501 26.9495C27.0001 26.6417 27.0468 26.3543 27.1184 26.0741C27.2225 25.6668 27.3555 25.3885 27.5368 25.2194C27.6959 25.0708 27.9534 24.9502 28.4526 24.9977L29.4901 25.0966L28.9179 24.2255C28.6723 23.8516 28.5118 23.6405 28.3874 23.4769C28.3618 23.4433 28.3377 23.4116 28.3147 23.3809C28.1921 23.2173 28.0888 23.0677 27.9016 22.7092L27.9015 22.7088C27.3579 21.6694 26.4506 20.8397 25.4346 20.4314C24.4115 20.0203 23.2424 20.0278 22.2595 20.7393M26.6985 28.1518C26.9756 28.1897 27.2147 28.1771 27.4249 28.132C27.7635 28.0593 28.0637 27.8944 28.3529 27.6558C28.6463 27.4138 28.917 27.1058 29.1986 26.7575C29.2784 26.6589 29.3604 26.5552 29.4443 26.4492C29.6447 26.1958 29.8554 25.9294 30.0692 25.6894L30.0699 25.6887L30.0793 25.6782C30.3259 25.4024 30.6681 25.0197 31.0557 24.8126C31.265 24.7008 31.5223 24.6198 31.8095 24.655C32.1015 24.6908 32.3578 24.8386 32.5757 25.062L32.5761 25.0624C32.9735 25.4708 33.4154 25.644 33.9231 25.7391C34.1842 25.788 34.4548 25.8148 34.7521 25.8433L34.7776 25.8458C35.0607 25.8729 35.368 25.9024 35.6756 25.9572L36.1409 26.04L36.0843 26.5093C36.0416 26.8637 35.8825 27.1264 35.669 27.322L35.6689 27.3222C35.5227 27.456 35.3593 27.5515 35.228 27.6231C35.1759 27.6515 35.1309 27.6752 35.0902 27.6966C35.0136 27.737 34.9522 27.7694 34.8872 27.8098C34.8716 27.8196 34.8575 27.8288 34.8446 27.8376M22.2595 20.7393L22.2594 20.7393M22.2595 20.7393L34.5282 27.6685C34.5919 27.7239 34.6899 27.7769 34.8446 27.8376M22.2594 20.7393C21.1786 21.52 20.0977 21.6948 18.9753 21.6447C18.4061 21.6194 17.8319 21.5364 17.2356 21.4436C17.1692 21.4333 17.1025 21.4228 17.0355 21.4123C16.5087 21.3297 15.9627 21.2441 15.4187 21.1982M34.8446 27.8376C34.8545 27.8415 34.8645 27.8454 34.8748 27.8493C34.9211 27.867 34.9853 27.8896 35.0568 27.9148C35.1859 27.9603 35.3389 28.0142 35.4539 28.0625C35.6603 28.1493 35.9037 28.2755 36.0984 28.4888C36.3054 28.7156 36.4266 29.0065 36.4416 29.3615L36.4418 29.3656C36.4479 29.5449 36.4287 29.7382 36.3813 29.9501M34.8446 27.8376L36.3813 29.9501M15.4187 21.1982C15.0863 21.17 14.8792 21.054 14.7486 20.9081C14.6137 20.7574 14.5167 20.5256 14.5004 20.1934C14.4671 19.515 14.7812 18.5322 15.5453 17.466L15.5459 17.4651C15.9162 16.946 16.3168 16.4831 16.7516 16.2638L16.7516 16.2638L16.7535 16.2629C17.3143 15.9772 17.7392 15.5885 17.8585 15.0514C17.9767 14.5193 17.7567 14.0107 17.4375 13.5751M17.4375 13.5751C17.2244 13.2821 17.1523 13.0936 17.1348 12.9849C17.1214 12.9013 17.1382 12.8653 17.1665 12.8283C17.2112 12.7699 17.3054 12.6933 17.4871 12.6007C17.6656 12.5096 17.8794 12.4267 18.1332 12.3286M18.1332 12.3286C19.4402 11.8299 20.8117 11.905 22.1486 12.2369M48.4881 18.3138C48.4876 18.3148 48.4873 18.3153 48.4874 18.3153L48.4881 18.3138Z" stroke="#FFD500"/>
<path d="M39.0004 19.6199C38.8862 19.6199 38.772 19.5803 38.6771 19.5002C38.6297 19.4597 37.4998 18.4998 36.3571 17.019C35.6807 16.1424 35.1403 15.2634 34.7511 14.4071C34.2525 13.3114 34 12.2461 34 11.2406C34 10.5335 34.1319 9.84745 34.3932 9.20101C34.645 8.57733 35.0052 8.01685 35.4644 7.53561C35.9236 7.05352 36.4584 6.67594 37.0543 6.41214C37.6711 6.13906 38.3257 6 39.0004 6C39.6751 6 40.3297 6.13822 40.9465 6.41214C41.5416 6.67594 42.0764 7.05352 42.5356 7.53476C42.9948 8.01601 43.355 8.57648 43.6068 9.20017C43.8673 9.8466 44 10.5327 44 11.2398C44 12.2453 43.7475 13.3106 43.2489 14.4062C42.8597 15.2625 42.3193 16.1416 41.6429 17.0181C40.5002 18.4998 39.3703 19.4597 39.3229 19.4994C39.2288 19.5803 39.1146 19.6199 39.0004 19.6199ZM39.0004 7.0788C36.8106 7.0788 35.0294 8.94564 35.0294 11.2406C35.0294 13.1757 36.1866 15.0822 37.158 16.3413C37.877 17.2735 38.5983 17.9924 39.0004 18.3691C39.4057 17.989 40.1351 17.2617 40.8556 16.3245C41.8207 15.0704 42.9715 13.1698 42.9715 11.2406C42.9715 8.94564 41.1902 7.0788 39.0004 7.0788Z" fill="white"/>
<path d="M39.0004 7.0788C36.8106 7.0788 35.0294 8.94564 35.0294 11.2406C35.0294 13.1757 36.1866 15.0822 37.158 16.3413C37.877 17.2735 38.5983 17.9924 39.0004 18.3691C39.4057 17.989 40.1351 17.2617 40.8556 16.3245C41.8207 15.0704 42.9715 13.1698 42.9715 11.2406C42.9715 8.94564 41.1902 7.0788 39.0004 7.0788Z" fill="white"/>
<path d="M39.0004 19.6199C38.8862 19.6199 38.772 19.5803 38.6771 19.5002C38.6297 19.4597 37.4998 18.4998 36.3571 17.019C35.6807 16.1424 35.1403 15.2634 34.7511 14.4071C34.2525 13.3114 34 12.2461 34 11.2406C34 10.5335 34.1319 9.84745 34.3932 9.20101C34.645 8.57733 35.0052 8.01685 35.4644 7.53561C35.9236 7.05352 36.4584 6.67594 37.0543 6.41214C37.6711 6.13906 38.3257 6 39.0004 6C39.6751 6 40.3297 6.13822 40.9465 6.41214C41.5416 6.67594 42.0764 7.05352 42.5356 7.53476C42.9948 8.01601 43.355 8.57648 43.6068 9.20017C43.8673 9.8466 44 10.5327 44 11.2398C44 12.2453 43.7475 13.3106 43.2489 14.4062C42.8597 15.2625 42.3193 16.1416 41.6429 17.0181C40.5002 18.4998 39.3703 19.4597 39.3229 19.4994C39.2288 19.5803 39.1146 19.6199 39.0004 19.6199ZM39.0004 7.0788C36.8106 7.0788 35.0294 8.94564 35.0294 11.2406C35.0294 13.1757 36.1866 15.0822 37.158 16.3413C37.877 17.2735 38.5983 17.9924 39.0004 18.3691C39.4057 17.989 40.1351 17.2617 40.8556 16.3245C41.8207 15.0704 42.9715 13.1698 42.9715 11.2406C42.9715 8.94564 41.1902 7.0788 39.0004 7.0788Z" fill="#FFD500"/>
<path d="M39.0018 14.2251C38.6552 14.2251 38.3182 14.1569 38.0014 14.0237C37.695 13.8944 37.4208 13.7098 37.1844 13.4739C36.9487 13.2387 36.763 12.9642 36.6335 12.6584C36.4992 12.3422 36.4316 12.0059 36.4316 11.6599C36.4316 11.314 36.5 10.9777 36.6335 10.6615C36.763 10.3557 36.9479 10.082 37.1844 9.84599C37.42 9.61082 37.695 9.42541 38.0014 9.29619C38.3182 9.16215 38.6552 9.09473 39.0018 9.09473C39.3484 9.09473 39.6853 9.16295 40.0022 9.29619C40.3086 9.42541 40.5828 9.61001 40.8192 9.84599C41.0549 10.0812 41.2406 10.3557 41.3701 10.6615C41.5044 10.9777 41.5719 11.314 41.5719 11.6599C41.5719 12.0059 41.5036 12.3422 41.3701 12.6584C41.2406 12.9642 41.0557 13.2379 40.8192 13.4739C40.5836 13.709 40.3086 13.8944 40.0022 14.0237C39.6853 14.1577 39.3484 14.2251 39.0018 14.2251ZM39.0018 10.1221C38.1518 10.1221 37.461 10.8123 37.461 11.6599C37.461 12.5075 38.1526 13.1978 39.0018 13.1978C39.8518 13.1978 40.5426 12.5075 40.5426 11.6599C40.5426 10.8123 39.8518 10.1221 39.0018 10.1221Z" fill="#FFD500"/>
</g>
<defs>
<clipPath id="clip0">
<rect width="35" height="34.9984" fill="white" transform="translate(14 3)"/>
</clipPath>
</defs>
</svg>
