<svg width="35" height="35" viewBox="0 0 35 35" fill="none" xmlns="http://www.w3.org/2000/svg">
<g clip-path="url(#clip0)">
<path d="M26.4832 3.87887L17.7332 0.0486995C17.5845 -0.0162332 17.4153 -0.0162332 17.2666 0.0486995L8.51657 3.87887C8.30408 3.9716 8.16668 4.18136 8.16656 4.4132V13.5715C8.16973 15.6297 9.15876 17.5618 10.8266 18.7679L16.874 23.1295C17.2475 23.3998 17.7523 23.3998 18.1258 23.1295L24.1732 18.7684C25.841 17.5624 26.8301 15.6303 26.8332 13.5721V4.4132C26.8331 4.18136 26.6957 3.9716 26.4832 3.87887ZM25.6666 13.5721C25.6639 15.2556 24.8549 16.8358 23.4907 17.8223L17.4999 22.143L11.5091 17.8223C10.1449 16.8358 9.3359 15.2556 9.33323 13.5721V4.7947L17.4999 1.22003L25.6666 4.7947V13.5721Z" fill="#FFD500"/>
<path d="M17.267 2.59557L10.8504 5.40491C10.6379 5.49764 10.5005 5.7074 10.5004 5.93924V13.5722C10.5022 14.881 11.1312 16.1096 12.192 16.8762L17.1591 20.459C17.3629 20.606 17.6379 20.606 17.8416 20.459L22.8087 16.8762C23.8695 16.1096 24.4986 14.881 24.5004 13.5722V5.93924C24.5003 5.7074 24.3629 5.49764 24.1504 5.40491L17.7337 2.59557C17.5849 2.53064 17.4158 2.53064 17.267 2.59557ZM23.3337 6.32016V13.5722C23.3319 14.5061 22.883 15.3827 22.1262 15.93L17.5004 19.2667L12.8745 15.93C12.1177 15.3827 11.6688 14.5061 11.667 13.5722V6.32016L17.5004 3.76691L23.3337 6.32016Z" fill="#FFD500"/>
<path d="M4.83324 19.3664L3.57149 16.4182C3.30317 15.8104 2.73097 15.3919 2.07043 15.3204C1.40989 15.2489 0.761357 15.5352 0.369136 16.0714C-0.0230852 16.6077 -0.0994104 17.3125 0.168911 17.9203L2.45499 22.9492C2.76341 23.63 3.19246 24.2494 3.72141 24.7774L7.31649 28.3731C7.11403 28.5877 7.00096 28.8714 7.00033 29.1664V33.8331C7.00033 34.4774 7.52266 34.9998 8.167 34.9998H14.5837C15.228 34.9998 15.7503 34.4774 15.7503 33.8331V29.1664C15.7503 28.5221 15.228 27.9997 14.5837 27.9997V26.9142C14.6015 25.5326 14.1508 24.1858 13.305 23.0933C12.8091 22.4411 12.1333 21.9482 11.3607 21.6752C10.1322 21.1591 9.00225 20.4339 8.02116 19.5321C7.11049 18.7821 5.81676 18.7148 4.83324 19.3664ZM14.5837 33.8331H8.167V29.1664H14.5837V33.8331ZM12.3944 23.8219C13.0744 24.7078 13.4347 25.7976 13.417 26.9142V27.9997H8.59341L4.54624 23.9526C4.11641 23.5234 3.76761 23.02 3.51666 22.4668L1.23058 17.4379C1.13302 17.2233 1.15117 16.9738 1.27878 16.7755C1.40639 16.5773 1.62597 16.4574 1.86174 16.4573C2.1392 16.4571 2.38996 16.6227 2.49874 16.8779L3.80366 19.9212C4.15017 20.7331 4.64964 21.4708 5.27483 22.0941L7.93949 24.7593C8.08595 24.911 8.30284 24.9718 8.50679 24.9184C8.71074 24.865 8.87002 24.7057 8.9234 24.5018C8.97679 24.2978 8.91597 24.081 8.76433 23.9345L6.09966 21.2692C5.83172 21.0019 5.5908 20.7089 5.38041 20.3942C5.94061 19.9632 6.72431 19.9762 7.26983 20.4257C8.36028 21.4265 9.6206 22.2246 10.9915 22.7824C11.55 22.9855 12.0375 23.3467 12.3944 23.8219Z" fill="#FFD500"/>
<path d="M12.8339 30.916H12.2506C11.9284 30.916 11.6672 31.1772 11.6672 31.4993C11.6672 31.8215 11.9284 32.0827 12.2506 32.0827H12.8339C13.1561 32.0827 13.4172 31.8215 13.4172 31.4993C13.4172 31.1772 13.1561 30.916 12.8339 30.916Z" fill="#FFD500"/>
<path d="M32.5457 22.9492L34.8318 17.9203C35.1129 17.3105 35.0434 16.5964 34.6499 16.0523C34.2564 15.5081 33.6001 15.2183 32.9329 15.2942C32.2656 15.37 31.6911 15.7997 31.4298 16.4183L30.171 19.3553C29.184 18.7069 27.8897 18.7779 26.9795 19.5303C25.9985 20.4322 24.8686 21.1573 23.64 21.6735C22.8674 21.9464 22.1916 22.4394 21.6957 23.0916C20.8495 24.1845 20.3988 25.532 20.417 26.9142V27.9997C19.7727 27.9997 19.2504 28.5221 19.2504 29.1664V33.8331C19.2504 34.4774 19.7727 34.9997 20.417 34.9997H26.8337C27.478 34.9997 28.0004 34.4774 28.0004 33.8331V29.1664C27.9997 28.8714 27.8867 28.5877 27.6842 28.3731L31.2793 24.7774C31.8083 24.2494 32.2373 23.63 32.5457 22.9492ZM26.8337 33.8331H20.417V29.1664H26.8337V33.8331ZM26.4073 27.9997H21.5837V26.9142C21.5661 25.7978 21.9265 24.7082 22.6063 23.8225C22.9624 23.3476 23.4488 22.9863 24.0063 22.7824C25.3774 22.2247 26.638 21.4266 27.7285 20.4257C28.2735 19.9728 29.0594 19.9576 29.6215 20.389C29.4105 20.7059 29.1683 21.001 28.8987 21.2698L26.234 23.9351C26.013 24.164 26.0161 24.5278 26.2412 24.7528C26.4662 24.9778 26.83 24.981 27.0589 24.7599L29.7236 22.0947C30.3487 21.4714 30.8482 20.7337 31.1947 19.9217L32.4996 16.8779C32.6087 16.623 32.8594 16.4578 33.1366 16.4579C33.3724 16.458 33.592 16.5779 33.7196 16.7761C33.8472 16.9744 33.8654 17.2239 33.7678 17.4385L31.4817 22.4674C31.2308 23.0206 30.882 23.5239 30.4521 23.9532L26.4073 27.9997Z" fill="#FFD500"/>
<path d="M22.7508 30.916H22.1675C21.8453 30.916 21.5842 31.1772 21.5842 31.4993C21.5842 31.8215 21.8453 32.0827 22.1675 32.0827H22.7508C23.073 32.0827 23.3342 31.8215 23.3342 31.4993C23.3342 31.1772 23.073 30.916 22.7508 30.916Z" fill="#FFD500"/>
<path d="M14.3505 12.3667C14.0928 12.1734 13.7272 12.2257 13.5339 12.4834C13.3406 12.7411 13.3928 13.1068 13.6505 13.3001L15.9839 15.0501C16.0848 15.1258 16.2077 15.1667 16.3339 15.1667C16.3669 15.1666 16.3999 15.1639 16.4325 15.1586C16.5904 15.1315 16.7303 15.0405 16.8192 14.9072L21.4859 7.90716C21.6015 7.73377 21.6159 7.51184 21.5236 7.32497C21.4313 7.13811 21.2462 7.0147 21.0383 7.00122C20.8303 6.98775 20.6309 7.08627 20.5152 7.25966L16.1904 13.7469L14.3505 12.3667Z" fill="#FFD500"/>
</g>
<defs>
<clipPath id="clip0">
<rect width="35" height="35" fill="white"/>
</clipPath>
</defs>
</svg>
