<svg width="35" height="35" viewBox="0 0 35 35" fill="none" xmlns="http://www.w3.org/2000/svg">
<path d="M12.2289 32.6627C14.007 32.6601 15.7578 32.2241 17.3296 31.3926C18.9013 30.5611 20.2468 29.3591 21.2495 27.8906H22.7509C22.8692 27.8921 22.9837 27.8492 23.0719 27.7704C23.1601 27.6915 23.2155 27.5825 23.2272 27.4648L23.4521 25.1353C24.4416 24.885 25.3878 24.4872 26.2589 23.9554L28.0521 25.4412C28.1438 25.5173 28.2606 25.5564 28.3796 25.5509C28.4987 25.5454 28.6114 25.4957 28.6957 25.4115L31.2411 22.8662C31.3254 22.782 31.3751 22.6693 31.3807 22.5503C31.3863 22.4313 31.3473 22.3145 31.2713 22.2227L29.7836 20.4264C30.3137 19.5548 30.7127 18.6101 30.9678 17.6224L33.2691 17.3979C33.3874 17.3864 33.4972 17.3312 33.5771 17.2432C33.6569 17.1552 33.7012 17.0405 33.7012 16.9217V13.313C33.7012 13.194 33.6569 13.0793 33.5769 12.9913C33.4969 12.9032 33.387 12.8481 33.2686 12.8367L30.9356 12.6118C30.6848 11.6222 30.2864 10.676 29.754 9.80499L31.2391 8.01172C31.3147 7.92035 31.3538 7.80413 31.3486 7.68561C31.3434 7.56709 31.2944 7.45472 31.211 7.3703L28.6978 4.82494C28.6137 4.73978 28.5008 4.68921 28.3812 4.68323C28.2617 4.67724 28.1443 4.71627 28.0521 4.79261L26.2557 6.28024C25.3842 5.75028 24.4396 5.35133 23.4521 5.09619L23.2272 2.75994C23.2159 2.6412 23.161 2.53087 23.0729 2.45037C22.9849 2.36986 22.8702 2.3249 22.7509 2.32422H19.1422C19.0229 2.32491 18.9081 2.36987 18.8201 2.45039C18.7321 2.53091 18.6771 2.64125 18.6659 2.76001L18.441 5.09441C17.4514 5.34567 16.5053 5.74433 15.6343 6.27703L13.841 4.79199C13.7492 4.71602 13.6324 4.67703 13.5134 4.68264C13.3943 4.68826 13.2817 4.73807 13.1975 4.82234L10.652 7.36791C10.5678 7.45216 10.518 7.56483 10.5124 7.68386C10.5068 7.8029 10.5458 7.91973 10.6218 8.01151L12.1095 9.808C11.9101 10.1389 11.7283 10.48 11.5648 10.83C5.84602 11.1747 1.29883 15.9323 1.29883 21.7361C1.29883 27.7629 6.20204 32.6627 12.2289 32.6627ZM22.3163 26.9336H21.8366C22.0705 26.5091 22.2734 26.0681 22.4435 25.6143L22.3163 26.9336ZM15.5974 11.3413C16.191 10.5007 16.9744 9.81193 17.884 9.33074C18.7937 8.84954 19.8039 8.5895 20.8328 8.57172C21.8617 8.55393 22.8803 8.77889 23.806 9.22836C24.7317 9.67783 25.5385 10.3391 26.1608 11.1587C26.7832 11.9782 27.2036 12.9329 27.388 13.9453C27.5725 14.9577 27.5157 15.9993 27.2223 16.9857C26.9289 17.972 26.4072 18.8753 25.6994 19.6224C24.9917 20.3694 24.1178 20.9391 23.1487 21.2853C22.9575 16.6318 19.8433 12.7201 15.5974 11.3413ZM11.6367 7.73691L13.5661 5.80754L15.2927 7.23741C15.372 7.30306 15.4703 7.34139 15.5731 7.34671C15.6759 7.35203 15.7777 7.32406 15.8633 7.26694C16.8134 6.63835 17.8722 6.19211 18.9856 5.95103C19.085 5.92891 19.1748 5.87588 19.2422 5.79954C19.3096 5.7232 19.3511 5.62748 19.3607 5.5261L19.5768 3.28125H22.3163L22.5324 5.5261C22.5421 5.62729 22.5836 5.72281 22.651 5.79889C22.7185 5.87497 22.8083 5.92768 22.9076 5.94945C24.0214 6.19742 25.0812 6.64484 26.0358 7.27009C26.1212 7.32529 26.222 7.35185 26.3235 7.3459C26.425 7.33995 26.522 7.30181 26.6004 7.237L28.3248 5.80911L30.2259 7.73466L28.7943 9.4634C28.7287 9.54268 28.6903 9.64102 28.685 9.74383C28.6797 9.84663 28.7076 9.94841 28.7647 10.0341C29.3933 10.9841 29.8396 12.0429 30.0807 13.1563C30.1021 13.2555 30.1545 13.3453 30.2303 13.4127C30.3061 13.4802 30.4014 13.5218 30.5024 13.5315L32.7441 13.7476V16.4876L30.5341 16.7032C30.4332 16.7131 30.338 16.7547 30.2623 16.8221C30.1866 16.8895 30.1343 16.9793 30.1129 17.0784C29.8652 18.1922 29.418 19.252 28.793 20.2066C28.7378 20.292 28.7114 20.3928 28.7174 20.4944C28.7234 20.5959 28.7617 20.6929 28.8265 20.7712L30.2563 22.4978L28.327 24.4271L26.6004 22.9973C26.5211 22.9316 26.4228 22.8933 26.32 22.8879C26.2172 22.8826 26.1154 22.9106 26.0297 22.9677C25.0797 23.5963 24.021 24.0426 22.9076 24.2836C22.8899 24.2879 22.8725 24.2931 22.8554 24.2994C23.014 23.6415 23.1109 22.9704 23.1448 22.2946C24.3005 21.9407 25.3537 21.3129 26.2147 20.4647C27.0757 19.6165 27.7191 18.5728 28.0902 17.4226C28.4613 16.2723 28.5491 15.0494 28.3462 13.8579C28.1432 12.6664 27.6555 11.5416 26.9245 10.579C26.1936 9.61645 25.241 8.84466 24.1477 8.32928C23.0544 7.8139 21.8529 7.57017 20.6452 7.61883C19.4375 7.66748 18.2595 8.00708 17.2112 8.60874C16.1629 9.2104 15.2755 10.0563 14.6243 11.0746C13.9717 10.9283 13.3071 10.8424 12.6388 10.8179C12.7792 10.5513 12.9331 10.287 13.1002 10.028C13.1553 9.94259 13.1818 9.84178 13.1757 9.74027C13.1697 9.63875 13.1315 9.54179 13.0666 9.46347L11.6367 7.73691ZM12.2289 11.7665C17.728 11.7665 22.2018 16.2403 22.2018 21.7395C22.2018 27.2387 17.728 31.7125 12.2289 31.7125C6.72978 31.7125 2.25586 27.2386 2.25586 21.7395C2.25586 16.2404 6.72971 11.7665 12.2289 11.7665Z" fill="#FFD500"/>
<path d="M6.53005 24.5401H6.53955C6.7035 24.5413 6.86602 24.5096 7.01749 24.4468C7.16896 24.3841 7.3063 24.2916 7.42138 24.1748C7.53681 24.0613 7.62818 23.9258 7.69003 23.7762C7.75188 23.6267 7.78295 23.4662 7.78136 23.3043C7.77788 22.976 7.64415 22.6625 7.40958 22.4327C7.175 22.203 6.85878 22.0758 6.53046 22.0792H6.5215C6.19516 22.0803 5.88266 22.2111 5.65273 22.4427C5.42281 22.6743 5.2943 22.9877 5.29548 23.3141C5.29666 23.6404 5.42743 23.9529 5.65902 24.1829C5.89061 24.4128 6.20405 24.5413 6.53039 24.5401H6.53005ZM6.3208 23.1109C6.34849 23.0849 6.38118 23.0649 6.41686 23.0521C6.45255 23.0393 6.49049 23.0339 6.52834 23.0362H6.53053C6.60743 23.0329 6.68255 23.0599 6.73969 23.1115C6.79682 23.1631 6.8314 23.2351 6.83596 23.3119C6.83464 23.3487 6.82601 23.3848 6.81056 23.4182C6.79512 23.4516 6.77317 23.4816 6.74599 23.5064C6.71726 23.5327 6.6836 23.553 6.64695 23.5662C6.6103 23.5793 6.5714 23.5851 6.53251 23.5831H6.53025C6.49248 23.5846 6.45478 23.5785 6.41935 23.5653C6.38392 23.5521 6.35147 23.532 6.32388 23.5062C6.29652 23.4811 6.27462 23.4507 6.25954 23.4168C6.24446 23.3829 6.23653 23.3463 6.23624 23.3092C6.23595 23.2721 6.24331 23.2353 6.25786 23.2012C6.27241 23.1671 6.29383 23.1363 6.3208 23.1109Z" fill="#FFD500"/>
<path d="M17.9467 24.4727H17.9561C18.2915 24.4715 18.6127 24.3371 18.849 24.0991C19.0854 23.861 19.2174 23.5389 19.2162 23.2035C19.215 22.8681 19.0807 22.5469 18.8426 22.3106C18.6046 22.0743 18.2825 21.9422 17.9471 21.9434H17.9377C17.7717 21.944 17.6073 21.9772 17.4541 22.0413C17.3009 22.1054 17.1618 22.1991 17.0448 22.3169C16.8085 22.5549 16.6764 22.8771 16.6776 23.2125C16.6787 23.5479 16.8131 23.8691 17.0511 24.1054C17.2891 24.3417 17.6113 24.4738 17.9467 24.4727ZM17.9448 22.9004H17.947C18.026 22.9038 18.1008 22.9376 18.1556 22.9947C18.2105 23.0518 18.2413 23.1278 18.2415 23.207C18.2418 23.2861 18.2116 23.3624 18.1572 23.4199C18.1027 23.4773 18.0282 23.5116 17.9491 23.5156H17.9469C17.8693 23.5148 17.7951 23.4834 17.7405 23.4283C17.6845 23.3689 17.6531 23.2905 17.6528 23.2088C17.6517 23.1295 17.6816 23.0529 17.7361 22.9953C17.7906 22.9377 17.8655 22.9036 17.9448 22.9004Z" fill="#FFD500"/>
<path d="M5.9165 27.6855H5.92334L7.05523 27.6844C7.28041 27.6832 7.4959 27.5927 7.65433 27.4327C7.81275 27.2726 7.90113 27.0562 7.90002 26.8311L7.89414 25.9522L16.6338 25.8854L16.6397 26.7644C16.6412 26.9898 16.7313 27.2057 16.8905 27.3652C17.0498 27.5248 17.2654 27.6153 17.4908 27.6172H17.4973L18.6292 27.6051C18.855 27.6027 19.0707 27.511 19.2291 27.35C19.3874 27.189 19.4756 26.9718 19.4741 26.7459L19.4679 25.797C19.7008 25.7144 19.9033 25.5633 20.0489 25.3636C20.1944 25.1638 20.2762 24.9248 20.2835 24.6777L20.7099 21.9341C20.7138 21.9086 20.7157 21.8828 20.7156 21.857C20.7148 21.3675 20.5369 20.8948 20.2145 20.5263C19.9528 20.2238 19.5943 20.0214 19.2 19.9538L17.8438 17.5032C17.3895 16.7025 16.7242 15.791 15.599 15.791H15.5838L8.84625 15.8398C7.92798 15.8466 7.12544 16.4674 6.58519 17.5943L5.21801 20.0575C4.41335 20.2062 3.80092 20.9257 3.74589 21.8441C3.74301 21.8914 3.74172 21.9394 3.74206 21.9877C3.74235 22.0129 3.74464 22.038 3.74889 22.0629L4.2069 24.8005C4.21676 25.0336 4.29305 25.259 4.42677 25.4502C4.56049 25.6413 4.74608 25.7903 4.96166 25.8795C4.99392 25.8932 5.02674 25.9042 5.05975 25.9148L5.06604 26.8513C5.06665 26.962 5.08917 27.0716 5.13233 27.1736C5.17548 27.2756 5.23841 27.368 5.31747 27.4456C5.39654 27.5232 5.49018 27.5843 5.59299 27.6255C5.6958 27.6667 5.80576 27.6871 5.9165 27.6855ZM6.02184 26.7422L6.01665 25.9682L6.93711 25.9614L6.9423 26.7357L6.02184 26.7422ZM17.5957 26.6518L17.5906 25.8786L18.511 25.8718L18.5162 26.6453L17.5957 26.6518ZM7.42916 18.0428C7.43401 18.0341 7.43852 18.0253 7.44283 18.0163C7.6596 17.5609 8.131 16.8021 8.8537 16.7968L15.5912 16.748H15.5986C16.0982 16.748 16.5215 17.1116 17.0087 17.9706L18.097 19.9393L17.2899 19.9441C17.1892 19.4923 16.9367 19.0887 16.5745 18.8006C16.2123 18.5124 15.7623 18.3571 15.2994 18.3606C14.8366 18.364 14.389 18.526 14.0311 18.8195C13.6732 19.1131 13.4268 19.5204 13.3329 19.9736L6.32857 20.0277L7.42916 18.0428ZM16.289 19.9646L14.3339 19.987C14.4154 19.7965 14.551 19.6341 14.724 19.5201C14.897 19.4061 15.0997 19.3455 15.3068 19.3457H15.3148C15.5198 19.3431 15.721 19.4003 15.894 19.5102C16.067 19.6201 16.2043 19.778 16.289 19.9646ZM5.16236 24.7507C5.16205 24.7255 5.15977 24.7003 5.15552 24.6755L4.69923 21.9455C4.69923 21.9308 4.70011 21.916 4.701 21.9011C4.72657 21.4751 5.00411 21.0205 5.47025 20.9859C5.48392 20.9871 5.49807 20.9865 5.51216 20.9865H5.51585L18.8956 20.9004C18.8976 20.9004 18.8996 20.9182 18.9016 20.9182H18.9053C19.0168 20.9159 19.1275 20.9377 19.2298 20.9823C19.3321 21.0269 19.4235 21.0931 19.4978 21.1764C19.6577 21.36 19.7495 21.5932 19.7576 21.8367L19.3325 24.5683C19.3285 24.5932 19.3266 24.6183 19.3268 24.6435C19.3266 24.714 19.2987 24.7816 19.2491 24.8316C19.1994 24.8817 19.1321 24.9102 19.0616 24.911L5.43129 25.0158C5.39607 25.0166 5.36109 25.0098 5.32875 24.9958C5.27999 24.9758 5.2382 24.9419 5.20861 24.8983C5.17901 24.8547 5.16293 24.8034 5.16236 24.7507Z" fill="#FFD500"/>
<path d="M9.9719 23.7891H9.97546C10.0375 23.7904 10.0992 23.7794 10.157 23.7565C10.2147 23.7336 10.2672 23.6994 10.3115 23.6559C10.3558 23.6123 10.3909 23.5604 10.4148 23.5031C10.4386 23.4457 10.4508 23.3842 10.4505 23.3221L10.4452 22.6168C10.4446 22.5546 10.4318 22.4931 10.4074 22.4359C10.383 22.3787 10.3476 22.3269 10.3031 22.2834C10.2587 22.2398 10.2061 22.2055 10.1484 22.1824C10.0906 22.1592 10.0289 22.1477 9.96671 22.1485H9.96308C9.90016 22.1489 9.83793 22.1617 9.77997 22.1862C9.72201 22.2107 9.66945 22.2464 9.62533 22.2913C9.5812 22.3361 9.54636 22.3893 9.52282 22.4476C9.49927 22.506 9.48748 22.5684 9.48812 22.6314L9.49339 23.3286C9.49412 23.3904 9.50713 23.4514 9.53166 23.5082C9.55619 23.5649 9.59175 23.6161 9.63628 23.659C9.68081 23.7018 9.73341 23.7354 9.79103 23.7577C9.84864 23.7801 9.91013 23.7907 9.9719 23.7891Z" fill="#FFD500"/>
<path d="M14.5151 23.7891H14.5187C14.6466 23.7864 14.7683 23.7332 14.8573 23.6412C14.9463 23.5492 14.9953 23.4258 14.9937 23.2978L14.9884 22.5704C14.9881 22.4425 14.9379 22.3198 14.8486 22.2282C14.7592 22.1367 14.6377 22.0835 14.5099 22.0801H14.5063C14.3781 22.0831 14.2564 22.1366 14.1675 22.2289C14.0786 22.3211 14.0296 22.4447 14.0312 22.5729L14.0366 23.2995C14.0369 23.4274 14.0871 23.55 14.1765 23.6414C14.2659 23.7328 14.3873 23.7858 14.5151 23.7891Z" fill="#FFD500"/>
<path d="M11.4862 23.7892H11.4899C11.5525 23.7895 11.6145 23.7773 11.6724 23.7534C11.7302 23.7296 11.7828 23.6944 11.827 23.6501C11.8711 23.6058 11.9061 23.5531 11.9297 23.4951C11.9534 23.4372 11.9653 23.3751 11.9648 23.3125L11.9596 22.612C11.9589 22.5501 11.9459 22.4889 11.9214 22.432C11.897 22.3751 11.8615 22.3236 11.817 22.2805C11.7725 22.2374 11.7199 22.2035 11.6622 22.1809C11.6045 22.1582 11.543 22.1472 11.481 22.1485H11.4775C11.4151 22.1478 11.3531 22.1596 11.2953 22.1831C11.2375 22.2066 11.1849 22.2414 11.1407 22.2855C11.0965 22.3295 11.0615 22.382 11.0377 22.4397C11.014 22.4974 11.002 22.5593 11.0025 22.6217L11.0077 23.324C11.0084 23.386 11.0213 23.4473 11.0457 23.5043C11.0702 23.5613 11.1057 23.6129 11.1502 23.6562C11.1946 23.6994 11.2472 23.7334 11.3049 23.7563C11.3626 23.7791 11.4242 23.7903 11.4862 23.7892Z" fill="#FFD500"/>
<path d="M13.0008 23.7891H13.0044C13.1319 23.7875 13.2535 23.7354 13.3425 23.6442C13.4316 23.553 13.4808 23.4301 13.4794 23.3027L13.4742 22.5728C13.4739 22.4447 13.4238 22.3216 13.3345 22.2297C13.2453 22.1378 13.1237 22.0841 12.9957 22.0801H12.992C12.8634 22.0842 12.7416 22.1387 12.6528 22.2318C12.564 22.3249 12.5152 22.4491 12.5171 22.5777L12.5223 23.3019C12.5228 23.4295 12.5731 23.5518 12.6625 23.6428C12.7518 23.7338 12.8733 23.7863 13.0008 23.7891Z" fill="#FFD500"/>
</svg>
