<svg width="35" height="35" viewBox="0 0 35 35" fill="none" xmlns="http://www.w3.org/2000/svg">
<g clip-path="url(#clip0)">
<path d="M34.9079 29.5013L29.4392 21.2982C29.2718 21.0472 28.9328 20.9788 28.6807 21.1467C28.4291 21.3146 28.3613 21.6537 28.5292 21.9052L33.4314 29.258H1.56823L6.47042 21.9058C6.63831 21.6542 6.5705 21.3152 6.31894 21.1473C6.06628 20.9794 5.72722 21.0477 5.56042 21.2988L0.0916724 29.5019C-0.0198901 29.6692 -0.0308276 29.8852 0.0643286 30.063C0.159485 30.2407 0.344876 30.3517 0.546672 30.3517H34.4529C34.6547 30.3517 34.8401 30.2402 34.9353 30.0624C35.0304 29.8847 35.0195 29.6692 34.9079 29.5013Z" fill="#FFD500"/>
<path d="M34.4531 29.2578H0.546875C0.244453 29.2578 0 29.5023 0 29.8047V31.9922C0 32.2946 0.244453 32.5391 0.546875 32.5391H34.4531C34.7555 32.5391 35 32.2946 35 31.9922V29.8047C35 29.5023 34.7555 29.2578 34.4531 29.2578ZM33.9062 31.4453H1.09375V30.3516H33.9062V31.4453Z" fill="#FFD500"/>
<path d="M8.48926 23.2958C8.21364 23.1651 7.88934 23.2821 7.76028 23.5539L4.89302 29.5695C4.76286 29.8424 4.8788 30.1689 5.15114 30.2985C5.22771 30.3351 5.30755 30.3521 5.3863 30.3521C5.59083 30.3521 5.78661 30.2372 5.88013 30.0404L8.74739 24.0247C8.87754 23.7518 8.76161 23.4254 8.48926 23.2958Z" fill="#FFD500"/>
<path d="M11.9448 23.8102C11.6577 23.7276 11.3514 23.8944 11.2689 24.1853L10.4846 26.9197C10.4015 27.2095 10.5694 27.5125 10.8598 27.5956C10.9096 27.6099 10.9604 27.617 11.0107 27.617C11.2481 27.617 11.4674 27.4611 11.5357 27.2205L12.32 24.4861C12.4031 24.1963 12.2352 23.8933 11.9448 23.8102Z" fill="#FFD500"/>
<path d="M30.1072 29.5696L29.0637 27.381C28.9347 27.1092 28.6104 26.9922 28.3347 27.1229C28.0624 27.2525 27.9465 27.579 28.0766 27.8519L29.12 30.0405C29.2136 30.2368 29.4093 30.3516 29.6139 30.3516C29.6926 30.3516 29.7725 30.3347 29.849 30.2986C30.1214 30.169 30.2373 29.8425 30.1072 29.5696Z" fill="#FFD500"/>
<path d="M28.0203 25.1918L26.197 21.3664C26.0674 21.0946 25.7431 20.9776 25.468 21.1083C25.1957 21.2379 25.0798 21.5643 25.2099 21.8372L27.0332 25.6626C27.1267 25.859 27.3225 25.9738 27.527 25.9738C27.6058 25.9738 27.6856 25.9568 27.7622 25.9208C28.0345 25.7911 28.1505 25.4647 28.0203 25.1918Z" fill="#FFD500"/>
<path d="M24.5153 26.9197L23.731 24.1854C23.6479 23.8939 23.3428 23.7276 23.0551 23.8102C22.7642 23.8933 22.5968 24.1963 22.6799 24.4862L23.4642 27.2205C23.5331 27.4611 23.7513 27.617 23.9892 27.617C24.0395 27.617 24.0903 27.6099 24.1401 27.5957C24.431 27.5126 24.5984 27.2096 24.5153 26.9197Z" fill="#FFD500"/>
<path d="M8.25449 23.2422H4.55707C4.25465 23.2422 4.01019 23.4866 4.01019 23.7891C4.01019 24.0915 4.25465 24.3359 4.55707 24.3359H8.25449C8.55637 24.3359 8.80136 24.0915 8.80136 23.7891C8.80136 23.4866 8.55691 23.2422 8.25449 23.2422Z" fill="#FFD500"/>
<path d="M32.9945 27.0703H28.5708C28.2684 27.0703 28.0239 27.3148 28.0239 27.6172C28.0239 27.9196 28.2684 28.1641 28.5708 28.1641H32.9945C33.2969 28.1641 33.5413 27.9196 33.5413 27.6172C33.5413 27.3148 33.2969 27.0703 32.9945 27.0703Z" fill="#FFD500"/>
<path d="M31.5368 24.8828H27.5282C27.2258 24.8828 26.9813 25.1273 26.9813 25.4297C26.9813 25.7321 27.2258 25.9766 27.5282 25.9766H31.5368C31.8392 25.9766 32.0837 25.7321 32.0837 25.4297C32.0837 25.1273 31.8392 24.8828 31.5368 24.8828Z" fill="#FFD500"/>
<path d="M16.4063 23.7891H11.794C11.4916 23.7891 11.2471 24.0335 11.2471 24.3359C11.2471 24.6384 11.4916 24.8828 11.794 24.8828H16.4063C16.7088 24.8828 16.9532 24.6384 16.9532 24.3359C16.9532 24.0335 16.7088 23.7891 16.4063 23.7891Z" fill="#FFD500"/>
<path d="M23.206 23.7891H18.6445C18.342 23.7891 18.0976 24.0335 18.0976 24.3359C18.0976 24.6384 18.342 24.8828 18.6445 24.8828H23.206C23.5078 24.8828 23.7528 24.6384 23.7528 24.3359C23.7528 24.0335 23.5084 23.7891 23.206 23.7891Z" fill="#FFD500"/>
<path d="M23.9898 26.5234H11.0103C10.7078 26.5234 10.4634 26.7679 10.4634 27.0703C10.4634 27.3727 10.7078 27.6172 11.0103 27.6172H23.9898C24.2922 27.6172 24.5367 27.3727 24.5367 27.0703C24.5367 26.7679 24.2922 26.5234 23.9898 26.5234Z" fill="#FFD500"/>
<path d="M13.9054 21.0547H6.01562C5.7132 21.0547 5.46875 21.2991 5.46875 21.6016C5.46875 21.904 5.7132 22.1484 6.01562 22.1484H13.9054C14.2073 22.1484 14.4523 21.904 14.4523 21.6016C14.4523 21.2991 14.2078 21.0547 13.9054 21.0547Z" fill="#FFD500"/>
<path d="M28.9842 21.0547H21.0939C20.7915 21.0547 20.547 21.2991 20.547 21.6016C20.547 21.904 20.7915 22.1484 21.0939 22.1484H28.9842C29.2866 22.1484 29.5311 21.904 29.5311 21.6016C29.5311 21.2991 29.2866 21.0547 28.9842 21.0547Z" fill="#FFD500"/>
<path d="M17.5 0C12.6755 0 7.875 4.33627 7.875 9.6657C7.875 17.6151 16.7973 25.4951 17.1396 25.8267C17.2424 25.9264 17.3715 25.9766 17.5 25.9766C17.6285 25.9766 17.7576 25.9264 17.8604 25.8267C18.2027 25.4951 27.125 17.6151 27.125 9.6657C27.125 4.33627 22.3245 0 17.5 0ZM17.5 24.5515C15.9381 22.9222 9.1875 16.1502 9.1875 9.6657C9.1875 5.002 13.2781 1.20821 17.5 1.20821C21.7219 1.20821 25.8125 5.002 25.8125 9.6657C25.8125 16.1502 19.0619 22.9228 17.5 24.5515Z" fill="#FFD500"/>
<path d="M22.8592 14.2188H13.0152C12.5616 14.2188 12.1949 14.5863 12.1949 15.0391C12.1949 15.4919 12.5616 15.8594 13.0152 15.8594H22.8592C23.3129 15.8594 23.6796 15.4919 23.6796 15.0391C23.6796 14.5863 23.3129 14.2188 22.8592 14.2188Z" fill="#FFD500"/>
<path d="M13.8355 4.375C13.3819 4.375 13.0152 4.74251 13.0152 5.19533V15.0394C13.0152 15.4922 13.3819 15.8597 13.8355 15.8597C14.2892 15.8597 14.6559 15.4922 14.6559 15.0394V5.19533C14.6559 4.74251 14.2892 4.375 13.8355 4.375Z" fill="#FFD500"/>
<path d="M22.0387 7.30469C21.585 7.30469 21.2183 7.6722 21.2183 8.12502V15.0396C21.2183 15.4924 21.585 15.86 22.0387 15.86C22.4923 15.86 22.859 15.4924 22.859 15.0396V8.12502C22.859 7.6722 22.4923 7.30469 22.0387 7.30469Z" fill="#FFD500"/>
<path d="M18.6049 4.71864C18.3408 4.34949 17.8281 4.26499 17.4606 4.5275L11.7182 8.62917C11.3499 8.8925 11.2646 9.40521 11.5279 9.77354C11.6879 9.99749 11.9389 10.1173 12.1957 10.1173C12.3605 10.1173 12.5271 10.0672 12.6723 9.96467L18.4146 5.863C18.7829 5.59968 18.8683 5.08697 18.6049 4.71864Z" fill="#FFD500"/>
<path d="M24.1563 8.62992L18.414 4.52825C18.0456 4.26574 17.5329 4.35105 17.2696 4.71938C17.0054 5.08771 17.0916 5.60042 17.4599 5.86375L23.2022 9.96542C23.3466 10.068 23.5132 10.118 23.678 10.118C23.9348 10.118 24.1858 9.99824 24.3466 9.77429C24.6108 9.40596 24.5246 8.89325 24.1563 8.62992Z" fill="#FFD500"/>
<path d="M17.938 10.9375C17.3331 10.9375 16.8442 11.3785 16.8442 11.9219V14.8751C16.8442 15.4185 17.3331 15.8595 17.938 15.8595C18.5429 15.8595 19.0318 15.4185 19.0318 14.8751V11.9219C19.0318 11.3785 18.5429 10.9375 17.938 10.9375Z" fill="#FFD500"/>
</g>
<defs>
<clipPath id="clip0">
<rect width="35" height="35" fill="white"/>
</clipPath>
</defs>
</svg>
