<svg width="35" height="35" viewBox="0 0 35 35" fill="none" xmlns="http://www.w3.org/2000/svg">
<g clip-path="url(#clip0)">
<path d="M26.1742 25.3723C26.4618 25.3925 26.7519 25.3684 27.0213 25.3306L27.0232 25.3304C27.0988 25.3194 27.1853 25.3193 27.2932 25.3277C26.5527 25.7966 25.7596 26.1128 24.9721 26.4268C24.1961 26.7362 23.4254 27.0435 22.7156 27.4927C22.4795 27.6442 21.7761 27.3348 21.8846 26.8786L21.3312 23.9535C21.3432 23.9425 21.3549 23.9312 21.3662 23.9196C21.4111 23.9265 21.4558 23.9338 21.5003 23.9417L21.5692 23.5547C21.5772 23.5213 21.5835 23.4863 21.5879 23.4495C21.3005 23.3983 21.0107 23.3705 20.7225 23.3428C19.8335 23.2574 18.9597 23.1735 18.2178 22.4111C17.5878 21.7652 16.9689 22.4335 16.4426 23.022C16.2389 23.2506 16.0435 23.4977 15.8472 23.7459C14.9973 24.8205 14.1306 25.9164 12.5038 25.6272C12.5831 25.4775 12.6464 25.3166 12.6985 25.1518M26.1742 25.3723C26.4463 25.2416 26.7109 25.1007 26.9668 24.9422C26.9669 24.9421 26.9671 24.942 26.9672 24.9419C27.0301 24.903 27.0925 24.863 27.1543 24.8218C27.0862 24.8218 27.0187 24.8258 26.9518 24.8355C26.065 24.9599 25.2564 24.8722 24.9741 23.896M26.1742 25.3723C25.8387 25.5334 25.4918 25.679 25.1354 25.8228C25.0219 25.8687 24.9069 25.9144 24.791 25.9606C24.0428 26.2587 23.2526 26.5734 22.5206 27.0249C22.5124 27.0227 22.5033 27.0198 22.4934 27.0162C22.4715 27.0081 22.4493 26.9975 22.4287 26.9852C22.4086 26.973 22.3927 26.9608 22.3813 26.9501M26.1742 25.3723C25.9663 25.3577 25.7597 25.32 25.5633 25.2476C25.0548 25.0601 24.6757 24.664 24.4937 24.035L24.9741 23.896M24.9741 23.896C24.6949 22.9311 25.872 22.5626 26.1846 22.5036M24.9741 23.896L22.3813 26.9501M26.1846 22.5036C27.8302 22.1836 29.2586 21.4058 30.683 20.6303C31.6222 20.1189 32.5597 19.6085 33.5566 19.2308M26.1846 22.5036L26.0919 22.0123C26.0914 22.0124 26.091 22.0125 26.0905 22.0126C26.0901 22.0127 26.0896 22.0127 26.0892 22.0128L26.1846 22.5036ZM33.5566 19.2308C34.6342 18.8203 34.5661 18.0435 34.4979 17.2671C34.4459 16.6738 34.3938 16.0807 34.8533 15.6516M33.5566 19.2308L33.3786 18.7635C33.3789 18.7634 33.3792 18.7633 33.3794 18.7632C33.7556 18.6198 33.8906 18.4499 33.9541 18.3049C34.03 18.1313 34.0436 17.9048 34.0213 17.5749C34.0166 17.5056 34.0098 17.4284 34.0025 17.346C33.9796 17.086 33.9521 16.7738 33.9718 16.492C33.9997 16.0936 34.1211 15.6632 34.4909 15.3062C34.4919 15.3033 34.493 15.2996 34.494 15.2952C34.5006 15.2679 34.5024 15.2301 34.4937 15.191C34.4855 15.1543 34.4689 15.1197 34.4407 15.0889C34.4134 15.0591 34.3625 15.0187 34.2651 14.9878C33.6197 14.7838 32.9504 14.5023 32.3083 14.2322C31.9708 14.0902 31.6409 13.9514 31.326 13.8288C30.3718 13.4571 29.4923 13.2027 28.6549 13.245L28.6543 13.245C27.1968 13.3166 26.1701 12.7769 25.362 12.0761C24.9661 11.7327 24.6212 11.3497 24.3086 10.9931C24.2627 10.9407 24.2177 10.8891 24.1734 10.8383C23.9083 10.5346 23.6682 10.2595 23.4188 10.02L23.7651 9.65935M33.5566 19.2308L8.25938 17.7393M34.8533 15.6516C35.0846 15.4331 35.1101 14.7313 34.4163 14.5112C33.7903 14.3134 33.1628 14.0492 32.5362 13.7853C31.223 13.2322 29.9136 12.6808 28.6297 12.7456C26.5885 12.8459 25.5199 11.6211 24.5523 10.5121C24.2883 10.2095 24.0318 9.91546 23.7651 9.65935M34.8533 15.6516L34.5099 15.2882C34.4964 15.301 34.4902 15.3103 34.4881 15.3138M34.8533 15.6516L34.4881 15.3138M23.7651 9.65935C23.4942 9.40072 23.313 9.05588 23.1346 8.71639C22.7332 7.95251 22.3461 7.21573 20.9834 7.5492C20.5209 7.66282 20.0065 7.72708 19.4934 7.79118C18.3932 7.92863 17.299 8.06532 16.7345 8.68642C15.7493 9.77052 14.9575 9.70196 13.8983 9.61025C13.848 9.6059 13.7971 9.60149 13.7455 9.59714C11.8985 9.43765 10.0802 9.20797 8.26995 8.75181M23.7651 9.65935L23.4198 10.021C23.1392 9.75309 22.9476 9.42625 22.7957 9.14469C22.7547 9.06852 22.7169 8.99671 22.681 8.92858C22.5735 8.72419 22.4834 8.5529 22.3731 8.396C22.2369 8.20213 22.1045 8.08563 21.9448 8.02404C21.7835 7.96186 21.5286 7.93059 21.1027 8.03477C20.7103 8.13115 20.2913 8.19281 19.8867 8.24538C19.7717 8.26032 19.6585 8.27447 19.5469 8.28841C19.2566 8.32468 18.977 8.3596 18.7038 8.40384C17.9239 8.53012 17.3899 8.7087 17.1045 9.02268C16.5318 9.65295 15.9792 9.97035 15.3799 10.0933C14.8713 10.1977 14.353 10.1522 13.8621 10.1091C13.8089 10.1044 13.7561 10.0998 13.7036 10.0954L13.7025 10.0953C11.8442 9.93482 9.99605 9.70231 8.14861 9.23686M8.26995 8.75181C6.87595 8.4057 5.39104 8.31319 3.95397 8.86186M8.26995 8.75181L8.14778 9.23665C8.14806 9.23672 8.14833 9.23679 8.14861 9.23686M8.26995 8.75181L8.14947 9.23708C8.14918 9.23701 8.1489 9.23693 8.14861 9.23686M3.95397 8.86186L3.9454 8.86518C2.95848 9.24658 2.09536 9.58014 3.03367 10.8699M3.95397 8.86186L4.13231 9.32898C4.13262 9.32886 4.13293 9.32874 4.13323 9.32862M3.95397 8.86186L4.13421 9.32824C4.13389 9.32837 4.13356 9.3285 4.13323 9.32862M3.03367 10.8699C3.60307 11.6467 3.5313 12.3054 2.52647 12.8174C1.97302 13.0965 1.51207 13.6516 1.13885 14.1747C-0.4625 16.4093 -0.373182 18.5481 1.3765 18.6964M3.03367 10.8699L3.438 10.5758C3.43783 10.5756 3.43767 10.5753 3.43751 10.5751M3.03367 10.8699L3.43693 10.5743C3.43712 10.5746 3.43731 10.5748 3.43751 10.5751M1.3765 18.6964C1.9015 18.7407 2.42893 18.8234 2.95805 18.9063C4.81284 19.197 6.68834 19.491 8.55226 18.1446M1.3765 18.6964L1.41874 18.1982M1.3765 18.6964L1.41849 18.1982C1.41857 18.1982 1.41866 18.1982 1.41874 18.1982M8.55226 18.1446C10.1823 16.9643 12.4759 18.0616 13.4584 19.9405C13.6926 20.3892 13.814 20.549 13.9901 20.7805C14.0373 20.8426 14.0884 20.9098 14.1466 20.9892C14.2745 20.9847 14.4081 20.989 14.5474 21.0023L14.5 21.5L14.0821 21.7745C14.0172 21.6757 13.9593 21.59 13.9068 21.5141C12.8093 21.6998 12.6272 22.8197 12.4521 23.8961C12.3861 24.3015 12.3212 24.7007 12.2087 25.0415C12.3844 25.0953 12.5471 25.1311 12.6985 25.1518M8.55226 18.1446L8.25948 17.7393M8.55226 18.1446L8.25903 17.7396C8.25915 17.7395 8.25926 17.7394 8.25938 17.7393M12.6985 25.1518C12.7763 24.9053 12.829 24.6502 12.8723 24.4106C12.9012 24.2512 12.926 24.0979 12.9501 23.9495C13.0001 23.6417 13.0468 23.3543 13.1184 23.0741C13.2225 22.6668 13.3555 22.3885 13.5368 22.2194C13.6959 22.0708 13.9534 21.9502 14.4526 21.9977L15.4901 22.0966L14.9179 21.2255C14.6723 20.8516 14.5118 20.6405 14.3874 20.4769C14.3618 20.4433 14.3377 20.4116 14.3147 20.3809C14.1921 20.2173 14.0888 20.0677 13.9016 19.7092L13.9015 19.7088C13.3579 18.6694 12.4506 17.8397 11.4346 17.4314C10.4115 17.0203 9.24243 17.0278 8.25948 17.7393M12.6985 25.1518C12.9756 25.1897 13.2147 25.1771 13.4249 25.132C13.7635 25.0593 14.0637 24.8944 14.3529 24.6558C14.6463 24.4138 14.917 24.1058 15.1986 23.7575C15.2784 23.6589 15.3604 23.5552 15.4443 23.4492C15.6447 23.1958 15.8554 22.9294 16.0692 22.6894L16.0699 22.6887L16.0793 22.6782C16.3259 22.4024 16.6681 22.0197 17.0557 21.8126C17.265 21.7008 17.5223 21.6198 17.8095 21.655C18.1015 21.6908 18.3578 21.8386 18.5757 22.062L18.5761 22.0624C18.9735 22.4708 19.4154 22.644 19.9231 22.7391C20.1842 22.788 20.4548 22.8148 20.7521 22.8433L20.7776 22.8458C21.0607 22.8729 21.368 22.9024 21.6756 22.9572L22.1409 23.04L22.0843 23.5093C22.0416 23.8637 21.8825 24.1264 21.669 24.322L21.6689 24.3222C21.5227 24.456 21.3593 24.5515 21.228 24.6231C21.1759 24.6515 21.1309 24.6752 21.0902 24.6966C21.0136 24.737 20.9522 24.7694 20.8872 24.8098C20.8716 24.8196 20.8575 24.8288 20.8446 24.8376M8.25948 17.7393L8.25938 17.7393M8.25948 17.7393L20.5282 24.6685C20.5919 24.7239 20.6899 24.7769 20.8446 24.8376M8.25938 17.7393C7.1786 18.52 6.09768 18.6948 4.97528 18.6447C4.40615 18.6194 3.83193 18.5364 3.23558 18.4436C3.16924 18.4333 3.10255 18.4228 3.03555 18.4123C2.50866 18.3297 1.96273 18.2441 1.41874 18.1982M20.8446 24.8376C20.8545 24.8415 20.8645 24.8454 20.8748 24.8493C20.9211 24.867 20.9853 24.8896 21.0568 24.9148C21.1859 24.9603 21.3389 25.0142 21.4539 25.0625C21.6603 25.1493 21.9037 25.2755 22.0984 25.4888C22.3054 25.7156 22.4266 26.0065 22.4416 26.3615L22.4418 26.3656C22.4479 26.5449 22.4287 26.7382 22.3813 26.9501M20.8446 24.8376L22.3813 26.9501M1.41874 18.1982C1.08627 18.17 0.879179 18.054 0.748587 17.9081C0.613697 17.7574 0.516742 17.5256 0.500436 17.1934C0.467134 16.515 0.781193 15.5322 1.54526 14.466L1.54588 14.4651C1.91618 13.946 2.31685 13.4831 2.75162 13.2638L2.75162 13.2638L2.75347 13.2629C3.31426 12.9772 3.73918 12.5885 3.85851 12.0514C3.97671 11.5193 3.75666 11.0107 3.43751 10.5751M3.43751 10.5751C3.22445 10.2821 3.15232 10.0936 3.13484 9.98491C3.1214 9.90131 3.13822 9.86528 3.16653 9.8283C3.21124 9.7699 3.30536 9.69331 3.48709 9.60066C3.66561 9.50964 3.87942 9.42671 4.13323 9.32862M4.13323 9.32862C5.44017 8.82992 6.81165 8.90503 8.14861 9.23686M34.4881 15.3138C34.4876 15.3148 34.4873 15.3153 34.4874 15.3153L34.4881 15.3138Z" stroke="#FFD500"/>
<path d="M25.0004 16.6199C24.8862 16.6199 24.772 16.5803 24.6771 16.5002C24.6297 16.4597 23.4998 15.4998 22.3571 14.019C21.6807 13.1424 21.1403 12.2634 20.7511 11.4071C20.2525 10.3114 20 9.24609 20 8.24062C20 7.5335 20.1319 6.84745 20.3932 6.20101C20.645 5.57733 21.0052 5.01685 21.4644 4.53561C21.9236 4.05352 22.4584 3.67594 23.0543 3.41214C23.6711 3.13906 24.3257 3 25.0004 3C25.6751 3 26.3297 3.13822 26.9465 3.41214C27.5416 3.67594 28.0764 4.05352 28.5356 4.53476C28.9948 5.01601 29.355 5.57648 29.6068 6.20017C29.8673 6.8466 30 7.53265 30 8.23978C30 9.24525 29.7475 10.3106 29.2489 11.4062C28.8597 12.2625 28.3193 13.1416 27.6429 14.0181C26.5002 15.4998 25.3703 16.4597 25.3229 16.4994C25.2288 16.5803 25.1146 16.6199 25.0004 16.6199ZM25.0004 4.0788C22.8106 4.0788 21.0294 5.94564 21.0294 8.24062C21.0294 10.1757 22.1866 12.0822 23.158 13.3413C23.877 14.2735 24.5983 14.9924 25.0004 15.3691C25.4057 14.989 26.1351 14.2617 26.8556 13.3245C27.8207 12.0704 28.9715 10.1698 28.9715 8.24062C28.9715 5.94564 27.1902 4.0788 25.0004 4.0788Z" fill="white"/>
<path d="M25.0004 4.0788C22.8106 4.0788 21.0294 5.94564 21.0294 8.24062C21.0294 10.1757 22.1866 12.0822 23.158 13.3413C23.877 14.2735 24.5983 14.9924 25.0004 15.3691C25.4057 14.989 26.1351 14.2617 26.8556 13.3245C27.8207 12.0704 28.9715 10.1698 28.9715 8.24062C28.9715 5.94564 27.1902 4.0788 25.0004 4.0788Z" fill="white"/>
<path d="M25.0004 16.6199C24.8862 16.6199 24.772 16.5803 24.6771 16.5002C24.6297 16.4597 23.4998 15.4998 22.3571 14.019C21.6807 13.1424 21.1403 12.2634 20.7511 11.4071C20.2525 10.3114 20 9.24609 20 8.24062C20 7.5335 20.1319 6.84745 20.3932 6.20101C20.645 5.57733 21.0052 5.01685 21.4644 4.53561C21.9236 4.05352 22.4584 3.67594 23.0543 3.41214C23.6711 3.13906 24.3257 3 25.0004 3C25.6751 3 26.3297 3.13822 26.9465 3.41214C27.5416 3.67594 28.0764 4.05352 28.5356 4.53476C28.9948 5.01601 29.355 5.57648 29.6068 6.20017C29.8673 6.8466 30 7.53265 30 8.23978C30 9.24525 29.7475 10.3106 29.2489 11.4062C28.8597 12.2625 28.3193 13.1416 27.6429 14.0181C26.5002 15.4998 25.3703 16.4597 25.3229 16.4994C25.2288 16.5803 25.1146 16.6199 25.0004 16.6199ZM25.0004 4.0788C22.8106 4.0788 21.0294 5.94564 21.0294 8.24062C21.0294 10.1757 22.1866 12.0822 23.158 13.3413C23.877 14.2735 24.5983 14.9924 25.0004 15.3691C25.4057 14.989 26.1351 14.2617 26.8556 13.3245C27.8207 12.0704 28.9715 10.1698 28.9715 8.24062C28.9715 5.94564 27.1902 4.0788 25.0004 4.0788Z" fill="#FFD500"/>
<path d="M25.0014 11.2251C24.6548 11.2251 24.3179 11.1569 24.001 11.0237C23.6946 10.8944 23.4204 10.7098 23.184 10.4739C22.9484 10.2387 22.7626 9.96419 22.6331 9.65839C22.4988 9.34215 22.4313 9.00585 22.4313 8.65992C22.4313 8.31399 22.4996 7.97769 22.6331 7.66145C22.7626 7.35565 22.9476 7.08196 23.184 6.84599C23.4196 6.61082 23.6946 6.42541 24.001 6.29619C24.3179 6.16215 24.6548 6.09473 25.0014 6.09473C25.348 6.09473 25.685 6.16295 26.0018 6.29619C26.3082 6.42541 26.5824 6.61001 26.8189 6.84599C27.0545 7.08115 27.2403 7.35565 27.3697 7.66145C27.504 7.97769 27.5716 8.31399 27.5716 8.65992C27.5716 9.00585 27.5032 9.34215 27.3697 9.65839C27.2403 9.96419 27.0553 10.2379 26.8189 10.4739C26.5832 10.709 26.3082 10.8944 26.0018 11.0237C25.685 11.1577 25.348 11.2251 25.0014 11.2251ZM25.0014 7.12209C24.1514 7.12209 23.4606 7.81235 23.4606 8.65992C23.4606 9.50749 24.1522 10.1978 25.0014 10.1978C25.8514 10.1978 26.5422 9.50749 26.5422 8.65992C26.5422 7.81235 25.8514 7.12209 25.0014 7.12209Z" fill="#FFD500"/>
</g>
<defs>
<clipPath id="clip0">
<rect width="35" height="34.9984" fill="white"/>
</clipPath>
</defs>
</svg>
