<svg width="35" height="35" viewBox="0 0 35 35" fill="none" xmlns="http://www.w3.org/2000/svg">
<g clip-path="url(#clip0)">
<path d="M32.6495 7.44252C32.6067 7.31395 32.6067 7.22823 32.5638 7.14252C32.521 7.0568 32.4781 6.97109 32.4352 6.88537C32.3924 6.79966 32.3067 6.7568 32.2209 6.71394L27.5066 4.39963L23.3494 2.38532L18.6351 0.0710088C18.4636 -0.0147064 18.2922 -0.0147064 18.1208 0.0281512C17.9494 0.0710088 17.8208 0.199582 17.7351 0.371012L11.8207 12.414H4.10634C3.12062 12.414 2.34918 13.1854 2.34918 14.1712V17.2569V33.2428C2.34918 34.2285 3.12062 35 4.10634 35H28.7495C29.7352 35 30.5066 34.2285 30.5066 33.2428V28.7856H31.2352C31.6209 28.7856 31.9209 28.4856 31.9209 28.0999V22.9998C31.9209 22.6141 31.6209 22.3141 31.2352 22.3141H30.5066V17.2998C30.5066 16.314 29.7352 15.5426 28.7495 15.5426H28.7066L32.5638 7.69967C32.6067 7.61395 32.6067 7.52823 32.6495 7.44252ZM18.6351 1.61388L22.0637 3.28533C21.2065 4.44249 19.8351 5.17107 18.3779 5.17107C17.9065 5.17107 17.4351 5.08535 17.0065 4.95678L18.6351 1.61388ZM16.3208 6.19965C16.9636 6.41394 17.6065 6.54251 18.2922 6.54251C20.3065 6.54251 22.1494 5.55678 23.2208 3.88534L26.2637 5.38535C25.4066 7.95681 26.4352 10.7854 28.7066 12.2426L27.1209 15.4998H23.2637V15.5426C22.8351 14.3426 21.978 13.3569 20.8208 12.7997C20.1351 12.4569 19.4065 12.2854 18.6779 12.2854C16.7922 12.2854 15.1208 13.3569 14.2636 15.0283C14.1779 15.1997 14.135 15.3283 14.0493 15.4998H11.7779L16.3208 6.19965ZM21.8065 15.5426H15.5922C16.1922 14.3855 17.3922 13.6997 18.7208 13.6997C19.2779 13.6997 19.7922 13.8283 20.2637 14.0426C20.9494 14.3855 21.4637 14.8997 21.8065 15.5426ZM3.72063 14.1283C3.72063 13.9569 3.89206 13.7854 4.10634 13.7854H11.135L10.2778 15.4998H4.10634C3.97777 15.4998 3.8492 15.4998 3.72063 15.5426V14.1283ZM30.5066 23.6856H30.5495V27.4142H30.5066H26.478C26.0923 27.4142 25.7923 27.1142 25.7923 26.7285V24.3713C25.7923 23.9856 26.0923 23.6856 26.478 23.6856H30.5066ZM29.0923 17.2998V22.3141H26.4352C25.278 22.3141 24.378 23.257 24.378 24.3713V26.7285C24.378 27.8856 25.3209 28.7856 26.4352 28.7856H29.0923V33.2428C29.0923 33.4571 28.9209 33.6285 28.7066 33.6285H4.10634C3.89206 33.6285 3.72063 33.4571 3.72063 33.2428V17.2998C3.72063 17.0855 3.89206 16.9141 4.10634 16.9141H10.7493H14.6065H22.7923H27.5923H28.7066C28.9209 16.9141 29.0923 17.0855 29.0923 17.2998ZM29.3923 11.0426C27.8066 9.92826 27.078 7.8711 27.5923 6.02822L31.0209 7.69967L29.3923 11.0426Z" fill="#FFD500"/>
<path d="M22.835 8.72889C21.8922 8.25745 20.735 8.68603 20.2636 9.58604C19.7921 10.5289 20.1779 11.6861 21.1207 12.1575C21.3779 12.2861 21.6779 12.3718 21.9779 12.3718C22.7065 12.3718 23.3922 11.9432 23.6922 11.3003C24.1636 10.3146 23.7779 9.15746 22.835 8.72889ZM22.4922 10.6575C22.3636 10.9146 22.0207 11.0432 21.7636 10.9146C21.5065 10.7861 21.3779 10.4432 21.5065 10.186C21.5922 10.0146 21.7636 9.88604 21.9779 9.88604C22.0636 9.88604 22.1493 9.88604 22.1922 9.9289C22.4922 10.0575 22.6208 10.4003 22.4922 10.6575Z" fill="#FFD500"/>
</g>
<defs>
<clipPath id="clip0">
<rect width="35" height="35" fill="white"/>
</clipPath>
</defs>
</svg>
