<svg width="35" height="35" viewBox="0 0 35 35" fill="none" xmlns="http://www.w3.org/2000/svg">
<path fill-rule="evenodd" clip-rule="evenodd" d="M1.41954 11.93C4.17558 5.83967 10.504 1.89064 17.5062 1.8916C20.0299 1.89194 21.8955 2.2232 24.0625 3.13341C24.0625 3.13341 23.8268 3.7023 23.6778 4.37523C23.6043 4.70716 23.625 5.2031 23.625 5.2031L23.0106 5.69627C22.9296 5.73449 22.8404 5.75428 22.7499 5.75421H20.7775L20.073 7.08737L21.0236 7.387L23.192 6.87437C23.2995 6.84851 23.4125 6.85278 23.5174 6.88651L23.8268 6.98394L23.9163 7.68673L24.0625 8.22209L23.3069 7.98405L21.1385 8.49667C21.0311 8.52253 20.9181 8.51826 20.8131 8.48453L19.0634 7.93273C19.0374 7.92452 19.012 7.91459 18.9875 7.903C18.6992 7.76705 18.5821 7.43569 18.7258 7.16296L19.8922 4.95576C19.9915 4.7678 20.1949 4.64944 20.4171 4.65061H22.6123L23.6778 4.14737C20.1066 2.76248 16.1316 2.6226 12.4615 3.75283L13.0546 4.12695L16.4302 4.65944C16.4595 4.66413 16.4885 4.67089 16.5167 4.67972C16.8225 4.77532 16.9885 5.08743 16.8875 5.37678L16.3043 7.03219C16.247 7.19731 16.1101 7.32678 15.9357 7.38093L14.3907 7.86872L12.7519 10.4528C12.7028 10.5302 12.6343 10.595 12.5525 10.6415L9.63641 12.2969C9.56978 12.3348 9.49578 12.3598 9.41887 12.3703L5.83678 12.8542V13.8028L6.83233 14.7447C6.94168 14.8482 7.00321 14.9885 7.00321 15.1348V16.01L7.76022 15.2965C7.89166 15.1695 8.08069 15.1117 8.26586 15.142C8.4511 15.1703 8.61061 15.2812 8.69452 15.44L9.69648 17.3421H13.4185C13.6232 17.3421 13.8129 17.4437 13.9183 17.6097L15.4983 20.1011H17.501C17.5393 20.1011 17.5774 20.1046 17.615 20.1117C17.9308 20.1715 18.1357 20.4621 18.0726 20.761L17.4894 23.52C17.4668 23.6268 17.4114 23.7249 17.3301 23.802L15.1682 25.8475V27.2745C15.1682 27.4482 15.0817 27.6117 14.9349 27.7159L12.8353 29.2058V31.6889C12.8353 31.9936 12.5742 32.2407 12.2521 32.2407C12.1904 32.2404 12.1292 32.2308 12.0707 32.212L10.3211 31.6602C10.1582 31.609 10.0275 31.4925 9.96359 31.3418L8.79717 28.5828C8.76975 28.5177 8.75568 28.4482 8.75576 28.3781V23.312L6.30627 22.849C6.12948 22.8159 5.9788 22.7074 5.89802 22.5549L4.7316 20.3477C4.69121 20.2711 4.67029 20.1867 4.67036 20.1011V18.4457C4.67036 18.2993 4.73189 18.159 4.84124 18.0555L5.50435 17.4276L2.59704 15.5939C2.48929 15.5258 2.40866 15.4256 2.36784 15.3092L1.88319 13.9341C-0.124808 20.1546 2.20068 26.8987 7.69956 30.8019C14.9119 35.9216 25.1453 34.5399 30.5562 27.7159L29.3361 26.561C29.2268 26.4575 29.1653 26.3172 29.1653 26.1709V24.0939L26.8907 19.7959C26.8514 19.7191 26.8314 19.6346 26.8324 19.5493V17.6373L25.5593 16.8327L23.4766 17.3255C23.3531 17.3552 23.2226 17.3453 23.1057 17.2974L19.0232 15.6419C18.8353 15.5668 18.7027 15.4042 18.6733 15.2132L18.0901 11.3506C18.064 11.1786 18.1252 11.005 18.2551 10.8821L20.0047 9.2267C20.1141 9.12324 20.2624 9.06503 20.4171 9.06503H23.9163C24.1103 9.06592 24.2911 9.15793 24.3987 9.31058C24.3987 9.31058 25.1832 10.123 25.4251 10.7673C25.4689 10.8838 25.4656 10.959 25.5231 11.0701C25.6026 11.2237 25.6982 11.2796 25.8125 11.4122C26.0251 11.6587 26.3686 12.0344 26.3686 12.0344L24.9854 11.8163C24.8264 11.7914 24.6853 11.7053 24.5958 11.5785L23.6043 10.1686H20.6585L19.2862 11.4665L19.7814 14.7486L23.3804 16.2098L25.5231 15.7032C25.683 15.6651 25.8525 15.6927 25.9897 15.7793L27.7393 16.883C27.9015 16.9853 27.9988 17.1576 27.9988 17.3421V19.419L30.2734 23.717C30.3127 23.7939 30.3327 23.8783 30.3317 23.9637V25.9424L31.2301 26.7919C34.4014 22.1416 34.6905 16.2387 31.9874 11.3307C31.9874 11.3307 32.2423 10.9979 32.375 10.7673C32.5046 10.5422 32.6593 10.1686 32.6593 10.1686C34.1484 12.6042 35.0005 15.432 35 18.4481C34.9985 27.5907 27.164 35.0011 17.501 34.9997C15.2454 35.0009 13.0109 34.5892 10.9206 33.7873C1.97074 30.354 -2.34276 20.7062 1.28598 12.2384L1.20142 11.9984L1.41954 11.93ZM12.5128 5.11026L11.1131 4.22738C7.27389 5.78236 4.20496 8.66276 2.53056 12.2826L3.41062 14.7806L5.83678 16.3113V15.3633L4.84124 14.4214C4.73189 14.3179 4.67036 14.1776 4.67036 14.0312V12.3758C4.67072 12.1012 4.88447 11.8685 5.17192 11.8301L9.13776 11.2943L11.8281 9.76692L13.5031 7.12599C13.5748 7.01329 13.6867 6.92859 13.8186 6.88706L15.2912 6.42189L15.5671 5.64109L12.7408 5.19524C12.6593 5.18255 12.5816 5.15358 12.5128 5.11026ZM6.81658 21.8199L9.4527 22.3193C9.72425 22.3717 9.91934 22.5978 9.91927 22.8601V28.2721L10.9434 30.6957L11.6689 30.923V28.9299C11.6689 28.7562 11.7554 28.5927 11.9022 28.4884L14.0017 26.9986V25.6191C14.002 25.4726 14.0636 25.3323 14.1732 25.229L16.3813 23.1398L16.7895 21.2047H15.1682C14.9635 21.2046 14.7738 21.1031 14.6684 20.937L13.0884 18.4457H9.33605C9.11502 18.4457 8.91286 18.3276 8.81408 18.1405L8.00983 16.6181L5.83678 18.6741V19.9708L6.81658 21.8199Z" fill="#FFD500"/>
<path d="M29.0004 12.8837C28.8862 12.8837 28.772 12.8462 28.6771 12.7705C28.6297 12.7322 27.4998 11.8241 26.3571 10.4233C25.6807 9.59419 25.1403 8.76265 24.7511 7.95263C24.2525 6.9162 24 5.90847 24 4.95734C24 4.28844 24.1319 3.63948 24.3932 3.02798C24.645 2.43801 25.0052 1.90784 25.4644 1.4526C25.9236 0.996571 26.4584 0.6394 27.0543 0.389858C27.6711 0.131547 28.3257 0 29.0004 0C29.6751 0 30.3297 0.13075 30.9465 0.389858C31.5416 0.6394 32.0764 0.996571 32.5356 1.4518C32.9948 1.90704 33.355 2.43721 33.6068 3.02718C33.8673 3.63868 34 4.28765 34 4.95654C34 5.90767 33.7475 6.9154 33.2489 7.95184C32.8597 8.76185 32.3193 9.59339 31.6429 10.4225C30.5002 11.8241 29.3703 12.7322 29.3229 12.7697C29.2288 12.8462 29.1146 12.8837 29.0004 12.8837ZM29.0004 1.02049C26.8106 1.02049 25.0294 2.78641 25.0294 4.95734C25.0294 6.78784 26.1866 8.59124 27.158 9.78234C27.877 10.6641 28.5983 11.3442 29.0004 11.7005C29.4057 11.341 30.1351 10.6529 30.8556 9.76639C31.8207 8.58008 32.9715 6.78226 32.9715 4.95734C32.9715 2.78641 31.1902 1.02049 29.0004 1.02049Z" fill="#FFD500"/>
<path d="M29.0014 7.78081C28.6548 7.78081 28.3179 7.71627 28.001 7.59024C27.6946 7.468 27.4204 7.29337 27.184 7.07016C26.9484 6.8477 26.7626 6.58804 26.6331 6.29877C26.4988 5.99962 26.4313 5.6815 26.4313 5.35427C26.4313 5.02704 26.4996 4.70891 26.6331 4.40977C26.7626 4.1205 26.9476 3.8616 27.184 3.63838C27.4196 3.41593 27.6946 3.24054 28.001 3.1183C28.3179 2.99151 28.6548 2.92773 29.0014 2.92773C29.348 2.92773 29.685 2.99227 30.0018 3.1183C30.3082 3.24054 30.5824 3.41517 30.8189 3.63838C31.0545 3.86084 31.2403 4.1205 31.3697 4.40977C31.504 4.70891 31.5716 5.02704 31.5716 5.35427C31.5716 5.6815 31.5032 5.99962 31.3697 6.29877C31.2403 6.58804 31.0553 6.84694 30.8189 7.07016C30.5832 7.29261 30.3082 7.468 30.0018 7.59024C29.685 7.71703 29.348 7.78081 29.0014 7.78081ZM29.0014 3.89956C28.1514 3.89956 27.4606 4.55251 27.4606 5.35427C27.4606 6.15603 28.1522 6.80898 29.0014 6.80898C29.8514 6.80898 30.5422 6.15603 30.5422 5.35427C30.5422 4.55251 29.8514 3.89956 29.0014 3.89956Z" fill="#FFD500"/>
</svg>
