<svg width="35" height="35" viewBox="0 0 35 35" fill="none" xmlns="http://www.w3.org/2000/svg">
<path d="M33.9063 17.5C33.9063 13.1488 32.1777 8.9758 29.101 5.89903C26.0242 2.82226 21.8512 1.09375 17.5 1.09375C13.1488 1.09375 8.97581 2.82226 5.89904 5.89903C2.82227 8.9758 1.09376 13.1488 1.09376 17.5C1.09174 19.422 1.43058 21.3291 2.09454 23.1328C1.45155 23.8345 1.09453 24.7514 1.09376 25.7031V30.0781C1.09492 31.0931 1.49861 32.0661 2.21627 32.7837C2.93393 33.5014 3.90696 33.9051 4.92188 33.9062H30.0781C31.0931 33.9051 32.0661 33.5014 32.7837 32.7837C33.5014 32.0661 33.9051 31.0931 33.9063 30.0781V25.7031C33.9055 24.7514 33.5485 23.8345 32.9055 23.1328C33.5694 21.3291 33.9083 19.422 33.9063 17.5ZM30.0781 32.8125H4.92188C4.19906 32.8109 3.50613 32.5238 2.99399 32.0137C2.48185 31.5037 2.19198 30.8119 2.18751 30.0891L4.19454 31.6094C4.28969 31.6817 4.4059 31.7208 4.5254 31.7208C4.6449 31.7208 4.76111 31.6817 4.85626 31.6094L7.4047 29.6734L9.95313 31.6094C10.0483 31.6817 10.1645 31.7208 10.284 31.7208C10.4035 31.7208 10.5197 31.6817 10.6149 31.6094L13.1688 29.6734L15.7227 31.6094C15.8178 31.6817 15.934 31.7208 16.0535 31.7208C16.173 31.7208 16.2892 31.6817 16.3844 31.6094L18.9328 29.6734L21.4867 31.6094C21.5824 31.6804 21.6984 31.7188 21.8176 31.7188C21.9368 31.7188 22.0528 31.6804 22.1484 31.6094L24.7024 29.6734L27.2563 31.6094C27.3514 31.6817 27.4676 31.7208 27.5871 31.7208C27.7066 31.7208 27.8228 31.6817 27.918 31.6094L30.4719 29.668L32.5445 31.2375C32.3253 31.707 31.977 32.1045 31.5402 32.3834C31.1034 32.6623 30.5963 32.8111 30.0781 32.8125ZM32.8125 30.0727L30.8055 28.5469C30.7103 28.4746 30.5941 28.4354 30.4746 28.4354C30.3551 28.4354 30.2389 28.4746 30.1438 28.5469L27.5844 30.4883L25.0305 28.5469C24.9353 28.4746 24.8191 28.4354 24.6996 28.4354C24.5801 28.4354 24.4639 28.4746 24.3688 28.5469L21.8203 30.4828L19.2664 28.5469C19.1713 28.4746 19.0551 28.4354 18.9356 28.4354C18.8161 28.4354 18.6998 28.4746 18.6047 28.5469L16.0508 30.4828L13.4969 28.5469C13.4017 28.4746 13.2855 28.4354 13.166 28.4354C13.0465 28.4354 12.9303 28.4746 12.8352 28.5469L10.2867 30.4828L7.73282 28.5469C7.63767 28.4746 7.52146 28.4354 7.40196 28.4354C7.28246 28.4354 7.16625 28.4746 7.0711 28.5469L4.52267 30.4828L2.18751 28.7109V26.2555L4.19454 27.7812C4.28969 27.8535 4.4059 27.8927 4.5254 27.8927C4.6449 27.8927 4.76111 27.8535 4.85626 27.7812L7.4047 25.8453L9.95313 27.7812C10.0483 27.8535 10.1645 27.8927 10.284 27.8927C10.4035 27.8927 10.5197 27.8535 10.6149 27.7812L13.1688 25.8453L15.7227 27.7812C15.8178 27.8535 15.934 27.8927 16.0535 27.8927C16.173 27.8927 16.2892 27.8535 16.3844 27.7812L18.9328 25.8453L21.4867 27.7812C21.5824 27.8523 21.6984 27.8906 21.8176 27.8906C21.9368 27.8906 22.0528 27.8523 22.1484 27.7812L24.7024 25.8453L27.2563 27.7812C27.3514 27.8535 27.4676 27.8927 27.5871 27.8927C27.7066 27.8927 27.8228 27.8535 27.918 27.7812L30.4719 25.8398L32.8125 27.6172V30.0727ZM32.8125 26.2445L30.8055 24.7188C30.7103 24.6465 30.5941 24.6073 30.4746 24.6073C30.3551 24.6073 30.2389 24.6465 30.1438 24.7188L27.5844 26.6602L25.0305 24.7188C24.9353 24.6465 24.8191 24.6073 24.6996 24.6073C24.5801 24.6073 24.4639 24.6465 24.3688 24.7188L21.8203 26.6547L19.2664 24.7188C19.1713 24.6465 19.0551 24.6073 18.9356 24.6073C18.8161 24.6073 18.6998 24.6465 18.6047 24.7188L16.0508 26.6547L13.4969 24.7188C13.4017 24.6465 13.2855 24.6073 13.166 24.6073C13.0465 24.6073 12.9303 24.6465 12.8352 24.7188L10.2867 26.6547L7.73282 24.7188C7.63767 24.6465 7.52146 24.6073 7.40196 24.6073C7.28246 24.6073 7.16625 24.6465 7.0711 24.7188L4.52267 26.6547L2.30235 24.9703C2.46106 24.3967 2.8029 23.8907 3.2758 23.5294C3.7487 23.168 4.32674 22.9712 4.92188 22.9688H30.0781C30.8033 22.9688 31.4988 23.2568 32.0116 23.7696C32.5244 24.2824 32.8125 24.9779 32.8125 25.7031V26.2445ZM13.2344 16.2914H13.2672C13.3754 16.2918 13.4812 16.2597 13.5709 16.1993C13.6606 16.1388 13.7301 16.0528 13.7703 15.9523C13.8144 15.8479 13.8249 15.7323 13.8004 15.6216C13.7759 15.5109 13.7176 15.4105 13.6336 15.3344L10.3797 12.4305C10.9467 11.641 11.6395 10.9501 12.4305 10.3852L15.3344 13.6336C15.3869 13.6899 15.4504 13.7349 15.5209 13.766C15.5914 13.797 15.6675 13.8134 15.7445 13.8141C15.8188 13.813 15.8922 13.797 15.9602 13.767C16.0282 13.7371 16.0895 13.6938 16.1405 13.6398C16.1915 13.5857 16.2311 13.522 16.257 13.4524C16.2829 13.3827 16.2946 13.3086 16.2914 13.2344L16.0508 8.87578C16.1875 8.85391 16.3297 8.82656 16.4719 8.81016C17.1548 8.72813 17.8452 8.72813 18.5281 8.81016C18.6703 8.82656 18.8125 8.85391 18.9492 8.87578L18.7086 13.2344C18.7054 13.3086 18.7171 13.3827 18.743 13.4524C18.7689 13.522 18.8086 13.5857 18.8595 13.6398C18.9105 13.6938 18.9718 13.7371 19.0399 13.767C19.1079 13.797 19.1812 13.813 19.2555 13.8141C19.3325 13.8134 19.4086 13.797 19.4791 13.766C19.5496 13.7349 19.6131 13.6899 19.6656 13.6336L22.5695 10.3852C23.3605 10.9501 24.0533 11.641 24.6203 12.4305L21.3664 15.3344C21.2824 15.4105 21.2241 15.5109 21.1996 15.6216C21.1751 15.7323 21.1856 15.8479 21.2297 15.9523C21.2699 16.0528 21.3394 16.1388 21.4291 16.1993C21.5188 16.2597 21.6246 16.2918 21.7328 16.2914H21.7656L26.1188 16.0508C26.2041 16.5292 26.248 17.0141 26.25 17.5C26.2493 17.9858 26.2073 18.4706 26.1242 18.9492L21.7656 18.7086C21.6524 18.7031 21.5402 18.7326 21.4444 18.7932C21.3485 18.8537 21.2737 18.9423 21.2301 19.047C21.1864 19.1516 21.1761 19.2671 21.2005 19.3778C21.2249 19.4885 21.2828 19.589 21.3664 19.6656L23.8383 21.875H20.1195L19.6602 21.3664C19.5842 21.2824 19.484 21.224 19.3734 21.1994C19.2629 21.1748 19.1474 21.1851 19.0429 21.2289C18.9385 21.2727 18.8502 21.3479 18.7903 21.444C18.7304 21.5402 18.7019 21.6525 18.7086 21.7656L18.7141 21.875H16.2859L16.2914 21.7656C16.2981 21.6525 16.2696 21.5402 16.2097 21.444C16.1498 21.3479 16.0615 21.2727 15.9571 21.2289C15.8526 21.1851 15.7371 21.1748 15.6266 21.1994C15.516 21.224 15.4158 21.2824 15.3399 21.3664L14.8805 21.875H11.1617L13.6336 19.6656C13.7176 19.5895 13.7759 19.4891 13.8004 19.3784C13.8249 19.2677 13.8144 19.1521 13.7703 19.0477C13.7264 18.9431 13.6514 18.8546 13.5556 18.794C13.4598 18.7333 13.3477 18.7035 13.2344 18.7086L8.87579 18.9492C8.79276 18.4706 8.75068 17.9858 8.75001 17.5C8.75201 17.0141 8.79592 16.5292 8.88126 16.0508L13.2344 16.2914ZM9.13282 14.968C9.24969 14.5816 9.39219 14.2034 9.55938 13.8359C9.63048 13.6773 9.71251 13.5242 9.79454 13.3711L11.7414 15.1102L9.13282 14.968ZM13.3711 9.79453C13.8805 9.52241 14.4154 9.30078 14.968 9.13281L15.1102 11.7414L13.3711 9.79453ZM19.8899 11.7414L20.032 9.13281C20.5846 9.30078 21.1195 9.52241 21.6289 9.79453L19.8899 11.7414ZM25.2055 13.3711C25.2875 13.5242 25.3695 13.6773 25.4406 13.8359C25.6078 14.2034 25.7503 14.5816 25.8672 14.968L23.2586 15.1102L25.2055 13.3711ZM25.8727 20.032C25.7052 20.5856 25.4816 21.1207 25.2055 21.6289L23.2586 19.8898L25.8727 20.032ZM9.79454 21.6289C9.51838 21.1207 9.29483 20.5856 9.12735 20.032L11.7414 19.8898L9.79454 21.6289ZM32.0086 22.4C31.4226 22.0579 30.7566 21.8768 30.0781 21.875H26.3102C26.9875 20.5159 27.3413 19.0185 27.3438 17.5C27.3446 16.8572 27.2804 16.2159 27.1524 15.5859C27.0057 14.8227 26.7651 14.0806 26.4359 13.3766C25.7255 11.8525 24.6389 10.5342 23.2785 9.54595C21.918 8.55766 20.3284 7.93182 18.6594 7.72734C17.8893 7.63438 17.1108 7.63438 16.3406 7.72734C14.6716 7.93182 13.082 8.55766 11.7215 9.54595C10.3611 10.5342 9.2745 11.8525 8.56407 13.3766C8.23572 14.079 7.99511 14.8192 7.84767 15.5805C7.71986 16.2123 7.65573 16.8554 7.65626 17.5C7.65873 19.0185 8.01248 20.5159 8.68985 21.875H4.92188C4.24337 21.8768 3.57739 22.0579 2.99142 22.4C2.28137 20.296 2.03743 18.0627 2.27653 15.855C2.51562 13.6473 3.23203 11.5181 4.37607 9.61484C5.5201 7.71163 7.0644 6.08001 8.90188 4.83312C10.7394 3.58623 12.826 2.7539 15.0173 2.39386C17.2085 2.03381 19.4518 2.15466 21.5916 2.74802C23.7315 3.34138 25.7167 4.39306 27.4096 5.83013C29.1025 7.2672 30.4625 9.05528 31.3955 11.0704C32.3285 13.0855 32.812 15.2794 32.8125 17.5C32.8147 19.1663 32.5431 20.8217 32.0086 22.4Z" fill="#FFD500"/>
<path d="M17.5 20.2344C18.0408 20.2344 18.5695 20.074 19.0191 19.7735C19.4688 19.4731 19.8193 19.046 20.0262 18.5464C20.2332 18.0468 20.2874 17.497 20.1818 16.9665C20.0763 16.4361 19.8159 15.9489 19.4335 15.5665C19.0511 15.1841 18.5639 14.9237 18.0335 14.8182C17.503 14.7127 16.9532 14.7668 16.4536 14.9738C15.954 15.1807 15.5269 15.5312 15.2265 15.9809C14.926 16.4305 14.7656 16.9592 14.7656 17.5C14.7665 18.2249 15.0549 18.9199 15.5675 19.4325C16.0801 19.9451 16.7751 20.2335 17.5 20.2344ZM17.5 15.8594C17.8245 15.8594 18.1417 15.9556 18.4115 16.1359C18.6813 16.3161 18.8916 16.5724 19.0158 16.8722C19.1399 17.1719 19.1724 17.5018 19.1091 17.8201C19.0458 18.1383 18.8896 18.4306 18.6601 18.6601C18.4307 18.8895 18.1383 19.0458 17.8201 19.1091C17.5018 19.1724 17.172 19.1399 16.8722 19.0157C16.5724 18.8916 16.3161 18.6813 16.1359 18.4115C15.9556 18.1417 15.8594 17.8245 15.8594 17.5C15.8594 17.0649 16.0322 16.6476 16.3399 16.3399C16.6476 16.0322 17.0649 15.8594 17.5 15.8594Z" fill="#FFD500"/>
</svg>
