<svg width="35" height="35" viewBox="0 0 35 35" fill="none" xmlns="http://www.w3.org/2000/svg">
<g clip-path="url(#clip0)">
<path d="M34.9531 14.3548L32.2519 8.29552C32.1639 8.09816 31.968 7.97102 31.7519 7.97102H24.6055C24.3031 7.97102 24.058 8.21608 24.058 8.51844V18.7371H20.2814V15.6183C20.2814 15.316 20.0363 15.0709 19.734 15.0709H18.3611V11.9521C18.3611 11.6497 18.116 11.4046 17.8137 11.4046H15.9505V8.05523C15.9505 7.75288 15.7055 7.50781 15.4031 7.50781H11.1013H6.79757C6.49521 7.50781 6.25015 7.75288 6.25015 8.05523V11.4046H4.69518C4.39282 11.4046 4.14775 11.6497 4.14775 11.9521V15.0709H2.54425C2.24189 15.0709 1.99683 15.316 1.99683 15.6183V18.7371H0.546445C0.244092 18.7371 -0.000976562 18.9822 -0.000976562 19.2846V22.2532C-0.000976562 22.991 0.599219 23.5912 1.33702 23.5912H2.71959C2.70113 23.7357 2.69061 23.8826 2.69061 24.0321C2.69061 25.943 4.2453 27.4977 6.15629 27.4977C8.06728 27.4977 9.6219 25.943 9.6219 24.0321C9.6219 23.8826 9.61131 23.7357 9.59292 23.5912H10.1373C10.1189 23.7357 10.1083 23.8826 10.1083 24.0321C10.1083 25.943 11.663 27.4977 13.574 27.4977C15.485 27.4977 17.0396 25.943 17.0396 24.0321C17.0396 23.8826 17.0291 23.7357 17.0107 23.5912H24.8042C24.7857 23.7357 24.7752 23.8826 24.7752 24.0321C24.7752 25.943 26.3299 27.4977 28.2409 27.4977C30.1508 27.4977 31.7046 25.943 31.7046 24.0321C31.7046 23.8826 31.694 23.7357 31.6756 23.5912H33.6608C34.3996 23.5912 35.0007 22.991 35.0007 22.2532V21.0518V19.645V17.2053V14.5777C35.0005 14.5009 34.9843 14.425 34.9531 14.3548ZM33.6098 14.0303H29.4072C29.2201 14.0303 28.9373 13.6682 28.9373 13.1225V10.8195H32.1784L33.6098 14.0303ZM33.9057 19.0975H33.0744V17.7528H33.9057V19.0975ZM25.1529 9.06586H31.3966L31.6902 9.72471H28.3898C28.0875 9.72471 27.8424 9.96978 27.8424 10.2721V13.1226C27.8424 14.2456 28.5297 15.1252 29.4072 15.1252H33.9056V16.658H32.8815C32.3841 16.658 31.9795 17.0626 31.9795 17.56V19.2885C31.9795 19.7869 32.3841 20.1924 32.8815 20.1924H33.9056V20.5044H32.1527C32.0175 19.5079 31.1611 18.7372 30.128 18.7372H25.1528V9.06586H25.1529ZM19.1866 18.7371H16.0009V16.1657H19.1866V18.7371ZM7.39544 16.1657H10.6025V18.7371H7.39544V16.1657ZM9.5463 12.4996H12.7552V15.071H11.1498H9.5463V12.4996ZM11.6972 16.1657H14.9061V18.7371H11.6972V16.1657ZM17.2663 15.0709H15.4534H15.4321H13.8499V12.4996H17.2662V15.0709H17.2663ZM14.8557 11.4047H13.5099C13.4744 11.4047 13.4398 11.4084 13.4062 11.4148C13.3726 11.4084 13.338 11.4047 13.3025 11.4047H11.6486V8.60272H14.8556V11.4047H14.8557ZM7.34499 8.60272H10.5539V11.4047H8.99888H7.34499V8.60272ZM5.24253 12.4996H8.45146V15.071H6.84802H5.24253V12.4996ZM3.09167 16.1657H6.3006V18.7371H3.09167V16.1657ZM6.15622 26.4028C4.84892 26.4028 3.78538 25.3392 3.78538 24.032C3.78538 22.7247 4.84898 21.6611 6.15622 21.6611C7.46346 21.6611 8.52706 22.7247 8.52706 24.032C8.52706 25.3393 7.46353 26.4028 6.15622 26.4028ZM13.5739 26.4028C12.2666 26.4028 11.2031 25.3392 11.2031 24.032C11.2031 22.7247 12.2667 21.6611 13.5739 21.6611C14.8811 21.6611 15.9447 22.7247 15.9447 24.032C15.9447 25.3393 14.8812 26.4028 13.5739 26.4028ZM28.2407 26.4028C26.9334 26.4028 25.8699 25.3392 25.8699 24.032C25.8699 22.7247 26.9335 21.6611 28.2407 21.6611C29.547 21.6611 30.6096 22.7247 30.6096 24.032C30.6096 25.3393 29.5469 26.4028 28.2407 26.4028ZM33.9057 22.2531C33.9057 22.3849 33.7934 22.4964 33.6605 22.4964H31.3447C30.7778 21.3539 29.5997 20.5664 28.2407 20.5664C26.881 20.5664 25.7023 21.3539 25.135 22.4964H16.6797C16.1124 21.3539 14.9337 20.5664 13.574 20.5664C12.2142 20.5664 11.0355 21.3539 10.4683 22.4964H9.26199C8.69475 21.3539 7.51603 20.5664 6.15629 20.5664C4.79655 20.5664 3.61783 21.3539 3.05059 22.4964H1.33702C1.20522 22.4964 1.09387 22.385 1.09387 22.2531V19.8319H2.54425H6.84802H11.1498H15.4322H15.4536H19.7341H30.1281C30.6512 19.8319 31.0766 20.2575 31.0766 20.7805V21.0517C31.0766 21.3541 31.3217 21.5991 31.6241 21.5991H33.9058V22.2531H33.9057ZM28.2407 22.3355C27.3042 22.3355 26.5423 23.0966 26.5423 24.032C26.5423 24.9675 27.3042 25.7285 28.2407 25.7285C29.1762 25.7285 29.9372 24.9674 29.9372 24.032C29.9371 23.0966 29.1762 22.3355 28.2407 22.3355ZM28.2407 24.6337C27.9079 24.6337 27.6371 24.3638 27.6371 24.032C27.6371 23.7002 27.9079 23.4304 28.2407 23.4304C28.5725 23.4304 28.8424 23.7002 28.8424 24.032C28.8424 24.3638 28.5725 24.6337 28.2407 24.6337ZM6.15622 22.3355C5.22072 22.3355 4.45975 23.0966 4.45975 24.032C4.45975 24.9675 5.22079 25.7285 6.15622 25.7285C7.09165 25.7285 7.8527 24.9674 7.8527 24.032C7.8527 23.0966 7.09165 22.3355 6.15622 22.3355ZM6.15622 24.6337C5.8244 24.6337 5.55452 24.3638 5.55452 24.032C5.55452 23.7002 5.8244 23.4304 6.15622 23.4304C6.48797 23.4304 6.75785 23.7002 6.75785 24.032C6.75785 24.3638 6.48797 24.6337 6.15622 24.6337ZM13.5739 22.3355C12.6384 22.3355 11.8774 23.0966 11.8774 24.032C11.8774 24.9675 12.6385 25.7285 13.5739 25.7285C14.5104 25.7285 15.2723 24.9674 15.2723 24.032C15.2724 23.0966 14.5104 22.3355 13.5739 22.3355ZM13.5739 24.6337C13.2421 24.6337 12.9722 24.3638 12.9722 24.032C12.9722 23.7002 13.2421 23.4304 13.5739 23.4304C13.9067 23.4304 14.1775 23.7002 14.1775 24.032C14.1775 24.3638 13.9067 24.6337 13.5739 24.6337ZM28.2358 16.4283C28.2358 16.7307 27.9908 16.9757 27.6884 16.9757H26.5606C26.2583 16.9757 26.0132 16.7307 26.0132 16.4283C26.0132 16.1259 26.2583 15.8809 26.5606 15.8809H27.6884C27.9908 15.8809 28.2358 16.1259 28.2358 16.4283Z" fill="#FFD500"/>
</g>
<defs>
<clipPath id="clip0">
<rect width="35" height="35" fill="white"/>
</clipPath>
</defs>
</svg>
