<svg width="35" height="35" viewBox="0 0 35 35" fill="none" xmlns="http://www.w3.org/2000/svg">
<path d="M34.7314 11.0013C34.05 8.90962 31.9299 7.5736 29.7488 7.68517C30.2854 6.87504 30.5685 5.93776 30.5685 4.95585C30.5685 2.22318 28.3453 0 25.6126 0C24.3594 0 23.1642 0.468467 22.2456 1.3194L8.50756 12.5967C8.49054 12.6107 8.47509 12.6258 8.46032 12.6414C7.05417 13.8642 6.16372 15.6655 6.16372 17.671C6.16372 18.2794 6.24616 18.869 6.39963 19.4294C6.39963 19.4294 2.5162 23.0804 1.65945 23.9529C0.729492 24.8999 0.0117188 26.6589 0.0117188 28.3352C0.0117188 32.0102 3.00148 35 6.67648 35C9.44381 35 11.8223 33.3046 12.8286 30.898C13.8347 33.3046 16.2132 35 18.9805 35C21.6263 35 23.9169 33.4502 24.9924 31.2106L32.852 17.7071C33.1855 17.1342 32.2992 16.6183 31.9658 17.1913L25.6392 28.061C25.4948 24.5128 22.5636 21.6705 18.9805 21.6705C18.6885 21.6705 18.4009 21.6896 18.1187 21.7262C18.1187 21.7262 27.155 10.9459 28.777 8.95433C30.6746 8.06784 33.1422 9.43346 33.7564 11.319C34.1043 12.3869 34.0101 13.5672 33.498 14.5574C33.2031 15.1277 34.0482 15.5875 34.3783 15.081C34.389 15.0645 34.3992 15.047 34.4088 15.0285C35.0462 13.7961 35.1637 12.3283 34.7314 11.0013ZM22.9122 2.09884C23.7031 1.44922 24.563 1.02539 25.6126 1.02539C27.7799 1.02539 29.5432 2.78858 29.5432 4.95592C29.5432 5.80863 29.2751 6.61903 28.7677 7.3003C28.7677 7.3003 20.0627 17.7663 19.4397 18.5183C19.4751 18.2408 19.4933 17.9579 19.4933 17.671C19.4933 13.996 16.5035 11.0062 12.8286 11.0062C12.5475 11.0062 12.2704 11.0239 11.9984 11.0578L22.9122 2.09884ZM12.8285 12.0316C15.938 12.0316 18.4678 14.5614 18.4678 17.671C18.4678 20.7252 15.885 23.3103 12.8285 23.3103C9.71896 23.3103 7.18911 20.7805 7.18911 17.671C7.18918 14.5614 9.71896 12.0316 12.8285 12.0316ZM13.696 24.2793C13.3458 24.7344 13.053 25.2357 12.8285 25.7726C12.604 25.2357 12.3111 24.7344 11.961 24.2793C12.245 24.3163 12.5345 24.3357 12.8285 24.3357C13.1224 24.3357 13.412 24.3163 13.696 24.2793ZM6.78483 20.4783C6.99237 20.9234 7.24756 21.3417 7.54396 21.7269C7.25993 21.6899 6.97043 21.6705 6.67648 21.6705C6.2411 21.6705 5.81543 21.713 5.40309 21.7931L6.78483 20.4783ZM6.67648 33.9746C3.56695 33.9746 1.03711 31.4448 1.03711 28.3352C1.03711 26.8946 1.58084 25.579 2.47293 24.5811C3.5744 23.4177 5.05329 22.6959 6.67648 22.6959C9.78602 22.6959 12.3159 25.2257 12.3159 28.3353C12.3159 31.4449 9.78602 33.9746 6.67648 33.9746ZM24.6199 28.3352C24.6199 31.4448 22.0901 33.9746 18.9805 33.9746C15.871 33.9746 13.3412 31.4448 13.3412 28.3352C13.3412 25.2256 15.871 22.6959 18.9805 22.6959C22.0901 22.6959 24.6199 25.2257 24.6199 28.3352Z" fill="#FFD500"/>
<path d="M31.9658 17.1913C32.2991 16.6185 33.1843 17.1345 32.852 17.7071L34.3783 15.081C34.0482 15.5875 33.2031 15.1277 33.498 14.5574L31.9658 17.1913Z" fill="#FFD500"/>
<path d="M12.8283 22.6264C15.5609 22.6264 17.7841 20.4033 17.7841 17.6706C17.7841 14.938 15.5609 12.7148 12.8283 12.7148C11.8796 12.7148 10.956 12.9862 10.1571 13.4994C9.33317 13.9998 10.1536 14.7204 10.7113 14.3621C11.3445 13.9553 12.0766 13.7402 12.8283 13.7402C14.9955 13.7402 16.7587 15.5034 16.7587 17.6706C16.7587 19.8379 14.9955 21.601 12.8283 21.601C10.661 21.601 8.89795 19.8379 8.89795 17.6706C8.89795 17.1704 8.99222 16.6811 9.17815 16.2164C9.41373 15.6276 8.55247 15.2535 8.26188 15.7612C8.24874 15.7842 8.23677 15.809 8.22611 15.8356C7.9915 16.422 7.87256 17.0395 7.87256 17.6707C7.87256 20.4033 10.0957 22.6264 12.8283 22.6264Z" fill="#FFD500"/>
<path d="M10.7113 14.3621C10.1536 14.7204 9.33317 13.9998 10.1571 13.4994C10.1571 13.4994 9.45995 13.9059 9.08291 14.3621C8.76737 14.7439 8.37989 15.5186 8.26188 15.7612C8.55247 15.2535 9.41373 15.6276 9.17815 16.2164C9.17815 16.2164 9.61715 15.5285 9.9165 15.1665C10.2159 14.8044 10.7113 14.3621 10.7113 14.3621Z" fill="#FFD500"/>
<path d="M6.67642 23.3789C3.94382 23.3789 1.7207 25.602 1.7207 28.3347C1.7207 31.0674 3.94382 33.2904 6.67642 33.2904C9.40901 33.2904 11.6322 31.0673 11.6322 28.3346C11.6322 25.602 9.40901 23.3789 6.67642 23.3789ZM6.67642 32.265C4.50922 32.265 2.74609 30.5019 2.74609 28.3346C2.74609 26.1674 4.50922 24.4042 6.67642 24.4042C8.84361 24.4042 10.6068 26.1674 10.6068 28.3346C10.6068 30.5019 8.84361 32.265 6.67642 32.265Z" fill="#FFD500"/>
<path d="M18.9812 33.2905C21.7138 33.2905 23.9369 31.0674 23.9369 28.3347C23.9369 25.602 21.7138 23.3789 18.9812 23.3789C16.2486 23.3789 14.0254 25.602 14.0254 28.3347C14.0254 31.0674 16.2486 33.2905 18.9812 33.2905ZM18.9812 24.4044C21.1484 24.4044 22.9115 26.1675 22.9115 28.3348C22.9115 30.502 21.1484 32.2651 18.9812 32.2651C16.814 32.2651 15.0508 30.502 15.0508 28.3347C15.0508 26.1674 16.814 24.4044 18.9812 24.4044Z" fill="#FFD500"/>
</svg>
