<svg width="35" height="35" viewBox="0 0 35 35" fill="none" xmlns="http://www.w3.org/2000/svg">
<path d="M27.8241 26.3328C27.5138 26.1176 27.0879 26.195 26.8729 26.5053C26.6645 26.806 26.4284 27.0985 26.1708 27.3746C25.9982 27.5598 25.7607 27.783 25.5023 28.0029C25.2148 28.2476 25.1801 28.679 25.4247 28.9666C25.5599 29.1255 25.7522 29.2071 25.9457 29.2071C26.1023 29.2071 26.2597 29.1536 26.3884 29.044C26.6899 28.7874 26.9605 28.5326 27.1707 28.3069C27.4729 27.983 27.7509 27.6389 27.9967 27.2839C28.2117 26.9737 28.1345 26.5478 27.8241 26.3328Z" fill="#FFD500"/>
<path d="M32.9578 1.77734H2.04223C0.916082 1.77734 0 2.69356 0 3.81958V22.9774C0 24.1033 0.916082 25.0195 2.04223 25.0195H16.4377C17.048 27.6014 18.4279 29.43 19.634 30.6016C21.3944 32.3118 23.4124 33.2225 24.1923 33.2225C24.9721 33.2225 26.9901 32.3119 28.7505 30.6016C29.9566 29.43 31.3366 27.6014 31.9468 25.0196H32.9578C34.0839 25.0196 35 24.1034 35 22.9775V3.81958C35 2.69356 34.0839 1.77734 32.9578 1.77734ZM30.8984 22.218C30.8984 25.8197 29.2359 28.2088 27.8411 29.5788C26.1866 31.2039 24.4894 31.836 24.1923 31.8552C23.895 31.836 22.1978 31.204 20.5433 29.5788C19.1487 28.2088 17.4861 25.8197 17.4861 22.218V18.8516C19.8397 18.1709 22.042 17.2394 24.1925 16.0152C26.2945 17.2083 28.5955 18.1812 30.8984 18.8512V22.218ZM33.6328 22.9774C33.6328 23.3495 33.3299 23.6523 32.9578 23.6523H32.1846C32.2369 23.1942 32.2656 22.7165 32.2656 22.218V18.3333C32.2656 18.0247 32.0589 17.7545 31.7612 17.6736C29.2789 16.9995 26.781 15.9491 24.5376 14.636C24.3243 14.5112 24.0603 14.5113 23.8469 14.6361C21.5399 15.9865 19.177 16.98 16.6233 17.6736C16.3256 17.7545 16.1189 18.0248 16.1189 18.3333V22.218C16.1189 22.7165 16.1475 23.1942 16.2 23.6523H2.04223C1.67002 23.6523 1.36718 23.3495 1.36718 22.9774V11.3475H33.6328V22.9774ZM33.6328 9.98039H1.36718V7.24615H33.6328V9.98039ZM33.6328 5.8789H1.36718V3.81958C1.36718 3.44736 1.67002 3.14453 2.04223 3.14453H32.9578C33.3299 3.14453 33.6328 3.44736 33.6328 3.81958V5.8789Z" fill="#FFD500"/>
<path d="M8.20186 16.1328C7.78972 16.1328 7.38278 16.2161 7.00612 16.375C6.63814 16.2191 6.23373 16.1328 5.80963 16.1328C4.11343 16.1328 2.7334 17.5127 2.7334 19.2088C2.7334 20.905 4.11337 22.285 5.80963 22.285C6.23373 22.285 6.63814 22.1987 7.00605 22.0428C7.38278 22.2017 7.78972 22.285 8.20186 22.285C9.89812 22.285 11.2782 20.905 11.2782 19.2088C11.2782 17.5127 9.89812 16.1328 8.20186 16.1328ZM5.80963 20.9178C4.86723 20.9178 4.10058 20.1512 4.10058 19.2088C4.10058 18.2665 4.86723 17.5 5.80963 17.5C6.75189 17.5 7.51854 18.2665 7.51854 19.2088C7.51854 20.1512 6.75189 20.9178 5.80963 20.9178ZM8.37132 20.9095C8.69603 20.422 8.88573 19.8372 8.88573 19.2089C8.88573 18.5806 8.69603 17.9959 8.37139 17.5085C9.23442 17.5938 9.91091 18.3239 9.91091 19.2089C9.91091 20.094 9.23443 20.8241 8.37132 20.9095Z" fill="#FFD500"/>
<path d="M6.93514 13.0586H3.41894C3.0414 13.0586 2.73535 13.3646 2.73535 13.7422C2.73535 14.1197 3.0414 14.4258 3.41894 14.4258H6.93514C7.31269 14.4258 7.61873 14.1196 7.61873 13.7422C7.61873 13.3646 7.31269 13.0586 6.93514 13.0586Z" fill="#FFD500"/>
<path d="M27.9452 20.6455C27.6784 20.3787 27.2456 20.3785 26.9785 20.6454L23.3229 24.3008L21.4073 22.385C21.1403 22.1183 20.7074 22.1181 20.4405 22.385C20.1735 22.652 20.1735 23.0849 20.4405 23.3518L22.8395 25.751C22.973 25.8845 23.148 25.9512 23.3229 25.9512C23.4978 25.9512 23.6728 25.8845 23.8062 25.751L27.9451 21.6123C28.2122 21.3454 28.2122 20.9126 27.9452 20.6455Z" fill="#FFD500"/>
</svg>
