<svg width="35" height="35" viewBox="0 0 35 35" fill="none" xmlns="http://www.w3.org/2000/svg">
<path d="M33.127 11.5884C33.0859 11.561 33.0449 11.5405 33.0039 11.5269H32.9971L17.6846 6.05811C17.5684 6.01709 17.4385 6.01709 17.3154 6.05811L2.00293 11.5269C2.00293 11.5269 1.99609 11.5269 1.99609 11.5337C1.95508 11.5474 1.91406 11.5679 1.87305 11.5952C1.72949 11.6978 1.64062 11.8618 1.64062 12.0396V27.3521C1.64062 27.5845 1.78418 27.7896 2.00293 27.8647L17.3154 33.3335C17.3223 33.3335 17.3223 33.3335 17.3291 33.3403C17.3359 33.3403 17.3359 33.3403 17.3428 33.3472C17.3633 33.354 17.3906 33.3608 17.4111 33.3608H17.418C17.4453 33.3677 17.4658 33.3677 17.4932 33.3677C17.5205 33.3677 17.5479 33.3677 17.5684 33.3608H17.5752C17.6025 33.354 17.623 33.354 17.6436 33.3472C17.6504 33.3472 17.6504 33.3472 17.6572 33.3403C17.6641 33.3403 17.6641 33.3403 17.6709 33.3335L32.9834 27.8647C33.2021 27.7896 33.3457 27.5776 33.3457 27.3521V12.0327C33.3594 11.855 33.2705 11.6909 33.127 11.5884ZM17.5 16.9204L14.0205 15.6763L27.7061 10.7886L31.1855 12.0327L17.5 16.9204ZM11.8467 16.0659V20.8716L11.5664 20.4683C11.4844 20.3521 11.3545 20.27 11.2109 20.2427C11.0674 20.2153 10.917 20.2495 10.8008 20.3384L9.97363 20.9263L9.0166 19.5522C8.93457 19.436 8.80469 19.354 8.66113 19.3267C8.62695 19.3198 8.59961 19.3198 8.56543 19.3198C8.44922 19.3198 8.33984 19.354 8.25098 19.4224L7.84082 19.7163V14.6304L9.84375 15.3481L11.8467 16.0659ZM26.0791 10.2075L12.3936 15.0952L8.91406 13.8511L22.5996 8.96338L26.0791 10.2075ZM17.5 7.14502L20.9795 8.38916L7.29395 13.2769L3.81445 12.0327L17.5 7.14502ZM2.73438 12.812L6.74707 14.2476V20.7827C6.74707 20.9878 6.86328 21.1724 7.04102 21.2681C7.22559 21.3638 7.44434 21.3433 7.6084 21.2271L8.43555 20.6392L9.39258 22.0132C9.47461 22.1294 9.60449 22.2114 9.74805 22.2388C9.8916 22.2661 10.042 22.2319 10.1582 22.1431L10.9854 21.5552L11.9424 22.9292C12.0449 23.0796 12.2158 23.1616 12.3936 23.1616C12.4482 23.1616 12.5029 23.1548 12.5576 23.1343C12.7832 23.0659 12.9404 22.854 12.9404 22.6147V16.4624L16.9531 17.8979V18.0005V32.0552L2.73438 26.9624V12.812ZM32.2656 26.9624L18.0469 32.0415V18.4175V17.8911L32.2656 12.812V26.9624Z" fill="#FFD500"/>
<path d="M20.7806 27.1395C20.8421 27.1395 20.9036 27.1258 20.9652 27.1053L26.7074 25.0545C26.9945 24.952 27.138 24.6375 27.0355 24.3573C26.933 24.0701 26.6185 23.9266 26.3382 24.0291L20.596 26.0799C20.3089 26.1825 20.1654 26.4969 20.2679 26.7772C20.3431 27.0028 20.555 27.1395 20.7806 27.1395Z" fill="#FFD500"/>
<path d="M20.7806 29.327C20.8421 29.327 20.9036 29.3133 20.9652 29.2928L26.7074 27.242C26.9945 27.1395 27.138 26.825 27.0355 26.5448C26.933 26.2576 26.6185 26.1141 26.3382 26.2166L20.596 28.2674C20.3089 28.37 20.1654 28.6844 20.2679 28.9647C20.3431 29.1903 20.555 29.327 20.7806 29.327Z" fill="#FFD500"/>
<path d="M27.6521 19.0549C27.7273 19.0959 27.8094 19.1096 27.8914 19.1096C28.0965 19.1096 28.2879 19.0002 28.3836 18.8019L28.9852 17.5783V20.9689C28.9852 21.2697 29.2312 21.5158 29.532 21.5158C29.8328 21.5158 30.0789 21.2697 30.0789 20.9689V16.8537L30.7352 17.7219C30.9197 17.9611 31.2615 18.009 31.5008 17.8244C31.74 17.6398 31.7879 17.298 31.6033 17.0588L29.9627 14.8986C29.8465 14.7482 29.6619 14.6662 29.4773 14.6867C29.2859 14.7072 29.1219 14.8166 29.0398 14.9875L27.3992 18.3234C27.2693 18.5969 27.3787 18.9181 27.6521 19.0549Z" fill="#FFD500"/>
</svg>
