<svg width="35" height="35" viewBox="0 0 35 35" fill="none" xmlns="http://www.w3.org/2000/svg">
<path d="M34.3 12.6H31.5V1.4C31.4993 0.627197 30.8728 0.000683594 30.1 0H4.9C4.1272 0.000683594 3.50068 0.627197 3.5 1.4V12.6H0.7C0.313428 12.6 0 12.9134 0 13.3V18.9C0 19.2866 0.313428 19.6 0.7 19.6H3.5V25.9C3.5 26.088 3.57622 26.2681 3.71123 26.399C3.57383 26.6796 3.50171 26.9876 3.5 27.3V28.7C3.50137 29.8594 4.44062 30.7986 5.6 30.8V32.9C5.60137 34.0594 6.54063 34.9986 7.7 35H10.5C11.6594 34.9986 12.5986 34.0594 12.6 32.9V30.8H22.4V32.9C22.4014 34.0594 23.3406 34.9986 24.5 35H27.3C28.4594 34.9986 29.3986 34.0594 29.4 32.9V30.8C30.5594 30.7986 31.4986 29.8594 31.5 28.7V27.3C31.4983 26.9876 31.4262 26.6796 31.2891 26.399C31.4238 26.2681 31.5 26.088 31.5 25.9V19.6H34.3C34.6866 19.6 35 19.2866 35 18.9V13.3C35 12.9134 34.6866 12.6 34.3 12.6ZM29.4 25.2V20.6746L30.1 20.2081V25.2H29.4ZM9.8 25.2V23.1C9.8 22.9144 9.72617 22.7363 9.59492 22.6051L8.19492 21.2051C8.06367 21.0738 7.8856 21 7.7 21H7V9.1C7.00137 7.94062 7.94062 7.00137 9.1 7H25.9C27.0594 7.00137 27.9986 7.94062 28 9.1V21H27.3C27.1144 21 26.9363 21.0738 26.8051 21.2051L25.4051 22.6051C25.2738 22.7363 25.2 22.9144 25.2 23.1V25.2H9.8ZM4.9 25.2V20.2081L5.6 20.6746V25.2H4.9ZM7 22.4H7.41016L8.4 23.3898V25.2H7V22.4ZM26.6 23.3898L27.5898 22.4H28V25.2H26.6V23.3898ZM4.9 1.4H30.1V18.5254L29.4 18.9919V9.1C29.3976 7.16782 27.8322 5.60239 25.9 5.6H9.1C7.16782 5.60239 5.60239 7.16782 5.6 9.1V18.9919L4.9 18.5254V1.4ZM1.4 18.2V14H3.5V18.2H1.4ZM11.2 32.9C11.1997 33.2862 10.8862 33.5997 10.5 33.6H7.7C7.31377 33.5997 7.00034 33.2862 7 32.9V30.8H11.2V32.9ZM28 32.9C27.9997 33.2862 27.6862 33.5997 27.3 33.6H24.5C24.1138 33.5997 23.8003 33.2862 23.8 32.9V30.8H28V32.9ZM30.1 28.7C30.0997 29.0862 29.7862 29.3997 29.4 29.4H5.6C5.21377 29.3997 4.90034 29.0862 4.9 28.7V27.3C4.90034 26.9138 5.21377 26.6003 5.6 26.6H29.4C29.7862 26.6003 30.0997 26.9138 30.1 27.3V28.7ZM33.6 18.2H31.5V14H33.6V18.2Z" fill="#FFD500"/>
<path d="M11.65 19.5984H23.3498C23.4451 19.5984 23.5391 19.579 23.6266 19.5414L26.8768 18.1414C27.1334 18.0306 27.2999 17.778 27.2999 17.4984V9.79844C27.3125 9.03931 26.7089 8.41313 25.9498 8.39844H9.05C8.29087 8.41313 7.68726 9.03931 7.6999 9.79844V17.4984C7.6999 17.778 7.86636 18.0306 8.12305 18.1414L11.3732 19.5414C11.4607 19.579 11.5547 19.5984 11.65 19.5984ZM9.05 9.79844H25.8999V17.0377L23.2055 18.1984H21.056L21.4559 17.4984H23.4499C23.8365 17.4984 24.1499 17.185 24.1499 16.7984C24.1499 16.4119 23.8365 16.0984 23.4499 16.0984H19.2499C18.8633 16.0984 18.5499 16.4119 18.5499 16.7984C18.5499 17.185 18.8633 17.4984 19.2499 17.4984H19.8436L19.4437 18.1984H14.056L14.4559 17.4984H16.4499C16.8365 17.4984 17.1499 17.185 17.1499 16.7984C17.1499 16.4119 16.8365 16.0984 16.4499 16.0984H12.2499C11.8633 16.0984 11.5499 16.4119 11.5499 16.7984C11.5499 17.185 11.8633 17.4984 12.2499 17.4984H12.8436L12.4437 18.1984H11.7943L9.09683 17.0363L9.05 9.79844Z" fill="#FFD500"/>
<path d="M23.1002 23.1016H11.9002C11.5136 23.1016 11.2002 23.415 11.2002 23.8016C11.2002 24.1881 11.5136 24.5016 11.9002 24.5016H23.1002C23.4868 24.5016 23.8002 24.1881 23.8002 23.8016C23.8002 23.415 23.4868 23.1016 23.1002 23.1016Z" fill="#FFD500"/>
<path d="M23.1002 21H11.9002C11.5136 21 11.2002 21.3134 11.2002 21.7C11.2002 22.0866 11.5136 22.4 11.9002 22.4H23.1002C23.4868 22.4 23.8002 22.0866 23.8002 21.7C23.8002 21.3134 23.4868 21 23.1002 21Z" fill="#FFD500"/>
</svg>
