<svg width="35" height="35" viewBox="0 0 35 35" fill="none" xmlns="http://www.w3.org/2000/svg">
<g clip-path="url(#clip0)">
<path d="M34.9081 29.5013L29.4394 21.2982C29.272 21.0472 28.9329 20.9788 28.6808 21.1467C28.4293 21.3146 28.3615 21.6537 28.5294 21.9052L33.4315 29.258H1.56842L6.47061 21.9058C6.6385 21.6542 6.57068 21.3152 6.31912 21.1473C6.06647 20.9794 5.7274 21.0477 5.56061 21.2988L0.0918555 29.5019C-0.019707 29.6692 -0.0306445 29.8852 0.0645117 30.063C0.159668 30.2407 0.345059 30.3517 0.546855 30.3517H34.4531C34.6549 30.3517 34.8403 30.2402 34.9355 30.0624C35.0306 29.8847 35.0197 29.6692 34.9081 29.5013Z" fill="#FFD500"/>
<path d="M34.4531 29.2578H0.546875C0.244453 29.2578 0 29.5023 0 29.8047V31.9922C0 32.2946 0.244453 32.5391 0.546875 32.5391H34.4531C34.7555 32.5391 35 32.2946 35 31.9922V29.8047C35 29.5023 34.7555 29.2578 34.4531 29.2578ZM33.9062 31.4453H1.09375V30.3516H33.9062V31.4453Z" fill="#FFD500"/>
<path d="M8.48951 23.2958C8.21388 23.1651 7.88959 23.2821 7.76052 23.5539L4.89326 29.5695C4.76311 29.8424 4.87905 30.1689 5.15139 30.2985C5.22795 30.3351 5.30779 30.3521 5.38654 30.3521C5.59108 30.3521 5.78686 30.2372 5.88037 30.0404L8.74763 24.0247C8.87779 23.7518 8.76185 23.4254 8.48951 23.2958Z" fill="#FFD500"/>
<path d="M11.9463 23.8102C11.6592 23.7276 11.3529 23.8944 11.2703 24.1853L10.4861 26.9197C10.403 27.2095 10.5709 27.5125 10.8613 27.5956C10.911 27.6099 10.9619 27.617 11.0122 27.617C11.2496 27.617 11.4688 27.4611 11.5372 27.2205L12.3214 24.4861C12.4045 24.1963 12.2367 23.8933 11.9463 23.8102Z" fill="#FFD500"/>
<path d="M30.1074 29.5706L29.064 27.382C28.9349 27.1102 28.6106 26.9932 28.335 27.1239C28.0626 27.2535 27.9467 27.58 28.0769 27.8529L29.1203 30.0415C29.2138 30.2378 29.4096 30.3526 29.6141 30.3526C29.6929 30.3526 29.7727 30.3357 29.8493 30.2996C30.1216 30.17 30.2376 29.8435 30.1074 29.5706Z" fill="#FFD500"/>
<path d="M28.0201 25.1918L26.1968 21.3664C26.0672 21.0946 25.7429 20.9776 25.4678 21.1083C25.1955 21.2379 25.0795 21.5643 25.2097 21.8372L27.0329 25.6626C27.1265 25.859 27.3222 25.9738 27.5268 25.9738C27.6055 25.9738 27.6854 25.9568 27.7619 25.9208C28.0343 25.7911 28.1502 25.4647 28.0201 25.1918Z" fill="#FFD500"/>
<path d="M24.5168 26.9197L23.7326 24.1854C23.6494 23.8939 23.3443 23.7276 23.0566 23.8102C22.7657 23.8933 22.5983 24.1963 22.6815 24.4862L23.4657 27.2205C23.5346 27.4611 23.7528 27.617 23.9907 27.617C24.041 27.617 24.0919 27.6099 24.1416 27.5957C24.4326 27.5126 24.5999 27.2096 24.5168 26.9197Z" fill="#FFD500"/>
<path d="M8.25602 23.2422H4.55859C4.25617 23.2422 4.01172 23.4866 4.01172 23.7891C4.01172 24.0915 4.25617 24.3359 4.55859 24.3359H8.25602C8.55789 24.3359 8.80289 24.0915 8.80289 23.7891C8.80289 23.4866 8.55844 23.2422 8.25602 23.2422Z" fill="#FFD500"/>
<path d="M32.994 27.0703H28.5703C28.2679 27.0703 28.0234 27.3148 28.0234 27.6172C28.0234 27.9196 28.2679 28.1641 28.5703 28.1641H32.994C33.2964 28.1641 33.5409 27.9196 33.5409 27.6172C33.5409 27.3148 33.2964 27.0703 32.994 27.0703Z" fill="#FFD500"/>
<path d="M31.5359 24.8828H27.5273C27.2249 24.8828 26.9805 25.1273 26.9805 25.4297C26.9805 25.7321 27.2249 25.9766 27.5273 25.9766H31.5359C31.8384 25.9766 32.0828 25.7321 32.0828 25.4297C32.0828 25.1273 31.8384 24.8828 31.5359 24.8828Z" fill="#FFD500"/>
<path d="M16.4053 23.7891H11.793C11.4905 23.7891 11.2461 24.0335 11.2461 24.3359C11.2461 24.6384 11.4905 24.8828 11.793 24.8828H16.4053C16.7077 24.8828 16.9522 24.6384 16.9522 24.3359C16.9522 24.0335 16.7077 23.7891 16.4053 23.7891Z" fill="#FFD500"/>
<path d="M23.206 23.7891H18.6445C18.3421 23.7891 18.0977 24.0335 18.0977 24.3359C18.0977 24.6384 18.3421 24.8828 18.6445 24.8828H23.206C23.5079 24.8828 23.7529 24.6384 23.7529 24.3359C23.7529 24.0335 23.5084 23.7891 23.206 23.7891Z" fill="#FFD500"/>
<path d="M23.9913 26.5234H11.0117C10.7093 26.5234 10.4648 26.7679 10.4648 27.0703C10.4648 27.3727 10.7093 27.6172 11.0117 27.6172H23.9913C24.2937 27.6172 24.5381 27.3727 24.5381 27.0703C24.5381 26.7679 24.2937 26.5234 23.9913 26.5234Z" fill="#FFD500"/>
<path d="M13.9054 21.0547H6.01562C5.7132 21.0547 5.46875 21.2991 5.46875 21.6016C5.46875 21.904 5.7132 22.1484 6.01562 22.1484H13.9054C14.2073 22.1484 14.4523 21.904 14.4523 21.6016C14.4523 21.2991 14.2078 21.0547 13.9054 21.0547Z" fill="#FFD500"/>
<path d="M28.9841 21.0547H21.0938C20.7913 21.0547 20.5469 21.2991 20.5469 21.6016C20.5469 21.904 20.7913 22.1484 21.0938 22.1484H28.9841C29.2865 22.1484 29.5309 21.904 29.5309 21.6016C29.5309 21.2991 29.2865 21.0547 28.9841 21.0547Z" fill="#FFD500"/>
<path d="M17.5 0C12.6755 0 7.875 4.33627 7.875 9.6657C7.875 17.6151 16.7973 25.4951 17.1396 25.8267C17.2424 25.9264 17.3715 25.9766 17.5 25.9766C17.6285 25.9766 17.7576 25.9264 17.8604 25.8267C18.2027 25.4951 27.125 17.6151 27.125 9.6657C27.125 4.33627 22.3245 0 17.5 0ZM17.5 24.5515C15.9381 22.9222 9.1875 16.1502 9.1875 9.6657C9.1875 5.002 13.2781 1.20821 17.5 1.20821C21.7219 1.20821 25.8125 5.002 25.8125 9.6657C25.8125 16.1502 19.0619 22.9228 17.5 24.5515Z" fill="#FFD500"/>
<path d="M22.8597 14.2188H13.0156C12.562 14.2188 12.1953 14.5863 12.1953 15.0391C12.1953 15.4919 12.562 15.8594 13.0156 15.8594H22.8597C23.3133 15.8594 23.68 15.4919 23.68 15.0391C23.68 14.5863 23.3133 14.2188 22.8597 14.2188Z" fill="#FFD500"/>
<path d="M13.836 4.375C13.3823 4.375 13.0156 4.74251 13.0156 5.19533V15.0394C13.0156 15.4922 13.3823 15.8597 13.836 15.8597C14.2896 15.8597 14.6563 15.4922 14.6563 15.0394V5.19533C14.6563 4.74251 14.2896 4.375 13.836 4.375Z" fill="#FFD500"/>
<path d="M22.0391 7.30469C21.5854 7.30469 21.2188 7.6722 21.2188 8.12502V15.0396C21.2188 15.4924 21.5854 15.86 22.0391 15.86C22.4927 15.86 22.8594 15.4924 22.8594 15.0396V8.12502C22.8594 7.6722 22.4927 7.30469 22.0391 7.30469Z" fill="#FFD500"/>
<path d="M18.6049 4.71864C18.3408 4.34949 17.8281 4.26499 17.4606 4.5275L11.7182 8.62917C11.3499 8.8925 11.2646 9.40521 11.5279 9.77354C11.6879 9.99749 11.9389 10.1173 12.1957 10.1173C12.3605 10.1173 12.5271 10.0672 12.6723 9.96467L18.4146 5.863C18.7829 5.59968 18.8683 5.08697 18.6049 4.71864Z" fill="#FFD500"/>
<path d="M24.1572 8.62894L18.4148 4.52727C18.0465 4.26476 17.5338 4.35008 17.2704 4.71841C17.0063 5.08674 17.0924 5.59945 17.4608 5.86277L23.2031 9.96445C23.3475 10.067 23.514 10.117 23.6789 10.117C23.9357 10.117 24.1867 9.99726 24.3475 9.77331C24.6116 9.40498 24.5255 8.89227 24.1572 8.62894Z" fill="#FFD500"/>
<path d="M17.9376 10.9375C17.3327 10.9375 16.8438 11.3785 16.8438 11.9219V14.8751C16.8438 15.4185 17.3327 15.8595 17.9376 15.8595C18.5424 15.8595 19.0314 15.4185 19.0314 14.8751V11.9219C19.0314 11.3785 18.5424 10.9375 17.9376 10.9375Z" fill="#FFD500"/>
</g>
<defs>
<clipPath id="clip0">
<rect width="35" height="35" fill="white"/>
</clipPath>
</defs>
</svg>
