<svg width="35" height="35" viewBox="0 0 35 35" fill="none" xmlns="http://www.w3.org/2000/svg">
<g clip-path="url(#clip0)">
<path d="M15.7502 25.668C13.1771 25.668 11.0835 27.7615 11.0835 30.3347C11.0835 32.9078 13.1771 35.0013 15.7502 35.0013C18.3233 35.0013 20.4169 32.9078 20.4169 30.3347C20.4169 27.7615 18.3233 25.668 15.7502 25.668ZM15.7502 33.8346C13.8199 33.8346 12.2502 32.2649 12.2502 30.3346C12.2502 28.4043 13.8199 26.8346 15.7502 26.8346C17.6804 26.8346 19.2502 28.4043 19.2502 30.3346C19.2502 32.2649 17.6804 33.8346 15.7502 33.8346Z" fill="#FFD500"/>
<path d="M3.5 28C1.56974 28 0 29.5697 0 31.5C0 33.4303 1.56974 35 3.5 35C5.43026 35 7 33.4303 7 31.5C7 29.5697 5.43026 28 3.5 28ZM3.5 33.8333C2.21313 33.8333 1.16669 32.7868 1.16669 31.5C1.16669 30.2131 2.2132 29.1667 3.5 29.1667C4.7868 29.1667 5.83331 30.2132 5.83331 31.5C5.83331 32.7869 4.78687 33.8333 3.5 33.8333Z" fill="#FFD500"/>
<path d="M34.4165 18.082H24.4998C24.1772 18.082 23.9165 18.3428 23.9165 18.6653V27.9987C23.9165 28.3213 24.1772 28.582 24.4998 28.582H34.4165C34.7391 28.582 34.9998 28.3213 34.9998 27.9987V18.6654C34.9998 18.3428 34.7391 18.082 34.4165 18.082ZM33.8331 27.4154H25.0831V19.2487H33.8331V27.4154Z" fill="#FFD500"/>
<path d="M30.9175 18.082H28.0008C27.6782 18.082 27.4175 18.3428 27.4175 18.6653V22.1653C27.4175 22.4879 27.6782 22.7487 28.0008 22.7487H30.9175C31.2401 22.7487 31.5008 22.4879 31.5008 22.1653V18.6653C31.5008 18.3428 31.2401 18.082 30.9175 18.082ZM30.3341 21.582H28.5841V19.2487H30.3341V21.582Z" fill="#FFD500"/>
<path d="M12.8345 32.668H5.83447V33.8347H12.8345V32.668Z" fill="#FFD500"/>
<path d="M19.4209 22.921L16.6752 25.6667H14.7508L10.2259 22.8387C10.1331 22.7809 10.0264 22.75 9.91669 22.75H0.583311C0.261338 22.75 0 23.0107 0 23.3333V31.5001H1.16669V23.9168H9.74928L14.2742 26.7448C14.367 26.8025 14.4737 26.8334 14.5834 26.8334H16.9167C17.0712 26.8334 17.22 26.7722 17.3291 26.6625L20.2458 23.7459L19.4209 22.921Z" fill="#FFD500"/>
<path d="M20.3554 21.3233L14.4229 9.45887C14.0257 8.66378 13.2271 8.16913 12.3375 8.16797H1.75C0.785176 8.16797 0 8.95314 0 9.91797V23.3347H1.16669V9.91804C1.16669 9.59661 1.42857 9.33473 1.75 9.33473H12.337C12.7814 9.33534 13.1811 9.58267 13.3794 9.98045L19.25 21.7223V30.3347H20.4167V21.5847C20.4167 21.4943 20.3956 21.4045 20.3554 21.3233Z" fill="#FFD500"/>
<path d="M15.749 28.582C14.7842 28.582 13.999 29.3672 13.999 30.332C13.999 31.2969 14.7842 32.082 15.749 32.082C16.7138 32.082 17.499 31.2969 17.499 30.332C17.499 29.3672 16.7138 28.582 15.749 28.582ZM15.749 30.9154C15.4276 30.9154 15.1657 30.6541 15.1657 30.3321C15.1657 30.0101 15.4276 29.7488 15.749 29.7488C16.0704 29.7488 16.3323 30.0101 16.3323 30.3321C16.3323 30.6541 16.0704 30.9154 15.749 30.9154Z" fill="#FFD500"/>
<path d="M9.91688 20.4167H5.8335V15.75C5.8335 14.7852 5.04832 14 4.0835 14C3.11867 14 2.3335 14.7852 2.3335 15.75V23.3333H3.50019V15.75C3.50019 15.4286 3.76207 15.1667 4.0835 15.1667C4.40492 15.1667 4.66681 15.4286 4.66681 15.75V21C4.66681 21.3226 4.92814 21.5833 5.25012 21.5833H9.91681C10.2382 21.5833 10.5001 21.8447 10.5001 22.1666C10.5001 22.4886 10.2382 22.7499 9.91681 22.7499H9.3335V23.9166H9.91681C10.8816 23.9166 11.6668 23.1315 11.6668 22.1666C11.6668 21.2018 10.8817 20.4167 9.91688 20.4167Z" fill="#FFD500"/>
<path d="M14.1701 15.9237L11.2539 18.8398L12.0789 19.6648L14.995 16.7486L14.1701 15.9237Z" fill="#FFD500"/>
<path d="M13.8289 17.6711L13.0039 18.4961L18.8362 24.3284L19.6612 23.5035L13.8289 17.6711Z" fill="#FFD500"/>
<path d="M22.1661 0H19.8328C19.5102 0 19.2495 0.261338 19.2495 0.583311V33.25C19.2495 33.5726 19.5102 33.8333 19.8328 33.8333H22.1661C22.4887 33.8333 22.7494 33.5726 22.7494 33.25V0.583311C22.7494 0.261338 22.4887 0 22.1661 0ZM21.5828 32.6667H20.4161V1.16669H21.5828V32.6667Z" fill="#FFD500"/>
<path d="M34.9993 29.75H22.166V30.9167H34.9993V29.75Z" fill="#FFD500"/>
<path d="M4.08222 30.918H2.91553V32.0847H4.08222V30.918Z" fill="#FFD500"/>
</g>
<defs>
<clipPath id="clip0">
<rect width="35" height="35" fill="white"/>
</clipPath>
</defs>
</svg>
