<svg width="35" height="35" viewBox="0 0 35 35" fill="none" xmlns="http://www.w3.org/2000/svg">
<g clip-path="url(#clip0)">
<path fill-rule="evenodd" clip-rule="evenodd" d="M34.9387 22.1176C34.9331 22.1018 34.9267 22.0876 34.9197 22.0726C34.8998 22.0295 34.8741 21.9896 34.8434 21.9541C34.8402 21.9504 34.8374 21.9465 34.8346 21.9426C34.8309 21.9375 34.8272 21.9324 34.8226 21.9278C34.7873 21.8911 34.7468 21.8604 34.7025 21.8367L25.2012 16.8636V18.0091L33.3893 22.2949L31.9584 23.0438L24.9924 19.3978L24.7629 20.4231L30.8641 23.6166L29.0225 24.5805L22.1973 21.0081L20.7042 21.3721L27.9283 25.1532L26.0867 26.1171L17.9069 21.8358L17.0797 22.5484L24.9924 26.69L23.1508 27.6539L14.9618 23.3677L13.4301 23.7114L22.0565 28.2266L20.2935 29.1493L11.4579 24.5246L10.055 24.936L17.2702 28.7124V29.7438L9.1268 25.4815L8.14822 25.9238V27.5669L6.59284 26.7528V26.1205L5.61426 24.6822V27.0695C5.61712 27.0936 5.62171 27.1174 5.62802 27.1408C5.63117 27.1777 5.63817 27.2142 5.64895 27.2495C5.66145 27.2789 5.67664 27.3071 5.69436 27.3334C5.70916 27.3624 5.7267 27.3897 5.74683 27.415C5.77177 27.4403 5.7993 27.4629 5.82889 27.4821C5.84637 27.4988 5.86507 27.5141 5.88479 27.5277L20.0748 34.9549C20.077 34.956 20.0794 34.9563 20.0818 34.9566C20.084 34.9569 20.0863 34.9572 20.0884 34.9583C20.2177 35.0259 20.3698 35.0259 20.499 34.9583C20.5033 34.9562 20.5083 34.9571 20.5125 34.9549L34.7026 27.5277C34.7222 27.5141 34.7409 27.4988 34.7584 27.4821C34.788 27.4629 34.8156 27.4404 34.8406 27.415C34.8773 27.3626 34.9101 27.3072 34.9385 27.2493C34.9492 27.2141 34.9562 27.1778 34.9594 27.1409C34.9656 27.1175 34.9702 27.0936 34.9731 27.0695V22.2949C34.9718 22.2341 34.9602 22.1741 34.9387 22.1176ZM17.2702 32.3414L9.1268 28.0791V26.627L17.2702 30.8893V32.3414ZM19.8042 33.6678L18.2489 32.8537V29.2246L19.8042 30.0387V33.6678ZM22.3382 32.8537L20.7828 33.6678V30.0387L22.3382 29.2246V32.8537ZM31.4603 28.0791L23.3168 32.3414V30.8893L31.4603 26.627V28.0791ZM31.4603 25.4815L23.3168 29.7438V28.7124L31.4603 24.4501V25.4815ZM33.9942 26.7528L32.4389 27.5669V23.9378L33.9942 23.1237V26.7528Z" fill="#FFD500"/>
<path d="M25.087 3.27677C25.072 3.26169 22.1008 0.236606 22.1008 0.236606C21.9872 0.120254 21.8697 0 21.6503 0H9.68847C9.33908 0 9.05481 0.303431 9.05481 0.676431V2.75362L4.83886 3.52514C4.50093 3.58843 4.27367 3.93369 4.33221 4.29408L4.54618 5.62596C3.17584 6.11826 1.76895 6.62575 0.410762 7.14659C0.0898291 7.27186 -0.0785915 7.65282 0.0359286 7.9975L2.73762 16.0153L2.73767 16.0154C2.79205 16.1767 2.93445 16.2771 3.08632 16.2771C3.12792 16.2771 3.17031 16.2696 3.21171 16.2536C3.40429 16.1797 3.50424 15.9531 3.43497 15.7475L0.773244 7.84829C2.05283 7.3592 3.37796 6.8805 4.673 6.41515L5.94621 14.3395L7.41126 23.4658C7.46417 23.788 7.72943 24.0172 8.02882 24.0172C8.06271 24.0172 8.0971 24.0142 8.13158 24.0082L12.0996 23.2812L15.2002 22.7138L10.5368 24.5032L6.85941 25.9148L4.00342 17.4343C4.00339 17.4342 4.00337 17.4341 4.00334 17.434C3.93403 17.2286 3.72194 17.122 3.52938 17.1959C3.33681 17.2697 3.23686 17.4963 3.30608 17.7019L6.20257 26.303C6.29521 26.5734 6.53522 26.7416 6.78891 26.7416C6.85901 26.7416 6.93021 26.7287 6.99957 26.7016L10.7875 25.2477L19.3885 21.9474L21.0317 21.6467H24.6615C25.0109 21.6467 25.2952 21.3426 25.2952 20.9687V3.72251C25.2952 3.48574 25.1749 3.36496 25.087 3.27677ZM24.1053 3.37045H22.2512L22.2052 3.37066C22.1164 3.37129 21.9086 3.37293 21.8559 3.31702C21.8437 3.3041 21.8295 3.26095 21.8295 3.18083L21.8252 1.04922L24.1053 3.37045ZM24.5541 20.8554H9.79588V13.1461C9.79588 12.9277 9.62998 12.7506 9.42534 12.7506C9.22071 12.7506 9.05481 12.9277 9.05481 13.1461V20.9686C9.05481 21.3424 9.33908 21.6466 9.68847 21.6466H16.6452L11.9743 22.5013L8.1216 23.2072L6.67661 14.2058L5.08237 4.28322L9.05476 3.55626V11.3107C9.05476 11.5291 9.22066 11.7062 9.42529 11.7062C9.62993 11.7062 9.79583 11.5291 9.79583 11.3107V0.791095H21.0836L21.0884 3.18173C21.0884 3.4715 21.171 3.70589 21.3338 3.87847C21.5839 4.14361 21.9375 4.16207 22.157 4.16207C22.1759 4.16207 22.1937 4.16191 22.2105 4.1618L24.5541 4.16165V20.8554Z" fill="#FFD500"/>
<path d="M9.42534 12.7506C9.62998 12.7506 9.79588 12.9277 9.79588 13.1461L9.79583 11.3107C9.79583 11.5291 9.62993 11.7062 9.42529 11.7062C9.22066 11.7062 9.05476 11.5291 9.05476 11.3107L9.05481 13.1461C9.05481 12.9277 9.22071 12.7506 9.42534 12.7506Z" fill="#FFD500"/>
<path d="M3.08632 16.2771C2.93445 16.2771 2.79205 16.1767 2.73767 16.0154L3.30608 17.7019C3.23686 17.4963 3.33681 17.2697 3.52938 17.1959C3.72194 17.122 3.93403 17.2286 4.00334 17.434L3.43497 15.7475C3.50424 15.9531 3.40429 16.1797 3.21171 16.2536C3.17031 16.2696 3.12792 16.2771 3.08632 16.2771Z" fill="#FFD500"/>
<path d="M11.582 6.14167C11.582 6.36013 11.7479 6.53724 11.9526 6.53724H22.5467C22.7513 6.53724 22.9172 6.36013 22.9172 6.14167C22.9172 5.92321 22.7513 5.74609 22.5467 5.74609H11.9526C11.7479 5.74609 11.582 5.92321 11.582 6.14167Z" fill="#FFD500"/>
<path d="M22.5467 8.55859H11.9526C11.7479 8.55859 11.582 8.73571 11.582 8.95417C11.582 9.17263 11.7479 9.34974 11.9526 9.34974H22.5467C22.7513 9.34974 22.9172 9.17263 22.9172 8.95417C22.9172 8.73571 22.7513 8.55859 22.5467 8.55859Z" fill="#FFD500"/>
<path d="M22.5467 11.3672H11.9526C11.7479 11.3672 11.582 11.5443 11.582 11.7628C11.582 11.9812 11.7479 12.1583 11.9526 12.1583H22.5467C22.7513 12.1583 22.9172 11.9812 22.9172 11.7628C22.9172 11.5443 22.7513 11.3672 22.5467 11.3672Z" fill="#FFD500"/>
<path d="M22.5467 14.1758H11.9526C11.7479 14.1758 11.582 14.3529 11.582 14.5714C11.582 14.7898 11.7479 14.9669 11.9526 14.9669H22.5467C22.7513 14.9669 22.9172 14.7898 22.9172 14.5714C22.9172 14.3529 22.7513 14.1758 22.5467 14.1758Z" fill="#FFD500"/>
<path d="M22.5467 16.9883H11.9526C11.7479 16.9883 11.582 17.1654 11.582 17.3839C11.582 17.6023 11.7479 17.7794 11.9526 17.7794H22.5467C22.7513 17.7794 22.9172 17.6023 22.9172 17.3839C22.9172 17.1654 22.7513 16.9883 22.5467 16.9883Z" fill="#FFD500"/>
</g>
<defs>
<clipPath id="clip0">
<rect width="35" height="35" fill="white"/>
</clipPath>
</defs>
</svg>
