<svg width="35" height="35" viewBox="0 0 35 35" fill="none" xmlns="http://www.w3.org/2000/svg">
<path d="M31.4448 27.0021C31.4422 26.9953 31.4394 26.9885 31.4366 26.9818C30.8074 25.5096 29.3318 24.9654 27.5855 25.5619L22.823 26.8789C22.5477 26.045 21.8608 25.3355 20.8897 24.9751C20.8837 24.9729 20.8777 24.9707 20.8716 24.9687L15.6366 23.1919C15.2009 22.6287 13.836 21.1875 11.2805 21.1875C9.49464 21.1875 7.91478 22.4126 7.01094 23.748H0.683594C0.306045 23.748 0 24.0541 0 24.4316V33.0502C0 33.4277 0.306045 33.7338 0.683594 33.7338H4.74804C5.12559 33.7338 5.43163 33.4277 5.43163 33.0502V32.46H7.3377C7.71524 32.46 8.02129 32.1539 8.02129 31.7764V31.5796C9.1324 31.6766 9.49785 31.8873 10.5183 32.4758C11.3031 32.9283 12.4892 33.6122 14.6251 34.5726C14.6351 34.5771 14.6451 34.5813 14.6552 34.5853C15.0651 34.7465 15.8665 34.9999 16.8545 34.9999C17.5422 34.9999 18.3204 34.877 19.1193 34.5149L29.646 30.7459C29.6648 30.7392 29.6832 30.7316 29.7013 30.7233C30.7073 30.2604 32.2065 28.9559 31.4448 27.0021ZM4.06444 32.3665H1.36719V25.1152H4.06444V32.3665ZM6.6541 31.0927H5.43163V25.1152H6.6541V31.0927ZM29.155 29.4694L18.633 33.2367C18.6238 33.24 18.6112 33.2449 18.6022 33.2486C18.5929 33.2524 18.5837 33.2563 18.5746 33.2605C17.1092 33.934 15.7162 33.5308 15.1703 33.3186C13.1071 32.3902 12.0059 31.7552 11.2013 31.2912C10.0827 30.6462 9.54365 30.3353 8.02129 30.2096V24.7038C8.66927 23.6417 9.92585 22.5546 11.2806 22.5546C13.6039 22.5546 14.5883 24.0657 14.627 24.1267C14.7105 24.2624 14.8388 24.3648 14.9896 24.416L20.4225 26.2599C21.2902 26.5856 21.7487 27.3286 21.538 28.0696C21.4407 28.4119 21.2159 28.6957 20.9052 28.8688C20.5971 29.0405 20.2409 29.0829 19.9015 28.989L13.7769 27.0482C13.4168 26.9341 13.0328 27.1334 12.9188 27.4933C12.8047 27.8532 13.004 28.2374 13.3639 28.3515L19.4991 30.2957C19.5056 30.2978 19.5121 30.2997 19.5187 30.3016C19.7636 30.3712 20.013 30.4057 20.2608 30.4057C20.7146 30.4057 21.1634 30.2901 21.5707 30.0631C22.2005 29.7123 22.6559 29.1371 22.853 28.4436C22.8687 28.3882 22.8827 28.3328 22.8948 28.2775L28.0274 26.8556C28.7687 26.6024 29.7418 26.5111 30.1751 27.509C30.6235 28.6804 29.458 29.3249 29.155 29.4694Z" fill="#FFD500"/>
<path d="M34.3156 2.31518H30.2511C29.8736 2.31518 29.5675 2.62122 29.5675 2.99877V3.58899H27.6615C27.2839 3.58899 26.9779 3.89503 26.9779 4.27258V4.46932C25.8668 4.37232 25.5013 4.16163 24.4809 3.5732C23.6961 3.12066 22.51 2.43672 20.374 1.47634C20.3641 1.47183 20.3541 1.46766 20.3439 1.46369C19.6487 1.19012 17.8264 0.651858 15.8801 1.5339L13.1294 2.51882L10.8107 0.200208C10.5437 -0.0667358 10.1109 -0.0667358 9.84394 0.200208L2.23158 7.8125C1.98535 8.0588 1.93811 8.48584 2.23158 8.77931L15.2395 21.7872C15.4476 21.9954 15.935 22.0584 16.2063 21.7872L23.156 14.8375C23.3367 14.8531 23.5242 14.8615 23.7186 14.8615C25.5045 14.8615 27.0843 13.6364 27.9881 12.301H34.3156C34.6931 12.301 34.9992 11.995 34.9992 11.6175V2.99877C34.9992 2.62122 34.6931 2.31518 34.3156 2.31518ZM10.3272 1.65032L11.8853 3.20836C11.4222 3.49479 10.8867 3.64805 10.3272 3.64805C9.76772 3.64805 9.23233 3.49486 8.7692 3.20836L10.3272 1.65032ZM5.2398 9.85399L3.68176 8.29587L5.2398 6.73783C5.52623 7.20096 5.67949 7.73642 5.67949 8.29587C5.67949 8.85533 5.5263 9.39078 5.2398 9.85399ZM15.7229 20.337L14.1651 18.7793C15.1162 18.1923 16.3295 18.1923 17.2806 18.7793L15.7229 20.337ZM18.2655 17.7945C16.7549 16.6987 14.6909 16.6987 13.1803 17.7945L6.22466 10.8388C6.75848 10.1046 7.04668 9.22269 7.04668 8.29587C7.04668 7.36899 6.75854 6.48715 6.22466 5.75297L7.78441 4.19328C8.51859 4.7271 9.40043 5.01531 10.3273 5.01531C11.2542 5.01531 12.136 4.7271 12.8702 4.19328L14.3488 5.67183C14.0297 5.71893 13.7186 5.82407 13.4285 5.98574C12.9385 6.25876 12.5541 6.66762 12.3147 7.16227C11.5436 7.30507 10.8297 7.67838 10.2697 8.23831C8.7504 9.75767 8.7504 12.2297 10.2698 13.7491C11.0294 14.5087 12.0272 14.8886 13.0251 14.8886C14.023 14.8886 15.0209 14.5088 15.7805 13.7491C16.2748 13.2549 16.621 12.6474 16.7945 11.9854L19.1025 12.7688C18.8427 13.9724 19.1088 15.2387 19.8267 16.2334L18.2655 17.7945ZM14.1094 11.0739C14.1154 11.076 14.1215 11.0782 14.1275 11.0803L15.4945 11.5442C15.3912 12.0101 15.1577 12.4385 14.8138 12.7824C13.8275 13.7685 12.2227 13.7687 11.2366 12.7824C10.2503 11.7961 10.2503 10.1914 11.2366 9.20512C11.4745 8.96709 11.7552 8.78109 12.0611 8.65496C12.1873 9.7051 12.9434 10.6411 14.1094 11.0739ZM20.8117 15.2483C20.5478 14.8183 20.3985 14.3276 20.3749 13.8267C20.7024 14.0634 21.1025 14.2954 21.5805 14.4795L20.8117 15.2483ZM26.9778 11.3449C26.3299 12.4071 25.0733 13.4942 23.7186 13.4942C23.4651 13.4942 23.2275 13.4761 23.0054 13.444C23.0046 13.4439 23.0037 13.4437 23.0028 13.4436C21.5265 13.2292 20.7324 12.3901 20.4706 12.0579C20.4567 12.0374 20.3973 11.9597 20.3884 11.9467C20.3088 11.8044 20.1782 11.69 20.0117 11.6335L14.5766 9.78877C13.7093 9.46325 13.2508 8.72052 13.4609 7.97978C13.461 7.9793 13.4612 7.97882 13.4613 7.97834C13.4615 7.9778 13.4617 7.97718 13.4618 7.97663C13.5595 7.63552 13.7838 7.35258 14.0939 7.17984C14.4019 7.00819 14.758 6.9656 15.0976 7.05973L21.2222 9.00052C21.5821 9.11475 21.9663 8.91528 22.0803 8.55537C22.1944 8.19545 21.9951 7.81127 21.6352 7.69718L16.7642 6.15363L16.7217 6.11111C16.7213 6.1107 16.7209 6.11022 16.7204 6.10981L14.1986 3.58803L16.3662 2.81188C16.3735 2.80921 16.3825 2.80586 16.3898 2.80292C16.3916 2.80217 16.3952 2.8008 16.3969 2.80005C16.4062 2.79629 16.4154 2.79233 16.4245 2.78816C17.8898 2.11468 19.2827 2.5178 19.8287 2.73012C21.892 3.65851 22.9933 4.2935 23.7979 4.75745C24.9165 5.40256 25.4555 5.71339 26.9778 5.83911V11.3449ZM29.5675 10.9337H28.3451V4.95618H29.5675V10.9337ZM33.632 10.9337H30.9347V3.68237H33.632V10.9337Z" fill="#FFD500"/>
</svg>
