<svg width="35" height="35" viewBox="0 0 35 35" fill="none" xmlns="http://www.w3.org/2000/svg">
<g clip-path="url(#clip0)">
<path d="M28.2588 10.5635L18.308 5.0502C17.8017 4.76972 17.197 4.76972 16.6907 5.0502C16.6907 5.05027 16.6907 5.05027 16.6907 5.05027L6.73984 10.5634C6.20937 10.8574 5.87988 11.4166 5.87988 12.023V22.9804C5.87988 23.5868 6.20937 24.1461 6.73984 24.44L16.6907 29.9533C16.9438 30.0937 17.2216 30.1637 17.4993 30.1637C17.777 30.1637 18.0548 30.0936 18.308 29.9533L28.2588 24.4401C28.7893 24.1461 29.1187 23.5869 29.1187 22.9805V12.0231C29.1188 11.4168 28.7893 10.8575 28.2588 10.5635ZM17.3532 6.24594C17.4447 6.19508 17.5541 6.19522 17.6455 6.24594L21.6189 8.44745L12.0356 13.7571L7.96908 11.4452L17.3532 6.24594ZM16.8159 28.4598L7.40245 23.2443C7.30647 23.1912 7.24686 23.0901 7.24686 22.9805V12.607L11.688 15.1318C11.6891 15.1324 11.6901 15.133 11.6912 15.1337L16.8159 18.0471V28.4598ZM13.4278 14.5486L23.0293 9.22886L27.1584 11.5165L17.5038 16.8657L13.4278 14.5486ZM27.7517 22.9804C27.7518 23.0901 27.6922 23.1912 27.5962 23.2444L18.1827 28.4599V18.0523L27.7517 12.7505V22.9804Z" fill="#FFD500"/>
<path d="M12.7034 17.3958L9.08158 15.4011C8.86994 15.2847 8.61236 15.2884 8.40414 15.4114C8.19599 15.5343 8.06836 15.7581 8.06836 15.9998V18.8893C8.06836 19.1384 8.20392 19.3678 8.42212 19.488L12.0439 21.4827C12.1467 21.5392 12.2602 21.5674 12.3736 21.5674C12.494 21.5674 12.6142 21.5357 12.7213 21.4724C12.9294 21.3494 13.0571 21.1257 13.0571 20.884V17.9945C13.0571 17.7453 12.9217 17.5159 12.7034 17.3958ZM11.6902 19.7272L9.43541 18.4855V17.1566L11.6902 18.3984V19.7272Z" fill="#FFD500"/>
<path d="M15.5532 24.6213L13.7424 23.624C13.4118 23.4419 12.996 23.5623 12.8139 23.893C12.6318 24.2236 12.7523 24.6392 13.0829 24.8214L14.8938 25.8188C14.9983 25.8764 15.1114 25.9037 15.2228 25.9037C15.4639 25.9037 15.6976 25.7759 15.8222 25.5498C16.0043 25.2191 15.8839 24.8034 15.5532 24.6213Z" fill="#FFD500"/>
<path d="M31.805 7.42003L33.0661 6.15894C33.2615 5.96344 33.32 5.66949 33.2143 5.4141C33.1085 5.15878 32.8593 4.99219 32.5828 4.99219H29.1881C28.8106 4.99219 28.5045 5.29823 28.5045 5.67571V9.07043C28.5045 9.34688 28.6711 9.59612 28.9265 9.70194C29.011 9.73694 29.0999 9.75396 29.1879 9.75396C29.3658 9.75396 29.5405 9.6845 29.6713 9.55373L30.8228 8.40222C35.1526 14.7327 34.3783 23.4341 28.9061 28.9062C24.1996 33.6126 17.2105 34.9495 11.1006 32.3118C10.754 32.1623 10.3517 32.3218 10.2022 32.6684C10.0525 33.015 10.2121 33.4172 10.5587 33.5668C12.7615 34.5177 15.1117 35.0002 17.4852 35.0002C18.5403 35.0002 19.6004 34.9048 20.6535 34.7128C24.1573 34.074 27.3452 32.4004 29.8727 29.8728C32.8646 26.8809 34.6703 22.9109 34.9572 18.6943C35.2307 14.6733 34.1129 10.6886 31.805 7.42003ZM29.8716 7.42017V6.3591H30.9327L29.8716 7.42017Z" fill="#FFD500"/>
<path d="M24.4027 1.41683C21.2244 0.0538143 17.7398 -0.335423 14.326 0.291021C10.8301 0.932641 7.64925 2.60491 5.12686 5.1273C2.13491 8.11925 0.329271 12.0892 0.0424357 16.3058C-0.230933 20.3267 0.886809 24.3114 3.19475 27.58L1.93366 28.8411C1.73822 29.0366 1.67978 29.3306 1.78546 29.586C1.89128 29.8413 2.14045 30.0079 2.41696 30.0079H5.81168C6.18909 30.0079 6.49521 29.7019 6.49521 29.3244V25.9296C6.49528 25.6532 6.32868 25.404 6.07336 25.2981C5.8179 25.1925 5.52389 25.2509 5.32845 25.4463L4.17687 26.5979C-0.153003 20.2674 0.62137 11.566 6.09346 6.0939C10.7878 1.39947 17.7631 0.0566168 23.8639 2.67314C24.2107 2.82195 24.6126 2.66124 24.7614 2.31439C24.9102 1.96753 24.7497 1.56565 24.4027 1.41683ZM5.12809 27.5799V28.641H4.06709L5.12809 27.5799Z" fill="#FFD500"/>
</g>
<defs>
<clipPath id="clip0">
<rect width="35" height="35" fill="white"/>
</clipPath>
</defs>
</svg>
