<svg width="35" height="35" viewBox="0 0 35 35" fill="none" xmlns="http://www.w3.org/2000/svg">
<path d="M17.5001 32.8123C14.8733 32.8215 12.2888 32.1507 9.99798 30.8652C7.7072 29.5797 5.78812 27.7231 4.42741 25.4762C4.37035 25.3828 4.34261 25.2745 4.34778 25.1652C4.35295 25.0559 4.3908 24.9506 4.45643 24.863C4.52206 24.7755 4.61245 24.7096 4.71591 24.674C4.81938 24.6383 4.93116 24.6345 5.03679 24.6631C7.78261 25.4055 10.688 25.3074 13.3774 24.3814C16.0669 23.4555 18.4169 21.7443 20.1238 19.469C21.8307 17.1936 22.816 14.4587 22.9525 11.6176C23.0889 8.77646 22.3702 5.95969 20.8892 3.53125C20.8322 3.43788 20.8044 3.32954 20.8096 3.22024C20.8148 3.11094 20.8526 3.0057 20.9182 2.91814C20.9839 2.83057 21.0742 2.76471 21.1777 2.72906C21.2811 2.69341 21.3929 2.68961 21.4986 2.71816C25.0819 3.6871 28.1913 5.92474 30.2483 9.01478C32.3052 12.1048 33.1696 15.8369 32.6807 19.5166C32.1918 23.1963 30.3829 26.5732 27.5904 29.0189C24.7979 31.4646 21.2121 32.8127 17.5001 32.8123ZM6.11556 26.0215C7.4391 27.7894 9.15622 29.2247 11.1308 30.2137C13.1054 31.2027 15.2833 31.7181 17.4917 31.7192C19.7001 31.7204 21.8785 31.2071 23.8541 30.2201C25.8297 29.2331 27.5483 27.7995 28.8736 26.0329C30.1989 24.2664 31.0945 22.2154 31.4895 20.0426C31.8845 17.8697 31.768 15.6348 31.1492 13.5148C30.5303 11.3949 29.4263 9.44815 27.9244 7.82901C26.4226 6.20986 24.5642 4.96277 22.4967 4.18657C23.742 6.72289 24.2613 9.55428 23.9971 12.3674C23.733 15.1806 22.6957 17.8658 21 20.126C19.3044 22.3862 17.0165 24.1332 14.3895 25.1737C11.7626 26.2142 8.89896 26.5076 6.11556 26.0215Z" fill="#FFD500"/>
<path d="M14.6276 9.54692C14.539 9.54694 14.4518 9.52539 14.3734 9.48414L12.5913 8.5474L10.8102 9.48414C10.7199 9.53167 10.618 9.55297 10.5162 9.54563C10.4144 9.53829 10.3167 9.50261 10.2341 9.44262C10.1516 9.38264 10.0874 9.30074 10.049 9.20619C10.0105 9.11164 9.9993 9.00822 10.0166 8.90763L10.3568 6.92362L8.91483 5.51853C8.84169 5.4473 8.78995 5.35702 8.76547 5.2579C8.74099 5.15878 8.74474 5.05479 8.7763 4.95769C8.80786 4.8606 8.86598 4.77428 8.94406 4.7085C9.02215 4.64272 9.11708 4.60012 9.21813 4.58551L11.2102 4.29605L12.101 2.49092C12.1513 2.40565 12.223 2.33497 12.309 2.28587C12.3949 2.23676 12.4922 2.21094 12.5913 2.21094C12.6903 2.21094 12.7876 2.23676 12.8735 2.28587C12.9595 2.33497 13.0312 2.40565 13.0815 2.49092L13.9729 4.29632L15.965 4.58578C16.066 4.60039 16.161 4.643 16.2391 4.70877C16.3171 4.77455 16.3752 4.86087 16.4068 4.95797C16.4384 5.05506 16.4421 5.15905 16.4176 5.25817C16.3932 5.35729 16.3414 5.44757 16.2683 5.51881L14.8263 6.92389L15.1665 8.9079C15.18 8.98638 15.1762 9.06686 15.1553 9.1437C15.1344 9.22055 15.097 9.29191 15.0457 9.35279C14.9944 9.41367 14.9304 9.46262 14.8582 9.49619C14.7859 9.52977 14.7073 9.54718 14.6277 9.5472L14.6276 9.54692ZM12.5913 7.38261C12.6799 7.38252 12.7671 7.40407 12.8455 7.44539L13.9013 8.00025L13.7 6.82507C13.6851 6.7377 13.6915 6.64799 13.7189 6.56367C13.7462 6.47934 13.7936 6.40292 13.8571 6.34098L14.7107 5.50864L13.531 5.33719C13.4433 5.32448 13.3599 5.29062 13.2882 5.23851C13.2164 5.1864 13.1584 5.11762 13.1192 5.0381L12.5913 3.9688L12.0638 5.03783C12.0247 5.11742 11.9667 5.18626 11.895 5.23842C11.8232 5.29058 11.7398 5.32448 11.6521 5.33719L10.4723 5.50864L11.3263 6.34098C11.3897 6.40292 11.4371 6.47934 11.4645 6.56367C11.4918 6.64799 11.4983 6.7377 11.4833 6.82507L11.2818 8.00025L12.3366 7.44539C12.4151 7.40415 12.5025 7.3826 12.5913 7.38261Z" fill="#FFD500"/>
<path d="M15.8781 17.7001C15.738 17.7001 15.6033 17.6464 15.5016 17.55C15.4 17.4536 15.3392 17.3219 15.3317 17.1821L15.2442 15.5102L13.8172 14.6352C13.7302 14.5819 13.6599 14.5052 13.6141 14.414C13.5684 14.3228 13.5491 14.2205 13.5584 14.1189C13.5678 14.0173 13.6054 13.9203 13.667 13.8389C13.7286 13.7575 13.8117 13.695 13.907 13.6584L15.4696 13.0581L15.8606 11.4308C15.8845 11.3316 15.9356 11.241 16.0083 11.1693C16.081 11.0977 16.1722 11.0477 16.2718 11.0252C16.3714 11.0027 16.4752 11.0085 16.5717 11.0419C16.6681 11.0753 16.7533 11.135 16.8176 11.2143L17.8713 12.5147L19.5402 12.3839C19.642 12.3753 19.7442 12.3956 19.8349 12.4427C19.9257 12.4897 20.0012 12.5614 20.0529 12.6496C20.1051 12.7372 20.1317 12.8378 20.1297 12.9398C20.1278 13.0418 20.0974 13.1412 20.042 13.2269L19.1302 14.6312L19.7701 16.1778C19.8091 16.2721 19.8209 16.3754 19.8042 16.476C19.7876 16.5767 19.7431 16.6707 19.6758 16.7474C19.6085 16.8241 19.5211 16.8804 19.4235 16.91C19.3259 16.9397 19.2219 16.9414 19.1233 16.915L17.5062 16.4824L16.233 17.5692C16.134 17.6536 16.0082 17.7 15.8781 17.7001ZM15.3333 14.2821L16.0607 14.7281C16.1363 14.7744 16.1996 14.8384 16.245 14.9146C16.2904 14.9908 16.3166 15.077 16.3213 15.1656L16.3662 16.0179L17.015 15.4638C17.0825 15.4063 17.163 15.366 17.2495 15.3464C17.336 15.3269 17.426 15.3287 17.5117 15.3517L18.3357 15.5723L18.0095 14.7837C17.9756 14.7018 17.9621 14.6129 17.9702 14.5246C17.9783 14.4363 18.0077 14.3513 18.0559 14.2769L18.5207 13.561L17.67 13.6277C17.5815 13.6351 17.4926 13.6206 17.411 13.5855C17.3294 13.5505 17.2577 13.4959 17.2022 13.4267L16.6655 12.7639L16.4662 13.5933C16.4455 13.6796 16.404 13.7595 16.3455 13.8262C16.287 13.8929 16.2131 13.9443 16.1303 13.9761L15.3333 14.2821Z" fill="#FFD500"/>
<path d="M7.31414 21.1559C7.22572 21.1559 7.13862 21.1344 7.0603 21.0934C6.98199 21.0523 6.9148 20.9929 6.8645 20.9201L5.36508 18.7537L2.73111 18.7606H2.72914C2.62727 18.7606 2.52744 18.732 2.4409 18.6783C2.35437 18.6245 2.28457 18.5477 2.23937 18.4564C2.19418 18.3651 2.17539 18.2629 2.18512 18.1615C2.19484 18.0601 2.2327 17.9635 2.29443 17.8824L3.89131 15.7867L3.07056 13.2834C3.03873 13.1864 3.03468 13.0824 3.05887 12.9832C3.08306 12.8841 3.13452 12.7937 3.20742 12.7222C3.28033 12.6508 3.37177 12.6012 3.47141 12.579C3.57105 12.5569 3.6749 12.563 3.77121 12.5968L6.2578 13.4681L8.38514 11.914C8.46755 11.8538 8.56517 11.8178 8.66697 11.8101C8.76877 11.8025 8.87068 11.8235 8.96116 11.8707C9.05164 11.918 9.12709 11.9897 9.17896 12.0776C9.23083 12.1655 9.25706 12.2662 9.25467 12.3683L9.19375 15.0022L11.3295 16.5454C11.4122 16.6051 11.4766 16.6868 11.5153 16.7813C11.554 16.8757 11.5655 16.9791 11.5484 17.0798C11.5314 17.1804 11.4866 17.2743 11.419 17.3507C11.3515 17.4272 11.2638 17.4833 11.1661 17.5126L8.64261 18.2688L7.83488 20.7769C7.80359 20.874 7.74574 20.9605 7.66787 21.0264C7.59 21.0924 7.49522 21.1353 7.39426 21.1502C7.36773 21.1541 7.34095 21.156 7.31414 21.1559ZM5.65109 17.6592C5.73953 17.6592 5.82664 17.6806 5.90496 17.7217C5.98328 17.7628 6.05048 17.8222 6.10079 17.8949L7.13313 19.3866L7.6893 17.6597C7.7166 17.5753 7.76395 17.4988 7.82729 17.4368C7.89063 17.3748 7.96807 17.329 8.05297 17.3035L9.79077 16.7828L8.32001 15.7203C8.24823 15.6683 8.19012 15.5996 8.15068 15.5202C8.11124 15.4409 8.09164 15.3531 8.09355 15.2645L8.13522 13.451L6.67085 14.521C6.59929 14.5735 6.51602 14.6076 6.42826 14.6206C6.34051 14.6336 6.25091 14.625 6.16724 14.5955L4.45535 13.9956L5.02055 15.7192C5.04822 15.8034 5.05494 15.8931 5.04014 15.9806C5.02534 16.068 4.98947 16.1505 4.93562 16.2209L3.83585 17.664L5.64951 17.6592H5.65109Z" fill="#FFD500"/>
</svg>
