<svg width="35" height="35" viewBox="0 0 35 35" fill="none" xmlns="http://www.w3.org/2000/svg">
<g clip-path="url(#clip0)">
<path d="M36.252 19.1248C35.9398 18.3192 35.4938 17.5963 34.9249 16.9748C34.3566 16.3525 33.6954 15.8649 32.9589 15.5234C32.1963 15.1703 31.3871 14.9908 30.5527 14.9908H30.5512C29.8061 14.9908 29.0759 15.1356 28.3817 15.4219C27.8322 15.6478 27.3189 15.9581 26.8496 16.3434L4.97694 2.53095C4.60253 2.29448 4.16632 2.23162 3.74875 2.35411C3.33118 2.47651 2.98215 2.76931 2.76599 3.1787L1.9566 4.71153C1.74044 5.12099 1.68296 5.59803 1.79482 6.05461C1.90668 6.51136 2.17449 6.89297 2.54883 7.12944C2.54883 7.12944 29.0583 23.8691 29.3205 24.0353C29.5827 24.2014 29.9116 24.0962 30.057 23.8198C30.206 23.5379 30.1183 23.1771 29.8607 23.0142L26.5194 20.9043C27.7948 20.5306 29.537 20.0201 30.2039 19.8243L31.2088 20.4591C31.6239 20.721 31.8829 21.2112 31.8836 21.7382C31.8822 22.2354 31.6557 22.6753 31.3175 22.9371C31.0708 23.1307 31.0199 23.4973 31.1909 23.7599C31.3606 24.0225 31.6968 24.0899 31.9418 23.9L31.9433 23.8992C32.5902 23.3959 32.9626 22.5828 32.9626 21.7381C32.9626 20.796 32.5074 19.9174 31.7483 19.4371L27.8865 16.9982C28.6855 16.4616 29.6083 16.1715 30.5528 16.1708C31.9138 16.1708 33.1956 16.753 34.1624 17.8087C35.1278 18.8659 35.6601 20.2678 35.6601 21.7562V36.113H25.4455V21.5192C25.4455 21.1935 25.203 20.9043 24.906 20.9043C24.6081 20.9043 24.3665 20.5811 24.3665 20.9069V36.703C24.3665 36.8587 24.424 37.0106 24.5247 37.1199C24.6247 37.23 24.7635 37.293 24.906 37.293H36.1995C36.3412 37.293 36.4808 37.23 36.5808 37.1199C36.6815 37.0106 36.739 36.8579 36.739 36.703V21.7562C36.739 20.8437 36.575 19.9586 36.252 19.1248ZM3.08847 6.10756C2.96367 6.02873 2.8744 5.90153 2.83706 5.74931C2.7998 5.59701 2.81894 5.4381 2.89101 5.30169L3.70034 3.76886C3.77242 3.63237 3.88873 3.53467 4.02792 3.49392C4.16726 3.45301 4.31249 3.47417 4.4373 3.55292L7.85708 5.71257L4.17229 6.79204L3.08847 6.10756ZM5.49371 7.62646L9.17857 6.54699L12.0622 8.3679L8.37724 9.44745L5.49371 7.62646ZM9.6988 10.282L13.3837 9.20248L16.2674 11.0235L12.5825 12.103L9.6988 10.282ZM13.9039 12.9374L17.5888 11.858L20.4725 13.6789L16.7876 14.7584L13.9039 12.9374ZM18.109 15.5929L21.7938 14.5134L24.6775 16.3345L20.9926 17.4139L18.109 15.5929ZM28.8826 18.9899L25.1977 20.0695L22.314 18.2485L25.999 17.169L26.6169 17.5591C26.6198 17.561 26.6227 17.5628 26.6255 17.5646L28.8826 18.9899Z" fill="#FFD500"/>
<path d="M4.40891 18.6914H2.56348C1.14994 18.6914 0 19.8413 0 21.2549V32.1924C0 32.4756 0.229551 32.7051 0.512695 32.7051H6.45969C6.74283 32.7051 6.97238 32.4756 6.97238 32.1924V21.2549C6.97238 19.8413 5.82237 18.6914 4.40891 18.6914ZM5.94699 31.6797H1.02539V21.2549C1.02539 20.4068 1.71534 19.7168 2.56348 19.7168H4.40891C5.25704 19.7168 5.94699 20.4068 5.94699 21.2549V31.6797Z" fill="#FFD500"/>
<path d="M4.40891 20.8086H2.56348C2.28033 20.8086 2.05078 21.0381 2.05078 21.3213V23.1667C2.05078 23.4499 2.28033 23.6793 2.56348 23.6793C2.84662 23.6793 3.07617 23.4499 3.07617 23.1667V21.834H3.89621V23.1667C3.89621 23.4499 4.12576 23.6793 4.40891 23.6793C4.69205 23.6793 4.9216 23.4499 4.9216 23.1667V21.3213C4.9216 21.0381 4.69205 20.8086 4.40891 20.8086Z" fill="#FFD500"/>
<path d="M29.1211 22.1914C27.896 22.1914 26.8994 23.188 26.8994 24.4131C26.8994 25.6382 27.896 26.6348 29.1211 26.6348C30.3462 26.6348 31.3428 25.6382 31.3428 24.4131C31.3428 23.188 30.3462 22.1914 29.1211 22.1914ZM29.1211 25.6094C28.4615 25.6094 27.9248 25.0728 27.9248 24.4131C27.9248 23.7535 28.4615 23.2168 29.1211 23.2168C29.7807 23.2168 30.3174 23.7535 30.3174 24.4131C30.3174 25.0727 29.7807 25.6094 29.1211 25.6094Z" fill="#FFD500"/>
</g>
<defs>
<clipPath id="clip0">
<rect width="35" height="35" fill="white"/>
</clipPath>
</defs>
</svg>
