<svg width="35" height="35" viewBox="0 0 35 35" fill="none" xmlns="http://www.w3.org/2000/svg">
<g clip-path="url(#clip0)">
<path d="M33.8333 24.793H33.1427C33.2118 24.6061 33.2481 24.4088 33.25 24.2097V3.79297C33.25 2.8265 32.4665 2.04297 31.5 2.04297H3.5C2.53354 2.04297 1.75 2.8265 1.75 3.79297V24.2097C1.75191 24.4089 1.78821 24.6061 1.85732 24.793H1.16669C0.522334 24.793 0 25.3153 0 25.9596V31.7929C0 32.4373 0.522334 32.9596 1.16669 32.9596H4.66669C5.31104 32.9596 5.83338 32.4373 5.83338 31.7929V28.2929H14.5834V31.7929C14.5834 32.4373 15.1057 32.9596 15.7501 32.9596H19.2501C19.8944 32.9596 20.4168 32.4373 20.4168 31.7929V28.2929H29.1668V31.7929C29.1668 32.4373 29.6891 32.9596 30.3334 32.9596H33.8334C34.4778 32.9596 35.0001 32.4373 35.0001 31.7929V25.9596C35 25.3153 34.4777 24.793 33.8333 24.793ZM2.91669 24.2096V3.79297C2.91669 3.47079 3.17789 3.20966 3.5 3.20966H31.5C31.8222 3.20966 32.0833 3.47086 32.0833 3.79297V24.2097C32.0833 24.5318 31.8222 24.793 31.5 24.793H3.5C3.17782 24.793 2.91669 24.5318 2.91669 24.2096ZM1.16669 25.9596H33.8334V27.1263H1.16669V25.9596ZM4.66669 31.793H1.16669V28.293H4.66669V31.793ZM19.25 31.793H15.75V28.293H19.25V31.793ZM33.8333 31.793H30.3333V28.293H33.8333V31.793Z" fill="#FFD500"/>
<path d="M29.1657 5.54297H5.83233C5.51016 5.54297 5.24902 5.80417 5.24902 6.12628V21.8763C5.24902 22.1984 5.51022 22.4596 5.83233 22.4596H29.1656C29.4878 22.4596 29.749 22.1984 29.749 21.8763V6.12628C29.749 5.8041 29.4879 5.54297 29.1657 5.54297ZM28.5823 18.668L21.6734 14.0013L28.5824 9.33459V18.668H28.5823ZM28.5823 7.92878L20.6304 13.2978L18.5432 11.8884L26.2117 6.70959H28.5823V7.92878ZM10.8718 6.70959H24.1269L17.499 11.1849L10.8718 6.70959ZM6.41571 9.33459L13.3247 14.0013L6.41571 18.668V9.33459ZM6.41571 20.0738L14.3677 14.7036L16.4548 16.113L8.78635 21.293H6.41571V20.0738ZM24.1263 21.293H10.8712L17.499 16.8176L24.1263 21.293ZM26.2117 21.293L17.8216 15.6288L17.8129 15.6223L6.41571 7.92761V6.70959H8.78635L28.5823 20.0749V21.293H26.2117Z" fill="#FFD500"/>
</g>
<defs>
<clipPath id="clip0">
<rect width="35" height="35" fill="white"/>
</clipPath>
</defs>
</svg>
