<svg width="35" height="35" viewBox="0 0 35 35" fill="none" xmlns="http://www.w3.org/2000/svg">
<g clip-path="url(#clip0)">
<path d="M30.3553 15.7163C29.8411 7.49232 25.4065 5.71387 23.9034 5.34702C23.9261 4.68674 24.2702 3.20705 26.5973 1.65608C26.7597 1.54794 26.8571 1.36585 26.8571 1.17095C26.8571 0.975774 26.7597 0.793684 26.5973 0.685551C25.155 -0.140265 23.3865 -0.154149 21.9313 0.648972C20.9363 1.14745 20.7269 1.02383 20.2231 0.725867C19.4184 0.214571 18.4762 -0.0372048 17.5238 0.00444641C16.5719 -0.0366708 15.6308 0.215105 14.8266 0.725867C14.3233 1.02383 14.114 1.14638 13.1184 0.648972C11.663 -0.153615 9.89467 -0.139731 8.45237 0.685551C8.29003 0.793684 8.19258 0.975774 8.19258 1.17095C8.19258 1.36585 8.29003 1.54794 8.45237 1.65608C10.7854 3.20999 11.1247 4.69208 11.1474 5.34648C9.64396 5.7128 5.20757 7.48751 4.69201 15.7163C4.44344 19.6916 4.50538 25.2232 6.20854 28.9835C6.19973 29.01 6.19252 29.0372 6.18745 29.0647L5.43799 33.264C5.32639 33.656 5.43052 34.0778 5.7122 34.3723C5.99414 34.6719 6.41653 34.7947 6.81515 34.6932L10.685 33.9085C11.3493 34.3776 12.7801 35 17.5238 35C22.2672 35 23.698 34.3776 24.4061 33.9093L28.1892 34.6831C28.5905 34.7971 29.0219 34.685 29.3167 34.3897C29.6115 34.0946 29.7233 33.6629 29.6088 33.2619L28.8593 29.0623C28.8532 29.0404 28.8454 29.0191 28.8361 28.9982C30.5409 25.2216 30.6028 19.6905 30.3553 15.7163ZM9.96222 1.3226C10.8567 1.13117 11.7901 1.26226 12.5969 1.69292C14.0521 2.42022 14.66 2.17992 15.4204 1.7303C16.0454 1.32741 16.7813 1.1317 17.5238 1.17095C18.266 1.1317 19.0019 1.32741 19.6269 1.7303C20.3886 2.17992 20.9947 2.42022 22.4504 1.69292C23.2572 1.26173 24.1907 1.13036 25.0851 1.3226C22.9638 3.05887 22.7182 4.74494 22.7393 5.52777C21.3992 6.35759 19.8891 6.87369 18.3216 7.03789L19.2438 4.27156C19.3455 3.96532 19.18 3.63478 18.874 3.53305C18.568 3.43133 18.2372 3.59686 18.1355 3.90284L17.5238 5.74244L16.9108 3.90284C16.8088 3.59686 16.4782 3.43133 16.1723 3.53305C15.8663 3.63478 15.7007 3.96532 15.8025 4.27156L16.7281 7.04777C15.9982 6.9901 15.2776 6.8486 14.5799 6.62619C14.5882 6.57306 14.5946 6.53755 14.5946 6.53461C14.6384 6.31621 14.5537 6.09193 14.377 5.95683C14.2 5.82147 13.9615 5.79877 13.7624 5.89809C13.6257 5.97232 13.4951 6.05669 13.3715 6.15067C13.003 5.97792 12.6471 5.77955 12.3064 5.55687C12.3326 4.78713 12.1115 3.0821 9.96222 1.3226ZM27.7732 28.5198C27.6608 28.7659 27.6402 29.0439 27.715 29.3037L28.4639 33.551L24.6809 32.7765C24.3402 32.683 23.9757 32.749 23.6892 32.9556C22.6616 33.6811 19.7692 33.8335 17.5238 33.8335C15.2781 33.8335 12.3857 33.6811 11.3591 32.9586C11.1586 32.8147 10.9186 32.7356 10.6716 32.7322C10.5822 32.7319 10.4933 32.7442 10.4073 32.769L6.55777 33.5855C6.56658 33.5588 6.57352 33.5315 6.57886 33.5038L7.32832 29.3045C7.40388 29.045 7.38439 28.7673 7.27358 28.5211C5.66601 24.9631 5.61528 19.6323 5.85557 15.7892C6.34497 7.95876 10.5702 6.64942 11.5506 6.45051C11.8627 6.65502 12.1863 6.84165 12.52 7.00933C11.6689 8.22148 11.3701 9.73721 11.6974 11.1819C11.7444 11.4639 11.9887 11.6703 12.2744 11.6695C12.3067 11.6697 12.3393 11.6671 12.3711 11.6614C12.6885 11.608 12.9026 11.3079 12.85 10.9905C12.6087 9.91957 12.7884 8.79686 13.3523 7.8549C13.3531 9.20563 13.8622 10.5064 14.7788 11.4986C15.0076 11.7197 15.3715 11.7164 15.5966 11.4916C15.8214 11.2666 15.8246 10.9026 15.6036 10.6738C14.8958 9.88273 14.5099 8.85533 14.5217 7.79376C15.4936 8.07544 16.5001 8.21935 17.512 8.22122C19.625 8.19932 21.6894 7.5847 23.47 6.44703C24.3829 6.63553 28.7002 7.94194 29.1907 15.7892C29.4304 19.6315 29.3797 24.9597 27.7732 28.5198Z" fill="#FFD500"/>
<path d="M9.92084 16.4867C9.97584 16.2856 9.91897 16.0705 9.77239 15.9225C9.62554 15.7746 9.41114 15.7161 9.20956 15.7693C9.00798 15.8221 8.84992 15.9789 8.79518 16.1799C8.72176 16.4507 7.0146 22.8657 9.41942 27.6759C9.56333 27.9643 9.91363 28.0812 10.202 27.9373C10.4903 27.7934 10.6073 27.4428 10.4634 27.1545C8.25986 22.7491 9.90402 16.5486 9.92084 16.4867Z" fill="#FFD500"/>
<path d="M25.4889 15.7707C25.1784 15.8559 24.9958 16.1765 25.0807 16.4871C25.0975 16.549 26.7465 22.739 24.5381 27.1549C24.4431 27.3415 24.4554 27.565 24.5704 27.7398C24.6853 27.915 24.8855 28.0148 25.0946 28.0018C25.3034 27.9887 25.4894 27.8645 25.5816 27.6763C27.9869 22.8661 26.2816 16.451 26.2063 16.1803C26.1657 16.0308 26.0672 15.9034 25.9327 15.8268C25.7978 15.7499 25.6384 15.7299 25.4889 15.7707Z" fill="#FFD500"/>
</g>
<defs>
<clipPath id="clip0">
<rect width="35" height="35" fill="white"/>
</clipPath>
</defs>
</svg>
