<svg width="35" height="35" viewBox="0 0 35 35" fill="none" xmlns="http://www.w3.org/2000/svg">
<path fill-rule="evenodd" clip-rule="evenodd" d="M34.9401 8.96245C34.9418 8.97235 34.9436 8.9822 34.9439 8.99236C34.944 8.99584 34.9447 8.99922 34.9454 9.00259C34.9462 9.00626 34.9469 9.00994 34.947 9.01377V20.7394V25.9862C34.9436 26.0134 34.9381 26.0404 34.9306 26.0669C34.9269 26.1089 34.9185 26.1503 34.9057 26.1905C34.8719 26.2562 34.8331 26.319 34.7893 26.3785C34.7599 26.4071 34.7275 26.4324 34.6926 26.454C34.6716 26.4732 34.6492 26.4907 34.6255 26.5064L17.761 34.9386C17.7583 34.9399 17.7555 34.9403 17.7527 34.9406C17.7499 34.9409 17.7472 34.9412 17.7447 34.9424C17.5911 35.0191 17.4105 35.0191 17.257 34.9424C17.2545 34.9412 17.2518 34.9409 17.249 34.9406C17.2462 34.9403 17.2434 34.9399 17.2408 34.9386L0.376237 26.5064C0.352541 26.4907 0.330093 26.4732 0.3091 26.454C0.27425 26.4324 0.241825 26.4071 0.212379 26.3785C0.188337 26.3496 0.167275 26.3184 0.149469 26.2853C0.128614 26.2555 0.110669 26.2238 0.095981 26.1906C0.0831634 26.1504 0.07478 26.1089 0.0710386 26.0669C0.0635559 26.0406 0.0580824 26.0135 0.0546875 25.9862V20.8778V9.01383C0.0546875 9.00998 0.0554516 9.0063 0.0562175 9.0026C0.0569102 8.99926 0.0576044 8.99591 0.057736 8.99243C0.058079 8.98226 0.0598284 8.97242 0.0615883 8.96252C0.0626722 8.95642 0.0637601 8.9503 0.0645259 8.94407C0.0695837 8.89903 0.0799763 8.85483 0.0954268 8.81229C0.0969049 8.80838 0.098312 8.8045 0.0997095 8.80065C0.10329 8.79079 0.106808 8.7811 0.111293 8.77148C0.112568 8.76869 0.113063 8.76578 0.113558 8.76287C0.114084 8.75977 0.114609 8.75667 0.116074 8.75374C0.117673 8.75058 0.119984 8.74814 0.122295 8.74571C0.124488 8.7434 0.126682 8.74109 0.128268 8.73815C0.150716 8.69769 0.177875 8.66014 0.209261 8.62619C0.213012 8.62208 0.216314 8.61771 0.219605 8.61336C0.223852 8.60775 0.228081 8.60216 0.233234 8.59716C0.234855 8.59561 0.236456 8.59406 0.23805 8.59251C0.242926 8.58779 0.247741 8.58313 0.25291 8.57859C0.258203 8.57396 0.263969 8.57035 0.269753 8.56674C0.274342 8.56387 0.278943 8.561 0.283326 8.5576C0.312079 8.53328 0.343257 8.5118 0.376237 8.49358L5.52285 5.92027L6.6593 6.65248L1.93673 9.0137L17.5009 16.7958L22.2234 14.4345L22.9422 15.3756L18.0824 17.8055V28.0568L33.7838 20.206L33.7837 9.95486L28.9239 12.3848L28.3426 11.375L33.065 9.01377L17.5009 1.23181L12.7785 3.59295L11.478 2.94268L17.2408 0.0613167C17.4045 -0.0204389 17.5972 -0.0204389 17.761 0.0613167L34.6255 8.49351C34.6584 8.51173 34.6894 8.53314 34.7182 8.55739C34.7225 8.56076 34.7271 8.56362 34.7317 8.56648C34.7376 8.57015 34.7435 8.57381 34.7489 8.57852C34.7526 8.58185 34.7562 8.58522 34.7598 8.58863C34.7627 8.5914 34.7656 8.59419 34.7685 8.59702C34.7736 8.60202 34.7779 8.60761 34.7821 8.61322C34.7854 8.61757 34.7887 8.62194 34.7924 8.62605C34.8238 8.66 34.8511 8.69755 34.8734 8.73801C34.875 8.74095 34.8772 8.74326 34.8794 8.74557C34.8817 8.748 34.884 8.75044 34.8856 8.7536C34.8871 8.75656 34.8876 8.75965 34.8882 8.76274C34.8886 8.76564 34.8891 8.76855 34.8904 8.77134C34.8948 8.78086 34.8983 8.79042 34.9018 8.80014C34.9032 8.80414 34.9047 8.80816 34.9062 8.81222C34.9217 8.85476 34.9321 8.89903 34.9371 8.944C34.9379 8.95023 34.939 8.95635 34.9401 8.96245ZM1.2179 25.6267L3.06641 26.551V22.4308L1.2179 21.5066V25.6267ZM4.22949 27.1325L13.9077 31.9716L13.9078 30.1257L4.22949 25.2866V27.1325ZM4.22949 23.9861L13.9077 28.8252L13.9078 27.8515L4.22949 23.0124V23.9861ZM15.0708 32.5532L16.9194 33.4775V29.3573L15.0708 28.433V32.5532ZM1.2179 20.206L16.9194 28.0568V17.8055L1.2179 9.95479V20.206ZM18.0824 33.4775L19.9309 32.5532V28.4331L18.0824 29.3573V33.4775ZM21.0939 31.9716L30.7722 27.1325V25.2866L21.0939 30.1257V31.9716ZM21.0939 28.8252L30.7722 23.9861V23.0124L21.0939 27.8515V28.8252ZM31.9353 26.551L33.7838 25.6267V21.5066L31.9353 22.4308V26.551Z" fill="#C4C4C4"/>
<path fill-rule="evenodd" clip-rule="evenodd" d="M34.9401 8.96245C34.9418 8.97235 34.9436 8.9822 34.9439 8.99236C34.944 8.99584 34.9447 8.99922 34.9454 9.00259C34.9462 9.00626 34.9469 9.00994 34.947 9.01377V20.7394V25.9862C34.9436 26.0134 34.9381 26.0404 34.9306 26.0669C34.9269 26.1089 34.9185 26.1503 34.9057 26.1905C34.8719 26.2562 34.8331 26.319 34.7893 26.3785C34.7599 26.4071 34.7275 26.4324 34.6926 26.454C34.6716 26.4732 34.6492 26.4907 34.6255 26.5064L17.761 34.9386C17.7583 34.9399 17.7555 34.9403 17.7527 34.9406C17.7499 34.9409 17.7472 34.9412 17.7447 34.9424C17.5911 35.0191 17.4105 35.0191 17.257 34.9424C17.2545 34.9412 17.2518 34.9409 17.249 34.9406C17.2462 34.9403 17.2434 34.9399 17.2408 34.9386L0.376237 26.5064C0.352541 26.4907 0.330093 26.4732 0.3091 26.454C0.27425 26.4324 0.241825 26.4071 0.212379 26.3785C0.188337 26.3496 0.167275 26.3184 0.149469 26.2853C0.128614 26.2555 0.110669 26.2238 0.095981 26.1906C0.0831634 26.1504 0.07478 26.1089 0.0710386 26.0669C0.0635559 26.0406 0.0580824 26.0135 0.0546875 25.9862V20.8778V9.01383C0.0546875 9.00998 0.0554516 9.0063 0.0562175 9.0026C0.0569102 8.99926 0.0576044 8.99591 0.057736 8.99243C0.058079 8.98226 0.0598284 8.97242 0.0615883 8.96252C0.0626722 8.95642 0.0637601 8.9503 0.0645259 8.94407C0.0695837 8.89903 0.0799763 8.85483 0.0954268 8.81229C0.0969049 8.80838 0.098312 8.8045 0.0997095 8.80065C0.10329 8.79079 0.106808 8.7811 0.111293 8.77148C0.112568 8.76869 0.113063 8.76578 0.113558 8.76287C0.114084 8.75977 0.114609 8.75667 0.116074 8.75374C0.117673 8.75058 0.119984 8.74814 0.122295 8.74571C0.124488 8.7434 0.126682 8.74109 0.128268 8.73815C0.150716 8.69769 0.177875 8.66014 0.209261 8.62619C0.213012 8.62208 0.216314 8.61771 0.219605 8.61336C0.223852 8.60775 0.228081 8.60216 0.233234 8.59716C0.234855 8.59561 0.236456 8.59406 0.23805 8.59251C0.242926 8.58779 0.247741 8.58313 0.25291 8.57859C0.258203 8.57396 0.263969 8.57035 0.269753 8.56674C0.274342 8.56387 0.278943 8.561 0.283326 8.5576C0.312079 8.53328 0.343257 8.5118 0.376237 8.49358L5.52285 5.92027L6.6593 6.65248L1.93673 9.0137L17.5009 16.7958L22.2234 14.4345L22.9422 15.3756L18.0824 17.8055V28.0568L33.7838 20.206L33.7837 9.95486L28.9239 12.3848L28.3426 11.375L33.065 9.01377L17.5009 1.23181L12.7785 3.59295L11.478 2.94268L17.2408 0.0613167C17.4045 -0.0204389 17.5972 -0.0204389 17.761 0.0613167L34.6255 8.49351C34.6584 8.51173 34.6894 8.53314 34.7182 8.55739C34.7225 8.56076 34.7271 8.56362 34.7317 8.56648C34.7376 8.57015 34.7435 8.57381 34.7489 8.57852C34.7526 8.58185 34.7562 8.58522 34.7598 8.58863C34.7627 8.5914 34.7656 8.59419 34.7685 8.59702C34.7736 8.60202 34.7779 8.60761 34.7821 8.61322C34.7854 8.61757 34.7887 8.62194 34.7924 8.62605C34.8238 8.66 34.8511 8.69755 34.8734 8.73801C34.875 8.74095 34.8772 8.74326 34.8794 8.74557C34.8817 8.748 34.884 8.75044 34.8856 8.7536C34.8871 8.75656 34.8876 8.75965 34.8882 8.76274C34.8886 8.76564 34.8891 8.76855 34.8904 8.77134C34.8948 8.78086 34.8983 8.79042 34.9018 8.80014C34.9032 8.80414 34.9047 8.80816 34.9062 8.81222C34.9217 8.85476 34.9321 8.89903 34.9371 8.944C34.9379 8.95023 34.939 8.95635 34.9401 8.96245ZM1.2179 25.6267L3.06641 26.551V22.4308L1.2179 21.5066V25.6267ZM4.22949 27.1325L13.9077 31.9716L13.9078 30.1257L4.22949 25.2866V27.1325ZM4.22949 23.9861L13.9077 28.8252L13.9078 27.8515L4.22949 23.0124V23.9861ZM15.0708 32.5532L16.9194 33.4775V29.3573L15.0708 28.433V32.5532ZM1.2179 20.206L16.9194 28.0568V17.8055L1.2179 9.95479V20.206ZM18.0824 33.4775L19.9309 32.5532V28.4331L18.0824 29.3573V33.4775ZM21.0939 31.9716L30.7722 27.1325V25.2866L21.0939 30.1257V31.9716ZM21.0939 28.8252L30.7722 23.9861V23.0124L21.0939 27.8515V28.8252ZM31.9353 26.551L33.7838 25.6267V21.5066L31.9353 22.4308V26.551Z" fill="#FFD500"/>
<path fill-rule="evenodd" clip-rule="evenodd" d="M28.3426 11.375L12.7785 3.59295L11.478 2.94268L5.52285 5.92027L6.6593 6.65248L22.2234 14.4345L22.9422 15.3756V16.8438C22.9422 17.0454 23.0466 17.2325 23.218 17.3385C23.3894 17.4444 23.6035 17.4541 23.7838 17.3641L28.6024 14.9547C28.7995 14.8562 28.9239 14.6548 28.9239 14.4345V12.3848L28.3426 11.375ZM27.0422 12.0251L11.478 4.24312L10.3691 4.7976L25.9332 12.5796L27.0422 12.0251ZM27.7609 14.0749V12.9662L24.1053 14.794V15.9027L27.7609 14.0749ZM24.6326 13.2299L9.06853 5.4479L7.95983 6.00225L23.5239 13.7843L24.6326 13.2299Z" fill="#C4C4C4"/>
<path fill-rule="evenodd" clip-rule="evenodd" d="M28.3426 11.375L12.7785 3.59295L11.478 2.94268L5.52285 5.92027L6.6593 6.65248L22.2234 14.4345L22.9422 15.3756V16.8438C22.9422 17.0454 23.0466 17.2325 23.218 17.3385C23.3894 17.4444 23.6035 17.4541 23.7838 17.3641L28.6024 14.9547C28.7995 14.8562 28.9239 14.6548 28.9239 14.4345V12.3848L28.3426 11.375ZM27.0422 12.0251L11.478 4.24312L10.3691 4.7976L25.9332 12.5796L27.0422 12.0251ZM27.7609 14.0749V12.9662L24.1053 14.794V15.9027L27.7609 14.0749ZM24.6326 13.2299L9.06853 5.4479L7.95983 6.00225L23.5239 13.7843L24.6326 13.2299Z" fill="#FFD500"/>
<path d="M28.4157 16.1562L23.0586 18.8347C22.2473 19.237 21.7352 20.0656 21.7383 20.9712V21.2892C21.7373 21.6999 21.9496 22.0817 22.299 22.2976C22.6484 22.5135 23.0848 22.5326 23.4517 22.348L28.8088 19.6695C29.6202 19.2672 30.1323 18.4386 30.1291 17.533V17.215C30.1291 16.8047 29.9166 16.4237 29.5676 16.208C29.2185 15.9924 28.7827 15.9727 28.4157 16.1562ZM28.966 17.5332C28.9676 17.9978 28.7048 18.4229 28.2885 18.6292L22.9014 21.2893V20.9713C22.8998 20.5066 23.1626 20.0816 23.5788 19.8752L28.966 17.2151V17.5332Z" fill="#FFD500"/>
</svg>
