<svg width="35" height="35" viewBox="0 0 35 35" fill="none" xmlns="http://www.w3.org/2000/svg">
<g clip-path="url(#clip0)">
<path d="M3.0184 35H4.65137C4.95379 35 5.19824 34.7555 5.19824 34.4531V33.3479H29.8032V34.4531C29.8032 34.7555 30.0477 35 30.3501 35H31.9907C32.2932 35 32.5376 34.7555 32.5376 34.4531V1.36719C32.5376 0.613594 31.9246 0 31.1704 0C30.4163 0 29.8032 0.613594 29.8032 1.36719V9.84594H28.1637V2.19187C28.1637 1.89 27.9193 1.645 27.6168 1.645H18.869C18.5666 1.645 18.3221 1.89 18.3221 2.19187V9.84539H16.6804V2.19187C16.6804 1.89 16.436 1.645 16.1336 1.645H7.38574C7.08332 1.645 6.83887 1.89 6.83887 2.19187V9.84539H5.19824V1.36719C5.19824 0.613594 4.5852 0 3.83105 0C3.07691 0 2.46387 0.613594 2.46387 1.36719L2.47152 34.4531C2.47152 34.7555 2.71598 35 3.0184 35ZM30.897 1.36719C30.897 1.21625 31.02 1.09375 31.1704 1.09375C31.3208 1.09375 31.4439 1.21625 31.4439 1.36719V33.9062H30.897V1.36719ZM22.695 2.73875H23.7898V3.29H22.695V2.73875ZM19.4159 2.73875H21.6012V3.83687C21.6012 4.13875 21.8457 4.38375 22.1481 4.38375H24.3367C24.6391 4.38375 24.8836 4.13875 24.8836 3.83687V2.73875H27.07V9.84539H19.4159V2.73875ZM11.2117 2.73875H12.3054V3.29H11.2117V2.73875ZM7.93262 2.73875H10.1179V3.83687C10.1179 4.13875 10.3624 4.38375 10.6648 4.38375H12.8523C13.1547 4.38375 13.3992 4.13875 13.3992 3.83687V2.73875H15.5867V9.84539H7.93262V2.73875ZM5.19824 10.9391H7.38574H16.1336H18.869H27.6168H29.8032V11.486H5.19824V10.9391ZM5.19824 12.5798H29.8032V20.2202H28.1648V14.21C28.1648 13.9081 27.9204 13.6631 27.6179 13.6631H7.38355C7.08113 13.6631 6.83668 13.9081 6.83668 14.21V20.2207H5.19824V12.5798ZM16.1336 16.3975H18.8679C19.1704 16.3975 19.4148 16.1525 19.4148 15.8506V14.7569H27.0711V20.2207H7.93043V14.7569H15.5867V15.8506C15.5867 16.1525 15.8311 16.3975 16.1336 16.3975ZM16.6804 15.3038V14.7569H18.3211V15.3038H16.6804ZM5.19824 21.3145H7.38355H27.6179H29.8032V21.8624H5.19824V21.3145ZM5.19824 22.9562H29.8032V30.6124H28.1659V24.0554C28.1659 23.753 27.9214 23.5085 27.619 23.5085H19.9617C19.6593 23.5085 19.4148 23.753 19.4148 24.0554V30.6124H17.7775V25.6971C17.7775 25.3947 17.533 25.1502 17.2306 25.1502H13.4057C13.4036 25.1502 13.4025 25.1491 13.4003 25.1491C13.3981 25.1491 13.397 25.1502 13.3948 25.1502H11.2171C11.215 25.1502 11.2139 25.1491 11.2117 25.1491C11.2095 25.1491 11.2084 25.1502 11.2062 25.1502H7.38574C7.08332 25.1502 6.83887 25.3947 6.83887 25.6971V30.6124H5.19824V22.9562ZM22.6961 26.2467H24.8846C25.1871 26.2467 25.4315 26.0023 25.4315 25.6998V24.6017H27.0721V30.6119H20.5086V24.6017H22.1492V25.6998C22.1492 26.0023 22.3936 26.2467 22.6961 26.2467ZM23.2429 25.153V24.6017H24.3378V25.153H23.2429ZM11.2117 27.8873H13.4003C13.7027 27.8873 13.9471 27.6429 13.9471 27.3405V26.2434H16.6837V30.6119H7.93262V26.2434H10.6648V27.3405C10.6648 27.6429 10.9093 27.8873 11.2117 27.8873ZM11.7586 26.7936V26.2434H12.8534V26.7936H11.7586ZM5.19824 31.7062H7.38574H17.2306H19.9617H27.619H29.8032V32.2541H5.19824V31.7062ZM3.83105 1.09375C3.98145 1.09375 4.10449 1.21625 4.10449 1.36719V33.9062H3.56527L3.55762 1.36719C3.55762 1.21625 3.68066 1.09375 3.83105 1.09375Z" fill="#FFD500"/>
</g>
<defs>
<clipPath id="clip0">
<rect width="35" height="35" fill="white"/>
</clipPath>
</defs>
</svg>
