<svg width="35" height="35" viewBox="0 0 35 35" fill="none" xmlns="http://www.w3.org/2000/svg">
<path d="M33.3594 32.8164H32.2656V15.8633C32.2656 15.7182 32.208 15.5791 32.1054 15.4766C32.0029 15.374 31.8638 15.3164 31.7188 15.3164H25.7031V9.84766C25.7031 9.70262 25.6455 9.56352 25.5429 9.46096C25.4404 9.3584 25.3013 9.30078 25.1562 9.30078H9.84375C9.69871 9.30078 9.55961 9.3584 9.45705 9.46096C9.35449 9.56352 9.29688 9.70262 9.29688 9.84766V15.3164H3.28125C3.13621 15.3164 2.99711 15.374 2.89455 15.4766C2.79199 15.5791 2.73438 15.7182 2.73438 15.8633V32.8164H1.64062C1.49558 32.8164 1.35648 32.874 1.25393 32.9766C1.15137 33.0791 1.09375 33.2182 1.09375 33.3633C1.09375 33.5083 1.15137 33.6474 1.25393 33.75C1.35648 33.8525 1.49558 33.9102 1.64062 33.9102H33.3594C33.5044 33.9102 33.6435 33.8525 33.7461 33.75C33.8486 33.6474 33.9062 33.5083 33.9062 33.3633C33.9062 33.2182 33.8486 33.0791 33.7461 32.9766C33.6435 32.874 33.5044 32.8164 33.3594 32.8164ZM9.29688 32.8164H3.82812V16.4102H9.29688V32.8164ZM16.9531 32.8164H14.7656V25.707H16.9531V32.8164ZM20.2344 32.8164H18.0469V25.707H20.2344V32.8164ZM24.6094 15.8633V32.8164H21.3281V25.707H21.875C22.02 25.707 22.1591 25.6494 22.2617 25.5469C22.3643 25.4443 22.4219 25.3052 22.4219 25.1602C22.4219 25.0151 22.3643 24.876 22.2617 24.7735C22.1591 24.6709 22.02 24.6133 21.875 24.6133H13.125C12.98 24.6133 12.8409 24.6709 12.7383 24.7735C12.6357 24.876 12.5781 25.0151 12.5781 25.1602C12.5781 25.3052 12.6357 25.4443 12.7383 25.5469C12.8409 25.6494 12.98 25.707 13.125 25.707H13.6719V32.8164H10.3906V10.3945H24.6094V15.8633ZM31.1719 32.8164H25.7031V16.4102H31.1719V32.8164Z" fill="#FFD500"/>
<path d="M12.0312 14.7695H14.2188C14.3638 14.7695 14.5029 14.7119 14.6054 14.6094C14.708 14.5068 14.7656 14.3677 14.7656 14.2227V12.0352C14.7656 11.8901 14.708 11.751 14.6054 11.6485C14.5029 11.5459 14.3638 11.4883 14.2188 11.4883H12.0312C11.8862 11.4883 11.7471 11.5459 11.6446 11.6485C11.542 11.751 11.4844 11.8901 11.4844 12.0352V14.2227C11.4844 14.3677 11.542 14.5068 11.6446 14.6094C11.7471 14.7119 11.8862 14.7695 12.0312 14.7695ZM12.5781 12.582H13.6719V13.6758H12.5781V12.582Z" fill="#FFD500"/>
<path d="M16.4062 14.7695H18.5938C18.7388 14.7695 18.8779 14.7119 18.9804 14.6094C19.083 14.5068 19.1406 14.3677 19.1406 14.2227V12.0352C19.1406 11.8901 19.083 11.751 18.9804 11.6485C18.8779 11.5459 18.7388 11.4883 18.5938 11.4883H16.4062C16.2612 11.4883 16.1221 11.5459 16.0196 11.6485C15.917 11.751 15.8594 11.8901 15.8594 12.0352V14.2227C15.8594 14.3677 15.917 14.5068 16.0196 14.6094C16.1221 14.7119 16.2612 14.7695 16.4062 14.7695ZM16.9531 12.582H18.0469V13.6758H16.9531V12.582Z" fill="#FFD500"/>
<path d="M20.7812 14.7695H22.9688C23.1138 14.7695 23.2529 14.7119 23.3554 14.6094C23.458 14.5068 23.5156 14.3677 23.5156 14.2227V12.0352C23.5156 11.8901 23.458 11.751 23.3554 11.6485C23.2529 11.5459 23.1138 11.4883 22.9688 11.4883H20.7812C20.6362 11.4883 20.4971 11.5459 20.3946 11.6485C20.292 11.751 20.2344 11.8901 20.2344 12.0352V14.2227C20.2344 14.3677 20.292 14.5068 20.3946 14.6094C20.4971 14.7119 20.6362 14.7695 20.7812 14.7695ZM21.3281 12.582H22.4219V13.6758H21.3281V12.582Z" fill="#FFD500"/>
<path d="M12.0312 19.1445H14.2188C14.3638 19.1445 14.5029 19.0869 14.6054 18.9844C14.708 18.8818 14.7656 18.7427 14.7656 18.5977V16.4102C14.7656 16.2651 14.708 16.126 14.6054 16.0235C14.5029 15.9209 14.3638 15.8633 14.2188 15.8633H12.0312C11.8862 15.8633 11.7471 15.9209 11.6446 16.0235C11.542 16.126 11.4844 16.2651 11.4844 16.4102V18.5977C11.4844 18.7427 11.542 18.8818 11.6446 18.9844C11.7471 19.0869 11.8862 19.1445 12.0312 19.1445ZM12.5781 16.957H13.6719V18.0508H12.5781V16.957Z" fill="#FFD500"/>
<path d="M16.4062 19.1445H18.5938C18.7388 19.1445 18.8779 19.0869 18.9804 18.9844C19.083 18.8818 19.1406 18.7427 19.1406 18.5977V16.4102C19.1406 16.2651 19.083 16.126 18.9804 16.0235C18.8779 15.9209 18.7388 15.8633 18.5938 15.8633H16.4062C16.2612 15.8633 16.1221 15.9209 16.0196 16.0235C15.917 16.126 15.8594 16.2651 15.8594 16.4102V18.5977C15.8594 18.7427 15.917 18.8818 16.0196 18.9844C16.1221 19.0869 16.2612 19.1445 16.4062 19.1445ZM16.9531 16.957H18.0469V18.0508H16.9531V16.957Z" fill="#FFD500"/>
<path d="M20.7812 19.1445H22.9688C23.1138 19.1445 23.2529 19.0869 23.3554 18.9844C23.458 18.8818 23.5156 18.7427 23.5156 18.5977V16.4102C23.5156 16.2651 23.458 16.126 23.3554 16.0235C23.2529 15.9209 23.1138 15.8633 22.9688 15.8633H20.7812C20.6362 15.8633 20.4971 15.9209 20.3946 16.0235C20.292 16.126 20.2344 16.2651 20.2344 16.4102V18.5977C20.2344 18.7427 20.292 18.8818 20.3946 18.9844C20.4971 19.0869 20.6362 19.1445 20.7812 19.1445ZM21.3281 16.957H22.4219V18.0508H21.3281V16.957Z" fill="#FFD500"/>
<path d="M12.0312 23.5195H14.2188C14.3638 23.5195 14.5029 23.4619 14.6054 23.3594C14.708 23.2568 14.7656 23.1177 14.7656 22.9727V20.7852C14.7656 20.6401 14.708 20.501 14.6054 20.3985C14.5029 20.2959 14.3638 20.2383 14.2188 20.2383H12.0312C11.8862 20.2383 11.7471 20.2959 11.6446 20.3985C11.542 20.501 11.4844 20.6401 11.4844 20.7852V22.9727C11.4844 23.1177 11.542 23.2568 11.6446 23.3594C11.7471 23.4619 11.8862 23.5195 12.0312 23.5195ZM12.5781 21.332H13.6719V22.4258H12.5781V21.332Z" fill="#FFD500"/>
<path d="M16.4062 23.5195H18.5938C18.7388 23.5195 18.8779 23.4619 18.9804 23.3594C19.083 23.2568 19.1406 23.1177 19.1406 22.9727V20.7852C19.1406 20.6401 19.083 20.501 18.9804 20.3985C18.8779 20.2959 18.7388 20.2383 18.5938 20.2383H16.4062C16.2612 20.2383 16.1221 20.2959 16.0196 20.3985C15.917 20.501 15.8594 20.6401 15.8594 20.7852V22.9727C15.8594 23.1177 15.917 23.2568 16.0196 23.3594C16.1221 23.4619 16.2612 23.5195 16.4062 23.5195ZM16.9531 21.332H18.0469V22.4258H16.9531V21.332Z" fill="#FFD500"/>
<path d="M20.7812 23.5195H22.9688C23.1138 23.5195 23.2529 23.4619 23.3554 23.3594C23.458 23.2568 23.5156 23.1177 23.5156 22.9727V20.7852C23.5156 20.6401 23.458 20.501 23.3554 20.3985C23.2529 20.2959 23.1138 20.2383 22.9688 20.2383H20.7812C20.6362 20.2383 20.4971 20.2959 20.3946 20.3985C20.292 20.501 20.2344 20.6401 20.2344 20.7852V22.9727C20.2344 23.1177 20.292 23.2568 20.3946 23.3594C20.4971 23.4619 20.6362 23.5195 20.7812 23.5195ZM21.3281 21.332H22.4219V22.4258H21.3281V21.332Z" fill="#FFD500"/>
<path d="M15.6076 6.90888C15.4747 6.96182 15.3679 7.06469 15.31 7.19543C15.2521 7.32617 15.2477 7.47439 15.2978 7.60834C15.3478 7.74228 15.4484 7.85129 15.5778 7.91201C15.7073 7.97273 15.8554 7.98032 15.9904 7.93317C16.9631 7.56784 18.0353 7.56784 19.008 7.93317C19.143 7.98032 19.2911 7.97273 19.4206 7.91201C19.5501 7.85129 19.6506 7.74228 19.7006 7.60834C19.7507 7.47439 19.7463 7.32617 19.6884 7.19543C19.6305 7.06469 19.5237 6.96182 19.3909 6.90888C18.1711 6.45225 16.8273 6.45225 15.6076 6.90888Z" fill="#FFD500"/>
<path d="M20.7696 5.72601C20.892 5.72592 21.0108 5.68477 21.1071 5.60915C21.2033 5.53353 21.2714 5.42782 21.3005 5.30892C21.3295 5.19003 21.3178 5.06482 21.2673 4.95335C21.2168 4.84188 21.1303 4.75057 21.0217 4.69406C19.9334 4.13023 18.7256 3.83594 17.4999 3.83594C16.2741 3.83594 15.0663 4.13023 13.978 4.69406C13.9122 4.7259 13.8535 4.7706 13.8053 4.82552C13.7571 4.88044 13.7204 4.94446 13.6973 5.0138C13.6743 5.08315 13.6654 5.1564 13.6711 5.22925C13.6769 5.3021 13.6972 5.37305 13.7308 5.43793C13.7644 5.5028 13.8107 5.56028 13.8669 5.60697C13.9231 5.65366 13.9881 5.6886 14.0581 5.70975C14.128 5.73089 14.2015 5.73781 14.2741 5.73008C14.3468 5.72235 14.4172 5.70014 14.4811 5.66476C15.414 5.18148 16.4492 4.92923 17.4999 4.92923C18.5505 4.92923 19.5857 5.18148 20.5186 5.66476C20.5962 5.70493 20.6823 5.72594 20.7696 5.72601Z" fill="#FFD500"/>
<path d="M22.3062 3.53275C22.4258 3.53311 22.5423 3.49426 22.6377 3.42213C22.7331 3.35 22.8022 3.24859 22.8345 3.13342C22.8668 3.01825 22.8604 2.89567 22.8163 2.78448C22.7723 2.67328 22.693 2.57958 22.5906 2.51775C21.0568 1.58383 19.2956 1.08984 17.4997 1.08984C15.7039 1.08984 13.9427 1.58383 12.4089 2.51775C12.2848 2.59303 12.1957 2.71451 12.1612 2.85548C12.1267 2.99645 12.1496 3.14535 12.2249 3.26943C12.3001 3.39351 12.4216 3.48261 12.5626 3.51712C12.7036 3.55163 12.8525 3.52873 12.9766 3.45346C14.3391 2.62296 15.904 2.18364 17.4997 2.18364C19.0955 2.18364 20.6604 2.62296 22.0229 3.45346C22.1084 3.50526 22.2063 3.53269 22.3062 3.53275Z" fill="#FFD500"/>
<path d="M5.46875 20.7852H7.65625C7.80129 20.7852 7.94039 20.7275 8.04295 20.625C8.14551 20.5224 8.20312 20.3833 8.20312 20.2383V18.0508C8.20312 17.9057 8.14551 17.7666 8.04295 17.6641C7.94039 17.5615 7.80129 17.5039 7.65625 17.5039H5.46875C5.32371 17.5039 5.18461 17.5615 5.08205 17.6641C4.97949 17.7666 4.92188 17.9057 4.92188 18.0508V20.2383C4.92188 20.3833 4.97949 20.5224 5.08205 20.625C5.18461 20.7275 5.32371 20.7852 5.46875 20.7852ZM6.01562 18.5977H7.10938V19.6914H6.01562V18.5977Z" fill="#FFD500"/>
<path d="M27.3438 20.7852H29.5312C29.6763 20.7852 29.8154 20.7275 29.9179 20.625C30.0205 20.5224 30.0781 20.3833 30.0781 20.2383V18.0508C30.0781 17.9057 30.0205 17.7666 29.9179 17.6641C29.8154 17.5615 29.6763 17.5039 29.5312 17.5039H27.3438C27.1987 17.5039 27.0596 17.5615 26.9571 17.6641C26.8545 17.7666 26.7969 17.9057 26.7969 18.0508V20.2383C26.7969 20.3833 26.8545 20.5224 26.9571 20.625C27.0596 20.7275 27.1987 20.7852 27.3438 20.7852ZM27.8906 18.5977H28.9844V19.6914H27.8906V18.5977Z" fill="#FFD500"/>
<path d="M5.46875 25.1602H7.65625C7.80129 25.1602 7.94039 25.1025 8.04295 25C8.14551 24.8974 8.20312 24.7583 8.20312 24.6133V22.4258C8.20312 22.2807 8.14551 22.1416 8.04295 22.0391C7.94039 21.9365 7.80129 21.8789 7.65625 21.8789H5.46875C5.32371 21.8789 5.18461 21.9365 5.08205 22.0391C4.97949 22.1416 4.92188 22.2807 4.92188 22.4258V24.6133C4.92188 24.7583 4.97949 24.8974 5.08205 25C5.18461 25.1025 5.32371 25.1602 5.46875 25.1602ZM6.01562 22.9727H7.10938V24.0664H6.01562V22.9727Z" fill="#FFD500"/>
<path d="M27.3438 25.1602H29.5312C29.6763 25.1602 29.8154 25.1025 29.9179 25C30.0205 24.8974 30.0781 24.7583 30.0781 24.6133V22.4258C30.0781 22.2807 30.0205 22.1416 29.9179 22.0391C29.8154 21.9365 29.6763 21.8789 29.5312 21.8789H27.3438C27.1987 21.8789 27.0596 21.9365 26.9571 22.0391C26.8545 22.1416 26.7969 22.2807 26.7969 22.4258V24.6133C26.7969 24.7583 26.8545 24.8974 26.9571 25C27.0596 25.1025 27.1987 25.1602 27.3438 25.1602ZM27.8906 22.9727H28.9844V24.0664H27.8906V22.9727Z" fill="#FFD500"/>
</svg>
