<svg width="35" height="35" viewBox="0 0 35 35" fill="none" xmlns="http://www.w3.org/2000/svg">
<path d="M17.4992 33.5404C14.3265 33.5404 11.225 32.5995 8.58692 30.8369C5.94888 29.0742 3.89278 26.5688 2.67863 23.6376C1.46447 20.7064 1.14679 17.4809 1.76576 14.3691C2.38473 11.2574 3.91255 8.399 6.15602 6.15553C8.39949 3.91207 11.2578 2.38425 14.3696 1.76527C17.4814 1.1463 20.7068 1.46398 23.6381 2.67814C26.5693 3.89229 29.0747 5.94839 30.8374 8.58643C32.6 11.2245 33.5409 14.326 33.5409 17.4987C33.5361 21.7517 31.8444 25.8292 28.8371 28.8366C25.8297 31.8439 21.7522 33.5356 17.4992 33.5404ZM17.4992 2.91537C14.6149 2.91537 11.7953 3.77067 9.39713 5.37311C6.99891 6.97554 5.12973 9.25315 4.02595 11.9179C2.92217 14.5827 2.63337 17.5149 3.19607 20.3438C3.75878 23.1727 5.1477 25.7712 7.18722 27.8107C9.22674 29.8502 11.8252 31.2391 14.6541 31.8018C17.483 32.3645 20.4152 32.0757 23.08 30.9719C25.7447 29.8682 28.0224 27.999 29.6248 25.6008C31.2272 23.2026 32.0825 20.383 32.0825 17.4987C32.0781 13.6323 30.5402 9.92558 27.8063 7.19163C25.0723 4.45769 21.3656 2.91981 17.4992 2.91537Z" fill="#FFD500"/>
<path d="M7.76792 25.8944C7.75334 25.8944 7.73941 25.894 7.72519 25.893C7.62241 25.887 7.52205 25.8593 7.43073 25.8118C7.33942 25.7642 7.2592 25.6979 7.19538 25.6171C5.20508 23.0949 4.2097 19.93 4.39806 16.7226C4.58643 13.5153 5.94543 10.4886 8.21727 8.21678C10.4891 5.94494 13.5158 4.58594 16.7231 4.39758C19.9305 4.20921 23.0954 5.20459 25.6176 7.19489C25.6983 7.25873 25.7646 7.33894 25.8122 7.43024C25.8597 7.52154 25.8874 7.62186 25.8935 7.72463C25.8995 7.82739 25.8837 7.93027 25.8471 8.02649C25.8105 8.12272 25.754 8.21012 25.6813 8.28295L8.28337 25.6809C8.14665 25.8176 7.96124 25.8944 7.76792 25.8944ZM17.4956 5.83448C15.3759 5.83348 13.296 6.4105 11.4797 7.50344C9.66347 8.59639 8.17962 10.1639 7.18783 12.0373C6.19604 13.9107 5.73385 16.0191 5.85099 18.1356C5.96813 20.2521 6.66017 22.2966 7.85265 24.0491L24.0496 7.85216C22.1175 6.53585 19.8334 5.83268 17.4956 5.83448Z" fill="#FFD500"/>
<path d="M17.5013 30.6197C14.5538 30.622 11.692 29.6288 9.37969 27.8009C9.29893 27.7371 9.2326 27.6569 9.18505 27.5656C9.1375 27.4743 9.10981 27.374 9.10379 27.2712C9.09777 27.1684 9.11356 27.0656 9.15013 26.9693C9.1867 26.8731 9.24321 26.7857 9.31596 26.7129L26.7139 9.31498C26.7867 9.24223 26.8741 9.18572 26.9703 9.14915C27.0666 9.11258 27.1694 9.09679 27.2722 9.10281C27.375 9.10883 27.4753 9.13652 27.5666 9.18408C27.6579 9.23163 27.7381 9.29796 27.8019 9.37871C29.3282 11.3126 30.2789 13.6372 30.5452 16.0863C30.8115 18.5355 30.3826 21.0101 29.3077 23.2268C28.2327 25.4435 26.5551 27.3126 24.4671 28.62C22.379 29.9275 19.965 30.6203 17.5014 30.6193L17.5013 30.6197ZM10.9477 27.1437C13.1916 28.6702 15.8977 29.366 18.5996 29.1112C21.3015 28.8564 23.8299 27.667 25.7489 25.748C27.668 23.829 28.8574 21.3006 29.1121 18.5987C29.3669 15.8968 28.6711 13.1907 27.1446 10.9468L10.9477 27.1437Z" fill="#FFD500"/>
</svg>
