<svg width="35" height="35" viewBox="0 0 35 35" fill="none" xmlns="http://www.w3.org/2000/svg">
<path d="M30.625 0H4.375C3.99742 0 3.69141 0.306015 3.69141 0.683594V32.9492C3.69141 34.0801 4.61132 35 5.74219 35H29.2578C30.3887 35 31.3086 34.0801 31.3086 32.9492V23.6523C31.3086 23.2748 31.0026 22.9688 30.625 22.9688C30.2474 22.9688 29.9414 23.2748 29.9414 23.6523V32.9492C29.9414 33.3263 29.6349 33.6328 29.2578 33.6328H7.39269L24.419 16.6065C24.6857 16.3395 24.6857 15.9066 24.419 15.6396C24.152 15.3728 23.7191 15.3728 23.4521 15.6396L5.50293 33.5888C5.24391 33.4916 5.05859 33.2419 5.05859 32.9492V1.36719H29.9414V18.252C29.9414 18.6295 30.2474 18.9355 30.625 18.9355C31.0026 18.9355 31.3086 18.6295 31.3086 18.252V0.683594C31.3086 0.306015 31.0026 0 30.625 0Z" fill="#FFD500"/>
<path d="M30.625 22.9688C31.0026 22.9688 31.3086 23.2748 31.3086 23.6523V18.252C31.3086 18.6295 31.0026 18.9355 30.625 18.9355C30.2474 18.9355 29.9414 18.6295 29.9414 18.252V23.6523C29.9414 23.2748 30.2474 22.9688 30.625 22.9688Z" fill="#FFD500"/>
<path d="M20.918 3.69141H14.082C12.8006 3.69141 11.7578 4.73415 11.7578 6.01562C11.7578 7.2971 12.8006 8.33984 14.082 8.33984H20.918C22.1994 8.33984 23.2422 7.2971 23.2422 6.01562C23.2422 4.73415 22.1994 3.69141 20.918 3.69141ZM20.918 6.97266H14.082C13.5544 6.97266 13.125 6.54327 13.125 6.01562C13.125 5.48798 13.5544 5.05859 14.082 5.05859H20.918C21.4456 5.05859 21.875 5.48798 21.875 6.01562C21.875 6.54327 21.4456 6.97266 20.918 6.97266Z" fill="#FFD500"/>
<path d="M21.9564 9.70808L10.6339 21.0306C10.3668 21.2977 10.3668 21.7305 10.6339 21.9976C10.7674 22.1308 10.9423 22.1976 11.1172 22.1976C11.2921 22.1976 11.4673 22.1308 11.6005 21.9976L22.9231 10.675C23.1901 10.408 23.1901 9.97511 22.9231 9.70808C22.6563 9.44106 22.2235 9.44106 21.9564 9.70808Z" fill="#FFD500"/>
</svg>
