<svg width="35" height="35" viewBox="0 0 35 35" fill="none" xmlns="http://www.w3.org/2000/svg">
<path d="M34.712 4.28872C34.6912 4.26898 30.58 0.309675 30.58 0.309675C30.4229 0.157392 30.2603 0 29.9568 0H13.4056C12.9221 0 12.5288 0.397138 12.5288 0.885329V3.604L6.69535 4.61379C6.22777 4.69663 5.91332 5.14851 5.99432 5.6202L6.29039 7.36338C4.3943 8.00772 2.44763 8.67194 0.568356 9.35363C0.124293 9.51758 -0.108744 10.0162 0.049713 10.4673L3.78795 20.9612L3.78802 20.9614C3.86326 21.1725 4.06029 21.3039 4.27043 21.3039C4.32799 21.3039 4.38664 21.294 4.44393 21.2732C4.71039 21.1764 4.84869 20.8798 4.75285 20.6107L1.06991 10.272C2.84042 9.6319 4.67396 9.00537 6.46587 8.3963L8.22756 18.7679L10.2547 30.7126C10.3279 31.1342 10.6949 31.4342 11.1092 31.4342C11.1561 31.4342 11.2037 31.4304 11.2514 31.4224L16.7417 30.471L21.032 29.7283L14.5795 32.0704L9.49111 33.9179L5.53939 22.8184C5.53935 22.8182 5.53931 22.8181 5.53927 22.818C5.44338 22.5492 5.14991 22.4097 4.88348 22.5063C4.61701 22.6031 4.47872 22.8996 4.5745 23.1687L8.58227 34.4259C8.71045 34.7799 9.04254 35 9.39357 35C9.49057 35 9.58907 34.9832 9.68505 34.9477L14.9262 33.0448L26.8272 28.7252L29.1008 28.3317H34.1232C34.6067 28.3317 35 27.9337 35 27.4444V4.8721C35.0001 4.56222 34.8335 4.40414 34.712 4.28872ZM33.3536 4.41132H30.7881L30.7245 4.4116C30.6017 4.41242 30.3141 4.41456 30.2412 4.34139C30.2243 4.32448 30.2047 4.26801 30.2047 4.16315L30.1987 1.37324L33.3536 4.41132ZM33.9747 27.2961H13.5542V17.206C13.5542 16.92 13.3246 16.6882 13.0415 16.6882C12.7584 16.6882 12.5288 16.92 12.5288 17.206V27.4442C12.5288 27.9335 12.9221 28.3316 13.4056 28.3316H23.0314L16.5684 29.4503L11.2376 30.3741L9.23818 18.5929L7.03229 5.60598L12.5287 4.65452V14.8037C12.5287 15.0896 12.7583 15.3214 13.0414 15.3214C13.3246 15.3214 13.5541 15.0896 13.5541 14.8037V1.0354H29.1726L29.1793 4.16432C29.1793 4.54358 29.2935 4.85036 29.5187 5.07623C29.8648 5.42325 30.3541 5.44741 30.6578 5.44741C30.6839 5.44741 30.7087 5.44721 30.7318 5.44707L33.9747 5.44686V27.2961Z" fill="#FFD500"/>
<path d="M13.0415 16.6882C13.3246 16.6882 13.5542 16.92 13.5542 17.206L13.5541 14.8037C13.5541 15.0896 13.3246 15.3214 13.0414 15.3214C12.7583 15.3214 12.5287 15.0896 12.5287 14.8037L12.5288 17.206C12.5288 16.92 12.7584 16.6882 13.0415 16.6882Z" fill="#FFD500"/>
<path d="M4.27043 21.3039C4.06029 21.3039 3.86326 21.1725 3.78802 20.9614L4.5745 23.1687C4.47872 22.8996 4.61701 22.6031 4.88348 22.5063C5.14991 22.4097 5.44338 22.5492 5.53927 22.818L4.75285 20.6107C4.84869 20.8798 4.71039 21.1764 4.44393 21.2732C4.38664 21.294 4.32799 21.3039 4.27043 21.3039Z" fill="#FFD500"/>
<path d="M16.0273 8.04117C16.0273 8.3271 16.2569 8.55891 16.54 8.55891H31.1988C31.4819 8.55891 31.7115 8.3271 31.7115 8.04117C31.7115 7.75525 31.4819 7.52344 31.1988 7.52344H16.54C16.2569 7.52344 16.0273 7.75525 16.0273 8.04117Z" fill="#FFD500"/>
<path d="M31.1988 11.1992H16.54C16.2569 11.1992 16.0273 11.431 16.0273 11.717C16.0273 12.0029 16.2569 12.2347 16.54 12.2347H31.1988C31.4819 12.2347 31.7115 12.0029 31.7115 11.717C31.7115 11.431 31.4819 11.1992 31.1988 11.1992Z" fill="#FFD500"/>
<path d="M31.1988 14.875H16.54C16.2569 14.875 16.0273 15.1068 16.0273 15.3927C16.0273 15.6787 16.2569 15.9105 16.54 15.9105H31.1988C31.4819 15.9105 31.7115 15.6787 31.7115 15.3927C31.7115 15.1068 31.4819 14.875 31.1988 14.875Z" fill="#FFD500"/>
<path d="M31.1988 18.5547H16.54C16.2569 18.5547 16.0273 18.7865 16.0273 19.0724C16.0273 19.3584 16.2569 19.5902 16.54 19.5902H31.1988C31.4819 19.5902 31.7115 19.3584 31.7115 19.0724C31.7115 18.7865 31.4819 18.5547 31.1988 18.5547Z" fill="#FFD500"/>
<path d="M31.1988 22.2344H16.54C16.2569 22.2344 16.0273 22.4662 16.0273 22.7521C16.0273 23.038 16.2569 23.2699 16.54 23.2699H31.1988C31.4819 23.2699 31.7115 23.038 31.7115 22.7521C31.7115 22.4662 31.4819 22.2344 31.1988 22.2344Z" fill="#FFD500"/>
</svg>
