<svg width="35" height="35" viewBox="0 0 35 35" fill="none" xmlns="http://www.w3.org/2000/svg">
<path d="M28.8826 18.5C28.6013 18.5 28.3732 18.728 28.3732 19.0093C28.3732 19.366 28.0831 19.6561 27.7265 19.6561C27.3699 19.6561 27.0797 19.366 27.0797 19.0093C27.0797 18.728 26.8517 18.5 26.5704 18.5C26.2891 18.5 26.061 18.728 26.061 19.0093C26.061 19.9277 26.8082 20.6748 27.7265 20.6748C28.6447 20.6748 29.3919 19.9276 29.3919 19.0093C29.3919 18.7279 29.1639 18.5 28.8826 18.5Z" fill="#FFD500"/>
<path d="M33.6632 18.5801L32.2295 18.1209C32.0459 18.062 31.9012 17.9155 31.8425 17.7288C31.5403 16.7681 31.0844 15.8663 30.4873 15.0481C30.2151 14.6752 29.9125 14.3191 29.5819 13.9802C29.7934 13.0523 29.9084 12.0022 29.8935 11.095C29.8722 9.79725 29.6128 9.03606 29.1007 8.76782C28.8248 8.62317 27.9854 8.18376 23.4417 10.2637C23.3341 10.3129 23.2336 10.3735 23.1406 10.443C22.8343 10.3607 22.5212 10.2845 22.2062 10.2162C22.1683 10.2079 22.1292 10.2006 22.0909 10.1925C22.4591 9.38818 22.6741 8.51462 22.7145 7.61282C22.7186 7.52247 22.6988 7.43657 22.6608 7.36118C22.5807 7.20201 22.4192 7.08968 22.2284 7.08119C21.9481 7.06725 21.7093 7.28613 21.6968 7.56723C21.6304 9.05001 21.0153 10.4452 19.9649 11.4956C19.3373 12.1232 18.6024 12.5791 17.8192 12.8662C16.461 12.6757 15.0775 12.6757 13.7193 12.8662C12.9361 12.5791 12.2013 12.1232 11.5737 11.4956C10.453 10.3749 9.83575 8.88492 9.83575 7.30001C9.83575 5.71503 10.453 4.22507 11.5737 3.10438C12.6943 1.98363 14.1844 1.36642 15.7693 1.36642C17.3541 1.36642 18.8442 1.98363 19.9649 3.10438C20.4153 3.55474 20.7874 4.06866 21.071 4.63174C21.1976 4.88303 21.5039 4.9842 21.7551 4.8576C21.9251 4.77202 22.0264 4.60408 22.0349 4.42659C22.039 4.34179 22.0219 4.25481 21.981 4.17359C21.6485 3.51331 21.2126 2.91127 20.6853 2.38394C19.3722 1.07083 17.6263 0.347656 15.7693 0.347656C13.9124 0.347656 12.1665 1.07083 10.8533 2.38394C9.54023 3.69713 8.81706 5.44296 8.81706 7.29994C8.81706 8.67909 9.21595 9.99697 9.95915 11.1218C10.1257 11.3739 10.3096 11.6163 10.5102 11.8476C10.6196 11.9738 10.7341 12.0966 10.8533 12.2159C11.2321 12.5947 11.6442 12.9204 12.0801 13.1933C12.0802 13.1933 12.0803 13.1933 12.0805 13.1933C11.7638 13.2756 11.4494 13.368 11.1386 13.4719C10.8718 13.5611 10.7278 13.8497 10.8171 14.1165C10.9062 14.3833 11.1949 14.5273 11.4616 14.4382C14.2395 13.5095 17.2992 13.5095 20.0771 14.4382C20.1307 14.4561 20.1851 14.4645 20.2386 14.4645C20.4517 14.4645 20.6503 14.3297 20.7216 14.1165C20.8108 13.8497 20.6669 13.5611 20.4001 13.4719C20.0892 13.368 19.7749 13.2755 19.4582 13.1933C19.4584 13.1933 19.4585 13.1933 19.4586 13.1933C19.8946 12.9204 20.3066 12.5947 20.6853 12.2159C21.0204 11.8808 21.3162 11.5149 21.5731 11.126C21.7135 11.1533 21.8529 11.1819 21.9902 11.2117C22.1731 11.2514 22.3552 11.294 22.5357 11.3388C22.53 11.361 22.5242 11.383 22.5195 11.4055C22.2711 12.5844 22.2872 13.627 22.5674 14.5043C22.8192 15.2928 23.2738 15.9316 23.9182 16.4031C24.6777 16.9587 25.5947 17.1987 26.4253 17.1987C27.0505 17.1987 27.6268 17.0627 28.0501 16.8229C28.5289 16.5518 28.93 15.9803 29.2476 15.1224C29.3943 15.2937 29.5334 15.4692 29.6646 15.6489C30.1962 16.3772 30.602 17.1799 30.8708 18.0345C31.0287 18.5364 31.4205 18.9314 31.9189 19.0912L33.3525 19.5504C33.7287 19.6709 33.9814 20.0172 33.9814 20.4122V22.7894C33.9814 23.1843 33.7287 23.5306 33.3525 23.6511L31.0427 24.3909C30.6732 24.5094 30.3604 24.7634 30.1621 25.1061C29.2547 26.6744 27.8279 27.9722 25.9213 28.9635C25.7011 29.0781 25.5485 29.2832 25.5026 29.5261L24.7628 33.4433C24.7423 33.5512 24.6478 33.6295 24.5379 33.6295H22.1326C22.0227 33.6295 21.9282 33.5512 21.9077 33.4433L21.498 31.2784C21.4173 30.8525 21.0178 30.5695 20.5879 30.6347C19.5517 30.7914 18.4841 30.8707 17.4148 30.8707C16.6192 30.8707 15.8338 30.8264 15.0803 30.7388C14.6636 30.6909 14.2755 30.9749 14.1976 31.3863L13.8083 33.4433C13.7878 33.5512 13.6933 33.6295 13.5834 33.6295H11.1781C11.0682 33.6295 10.9737 33.5512 10.9529 33.4417L10.2406 29.7419C10.1948 29.5035 10.0451 29.3009 9.82967 29.1858C6.57959 27.4508 4.86172 24.5521 4.86172 20.8032C4.86172 18.9091 5.27611 17.2343 6.09335 15.825C6.85597 14.5098 7.96981 13.4224 9.40392 12.5929C9.42456 12.5809 9.44405 12.5678 9.46235 12.5535C9.65991 12.3996 9.71868 12.1198 9.5898 11.8968C9.45222 11.6589 9.15165 11.5742 8.91075 11.7016C8.90508 11.7046 8.89944 11.7077 8.89383 11.711C6.11304 13.3196 4.43584 15.8013 3.97407 18.9534V18.9533C3.92506 18.9489 3.87598 18.9446 3.8271 18.9396C3.83599 18.5995 3.77446 18.2563 3.64048 17.9233C3.34496 17.1887 2.73793 16.6585 2.09392 16.5725C1.58642 16.5046 1.10346 16.7201 0.768291 17.1629C0.282324 17.8051 0.361553 18.3132 0.513516 18.6265C0.770068 19.1551 1.42953 19.529 2.5239 19.7641C2.49382 19.8092 2.46073 19.8544 2.4245 19.8999C1.77789 20.7108 1.01609 20.8901 0.521445 20.907C0.231875 20.9168 0 21.1493 0 21.4391V21.4415C0 21.7273 0.225518 21.9604 0.511055 21.9735C0.547627 21.9752 0.58584 21.9761 0.625625 21.9761C1.25152 21.9761 2.25606 21.7452 3.22116 20.5351C3.37354 20.3441 3.49768 20.1425 3.59311 19.9343C3.68922 19.9452 3.78157 19.9545 3.87003 19.9627C3.87003 19.9625 3.87003 19.9624 3.8701 19.9621C3.85273 20.2382 3.8431 20.5183 3.8431 20.8032C3.8431 22.9243 4.34875 24.8155 5.34591 26.4244C6.26534 27.9078 7.58174 29.1224 9.25982 30.0359L9.9523 33.6327C10.0637 34.2211 10.5792 34.6482 11.1781 34.6482H13.5834C14.1823 34.6482 14.6978 34.2211 14.8092 33.6327L15.1612 31.7727C15.8924 31.8502 16.6494 31.8894 17.4147 31.8894C18.4647 31.8894 19.5135 31.8163 20.5356 31.6719L20.9067 33.6328C21.0181 34.2212 21.5336 34.6483 22.1324 34.6483H24.5378C25.1367 34.6483 25.6522 34.2212 25.7636 33.6325L26.4839 29.8187C28.5188 28.7426 30.0527 27.3291 31.0438 25.6163C31.1152 25.4928 31.2252 25.4023 31.3534 25.3612L33.6632 24.6213C34.4628 24.365 35 23.6289 35 22.7892V20.412C35 19.5724 34.4628 18.8363 33.6632 18.5801ZM28.7983 12.5264C28.6022 14.203 28.0764 15.6372 27.5479 15.9365C26.9473 16.2767 25.5607 16.3424 24.5196 15.5808C23.4772 14.8183 23.1303 13.4472 23.5162 11.6155C23.5549 11.4316 23.6856 11.2724 23.8658 11.1899C26.4158 10.0226 27.886 9.64084 28.4322 9.64084C28.5147 9.64084 28.5761 9.64952 28.6169 9.66552C28.781 9.84038 28.9962 10.8344 28.7983 12.5264ZM1.43015 18.1817C1.37744 18.073 1.50186 17.8819 1.58074 17.7776C1.70577 17.6124 1.82096 17.5787 1.90798 17.5787C1.92637 17.5787 1.94353 17.5802 1.95925 17.5823C2.19345 17.6135 2.52157 17.8712 2.69541 18.3033C2.73636 18.4051 2.78954 18.5736 2.80198 18.7837C2.09686 18.6376 1.54902 18.427 1.43015 18.1817Z" fill="#FFD500"/>
<path d="M22.2284 7.08119C22.4192 7.08968 22.5807 7.20201 22.6608 7.36118L22.3224 5.77435L22.0349 4.42659C22.0264 4.60408 21.9251 4.77202 21.7551 4.8576C21.5039 4.9842 21.1976 4.88303 21.071 4.63174L21.3583 5.97943L21.6968 7.56723C21.7093 7.28613 21.9481 7.06725 22.2284 7.08119Z" fill="#FFD500"/>
<path d="M10.5102 11.8476C10.3096 11.6163 10.1257 11.3739 9.95915 11.1218L8.91075 11.7016C9.15165 11.5742 9.45222 11.6589 9.5898 11.8968C9.71868 12.1198 9.65991 12.3996 9.46235 12.5535L10.5102 11.8476Z" fill="#FFD500"/>
<path d="M13.8661 8.62268C13.8661 7.4015 14.7192 7.00632 15.5004 6.719L15.9764 6.54845C16.4523 6.36887 16.8384 6.18033 16.8384 5.66853C16.8384 5.20156 16.4792 4.97707 15.9764 4.91425L15.5004 4.89627C15.1153 4.92378 14.8785 5.04227 14.7033 5.12994C14.5925 5.18538 14.5063 5.2285 14.4228 5.2285C14.1534 5.2285 14.0277 4.88731 14.0277 4.71669C14.0277 4.27666 14.8898 4.08813 15.5004 4.07015L16.0302 4.08799C16.8833 4.17781 17.7363 4.6268 17.7363 5.75821C17.7363 6.90761 16.8384 7.23088 16.0302 7.51819L15.5543 7.71575C15.1144 7.90429 14.7642 8.15571 14.7642 8.72139C14.7642 9.23333 15.0694 9.52065 15.5543 9.6104L16.0302 9.62838C16.6038 9.58339 16.9132 9.32011 17.1372 9.12956C17.2709 9.01581 17.3741 8.92797 17.4849 8.92797C17.7094 8.92797 17.8979 9.22431 17.8979 9.43984C17.8979 9.8798 17.1437 10.4814 16.0302 10.4994L15.5004 10.4725C14.5306 10.3377 13.8661 9.72716 13.8661 8.62268Z" fill="#FFD500"/>
<path d="M13.8661 8.62268C13.8661 7.4015 14.7192 7.00632 15.5004 6.719L15.9764 6.54845C16.4523 6.36887 16.8384 6.18033 16.8384 5.66853C16.8384 5.20156 16.4792 4.97707 15.9764 4.91425L15.5004 4.89627C15.1153 4.92378 14.8785 5.04227 14.7033 5.12994C14.5925 5.18538 14.5063 5.2285 14.4228 5.2285C14.1534 5.2285 14.0277 4.88731 14.0277 4.71669C14.0277 4.27666 14.8898 4.08813 15.5004 4.07015L16.0302 4.08799C16.8833 4.17781 17.7363 4.6268 17.7363 5.75821C17.7363 6.90761 16.8384 7.23088 16.0302 7.51819L15.5543 7.71575C15.1144 7.90429 14.7642 8.15571 14.7642 8.72139C14.7642 9.23333 15.0694 9.52065 15.5543 9.6104L16.0302 9.62838C16.6038 9.58339 16.9132 9.32011 17.1372 9.12956C17.2709 9.01581 17.3741 8.92797 17.4849 8.92797C17.7094 8.92797 17.8979 9.22431 17.8979 9.43984C17.8979 9.8798 17.1437 10.4814 16.0302 10.4994L15.5004 10.4725C14.5306 10.3377 13.8661 9.72716 13.8661 8.62268Z" stroke="#FFD500"/>
<line x1="14.25" y1="6.75" x2="17.75" y2="6.75" stroke="#FFD500" stroke-width="0.5" stroke-linecap="round"/>
<line x1="13.9902" y1="7.33594" x2="17.25" y2="7.33594" stroke="#FFD500" stroke-width="0.5" stroke-linecap="round"/>
</svg>
