<svg width="35" height="35" viewBox="0 0 35 35" fill="none" xmlns="http://www.w3.org/2000/svg">
<g clip-path="url(#clip0)">
<path d="M2.42563 31.5001C2.06751 31.5001 1.77734 31.7612 1.77734 32.0832V34.4168C1.77734 34.7388 2.06751 35 2.42563 35H36.1291C36.4872 35 36.7773 34.7388 36.7773 34.4168V32.0832C36.7773 31.7612 36.4872 31.5001 36.1291 31.5001H35.4811V30.3334H36.1291C36.4872 30.3334 36.7773 30.0723 36.7773 29.7499V27.4166C36.7773 27.0946 36.4872 26.8332 36.1291 26.8332H34.1848V14.5832C34.1848 14.2612 33.8946 14.0001 33.5365 14.0001H27.0551V1.75011C27.0551 1.4278 26.765 1.16665 26.4069 1.16665H21.87V0.583458C21.87 0.261154 21.5799 0 21.2218 0H17.3329C16.9748 0 16.6846 0.261154 16.6846 0.583458V1.16665H12.1478C11.7897 1.16665 11.4995 1.4278 11.4995 1.75011V14.0001H5.01818C4.66006 14.0001 4.36989 14.2612 4.36989 14.5832V26.8335H2.42563C2.06751 26.8335 1.77734 27.0946 1.77734 27.4166V29.7499C1.77734 30.0723 2.06751 30.3334 2.42563 30.3334H3.07362V31.5001H2.42563ZM28.3514 20.9999C28.4366 21.0002 28.5211 20.9853 28.5998 20.9556C28.8419 20.8654 28.9997 20.6525 28.9997 20.4168V15.1667H32.8885V26.8335H19.9255V15.1667H23.8143V20.4168C23.8143 20.7388 24.1048 20.9999 24.4626 20.9999C24.6344 20.9999 24.7993 20.9385 24.9207 20.829L26.4069 19.4915L27.893 20.829C28.0147 20.9385 28.1796 20.9999 28.3514 20.9999ZM27.7031 15.1667V19.0084L26.8653 18.2544C26.6122 18.0266 26.2018 18.0266 25.9488 18.2544L25.1106 19.0084V15.1667H27.7031ZM17.9809 1.16665H20.5738V5.00839L19.7356 4.2543C19.4825 4.02653 19.0722 4.02653 18.8191 4.2543L17.9812 5.00839L17.9809 1.16665ZM12.7958 2.3333H16.6846V6.4167C16.6849 6.73874 16.9751 6.99989 17.3329 6.99989C17.5047 6.99989 17.6697 6.93848 17.791 6.82926L19.2775 5.49145L20.7637 6.82926C20.885 6.93848 21.05 7.00016 21.2218 7.00016C21.3069 7.00043 21.3915 6.98521 21.4701 6.95583C21.7122 6.86531 21.87 6.65276 21.87 6.4167V2.3333H25.7589V14.0001H12.7958V2.3333ZM10.8516 15.1667H13.4441V19.0084L12.6059 18.2544C12.3529 18.0266 11.9425 18.0266 11.6894 18.2544L10.8516 19.0084V15.1667ZM5.66617 15.1667H9.55499V20.4168C9.55529 20.7388 9.84546 20.9999 10.2033 20.9999C10.3751 20.9999 10.54 20.9385 10.6614 20.829L12.1478 19.4915L13.634 20.829C13.7553 20.9385 13.9203 20.9999 14.0921 20.9999C14.1773 21.0002 14.2618 20.9853 14.3404 20.9556C14.5825 20.8654 14.7404 20.6525 14.7404 20.4168V15.1667H18.6292V26.8335H5.66617V15.1667ZM3.07362 27.9998H35.4811V29.1665H3.07362V27.9998ZM34.1848 30.3334V31.5001H32.8885V30.3334H34.1848ZM31.5922 30.3334V31.5001H21.2218V30.3334H31.5922ZM19.9255 30.3334V31.5001H18.6292V30.3334H19.9255ZM17.3329 30.3334V31.5001H6.96244V30.3334H17.3329ZM5.66617 30.3334V31.5001H4.36989V30.3334H5.66617ZM35.4811 32.6667V33.8334H3.07362V32.6667H35.4811Z" fill="#FFD500"/>
<path d="M16.3606 8.16797H18.6942V9.33462H16.3606V8.16797Z" fill="#FFD500"/>
<path d="M22.7771 22.168H25.1104V23.3346H22.7771V22.168Z" fill="#FFD500"/>
<path d="M9.94434 22.168H12.2776V23.3346H9.94434V22.168Z" fill="#FFD500"/>
</g>
<defs>
<clipPath id="clip0">
<rect width="35" height="35" fill="white"/>
</clipPath>
</defs>
</svg>
