<svg width="35" height="35" viewBox="0 0 35 35" fill="none" xmlns="http://www.w3.org/2000/svg">
<path d="M23.0673 28.8881L20 32.5362H18.5L23.0248 27.1743L23.0673 28.8881Z" fill="#FFD500"/>
<path fill-rule="evenodd" clip-rule="evenodd" d="M23.0475 30.0448L23.048 30.0181C23.0476 30.027 23.0475 30.0359 23.0475 30.0448Z" fill="#FFD500"/>
<path fill-rule="evenodd" clip-rule="evenodd" d="M1.80571 14.1662C2.32669 13.6546 2.9259 13.2503 3.57504 12.9614C1.47059 12.0217 6.86646e-05 9.90926 6.86646e-05 7.45953C6.86646e-05 4.13903 2.7016 1.4375 6.02209 1.4375H28.978C32.2985 1.4375 35 4.13903 35 7.45953C35 9.91006 33.5289 12.0228 31.4234 12.9622C33.5289 13.9016 35 16.0146 35 18.4649C35 21.7856 32.2985 24.4869 28.978 24.4869H24.0289L24.0556 27.8551L23.0673 28.8881L23.0248 27.1743L22.956 18.4691L22.9557 18.4649C22.9557 16.3951 24.0054 14.5662 25.6001 13.4818H6.02209C5.93317 13.4818 5.84478 13.4794 5.75693 13.4757C4.53955 13.539 3.39987 14.0383 2.52402 14.8982C1.58595 15.8189 1.05483 17.0491 1.02813 18.3621C1.02786 18.3767 1.02679 18.3914 1.02519 18.4058V32.5362H18.5H20L18.8395 33.5616H0.512764C0.229446 33.5616 6.86646e-05 33.332 6.86646e-05 33.0489V18.3516C6.86646e-05 18.3289 0.00140381 18.3065 0.00434113 18.2846C0.0502701 16.7233 0.688736 15.2627 1.80571 14.1662ZM23.0475 30.0448L23.048 30.0181C23.0476 30.027 23.0475 30.0359 23.0475 30.0448ZM6.02209 2.46289C3.26689 2.46289 1.02546 4.70433 1.02546 7.45953C1.02546 10.1258 3.12483 12.3112 5.75773 12.449C5.84558 12.4452 5.9337 12.4428 6.02209 12.4428C6.06188 12.4428 6.10033 12.4476 6.13745 12.4562H25.6201C24.0142 11.3734 22.956 9.53782 22.956 7.45953C22.956 5.38125 24.0142 3.54543 25.6201 2.46289H6.02209ZM33.9746 7.45953C33.9746 4.70433 31.7332 2.46289 28.978 2.46289C26.2228 2.46289 23.9813 4.70433 23.9813 7.45953C23.9813 10.1253 26.0794 12.3098 28.7109 12.449C28.7996 12.4452 28.8885 12.4428 28.978 12.4428C29.0674 12.4428 29.1564 12.4452 29.2447 12.449C31.8763 12.3098 33.9746 10.1253 33.9746 7.45953ZM24.0209 23.4615H25.6201C24.9872 23.0348 24.4396 22.4911 24.008 21.8617L24.0209 23.4615ZM23.9813 18.4649C23.9813 21.2201 26.2228 23.4615 28.978 23.4615C31.7332 23.4615 33.9746 21.2201 33.9746 18.4649C33.9746 15.7991 31.8763 13.6145 29.2447 13.4754C29.1564 13.4794 29.0674 13.4818 28.978 13.4818H28.9753H28.6298C26.0367 13.6613 23.9813 15.8269 23.9813 18.4649Z" fill="#FFD500"/>
<path d="M17 24.002C16.5 24.002 5.5 24.002 5 24.002C4.5 24.002 4.5 23.002 5 23.002C5.5 23.002 16.5 23.002 17 23.002C17.5 23.002 17.5 24.002 17 24.002Z" fill="#FFD500"/>
<path d="M18.5 33V27.5H23.5" stroke="#FFD500" stroke-linejoin="round"/>
<path d="M28.9781 16.1133C30.2735 16.1133 31.3271 17.167 31.3271 18.4623C31.3271 19.7577 30.2735 20.8117 28.9781 20.8117C27.6827 20.8117 26.6288 19.7577 26.6288 18.4623C26.6288 17.167 27.6827 16.1133 28.9781 16.1133ZM28.9781 19.786C29.7079 19.786 30.3018 19.1921 30.3018 18.4623C30.3018 17.7323 29.7079 17.1384 28.9781 17.1384C28.248 17.1384 27.6542 17.7323 27.6542 18.4623C27.6542 19.1921 28.248 19.786 28.9781 19.786Z" fill="#FFD500"/>
<path d="M26.6288 7.45843C26.6288 6.16307 27.6827 5.10938 28.9781 5.10938C30.2735 5.10938 31.3271 6.16307 31.3271 7.45843C31.3271 8.75379 30.2735 9.80775 28.9781 9.80775C27.6827 9.80775 26.6288 8.75379 26.6288 7.45843ZM30.3018 7.45843C30.3018 6.72864 29.7082 6.13477 28.9781 6.13477C28.248 6.13477 27.6542 6.72864 27.6542 7.45843C27.6542 8.18849 28.248 8.78236 28.9781 8.78236C29.7079 8.78236 30.3018 8.18849 30.3018 7.45843Z" fill="#FFD500"/>
</svg>
