<svg width="35" height="35" viewBox="0 0 35 35" fill="none" xmlns="http://www.w3.org/2000/svg">
<path d="M33.1376 30.7019L30.2209 29.2436C30.1198 29.1924 30.008 29.1668 29.8948 29.1668H10.1335C9.83178 27.6861 8.62662 26.5422 7.12351 26.3068L7.29064 3.65161C7.29283 3.33545 7.09128 3.0534 6.79218 2.9538L2.41718 1.49547C2.0313 1.36582 1.6218 1.57524 1.49435 1.95688C1.36762 2.33999 1.57412 2.75153 1.95576 2.87972L5.8288 4.17005L5.6646 26.3749C4.08916 26.7773 2.91564 28.1962 2.91564 29.8959C2.91564 31.9068 4.5513 33.5418 6.56147 33.5418C8.32197 33.5418 9.79474 32.2876 10.1335 30.6251H29.7224L32.4852 32.0066C32.5899 32.0592 32.7011 32.0834 32.8107 32.0834C33.0785 32.0834 33.3363 31.9353 33.4638 31.6803C33.6439 31.3201 33.4979 30.8815 33.1376 30.7019ZM6.56147 32.0834C5.35528 32.0834 4.37397 31.1021 4.37397 29.8959C4.37397 28.6897 5.35528 27.7084 6.56147 27.7084C7.76766 27.7084 8.74897 28.6897 8.74897 29.8959C8.74897 31.1021 7.76766 32.0834 6.56147 32.0834Z" fill="#FFD500"/>
<path d="M6.56169 30.6263C6.96439 30.6263 7.29085 30.2998 7.29085 29.8971C7.29085 29.4944 6.96439 29.168 6.56169 29.168C6.15898 29.168 5.83252 29.4944 5.83252 29.8971C5.83252 30.2998 6.15898 30.6263 6.56169 30.6263Z" fill="#FFD500"/>
<path d="M24.79 21.1471C24.79 21.5502 25.1161 21.8763 25.5192 21.8763H26.9775C27.3806 21.8763 27.7067 21.5502 27.7067 21.1471C27.7067 20.7441 27.3806 20.418 26.9775 20.418H25.5192C25.1161 20.418 24.79 20.7441 24.79 21.1471Z" fill="#FFD500"/>
<path d="M26.9792 23.332H22.6042C22.2011 23.332 21.875 23.6581 21.875 24.0612C21.875 24.4643 22.2011 24.7904 22.6042 24.7904H26.9792C27.3822 24.7904 27.7083 24.4643 27.7083 24.0612C27.7083 23.6581 27.3822 23.332 26.9792 23.332Z" fill="#FFD500"/>
<path d="M21.7018 4.375H18.2284H15.3117H11.8382C10.9389 4.375 10.2075 5.10708 10.2075 6.00571V26.0778C10.2075 26.9763 10.9389 27.7083 11.8382 27.7083H16.4047H16.77H28.802C29.8068 27.7083 30.6242 26.8909 30.6242 25.8854V14.9479C30.6242 13.9424 29.8068 13.125 28.802 13.125H24.0617H23.3325V6.00571C23.3325 5.10708 22.6012 4.375 21.7018 4.375ZM21.8742 14.5833H23.3325V17.5H21.8742V14.5833ZM17.4992 5.83333V8.75H16.0409V5.83333H17.4992ZM11.6659 26.0776V6.00571C11.6659 5.91019 11.7434 5.83333 11.8382 5.83333H14.5825V9.47917C14.5825 9.88225 14.9086 10.2083 15.3117 10.2083H18.2284C18.6314 10.2083 18.9575 9.88225 18.9575 9.47917V5.83333H21.7018C21.7966 5.83333 21.8742 5.91019 21.8742 6.00571V13.125H21.145H16.4047C15.3999 13.125 14.5825 13.9424 14.5825 14.9479V25.8854C14.5825 26.0146 14.6306 26.1282 14.6562 26.25H11.8382C11.7434 26.25 11.6659 26.1731 11.6659 26.0776ZM29.1659 14.9479V25.8854C29.1659 26.0862 29.0028 26.25 28.802 26.25H16.77H16.4047C16.2039 26.25 16.0409 26.0862 16.0409 25.8854V14.9479C16.0409 14.7471 16.2039 14.5833 16.4047 14.5833H20.4159V18.2292C20.4159 18.6323 20.7419 18.9583 21.145 18.9583H24.0617C24.4648 18.9583 24.7909 18.6323 24.7909 18.2292V14.5833H28.802C29.0028 14.5833 29.1659 14.7471 29.1659 14.9479Z" fill="#FFD500"/>
</svg>
