<svg width="35" height="35" viewBox="0 0 35 35" fill="none" xmlns="http://www.w3.org/2000/svg">
<g clip-path="url(#clip0)">
<path d="M34.7119 9.99688L17.7952 0.0801907C17.6172 -0.0236472 17.3985 -0.0271335 17.2183 0.0726029L0.301602 9.40598C0.115527 9.50804 0 9.70403 0 9.91635V34.4164C0 34.7389 0.261338 34.9997 0.58331 34.9997H3.5C3.82197 34.9997 4.08331 34.7389 4.08331 34.4164V13.9997H30.9166V34.4164C30.9166 34.739 31.1773 34.9997 31.4999 34.9997H34.4166C34.7392 34.9997 34.9999 34.739 34.9999 34.4164V10.4997C35 10.2926 34.8903 10.1013 34.7119 9.99688ZM33.8333 33.833H32.0833V13.4164C32.0833 13.0944 31.8226 12.833 31.5 12.833H3.5C3.17803 12.833 2.91669 13.0944 2.91669 13.4164V33.833H1.16669V10.2605L17.4912 1.25385L33.8333 10.8339V33.833Z" fill="#FFD500"/>
<path d="M29.1668 26.832H22.1668C21.8442 26.832 21.5835 27.0928 21.5835 27.4153V34.4153C21.5835 34.7379 21.8442 34.9986 22.1668 34.9986H29.1668C29.4894 34.9986 29.7501 34.7379 29.7501 34.4153V27.4153C29.7501 27.0928 29.4894 26.832 29.1668 26.832ZM28.5834 33.832H22.7501V27.9987H28.5834V33.832Z" fill="#FFD500"/>
<path d="M26.2504 27.418V29.168H25.0837V27.418H23.917V29.7513C23.917 30.0739 24.1777 30.3346 24.5003 30.3346H26.8336C27.1562 30.3346 27.4169 30.0739 27.4169 29.7513V27.418H26.2504Z" fill="#FFD500"/>
<path d="M22.1663 26.832H15.1663C14.8443 26.832 14.583 27.0928 14.583 27.4153V34.4153C14.583 34.7379 14.8443 34.9986 15.1663 34.9986H22.1663C22.4889 34.9986 22.7496 34.7379 22.7496 34.4153V27.4153C22.7496 27.0928 22.4889 26.832 22.1663 26.832ZM21.5829 33.832H15.7496V27.9987H21.5829V33.832Z" fill="#FFD500"/>
<path d="M19.2504 27.418V29.168H18.0837V27.418H16.917V29.7513C16.917 30.0739 17.1783 30.3346 17.5003 30.3346H19.8336C20.1562 30.3346 20.4169 30.0739 20.4169 29.7513V27.418H19.2504Z" fill="#FFD500"/>
<path d="M29.1668 19.832H22.1668C21.8442 19.832 21.5835 20.0928 21.5835 20.4153V27.4153C21.5835 27.7379 21.8442 27.9986 22.1668 27.9986H29.1668C29.4894 27.9986 29.7501 27.7379 29.7501 27.4153V20.4153C29.7501 20.0928 29.4894 19.832 29.1668 19.832ZM28.5834 26.832H22.7501V20.9987H28.5834V26.832Z" fill="#FFD500"/>
<path d="M26.2504 20.418V22.168H25.0837V20.418H23.917V22.7513C23.917 23.0739 24.1777 23.3346 24.5003 23.3346H26.8336C27.1562 23.3346 27.4169 23.0739 27.4169 22.7513V20.418H26.2504Z" fill="#FFD500"/>
<path d="M31.5 17.5H3.5V18.6667H31.5V17.5Z" fill="#FFD500"/>
<path d="M31.5 15.168H3.5V16.3347H31.5V15.168Z" fill="#FFD500"/>
<path d="M20.4166 8.16797H14.5833C14.2613 8.16797 14 8.42931 14 8.75128V11.0846C14 11.4066 14.2613 11.6679 14.5833 11.6679H20.4166C20.7392 11.6679 20.9999 11.4066 20.9999 11.0846V8.75128C20.9999 8.42931 20.7392 8.16797 20.4166 8.16797ZM19.8332 10.5013H15.1666V9.33466H19.8332V10.5013Z" fill="#FFD500"/>
</g>
<defs>
<clipPath id="clip0">
<rect width="35" height="35" fill="white"/>
</clipPath>
</defs>
</svg>
