<svg width="35" height="35" viewBox="0 0 35 35" fill="none" xmlns="http://www.w3.org/2000/svg">
<path d="M26.7969 6.5625H22.4219V9.84375H26.7969V6.5625ZM25.7031 8.75H23.5156V7.65625H25.7031V8.75Z" fill="#FFD500"/>
<path d="M34.4532 22.9707L32.1672 11.4863H30.0782V8.11154L31.3103 8.99146C31.5903 9.19271 31.9206 9.29881 32.2651 9.29881C32.794 9.29881 33.2933 9.04178 33.6006 8.61139C33.8554 8.25482 33.9561 7.82006 33.8839 7.38748C33.8111 6.95436 33.5749 6.57647 33.2189 6.32381L25.5621 0.853965C25.0021 0.454746 24.2146 0.454746 23.6562 0.855059L16.0011 6.32271C15.644 6.57646 15.4077 6.9549 15.335 7.38748C15.2628 7.82006 15.3629 8.25482 15.6188 8.61248C16.1263 9.32123 17.1976 9.49951 17.9069 8.99256L19.1407 8.111V11.4863H13.8847L13.1229 10.8093C12.5208 10.2722 11.5413 10.2733 10.9414 10.8082L1.09817 19.5571C0.770049 19.848 0.575362 20.2494 0.549659 20.6869C0.524502 21.125 0.670518 21.5461 0.960909 21.8726C1.27208 22.2237 1.71942 22.4249 2.18755 22.4249C2.5895 22.4249 2.97669 22.2772 3.27802 22.0093L3.82817 21.5204V34.4551H33.3594V26.7988H34.4532V22.9707ZM31.2704 12.5801L33.3594 23.0248V23.5176H20.2344V21.5204L20.7846 22.0093C21.4354 22.5884 22.5231 22.5233 23.1011 21.8737C23.3921 21.5461 23.5381 21.125 23.5124 20.6869C23.4867 20.2489 23.292 19.848 22.965 19.5582L20.6522 17.5019H30.0782V12.5801H31.2704ZM25.7032 16.4082H23.5157V12.0332H25.7032V16.4082ZM17.2709 8.10279C17.0336 8.27178 16.6765 8.21107 16.508 7.97646C16.4227 7.85725 16.3893 7.71232 16.4134 7.56795C16.438 7.42139 16.5146 7.29943 16.6354 7.21303L24.2917 1.74482C24.4787 1.61139 24.7407 1.61248 24.9266 1.74428L32.5834 7.21467C32.7015 7.29834 32.7803 7.42412 32.8044 7.56795C32.8284 7.71232 32.7951 7.8567 32.7103 7.97537C32.5413 8.21271 32.1858 8.27396 31.9463 8.10225L24.6094 2.86154L17.2709 8.10279ZM24.6094 4.20521L28.9844 7.33061V16.4082H26.7969V10.9394H22.4219V16.4082H20.2344V7.33006L24.6094 4.20521ZM19.1407 12.5801V16.1583L15.1151 12.5801H19.1407ZM2.55122 21.1922C2.33302 21.3864 1.97263 21.364 1.77849 21.1463C1.68169 21.038 1.63302 20.8975 1.64177 20.7509C1.65052 20.6049 1.71505 20.4715 1.82442 20.3747L11.6682 11.6247C11.7688 11.5355 11.8973 11.4863 12.0313 11.4863C12.1653 11.4863 12.2943 11.5355 12.3955 11.6258L22.2393 20.3758C22.3481 20.4726 22.4126 20.6054 22.4208 20.7515C22.4296 20.8997 22.382 21.0364 22.2836 21.1479C22.0911 21.3645 21.729 21.3864 21.5114 21.1928L12.0313 12.7654L2.55122 21.1922ZM12.0313 14.2289L19.1407 20.548V22.4238H14.7657V18.0488H9.29692V22.4238H4.92192V20.548L12.0313 14.2289ZM13.6719 22.4238H10.3907V19.1426H13.6719V22.4238ZM4.92192 23.5176H19.1407V33.3613H12.5782V26.7988H6.01567V33.3613H4.92192V23.5176ZM11.4844 33.3613H7.10942V27.8926H11.4844V33.3613ZM32.2657 33.3613H20.2344V26.7988H32.2657V33.3613ZM20.2344 25.7051V24.6113H33.3594V25.7051H20.2344Z" fill="#FFD500"/>
<path d="M18.0469 24.6094H13.6719V28.9844H18.0469V24.6094ZM16.9531 27.8906H14.7656V25.7031H16.9531V27.8906Z" fill="#FFD500"/>
<path d="M25.7031 32.2656V27.8906H21.3281V32.2656H25.7031ZM22.4219 28.9844H24.6094V31.1719H22.4219V28.9844Z" fill="#FFD500"/>
<path d="M31.1719 27.8906H26.7969V32.2656H31.1719V27.8906ZM30.0781 31.1719H27.8906V28.9844H30.0781V31.1719Z" fill="#FFD500"/>
</svg>
