<svg width="35" height="35" viewBox="0 0 35 35" fill="none" xmlns="http://www.w3.org/2000/svg">
<g clip-path="url(#clip0)">
<path d="M14.7065 25.03V8.55154C14.7065 8.14292 14.3721 7.80859 13.9635 7.80859C13.5549 7.80859 13.2206 8.14292 13.2206 8.55154V25.03C11.7421 25.3717 10.6426 26.6867 10.6426 28.2692C10.6426 30.0968 12.1359 31.5902 13.9635 31.5902C15.7912 31.5902 17.2845 30.1043 17.2845 28.2692C17.2919 26.6867 16.1849 25.3643 14.7065 25.03ZM13.9635 30.0969C12.9531 30.0969 12.1285 29.2722 12.1285 28.2618C12.1285 27.2514 12.9531 26.4267 13.9635 26.4267C14.9739 26.4267 15.7986 27.2514 15.7986 28.2618C15.806 29.2796 14.9814 30.0969 13.9635 30.0969Z" fill="#FFD500"/>
<path d="M18.1468 22.734V4.16047C18.1468 1.86478 16.2746 0 13.964 0C11.6535 0 9.78127 1.86478 9.78127 4.16047V22.734C7.55987 24.4873 6.63863 27.4443 7.47815 30.2229C7.90905 31.6122 8.75601 32.8009 9.92985 33.6701C11.1111 34.5393 12.5004 35 13.964 35C15.4276 35 16.8243 34.5393 17.9982 33.6701C19.172 32.8009 20.019 31.6122 20.4499 30.2154C21.2894 27.4443 20.3608 24.4873 18.1468 22.734ZM19.016 29.7845C18.3251 32.0133 16.2969 33.5141 13.9566 33.5141C11.6163 33.5141 9.5881 32.0208 8.89717 29.792C8.20623 27.5037 9.0309 25.0668 10.9477 23.7221C11.1483 23.581 11.2671 23.3581 11.2671 23.1129V4.1679C11.2671 2.71917 12.5079 1.49331 13.964 1.49331C15.4276 1.49331 16.6609 2.71917 16.646 4.16047V23.1055C16.646 23.3506 16.7649 23.5735 16.9655 23.7147C18.8823 25.0594 19.707 27.5037 19.016 29.7845Z" fill="#FFD500"/>
<path d="M33.0284 9.48773H32.1815C31.2008 9.48773 30.2721 9.03453 29.8263 8.3436C29.8189 8.33617 29.8115 8.32131 29.8041 8.31388C29.336 7.66009 29.3434 6.84286 29.8189 6.12963L29.8263 6.1222C30.287 5.41641 31.1636 4.97807 32.122 4.97807H33.0284C33.437 4.97807 33.7714 4.64375 33.7714 4.23513C33.7714 3.82651 33.437 3.49219 33.0284 3.49219H32.122C30.6659 3.49219 29.3137 4.18313 28.5856 5.30497C27.7684 6.53082 27.7684 8.00184 28.5931 9.16083C29.3137 10.2604 30.7179 10.9662 32.1889 10.9662H33.0284C33.437 10.9662 33.7714 10.6393 33.7714 10.2307C33.7714 9.82205 33.437 9.48773 33.0284 9.48773Z" fill="#FFD500"/>
<path d="M24.402 0.0078125C23.0276 0.0078125 21.9058 1.12222 21.9058 2.48924V3.32876C21.9058 4.69577 23.0276 5.81019 24.402 5.81019C25.7765 5.81019 26.8983 4.69577 26.8983 3.32876V2.48924C26.8983 1.12222 25.7765 0.0078125 24.402 0.0078125ZM25.4124 3.32876C25.4124 3.88597 24.9667 4.3243 24.402 4.3243C23.8374 4.3243 23.3916 3.88597 23.3916 3.32876V2.48924C23.3916 1.93203 23.8374 1.4937 24.402 1.4937C24.9667 1.4937 25.4124 1.93203 25.4124 2.48924V3.32876Z" fill="#FFD500"/>
<path d="M6.25178 22.3711H1.97243C1.56382 22.3711 1.22949 22.7054 1.22949 23.114C1.22949 23.5227 1.56382 23.857 1.97243 23.857H6.25178C6.6604 23.857 6.99472 23.5227 6.99472 23.114C6.99472 22.7054 6.6604 22.3711 6.25178 22.3711Z" fill="#FFD500"/>
<path d="M6.25183 12.0586H3.65896C3.25034 12.0586 2.91602 12.3929 2.91602 12.8015C2.91602 13.2102 3.25034 13.5445 3.65896 13.5445H6.25183C6.66044 13.5445 6.99477 13.2102 6.99477 12.8015C6.99477 12.3929 6.66044 12.0586 6.25183 12.0586Z" fill="#FFD500"/>
<path d="M6.25178 8.64062H1.97243C1.56382 8.64062 1.22949 8.97495 1.22949 9.38357C1.22949 9.79219 1.56382 10.1265 1.97243 10.1265H6.25178C6.6604 10.1265 6.99472 9.79219 6.99472 9.38357C6.99472 8.97495 6.6604 8.64062 6.25178 8.64062Z" fill="#FFD500"/>
<path d="M6.25183 5.16406H3.65896C3.25034 5.16406 2.91602 5.49839 2.91602 5.907C2.91602 6.31562 3.25034 6.64995 3.65896 6.64995H6.25183C6.66044 6.64995 6.99477 6.31562 6.99477 5.907C6.99477 5.49839 6.66044 5.16406 6.25183 5.16406Z" fill="#FFD500"/>
<path d="M6.25178 1.74609H1.97243C1.56382 1.74609 1.22949 2.08042 1.22949 2.48904C1.22949 2.89765 1.56382 3.23198 1.97243 3.23198H6.25178C6.6604 3.23198 6.99472 2.89765 6.99472 2.48904C6.99472 2.08042 6.6604 1.74609 6.25178 1.74609Z" fill="#FFD500"/>
<path d="M6.25183 18.9531H3.65896C3.25034 18.9531 2.91602 19.2874 2.91602 19.6961C2.91602 20.1047 3.25034 20.439 3.65896 20.439H6.25183C6.66044 20.439 6.99477 20.1047 6.99477 19.6961C6.99477 19.2874 6.66044 18.9531 6.25183 18.9531Z" fill="#FFD500"/>
<path d="M6.25178 15.4766H1.97243C1.56382 15.4766 1.22949 15.8109 1.22949 16.2195C1.22949 16.6281 1.56382 16.9624 1.97243 16.9624H6.25178C6.6604 16.9624 6.99472 16.6281 6.99472 16.2195C6.99472 15.8109 6.6604 15.4766 6.25178 15.4766Z" fill="#FFD500"/>
</g>
<defs>
<clipPath id="clip0">
<rect width="35" height="35" fill="white"/>
</clipPath>
</defs>
</svg>
