<svg width="35" height="35" viewBox="0 0 35 35" fill="none" xmlns="http://www.w3.org/2000/svg">
<path d="M34.4873 31.8359H32.768V16.2056C32.768 15.0518 31.8293 14.1131 30.6754 14.1131H29.6384C31.8125 12.7684 33.2642 10.3629 33.2642 7.62446C33.2642 6.67454 33.0912 5.74697 32.75 4.86753C32.7211 4.79314 32.6818 4.73308 32.6355 4.68605C32.2973 4.34244 31.583 4.69488 31.794 5.23852C32.0892 5.99915 32.2389 6.8019 32.2389 7.62446C32.2389 11.2632 29.2781 14.2235 25.6389 14.2235C24.8105 14.2235 23.9997 14.0701 23.2291 13.7677C23.101 13.7174 22.9579 13.7208 22.8322 13.7771L21.1697 14.5217V12.6986C21.1697 12.561 21.1143 12.4292 21.0161 12.3328C19.7588 11.0985 19.0388 9.38786 19.0388 7.62453C19.0388 3.98583 21.9995 1.02553 25.6388 1.02553C27.4804 1.02553 29.1895 1.76545 30.4511 3.10898C30.8505 3.53439 31.4775 3.04147 31.3125 2.58773C31.2901 2.52598 31.253 2.46496 31.1986 2.40707C29.7622 0.877256 27.7357 0 25.6388 0C21.4341 0 18.0133 3.42029 18.0133 7.62439C18.0133 8.60029 18.1954 9.54693 18.543 10.4269H9.5159H9.46032C8.41395 10.4269 7.56273 11.2795 7.56273 12.3276V12.3801V14.1131H4.32462C3.17078 14.1131 2.232 15.0518 2.232 16.2057V31.836H0.512695C0.229551 31.836 0 32.0655 0 32.3487V33.0409C0 34.1212 0.878828 35 1.95918 35H4.64892C5.3118 35 5.3118 33.9746 4.64892 33.9746H1.95918C1.35796 33.9746 0.985195 33.4188 1.02539 32.8613H33.9746C34.0175 33.421 33.6508 33.9746 33.0408 33.9746H7.2424C6.57952 33.9746 6.57952 35 7.2424 35H33.0408C34.1211 35 35 34.1212 35 33.0408V32.3486C35 32.0655 34.7705 31.8359 34.4873 31.8359ZM9.5159 27.985H25.4842C26.5612 27.985 27.4373 27.1088 27.4373 26.0318V17.3107H29.5756V29.6636H5.42445V17.3107H7.56273V26.0317C7.56267 27.1088 8.4389 27.985 9.5159 27.985ZM23.0587 14.799C24.1271 15.1838 25.2824 15.3241 26.4119 15.2098V26.0318C26.4119 26.5434 25.9957 26.9596 25.4841 26.9596H9.5159C9.0043 26.9596 8.58813 26.5434 8.58813 26.0318V14.2283H20.1443V15.3129C20.1443 15.6896 20.557 15.9195 20.8665 15.7808L23.0587 14.799ZM19.0406 11.4522C19.3452 11.9744 19.7144 12.4634 20.1442 12.9095V13.2029H8.58806V12.38C8.58806 11.8684 9.00423 11.4522 9.51583 11.4522H19.0406ZM3.25739 31.8359V16.2056C3.25739 15.6172 3.73611 15.1385 4.32462 15.1385H7.56273V16.2854H4.91176C4.62861 16.2854 4.39906 16.5149 4.39906 16.7981V30.1764C4.39906 30.4595 4.62861 30.6891 4.91176 30.6891H30.0883C30.3715 30.6891 30.601 30.4595 30.601 30.1764V16.798C30.601 16.5149 30.3715 16.2853 30.0883 16.2853H27.4373V15.1384H30.6754C31.2639 15.1384 31.7427 15.6171 31.7427 16.2055V31.8358L3.25739 31.8359Z" fill="#FFD500"/>
<path d="M31.794 5.23852C31.583 4.69488 32.2973 4.34244 32.6355 4.68605C32.6355 4.68605 32.2275 3.95246 31.9375 3.5C31.7044 3.13643 31.3125 2.58773 31.3125 2.58773C31.4775 3.04147 30.8505 3.53439 30.4511 3.10898C30.4511 3.10898 30.9432 3.6623 31.1986 4.05952C31.4776 4.49338 31.794 5.23852 31.794 5.23852Z" fill="#FFD500"/>
<path d="M4.64892 33.9746C5.3118 33.9746 5.3118 35 4.64892 35H7.2424C6.57952 35 6.57952 33.9746 7.2424 33.9746H4.64892Z" fill="#FFD500"/>
<path d="M11.2285 17.4307C11.2285 17.7138 11.4581 17.9434 11.7412 17.9434H23.0963C23.7592 17.9434 23.7592 16.918 23.0963 16.918H11.7412C11.4581 16.918 11.2285 17.1475 11.2285 17.4307Z" fill="#FFD500"/>
<path d="M23.0967 20.0234H20.3248C19.6619 20.0234 19.6619 21.0488 20.3248 21.0488H23.0967C23.7596 21.0488 23.7596 20.0234 23.0967 20.0234Z" fill="#FFD500"/>
<path d="M11.7418 21.0488H17.5598C18.2227 21.0488 18.2227 20.0234 17.5598 20.0234H11.7418C11.0789 20.0234 11.0789 21.0488 11.7418 21.0488Z" fill="#FFD500"/>
<path d="M23.0969 23.1328H11.7418C11.0789 23.1328 11.0789 24.1582 11.7418 24.1582H23.0969C23.7598 24.1582 23.7598 23.1328 23.0969 23.1328Z" fill="#FFD500"/>
<path d="M24.1871 10.9171C24.1871 12.8323 27.1295 12.8735 27.1295 10.9171V7.81508C27.1295 5.89651 24.1475 5.89343 24.1475 7.81508C24.1475 8.08921 24.1871 10.6508 24.1871 10.9171ZM25.6385 7.34928C25.8953 7.34928 26.1042 7.55826 26.1042 7.81502V10.917C26.1042 11.5122 25.2126 11.5122 25.2126 10.917C25.2126 10.6428 25.1729 8.08121 25.1729 7.81502C25.1729 7.55819 25.3818 7.34928 25.6385 7.34928Z" fill="#FFD500"/>
<path d="M25.6388 5.9342C26.4391 5.9342 27.0902 5.28307 27.0902 4.48272C27.0902 3.68237 26.4391 3.03125 25.6388 3.03125C24.8386 3.03125 24.1875 3.68237 24.1875 4.48272C24.1875 5.28307 24.8386 5.9342 25.6388 5.9342ZM25.6388 4.05657C25.8737 4.05657 26.0648 4.2477 26.0648 4.48265C26.0648 4.71761 25.8737 4.90874 25.6388 4.90874C25.404 4.90874 25.2129 4.71761 25.2129 4.48265C25.2129 4.2477 25.404 4.05657 25.6388 4.05657Z" fill="#FFD500"/>
</svg>
