<svg width="35" height="35" viewBox="0 0 35 35" fill="none" xmlns="http://www.w3.org/2000/svg">
<path d="M27.3436 14.2188C26.9675 14.2214 26.5923 14.254 26.2214 14.3161L24.6431 8.79266C24.6055 8.65988 24.5992 8.5202 24.6246 8.38457C24.6501 8.24894 24.7066 8.12105 24.7898 8.01095C24.873 7.90084 24.9806 7.81151 25.1041 7.74997C25.2276 7.68843 25.3637 7.65635 25.5017 7.65625H27.8905C28.0355 7.65625 28.1746 7.71387 28.2772 7.81643C28.3797 7.91899 28.4373 8.05808 28.4373 8.20312C28.4373 8.34817 28.3797 8.48726 28.2772 8.58982C28.1746 8.69238 28.0355 8.75 27.8905 8.75H27.3436V9.84375H27.8905C28.3256 9.84375 28.7429 9.6709 29.0506 9.36322C29.3582 9.05555 29.5311 8.63825 29.5311 8.20312C29.5311 7.768 29.3582 7.3507 29.0506 7.04303C28.7429 6.73535 28.3256 6.5625 27.8905 6.5625H25.5017C25.1943 6.56243 24.8911 6.63373 24.6159 6.77079C24.3407 6.90786 24.1012 7.10693 23.916 7.35235C23.7309 7.59776 23.6053 7.88281 23.549 8.18503C23.4928 8.48726 23.5075 8.79841 23.592 9.09398L24.5873 12.5781H13.1062L12.2575 11.1634C12.3592 11.062 12.4398 10.9416 12.4948 10.809C12.5498 10.6764 12.5781 10.5342 12.578 10.3906H14.7655C15.2006 10.3906 15.6179 10.2178 15.9256 9.9101C16.2332 9.60242 16.4061 9.18512 16.4061 8.75C16.4061 8.31488 16.2332 7.89758 15.9256 7.5899C15.6179 7.28223 15.2006 7.10938 14.7655 7.10938H10.9373C10.3572 7.10938 9.80078 7.33984 9.39055 7.75008C8.98031 8.16031 8.74984 8.71671 8.74984 9.29688C8.74984 9.87704 8.98031 10.4334 9.39055 10.8437C9.80078 11.2539 10.3572 11.4844 10.9373 11.4844H11.1747L12.0442 12.9341L10.6809 14.9029C9.36466 14.2828 7.88982 14.0817 6.45565 14.3267C5.02147 14.5718 3.69709 15.2512 2.66148 16.2732C1.62586 17.2951 0.928939 18.6104 0.664881 20.0412C0.400823 21.472 0.582361 22.9494 1.18496 24.2737C1.78757 25.598 2.78218 26.7054 4.03441 27.4462C5.28663 28.187 6.7361 28.5256 8.18694 28.4162C9.63778 28.3067 11.0201 27.7545 12.147 26.8342C13.2739 25.9139 14.0911 24.6698 14.4882 23.2701C14.8639 23.6439 15.3403 23.9002 15.8592 24.0078V25.1562H14.7655V26.25H18.0467V25.1562H16.953V24.0078C17.515 23.8944 18.027 23.6068 18.4163 23.1857C18.8055 22.7647 19.0521 22.2317 19.1211 21.6625C19.1901 21.0933 19.0779 20.5168 18.8005 20.015C18.5231 19.5132 18.0946 19.1115 17.5759 18.8672L23.7156 13.6719H24.8996L25.1561 14.5671C23.4567 15.12 22.0283 16.2933 21.1559 17.8529C20.2835 19.4126 20.0312 21.2438 20.4495 22.9812C20.8677 24.7186 21.9257 26.2344 23.4123 27.2262C24.8989 28.2179 26.7048 28.6127 28.4696 28.3316C30.2344 28.0506 31.8283 27.1144 32.9333 25.71C34.0383 24.3055 34.5731 22.536 34.431 20.7546C34.2889 18.9733 33.4803 17.311 32.1666 16.0995C30.8529 14.888 29.1306 14.2164 27.3436 14.2188ZM9.84359 9.29688C9.84359 9.00679 9.95883 8.7286 10.1639 8.52348C10.3691 8.31836 10.6473 8.20312 10.9373 8.20312H14.7655C14.9105 8.20312 15.0496 8.26074 15.1522 8.3633C15.2547 8.46586 15.3123 8.60496 15.3123 8.75C15.3123 8.89504 15.2547 9.03414 15.1522 9.1367C15.0496 9.23926 14.9105 9.29688 14.7655 9.29688H12.578C12.2879 9.29688 12.0097 9.41211 11.8046 9.61723C11.5995 9.82235 11.4842 10.1005 11.4842 10.3906H10.9373C10.6473 10.3906 10.3691 10.2754 10.1639 10.0703C9.95883 9.86515 9.84359 9.58696 9.84359 9.29688ZM12.6622 13.9634L15.5338 18.7496C15.142 18.8794 14.7845 19.096 14.4882 19.3834C14.0294 17.7763 13.0208 16.3814 11.6384 15.4421L12.6622 13.9634ZM7.65609 27.3438C6.76173 27.3448 5.8784 27.1463 5.0704 26.7629C4.26239 26.3795 3.55005 25.8207 2.98522 25.1273C2.42038 24.4339 2.01728 23.6232 1.80523 22.7544C1.59319 21.8855 1.57755 20.9803 1.75946 20.1046C1.94136 19.229 2.31623 18.4049 2.85677 17.6923C3.39731 16.9798 4.08993 16.3968 4.88421 15.9857C5.67849 15.5746 6.55444 15.3458 7.4483 15.3159C8.34216 15.286 9.23144 15.4558 10.0514 15.8129L9.41265 16.7344C8.24188 16.2911 6.94584 16.3127 5.79047 16.7947C4.6351 17.2767 3.70802 18.1827 3.19944 19.3266C2.69087 20.4705 2.63937 21.7657 3.05551 22.9464C3.47166 24.1271 4.32389 25.1038 5.43734 25.676C6.55079 26.2483 7.84102 26.3727 9.0433 26.0238C10.2456 25.6748 11.2687 24.879 11.9028 23.7996C12.5369 22.7201 12.7338 21.439 12.4532 20.2189C12.1726 18.9989 11.4357 17.9325 10.3937 17.2386L11.0166 16.339C12.0853 17.0589 12.8946 18.103 13.3253 19.3175C13.756 20.532 13.7853 21.8526 13.409 23.085C13.0327 24.3174 12.2705 25.3964 11.2349 26.1631C10.1992 26.9298 8.94467 27.3437 7.65609 27.3438ZM7.65609 20.7812C7.76425 20.7812 7.86999 20.8133 7.95992 20.8734C8.04985 20.9335 8.11995 21.0189 8.16134 21.1188C8.20273 21.2188 8.21356 21.3287 8.19246 21.4348C8.17136 21.5409 8.11927 21.6383 8.04279 21.7148C7.96631 21.7913 7.86887 21.8434 7.76278 21.8645C7.6567 21.8856 7.54674 21.8748 7.44681 21.8334C7.34688 21.792 7.26147 21.7219 7.20138 21.632C7.14129 21.542 7.10922 21.4363 7.10922 21.3281C7.10922 21.1831 7.16683 21.044 7.26939 20.9414C7.37195 20.8389 7.51105 20.7812 7.65609 20.7812ZM7.34765 19.7187C6.97031 19.7891 6.62944 19.9892 6.38397 20.2844C6.1385 20.5795 6.00386 20.9511 6.00332 21.335C6.00277 21.7189 6.13637 22.0909 6.381 22.3867C6.62564 22.6825 6.96594 22.8836 7.34309 22.9551C7.72024 23.0267 8.11053 22.9642 8.4465 22.7785C8.78247 22.5928 9.04301 22.2955 9.18307 21.9381C9.32314 21.5807 9.33393 21.1856 9.21358 20.8211C9.09324 20.4566 8.84932 20.1456 8.52398 19.9418L9.77086 18.1404C10.5739 18.6752 11.1448 19.4941 11.3689 20.4326C11.5929 21.371 11.4534 22.3595 10.9785 23.1994C10.5036 24.0393 9.72837 24.6683 8.80869 24.96C7.889 25.2517 6.89299 25.1846 6.02079 24.772C5.14859 24.3595 4.46485 23.6321 4.10696 22.7361C3.74907 21.8401 3.74356 20.8418 4.09154 19.9419C4.43951 19.042 5.11519 18.3071 5.98278 17.885C6.85037 17.4628 7.84559 17.3847 8.76844 17.6663L7.34765 19.7187ZM16.953 22.8681V21.3281H15.8592V22.8681C15.4943 22.7391 15.1868 22.4853 14.991 22.1515C14.7952 21.8176 14.7236 21.4253 14.7891 21.0439C14.8545 20.6625 15.0527 20.3164 15.3486 20.067C15.6445 19.8175 16.0191 19.6807 16.4061 19.6807C16.7931 19.6807 17.1677 19.8175 17.4636 20.067C17.7595 20.3164 17.9576 20.6625 18.0231 21.0439C18.0885 21.4253 18.017 21.8176 17.8212 22.1515C17.6254 22.4853 17.3178 22.7391 16.953 22.8681ZM16.5439 18.3077L13.7625 13.6719H22.023L16.5439 18.3077ZM27.3436 27.3438C25.916 27.3408 24.5361 26.8302 23.4503 25.9033C22.3646 24.9764 21.6439 23.6937 21.417 22.2842C21.1901 20.8748 21.4718 19.4307 22.2118 18.2099C22.9518 16.9891 24.1018 16.0712 25.4563 15.6204L25.7571 16.6737C24.5847 17.0797 23.6121 17.9189 23.0388 19.0193C22.4655 20.1196 22.3351 21.3977 22.6742 22.5912C23.0133 23.7846 23.7962 24.8031 24.8624 25.4377C25.9286 26.0722 27.1972 26.2747 28.408 26.0036C29.6187 25.7324 30.6798 25.0083 31.3736 23.9796C32.0674 22.951 32.3412 21.6959 32.1389 20.4717C31.9367 19.2476 31.2736 18.1473 30.2858 17.3965C29.2981 16.6457 28.0604 16.3014 26.8268 16.4341L26.5233 15.3748C27.3401 15.2617 28.1715 15.3178 28.9658 15.5396C29.7601 15.7614 30.5002 16.1443 31.1402 16.6643C31.7802 17.1844 32.3064 17.8305 32.6861 18.5626C33.0657 19.2947 33.2908 20.097 33.3471 20.9197C33.4035 21.7424 33.2901 22.568 33.0138 23.345C32.7376 24.122 32.3045 24.8339 31.7414 25.4364C31.1784 26.0389 30.4974 26.5192 29.7408 26.8473C28.9842 27.1754 28.1683 27.3444 27.3436 27.3438ZM27.8905 21.3281C27.8905 21.4363 27.8584 21.542 27.7983 21.632C27.7382 21.7219 27.6528 21.792 27.5529 21.8334C27.4529 21.8748 27.343 21.8856 27.2369 21.8645C27.1308 21.8434 27.0334 21.7913 26.9569 21.7148C26.8804 21.6383 26.8283 21.5409 26.8072 21.4348C26.7861 21.3287 26.797 21.2188 26.8383 21.1188C26.8797 21.0189 26.9498 20.9335 27.0398 20.8734C27.1297 20.8133 27.2354 20.7812 27.3436 20.7812C27.4886 20.7812 27.6277 20.8389 27.7303 20.9414C27.8328 21.044 27.8905 21.1831 27.8905 21.3281ZM27.3436 22.9688C27.7407 22.9697 28.1245 22.8262 28.4237 22.5651C28.7228 22.304 28.9168 21.9431 28.9696 21.5496C29.0224 21.156 28.9304 20.7567 28.7106 20.426C28.4908 20.0953 28.1583 19.8558 27.7751 19.752L27.1341 17.5098C27.2041 17.506 27.273 17.4995 27.3436 17.4995C28.3065 17.4954 29.2359 17.8528 29.948 18.501C30.6601 19.1493 31.1029 20.0412 31.189 21.0003C31.2751 21.9593 30.9981 22.9158 30.4129 23.6805C29.8277 24.4452 28.9768 24.9624 28.0285 25.1299C27.0802 25.2974 26.1036 25.1029 25.2919 24.5849C24.4801 24.0669 23.8923 23.2631 23.6446 22.3326C23.397 21.402 23.5076 20.4124 23.9546 19.5595C24.4016 18.7065 25.1523 18.0524 26.0584 17.7264L26.66 19.8395C26.3213 19.9964 26.0463 20.2641 25.8803 20.5984C25.7143 20.9327 25.6672 21.3136 25.7469 21.6783C25.8265 22.0429 26.0282 22.3695 26.3184 22.6041C26.6087 22.8387 26.9703 22.9674 27.3436 22.9688Z" fill="#FFD500"/>
</svg>
