<svg width="35" height="35" viewBox="0 0 35 35" fill="none" xmlns="http://www.w3.org/2000/svg">
<path d="M31.1719 1.09375H11.4844C10.7594 1.09456 10.0644 1.38291 9.55178 1.89553C9.03916 2.40815 8.75081 3.10317 8.75 3.82812V15.3125C8.60496 15.3125 8.46586 15.3701 8.3633 15.4727C8.26074 15.5752 8.20312 15.7143 8.20312 15.8594V17.2781C7.7006 17.428 7.21493 17.6294 6.75391 17.8793L5.75025 16.8754C5.69947 16.8246 5.63918 16.7843 5.57283 16.7568C5.50648 16.7294 5.43536 16.7152 5.36354 16.7152C5.29173 16.7152 5.22061 16.7294 5.15426 16.7568C5.08791 16.7843 5.02762 16.8246 4.97684 16.8754L2.65665 19.1953C2.60587 19.2461 2.56558 19.3064 2.5381 19.3727C2.51061 19.4391 2.49646 19.5102 2.49646 19.582C2.49646 19.6538 2.51061 19.725 2.5381 19.7913C2.56558 19.8577 2.60587 19.9179 2.65665 19.9687L3.66058 20.9727C3.41057 21.4337 3.20897 21.9193 3.05901 22.4219H1.64062C1.49558 22.4219 1.35648 22.4795 1.25393 22.5821C1.15137 22.6846 1.09375 22.8237 1.09375 22.9688V26.25C1.09375 26.395 1.15137 26.5341 1.25393 26.6367C1.35648 26.7393 1.49558 26.7969 1.64062 26.7969H3.05936C3.20932 27.2994 3.41091 27.7851 3.66092 28.2461L2.65665 29.2497C2.37549 29.5312 2.46948 29.8303 2.65665 30.0232L4.97656 32.3433C5.02735 32.3941 5.08763 32.4344 5.15399 32.4619C5.22034 32.4894 5.29145 32.5035 5.36327 32.5035C5.43509 32.5035 5.50621 32.4894 5.57256 32.4619C5.63891 32.4344 5.6992 32.3941 5.74998 32.3433L6.75391 31.3394C7.21493 31.5893 7.7006 31.7908 8.20312 31.9406V33.3594C8.20312 33.5044 8.26074 33.6435 8.3633 33.7461C8.46586 33.8486 8.60496 33.9062 8.75 33.9062H12.0312C12.1763 33.9062 12.3154 33.8486 12.4179 33.7461C12.5205 33.6435 12.5781 33.5044 12.5781 33.3594V31.9406C13.0807 31.7908 13.5663 31.5893 14.0273 31.3394L15.0313 32.3433C15.0821 32.3941 15.1423 32.4344 15.2087 32.4619C15.275 32.4894 15.3462 32.5035 15.418 32.5035C15.4898 32.5035 15.5609 32.4894 15.6273 32.4619C15.6936 32.4344 15.7539 32.3941 15.8047 32.3433L18.1246 30.0234C18.326 29.8448 18.3775 29.503 18.1779 29.3037L17.1207 28.2461C17.3706 27.7851 17.572 27.2994 17.7219 26.7969H19.1406C19.2857 26.7969 19.4248 26.7393 19.5273 26.6367C19.6299 26.5341 19.6875 26.395 19.6875 26.25V25.1562H23.0222V24.0625H21.875V21.5709C21.8746 21.2166 21.7337 20.8769 21.4831 20.6263C21.2325 20.3757 20.8928 20.2348 20.5384 20.2344C20.2215 20.231 19.9145 20.3443 19.6757 20.5527C19.5323 20.6932 19.3413 20.7748 19.1406 20.7812C18.7482 20.7812 18.3707 20.438 18.1775 19.9062C18.4001 19.4023 18.0473 19.1179 18.0473 19.1179C18.0556 18.2388 18.5527 17.5 19.1406 17.5C19.3413 17.5065 19.5322 17.588 19.6756 17.7284C19.9144 17.9369 20.2215 18.0502 20.5384 18.0469C20.8928 18.0465 21.2325 17.9055 21.4831 17.655C21.7337 17.4044 21.8746 17.0647 21.875 16.7103V13.6719H24.9134C24.9778 13.672 25.0395 13.6976 25.085 13.7431C25.1305 13.7886 25.1562 13.8503 25.1562 13.9147C25.1586 13.9631 25.1441 14.0108 25.1152 14.0497C24.7954 14.393 24.615 14.8433 24.6094 15.3125C24.6094 16.5187 25.836 17.5 27.3438 17.5C28.8515 17.5 30.0781 16.5187 30.0781 15.3125C30.0725 14.8433 29.8921 14.3931 29.5723 14.0498C29.5434 14.0108 29.5289 13.9631 29.5312 13.9147C29.5313 13.8503 29.5569 13.7886 29.6024 13.7431C29.648 13.6976 29.7097 13.6719 29.7741 13.6719H32.8125V22.4219C32.812 22.8568 32.639 23.2739 32.3314 23.5814C32.0239 23.889 31.6068 24.062 31.1719 24.0625H28.295V25.1562H31.1719C31.8968 25.1554 32.5919 24.8671 33.1045 24.3545C33.6171 23.8419 33.9054 23.1468 33.9062 22.4219V3.82812C33.9054 3.10317 33.6171 2.40815 33.1045 1.89553C32.5919 1.38291 31.8968 1.09456 31.1719 1.09375ZM11.4844 2.1875H20.7812V4.67906C20.7816 5.03342 20.9226 5.37315 21.1732 5.62372C21.4237 5.87428 21.7635 6.01523 22.1178 6.01562C22.4347 6.01899 22.7418 5.90566 22.9805 5.69721C23.124 5.55674 23.3149 5.47522 23.5156 5.46875C24.1085 5.46875 24.6094 6.22009 24.6094 7.10938C24.6094 7.99866 24.1085 8.75 23.5156 8.75C23.315 8.74351 23.124 8.66199 22.9806 8.52154C22.7418 8.31308 22.4347 8.19974 22.1178 8.20312C21.7635 8.20352 21.4237 8.34447 21.1732 8.59503C20.9226 8.8456 20.7816 9.18533 20.7812 9.53969V12.5781H17.7428C17.609 12.5781 17.5365 12.5202 17.5042 12.4414C17.4852 12.4022 17.4785 12.3582 17.4851 12.3151C17.4917 12.272 17.5112 12.232 17.5412 12.2003C17.7057 12.0344 17.8353 11.8372 17.9222 11.6202C18.0091 11.4033 18.0515 11.1711 18.0469 10.9375C18.0469 9.7313 16.8202 8.75 15.3125 8.75C13.8048 8.75 12.5781 9.7313 12.5781 10.9375C12.5781 11.3924 12.7634 11.8201 13.084 12.2003C13.1107 12.2304 13.1295 12.2665 13.139 12.3056C13.1484 12.3446 13.148 12.3854 13.138 12.4243C13.0995 12.5397 13.0162 12.5781 12.8823 12.5781H9.84375V3.82812C9.84426 3.39316 10.0173 2.97615 10.3248 2.66859C10.6324 2.36102 11.0494 2.18801 11.4844 2.1875ZM18.5938 25.7031H17.3018C17.1786 25.7031 17.0591 25.7447 16.9625 25.8211C16.8659 25.8975 16.7979 26.0042 16.7696 26.1241C16.6086 26.804 16.3392 27.4536 15.9717 28.0479C15.907 28.1526 15.8795 28.2762 15.8938 28.3986C15.908 28.5209 15.9631 28.6348 16.0502 28.7219L16.9645 29.6362L15.4177 31.183L14.5035 30.2687C14.4164 30.1816 14.3024 30.1265 14.1801 30.1122C14.0577 30.098 13.9342 30.1254 13.8294 30.1902C13.2351 30.5579 12.5854 30.8274 11.9053 30.9884C11.7854 31.0168 11.6787 31.0848 11.6023 31.1814C11.5258 31.2781 11.4843 31.3977 11.4844 31.5209V32.8125H9.29688V31.5209C9.29687 31.3977 9.25531 31.2782 9.17891 31.1816C9.10252 31.085 8.99575 31.017 8.87592 30.9887C8.19595 30.8276 7.54637 30.5581 6.95215 30.1904C6.84736 30.1257 6.72379 30.0982 6.60145 30.1125C6.4791 30.1268 6.36515 30.1819 6.27806 30.269L5.36354 31.1833L3.81671 29.6365L4.73102 28.7222C4.81811 28.6351 4.87324 28.5212 4.8875 28.3988C4.90176 28.2765 4.87429 28.1529 4.80956 28.0481C4.44187 27.4538 4.17234 26.8041 4.01133 26.1241C3.98299 26.0043 3.91507 25.8976 3.81855 25.8212C3.72204 25.7448 3.60258 25.7032 3.47949 25.7031H2.1875V23.5156H3.47949C3.60264 23.5156 3.72218 23.4741 3.81876 23.3977C3.91534 23.3213 3.98332 23.2145 4.01167 23.0947C4.17261 22.4147 4.44202 21.7652 4.80956 21.1709C4.87429 21.0661 4.90176 20.9425 4.8875 20.8202C4.87324 20.6979 4.81811 20.5839 4.73102 20.4968L3.81671 19.5823L5.36354 18.0355L6.27778 18.9498C6.36488 19.0369 6.47883 19.092 6.60117 19.1062C6.72351 19.1205 6.84709 19.093 6.95187 19.0283C7.54619 18.6606 8.19586 18.3911 8.87592 18.2301C8.9957 18.2017 9.10242 18.1338 9.17881 18.0373C9.2552 17.9408 9.2968 17.8213 9.29688 17.6982V16.4062H11.4844V17.6982C11.4844 17.8214 11.5259 17.9409 11.6023 18.0375C11.6787 18.1341 11.7855 18.2021 11.9053 18.2304C12.5853 18.3914 13.2349 18.6608 13.8291 19.0283C13.9339 19.093 14.0575 19.1205 14.1798 19.1062C14.3021 19.092 14.4161 19.0369 14.5032 18.9498L15.4174 18.0355L16.9643 19.5823L16.05 20.4965C15.9629 20.5836 15.9077 20.6976 15.8935 20.8199C15.8792 20.9423 15.9067 21.0658 15.9714 21.1706C16.3391 21.7649 16.6086 22.4146 16.7696 23.0947C16.798 23.2146 16.866 23.3213 16.9627 23.3977C17.0593 23.4741 17.1789 23.5157 17.3021 23.5156H18.5938V25.7031ZM19.1406 21.875C19.5955 21.875 20.0195 21.6853 20.4034 21.3691C20.4387 21.3397 20.4821 21.3214 20.5278 21.3167C20.5736 21.312 20.6197 21.321 20.6603 21.3427C20.7008 21.3644 20.734 21.3976 20.7556 21.4383C20.7771 21.4789 20.7861 21.5251 20.7812 21.5708V24.0625H19.6875V22.9688C19.6875 22.8237 19.6299 22.6846 19.5273 22.5821C19.4248 22.4795 19.2857 22.4219 19.1406 22.4219H17.7219C17.572 21.9193 17.3706 21.4337 17.1207 20.9727L17.3599 20.7334C17.7647 21.4393 18.4253 21.875 19.1406 21.875ZM20.7812 16.7103C20.7812 16.9417 20.5705 17.0557 20.4034 16.9119C20.0264 16.5876 19.5955 16.406 19.1406 16.406C18.2085 16.406 17.4111 17.1389 17.0967 18.1675L15.8047 16.8755C15.7539 16.8248 15.6936 16.7845 15.6273 16.757C15.5609 16.7295 15.4898 16.7154 15.418 16.7154C15.3462 16.7154 15.275 16.7295 15.2087 16.757C15.1423 16.7845 15.0821 16.8248 15.0313 16.8755L14.0273 17.8793C13.5663 17.6294 13.0807 17.428 12.5781 17.2781V15.8594C12.5781 15.7143 12.5205 15.5752 12.4179 15.4727C12.3154 15.3701 12.1763 15.3125 12.0312 15.3125H9.84375V13.6719H12.8822C13.2365 13.6715 13.5763 13.5305 13.8268 13.28C14.0774 13.0294 14.2184 12.6897 14.2188 12.3353C14.2221 12.0184 14.1088 11.7114 13.9004 11.4726C13.7599 11.3292 13.6783 11.1382 13.6719 10.9375C13.6719 10.3446 14.4232 9.84375 15.3125 9.84375C16.2018 9.84375 16.9531 10.3446 16.9531 10.9375C16.9467 11.1382 16.8651 11.3291 16.7247 11.4725C16.5162 11.7113 16.4029 12.0184 16.4062 12.3353C16.4066 12.6897 16.5476 13.0294 16.7982 13.28C17.0487 13.5305 17.3885 13.6715 17.7428 13.6719H20.7812V16.7103ZM28.4375 13.9144C28.4342 14.2313 28.5475 14.5384 28.7558 14.7771C28.8964 14.9206 28.978 15.1117 28.9844 15.3125C28.9844 15.9054 28.233 16.4062 27.3438 16.4062C26.4545 16.4062 25.7031 15.9054 25.7031 15.3125C25.7096 15.1118 25.7911 14.9208 25.9317 14.7774C26.1401 14.5386 26.2534 14.2316 26.25 13.9147C26.2496 13.5603 26.1087 13.2206 25.8581 12.97C25.6075 12.7195 25.2678 12.5785 24.9134 12.5781H21.875V9.53969C21.8748 9.49987 21.8845 9.46064 21.9032 9.4255C21.922 9.39036 21.9491 9.36042 21.9823 9.33837C22.2046 9.19208 22.4918 9.53661 22.6773 9.63402C22.9358 9.7705 23.2234 9.84245 23.5156 9.84375C24.7218 9.84375 25.7031 8.61711 25.7031 7.10938C25.7031 5.60164 24.7218 4.375 23.5156 4.375C23.0464 4.38063 22.5962 4.561 22.2528 4.88086C22.1966 4.92094 22.1269 4.93725 22.0588 4.92625C21.9284 4.89563 21.875 4.81305 21.875 4.6792V2.1875H31.1719C31.6068 2.18801 32.0238 2.36102 32.3314 2.66859C32.639 2.97615 32.812 3.39316 32.8125 3.82812V12.5781H29.7741C29.4197 12.5785 29.08 12.7195 28.8294 12.97C28.5788 13.2206 28.4379 13.5603 28.4375 13.9147V13.9144Z" fill="#FFD500"/>
<path d="M32.5361 26.2721C32.3003 26.233 32.0588 26.2457 31.8284 26.3093C31.5981 26.3729 31.3843 26.4859 31.202 26.6405C31.1913 26.6497 31.1807 26.6589 31.1702 26.6683C30.8697 26.3989 30.4803 26.2499 30.0767 26.25C29.6731 26.2501 29.2837 26.3992 28.9833 26.6688C28.7642 26.4723 28.4962 26.3385 28.2075 26.2813C27.9189 26.2241 27.6201 26.2457 27.3427 26.3437V23.553C27.3427 22.6351 26.5916 21.8598 25.6739 21.8752C25.2439 21.8831 24.8341 22.0593 24.5326 22.3661C24.2311 22.6728 24.0619 23.0855 24.0614 23.5156V29.6592L22.5185 28.7725C22.1932 28.5855 21.8096 28.5271 21.4434 28.6089C21.0772 28.6906 20.7549 28.9066 20.54 29.2142C20.3161 29.5348 20.2261 29.9301 20.2892 30.316C20.3523 30.7019 20.5635 31.0479 20.8778 31.2805L24.2904 33.8044C24.3832 33.8707 24.4943 33.9063 24.6083 33.9063H33.3583C33.5033 33.9063 33.6424 33.8487 33.745 33.7461C33.8475 33.6435 33.9052 33.5044 33.9052 33.3594V27.9492C33.9052 27.1201 33.3166 26.3991 32.5361 26.2721ZM32.8114 32.8125H24.7835L21.4569 30.4625C21.4053 30.4261 21.3614 30.3797 21.3279 30.3261C21.2943 30.2725 21.2718 30.2127 21.2616 30.1503C21.2515 30.0879 21.2538 30.0241 21.2686 29.9626C21.2833 29.9011 21.3101 29.8432 21.3475 29.7922C21.418 29.6961 21.5219 29.6299 21.6387 29.6067C21.7556 29.5835 21.8769 29.605 21.9787 29.6669L24.3264 31.094C24.4281 31.155 24.5468 31.1813 24.6647 31.1689C24.7826 31.1566 24.8933 31.1063 24.9801 31.0256C25.0364 30.9718 25.081 30.9069 25.1112 30.8351C25.1413 30.7632 25.1563 30.6859 25.1552 30.608V23.535C25.1533 23.394 25.2047 23.2574 25.2992 23.1527C25.3936 23.0479 25.5241 22.9827 25.6646 22.97C25.7393 22.965 25.8144 22.9753 25.885 23.0005C25.9556 23.0256 26.0203 23.0649 26.0751 23.1161C26.1299 23.1673 26.1735 23.2291 26.2034 23.2978C26.2333 23.3666 26.2488 23.4407 26.2489 23.5156V27.871C26.247 28.0137 26.2996 28.1516 26.396 28.2568C26.4924 28.362 26.6253 28.4263 26.7676 28.4368C26.8401 28.4406 26.9126 28.4299 26.9809 28.4054C27.0493 28.3809 27.112 28.343 27.1655 28.294C27.2191 28.2449 27.2623 28.1857 27.2927 28.1198C27.3231 28.0539 27.3401 27.9826 27.3427 27.9101C27.3526 27.6266 27.5501 27.3758 27.8322 27.3467C27.9072 27.3389 27.9829 27.3466 28.0547 27.3694C28.1265 27.3921 28.1928 27.4294 28.2495 27.479C28.3062 27.5286 28.3521 27.5893 28.3843 27.6574C28.4165 27.7255 28.4343 27.7995 28.4365 27.8748C28.4365 28.0115 28.4861 28.1435 28.576 28.2464C28.6659 28.3493 28.7901 28.4162 28.9255 28.4345C29.0006 28.4425 29.0765 28.4349 29.1485 28.4121C29.2204 28.3893 29.2869 28.3519 29.3437 28.3022C29.4005 28.2525 29.4464 28.1915 29.4785 28.1232C29.5106 28.0548 29.5282 27.9806 29.5302 27.9051C29.5303 27.7686 29.58 27.6367 29.67 27.534C29.76 27.4313 29.8842 27.3648 30.0196 27.3467C30.0942 27.3389 30.1697 27.3465 30.2413 27.369C30.3129 27.3916 30.379 27.4286 30.4357 27.4778C30.4924 27.527 30.5383 27.5874 30.5707 27.6551C30.6031 27.7228 30.6212 27.7964 30.6239 27.8714C30.6341 28.1646 30.8479 28.4209 31.1408 28.4367C31.2149 28.4409 31.289 28.4299 31.3587 28.4045C31.4284 28.3791 31.4921 28.3397 31.5461 28.2889C31.6001 28.238 31.6431 28.1767 31.6726 28.1086C31.7021 28.0406 31.7174 27.9672 31.7177 27.893C31.7177 27.7523 31.7734 27.6173 31.8727 27.5176C31.972 27.4178 32.1067 27.3615 32.2474 27.3609C32.6405 27.3609 32.8114 27.6553 32.8114 27.9492V32.8125Z" fill="#FFD500"/>
<path d="M10.3906 19.6875C9.41717 19.6875 8.46558 19.9762 7.65618 20.517C6.84678 21.0578 6.21593 21.8265 5.84341 22.7259C5.47088 23.6252 5.37341 24.6148 5.56332 25.5696C5.75324 26.5243 6.222 27.4013 6.91034 28.0897C7.59867 28.778 8.47567 29.2468 9.43042 29.4367C10.3852 29.6266 11.3748 29.5291 12.2741 29.1566C13.1735 28.7841 13.9422 28.1532 14.483 27.3438C15.0238 26.5344 15.3125 25.5828 15.3125 24.6094C15.311 23.3045 14.792 22.0534 13.8693 21.1307C12.9466 20.208 11.6955 19.689 10.3906 19.6875ZM10.3906 28.4375C9.6335 28.4375 8.89337 28.213 8.26383 27.7923C7.6343 27.3717 7.14364 26.7738 6.8539 26.0743C6.56416 25.3748 6.48835 24.6051 6.63606 23.8625C6.78377 23.12 7.14836 22.4379 7.68373 21.9025C8.21911 21.3671 8.90121 21.0025 9.6438 20.8548C10.3864 20.7071 11.1561 20.7829 11.8556 21.0726C12.5551 21.3624 13.153 21.8531 13.5736 22.4826C13.9942 23.1121 14.2188 23.8522 14.2188 24.6094C14.2176 25.6243 13.8139 26.5973 13.0962 27.315C12.3786 28.0327 11.4056 28.4363 10.3906 28.4375Z" fill="#FFD500"/>
<path d="M10.3906 22.4219C9.95798 22.4219 9.53505 22.5502 9.17532 22.7905C8.81558 23.0309 8.53521 23.3725 8.36964 23.7723C8.20407 24.172 8.16075 24.6118 8.24516 25.0361C8.32956 25.4605 8.5379 25.8503 8.84383 26.1562C9.14976 26.4621 9.53953 26.6704 9.96387 26.7549C10.3882 26.8393 10.828 26.7959 11.2277 26.6304C11.6275 26.4648 11.9691 26.1844 12.2095 25.8247C12.4498 25.465 12.5781 25.042 12.5781 24.6094C12.5775 24.0294 12.3468 23.4734 11.9367 23.0633C11.5266 22.6532 10.9706 22.4225 10.3906 22.4219ZM10.3906 25.7031C10.1743 25.7031 9.96284 25.639 9.78297 25.5188C9.6031 25.3986 9.46292 25.2278 9.38013 25.0279C9.29735 24.8281 9.27569 24.6082 9.31789 24.396C9.36009 24.1838 9.46426 23.9889 9.61723 23.836C9.77019 23.683 9.96508 23.5788 10.1772 23.5366C10.3894 23.4944 10.6093 23.5161 10.8092 23.5989C11.009 23.6817 11.1799 23.8219 11.3 24.0017C11.4202 24.1816 11.4844 24.3931 11.4844 24.6094C11.484 24.8994 11.3687 25.1774 11.1636 25.3824C10.9586 25.5874 10.6806 25.7028 10.3906 25.7031Z" fill="#FFD500"/>
</svg>
