<svg width="35" height="35" viewBox="0 0 35 35" fill="none" xmlns="http://www.w3.org/2000/svg">
<path d="M14.0015 21.582C14.0015 26.3251 17.0739 30.332 20.7098 30.332C24.3457 30.332 27.4181 26.3251 27.4181 21.582C27.4181 16.8389 24.3457 12.832 20.7098 12.832C17.0739 12.832 14.0015 16.8389 14.0015 21.582ZM26.2515 21.582C26.2515 25.6928 23.7134 29.1654 20.7098 29.1654C17.7062 29.1654 15.1681 25.6928 15.1681 21.582C15.1681 17.4713 17.7062 13.9987 20.7098 13.9987C23.7134 13.9987 26.2515 17.4713 26.2515 21.582Z" fill="#FFD500"/>
<path d="M16.333 21.5807C16.333 25.3619 18.6383 27.9974 20.708 27.9974C22.7777 27.9974 25.083 25.3619 25.083 21.5807C25.083 17.7996 22.7777 15.1641 20.708 15.1641C18.6383 15.1641 16.333 17.7996 16.333 21.5807ZM23.9163 21.5807C23.9163 24.5371 22.1914 26.8307 20.708 26.8307C19.2246 26.8307 17.4997 24.5371 17.4997 21.5807C17.4997 18.6244 19.2246 16.3307 20.708 16.3307C22.1914 16.3307 23.9163 18.6244 23.9163 21.5807Z" fill="#FFD500"/>
<path d="M14.2925 34.9986H20.7091C26.9811 34.9986 32.0841 28.9797 32.0841 21.5819C32.0841 15.5829 28.7282 10.4915 24.1146 8.78005C17.6011 5.81846 16.8644 1.96088 16.7938 0.846712C16.7738 0.504794 16.5533 0.207138 16.2321 0.088379C15.9095 -0.0316803 15.5465 0.0471547 15.3028 0.290212L13.855 1.73688L11.9236 0.192212C11.6387 -0.0360456 11.2422 -0.0635238 10.9286 0.123273C10.615 0.31007 10.4503 0.671896 10.5154 1.03105C10.761 2.36688 11.7071 6.1428 14.6571 8.16521H14.2925C8.02048 8.16521 2.91748 14.184 2.91748 21.5819C2.91748 28.9797 8.02048 34.9986 14.2925 34.9986ZM30.9175 21.5819C30.9175 28.3369 26.3377 33.8319 20.7091 33.8319C15.0806 33.8319 10.5008 28.3369 10.5008 21.5819C10.5008 14.8269 15.0806 9.33188 20.7091 9.33188C26.3377 9.33188 30.9175 14.8269 30.9175 21.5819ZM11.8378 1.6173L13.3306 2.8108C13.679 3.09007 14.1818 3.06217 14.4972 2.74605L15.7065 1.5368C15.9556 2.95196 16.9268 5.67846 20.6065 8.16521H17.5731C13.7838 7.38005 12.3401 3.60413 11.8378 1.6173ZM14.2925 9.33188H16.0786C12.1085 11.4278 9.33415 16.1283 9.33415 21.5819C9.33415 27.0355 12.1085 31.736 16.0786 33.8319H14.2925C8.6639 33.8319 4.08415 28.3369 4.08415 21.5819C4.08415 14.8269 8.6639 9.33188 14.2925 9.33188Z" fill="#FFD500"/>
<path d="M7.21871 15.8091C7.07862 15.7434 6.91818 15.7361 6.77268 15.7887C6.62718 15.8413 6.50854 15.9496 6.44288 16.0897C4.96593 19.405 4.85796 23.1694 6.14246 26.564C6.21081 26.7637 6.38174 26.9109 6.58939 26.9489C6.79705 26.9869 7.00902 26.9097 7.14366 26.7472C7.2783 26.5846 7.31458 26.3619 7.23854 26.165C6.06032 23.0618 6.15381 19.619 7.49871 16.5843C7.63518 16.2929 7.50989 15.946 7.21871 15.8091Z" fill="#FFD500"/>
<path d="M8.33388 14.7182C8.50998 14.7184 8.67677 14.6391 8.78771 14.5023C9.02499 14.2106 9.28021 13.934 9.55188 13.674C9.7082 13.5311 9.77476 13.3146 9.72576 13.1086C9.67676 12.9025 9.5199 12.7392 9.31596 12.6819C9.11203 12.6246 8.89308 12.6824 8.74396 12.8328C8.43745 13.1257 8.1495 13.4374 7.88179 13.7662C7.74018 13.9407 7.71146 14.1811 7.80799 14.3842C7.90451 14.5872 8.10909 14.7167 8.33388 14.717V14.7182Z" fill="#FFD500"/>
</svg>
