<svg width="35" height="35" viewBox="0 0 35 35" fill="none" xmlns="http://www.w3.org/2000/svg">
<g clip-path="url(#clip0)">
<path d="M26.4837 3.87887L17.7337 0.0486995C17.5849 -0.0162332 17.4158 -0.0162332 17.267 0.0486995L8.51699 3.87887C8.30451 3.9716 8.16711 4.18136 8.16699 4.4132V13.5715C8.17015 15.6297 9.15919 17.5618 10.827 18.7679L16.8744 23.1295C17.2479 23.3998 17.7528 23.3998 18.1262 23.1295L24.1737 18.7684C25.8415 17.5624 26.8305 15.6303 26.8337 13.5721V4.4132C26.8335 4.18136 26.6961 3.9716 26.4837 3.87887ZM25.667 13.5721C25.6643 15.2556 24.8553 16.8358 23.4912 17.8223L17.5003 22.143L11.5095 17.8223C10.1453 16.8358 9.33633 15.2556 9.33366 13.5721V4.7947L17.5003 1.22003L25.667 4.7947V13.5721Z" fill="#FFD500"/>
<path d="M17.2672 2.59557L10.8505 5.40491C10.638 5.49764 10.5006 5.7074 10.5005 5.93924V13.5722C10.5023 14.881 11.1313 16.1096 12.1922 16.8762L17.1592 20.459C17.363 20.606 17.638 20.606 17.8417 20.459L22.8088 16.8762C23.8696 16.1096 24.4987 14.881 24.5005 13.5722V5.93924C24.5004 5.7074 24.363 5.49764 24.1505 5.40491L17.7338 2.59557C17.585 2.53064 17.4159 2.53064 17.2672 2.59557ZM23.3338 6.32016V13.5722C23.332 14.5061 22.8831 15.3827 22.1263 15.93L17.5005 19.2667L12.8747 15.93C12.1179 15.3827 11.6689 14.5061 11.6672 13.5722V6.32016L17.5005 3.76691L23.3338 6.32016Z" fill="#FFD500"/>
<path d="M4.83349 19.3654L3.57174 16.4173C3.30342 15.8095 2.73121 15.391 2.07067 15.3194C1.41013 15.2479 0.761601 15.5342 0.36938 16.0705C-0.022841 16.6068 -0.0991662 17.3115 0.169155 17.9194L2.45524 22.9483C2.76365 23.6291 3.1927 24.2484 3.72166 24.7764L7.31674 28.3721C7.11427 28.5867 7.00121 28.8704 7.00057 29.1654V33.8321C7.00057 34.4764 7.52291 34.9988 8.16724 34.9988H14.5839C15.2282 34.9988 15.7506 34.4764 15.7506 33.8321V29.1654C15.7506 28.5211 15.2282 27.9988 14.5839 27.9988V26.9132C14.6018 25.5317 14.1511 24.1848 13.3052 23.0924C12.8093 22.4401 12.1335 21.9472 11.361 21.6743C10.1324 21.1581 9.0025 20.433 8.02141 19.5311C7.11073 18.7811 5.817 18.7138 4.83349 19.3654ZM14.5839 33.8321H8.16724V29.1654H14.5839V33.8321ZM12.3947 23.8209C13.0746 24.7068 13.435 25.7966 13.4172 26.9132V27.9988H8.59366L4.54649 23.9516C4.11665 23.5224 3.76786 23.019 3.51691 22.4659L1.23082 17.4369C1.13326 17.2223 1.15142 16.9728 1.27903 16.7745C1.40664 16.5763 1.62622 16.4564 1.86199 16.4564C2.13945 16.4561 2.3902 16.6217 2.49899 16.8769L3.80391 19.9202C4.15042 20.7321 4.64988 21.4698 5.27507 22.0931L7.93974 24.7584C8.0862 24.91 8.30309 24.9708 8.50704 24.9174C8.71099 24.864 8.87026 24.7048 8.92365 24.5008C8.97703 24.2969 8.91621 24.08 8.76457 23.9335L6.09991 21.2683C5.83196 21.001 5.59104 20.7079 5.38066 20.3933C5.94085 19.9622 6.72456 19.9753 7.27007 20.4248C8.36052 21.4255 9.62084 22.2236 10.9917 22.7814C11.5503 22.9846 12.0377 23.3457 12.3947 23.8209Z" fill="#FFD500"/>
<path d="M12.8341 30.918H12.2508C11.9286 30.918 11.6675 31.1791 11.6675 31.5013C11.6675 31.8235 11.9286 32.0846 12.2508 32.0846H12.8341C13.1563 32.0846 13.4175 31.8235 13.4175 31.5013C13.4175 31.1791 13.1563 30.918 12.8341 30.918Z" fill="#FFD500"/>
<path d="M32.5458 22.9502L34.8319 17.9213C35.113 17.3114 35.0435 16.5974 34.65 16.0532C34.2565 15.5091 33.6002 15.2193 32.933 15.2951C32.2658 15.371 31.6912 15.8006 31.4299 16.4192L30.1711 19.3563C29.1842 18.7079 27.8898 18.7789 26.9797 19.5313C25.9986 20.4332 24.8687 21.1583 23.6401 21.6745C22.8676 21.9474 22.1917 22.4403 21.6958 23.0926C20.8496 24.1855 20.3989 25.533 20.4172 26.9151V28.0007C19.7728 28.0007 19.2505 28.523 19.2505 29.1674V33.834C19.2505 34.4784 19.7728 35.0007 20.4172 35.0007H26.8338C27.4782 35.0007 28.0005 34.4784 28.0005 33.834V29.1674C27.9999 28.8723 27.8868 28.5886 27.6843 28.374L31.2794 24.7784C31.8084 24.2504 32.2374 23.631 32.5458 22.9502ZM26.8338 33.834H20.4172V29.1674H26.8338V33.834ZM26.4074 28.0007H21.5838V26.9151C21.5662 25.7987 21.9266 24.7092 22.6064 23.8235C22.9626 23.3486 23.4489 22.9872 24.0064 22.7834C25.3776 22.2257 26.6381 21.4276 27.7287 20.4267C28.2736 19.9738 29.0595 19.9585 29.6216 20.39C29.4106 20.7069 29.1685 21.002 28.8988 21.2708L26.2342 23.9361C26.0131 24.1649 26.0163 24.5288 26.2413 24.7538C26.4663 24.9788 26.8301 24.982 27.059 24.7609L29.7237 22.0956C30.3489 21.4724 30.8483 20.7347 31.1948 19.9227L32.4998 16.8789C32.6089 16.624 32.8595 16.4587 33.1368 16.4589C33.3725 16.459 33.5921 16.5788 33.7197 16.7771C33.8473 16.9753 33.8655 17.2248 33.7679 17.4395L31.4818 22.4684C31.2309 23.0216 30.8821 23.5249 30.4523 23.9541L26.4074 28.0007Z" fill="#FFD500"/>
<path d="M22.7511 30.918H22.1678C21.8456 30.918 21.5845 31.1791 21.5845 31.5013C21.5845 31.8235 21.8456 32.0846 22.1678 32.0846H22.7511C23.0733 32.0846 23.3345 31.8235 23.3345 31.5013C23.3345 31.1791 23.0733 30.918 22.7511 30.918Z" fill="#FFD500"/>
<path d="M14.3508 12.3667C14.0931 12.1734 13.7275 12.2257 13.5342 12.4834C13.3409 12.7411 13.3931 13.1068 13.6508 13.3001L15.9842 15.0501C16.0852 15.1258 16.208 15.1667 16.3342 15.1667C16.3672 15.1666 16.4002 15.1639 16.4328 15.1586C16.5907 15.1315 16.7306 15.0405 16.8195 14.9072L21.4862 7.90716C21.6018 7.73377 21.6162 7.51184 21.5239 7.32497C21.4316 7.13811 21.2466 7.0147 21.0386 7.00122C20.8306 6.98775 20.6312 7.08627 20.5155 7.25966L16.1907 13.7469L14.3508 12.3667Z" fill="#FFD500"/>
</g>
<defs>
<clipPath id="clip0">
<rect width="35" height="35" fill="white"/>
</clipPath>
</defs>
</svg>
