<svg width="35" height="35" viewBox="0 0 35 35" fill="none" xmlns="http://www.w3.org/2000/svg">
<path d="M20.7812 7.10937C20.7812 6.4604 20.5888 5.82601 20.2283 5.28641C19.8677 4.74681 19.3552 4.32625 18.7557 4.0779C18.1561 3.82955 17.4964 3.76457 16.8599 3.89117C16.2234 4.01778 15.6387 4.33029 15.1798 4.78918C14.7209 5.24807 14.4084 5.83273 14.2818 6.46923C14.1552 7.10573 14.2202 7.76548 14.4685 8.36505C14.7169 8.96462 15.1374 9.47708 15.677 9.83763C16.2166 10.1982 16.851 10.3906 17.5 10.3906C18.3699 10.3896 19.204 10.0436 19.8191 9.42849C20.4343 8.81334 20.7803 7.97931 20.7812 7.10937ZM15.3125 7.10937C15.3125 6.67673 15.4408 6.2538 15.6812 5.89406C15.9215 5.53433 16.2632 5.25396 16.6629 5.08839C17.0626 4.92282 17.5024 4.8795 17.9268 4.96391C18.3511 5.04831 18.7409 5.25665 19.0468 5.56258C19.3527 5.86851 19.5611 6.25828 19.6455 6.68261C19.7299 7.10695 19.6865 7.54678 19.521 7.94649C19.3554 8.34621 19.075 8.68785 18.7153 8.92821C18.3556 9.16858 17.9326 9.29687 17.5 9.29687C16.92 9.29622 16.364 9.06554 15.9539 8.65545C15.5438 8.24535 15.3132 7.68933 15.3125 7.10937Z" fill="#FFD500"/>
<path d="M17.1864 16.3074C17.2783 16.3718 17.3878 16.4063 17.5 16.4063C17.6122 16.4063 17.7217 16.3718 17.8136 16.3074C18.8522 15.5423 19.8025 14.664 20.6471 13.6889C22.5237 11.5308 23.5156 9.25586 23.5156 7.10938C23.5156 5.51393 22.8818 3.98383 21.7537 2.85569C20.6255 1.72754 19.0954 1.09375 17.5 1.09375C15.9046 1.09375 14.3745 1.72754 13.2463 2.85569C12.1182 3.98383 11.4844 5.51393 11.4844 7.10938C11.4844 9.25586 12.4763 11.5308 14.3529 13.6889C15.1974 14.664 16.1478 15.5423 17.1864 16.3074ZM17.5 2.1875C18.8049 2.18897 20.056 2.70799 20.9787 3.6307C21.9014 4.55342 22.4204 5.80446 22.4219 7.10938C22.4219 11.0223 18.6291 14.2889 17.5 15.1746C16.3692 14.29 12.5781 11.0299 12.5781 7.10938C12.5796 5.80446 13.0986 4.55342 14.0213 3.6307C14.944 2.70799 16.1951 2.18897 17.5 2.1875Z" fill="#FFD500"/>
<path d="M10.7572 29.6633C10.4684 29.5745 10.3064 29.2684 10.3952 28.9797C10.484 28.691 10.79 28.5289 11.0787 28.6177L11.1271 28.6325C11.4159 28.7213 11.5779 29.0274 11.4891 29.3161C11.4003 29.6049 11.0943 29.767 10.8055 29.6782L10.7572 29.6633Z" fill="#FFD500"/>
<path d="M12.9447 30.3342C12.656 30.2454 12.4939 29.9393 12.5827 29.6506C12.6715 29.3618 12.9775 29.1997 13.2663 29.2885L13.3146 29.3034C13.6034 29.3922 13.7654 29.6982 13.6766 29.987C13.5878 30.2757 13.2818 30.4378 12.993 30.349L12.9447 30.3342Z" fill="#FFD500"/>
<path d="M15.1322 31.009C14.8434 30.9202 14.6814 30.6141 14.7702 30.3254C14.859 30.0367 15.165 29.8746 15.4537 29.9634L15.5021 29.9782C15.7909 30.067 15.9529 30.3731 15.8641 30.6618C15.7753 30.9506 15.4693 31.1127 15.1805 31.0239L15.1322 31.009Z" fill="#FFD500"/>
<path d="M31.8796 13.6959C31.8796 13.6959 24.3529 11.344 23.6765 11.1719C23 10.9998 22.5 11.9998 23.3548 12.2173C24.2096 12.4348 29.8594 14.2186 29.8594 14.2186L17.5 18.0214L5.14062 14.2186C5.14062 14.2186 10.79 12.4348 11.645 12.2173C12.5 11.9998 12 10.9998 11.3233 11.1719C10.6466 11.344 3.1202 13.6959 3.1202 13.6959C3.00846 13.7303 2.9107 13.7997 2.84126 13.8937C2.77182 13.9878 2.73436 14.1017 2.73438 14.2186V28.9842C2.73438 29.1012 2.77187 29.215 2.84135 29.3091C2.91082 29.4032 3.00863 29.4725 3.1204 29.5069L17.3392 33.8819C17.444 33.9141 17.556 33.9141 17.6608 33.8819L31.8796 29.5069C31.9914 29.4725 32.0892 29.4032 32.1587 29.3091C32.2281 29.215 32.2656 29.1012 32.2656 28.9842V14.2186C32.2656 14.1016 32.2281 13.9878 32.1587 13.8937C32.0892 13.7996 31.9914 13.7303 31.8796 13.6959ZM3.82812 14.9591L16.9531 18.9975V32.6187L3.82812 28.5803V14.9591ZM18.0469 32.6187V18.9975L31.1719 14.9591V28.5803L18.0469 32.6187Z" fill="#FFD500"/>
<path d="M24.6139 28.9922C24.5251 28.7034 24.6872 28.3974 24.9759 28.3086L25.0243 28.2937C25.313 28.2049 25.6191 28.367 25.7079 28.6557C25.7967 28.9445 25.6346 29.2505 25.3459 29.3393L25.2975 29.3542C25.0088 29.443 24.7027 29.2809 24.6139 28.9922Z" fill="#FFD500"/>
<path d="M26.7975 28.3208C26.7087 28.0321 26.8708 27.726 27.1596 27.6372L27.2079 27.6223C27.4966 27.5335 27.8027 27.6956 27.8915 27.9844C27.9803 28.2731 27.8182 28.5792 27.5294 28.668L27.4811 28.6829C27.1924 28.7717 26.8863 28.6096 26.7975 28.3208Z" fill="#FFD500"/>
<path d="M28.9889 27.6459C28.9001 27.3571 29.0622 27.0511 29.3509 26.9623L29.3993 26.9474C29.688 26.8586 29.9941 27.0207 30.0829 27.3094C30.1717 27.5982 30.0096 27.9042 29.7209 27.993L29.6725 28.0079C29.3838 28.0967 29.0777 27.9346 28.9889 27.6459Z" fill="#FFD500"/>
<path d="M13.125 23.1792C13.27 23.1792 13.4091 23.1216 13.5117 23.0191C13.6143 22.9165 13.6719 22.7774 13.6719 22.6324V19.898C13.6719 19.781 13.6344 19.6672 13.5649 19.5731C13.4954 19.479 13.3976 19.4097 13.2858 19.3753L7.8171 17.6926C7.7353 17.6674 7.64873 17.6618 7.56436 17.6762C7.47999 17.6906 7.40018 17.7245 7.33134 17.7754C7.26249 17.8262 7.20655 17.8925 7.168 17.9689C7.12944 18.0454 7.10937 18.1297 7.10938 18.2153V20.9497C7.10938 21.0666 7.14687 21.1805 7.21635 21.2746C7.28582 21.3687 7.38363 21.438 7.4954 21.4724L12.9642 23.1551C13.0163 23.1711 13.0705 23.1792 13.125 23.1792ZM12.5781 21.8919L8.20312 20.5458V18.9558L12.5781 20.3019V21.8919Z" fill="#FFD500"/>
<path d="M27.8906 20.9497V18.2153C27.8906 18.1297 27.8706 18.0454 27.832 17.9689C27.7935 17.8925 27.7375 17.8262 27.6687 17.7754C27.5998 17.7245 27.52 17.6906 27.4356 17.6762C27.3513 17.6618 27.2647 17.6674 27.1829 17.6926L21.7142 19.3753C21.6024 19.4097 21.5046 19.479 21.4351 19.5731C21.3656 19.6672 21.3281 19.7811 21.3281 19.898V22.6324C21.3281 22.718 21.3482 22.8024 21.3867 22.8788C21.4253 22.9552 21.4812 23.0215 21.5501 23.0723C21.6189 23.1232 21.6987 23.1572 21.7831 23.1715C21.8675 23.1859 21.954 23.1803 22.0358 23.1551L27.5046 21.4724C27.6164 21.438 27.7142 21.3687 27.7837 21.2746C27.8531 21.1805 27.8906 21.0667 27.8906 20.9497ZM26.7969 20.5458L22.4219 21.8919V20.3019L26.7969 18.9558V20.5458Z" fill="#FFD500"/>
</svg>
