<svg width="50" height="50" viewBox="0 0 50 50" fill="none" xmlns="http://www.w3.org/2000/svg">
<path d="M46.875 13.2812H12.5C11.8784 13.2813 11.2823 13.5282 10.8427 13.9677C10.4032 14.4073 10.1562 15.0034 10.1562 15.625V39.0625C10.1562 39.6841 10.4032 40.2802 10.8427 40.7198C11.2823 41.1593 11.8784 41.4062 12.5 41.4062H16.4062V48.4375C16.4062 48.577 16.4436 48.7139 16.5144 48.834C16.5851 48.9542 16.6868 49.0532 16.8088 49.1208C16.9307 49.1884 17.0686 49.2221 17.208 49.2185C17.3474 49.2148 17.4833 49.1739 17.6016 49.1L29.7211 41.5219C29.8453 41.4443 29.9887 41.4031 30.1352 41.4031H46.875C47.4966 41.4031 48.0927 41.1562 48.5323 40.7167C48.9718 40.2771 49.2188 39.681 49.2188 39.0594V15.625C49.2188 15.0034 48.9718 14.4073 48.5323 13.9677C48.0927 13.5282 47.4966 13.2813 46.875 13.2812ZM30.0898 34.2633C29.9683 34.3363 29.8293 34.3749 29.6875 34.3749C29.5457 34.3749 29.4067 34.3363 29.2852 34.2633C29.0148 34.1008 22.6562 30.2172 22.6562 24.2188C22.6562 23.3989 22.9142 22.5998 23.3936 21.9347C23.873 21.2696 24.5495 20.7722 25.3272 20.513C26.105 20.2537 26.9447 20.2457 27.7272 20.4902C28.5098 20.7346 29.1956 21.2191 29.6875 21.875C30.1794 21.2191 30.8652 20.7346 31.6478 20.4902C32.4303 20.2457 33.27 20.2537 34.0478 20.513C34.8255 20.7722 35.502 21.2696 35.9814 21.9347C36.4608 22.5998 36.7188 23.3989 36.7188 24.2188C36.7188 30.2172 30.3602 34.1008 30.0898 34.2633Z" fill="white"/>
<path d="M30.4688 6.25183H26.5625V2.48151C26.563 2.00332 26.4252 1.53519 26.1657 1.13355C25.9061 0.731913 25.536 0.413909 25.0998 0.217876C24.6637 0.0218416 24.1801 -0.0438547 23.7074 0.028706C23.2348 0.101267 22.7932 0.308987 22.4359 0.626828L16.4062 5.98776L10.3766 0.626828C10.0192 0.309335 9.57763 0.101916 9.10509 0.0295428C8.63256 -0.0428299 8.14917 0.0229296 7.71314 0.218904C7.27711 0.414878 6.90703 0.732712 6.64744 1.13414C6.38785 1.53556 6.24983 2.00347 6.25 2.48151V6.25183H2.34375C1.72215 6.25183 1.12601 6.49876 0.686468 6.9383C0.24693 7.37783 0 7.97398 0 8.59558V11.7206C0.00200232 12.2036 0.153191 12.6742 0.432881 13.068C0.712571 13.4618 1.1071 13.7596 1.5625 13.9206V30.4706C1.5625 31.0922 1.80943 31.6883 2.24897 32.1279C2.68851 32.5674 3.28465 32.8143 3.90625 32.8143H28.9062C29.5279 32.8143 30.124 32.5674 30.5635 32.1279C31.0031 31.6883 31.25 31.0922 31.25 30.4706V13.9206C31.7054 13.7596 32.0999 13.4618 32.3796 13.068C32.6593 12.6742 32.8105 12.2036 32.8125 11.7206V8.59558C32.8125 7.97398 32.5656 7.37783 32.126 6.9383C31.6865 6.49876 31.0904 6.25183 30.4688 6.25183ZM23.4734 1.7987C23.6054 1.68138 23.7685 1.60464 23.943 1.57772C24.1175 1.5508 24.2961 1.57483 24.4573 1.64694C24.6185 1.71904 24.7555 1.83615 24.8517 1.98419C24.948 2.13224 24.9995 2.30492 25 2.48151V6.25183H18.4609L23.4734 1.7987ZM20.3125 12.5018H12.5V7.81433H20.3125V12.5018ZM7.8125 2.48151C7.81315 2.30507 7.86467 2.13256 7.9609 1.98467C8.05713 1.83677 8.19398 1.71977 8.35503 1.6477C8.51608 1.57563 8.69451 1.55154 8.86891 1.57832C9.0433 1.6051 9.20628 1.68162 9.33828 1.7987L14.3516 6.25183H7.8125V2.48151ZM1.5625 8.59558C1.5625 8.38838 1.64481 8.18966 1.79132 8.04315C1.93784 7.89664 2.13655 7.81433 2.34375 7.81433H10.9375V12.5018H2.34375C2.13655 12.5018 1.93784 12.4195 1.79132 12.273C1.64481 12.1265 1.5625 11.9278 1.5625 11.7206V8.59558ZM3.125 30.4706V14.0643H12.5V31.2518H3.90625C3.69905 31.2518 3.50034 31.1695 3.35382 31.023C3.20731 30.8765 3.125 30.6778 3.125 30.4706ZM14.0625 31.2518V14.0643H18.75V31.2518H14.0625ZM29.6875 30.4706C29.6875 30.6778 29.6052 30.8765 29.4587 31.023C29.3122 31.1695 29.1135 31.2518 28.9062 31.2518H20.3125V14.0643H29.6875V30.4706ZM31.25 11.7206C31.25 11.9278 31.1677 12.1265 31.0212 12.273C30.8747 12.4195 30.676 12.5018 30.4688 12.5018H21.875V7.81433H30.4688C30.676 7.81433 30.8747 7.89664 31.0212 8.04315C31.1677 8.18966 31.25 8.38838 31.25 8.59558V11.7206Z" fill="#FFD500"/>
</svg>
