<svg width="50" height="50" viewBox="0 0 50 50" fill="none" xmlns="http://www.w3.org/2000/svg">
<path d="M29.6875 46.0938H23.4375C23.2303 46.0938 23.0316 46.0114 22.8851 45.8649C22.7386 45.7184 22.6562 45.5197 22.6562 45.3125V27.3438C22.6562 26.7221 22.9032 26.126 23.3427 25.6865C23.7823 25.2469 24.3784 25 25 25H28.125C28.7466 25 29.3427 25.2469 29.7823 25.6865C30.2218 26.126 30.4688 26.7221 30.4688 27.3438V45.3125C30.4688 45.5197 30.3864 45.7184 30.2399 45.8649C30.0934 46.0114 29.8947 46.0938 29.6875 46.0938Z" fill="white"/>
<path d="M39.0625 46.0938H32.8125C32.6053 46.0938 32.4066 46.0114 32.2601 45.8649C32.1136 45.7184 32.0312 45.5197 32.0312 45.3125V23.4375C32.0312 22.8159 32.2782 22.2198 32.7177 21.7802C33.1573 21.3407 33.7534 21.0938 34.375 21.0938H37.5C38.1216 21.0938 38.7177 21.3407 39.1573 21.7802C39.5968 22.2198 39.8438 22.8159 39.8438 23.4375V45.3125C39.8438 45.5197 39.7614 45.7184 39.6149 45.8649C39.4684 46.0114 39.2697 46.0938 39.0625 46.0938Z" fill="white"/>
<path d="M48.4375 46.0938H42.1875C41.9803 46.0938 41.7816 46.0114 41.6351 45.8649C41.4886 45.7184 41.4062 45.5197 41.4062 45.3125V19.5312C41.4062 18.9096 41.6532 18.3135 42.0927 17.874C42.5323 17.4344 43.1284 17.1875 43.75 17.1875H46.875C47.4966 17.1875 48.0927 17.4344 48.5323 17.874C48.9718 18.3135 49.2188 18.9096 49.2188 19.5312V45.3125C49.2188 45.5197 49.1364 45.7184 48.9899 45.8649C48.8434 46.0114 48.6447 46.0938 48.4375 46.0938Z" fill="white"/>
<path d="M15.625 28.9062H18.75C19.3716 28.9062 19.9677 29.1532 20.4073 29.5927C20.8468 30.0323 21.0938 30.6284 21.0938 31.25V45.3125C21.0938 45.5197 21.0114 45.7184 20.8649 45.8649C20.7184 46.0114 20.5197 46.0938 20.3125 46.0938H14.0625C13.8553 46.0938 13.6566 46.0114 13.5101 45.8649C13.3636 45.7184 13.2812 45.5197 13.2812 45.3125V31.25C13.2812 30.6284 13.5282 30.0323 13.9677 29.5927C14.4073 29.1532 15.0034 28.9062 15.625 28.9062Z" fill="white"/>
<path d="M48.4375 47.6562H12.5C12.2928 47.6562 12.0941 47.5739 11.9476 47.4274C11.8011 47.2809 11.7188 47.0822 11.7188 46.875V10.9375C11.7188 10.7303 11.6364 10.5316 11.4899 10.3851C11.3434 10.2386 11.1447 10.1562 10.9375 10.1562C10.7303 10.1562 10.5316 10.2386 10.3851 10.3851C10.2386 10.5316 10.1562 10.7303 10.1562 10.9375V46.875C10.1562 47.4966 10.4032 48.0927 10.8427 48.5323C11.2823 48.9718 11.8784 49.2188 12.5 49.2188H48.4375C48.6447 49.2188 48.8434 49.1364 48.9899 48.9899C49.1364 48.8434 49.2188 48.6447 49.2188 48.4375C49.2188 48.2303 49.1364 48.0316 48.9899 47.8851C48.8434 47.7386 48.6447 47.6562 48.4375 47.6562Z" fill="white"/>
<path d="M15.625 13.6047L21.3227 19.3023C21.4692 19.4488 21.6678 19.5311 21.875 19.5311C22.0822 19.5311 22.2808 19.4488 22.4273 19.3023L35.9375 5.79219L38.5102 8.36484C38.6194 8.47407 38.7586 8.54845 38.9101 8.57858C39.0617 8.60871 39.2187 8.59324 39.3615 8.53412C39.5042 8.47501 39.6262 8.3749 39.712 8.24645C39.7979 8.11801 39.8437 7.96699 39.8438 7.8125V1.5625C39.8438 1.3553 39.7614 1.15659 39.6149 1.01007C39.4684 0.86356 39.2697 0.78125 39.0625 0.78125H32.8125C32.658 0.781283 32.507 0.82712 32.3785 0.912968C32.2501 0.998815 32.15 1.12082 32.0909 1.26355C32.0318 1.40629 32.0163 1.56334 32.0464 1.71487C32.0765 1.86639 32.1509 2.00558 32.2602 2.11484L34.8328 4.6875L21.875 17.6453L16.1773 11.9477C16.0308 11.8012 15.8322 11.7189 15.625 11.7189C15.4178 11.7189 15.2192 11.8012 15.0727 11.9477L5.46875 21.5516V3.125C5.46875 2.5034 5.22182 1.90726 4.78228 1.46772C4.34274 1.02818 3.7466 0.78125 3.125 0.78125C2.5034 0.78125 1.90726 1.02818 1.46772 1.46772C1.02818 1.90726 0.78125 2.5034 0.78125 3.125V35.9375C0.782491 36.9731 1.19444 37.966 1.92673 38.6983C2.65903 39.4306 3.65188 39.8425 4.6875 39.8438H37.5C38.1216 39.8438 38.7177 39.5968 39.1573 39.1573C39.5968 38.7177 39.8438 38.1216 39.8438 37.5C39.8438 36.8784 39.5968 36.2823 39.1573 35.8427C38.7177 35.4032 38.1216 35.1562 37.5 35.1562H6.25C6.0428 35.1562 5.84409 35.0739 5.69757 34.9274C5.55106 34.7809 5.46875 34.5822 5.46875 34.375V23.7609L15.625 13.6047ZM34.6984 2.34375H38.2812V5.92656L34.6984 2.34375ZM6.25 36.7188H37.5C37.7072 36.7188 37.9059 36.8011 38.0524 36.9476C38.1989 37.0941 38.2812 37.2928 38.2812 37.5C38.2812 37.7072 38.1989 37.9059 38.0524 38.0524C37.9059 38.1989 37.7072 38.2812 37.5 38.2812H4.6875C4.0659 38.2812 3.46976 38.0343 3.03022 37.5948C2.59068 37.1552 2.34375 36.5591 2.34375 35.9375V3.125C2.34375 2.9178 2.42606 2.71909 2.57257 2.57257C2.71909 2.42606 2.9178 2.34375 3.125 2.34375C3.3322 2.34375 3.53091 2.42606 3.67743 2.57257C3.82394 2.71909 3.90625 2.9178 3.90625 3.125V34.375C3.90625 34.9966 4.15318 35.5927 4.59272 36.0323C5.03226 36.4718 5.6284 36.7188 6.25 36.7188Z" fill="#FFD500"/>
</svg>
