<svg width="35" height="35" viewBox="0 0 35 35" fill="none" xmlns="http://www.w3.org/2000/svg">
<path d="M14 21.5833C14 26.3263 17.0724 30.3333 20.7083 30.3333C24.3443 30.3333 27.4167 26.3263 27.4167 21.5833C27.4167 16.8402 24.3443 12.8333 20.7083 12.8333C17.0724 12.8333 14 16.8402 14 21.5833ZM26.25 21.5833C26.25 25.694 23.7119 29.1666 20.7083 29.1666C17.7048 29.1666 15.1667 25.694 15.1667 21.5833C15.1667 17.4725 17.7048 13.9999 20.7083 13.9999C23.7119 13.9999 26.25 17.4725 26.25 21.5833Z" fill="#FFD500"/>
<path d="M16.332 21.5833C16.332 25.3645 18.6374 28 20.707 28C22.7767 28 25.082 25.3645 25.082 21.5833C25.082 17.8021 22.7767 15.1666 20.707 15.1666C18.6374 15.1666 16.332 17.8021 16.332 21.5833ZM23.9154 21.5833C23.9154 24.5396 22.1904 26.8333 20.707 26.8333C19.2236 26.8333 17.4987 24.5396 17.4987 21.5833C17.4987 18.627 19.2236 16.3333 20.707 16.3333C22.1904 16.3333 23.9154 18.627 23.9154 21.5833Z" fill="#FFD500"/>
<path d="M14.293 34.9997H20.7096C26.9816 34.9997 32.0846 28.9809 32.0846 21.5831C32.0846 15.5841 28.7287 10.4928 24.1151 8.78126C17.6016 5.81968 16.8649 1.9621 16.7943 0.847932C16.7743 0.506014 16.5538 0.208358 16.2326 0.0895996C15.91 -0.0304596 15.547 0.0483753 15.3033 0.291433L13.8555 1.7381L11.9241 0.193433C11.6392 -0.0348249 11.2426 -0.062303 10.9291 0.124494C10.6155 0.31129 10.4508 0.673116 10.5159 1.03227C10.7615 2.3681 11.7076 6.14401 14.6576 8.16643H14.293C8.02097 8.16643 2.91797 14.1853 2.91797 21.5831C2.91797 28.9809 8.02097 34.9997 14.293 34.9997ZM30.918 21.5831C30.918 28.3381 26.3382 33.8331 20.7096 33.8331C15.0811 33.8331 10.5013 28.3381 10.5013 21.5831C10.5013 14.8281 15.0811 9.33309 20.7096 9.33309C26.3382 9.33309 30.918 14.8281 30.918 21.5831ZM11.8383 1.61852L13.3311 2.81201C13.6795 3.09129 14.1823 3.06338 14.4977 2.74726L15.707 1.53802C15.9561 2.95318 16.9273 5.67968 20.607 8.16643H17.5736C13.7843 7.38126 12.3406 3.60535 11.8383 1.61852ZM14.293 9.33309H16.0791C12.109 11.429 9.33464 16.1295 9.33464 21.5831C9.33464 27.0367 12.109 31.7372 16.0791 33.8331H14.293C8.66439 33.8331 4.08464 28.3381 4.08464 21.5831C4.08464 14.8281 8.66439 9.33309 14.293 9.33309Z" fill="#FFD500"/>
<path d="M7.21724 15.8082C7.07716 15.7425 6.91671 15.7352 6.77121 15.7878C6.62571 15.8404 6.50708 15.9487 6.44141 16.0888C4.96446 19.4041 4.8565 23.1686 6.141 26.5631C6.20935 26.7629 6.38027 26.9101 6.58793 26.9481C6.79558 26.9861 7.00756 26.9089 7.14219 26.7463C7.27683 26.5837 7.31312 26.3611 7.23708 26.1641C6.05885 23.0609 6.15234 19.6182 7.49724 16.5835C7.63371 16.2921 7.50843 15.9452 7.21724 15.8082Z" fill="#FFD500"/>
<path d="M8.33241 14.7184C8.50851 14.7186 8.6753 14.6393 8.78625 14.5025C9.02352 14.2108 9.27874 13.9342 9.55041 13.6742C9.70674 13.5313 9.7733 13.3148 9.72429 13.1087C9.67529 12.9027 9.51843 12.7393 9.3145 12.6821C9.11057 12.6248 8.89162 12.6826 8.7425 12.833C8.43599 13.1259 8.14804 13.4376 7.88033 13.7664C7.73871 13.9409 7.71 14.1813 7.80652 14.3843C7.90304 14.5873 8.10762 14.7168 8.33241 14.7172V14.7184Z" fill="#FFD500"/>
</svg>
