<svg width="35" height="35" viewBox="0 0 35 35" fill="none" xmlns="http://www.w3.org/2000/svg">
<path d="M8.20312 30.625C8.52761 30.625 8.84481 30.5288 9.1146 30.3485C9.3844 30.1682 9.59469 29.912 9.71886 29.6122C9.84304 29.3124 9.87553 28.9826 9.81222 28.6643C9.74892 28.3461 9.59266 28.0537 9.36322 27.8243C9.13377 27.5948 8.84144 27.4386 8.52319 27.3753C8.20494 27.312 7.87507 27.3445 7.57528 27.4686C7.2755 27.5928 7.01927 27.8031 6.83899 28.0729C6.65872 28.3427 6.5625 28.6599 6.5625 28.9844C6.56299 29.4194 6.736 29.8364 7.04357 30.1439C7.35114 30.4515 7.76815 30.6245 8.20312 30.625ZM8.20312 28.4375C8.31128 28.4375 8.41702 28.4696 8.50695 28.5297C8.59688 28.5898 8.66698 28.6752 8.70837 28.7751C8.74976 28.875 8.76059 28.985 8.73949 29.0911C8.71839 29.1972 8.6663 29.2946 8.58982 29.3711C8.51334 29.4476 8.4159 29.4996 8.30981 29.5207C8.20373 29.5418 8.09377 29.531 7.99384 29.4896C7.89392 29.4482 7.80851 29.3781 7.74841 29.2882C7.68832 29.1983 7.65625 29.0925 7.65625 28.9844C7.65641 28.8394 7.71408 28.7004 7.8166 28.5979C7.91913 28.4953 8.05813 28.4377 8.20312 28.4375Z" fill="#FFD500"/>
<path d="M27.3438 27.3438C27.0193 27.3438 26.7021 27.44 26.4323 27.6202C26.1625 27.8005 25.9522 28.0568 25.828 28.3565C25.7038 28.6563 25.6713 28.9862 25.7346 29.3044C25.798 29.6227 25.9542 29.915 26.1837 30.1445C26.4131 30.3739 26.7054 30.5302 27.0237 30.5935C27.3419 30.6568 27.6718 30.6243 27.9716 30.5001C28.2714 30.3759 28.5276 30.1657 28.7079 29.8959C28.8882 29.6261 28.9844 29.3089 28.9844 28.9844C28.9839 28.5494 28.8109 28.1324 28.5033 27.8248C28.1957 27.5172 27.7787 27.3442 27.3438 27.3438ZM27.3438 29.5313C27.2356 29.5313 27.1299 29.4992 27.0399 29.4391C26.95 29.379 26.8799 29.2936 26.8385 29.1937C26.7971 29.0937 26.7863 28.9838 26.8074 28.8777C26.8285 28.7716 26.8806 28.6742 26.9571 28.5977C27.0335 28.5212 27.131 28.4691 27.2371 28.448C27.3431 28.4269 27.4531 28.4377 27.553 28.4791C27.653 28.5205 27.7384 28.5906 27.7985 28.6806C27.8586 28.7705 27.8906 28.8762 27.8906 28.9844C27.8905 29.1294 27.8328 29.2684 27.7303 29.3709C27.6278 29.4734 27.4887 29.5311 27.3438 29.5313Z" fill="#FFD500"/>
<path fill-rule="evenodd" clip-rule="evenodd" d="M30.1198 10.9375H32.8125C32.9575 10.9375 33.0966 10.9951 33.1992 11.0977C33.3018 11.2002 33.3594 11.3393 33.3594 11.4844V28.9844C33.3594 29.1294 33.3018 29.2685 33.1992 29.3711C33.0966 29.4736 32.9575 29.5312 32.8125 29.5312H30.5785C30.5031 29.9738 30.3379 30.3962 30.093 30.7724C29.8481 31.1486 29.5287 31.4707 29.1546 31.7188C29.0719 31.7451 28.9931 31.7707 28.9172 31.7953C28.3679 31.9737 27.9726 32.1021 27.3438 32.1021C26.7149 32.1021 26.3196 31.9737 25.7703 31.7953C25.6944 31.7707 25.6156 31.7451 25.5329 31.7188C25.1588 31.4707 24.8394 31.1486 24.5945 30.7724C24.3496 30.3962 24.1844 29.9738 24.109 29.5312H11.4379C11.3625 29.9738 11.1972 30.3962 10.9523 30.7724C10.7074 31.1486 10.3881 31.4707 10.014 31.7188C9.3728 32.0367 8.91878 32.143 8.20312 32.143C7.48747 32.143 7.03345 32.0367 6.39229 31.7188C6.01816 31.4707 5.69881 31.1486 5.45391 30.7724C5.20902 30.3962 5.04377 29.9738 4.96836 29.5312H2.1875C2.04246 29.5312 1.90336 29.4736 1.8008 29.3711C1.69824 29.2685 1.64062 29.1294 1.64062 28.9844V21.3281C1.64058 21.233 1.66532 21.1394 1.7124 21.0567L6.0874 13.4005C6.13537 13.3168 6.20455 13.2473 6.28796 13.199C6.37138 13.1506 6.46608 13.1251 6.5625 13.125H12.0312V11.4844C12.0312 11.3393 12.0889 11.2002 12.1914 11.0977C12.294 10.9951 12.4331 10.9375 12.5781 10.9375H15.8177C16.3397 9.5778 17.2379 8.39477 18.4074 7.5267C19.5769 6.65863 20.9693 6.1414 22.4219 6.03545V5.46875H21.3281C21.1831 5.46875 21.044 5.41113 20.9414 5.30857C20.8389 5.20602 20.7812 5.06692 20.7812 4.92188V3.28125C20.7812 3.13621 20.8389 2.99711 20.9414 2.89455C21.044 2.79199 21.1831 2.73438 21.3281 2.73438H24.6094C24.7544 2.73438 24.8935 2.79199 24.9961 2.89455C25.0986 2.99711 25.1562 3.13621 25.1562 3.28125V4.92188C25.1562 5.06692 25.0986 5.20602 24.9961 5.30857C24.8935 5.41113 24.7544 5.46875 24.6094 5.46875H23.5156V6.03545C25.2973 6.16217 26.9781 6.90992 28.2652 8.14844L29.1443 7.26934C29.1951 7.21853 29.2555 7.17822 29.3219 7.15072C29.3882 7.12322 29.4594 7.10907 29.5312 7.10907C29.6031 7.10907 29.6743 7.12322 29.7406 7.15072C29.807 7.17822 29.8674 7.21853 29.9182 7.26934C29.969 7.32015 30.0093 7.38047 30.0368 7.44685C30.0643 7.51324 30.0784 7.58439 30.0784 7.65625C30.0784 7.72811 30.0643 7.79926 30.0368 7.86565C30.0093 7.93203 29.969 7.99235 29.9182 8.04316L29.0001 8.96123C29.4695 9.56064 29.8469 10.2267 30.1198 10.9375ZM21.875 3.82812V4.375H24.0625V3.82812H21.875ZM26.6147 8.21536C25.5355 7.49426 24.2667 7.10938 22.9688 7.10938C21.2289 7.11146 19.5609 7.80353 18.3307 9.03378C17.1004 10.264 16.4083 11.932 16.4062 13.6719C16.4062 14.9698 16.7911 16.2386 17.5122 17.3178C18.2333 18.397 19.2582 19.2381 20.4574 19.7348C21.6565 20.2315 22.976 20.3615 24.249 20.1083C25.522 19.8551 26.6914 19.23 27.6091 18.3123C28.5269 17.3945 29.1519 16.2252 29.4052 14.9522C29.6584 13.6792 29.5284 12.3597 29.0317 11.1605C28.535 9.96137 27.6939 8.93645 26.6147 8.21536ZM9.84375 15.8594H5.94248L3.13018 20.7812H9.84375V15.8594ZM3.82812 23.5156H2.73438V24.6094H3.82812C3.97317 24.6094 4.11227 24.5518 4.21482 24.4492C4.31738 24.3466 4.375 24.2075 4.375 24.0625C4.375 23.9175 4.31738 23.7784 4.21482 23.6758C4.11227 23.5732 3.97317 23.5156 3.82812 23.5156ZM2.73438 28.4375H4.96836C5.09747 27.673 5.49319 26.9789 6.08534 26.4784C6.67748 25.9778 7.42777 25.7032 8.20312 25.7032C8.97848 25.7032 9.72877 25.9778 10.3209 26.4784C10.9131 26.9789 11.3088 27.673 11.4379 28.4375H12.0312V14.2188H6.87969L6.56729 14.7656H10.3906C10.5357 14.7656 10.6748 14.8232 10.7773 14.9258C10.8799 15.0284 10.9375 15.1675 10.9375 15.3125V21.3281C10.9375 21.4732 10.8799 21.6123 10.7773 21.7148C10.6748 21.8174 10.5357 21.875 10.3906 21.875H2.73438V22.4219H3.82812C4.26325 22.4219 4.68055 22.5947 4.98822 22.9024C5.2959 23.2101 5.46875 23.6274 5.46875 24.0625C5.46875 24.4976 5.2959 24.9149 4.98822 25.2226C4.68055 25.5303 4.26325 25.7031 3.82812 25.7031H2.73438V28.4375ZM6.98782 30.8032C7.34755 31.0436 7.77048 31.1719 8.20312 31.1719C8.78312 31.1713 9.3392 30.9407 9.74932 30.5306C10.1594 30.1205 10.3901 29.5644 10.3906 28.9844C10.3906 28.5517 10.2623 28.1288 10.022 27.7691C9.7816 27.4093 9.43996 27.129 9.04025 26.9634C8.64053 26.7978 8.2007 26.7545 7.77636 26.8389C7.35203 26.9233 6.96226 27.1317 6.65633 27.4376C6.3504 27.7435 6.14206 28.1333 6.05766 28.5576C5.97325 28.9819 6.01657 29.4218 6.18214 29.8215C6.34771 30.2212 6.62808 30.5628 6.98782 30.8032ZM26.1284 30.8032C26.4882 31.0436 26.9111 31.1719 27.3438 31.1719C27.9237 31.1713 28.4798 30.9407 28.8899 30.5306C29.3001 30.1205 29.5307 29.5644 29.5312 28.9844C29.5312 28.5517 29.403 28.1288 29.1626 27.7691C28.9222 27.4093 28.5806 27.129 28.1809 26.9634C27.7812 26.7978 27.3413 26.7545 26.917 26.8389C26.4927 26.9233 26.1029 27.1317 25.797 27.4376C25.491 27.7435 25.2827 28.1333 25.1983 28.5576C25.1139 28.9819 25.1572 29.4218 25.3228 29.8215C25.4883 30.2212 25.7687 30.5628 26.1284 30.8032ZM30.5785 28.4375H32.2656V24.6094H13.125V28.4375H24.109C24.2381 27.673 24.6338 26.9789 25.226 26.4784C25.8181 25.9778 26.5684 25.7032 27.3438 25.7032C28.1191 25.7032 28.8694 25.9778 29.4615 26.4784C30.0537 26.9789 30.4494 27.673 30.5785 28.4375ZM13.125 23.5156H32.2656V12.0312H30.4473C30.6925 13.1494 30.6839 14.3083 30.422 15.4226C30.1602 16.537 29.6518 17.5785 28.9343 18.4704C28.2168 19.3623 27.3084 20.082 26.276 20.5765C25.2436 21.0709 24.1135 21.3276 22.9688 21.3276C21.824 21.3276 20.6939 21.0709 19.6615 20.5765C18.6291 20.082 17.7207 19.3623 17.0032 18.4704C16.2857 17.5785 15.7773 16.537 15.5155 15.4226C15.2536 14.3083 15.245 13.1494 15.4902 12.0312H13.125V23.5156Z" fill="#FFD500"/>
<path d="M22.9687 19.6875C24.1585 19.6875 25.3216 19.3347 26.3108 18.6737C27.3001 18.0127 28.0711 17.0732 28.5264 15.9739C28.9818 14.8747 29.1009 13.6652 28.8688 12.4983C28.6367 11.3314 28.0637 10.2595 27.2224 9.41819C26.3811 8.57689 25.3092 8.00396 24.1423 7.77184C22.9754 7.53973 21.7659 7.65886 20.6667 8.11416C19.5675 8.56947 18.6279 9.34051 17.9669 10.3298C17.3059 11.319 16.9531 12.4821 16.9531 13.6719C16.9549 15.2668 17.5893 16.7958 18.7171 17.9236C19.8448 19.0513 21.3739 19.6857 22.9687 19.6875ZM22.9687 8.75C23.9422 8.75 24.8938 9.03866 25.7032 9.57949C26.5126 10.1203 27.1434 10.889 27.516 11.7884C27.8885 12.6877 27.986 13.6773 27.796 14.6321C27.6061 15.5868 27.1374 16.4638 26.449 17.1522C25.7607 17.8405 24.8837 18.3093 23.929 18.4992C22.9742 18.6891 21.9846 18.5916 21.0852 18.2191C20.1859 17.8466 19.4172 17.2157 18.8764 16.4063C18.3355 15.5969 18.0469 14.6453 18.0469 13.6719C18.0483 12.367 18.5674 11.1159 19.4901 10.1932C20.4128 9.27049 21.6638 8.75147 22.9687 8.75Z" fill="#FFD500"/>
<path d="M23.6758 15.1523C23.7266 15.2031 23.7869 15.2434 23.8532 15.2709C23.9196 15.2984 23.9907 15.3125 24.0625 15.3125C24.1343 15.3125 24.2054 15.2984 24.2718 15.2709C24.3381 15.2434 24.3984 15.2031 24.4492 15.1523C24.5 15.1016 24.5403 15.0413 24.5678 14.9749C24.5952 14.9086 24.6094 14.8374 24.6094 14.7656C24.6094 14.6938 24.5952 14.6227 24.5678 14.5563C24.5403 14.49 24.5 14.4297 24.4492 14.3789L23.5156 13.4454V11.4844C23.5156 11.3393 23.458 11.2002 23.3554 11.0977C23.2529 10.9951 23.1138 10.9375 22.9688 10.9375C22.8237 10.9375 22.6846 10.9951 22.5821 11.0977C22.4795 11.2002 22.4219 11.3393 22.4219 11.4844V13.6719C22.4219 13.7437 22.436 13.8148 22.4635 13.8812C22.491 13.9475 22.5313 14.0078 22.582 14.0586L23.6758 15.1523Z" fill="#FFD500"/>
</svg>
