<svg width="50" height="50" viewBox="0 0 50 50" fill="none" xmlns="http://www.w3.org/2000/svg">
<path d="M44.4456 35.5352C45.0165 33.9069 45.3096 32.1943 45.3128 30.4688C45.3054 27.5707 44.494 24.7315 42.9689 22.2671C41.4438 19.8028 39.2649 17.8099 36.6745 16.5102C36.5099 14.7713 35.7026 13.1562 34.4106 11.9807C33.1185 10.8052 31.4346 10.1538 29.6878 10.1538C27.941 10.1538 26.2571 10.8052 24.965 11.9807C23.673 13.1562 22.8657 14.7713 22.7011 16.5102C20.1108 17.8099 17.9319 19.8028 16.4068 22.2672C14.8817 24.7316 14.0703 27.5707 14.0628 30.4688C14.066 32.1945 14.3592 33.9074 14.93 35.536C13.8171 35.9128 12.8165 36.5626 12.0196 37.426C11.2227 38.2894 10.655 39.3388 10.3685 40.4782C10.0819 41.6177 10.0856 42.8108 10.3792 43.9484C10.6729 45.0861 11.2471 46.1319 12.0493 46.9903C12.8515 47.8488 13.8561 48.4924 14.9713 48.8622C16.0865 49.2321 17.2766 49.3165 18.4328 49.1076C19.5891 48.8987 20.6745 48.4033 21.5897 47.6666C22.505 46.93 23.221 45.9755 23.6722 44.8907C25.5782 45.6851 27.6228 46.0941 29.6878 46.0941C31.7528 46.0941 33.7974 45.6851 35.7034 44.8907C36.1539 45.9773 36.8698 46.9334 37.7856 47.6717C38.7013 48.4099 39.7876 48.9066 40.945 49.1163C42.1024 49.326 43.2939 49.242 44.4104 48.872C45.527 48.502 46.5328 47.8578 47.3359 46.9983C48.139 46.1389 48.7137 45.0918 49.0073 43.9527C49.3008 42.8137 49.304 41.6192 49.0164 40.4787C48.7288 39.3381 48.1597 38.288 47.3612 37.4243C46.5626 36.5606 45.5602 35.9111 44.4456 35.5352ZM42.9284 35.1938H42.9206C42.6771 35.1689 42.4326 35.1564 42.1878 35.1563C40.3236 35.1584 38.5364 35.8998 37.2182 37.218C35.9001 38.5362 35.1586 40.3234 35.1566 42.1876C35.1652 42.587 35.1993 42.9855 35.2589 43.3805C33.4988 44.1363 31.6033 44.526 29.6878 44.526C27.7723 44.526 25.8768 44.1363 24.1167 43.3805C24.1763 42.9855 24.2105 42.587 24.2191 42.1876C24.217 40.3234 23.4755 38.5362 22.1574 37.218C20.8392 35.8998 19.052 35.1584 17.1878 35.1563C16.9428 35.1561 16.698 35.1684 16.4542 35.193H16.4472C15.9009 33.678 15.6228 32.0793 15.6253 30.4688C15.6306 27.9867 16.2907 25.55 17.5389 23.4046C18.7872 21.2592 20.5794 19.4812 22.7347 18.2501C22.9883 19.9118 23.8288 21.4277 25.104 22.5231C26.3791 23.6184 28.0045 24.2206 29.6855 24.2206C31.3664 24.2206 32.9918 23.6184 34.267 22.5231C35.5421 21.4277 36.3827 19.9118 36.6362 18.2501C38.7924 19.4806 40.5855 21.2584 41.8347 23.4038C43.0838 25.5492 43.7446 27.9863 43.7503 30.4688C43.7529 32.0796 43.4748 33.6785 42.9284 35.1938Z" fill="white"/>
<path d="M16.3624 14.5861C16.2803 14.3958 16.1259 14.2459 15.9332 14.1694C15.7406 14.0929 15.5254 14.0961 15.3351 14.1783C15.1448 14.2604 14.9949 14.4148 14.9184 14.6075C14.8419 14.8001 14.8451 15.0153 14.9273 15.2056C15.3753 16.2375 16.1092 17.1195 17.0424 17.7476C17.9756 18.3757 19.0691 18.7236 20.1937 18.7501H20.4507C21.5721 18.7207 22.6618 18.3714 23.5913 17.7434C24.5209 17.1154 25.2517 16.2349 25.6976 15.2056C25.7798 15.0153 25.7829 14.8001 25.7065 14.6075C25.63 14.4148 25.4801 14.2604 25.2898 14.1783C25.0995 14.0961 24.8843 14.0929 24.6917 14.1694C24.499 14.2459 24.3446 14.3958 24.2624 14.5861C23.9377 15.3388 23.4051 15.9833 22.727 16.4441C22.049 16.9048 21.2537 17.1628 20.4343 17.1876H20.2148C19.3914 17.1667 18.5912 16.9106 17.9086 16.4496C17.226 15.9886 16.6895 15.342 16.3624 14.5861Z" fill="#FFD500"/>
<path d="M32.9906 16.2991C34.0699 15.7562 35.0158 14.9814 35.7607 14.0301C36.5055 13.0788 37.0308 11.9747 37.299 10.7967C37.5672 9.61863 37.5717 8.39589 37.312 7.21595C37.0524 6.036 36.5351 4.92805 35.7972 3.97141C35.0593 3.01476 34.1191 2.23307 33.0438 1.68231C31.9684 1.13154 30.7846 0.825324 29.5771 0.785567C28.3696 0.74581 27.1683 0.9735 26.059 1.45234C24.9498 1.93118 23.9602 2.64932 23.1609 3.55536C21.3034 2.99638 19.3224 2.99638 17.4648 3.55536C16.6653 2.64966 15.6754 1.93192 14.5661 1.45355C13.4567 0.975169 12.2553 0.747977 11.0478 0.788238C9.84041 0.8285 8.6568 1.13522 7.58176 1.68643C6.50673 2.23765 5.56686 3.01972 4.82944 3.97667C4.09202 4.93362 3.57529 6.04178 3.31625 7.22179C3.05722 8.40181 3.06227 9.6245 3.33106 10.8023C3.59984 11.9802 4.12571 13.084 4.87102 14.0348C5.61633 14.9856 6.56263 15.7599 7.64219 16.3022C5.63036 17.0541 3.89572 18.4017 2.66982 20.1651C1.44391 21.9286 0.785076 24.0241 0.78125 26.1718V31.2499C0.78125 31.4571 0.86356 31.6558 1.01007 31.8023C1.15659 31.9488 1.3553 32.0311 1.5625 32.0311H7.23906C7.1017 32.8049 7.03217 33.5891 7.03125 34.3749V39.0624C7.03125 39.2696 7.11356 39.4683 7.26007 39.6148C7.40659 39.7613 7.6053 39.8437 7.8125 39.8437H32.8125C33.0197 39.8437 33.2184 39.7613 33.3649 39.6148C33.5114 39.4683 33.5937 39.2696 33.5937 39.0624V34.3749C33.5928 33.5891 33.5233 32.8049 33.3859 32.0311H39.0625C39.2697 32.0311 39.4684 31.9488 39.6149 31.8023C39.7614 31.6558 39.8437 31.4571 39.8437 31.2499V26.1718C39.8479 24.0229 39.1932 21.9244 37.9678 20.1591C36.7424 18.3938 35.0053 17.0466 32.9906 16.2991ZM29.2969 2.34364C31.0221 2.34591 32.6786 3.01947 33.9159 4.22172C35.1532 5.42397 35.874 7.06054 35.9258 8.78494C35.9776 10.5093 35.3562 12.1862 34.1933 13.4605C33.0304 14.7349 31.4172 15.5066 29.6953 15.6124C29.9426 14.726 30.0713 13.8107 30.0781 12.8905C30.0671 11.0859 29.5616 9.31881 28.6164 7.78146C27.6712 6.24412 26.3226 4.99536 24.7172 4.17098C25.9505 2.9933 27.5916 2.33847 29.2969 2.34364ZM23.1437 5.18661C24.9469 5.84583 26.4617 7.11664 27.4244 8.77773C28.3871 10.4388 28.7367 12.385 28.4122 14.2772C28.0878 16.1695 27.1099 17.8881 25.6489 19.1336C24.1878 20.3791 22.3362 21.0727 20.4164 21.0936C20.3031 21.0936 20.2516 21.0936 20.1203 21.0936C18.2112 21.0476 16.3778 20.3373 14.936 19.0851C13.4942 17.8329 12.5342 16.1171 12.2212 14.2332C11.9083 12.3493 12.2621 10.4153 13.2216 8.76415C14.1811 7.11303 15.6864 5.84816 17.4781 5.18739C19.3085 4.52501 21.3132 4.52473 23.1437 5.18661ZM4.6875 8.98427C4.68662 7.68429 5.06732 6.41264 5.78239 5.32699C6.49746 4.24135 7.51546 3.38946 8.71015 2.87697C9.90484 2.36447 11.2237 2.2139 12.5032 2.44392C13.7826 2.67395 14.9664 3.27446 15.9078 4.17098C14.3018 4.99453 12.9526 6.2431 12.0073 7.78063C11.062 9.31816 10.5568 11.0857 10.5469 12.8905C10.5539 13.8107 10.6826 14.726 10.9297 15.6124C9.24126 15.509 7.65572 14.766 6.49598 13.5345C5.33624 12.3031 4.68951 10.6759 4.6875 8.98427ZM2.34375 26.1718C2.34755 24.975 2.58962 23.7909 3.05586 22.6886C3.52209 21.5863 4.20315 20.5879 5.0593 19.7516C5.91545 18.9153 6.92956 18.2578 8.04247 17.8176C9.15539 17.3774 10.3448 17.1631 11.5414 17.1874C12.5388 19.1888 14.1828 20.7948 16.207 21.7452C14.1827 22.4087 12.3464 23.5467 10.8514 25.0642C9.35628 26.5817 8.24578 28.4347 7.6125 30.4686H2.34375V26.1718ZM32.0312 38.2812H8.59375V34.3749C8.59375 27.171 15.05 22.2327 20.5125 22.664C23.5866 22.7096 26.519 23.9641 28.6748 26.1559C30.8307 28.3478 32.0365 31.3005 32.0312 34.3749V38.2812ZM38.2812 30.4686H33.0117C32.3789 28.4361 31.2701 26.5839 29.7775 25.0661C28.2848 23.5483 26.4514 22.4087 24.4297 21.7421C26.4463 20.7865 28.0847 19.1829 29.0836 17.1874C30.2815 17.1581 31.4731 17.3689 32.5883 17.8073C33.7034 18.2458 34.7195 18.903 35.5767 19.7403C36.4339 20.5776 37.1148 21.578 37.5793 22.6826C38.0438 23.7871 38.2824 24.9735 38.2812 26.1718V30.4686Z" fill="#FFD500"/>
</svg>
