<svg width="32" height="32" viewBox="0 0 32 32" fill="none" xmlns="http://www.w3.org/2000/svg">
<path d="M11.7576 18.5358C13.1868 18.5358 14.3453 19.5555 14.3453 20.8144C14.3453 22.0732 13.1868 23.0938 11.7576 23.0938C10.3285 23.0938 9.17086 22.0732 9.17086 20.8144C9.17086 19.5555 10.3285 18.5358 11.7576 18.5358ZM23.2014 18.5358C24.6306 18.5358 25.7891 19.5555 25.7891 20.8144C25.7891 22.0732 24.6306 23.0938 23.2014 23.0938C21.7732 23.0938 20.6147 22.0732 20.6147 20.8144C20.6147 19.5555 21.7732 18.5358 23.2014 18.5358ZM11.7576 19.7197C11.0713 19.7197 10.5149 20.209 10.5149 20.8144C10.5149 21.4189 11.0704 21.9099 11.7576 21.9099C12.444 21.9099 13.0013 21.4189 13.0013 20.8144C13.0013 20.2098 12.444 19.7197 11.7576 19.7197ZM23.2014 19.7197C22.5151 19.7197 21.9587 20.209 21.9587 20.8144C21.9587 21.4189 22.5151 21.9099 23.2014 21.9099C23.8887 21.9099 24.4451 21.4189 24.4451 20.8144C24.4451 20.2098 23.8887 19.7197 23.2014 19.7197ZM20.9274 9C21.2679 9 21.5483 9.22257 21.5931 9.51144L21.5994 9.59194L21.5985 11.9045H23.0393C23.808 11.9045 24.5177 12.258 24.9164 12.8295L24.997 12.9558L26.4692 15.4648L27.7523 15.73C28.3597 15.8547 28.8006 16.3085 28.857 16.8468L28.8624 16.9636V20.1648C28.8624 20.8254 28.289 21.3676 27.556 21.4261L27.4243 21.4316H26.0149V20.2477H27.4243C27.4637 20.2477 27.4969 20.2264 27.5112 20.1964L27.5184 20.1648V16.9636C27.5184 16.9344 27.5023 16.9083 27.4754 16.8934L27.4458 16.8823L25.8617 16.5556C25.7855 16.5398 25.7147 16.5129 25.6502 16.4766H20.9462C20.6057 16.4766 20.3244 16.2541 20.2796 15.9644L20.2742 15.8847L20.2724 12.6322L20.2616 12.5769L20.2554 12.4972L20.2545 10.1839H7.83133V11.4814H6.48732V9.59194C6.48732 9.29202 6.73999 9.04499 7.06883 9.00552L7.15932 9H20.9274ZM20.1882 20.2469V21.4308H14.6087V20.2469H20.1873H20.1882ZM7.83222 17.1001L7.83133 20.2469H8.86353V21.4308H7.15932C6.81884 21.4308 6.53839 21.2082 6.49359 20.9193L6.48732 20.8396V17.1001H7.83133H7.83222ZM13.099 15.6013C13.4699 15.6013 13.771 15.8665 13.771 16.1933C13.771 16.4932 13.5183 16.741 13.1903 16.7805L13.099 16.7852H4.67201C4.30106 16.7852 4 16.5208 4 16.1933C4 15.8934 4.25267 15.6463 4.58061 15.6069L4.67201 15.6013H13.099ZM23.0393 13.0891L21.6173 13.0883V15.292H24.8546L23.8036 13.4988C23.6718 13.2754 23.4245 13.1254 23.145 13.0947L23.0393 13.0891ZM14.8829 13.8366C15.2539 13.8366 15.5549 14.1018 15.5549 14.4285C15.5549 14.7284 15.3022 14.9755 14.9743 15.0149L14.8829 15.0204H7.22204C6.85109 15.0204 6.55004 14.7553 6.55004 14.4285C6.55004 14.1286 6.80271 13.8816 7.13065 13.8421L7.22204 13.8366H14.8829ZM14.1213 11.8847C14.4931 11.8847 14.7933 12.1491 14.7933 12.4767C14.7933 12.7766 14.5415 13.0236 14.2136 13.0631L14.1222 13.0686H5.69525C5.3243 13.0686 5.02324 12.8034 5.02324 12.4767C5.02324 12.1768 5.27591 11.9289 5.60385 11.8895L5.69525 11.8847H14.1222H14.1213Z" fill="#999999"/>
</svg>
