<svg width="18" height="18" viewBox="0 0 18 18" fill="none" xmlns="http://www.w3.org/2000/svg">
<path d="M9 2.25C7.2735 2.25 5.86275 3.5745 5.7855 5.235L5.7825 5.3775V6.8595H4.935C4.31625 6.8595 3.804 7.32825 3.75375 7.91775L3.75 8.01225V14.5972C3.75 15.1995 4.2315 15.6975 4.839 15.7463L4.935 15.75H13.0635C13.683 15.75 14.196 15.282 14.2455 14.6918L14.2493 14.5972V8.01225C14.2493 7.41075 13.7678 6.912 13.1603 6.86325L13.0635 6.8595H12.2175V5.37825C12.2175 3.65175 10.776 2.25 9 2.25ZM13.2338 7.84725V14.7623H4.76625V7.84725H13.2338ZM9 10.5998C8.5875 10.5998 8.25 10.9373 8.25 11.3498C8.25 11.7622 8.5875 12.0997 9 12.0997C9.4125 12.0997 9.75 11.7622 9.75 11.3498C9.75 10.9373 9.4125 10.5998 9 10.5998ZM9 3.23775C10.176 3.23775 11.1338 4.1295 11.1975 5.25675L11.2013 5.37825V6.8595H6.79875V5.37825C6.79875 4.19325 7.78125 3.23775 9 3.23775Z" fill="#999999"/>
</svg>
