<svg width="60" height="61" viewBox="0 0 60 61" fill="none" xmlns="http://www.w3.org/2000/svg">
<ellipse cx="30" cy="30.0947" rx="30" ry="29.9424" fill="white" fill-opacity="0.9"/>
<path d="M34.0848 34.3263C33.9327 34.224 33.7408 34.206 33.5713 34.2765L27.0087 37.0109C26.8048 37.0957 26.6719 37.2953 26.6719 37.5157V43.5313C26.6719 43.7211 26.7703 43.8966 26.9311 43.9967C27.0191 44.0508 27.1187 44.0782 27.2188 44.0782C27.3024 44.0782 27.3861 44.059 27.4632 44.0207L34.0257 40.7395C34.2111 40.6465 34.3281 40.4573 34.3281 40.2501V34.7813C34.3281 34.5987 34.2368 34.428 34.0848 34.3263ZM33.2344 39.9121L27.7656 42.6465V37.8804L33.2344 35.6016V39.9121Z" fill="#FFD500"/>
<path d="M47.1305 19.517L36.193 14.5951C36.0502 14.5311 35.8867 14.5311 35.7445 14.5951L24.807 19.517C24.6107 19.6056 24.4844 19.8003 24.4844 20.0157V25.6775L13.8695 30.4545C13.6732 30.5431 13.5469 30.7378 13.5469 30.9532V41.8907C13.5469 42.0898 13.6557 42.2735 13.8302 42.3698L24.7677 48.3854C24.8497 48.4308 24.9405 48.4532 25.0312 48.4532C25.122 48.4532 25.2128 48.4308 25.2948 48.3854L36.2323 42.3698C36.4068 42.2735 36.5156 42.0898 36.5156 41.8907V37.2921L47.1698 31.4323C47.3443 31.336 47.4531 31.1523 47.4531 30.9532V20.0157C47.4531 19.8003 47.3268 19.6056 47.1305 19.517ZM25.0312 35.2752L21.417 33.6488L30.8019 29.2278L34.636 30.9532L25.0312 35.2752ZM29.4894 28.6372L19.8759 33.1659C19.685 33.2561 19.5625 33.4481 19.5625 33.6603V36.6309L18.4688 36.084V33.0193L28.4968 28.1904L29.4894 28.6372ZM25.5781 25.6775V20.8617L28.3125 22.0922V25.4845C28.3125 25.6917 28.4295 25.881 28.6149 25.9739L30.8024 27.0677C30.8795 27.106 30.9632 27.1251 31.0469 27.1251C31.147 27.1251 31.2465 27.0978 31.3345 27.0436C31.4953 26.9435 31.5938 26.768 31.5938 26.5782V23.5688L35.4219 25.2914V30.1078L25.5781 25.6775ZM30.8139 22.2284C30.6225 22.3186 30.5 22.5106 30.5 22.7228V25.6934L29.4062 25.1465V22.0818L39.4343 17.2529L40.4269 17.6997L30.8139 22.2284ZM35.9688 24.3377L32.3545 22.7113L41.7394 18.2903L45.5735 20.0157L35.9688 24.3377ZM35.9688 15.6938L38.1305 16.6667L28.8517 21.1352L26.364 20.0157L35.9688 15.6938ZM25.0312 26.6313L27.193 27.6042L17.9137 32.0727L15.4265 30.9532L25.0312 26.6313ZM14.6406 31.7992L17.375 33.0297V36.422C17.375 36.6292 17.492 36.8185 17.6774 36.9114L19.8649 38.0052C19.942 38.0435 20.0257 38.0626 20.1094 38.0626C20.2095 38.0626 20.309 38.0353 20.397 37.9811C20.5578 37.881 20.6562 37.7055 20.6562 37.5157V34.5063L24.4844 36.2289V46.9816L14.6406 41.5675V31.7992ZM25.5781 46.981V36.2289L35.4219 31.7992V41.5675L25.5781 46.981ZM36.5156 36.0441V30.9532V25.2914L46.3594 20.8617V30.63L36.5156 36.0441Z" fill="#FFD500"/>
<path d="M45.0223 23.3889C44.8708 23.2872 44.6777 23.2686 44.5088 23.3391L37.9463 26.0735C37.7423 26.1583 37.6094 26.3579 37.6094 26.5783V32.5939C37.6094 32.7837 37.7078 32.9592 37.8686 33.0593C37.9566 33.1134 38.0562 33.1408 38.1562 33.1408C38.2399 33.1408 38.3236 33.1216 38.4007 33.0833L44.9632 29.8021C45.1486 29.7091 45.2656 29.5199 45.2656 29.3126V23.8439C45.2656 23.6612 45.1743 23.4906 45.0223 23.3889ZM44.1719 28.9747L38.7031 31.7091V26.943L44.1719 24.6642V28.9747Z" fill="#FFD500"/>
</svg>
