<svg width="60" height="61" viewBox="0 0 60 61" fill="none" xmlns="http://www.w3.org/2000/svg">
<ellipse cx="30" cy="30.0869" rx="30" ry="29.9423" fill="white" fill-opacity="0.9"/>
<path d="M47.3 26.6H44.5V15.4C44.4993 14.6272 43.8728 14.0007 43.1 14H17.9C17.1272 14.0007 16.5007 14.6272 16.5 15.4V26.6H13.7C13.3134 26.6 13 26.9134 13 27.3V32.9C13 33.2866 13.3134 33.6 13.7 33.6H16.5V39.9C16.5 40.088 16.5762 40.2681 16.7112 40.399C16.5738 40.6796 16.5017 40.9876 16.5 41.3V42.7C16.5014 43.8594 17.4406 44.7986 18.6 44.8V46.9C18.6014 48.0594 19.5406 48.9986 20.7 49H23.5C24.6594 48.9986 25.5986 48.0594 25.6 46.9V44.8H35.4V46.9C35.4014 48.0594 36.3406 48.9986 37.5 49H40.3C41.4594 48.9986 42.3986 48.0594 42.4 46.9V44.8C43.5594 44.7986 44.4986 43.8594 44.5 42.7V41.3C44.4983 40.9876 44.4262 40.6796 44.2891 40.399C44.4238 40.2681 44.5 40.088 44.5 39.9V33.6H47.3C47.6866 33.6 48 33.2866 48 32.9V27.3C48 26.9134 47.6866 26.6 47.3 26.6ZM42.4 39.2V34.6746L43.1 34.2081V39.2H42.4ZM22.8 39.2V37.1C22.8 36.9144 22.7262 36.7363 22.5949 36.6051L21.1949 35.2051C21.0637 35.0738 20.8856 35 20.7 35H20V23.1C20.0014 21.9406 20.9406 21.0014 22.1 21H38.9C40.0594 21.0014 40.9986 21.9406 41 23.1V35H40.3C40.1144 35 39.9363 35.0738 39.8051 35.2051L38.4051 36.6051C38.2738 36.7363 38.2 36.9144 38.2 37.1V39.2H22.8ZM17.9 39.2V34.2081L18.6 34.6746V39.2H17.9ZM20 36.4H20.4102L21.4 37.3898V39.2H20V36.4ZM39.6 37.3898L40.5898 36.4H41V39.2H39.6V37.3898ZM17.9 15.4H43.1V32.5254L42.4 32.9919V23.1C42.3976 21.1678 40.8322 19.6024 38.9 19.6H22.1C20.1678 19.6024 18.6024 21.1678 18.6 23.1V32.9919L17.9 32.5254V15.4ZM14.4 32.2V28H16.5V32.2H14.4ZM24.2 46.9C24.1997 47.2862 23.8862 47.5997 23.5 47.6H20.7C20.3138 47.5997 20.0003 47.2862 20 46.9V44.8H24.2V46.9ZM41 46.9C40.9997 47.2862 40.6862 47.5997 40.3 47.6H37.5C37.1138 47.5997 36.8003 47.2862 36.8 46.9V44.8H41V46.9ZM43.1 42.7C43.0997 43.0862 42.7862 43.3997 42.4 43.4H18.6C18.2138 43.3997 17.9003 43.0862 17.9 42.7V41.3C17.9003 40.9138 18.2138 40.6003 18.6 40.6H42.4C42.7862 40.6003 43.0997 40.9138 43.1 41.3V42.7ZM46.6 32.2H44.5V28H46.6V32.2Z" fill="#FFD500"/>
<path d="M24.6496 33.5999H36.3493C36.4446 33.5999 36.5386 33.5804 36.6261 33.5428L39.8763 32.1428C40.133 32.0321 40.2994 31.7795 40.2994 31.4999V23.7999C40.3121 23.0408 39.7084 22.4146 38.9493 22.3999H22.0495C21.2904 22.4146 20.6868 23.0408 20.6994 23.7999V31.4999C20.6994 31.7795 20.8659 32.0321 21.1226 32.1428L24.3727 33.5428C24.4602 33.5804 24.5542 33.5999 24.6496 33.5999ZM22.0495 23.7999H38.8994V31.0392L36.205 32.1999H34.0555L34.4554 31.4999H36.4494C36.836 31.4999 37.1494 31.1865 37.1494 30.7999C37.1494 30.4133 36.836 30.0999 36.4494 30.0999H32.2494C31.8628 30.0999 31.5494 30.4133 31.5494 30.7999C31.5494 31.1865 31.8628 31.4999 32.2494 31.4999H32.8431L32.4432 32.1999H27.0555L27.4554 31.4999H29.4494C29.836 31.4999 30.1494 31.1865 30.1494 30.7999C30.1494 30.4133 29.836 30.0999 29.4494 30.0999H25.2494C24.8628 30.0999 24.5494 30.4133 24.5494 30.7999C24.5494 31.1865 24.8628 31.4999 25.2494 31.4999H25.8431L25.4432 32.1999H24.7938L22.0963 31.0378L22.0495 23.7999Z" fill="#FFD500"/>
<path d="M36.0992 37.1001H24.8992C24.5126 37.1001 24.1992 37.4135 24.1992 37.8001C24.1992 38.1867 24.5126 38.5001 24.8992 38.5001H36.0992C36.4858 38.5001 36.7992 38.1867 36.7992 37.8001C36.7992 37.4135 36.4858 37.1001 36.0992 37.1001Z" fill="#FFD500"/>
<path d="M36.0992 35H24.8992C24.5126 35 24.1992 35.3134 24.1992 35.7C24.1992 36.0866 24.5126 36.4 24.8992 36.4H36.0992C36.4858 36.4 36.7992 36.0866 36.7992 35.7C36.7992 35.3134 36.4858 35 36.0992 35Z" fill="#FFD500"/>
</svg>
