<svg width="60" height="61" viewBox="0 0 60 61" fill="none" xmlns="http://www.w3.org/2000/svg">
<ellipse cx="30" cy="30.433" rx="30" ry="29.9423" fill="white" fill-opacity="0.9"/>
<path d="M41.8752 25.8049C41.7634 25.8049 41.6516 25.7661 41.5586 25.6877C41.5122 25.6481 40.4057 24.7081 39.2867 23.258C38.6244 22.3996 38.0952 21.5388 37.714 20.7002C37.2258 19.6273 36.9785 18.5841 36.9785 17.5995C36.9785 16.907 37.1077 16.2352 37.3636 15.6021C37.6101 14.9914 37.9629 14.4426 38.4126 13.9713C38.8622 13.4992 39.3859 13.1294 39.9695 12.8711C40.5735 12.6037 41.2145 12.4675 41.8752 12.4675C42.5359 12.4675 43.177 12.6029 43.781 12.8711C44.3637 13.1294 44.8874 13.4992 45.3371 13.9705C45.7867 14.4417 46.1395 14.9906 46.386 15.6013C46.6412 16.2344 46.7711 16.9062 46.7711 17.5986C46.7711 18.5833 46.5238 19.6265 46.0356 20.6994C45.6544 21.538 45.1252 22.3988 44.4629 23.2571C43.3439 24.7081 42.2375 25.6481 42.191 25.6869C42.0989 25.7661 41.987 25.8049 41.8752 25.8049ZM41.8752 13.524C39.7308 13.524 37.9865 15.3521 37.9865 17.5995C37.9865 19.4944 39.1197 21.3613 40.071 22.5944C40.7751 23.5072 41.4815 24.2112 41.8752 24.5801C42.2721 24.2079 42.9864 23.4956 43.692 22.5779C44.637 21.3498 45.7639 19.4886 45.7639 17.5995C45.7639 15.3521 44.0196 13.524 41.8752 13.524Z" fill="#FFD500"/>
<path d="M41.8762 20.5215C41.5368 20.5215 41.2068 20.4547 40.8966 20.3243C40.5965 20.1977 40.328 20.0169 40.0965 19.7859C39.8657 19.5556 39.6838 19.2868 39.557 18.9873C39.4255 18.6776 39.3594 18.3483 39.3594 18.0096C39.3594 17.6708 39.4263 17.3415 39.557 17.0318C39.6838 16.7323 39.8649 16.4643 40.0965 16.2332C40.3272 16.0029 40.5965 15.8214 40.8966 15.6948C41.2068 15.5636 41.5368 15.4976 41.8762 15.4976C42.2156 15.4976 42.5456 15.5644 42.8559 15.6948C43.1559 15.8214 43.4244 16.0022 43.656 16.2332C43.8867 16.4635 44.0686 16.7323 44.1954 17.0318C44.3269 17.3415 44.3931 17.6708 44.3931 18.0096C44.3931 18.3483 44.3261 18.6776 44.1954 18.9873C44.0686 19.2868 43.8875 19.5548 43.656 19.7859C43.4252 20.0162 43.1559 20.1977 42.8559 20.3243C42.5456 20.4555 42.2156 20.5215 41.8762 20.5215ZM41.8762 16.5036C41.0438 16.5036 40.3674 17.1796 40.3674 18.0096C40.3674 18.8395 41.0446 19.5155 41.8762 19.5155C42.7086 19.5155 43.3851 18.8395 43.3851 18.0096C43.3851 17.1796 42.7086 16.5036 41.8762 16.5036Z" fill="#FFD500"/>
<path fill-rule="evenodd" clip-rule="evenodd" d="M14.4195 23.9302C17.1756 17.5056 23.504 13.3398 30.5062 13.3408C33.0299 13.3412 34.8955 13.6906 37.0625 14.6508C37.0625 14.6508 36.8268 15.2509 36.6778 15.9608C36.6043 16.3109 36.625 16.8341 36.625 16.8341L36.0106 17.3543C35.9296 17.3946 35.8404 17.4155 35.7499 17.4155H33.7775L33.073 18.8218L34.0236 19.1379L36.192 18.5971C36.2995 18.5698 36.4125 18.5743 36.5174 18.6099L36.8268 18.7127L36.9163 19.454L37.0625 20.0188L36.3069 19.7677L34.1385 20.3084C34.0311 20.3357 33.9181 20.3312 33.8131 20.2956L32.0634 19.7135C32.0374 19.7049 32.012 19.6944 31.9875 19.6822C31.6992 19.5388 31.5821 19.1892 31.7258 18.9015L32.8922 16.5732C32.9915 16.3749 33.1949 16.25 33.4171 16.2513H35.6123L36.6778 15.7204C33.1066 14.2595 29.1316 14.1119 25.4615 15.3042L26.0546 15.6989L29.4302 16.2606C29.4595 16.2655 29.4885 16.2727 29.5167 16.282C29.8225 16.3828 29.9885 16.7121 29.8875 17.0173L29.3043 18.7636C29.247 18.9378 29.1101 19.0743 28.9357 19.1315L27.3907 19.646L25.7519 22.372C25.7028 22.4536 25.6343 22.522 25.5525 22.571L22.6364 24.3173C22.5698 24.3572 22.4958 24.3836 22.4189 24.3947L18.8368 24.9052V25.9058L19.8323 26.8994C19.9417 27.0086 20.0032 27.1566 20.0032 27.311V28.2342L20.7602 27.4815C20.8917 27.3476 21.0807 27.2866 21.2659 27.3186C21.4511 27.3484 21.6106 27.4654 21.6945 27.6329L22.6965 29.6393H26.4185C26.6232 29.6394 26.8129 29.7465 26.9183 29.9217L28.4983 32.5498H30.501C30.5393 32.5498 30.5774 32.5536 30.615 32.5611C30.9308 32.6241 31.1357 32.9307 31.0726 33.246L30.4894 36.1564C30.4668 36.2691 30.4114 36.3726 30.3301 36.4539L28.1682 38.6117V40.117C28.1682 40.3002 28.0817 40.4727 27.9349 40.5826L25.8353 42.1543V44.7737C25.8353 45.0952 25.5742 45.3558 25.2521 45.3558C25.1904 45.3555 25.1292 45.3453 25.0707 45.3255L23.3211 44.7434C23.1582 44.6894 23.0275 44.5665 22.9636 44.4076L21.7972 41.4971C21.7698 41.4284 21.7557 41.3551 21.7558 41.2812V35.937L19.3063 35.4486C19.1295 35.4137 18.9788 35.2992 18.898 35.1384L17.7316 32.81C17.6912 32.7292 17.6703 32.6401 17.6704 32.5498V30.8035C17.6704 30.6491 17.7319 30.5011 17.8412 30.392L18.5044 29.7296L15.597 27.7953C15.4893 27.7234 15.4087 27.6177 15.3678 27.4949L14.8832 26.0444C12.8752 32.6063 15.2007 39.7206 20.6996 43.8381C27.9119 49.2387 38.1453 47.7811 43.5562 40.5826L42.3361 39.3643C42.2268 39.2552 42.1653 39.1072 42.1653 38.9528V36.7618L39.8907 32.2279C39.8514 32.1468 39.8314 32.0578 39.8324 31.9677V29.9508L38.5593 29.1021L36.4766 29.6219C36.3531 29.6532 36.2226 29.6428 36.1057 29.5922L32.0232 27.8459C31.8353 27.7666 31.7027 27.5951 31.6733 27.3936L31.0901 23.319C31.064 23.1375 31.1252 22.9544 31.2551 22.8248L33.0047 21.0785C33.1141 20.9694 33.2624 20.908 33.4171 20.908H36.9163C37.1103 20.9089 37.2911 21.006 37.3987 21.167C37.3987 21.167 38.1832 22.0241 38.4251 22.7037C38.4689 22.8266 38.4656 22.9059 38.5231 23.0231C38.6026 23.1852 38.6982 23.2441 38.8125 23.384C39.0251 23.6441 39.3686 24.0404 39.3686 24.0404L37.9854 23.8103C37.8264 23.784 37.6853 23.6931 37.5958 23.5594L36.6043 22.0722H33.6585L32.2862 23.4412L32.7814 26.9035L36.3804 28.4449L38.5231 27.9105C38.683 27.8703 38.8525 27.8995 38.9897 27.9909L40.7393 29.155C40.9015 29.263 40.9988 29.4448 40.9988 29.6393V31.8303L43.2734 36.3642C43.3127 36.4453 43.3327 36.5344 43.3317 36.6244V38.7118L44.2301 39.6079C47.4014 34.7024 47.6905 28.4754 44.9874 23.2981C44.9874 23.2981 45.2423 22.9469 45.375 22.7037C45.5046 22.4663 45.6593 22.0722 45.6593 22.0722C47.1484 24.6414 48.0005 27.6245 48 30.8061C47.9985 40.4505 40.164 48.2677 30.501 48.2662C28.2454 48.2675 26.0109 47.8332 23.9206 46.9873C14.9707 43.3655 10.6572 33.1882 14.286 24.2556L14.2014 24.0024L14.4195 23.9302ZM25.5128 16.7362L24.1131 15.8048C20.2739 17.4451 17.205 20.4836 15.5306 24.3022L16.4106 26.9373L18.8368 28.552V27.552L17.8412 26.5583C17.7319 26.4492 17.6704 26.3012 17.6704 26.1468V24.4005C17.6707 24.1108 17.8845 23.8654 18.1719 23.8248L22.1378 23.2596L24.8281 21.6484L26.5031 18.8625C26.5748 18.7436 26.6867 18.6543 26.8186 18.6105L28.2912 18.1198L28.5671 17.2961L25.7408 16.8258C25.6593 16.8124 25.5816 16.7818 25.5128 16.7362ZM19.8166 34.363L22.4527 34.8898C22.7243 34.9451 22.9193 35.1836 22.9193 35.4602V41.1694L23.9434 43.7259L24.6689 43.9658V41.8632C24.6689 41.68 24.7554 41.5075 24.9022 41.3976L27.0017 39.8259V38.3707C27.002 38.2162 27.0636 38.0682 27.1732 37.9592L29.3813 35.7554L29.7895 33.714H28.1682C27.9635 33.7139 27.7738 33.6068 27.6684 33.4317L26.0884 30.8035H22.3361C22.115 30.8036 21.9129 30.679 21.8141 30.4816L21.0098 28.8756L18.8368 31.0445V32.4124L19.8166 34.363Z" fill="#FFD500"/>
</svg>
