<svg width="60" height="61" viewBox="0 0 60 61" fill="none" xmlns="http://www.w3.org/2000/svg">
<ellipse cx="30" cy="30.4272" rx="30" ry="29.9424" fill="white" fill-opacity="0.9"/>
<path d="M22.3752 37.4282C22.2681 37.2493 22.33 37.0211 22.5172 36.9134C22.7082 36.8034 22.9574 36.8606 23.0738 37.0411L22.5943 36.2123C22.3312 36.3174 22.0584 36.4032 21.7782 36.4681L22.3752 37.4282Z" fill="#FFD500"/>
<path fill-rule="evenodd" clip-rule="evenodd" d="M22.382 37.4392C22.4463 37.5389 22.5173 37.6329 22.5943 37.7209L23.3902 37.4018C23.2688 37.2987 23.1619 37.1777 23.0738 37.0411C22.9574 36.8606 22.7082 36.8034 22.5172 36.9134C22.33 37.0211 22.2681 37.2493 22.3752 37.4282L22.382 37.4392ZM14.6267 26.6098C14.6267 24.3558 16.4302 22.4923 18.7457 22.2391V21.4695C15.9826 21.7261 13.8166 23.9335 13.8164 26.6097V27.8412C13.8164 28.1959 13.5917 28.5122 13.244 28.6468L12.7464 28.8393C11.9214 29.1586 11.4895 30.0086 11.7418 30.8164L12.1188 32.023C12.2037 32.295 12.1429 32.5898 11.956 32.8116L11.373 33.504C10.8171 34.1641 10.8905 35.1344 11.5402 35.713C11.8906 36.025 11.9298 36.5294 11.6315 36.8863C11.0024 37.6386 11.1547 38.5534 11.7317 39.0983L12.7177 40.0296C12.4433 40.5613 12.2976 41.1488 12.2976 41.7576V44.0176C12.2976 44.2289 12.4789 44.4002 12.7026 44.4002C12.9263 44.4002 13.1077 44.2289 13.1077 44.0176V41.7577C13.1077 39.9978 14.6154 38.5739 16.4784 38.5739C16.4398 38.5739 16.8271 38.5914 17.2664 38.4545L18.1469 39.0983L18.6759 38.5174L18.0439 38.0552C18.6004 37.633 18.9199 37.0363 18.9725 36.4023C19.9336 36.669 20.8929 36.6731 21.7782 36.4681C22.0584 36.4032 22.3312 36.3174 22.5943 36.2123C23.3288 35.9189 23.9878 35.4754 24.5215 34.9186L24.1077 34.1978C23.2629 35.2013 21.9596 35.8457 20.5 35.8457C18.2099 35.8457 16.2477 34.2326 15.9358 32.0935C15.9311 32.0611 15.9221 32.0301 15.9096 32.0011C15.8414 31.8431 15.6664 31.7423 15.4792 31.7667C15.2577 31.7956 15.1027 31.9886 15.1333 32.198C15.377 33.8689 16.4966 35.3607 18.1709 36.1137V36.2142C18.1709 37.0972 17.4131 37.8087 16.4783 37.8087C15.1409 37.8087 13.9395 38.396 13.1558 39.3613L12.3045 38.5573C11.974 38.2451 11.9432 37.7484 12.2328 37.4019C12.8745 36.6345 12.713 35.7056 12.0961 35.1563C11.7503 34.8482 11.7111 34.3318 12.007 33.9804L12.5901 33.2881C12.9412 32.8712 13.0555 32.3174 12.8959 31.8065L12.5189 30.5999C12.3846 30.1699 12.6145 29.7174 13.0537 29.5474L13.5513 29.3549C14.2046 29.102 14.6267 28.5079 14.6267 27.8412V26.6098ZM15.0662 30.0532C17.0306 29.979 18.9186 29.3631 20.5 28.2782L20.614 29.1351C19.1132 30.0772 17.3782 30.6477 15.5668 30.7905C15.4113 30.8028 15.2551 30.8119 15.0985 30.8178C14.9319 30.8242 14.7842 30.7342 14.7165 30.6C14.6936 30.5547 14.6799 30.5042 14.6776 30.4508C14.6687 30.2397 14.8426 30.0617 15.0662 30.0532Z" fill="#FFD500"/>
<path d="M15.1333 32.198C15.1027 31.9886 15.2577 31.7956 15.4792 31.7667C15.6664 31.7423 15.8414 31.8431 15.9096 32.0011L15.5668 30.7905C15.4113 30.8028 15.2551 30.8119 15.0985 30.8178C14.9319 30.8242 14.7842 30.7342 14.7165 30.6L15.1333 32.198Z" fill="#FFD500"/>
<path d="M40 43.3732V46.8124C40 47.1339 39.7347 47.3946 39.4074 47.3946C39.0801 47.3946 38.8148 47.1339 38.8148 46.8124V43.3732C38.8148 40.6954 36.6093 38.5283 33.8835 38.5284C33.2356 38.5284 32.6179 38.3655 32.0786 38.0663C31.5443 37.7699 31.0869 37.3397 30.7533 36.8015C30.7339 36.7704 30.7179 36.7381 30.7052 36.7052C30.6055 36.4481 30.7033 36.1497 30.951 36.0014C31.2304 35.8341 31.5 35.9167 31.7654 36.1958C32.2189 36.9273 33.0107 37.364 33.8835 37.364C37.2641 37.3638 40 40.0516 40 43.3732ZM33 37.9129C33.5 38.4119 31.9111 39.7465 31.6607 39.9536C30.7881 40.6753 29.716 41.1198 28.5926 41.2364V43.9013C28.5926 44.2228 28.3273 44.4835 28 44.4835C27.6727 44.4835 27.4074 44.2228 27.4074 43.9013V41.2375C25.5743 41.0489 23.9439 39.9943 23.0429 38.4125C22.7441 38.4885 22.4335 38.5283 22.1166 38.5283C19.3848 38.5283 17.1852 40.7006 17.1852 43.3731V46.8124C17.1852 47.1339 16.9199 47.3946 16.5926 47.3946C16.2653 47.3946 16 47.1339 16 46.8124V43.3732C16 40.052 18.7355 37.364 22.1164 37.364C23.4837 37.364 24.5926 36.2817 24.5926 34.9375V34.7841C22.006 33.569 20.1904 31.0155 20.0798 28.0419C19.0153 27.7904 18.2222 26.8544 18.2222 25.7407V18.6479C18.2222 17.3779 19.1733 16.322 20.4123 16.1314C21.4767 13.8905 23.743 12.4619 26.2853 12.4619H31.3673C34.9429 12.4619 37.8519 15.3199 37.8519 18.8328V25.7407C37.8519 26.0622 37.5865 26.3229 37.2593 26.3229C36.932 26.3229 36.6667 26.0622 36.6667 25.7407V18.8328C36.6667 15.9619 34.2894 13.6263 31.3673 13.6263H26.2853C24.1059 13.6263 22.1744 14.911 21.365 16.8992C21.275 17.1202 21.0571 17.2652 20.8148 17.2652C20.0387 17.2652 19.4074 17.8854 19.4074 18.6479V25.7407C19.4074 26.2027 19.6782 26.6042 20.0741 26.8059V23.0315C20.0741 20.7843 21.935 18.956 24.2222 18.956H31.7778C34.0651 18.956 35.9259 20.7841 35.9259 23.0312V27.7983C35.9259 31.0134 33.8954 33.7377 31.101 34.9186C30.7455 35.0689 30.3776 35.1941 30 35.2923C28.6713 35.6375 27.2218 35.6467 25.7652 35.2254C25.673 36.3725 25.0401 37.3474 24.1313 37.9369C25.5436 40.2806 28.7654 40.826 30.8974 39.0627C31.044 38.9415 31.6607 38.5367 32.0786 38.0663C32.4394 37.8325 32.7928 37.7061 33 37.9129ZM28 34.3767C31.7169 34.3767 34.7407 31.4058 34.7407 27.7541V23.0312C34.7407 21.4262 33.4116 20.1204 31.7778 20.1204H24.2222C22.5884 20.1204 21.2593 21.4263 21.2593 23.0315V27.7541C21.2593 31.4058 24.2831 34.3767 28 34.3767Z" fill="#FFD500"/>
<path d="M30.7052 36.7052C30.6055 36.4481 30.7033 36.1497 30.951 36.0014C31.2304 35.8341 31.5 35.9167 31.7654 36.1958L31.101 34.9186C30.7455 35.0689 30.3776 35.1941 30 35.2923L30.7052 36.7052Z" fill="#FFD500"/>
<g clip-path="url(#clip0)">
<path fill-rule="evenodd" clip-rule="evenodd" d="M42.3066 39.3957C41.7421 39.3957 41.2299 39.1082 40.9365 38.6266C40.8263 38.4458 40.5905 38.3885 40.4097 38.4986C40.2485 38.5968 40.1855 38.795 40.2518 38.965C40.2599 38.9856 40.2699 39.0058 40.2818 39.0254C40.3634 39.1594 40.4566 39.2831 40.5596 39.3957C40.7141 39.5645 40.8907 39.7082 41.0835 39.8243L40.6862 41.6273L39.7284 40.5244C39.7484 40.5015 39.7655 40.4781 39.7799 40.4545C39.8913 40.2723 39.8432 40.076 39.7106 39.9607C39.5509 39.8218 39.3087 39.8386 39.1698 39.9984L38.4958 40.7735L36.798 38.8871C36.9425 38.6096 37.0301 38.3051 37.0551 37.9877C37.992 38.2635 38.9289 38.259 39.7898 38.0327C40.0332 37.9687 40.2705 37.887 40.5 37.7889C42.3056 37.0169 43.6278 35.2291 43.6278 33.0685V29.9C43.6278 29.6883 43.4562 29.5167 43.2445 29.5167C43.0328 29.5167 42.8612 29.6883 42.8612 29.9V30.2335V33.0685C42.8612 35.4728 40.9051 37.4289 38.5008 37.4289C36.3598 37.4289 34.5742 35.8779 34.2088 33.8404L33.5304 34.327C33.9074 35.8158 34.9374 37.0471 36.2966 37.697V37.7981C36.2966 38.2252 36.13 38.6264 35.8276 38.928C35.674 39.0812 35.509 39.1849 35.3535 39.2551L36.0593 39.7312C36.1532 39.6647 36.2428 39.5909 36.3275 39.5103L37.2569 40.543L37.0551 40.7754L37.9468 41.6398L37.983 41.3497L38.0028 41.3717C38.0625 41.4384 38.2243 41.619 38.2478 41.6398C38.406 41.7787 38.6471 41.7646 38.7877 41.606C38.8165 41.5731 38.8061 41.585 38.8013 41.5906L38.7994 41.5928C38.7994 41.5928 38.8058 41.5855 38.8303 41.5573C38.8597 41.5234 38.9154 41.4594 39.0176 41.3418L39.167 42.5365L39.5579 45.6641C39.5784 45.828 39.6996 45.955 39.852 45.9902C39.8947 46 39.9398 46.0027 39.9858 45.9969C40.1959 45.9707 40.3449 45.7791 40.3187 45.569L39.852 41.8358L40.6072 42.7054C40.8136 42.9431 41.2034 42.8434 41.271 42.5365L41.8059 40.109C41.9683 40.1435 42.1357 40.1623 42.3067 40.1623C44.0697 40.1623 45.4966 41.589 45.4966 43.3522V45.6166C45.4966 45.8283 45.6682 46 45.8799 46C46.0916 46 46.2632 45.8283 46.2632 45.6166V43.3522C46.2632 41.1655 44.4936 39.3956 42.3066 39.3957ZM37.3916 23H40.679C42.992 23 44.8737 24.8817 44.8737 27.1947V31.7429C44.8737 31.9546 44.702 32.1262 44.4903 32.1262C44.2786 32.1262 44.107 31.9546 44.107 31.7429V27.1947C44.107 25.3045 42.5693 23.7667 40.679 23.7667H37.3916V23ZM35.8515 27.0729C35.9309 27.0695 36.0131 27.0911 36.0868 27.1433C37.7446 28.3169 39.6103 29.0325 41.5221 29.3001C41.7318 29.3294 41.8779 29.5232 41.8486 29.7329C41.82 29.9371 41.635 30.0819 41.4303 30.0611C41.4255 30.0606 41.4206 30.06 41.4158 30.0594C39.5383 29.7965 37.7491 29.1343 36.153 28.1121C36.0784 28.3925 35.9681 28.6397 35.8291 28.8528L35.8515 27.0729Z" fill="#FFD500"/>
<path d="M40.4097 38.4986C40.5905 38.3885 40.8263 38.4458 40.9365 38.6266L40.5 37.7889C40.2705 37.887 40.0332 37.9687 39.7898 38.0327L40.1771 38.8142L40.2518 38.965C40.1855 38.795 40.2485 38.5968 40.4097 38.4986Z" fill="#FFD500"/>
<path d="M39.7106 39.9607C39.8432 40.076 39.8913 40.2723 39.7799 40.4545L40.5596 39.3957C40.4566 39.2831 40.3634 39.1594 40.2818 39.0254C40.2699 39.0058 40.2599 38.9856 40.2518 38.965L40.1771 38.8142L39.1698 39.9984C39.3087 39.8386 39.5509 39.8218 39.7106 39.9607Z" fill="#FFD500"/>
<path d="M42.8612 29.9C42.8612 29.6883 43.0328 29.5167 43.2445 29.5167L41.5221 29.3001C41.7318 29.3294 41.8779 29.5232 41.8486 29.7329C41.82 29.9371 41.635 30.0819 41.4303 30.0611L42.8612 30.2335V29.9Z" fill="#FFD500"/>
</g>
<defs>
<clipPath id="clip0">
<rect width="23" height="23" fill="white" transform="translate(27 23)"/>
</clipPath>
</defs>
</svg>
