<svg width="60" height="61" viewBox="0 0 60 61" fill="none" xmlns="http://www.w3.org/2000/svg">
<ellipse cx="30" cy="30.4406" rx="30" ry="29.9424" fill="white" fill-opacity="0.9"/>
<g clip-path="url(#clip0)">
<path d="M39.4827 17.8791L30.7327 14.0489C30.5839 13.984 30.4148 13.984 30.266 14.0489L21.516 17.8791C21.3035 17.9718 21.1661 18.1816 21.166 18.4134V27.5718C21.1692 29.63 22.1582 31.5621 23.826 32.7681L29.8734 37.1297C30.2469 37.4 30.7518 37.4 31.1253 37.1297L37.1727 32.7687C38.8405 31.5626 39.8295 29.6305 39.8327 27.5724V18.4134C39.8326 18.1816 39.6952 17.9718 39.4827 17.8791ZM38.666 27.5724C38.6633 29.2558 37.8543 30.8361 36.4902 31.8225L30.4993 36.1433L24.5085 31.8225C23.1444 30.8361 22.3354 29.2558 22.3327 27.5724V18.7949L30.4993 15.2203L38.666 18.7949V27.5724Z" fill="#FFD500"/>
<path d="M30.2667 16.5958L23.85 19.4052C23.6375 19.4979 23.5001 19.7076 23.5 19.9395V27.5724C23.5018 28.8812 24.1309 30.1098 25.1917 30.8764L30.1588 34.4592C30.3625 34.6062 30.6375 34.6062 30.8413 34.4592L35.8083 30.8764C36.8691 30.1098 37.4982 28.8812 37.5 27.5724V19.9395C37.4999 19.7076 37.3625 19.4979 37.15 19.4052L30.7333 16.5958C30.5846 16.5309 30.4154 16.5309 30.2667 16.5958ZM36.3333 20.3204V27.5724C36.3315 28.5063 35.8826 29.3829 35.1258 29.9302L30.5 33.2669L25.8742 29.9302C25.1174 29.3829 24.6685 28.5063 24.6667 27.5724V20.3204L30.5 17.7672L36.3333 20.3204Z" fill="#FFD500"/>
<path d="M17.8325 33.3664L16.5708 30.4182C16.3024 29.8104 15.7302 29.3919 15.0697 29.3204C14.4092 29.2489 13.7606 29.5352 13.3684 30.0714C12.9762 30.6077 12.8999 31.3125 13.1682 31.9203L15.4543 36.9492C15.7627 37.63 16.1917 38.2494 16.7207 38.7774L20.3158 42.3731C20.1133 42.5877 20.0002 42.8714 19.9996 43.1664V47.8331C19.9996 48.4774 20.5219 48.9997 21.1663 48.9997H27.5829C28.2273 48.9997 28.7496 48.4774 28.7496 47.8331V43.1664C28.7496 42.5221 28.2273 41.9997 27.5829 41.9997V40.9142C27.6008 39.5326 27.1501 38.1858 26.3043 37.0933C25.8084 36.4411 25.1325 35.9482 24.36 35.6752C23.1314 35.1591 22.0015 34.4339 21.0204 33.5321C20.1098 32.7821 18.816 32.7148 17.8325 33.3664ZM27.5829 47.8331H21.1663V43.1664H27.5829V47.8331ZM25.3937 37.8219C26.0736 38.7078 26.434 39.7976 26.4163 40.9142V41.9997H21.5927L17.5455 37.9526C17.1157 37.5234 16.7669 37.02 16.5159 36.4668L14.2298 31.4379C14.1323 31.2233 14.1504 30.9738 14.2781 30.7755C14.4057 30.5773 14.6252 30.4574 14.861 30.4573C15.1385 30.4571 15.3892 30.6227 15.498 30.8779L16.8029 33.9212C17.1494 34.7331 17.6489 35.4708 18.2741 36.0941L20.9388 38.7593C21.0852 38.911 21.3021 38.9718 21.5061 38.9184C21.71 38.865 21.8693 38.7057 21.9227 38.5018C21.9761 38.2978 21.9152 38.081 21.7636 37.9345L19.0989 35.2692C18.831 35.0019 18.5901 34.7089 18.3797 34.3942C18.9399 33.9632 19.7236 33.9762 20.2691 34.4257C21.3595 35.4265 22.6199 36.2246 23.9908 36.7824C24.5493 36.9855 25.0367 37.3467 25.3937 37.8219Z" fill="#FFD500"/>
<path d="M25.8327 44.9167H25.2493C24.9272 44.9167 24.666 45.1779 24.666 45.5001C24.666 45.8222 24.9272 46.0834 25.2493 46.0834H25.8327C26.1548 46.0834 26.416 45.8222 26.416 45.5001C26.416 45.1779 26.1548 44.9167 25.8327 44.9167Z" fill="#FFD500"/>
<path d="M45.5454 36.9495L47.8314 31.9206C48.1125 31.3107 48.043 30.5967 47.6495 30.0525C47.256 29.5083 46.5997 29.2186 45.9325 29.2944C45.2653 29.3702 44.6908 29.7999 44.4294 30.4185L43.1706 33.3556C42.1837 32.7072 40.8893 32.7782 39.9792 33.5306C38.9981 34.4324 37.8682 35.1575 36.6396 35.6737C35.8671 35.9467 35.1912 36.4396 34.6953 37.0918C33.8491 38.1848 33.3984 39.5323 33.4167 40.9144V42C32.7723 42 32.25 42.5223 32.25 43.1666V47.8333C32.25 48.4776 32.7723 49 33.4167 49H39.8333C40.4777 49 41 48.4776 41 47.8333V43.1666C40.9994 42.8716 40.8863 42.5879 40.6838 42.3733L44.2789 38.7777C44.8079 38.2496 45.2369 37.6303 45.5454 36.9495ZM39.8333 47.8333H33.4167V43.1666H39.8333V47.8333ZM39.4069 42H34.5833V40.9144C34.5657 39.798 34.9261 38.7085 35.6059 37.8227C35.9621 37.3478 36.4484 36.9865 37.0059 36.7827C38.3771 36.225 39.6376 35.4269 40.7282 34.426C41.2731 33.9731 42.059 33.9578 42.6211 34.3892C42.4101 34.7062 42.168 35.0013 41.8984 35.2701L39.2337 37.9353C39.0126 38.1642 39.0158 38.528 39.2408 38.753C39.4658 38.9781 39.8296 38.9812 40.0585 38.7602L42.7232 36.0949C43.3484 35.4716 43.8478 34.7339 44.1944 33.922L45.4993 30.8782C45.6084 30.6233 45.859 30.458 46.1363 30.4582C46.372 30.4583 46.5916 30.5781 46.7192 30.7764C46.8468 30.9746 46.865 31.2241 46.7674 31.4387L44.4814 36.4677C44.2304 37.0208 43.8816 37.5242 43.4518 37.9534L39.4069 42Z" fill="#FFD500"/>
<path d="M35.7506 44.9167H35.1673C34.8452 44.9167 34.584 45.1779 34.584 45.5001C34.584 45.8222 34.8452 46.0834 35.1673 46.0834H35.7506C36.0728 46.0834 36.334 45.8222 36.334 45.5001C36.334 45.1779 36.0728 44.9167 35.7506 44.9167Z" fill="#FFD500"/>
<path d="M27.3494 26.3665C27.0917 26.1732 26.726 26.2254 26.5327 26.4832C26.3394 26.7409 26.3916 27.1065 26.6494 27.2998L28.9827 29.0498C29.0837 29.1256 29.2065 29.1665 29.3327 29.1665C29.3657 29.1664 29.3987 29.1637 29.4313 29.1583C29.5893 29.1312 29.7292 29.0403 29.8181 28.9069L34.4847 21.9069C34.6004 21.7335 34.6148 21.5116 34.5224 21.3247C34.4301 21.1379 34.2451 21.0145 34.0371 21.001C33.8291 20.9875 33.6297 21.086 33.514 21.2594L29.1892 27.7467L27.3494 26.3665Z" fill="#FFD500"/>
</g>
<defs>
<clipPath id="clip0">
<rect width="35" height="35" fill="white" transform="translate(13 14)"/>
</clipPath>
</defs>
</svg>
