<svg width="123" height="123" viewBox="0 0 123 123" fill="none" xmlns="http://www.w3.org/2000/svg">
<path d="M57.6562 74.9531H67.2656V84.5625H57.6562V74.9531Z" fill="#F0F5F9"/>
<path d="M57.6562 96.0938H67.2656V105.703H57.6562V96.0938Z" fill="#F0F5F9"/>
<path d="M36.5156 96.0938H46.125V105.703H36.5156V96.0938Z" fill="#F0F5F9"/>
<path d="M119.6 106.016L107.642 103.036L103.825 118.339L119.6 106.016Z" fill="#F0F5F9"/>
<path d="M36.5156 74.9531H46.125V84.5625H36.5156V74.9531Z" fill="#F0F5F9"/>
<path d="M104.377 100.241C104.438 99.9962 104.547 99.7657 104.697 99.5627C104.847 99.3597 105.035 99.1883 105.251 99.0582C105.468 98.9281 105.708 98.8418 105.957 98.8044C106.207 98.767 106.461 98.7791 106.706 98.8401L121.078 102.422V46.125C121.078 44.5959 120.471 43.1294 119.389 42.0481C118.308 40.9668 116.842 40.3594 115.312 40.3594H105.703V48.4005C106.985 48.8539 108.066 49.7459 108.754 50.9191C109.443 52.0922 109.694 53.4709 109.464 54.8114C109.234 56.1519 108.537 57.3679 107.497 58.2445C106.458 59.1212 105.141 59.602 103.781 59.602C102.421 59.602 101.105 59.1212 100.065 58.2445C99.0251 57.3679 98.3287 56.1519 98.0987 54.8114C97.8687 53.4709 98.12 52.0922 98.8081 50.9191C99.4963 49.7459 100.577 48.8539 101.859 48.4005V40.3594H74.9531V48.4005C76.2354 48.8539 77.3162 49.7459 78.0044 50.9191C78.6925 52.0922 78.9438 53.4709 78.7138 54.8114C78.4838 56.1519 77.7874 57.3679 76.7475 58.2445C75.7076 59.1212 74.3913 59.602 73.0312 59.602C71.6712 59.602 70.3549 59.1212 69.315 58.2445C68.2751 57.3679 67.5787 56.1519 67.3487 54.8114C67.1187 53.4709 67.37 52.0922 68.0581 50.9191C68.7463 49.7459 69.8271 48.8539 71.1094 48.4005V40.3594H44.2031V48.4005C45.4854 48.8539 46.5662 49.7459 47.2544 50.9191C47.9425 52.0922 48.1938 53.4709 47.9638 54.8114C47.7338 56.1519 47.0374 57.3679 45.9975 58.2445C44.9576 59.1212 43.6413 59.602 42.2812 59.602C40.9212 59.602 39.6049 59.1212 38.565 58.2445C37.5251 57.3679 36.8287 56.1519 36.5987 54.8114C36.3687 53.4709 36.62 52.0922 37.3081 50.9191C37.9963 49.7459 39.0771 48.8539 40.3594 48.4005V40.3594H30.75C29.2209 40.3594 27.7544 40.9668 26.6731 42.0481C25.5918 43.1294 24.9844 44.5959 24.9844 46.125V113.391C24.9844 114.92 25.5918 116.386 26.6731 117.468C27.7544 118.549 29.2209 119.156 30.75 119.156H99.6608L104.377 100.241ZM34.5938 63.4219H111.469C111.978 63.4219 112.467 63.6244 112.828 63.9848C113.188 64.3452 113.391 64.834 113.391 65.3438C113.391 65.8535 113.188 66.3423 112.828 66.7027C112.467 67.0631 111.978 67.2656 111.469 67.2656H34.5938C34.084 67.2656 33.5952 67.0631 33.2348 66.7027C32.8744 66.3423 32.6719 65.8535 32.6719 65.3438C32.6719 64.834 32.8744 64.3452 33.2348 63.9848C33.5952 63.6244 34.084 63.4219 34.5938 63.4219ZM49.9688 107.625C49.9688 108.135 49.7663 108.624 49.4058 108.984C49.0454 109.344 48.5566 109.547 48.0469 109.547H34.5938C34.084 109.547 33.5952 109.344 33.2348 108.984C32.8744 108.624 32.6719 108.135 32.6719 107.625V94.1719C32.6719 93.6622 32.8744 93.1733 33.2348 92.8129C33.5952 92.4525 34.084 92.25 34.5938 92.25H48.0469C48.5566 92.25 49.0454 92.4525 49.4058 92.8129C49.7663 93.1733 49.9688 93.6622 49.9688 94.1719V107.625ZM49.9688 86.4844C49.9688 86.9941 49.7663 87.4829 49.4058 87.8433C49.0454 88.2038 48.5566 88.4062 48.0469 88.4062H34.5938C34.084 88.4062 33.5952 88.2038 33.2348 87.8433C32.8744 87.4829 32.6719 86.9941 32.6719 86.4844V73.0312C32.6719 72.5215 32.8744 72.0327 33.2348 71.6723C33.5952 71.3119 34.084 71.1094 34.5938 71.1094H48.0469C48.5566 71.1094 49.0454 71.3119 49.4058 71.6723C49.7663 72.0327 49.9688 72.5215 49.9688 73.0312V86.4844ZM71.1094 107.625C71.1094 108.135 70.9069 108.624 70.5465 108.984C70.1861 109.344 69.6972 109.547 69.1875 109.547H55.7344C55.2247 109.547 54.7358 109.344 54.3754 108.984C54.015 108.624 53.8125 108.135 53.8125 107.625V94.1719C53.8125 93.6622 54.015 93.1733 54.3754 92.8129C54.7358 92.4525 55.2247 92.25 55.7344 92.25H69.1875C69.6972 92.25 70.1861 92.4525 70.5465 92.8129C70.9069 93.1733 71.1094 93.6622 71.1094 94.1719V107.625ZM71.1094 86.4844C71.1094 86.9941 70.9069 87.4829 70.5465 87.8433C70.1861 88.2038 69.6972 88.4062 69.1875 88.4062H55.7344C55.2247 88.4062 54.7358 88.2038 54.3754 87.8433C54.015 87.4829 53.8125 86.9941 53.8125 86.4844V73.0312C53.8125 72.5215 54.015 72.0327 54.3754 71.6723C54.7358 71.3119 55.2247 71.1094 55.7344 71.1094H69.1875C69.6972 71.1094 70.1861 71.3119 70.5465 71.6723C70.9069 72.0327 71.1094 72.5215 71.1094 73.0312V86.4844ZM92.25 107.625C92.25 108.135 92.0475 108.624 91.6871 108.984C91.3267 109.344 90.8378 109.547 90.3281 109.547H76.875C76.3653 109.547 75.8764 109.344 75.516 108.984C75.1556 108.624 74.9531 108.135 74.9531 107.625V94.1719C74.9531 93.6622 75.1556 93.1733 75.516 92.8129C75.8764 92.4525 76.3653 92.25 76.875 92.25H90.3281C90.8378 92.25 91.3267 92.4525 91.6871 92.8129C92.0475 93.1733 92.25 93.6622 92.25 94.1719V107.625ZM92.25 86.4844C92.25 86.9941 92.0475 87.4829 91.6871 87.8433C91.3267 88.2038 90.8378 88.4062 90.3281 88.4062H76.875C76.3653 88.4062 75.8764 88.2038 75.516 87.8433C75.1556 87.4829 74.9531 86.9941 74.9531 86.4844V73.0312C74.9531 72.5215 75.1556 72.0327 75.516 71.6723C75.8764 71.3119 76.3653 71.1094 76.875 71.1094H90.3281C90.8378 71.1094 91.3267 71.3119 91.6871 71.6723C92.0475 72.0327 92.25 72.5215 92.25 73.0312V86.4844ZM96.0938 86.4844V73.0312C96.0938 72.5215 96.2962 72.0327 96.6567 71.6723C97.0171 71.3119 97.5059 71.1094 98.0156 71.1094H111.469C111.978 71.1094 112.467 71.3119 112.828 71.6723C113.188 72.0327 113.391 72.5215 113.391 73.0312V86.4844C113.391 86.9941 113.188 87.4829 112.828 87.8433C112.467 88.2038 111.978 88.4062 111.469 88.4062H98.0156C97.5059 88.4062 97.0171 88.2038 96.6567 87.8433C96.2962 87.4829 96.0938 86.9941 96.0938 86.4844Z" fill="#F0F5F9"/>
<path d="M99.9375 74.9531H109.547V84.5625H99.9375V74.9531Z" fill="#F0F5F9"/>
<path d="M78.7969 74.9531H88.4062V84.5625H78.7969V74.9531Z" fill="#F0F5F9"/>
<path d="M78.7969 96.0938H88.4062V105.703H78.7969V96.0938Z" fill="#F0F5F9"/>
<path d="M44.2031 0C35.4606 0 26.9144 2.59247 19.6452 7.44957C12.376 12.3067 6.71041 19.2103 3.36478 27.2873C0.0191527 35.3644 -0.856217 44.2522 0.84937 52.8267C2.55496 61.4013 6.7649 69.2775 12.9468 75.4594C19.1287 81.6414 27.005 85.8513 35.5795 87.5569C44.1541 89.2625 53.0419 88.3871 61.1189 85.0415C69.196 81.6959 76.0996 76.0302 80.9567 68.7611C85.8138 61.4919 88.4063 52.9457 88.4063 44.2031C88.393 32.4838 83.7317 21.2482 75.4449 12.9614C67.158 4.67457 55.9225 0.0132255 44.2031 0ZM44.2031 84.5625C36.2208 84.5625 28.4177 82.1955 21.7807 77.7607C15.1436 73.326 9.97065 67.0227 6.91594 59.648C3.86124 52.2733 3.06199 44.1584 4.61926 36.3294C6.17654 28.5004 10.0204 21.3091 15.6648 15.6647C21.3091 10.0204 28.5005 6.17652 36.3294 4.61924C44.1584 3.06197 52.2733 3.86122 59.648 6.91592C67.0227 9.97063 73.326 15.1436 77.7607 21.7807C82.1955 28.4177 84.5625 36.2208 84.5625 44.2031C84.5503 54.9034 80.2943 65.1618 72.7281 72.728C65.1618 80.2942 54.9034 84.5503 44.2031 84.5625Z" fill="#FFD500"/>
<path d="M44.2031 11.5312C37.7413 11.5312 31.4245 13.4474 26.0516 17.0375C20.6788 20.6275 16.4911 25.7301 14.0183 31.7001C11.5454 37.6701 10.8984 44.2394 12.159 50.5771C13.4197 56.9148 16.5314 62.7364 21.1006 67.3056C25.6699 71.8749 31.4914 74.9866 37.8292 76.2472C44.1669 77.5079 50.7361 76.8609 56.7061 74.388C62.6761 71.9151 67.7788 67.7275 71.3688 62.3546C74.9588 56.9818 76.875 50.665 76.875 44.2031C76.8653 35.541 73.42 27.2364 67.295 21.1113C61.1699 14.9862 52.8653 11.5409 44.2031 11.5312ZM44.2031 73.0312C38.5015 73.0312 32.9279 71.3405 28.1871 68.1728C23.4463 65.0052 19.7514 60.5028 17.5694 55.2352C15.3875 49.9675 14.8166 44.1711 15.9289 38.579C17.0413 32.9869 19.7869 27.8502 23.8186 23.8186C27.8503 19.7869 32.9869 17.0413 38.5791 15.9289C44.1712 14.8166 49.9675 15.3875 55.2352 17.5694C60.5028 19.7513 65.0052 23.4463 68.1729 28.1871C71.3405 32.9278 73.0313 38.5015 73.0313 44.2031C73.0226 51.8462 69.9826 59.1737 64.5781 64.5781C59.1737 69.9826 51.8462 73.0226 44.2031 73.0312Z" fill="#FFD500"/>
<path fill-rule="evenodd" clip-rule="evenodd" d="M40.1626 42.1172C41.012 41.8174 41.7731 41.5407 42.4919 41.2581L46.3356 39.5976C47.2533 39.1534 48.1249 38.6197 48.9378 38.0044C49.4869 37.4926 49.8867 36.8412 50.0945 36.1199C50.3023 35.3986 50.3104 34.6344 50.1179 33.9089C49.9624 32.9165 49.5223 31.9906 48.8509 31.2435C48.1796 30.4964 47.3058 29.9602 46.3356 29.7C46.3356 29.7 45.0442 29.3677 44.1985 29.3454C43.53 29.3278 42.4919 29.4867 42.4919 29.4867C41.2021 29.7003 39.9864 30.2335 38.9556 31.0376C38.7695 31.2081 38.5516 31.3403 38.3144 31.4265C38.0772 31.5128 37.8253 31.5515 37.5731 31.5405C37.321 31.5294 37.0734 31.4688 36.8447 31.362C36.616 31.2553 36.4105 31.1046 36.24 30.9185C36.0695 30.7323 35.9374 30.5144 35.8511 30.2772C35.7648 30.04 35.7261 29.7881 35.7372 29.536C35.7482 29.2838 35.8089 29.0363 35.9156 28.8075C36.0223 28.5788 36.173 28.3733 36.3592 28.2028C38.1058 26.7538 40.237 25.8455 42.4919 25.5891C42.4919 25.5891 43.6642 25.4386 44.4239 25.469C45.1664 25.4986 46.3356 25.739 46.3356 25.739C48.217 26.0353 49.9582 26.9138 51.3144 28.2511C52.6705 29.5883 53.5735 31.3169 53.8963 33.194C54.2234 34.612 54.1552 36.0926 53.6991 37.4745C53.243 38.8564 52.4164 40.0867 51.3094 41.0314C49.7763 42.1751 48.1044 43.1198 46.3337 43.8431L42.4919 45.3614C42.3647 45.408 42.2393 45.4541 42.1133 45.5005C41.8965 45.5802 41.6778 45.6607 41.4444 45.7457C40.0332 46.1436 38.824 47.0593 38.0584 48.3098C37.2927 49.5603 37.027 51.0537 37.3143 52.4915H37.322C37.5464 53.8446 38.1519 55.1058 39.0676 56.127C39.9832 57.1482 41.1711 57.8871 42.4919 58.2571C42.4919 58.2571 43.5907 58.5981 44.3186 58.654C45.1053 58.7144 46.3337 58.5089 46.3337 58.5089C46.3337 58.5089 50.404 57.7573 52.0532 56.5063C52.2644 56.3681 52.5008 56.2729 52.7489 56.2261C52.9969 56.1793 53.2518 56.1818 53.4988 56.2334C53.7459 56.2851 53.9804 56.3849 54.1889 56.5272C54.3974 56.6695 54.5758 56.8514 54.714 57.0627C54.8522 57.2739 54.9474 57.5103 54.9942 57.7584C55.0411 58.0064 55.0386 58.2613 54.9869 58.5083C54.9352 58.7554 54.8354 58.9899 54.6931 59.1984C54.5508 59.4069 54.3689 59.5853 54.1576 59.7235C51.8815 61.3819 49.1495 62.2986 46.3337 62.3488C46.3337 62.3488 44.9579 62.3955 44.0783 62.3488C43.4564 62.3158 42.4899 62.2047 42.4899 62.2047C40.2383 61.8114 38.1652 60.726 36.5593 59.0994C34.9534 57.4729 33.8946 55.3861 33.5302 53.1296C33.0852 50.7994 33.516 48.387 34.74 46.3548C35.9639 44.3226 37.8948 42.8137 40.1626 42.1172Z" fill="#FFD500"/>
<path d="M32.9121 40.96H53.6924M53.8125 46.6055H32.9121" stroke="#FFD500" stroke-width="3" stroke-linecap="round" stroke-linejoin="round"/>
</svg>
