<svg width="123" height="123" viewBox="0 0 123 123" fill="none" xmlns="http://www.w3.org/2000/svg">
<path d="M73.8365 28.942C62.9242 36.6618 49.9183 40.8726 36.5521 41.0133C36.2973 41.0105 36.0443 41.0581 35.8078 41.1532C35.5714 41.2484 35.356 41.3893 35.174 41.5678C34.9921 41.7463 34.8472 41.959 34.7476 42.1937C34.648 42.4283 34.5958 42.6803 34.5938 42.9352V59.446C34.6264 72.7811 38.6775 85.7968 46.2185 96.7949C53.7595 107.793 64.4403 116.263 76.8673 121.1V30.5103C76.867 30.1581 76.77 29.8128 76.5869 29.5121C76.4037 29.2113 76.1414 28.9666 75.8286 28.8048C75.5159 28.643 75.1647 28.5702 74.8134 28.5944C74.462 28.6186 74.1241 28.7388 73.8365 28.942Z" fill="#F0F5F9"/>
<path d="M121.034 41.0133C107.668 40.8667 94.6641 36.6557 83.7495 28.9401C83.4619 28.7369 83.124 28.6166 82.7727 28.5924C82.4214 28.5682 82.0702 28.641 81.7574 28.8029C81.4446 28.9647 81.1824 29.2093 80.9992 29.5101C80.816 29.8109 80.719 30.1562 80.7188 30.5083V121.1C93.1472 116.264 103.83 107.795 111.372 96.7965C118.914 85.7983 122.967 72.782 123 59.446V42.9352C122.998 42.6796 122.945 42.427 122.845 42.1918C122.745 41.9567 122.6 41.7437 122.417 41.565C122.234 41.3864 122.018 41.2457 121.781 41.151C121.543 41.0563 121.289 41.0095 121.034 41.0133Z" fill="#F0F5F9"/>
<path d="M92.25 1.92188H7.6875C6.15836 1.92188 4.69185 2.52932 3.61059 3.61059C2.52932 4.69185 1.92188 6.15836 1.92188 7.6875V92.25C1.92188 93.7791 2.52932 95.2456 3.61059 96.3269C4.69185 97.4082 6.15836 98.0156 7.6875 98.0156H92.25C93.7791 98.0156 95.2456 97.4082 96.3269 96.3269C97.4082 95.2456 98.0156 93.7791 98.0156 92.25V7.6875C98.0156 6.15836 97.4082 4.69185 96.3269 3.61059C95.2456 2.52932 93.7791 1.92188 92.25 1.92188ZM30.75 5.76562H69.1875V42.8866L51.8906 33.4522V13.4531C51.8906 12.9434 51.6881 12.4546 51.3277 12.0942C50.9673 11.7337 50.4785 11.5312 49.9688 11.5312C49.459 11.5312 48.9702 11.7337 48.6098 12.0942C48.2494 12.4546 48.0469 12.9434 48.0469 13.4531V33.4522L30.75 42.8866V5.76562ZM94.1719 92.25C94.1719 92.7597 93.9694 93.2486 93.609 93.609C93.2486 93.9694 92.7597 94.1719 92.25 94.1719H7.6875C7.17779 94.1719 6.68895 93.9694 6.32853 93.609C5.96811 93.2486 5.76562 92.7597 5.76562 92.25V7.6875C5.76562 7.17779 5.96811 6.68895 6.32853 6.32853C6.68895 5.96811 7.17779 5.76562 7.6875 5.76562H26.9062V46.125C26.9062 46.4585 26.9929 46.7862 27.1578 47.076C27.3228 47.3658 27.5603 47.6077 27.8471 47.778C28.1338 47.9482 28.4599 48.0409 28.7933 48.0469C29.1267 48.053 29.456 47.9721 29.7487 47.8124L49.9688 36.7828L70.1888 47.8124C70.4815 47.9721 70.8108 48.053 71.1442 48.0469C71.4776 48.0409 71.8037 47.9482 72.0904 47.778C72.3772 47.6077 72.6147 47.3658 72.7797 47.076C72.9446 46.7862 73.0313 46.4585 73.0312 46.125V5.76562H92.25C92.7597 5.76562 93.2486 5.96811 93.609 6.32853C93.9694 6.68895 94.1719 7.17779 94.1719 7.6875V92.25Z" fill="#FFD500"/>
<path d="M38.4375 84.5625H17.2969C16.7872 84.5625 16.2983 84.765 15.9379 85.1254C15.5775 85.4858 15.375 85.9747 15.375 86.4844C15.375 86.9941 15.5775 87.4829 15.9379 87.8433C16.2983 88.2038 16.7872 88.4062 17.2969 88.4062H38.4375C38.9472 88.4062 39.4361 88.2038 39.7965 87.8433C40.1569 87.4829 40.3594 86.9941 40.3594 86.4844C40.3594 85.9747 40.1569 85.4858 39.7965 85.1254C39.4361 84.765 38.9472 84.5625 38.4375 84.5625Z" fill="#FFD500"/>
<path d="M84.5625 84.5625H63.4219C62.9122 84.5625 62.4233 84.765 62.0629 85.1254C61.7025 85.4858 61.5 85.9747 61.5 86.4844C61.5 86.9941 61.7025 87.4829 62.0629 87.8433C62.4233 88.2038 62.9122 88.4062 63.4219 88.4062H84.5625C85.0722 88.4062 85.5611 88.2038 85.9215 87.8433C86.2819 87.4829 86.4844 86.9941 86.4844 86.4844C86.4844 85.9747 86.2819 85.4858 85.9215 85.1254C85.5611 84.765 85.0722 84.5625 84.5625 84.5625Z" fill="#FFD500"/>
<path d="M84.5625 74.9531H63.4219C62.9122 74.9531 62.4233 75.1556 62.0629 75.516C61.7025 75.8764 61.5 76.3653 61.5 76.875C61.5 77.3847 61.7025 77.8736 62.0629 78.234C62.4233 78.5944 62.9122 78.7969 63.4219 78.7969H84.5625C85.0722 78.7969 85.5611 78.5944 85.9215 78.234C86.2819 77.8736 86.4844 77.3847 86.4844 76.875C86.4844 76.3653 86.2819 75.8764 85.9215 75.516C85.5611 75.1556 85.0722 74.9531 84.5625 74.9531Z" fill="#FFD500"/>
</svg>
