<svg width="123" height="123" viewBox="0 0 123 123" fill="none" xmlns="http://www.w3.org/2000/svg">
<path d="M60.885 74.9531H50.4108V87.5414C50.4108 87.8165 50.3566 88.0889 50.2513 88.3431C50.146 88.5972 49.9917 88.8281 49.7972 89.0227C49.6027 89.2172 49.3718 89.3715 49.1176 89.4768C48.8634 89.5821 48.591 89.6362 48.3159 89.6362H39.9173C39.6422 89.6362 39.3698 89.5821 39.1157 89.4768C38.8615 89.3715 38.6306 89.2172 38.4361 89.0227C38.2415 88.8281 38.0872 88.5972 37.982 88.3431C37.8767 88.0889 37.8225 87.8165 37.8225 87.5414V74.9531H27.3483C25.6949 74.9733 24.1161 75.6444 22.9541 76.8208C21.7921 77.9972 21.1405 79.5841 21.1406 81.2376V114.794C21.1405 116.447 21.7921 118.034 22.9541 119.21C24.1161 120.387 25.6949 121.058 27.3483 121.078H60.885C61.7177 121.088 62.5441 120.933 63.3165 120.622C64.089 120.311 64.7921 119.85 65.3854 119.266C65.9786 118.682 66.4503 117.986 66.773 117.218C67.0957 116.45 67.2631 115.626 67.2656 114.794V81.2376C67.2631 80.4049 67.0957 79.581 66.773 78.8133C66.4503 78.0457 65.9786 77.3496 65.3854 76.7653C64.7921 76.1809 64.089 75.7199 63.3165 75.4089C62.5441 75.0979 61.7177 74.9429 60.885 74.9531Z" fill="#F0F5F9"/>
<path d="M109.88 74.9531H99.3861V87.5414C99.3861 87.8165 99.3319 88.0889 99.2266 88.3431C99.1214 88.5972 98.967 88.8282 98.7725 89.0227C98.578 89.2172 98.3471 89.3715 98.0929 89.4768C97.8388 89.5821 97.5663 89.6362 97.2913 89.6362H89.7767C89.5016 89.6362 89.2292 89.5821 88.9751 89.4768C88.7209 89.3715 88.49 89.2172 88.2954 89.0227C88.1009 88.8282 87.9466 88.5972 87.8413 88.3431C87.7361 88.0889 87.6819 87.8165 87.6819 87.5414V74.9531H77.2077C75.5543 74.9734 73.9754 75.6444 72.8134 76.8208C71.6514 77.9972 70.9999 79.5841 71 81.2377V114.794C70.9999 116.447 71.6514 118.034 72.8134 119.21C73.9754 120.387 75.5543 121.058 77.2077 121.078H109.88C111.545 121.073 113.14 120.409 114.318 119.232C115.495 118.054 116.159 116.459 116.164 114.794V81.2377C116.159 79.5725 115.495 77.9769 114.318 76.7994C113.14 75.6219 111.545 74.9582 109.88 74.9531Z" fill="#F0F5F9"/>
<path d="M109.917 23H99.347V35.5883C99.347 36.1439 99.1263 36.6767 98.7335 37.0696C98.3406 37.4624 97.8078 37.6831 97.2522 37.6831H88.8728C88.3307 37.6632 87.8174 37.4338 87.441 37.043C87.0646 36.6523 86.8545 36.1308 86.8548 35.5883V23H76.2845C74.6193 23.0051 73.0238 23.6688 71.8463 24.8463C70.6688 26.0238 70.0051 27.6193 70 29.2845V64.7623C70.0051 66.4275 70.6688 68.0231 71.8463 69.2006C73.0238 70.3781 74.6193 71.0418 76.2845 71.0469H109.917C111.583 71.0418 113.178 70.3781 114.356 69.2006C115.533 68.0231 116.197 66.4275 116.202 64.7623V29.2845C116.197 27.6193 115.533 26.0238 114.356 24.8463C113.178 23.6688 111.583 23.0051 109.917 23Z" fill="#F0F5F9"/>
<path d="M90.8086 0H36.9961C35.467 0 34.0004 0.607448 32.9192 1.68871C31.8379 2.76998 31.2305 4.23649 31.2305 5.76563V21.1406H12.4653C11.3939 21.1369 10.3429 21.4334 9.43152 21.9967C8.52012 22.5599 7.78477 23.3672 7.30889 24.3271L1.08778 36.7674C0.689079 37.5681 0.481211 38.4502 0.480469 39.3446V57.6563C0.480469 59.1854 1.08792 60.6519 2.16918 61.7332C3.25045 62.8144 4.71695 63.4219 6.24609 63.4219H10.282C10.7231 65.5942 11.9017 67.5471 13.6179 68.9499C15.3342 70.3527 17.4826 71.119 19.6992 71.119C21.9158 71.119 24.0643 70.3527 25.7805 68.9499C27.4968 67.5471 28.6753 65.5942 29.1164 63.4219H67.9383C68.3794 65.5942 69.5579 67.5471 71.2742 68.9499C72.9904 70.3527 75.1389 71.119 77.3555 71.119C79.5721 71.119 81.7205 70.3527 83.4368 68.9499C85.153 67.5471 86.3316 65.5942 86.7727 63.4219H90.8086C92.3377 63.4219 93.8042 62.8144 94.8855 61.7332C95.9668 60.6519 96.5742 59.1854 96.5742 57.6563V5.76563C96.5742 4.23649 95.9668 2.76998 94.8855 1.68871C93.8042 0.607448 92.3377 0 90.8086 0ZM35.0742 5.76563C35.0742 5.25591 35.2767 4.76708 35.6371 4.40665C35.9975 4.04623 36.4864 3.84375 36.9961 3.84375H90.8086C91.3183 3.84375 91.8071 4.04623 92.1676 4.40665C92.528 4.76708 92.7305 5.25591 92.7305 5.76563V51.8906H35.0742V5.76563ZM67.9383 59.5781H29.1164C28.8199 58.1797 28.2123 56.8659 27.3387 55.7344H69.7179C68.8436 56.8657 68.2354 58.1795 67.9383 59.5781ZM31.2305 51.8906H4.32422V42.2813H19.6992C21.2284 42.2813 22.6949 41.6738 23.7761 40.5925C24.8574 39.5113 25.4648 38.0448 25.4648 36.5156V24.9844H31.2305V51.8906ZM10.7471 26.0472C10.9056 25.7271 11.1505 25.4579 11.4542 25.2701C11.7579 25.0822 12.1082 24.9832 12.4653 24.9844H21.6211V36.5156C21.6211 37.0253 21.4186 37.5142 21.0582 37.8746C20.6978 38.235 20.2089 38.4375 19.6992 38.4375H4.551L10.7471 26.0472ZM4.32422 57.6563V55.7344H12.0617C11.1874 56.8657 10.5791 58.1795 10.282 59.5781H6.24609C5.73638 59.5781 5.24754 59.3756 4.88712 59.0152C4.5267 58.6548 4.32422 58.166 4.32422 57.6563ZM19.6992 67.2656C18.5589 67.2656 17.4442 66.9275 16.496 66.2939C15.5479 65.6604 14.8089 64.7599 14.3725 63.7064C13.9361 62.6529 13.8219 61.4936 14.0444 60.3752C14.2668 59.2568 14.816 58.2294 15.6223 57.4231C16.4286 56.6168 17.456 56.0676 18.5744 55.8452C19.6928 55.6227 20.8521 55.7369 21.9056 56.1733C22.9592 56.6096 23.8596 57.3486 24.4932 58.2968C25.1267 59.2449 25.4648 60.3597 25.4648 61.5C25.4648 63.0291 24.8574 64.4957 23.7761 65.5769C22.6949 66.6582 21.2284 67.2656 19.6992 67.2656ZM77.3555 67.2656C76.2151 67.2656 75.1004 66.9275 74.1523 66.2939C73.2041 65.6604 72.4651 64.7599 72.0287 63.7064C71.5923 62.6529 71.4782 61.4936 71.7006 60.3752C71.9231 59.2568 72.4722 58.2294 73.2786 57.4231C74.0849 56.6168 75.1122 56.0676 76.2307 55.8452C77.3491 55.6227 78.5083 55.7369 79.5619 56.1733C80.6154 56.6096 81.5159 57.3486 82.1494 58.2968C82.7829 59.2449 83.1211 60.3597 83.1211 61.5C83.1211 63.0291 82.5136 64.4957 81.4324 65.5769C80.3511 66.6582 78.8846 67.2656 77.3555 67.2656ZM92.7305 57.6563C92.7305 58.166 92.528 58.6548 92.1676 59.0152C91.8071 59.3756 91.3183 59.5781 90.8086 59.5781H86.7727C86.4762 58.1797 85.8685 56.8659 84.9949 55.7344H92.7305V57.6563Z" fill="#FFD500"/>
</svg>
