<svg width="90" height="90" viewBox="0 0 90 90" fill="none" xmlns="http://www.w3.org/2000/svg">
<path d="M54.0267 21.1771C46.0421 26.8257 36.5256 29.9068 26.7455 30.0097C26.559 30.0077 26.3739 30.0425 26.2009 30.1121C26.0278 30.1817 25.8702 30.2848 25.7371 30.4154C25.604 30.5461 25.498 30.7017 25.4251 30.8734C25.3522 31.0451 25.314 31.2295 25.3125 31.416V43.4971C25.3364 53.2545 28.3006 62.7781 33.8184 70.8255C39.3362 78.8729 47.1514 85.0705 56.2444 88.6096V22.3246C56.2442 22.0669 56.1732 21.8142 56.0392 21.5942C55.9051 21.3741 55.7132 21.1951 55.4844 21.0767C55.2555 20.9583 54.9985 20.905 54.7415 20.9227C54.4844 20.9404 54.2372 21.0284 54.0267 21.1771Z" fill="#F0F5F9"/>
<path d="M88.5614 30.0097C78.7818 29.9025 69.2664 26.8212 61.2802 21.1757C61.0697 21.027 60.8224 20.939 60.5654 20.9213C60.3083 20.9036 60.0513 20.9568 59.8225 21.0753C59.5936 21.1937 59.4017 21.3727 59.2677 21.5928C59.1337 21.8128 59.0627 22.0655 59.0625 22.3232V88.6096C68.1565 85.0714 75.9729 78.8742 81.4917 70.8267C87.0106 62.7792 89.9756 53.2551 90 43.4971V31.416C89.9985 31.229 89.9601 31.0441 89.8869 30.8721C89.8137 30.7 89.7071 30.5441 89.5734 30.4134C89.4397 30.2827 89.2814 30.1797 89.1077 30.1105C88.9341 30.0412 88.7484 30.0069 88.5614 30.0097Z" fill="#F0F5F9"/>
<path d="M67.5 1.40625H5.625C4.50612 1.40625 3.43306 1.85072 2.64189 2.64189C1.85072 3.43306 1.40625 4.50612 1.40625 5.625V67.5C1.40625 68.6189 1.85072 69.6919 2.64189 70.4831C3.43306 71.2743 4.50612 71.7188 5.625 71.7188H67.5C68.6189 71.7188 69.6919 71.2743 70.4831 70.4831C71.2743 69.6919 71.7188 68.6189 71.7188 67.5V5.625C71.7188 4.50612 71.2743 3.43306 70.4831 2.64189C69.6919 1.85072 68.6189 1.40625 67.5 1.40625ZM22.5 4.21875H50.625V31.3805L37.9688 24.4772V9.84375C37.9688 9.47079 37.8206 9.1131 37.5569 8.84938C37.2931 8.58566 36.9355 8.4375 36.5625 8.4375C36.1895 8.4375 35.8319 8.58566 35.5681 8.84938C35.3044 9.1131 35.1562 9.47079 35.1562 9.84375V24.4772L22.5 31.3805V4.21875ZM68.9062 67.5C68.9062 67.873 68.7581 68.2306 68.4944 68.4944C68.2306 68.7581 67.873 68.9062 67.5 68.9062H5.625C5.25204 68.9062 4.89435 68.7581 4.63063 68.4944C4.36691 68.2306 4.21875 67.873 4.21875 67.5V5.625C4.21875 5.25204 4.36691 4.89435 4.63063 4.63063C4.89435 4.36691 5.25204 4.21875 5.625 4.21875H19.6875V33.75C19.6875 33.994 19.7509 34.2338 19.8716 34.4459C19.9923 34.6579 20.1661 34.8349 20.3759 34.9595C20.5857 35.084 20.8243 35.1519 21.0683 35.1563C21.3122 35.1607 21.5532 35.1016 21.7673 34.9847L36.5625 26.9142L51.3577 34.9847C51.5718 35.1016 51.8128 35.1607 52.0567 35.1563C52.3007 35.1519 52.5393 35.084 52.7491 34.9595C52.9589 34.8349 53.1327 34.6579 53.2534 34.4459C53.3741 34.2338 53.4375 33.994 53.4375 33.75V4.21875H67.5C67.873 4.21875 68.2306 4.36691 68.4944 4.63063C68.7581 4.89435 68.9062 5.25204 68.9062 5.625V67.5Z" fill="#808080"/>
<path d="M28.125 61.875H12.6562C12.2833 61.875 11.9256 62.0232 11.6619 62.2869C11.3982 62.5506 11.25 62.9083 11.25 63.2812C11.25 63.6542 11.3982 64.0119 11.6619 64.2756C11.9256 64.5393 12.2833 64.6875 12.6562 64.6875H28.125C28.498 64.6875 28.8556 64.5393 29.1194 64.2756C29.3831 64.0119 29.5312 63.6542 29.5312 63.2812C29.5312 62.9083 29.3831 62.5506 29.1194 62.2869C28.8556 62.0232 28.498 61.875 28.125 61.875Z" fill="#808080"/>
<path d="M61.875 61.875H46.4062C46.0333 61.875 45.6756 62.0232 45.4119 62.2869C45.1482 62.5506 45 62.9083 45 63.2812C45 63.6542 45.1482 64.0119 45.4119 64.2756C45.6756 64.5393 46.0333 64.6875 46.4062 64.6875H61.875C62.248 64.6875 62.6056 64.5393 62.8694 64.2756C63.1331 64.0119 63.2812 63.6542 63.2812 63.2812C63.2812 62.9083 63.1331 62.5506 62.8694 62.2869C62.6056 62.0232 62.248 61.875 61.875 61.875Z" fill="#808080"/>
<path d="M61.875 54.8438H46.4062C46.0333 54.8438 45.6756 54.9919 45.4119 55.2556C45.1482 55.5194 45 55.877 45 56.25C45 56.623 45.1482 56.9806 45.4119 57.2444C45.6756 57.5081 46.0333 57.6562 46.4062 57.6562H61.875C62.248 57.6562 62.6056 57.5081 62.8694 57.2444C63.1331 56.9806 63.2812 56.623 63.2812 56.25C63.2812 55.877 63.1331 55.5194 62.8694 55.2556C62.6056 54.9919 62.248 54.8438 61.875 54.8438Z" fill="#808080"/>
</svg>
