<svg width="123" height="123" viewBox="0 0 123 123" fill="none" xmlns="http://www.w3.org/2000/svg">
<path d="M82.6406 32.6719C76.0167 32.6795 69.6663 35.3142 64.9824 39.9981C60.2986 44.6819 57.6639 51.0323 57.6562 57.6563C57.6563 81.1992 80.2652 105.965 81.228 107.008C81.408 107.203 81.6264 107.359 81.8696 107.465C82.1127 107.572 82.3752 107.627 82.6406 107.627C82.906 107.627 83.1686 107.572 83.4117 107.465C83.6548 107.359 83.8732 107.203 84.0532 107.008C85.0161 105.965 107.625 81.1992 107.625 57.6563C107.617 51.0323 104.983 44.6819 100.299 39.9981C95.615 35.3142 89.2646 32.6795 82.6406 32.6719ZM82.6406 66.3047C80.9301 66.3047 79.258 65.7975 77.8358 64.8472C76.4136 63.8969 75.3051 62.5462 74.6505 60.9659C73.9959 59.3856 73.8247 57.6467 74.1584 55.969C74.4921 54.2914 75.3158 52.7504 76.5253 51.5409C77.7348 50.3314 79.2758 49.5077 80.9534 49.174C82.631 48.8403 84.3699 49.0116 85.9502 49.6661C87.5305 50.3207 88.8812 51.4292 89.8315 52.8514C90.7818 54.2737 91.2891 55.9458 91.2891 57.6563C91.2865 59.9492 90.3745 62.1475 88.7532 63.7688C87.1318 65.3902 84.9336 66.3021 82.6406 66.3047ZM99.9375 59.5781C99.4278 59.5781 98.9389 59.3756 98.5785 59.0152C98.2181 58.6548 98.0156 58.166 98.0156 57.6563C98.011 53.58 96.3897 49.6719 93.5073 46.7895C90.625 43.9072 86.7169 42.2858 82.6406 42.2813C82.1309 42.2813 81.6421 42.0788 81.2817 41.7183C80.9212 41.3579 80.7188 40.8691 80.7188 40.3594C80.7188 39.8497 80.9212 39.3608 81.2817 39.0004C81.6421 38.64 82.1309 38.4375 82.6406 38.4375C87.736 38.4431 92.6212 40.4697 96.2242 44.0727C99.8272 47.6757 101.854 52.5608 101.859 57.6563C101.859 58.166 101.657 58.6548 101.296 59.0152C100.936 59.3756 100.447 59.5781 99.9375 59.5781Z" fill="#F0F5F9"/>
<path d="M115.313 109.547C114.402 109.548 113.506 109.766 112.696 110.183C111.887 110.599 111.188 111.202 110.658 111.942L91.7446 106.38C91.5002 106.3 91.2424 106.271 90.9864 106.293C90.7304 106.315 90.4814 106.388 90.2541 106.507C90.0268 106.627 89.8259 106.792 89.6632 106.99C89.5005 107.189 89.3793 107.419 89.3068 107.665C89.2343 107.912 89.212 108.17 89.2412 108.426C89.2703 108.681 89.3504 108.928 89.4766 109.151C89.6028 109.375 89.7727 109.572 89.976 109.729C90.1794 109.886 90.4122 110 90.6607 110.066L109.58 115.63C109.644 116.752 110.036 117.832 110.707 118.734C111.378 119.637 112.298 120.323 113.355 120.707C114.411 121.092 115.558 121.159 116.652 120.9C117.746 120.64 118.74 120.066 119.512 119.248C120.283 118.429 120.798 117.403 120.992 116.295C121.186 115.187 121.052 114.047 120.605 113.015C120.158 111.983 119.419 111.105 118.478 110.488C117.538 109.872 116.437 109.545 115.313 109.547Z" fill="#F0F5F9"/>
<path d="M73.5368 106.38L54.6236 111.942C53.8287 110.838 52.6693 110.051 51.3501 109.719C50.031 109.388 48.6371 109.533 47.4149 110.13C46.1927 110.727 45.2209 111.737 44.6712 112.981C44.1215 114.225 44.0293 115.623 44.411 116.929C44.7926 118.234 45.6235 119.363 46.7568 120.115C47.8901 120.867 49.2528 121.194 50.604 121.039C51.9552 120.883 53.208 120.255 54.1408 119.265C55.0737 118.275 55.6266 116.988 55.7018 115.63L74.6207 110.066C74.8691 110 75.1019 109.886 75.3053 109.729C75.5087 109.572 75.6785 109.375 75.8047 109.151C75.9309 108.928 76.011 108.681 76.0402 108.426C76.0693 108.17 76.047 107.912 75.9745 107.665C75.902 107.419 75.7808 107.189 75.6181 106.99C75.4554 106.792 75.2545 106.627 75.0272 106.507C74.7999 106.388 74.5509 106.315 74.2949 106.293C74.0389 106.271 73.7811 106.3 73.5368 106.38Z" fill="#F0F5F9"/>
<path d="M49.9688 101.859C50.879 101.858 51.7757 101.64 52.5851 101.223C53.3944 100.807 54.0931 100.204 54.6236 99.4647L69.1588 103.741C69.4031 103.82 69.6609 103.85 69.917 103.828C70.173 103.806 70.422 103.733 70.6492 103.613C70.8765 103.493 71.0774 103.329 71.2402 103.13C71.4029 102.931 71.5241 102.702 71.5965 102.455C71.669 102.209 71.6913 101.95 71.6622 101.695C71.633 101.44 71.553 101.193 71.4267 100.969C71.3005 100.745 71.1307 100.549 70.9273 100.392C70.724 100.235 70.4912 100.12 70.2427 100.055L55.7018 95.7766C55.6376 94.6539 55.2458 93.5746 54.5748 92.6722C53.9039 91.7697 52.9832 91.0836 51.9265 90.6987C50.8699 90.3138 49.7236 90.247 48.6294 90.5065C47.5352 90.7659 46.541 91.3403 45.7697 92.1587C44.9984 92.9771 44.4838 94.0035 44.2895 95.1111C44.0952 96.2188 44.2298 97.3591 44.6765 98.3911C45.1232 99.4231 45.8626 100.302 46.8031 100.918C47.7437 101.534 48.8443 101.862 49.9688 101.859Z" fill="#F0F5F9"/>
<path d="M95.0387 100.055C94.7902 100.12 94.5575 100.235 94.3541 100.392C94.1507 100.549 93.9809 100.745 93.8547 100.969C93.7285 101.193 93.6484 101.44 93.6192 101.695C93.5901 101.95 93.6124 102.209 93.6849 102.455C93.7574 102.702 93.8785 102.931 94.0413 103.13C94.204 103.329 94.4049 103.493 94.6322 103.613C94.8594 103.733 95.1085 103.806 95.3645 103.828C95.6205 103.85 95.8783 103.82 96.1226 103.741L110.658 99.4647C111.453 100.568 112.612 101.356 113.931 101.687C115.25 102.019 116.644 101.873 117.866 101.276C119.089 100.679 120.06 99.6696 120.61 98.4255C121.16 97.1814 121.252 95.783 120.87 94.4775C120.489 93.172 119.658 92.0434 118.525 91.2913C117.391 90.5392 116.029 90.212 114.677 90.3675C113.326 90.5229 112.073 91.1511 111.141 92.1409C110.208 93.1308 109.655 94.4185 109.58 95.7766L95.0387 100.055Z" fill="#F0F5F9"/>
<path d="M94.8292 24.1253L50.8279 2.12365C50.5611 1.99035 50.267 1.92096 49.9688 1.92096C49.6706 1.92096 49.3765 1.99035 49.1097 2.12365L5.10838 24.1253C4.14849 24.6012 3.34115 25.3365 2.77794 26.2479C2.21472 27.1593 1.91817 28.2103 1.92191 29.2817V69.1875C1.92191 70.7166 2.52936 72.1831 3.61062 73.2644C4.14601 73.7998 4.78161 74.2245 5.48113 74.5142C6.18064 74.804 6.93038 74.9531 7.68753 74.9531H92.25C93.7792 74.9531 95.2457 74.3456 96.327 73.2644C97.4082 72.1831 98.0157 70.7166 98.0157 69.1875V29.2817C98.0194 28.2103 97.7228 27.1593 97.1596 26.2479C96.5964 25.3365 95.7891 24.6012 94.8292 24.1253ZM48.0469 71.1094H32.6719V55.7344H48.0469V71.1094ZM67.2657 71.1094H51.8907V55.7344H67.2657V71.1094ZM78.7969 71.1094H71.1094V53.8125C71.1094 53.3028 70.9069 52.8139 70.5465 52.4535C70.1861 52.0931 69.6973 51.8906 69.1875 51.8906H30.75C30.2403 51.8906 29.7515 52.0931 29.3911 52.4535C29.0306 52.8139 28.8282 53.3028 28.8282 53.8125V71.1094H21.1407V42.2812H78.7969V71.1094ZM78.7969 38.4375H21.1407V32.6719H78.7969V38.4375ZM94.1719 69.1875C94.1719 69.6972 93.9694 70.186 93.609 70.5464C93.2486 70.9069 92.7598 71.1094 92.25 71.1094H82.6407V30.75C82.6407 30.2403 82.4382 29.7514 82.0778 29.391C81.7173 29.0306 81.2285 28.8281 80.7188 28.8281H19.2188C18.7091 28.8281 18.2202 29.0306 17.8598 29.391C17.4994 29.7514 17.2969 30.2403 17.2969 30.75V71.1094H7.68753C7.17782 71.1094 6.68899 70.9069 6.32856 70.5464C5.96814 70.186 5.76566 69.6972 5.76566 69.1875V29.2817C5.76585 28.9249 5.86537 28.5751 6.05308 28.2717C6.24079 27.9682 6.50927 27.723 6.82846 27.5635L49.9688 5.99239L93.1091 27.5635C93.4283 27.723 93.6968 27.9682 93.8845 28.2717C94.0722 28.5751 94.1717 28.9249 94.1719 29.2817V69.1875Z" fill="#FFD500"/>
</svg>
