<svg width="123" height="123" viewBox="0 0 123 123" fill="none" xmlns="http://www.w3.org/2000/svg">
<path d="M110.148 106.935C116.436 100.509 120.222 92.0489 120.826 83.0788L121.078 42.166C121.099 41.2871 120.944 40.413 120.622 39.595C120.3 38.777 119.818 38.0318 119.203 37.4031C118.589 36.7745 117.854 36.2752 117.044 35.9346C116.234 35.5941 115.363 35.4192 114.484 35.4202C112.683 35.4599 110.969 36.2036 109.71 37.4919C108.451 38.7802 107.747 40.5106 107.748 42.312L107.667 54.5947C107.662 55.0099 107.535 55.4144 107.3 55.757C107.066 56.0997 106.735 56.3653 106.35 56.5203C105.964 56.6753 105.542 56.7127 105.136 56.6279C104.729 56.5432 104.357 56.3399 104.066 56.0438L73.4771 24.9479C72.2095 23.7298 70.5153 23.0565 68.7574 23.0719C66.9995 23.0874 65.3175 23.7904 64.0714 25.0305C62.8081 26.3059 62.0875 28.0208 62.0606 29.8158C62.0338 31.6108 62.7027 33.3465 63.9273 34.6591C64.131 34.8667 61.9439 32.645 79.3984 50.3858C79.7741 50.7863 79.9778 51.3182 79.9656 51.8672C79.9534 52.4162 79.7263 52.9385 79.3331 53.3218C78.9399 53.7052 78.4121 53.919 77.8629 53.9173C77.3138 53.9156 76.7872 53.6986 76.3964 53.3128L60.9849 37.6476L60.908 37.5669L53.2801 29.8141C52.0125 28.596 50.3184 27.9227 48.5604 27.9381C46.8025 27.9535 45.1205 28.6566 43.8745 29.8967C42.5999 31.1822 41.878 32.9148 41.8626 34.725C41.8471 36.5351 42.5394 38.2797 43.7918 39.5868L65.3668 61.5192C65.5598 61.7149 65.7121 61.9468 65.815 62.2017C65.9179 62.4565 65.9693 62.7292 65.9663 63.004C65.9633 63.2788 65.9058 63.5503 65.7973 63.8028C65.6888 64.0553 65.5314 64.2838 65.3341 64.4751C64.9345 64.8613 64.3989 65.0746 63.8432 65.0688C63.2875 65.0631 62.7564 64.8387 62.3648 64.4444L45.4139 47.2128C44.1465 45.9945 42.4525 45.3208 40.6946 45.3359C38.9367 45.351 37.2545 46.0537 36.0082 47.2935C34.7322 48.5787 34.0093 50.3118 33.9939 52.1227C33.9784 53.9337 34.6717 55.6788 35.9256 56.9855L62.1227 83.6151C62.3153 83.8111 62.4672 84.0433 62.5699 84.2982C62.6725 84.5532 62.7238 84.8259 62.7207 85.1007C62.7177 85.3755 62.6604 85.647 62.5522 85.8997C62.4439 86.1523 62.2869 86.3811 62.09 86.5728C61.69 86.9593 61.1538 87.1726 60.5977 87.1665C60.0415 87.1604 59.5101 86.9354 59.1188 86.5401L42.139 69.2779C40.8688 68.0725 39.1785 67.41 37.4276 67.4312C35.6766 67.4524 34.0029 68.1556 32.7622 69.3913C31.4869 70.6763 30.7639 72.4086 30.747 74.2189C30.7301 76.0293 31.4208 77.7746 32.6718 79.0833L60.4199 107.279C73.4886 121.82 93.086 124.484 110.148 106.935Z" fill="#F0F5F9"/>
<path d="M13.2071 87.6932C-3.86874 70.6462 4.09166 49.273 2.06024 25.4879C2.05543 24.1634 2.31235 22.8509 2.81624 21.626C3.32013 20.4011 4.06106 19.2878 4.99648 18.35C5.9319 17.4123 7.04337 16.6686 8.26705 16.1617C9.49073 15.6548 10.8025 15.3946 12.127 15.3961H12.1616C14.8467 15.4102 17.4181 16.4822 19.318 18.3796C21.218 20.2771 22.2934 22.847 22.311 25.5321L22.3341 32.2144L47.8028 6.78611C49.1588 5.44833 50.8631 4.518 52.7217 4.10096C54.5803 3.68392 56.5187 3.7969 58.3162 4.42707C60.1138 5.05723 61.6985 6.17927 62.8898 7.66554C64.0812 9.1518 64.8316 10.9426 65.0555 12.8343L66.6948 11.1987C68.5011 9.41211 70.9109 8.36664 73.4495 8.26828C75.9882 8.16992 78.4717 9.02581 80.4108 10.6673C82.3498 12.3089 83.6039 14.617 83.9259 17.1371C84.2479 19.6572 83.6145 22.2065 82.1505 24.2829C84.0608 24.4702 85.8788 25.1949 87.394 26.3731C88.9093 27.5512 90.0597 29.1346 90.7119 30.9398C91.3642 32.7449 91.4916 34.6979 91.0795 36.5725C90.6673 38.4471 89.7325 40.1666 88.3832 41.5317L85.3082 44.6067C87.2004 44.8246 88.9931 45.5704 90.4816 46.7589C91.97 47.9473 93.0942 49.5305 93.7256 51.3275C94.357 53.1245 94.4702 55.0629 94.0522 56.9211C93.6343 58.7794 92.7021 60.4827 91.3621 61.8363L82.7136 70.4847L82.6848 70.5136L65.313 87.8566C64.969 88.2525 54.8099 99.4858 40.0077 99.924C29.5085 100.224 20.5641 95.0444 13.2071 87.6932ZM15.9246 84.9738C23.5391 92.5786 31.5284 96.3282 39.8443 96.0841C52.9746 95.7132 62.4129 85.3216 62.507 85.2178L88.6446 59.1226C89.8045 57.9379 90.4521 56.3444 90.4473 54.6864C90.4426 53.0283 89.7859 51.4386 88.6192 50.2605C87.4525 49.0824 85.8692 48.4105 84.2113 48.3897C82.5533 48.3689 80.9537 49.0009 79.7578 50.1494L63.7813 66.1009C63.6027 66.2794 63.3907 66.4209 63.1575 66.5174C62.9242 66.6139 62.6742 66.6636 62.4218 66.6635C62.1694 66.6634 61.9194 66.6136 61.6862 66.5169C61.4531 66.4202 61.2412 66.2785 61.0628 66.1C60.8843 65.9214 60.7428 65.7095 60.6463 65.4762C60.5498 65.243 60.5001 64.993 60.5002 64.7405C60.5003 64.4881 60.5501 64.2382 60.6468 64.005C60.7435 63.7718 60.8852 63.5599 61.0637 63.3815C88.4062 36.0736 67.6807 56.7702 85.6676 38.8218C86.8283 37.6377 87.4768 36.0444 87.4729 34.3862C87.469 32.728 86.813 31.1378 85.6467 29.9591C84.4803 28.7804 82.8972 28.1077 81.2391 28.0863C79.581 28.0649 77.981 28.6965 76.7847 29.8448L60.8043 45.7963C60.6257 45.9748 60.4138 46.1163 60.1805 46.2128C59.9472 46.3093 59.6973 46.359 59.4448 46.3589C59.1924 46.3588 58.9424 46.309 58.7093 46.2123C58.4761 46.1156 58.2642 45.9739 58.0858 45.7954C57.9073 45.6168 57.7658 45.4049 57.6693 45.1716C57.5728 44.9383 57.5232 44.6884 57.5232 44.4359C57.5233 44.1835 57.5731 43.9335 57.6698 43.7004C57.7665 43.4672 57.9082 43.2553 58.0867 43.0769L78.351 22.8376C78.9367 22.2507 79.401 21.5542 79.7174 20.7878C80.0339 20.0214 80.1963 19.2002 80.1954 18.3711C80.1946 17.542 80.0304 16.7211 79.7122 15.9554C79.3941 15.1898 78.9283 14.4942 78.3414 13.9086C77.7545 13.3229 77.0579 12.8586 76.2916 12.5421C75.5252 12.2257 74.704 12.0632 73.8749 12.0641C73.0457 12.065 72.2249 12.2292 71.4592 12.5473C70.6935 12.8654 69.998 13.3313 69.4124 13.9182L47.6952 35.5969C47.5187 35.7845 47.3064 35.9348 47.0708 36.0387C46.8352 36.1426 46.5811 36.1982 46.3236 36.202C46.0661 36.2058 45.8105 36.1578 45.5719 36.0609C45.3333 35.964 45.1166 35.8201 44.9347 35.6378C44.7528 35.4555 44.6094 35.2386 44.513 34.9998C44.4166 34.761 44.3692 34.5052 44.3735 34.2478C44.3779 33.9903 44.434 33.7363 44.5384 33.5009C44.6428 33.2655 44.7935 33.0535 44.9815 32.8775L59.457 18.425C60.0364 17.8492 60.4959 17.1643 60.8089 16.4099C61.122 15.6555 61.2824 14.8465 61.2809 14.0297C61.2788 12.7838 60.9093 11.5663 60.2186 10.5295C59.5279 9.49267 58.5467 8.68261 57.3979 8.20071C56.249 7.71881 54.9835 7.58649 53.7599 7.8203C52.5362 8.05411 51.4086 8.64366 50.5184 9.51517L21.7864 38.1934C21.5184 38.4613 21.1772 38.644 20.8057 38.7186C20.4342 38.7931 20.0489 38.7562 19.6984 38.6124C19.3478 38.4687 19.0475 38.2245 18.8353 37.9106C18.6231 37.5966 18.5084 37.227 18.5057 36.8481L18.4673 25.5532C18.4577 23.8818 17.7887 22.2818 16.6057 21.101C15.4228 19.9202 13.8215 19.2541 12.1501 19.2475C11.329 19.2425 10.515 19.4002 9.75516 19.7116C8.99535 20.023 8.30482 20.482 7.72346 21.0619C7.14211 21.6418 6.68147 22.3312 6.36818 23.0903C6.05489 23.8493 5.89516 24.6629 5.89823 25.484C5.76562 58.9112 3.39594 72.4643 15.9246 84.9738Z" fill="#FFD500"/>
</svg>
