<svg width="90" height="90" viewBox="0 0 90 90" fill="none" xmlns="http://www.w3.org/2000/svg">
<path d="M44.55 54.8438H36.8859V64.0547C36.8859 64.256 36.8463 64.4553 36.7693 64.6413C36.6922 64.8273 36.5793 64.9963 36.437 65.1386C36.2947 65.2809 36.1257 65.3938 35.9397 65.4709C35.7537 65.5479 35.5544 65.5875 35.3531 65.5875H29.2078C29.0065 65.5875 28.8072 65.5479 28.6212 65.4709C28.4353 65.3938 28.2663 65.2809 28.124 65.1386C27.9816 64.9963 27.8687 64.8273 27.7917 64.6413C27.7146 64.4553 27.675 64.256 27.675 64.0547V54.8438H20.0109C18.8011 54.8586 17.6459 55.3496 16.7957 56.2104C15.9454 57.0711 15.4687 58.2323 15.4688 59.4422V83.9954C15.4687 85.2053 15.9454 86.3664 16.7957 87.2272C17.6459 88.088 18.8011 88.579 20.0109 88.5938H44.55C45.1593 88.6012 45.764 88.4879 46.3292 88.2603C46.8944 88.0327 47.4089 87.6954 47.843 87.2678C48.2771 86.8403 48.6221 86.3309 48.8583 85.7692C49.0944 85.2076 49.2169 84.6047 49.2188 83.9954V59.4422C49.2169 58.8329 49.0944 58.23 48.8583 57.6683C48.6221 57.1067 48.2771 56.5973 47.843 56.1698C47.4089 55.7422 46.8944 55.4049 46.3292 55.1773C45.764 54.9497 45.1593 54.8364 44.55 54.8438Z" fill="#F0F5F9"/>
<path d="M80.3996 54.8438H72.7215V64.0547C72.7215 64.256 72.6818 64.4553 72.6048 64.6413C72.5278 64.8272 72.4149 64.9962 72.2725 65.1386C72.1302 65.2809 71.9612 65.3938 71.7753 65.4708C71.5893 65.5479 71.39 65.5875 71.1887 65.5875H65.6902C65.4889 65.5875 65.2896 65.5479 65.1037 65.4708C64.9177 65.3938 64.7487 65.2809 64.6064 65.1386C64.464 64.9962 64.3511 64.8272 64.2741 64.6413C64.1971 64.4553 64.1574 64.256 64.1574 64.0547V54.8438H56.4934C55.2836 54.8585 54.1283 55.3496 53.2781 56.2103C52.4278 57.0711 51.9511 58.2323 51.9512 59.4422V83.9953C51.9511 85.2052 52.4278 86.3664 53.2781 87.2272C54.1283 88.0879 55.2836 88.5789 56.4934 88.5938H80.3996C81.6181 88.59 82.7855 88.1044 83.6471 87.2428C84.5087 86.3812 84.9943 85.2138 84.9981 83.9953V59.4422C84.9943 58.2237 84.5087 57.0563 83.6471 56.1947C82.7855 55.3331 81.6181 54.8475 80.3996 54.8438Z" fill="#F0F5F9"/>
<path d="M80.4273 16.8293H72.6929V26.0402C72.6929 26.4467 72.5314 26.8366 72.244 27.1241C71.9565 27.4115 71.5666 27.573 71.1601 27.573H65.0289C64.6322 27.5585 64.2566 27.3906 63.9812 27.1047C63.7058 26.8188 63.552 26.4372 63.5523 26.0402V16.8293H55.8179C54.5995 16.833 53.432 17.3187 52.5704 18.1802C51.7089 19.0418 51.2232 20.2093 51.2195 21.4277V47.3871C51.2232 48.6055 51.7089 49.773 52.5704 50.6346C53.432 51.4962 54.5995 51.9818 55.8179 51.9855H80.4273C81.6457 51.9818 82.8132 51.4962 83.6748 50.6346C84.5364 49.773 85.022 48.6055 85.0257 47.3871V21.4277C85.022 20.2093 84.5364 19.0418 83.6748 18.1802C82.8132 17.3187 81.6457 16.833 80.4273 16.8293Z" fill="#F0F5F9"/>
<path d="M66.4453 0H27.0703C25.9514 0 24.8784 0.444474 24.0872 1.23564C23.296 2.02681 22.8516 3.09987 22.8516 4.21875V15.4688H9.12094C8.337 15.466 7.56799 15.683 6.90111 16.0951C6.23423 16.5072 5.69618 17.098 5.34797 17.8003L0.795937 26.903C0.504204 27.4888 0.352106 28.1343 0.351562 28.7887V42.1875C0.351563 43.3064 0.796037 44.3794 1.58721 45.1706C2.37838 45.9618 3.45143 46.4062 4.57031 46.4062H7.52344C7.84619 47.9957 8.70853 49.4247 9.96432 50.4512C11.2201 51.4776 12.7922 52.0383 14.4141 52.0383C16.036 52.0383 17.608 51.4776 18.8638 50.4512C20.1196 49.4247 20.9819 47.9957 21.3047 46.4062H49.7109C50.0337 47.9957 50.896 49.4247 52.1518 50.4512C53.4076 51.4776 54.9797 52.0383 56.6016 52.0383C58.2235 52.0383 59.7955 51.4776 61.0513 50.4512C62.3071 49.4247 63.1694 47.9957 63.4922 46.4062H66.4453C67.5642 46.4062 68.6372 45.9618 69.4284 45.1706C70.2196 44.3794 70.6641 43.3064 70.6641 42.1875V4.21875C70.6641 3.09987 70.2196 2.02681 69.4284 1.23564C68.6372 0.444474 67.5642 0 66.4453 0ZM25.6641 4.21875C25.6641 3.84579 25.8122 3.4881 26.0759 3.22438C26.3397 2.96066 26.6974 2.8125 27.0703 2.8125H66.4453C66.8183 2.8125 67.176 2.96066 67.4397 3.22438C67.7034 3.4881 67.8516 3.84579 67.8516 4.21875V37.9688H25.6641V4.21875ZM49.7109 43.5938H21.3047C21.0877 42.5705 20.6431 41.6092 20.0039 40.7812H51.0131C50.3734 41.6091 49.9283 42.5704 49.7109 43.5938ZM22.8516 37.9688H3.16406V30.9375H14.4141C15.5329 30.9375 16.606 30.493 17.3972 29.7019C18.1883 28.9107 18.6328 27.8376 18.6328 26.7188V18.2812H22.8516V37.9688ZM7.86375 19.0589C7.97967 18.8247 8.15892 18.6277 8.38113 18.4903C8.60335 18.3528 8.85964 18.2804 9.12094 18.2812H15.8203V26.7188C15.8203 27.0917 15.6722 27.4494 15.4084 27.7131C15.1447 27.9768 14.787 28.125 14.4141 28.125H3.33L7.86375 19.0589ZM3.16406 42.1875V40.7812H8.82563C8.18588 41.6091 7.74081 42.5704 7.52344 43.5938H4.57031C4.19735 43.5938 3.83967 43.4456 3.57594 43.1819C3.31222 42.9181 3.16406 42.5605 3.16406 42.1875ZM14.4141 49.2188C13.5797 49.2188 12.764 48.9713 12.0703 48.5078C11.3765 48.0442 10.8358 47.3853 10.5164 46.6144C10.1971 45.8436 10.1136 44.9953 10.2764 44.177C10.4392 43.3586 10.841 42.6069 11.431 42.0169C12.021 41.4269 12.7727 41.0251 13.591 40.8623C14.4094 40.6995 15.2576 40.7831 16.0285 41.1024C16.7994 41.4217 17.4583 41.9624 17.9218 42.6562C18.3854 43.35 18.6328 44.1656 18.6328 45C18.6328 46.1189 18.1883 47.1919 17.3972 47.9831C16.606 48.7743 15.5329 49.2188 14.4141 49.2188ZM56.6016 49.2188C55.7672 49.2188 54.9515 48.9713 54.2578 48.5078C53.564 48.0442 53.0233 47.3853 52.7039 46.6144C52.3846 45.8436 52.3011 44.9953 52.4639 44.177C52.6267 43.3586 53.0285 42.6069 53.6185 42.0169C54.2085 41.4269 54.9602 41.0251 55.7785 40.8623C56.5969 40.6995 57.4451 40.7831 58.216 41.1024C58.9869 41.4217 59.6458 41.9624 60.1093 42.6562C60.5729 43.35 60.8203 44.1656 60.8203 45C60.8203 46.1189 60.3758 47.1919 59.5847 47.9831C58.7935 48.7743 57.7204 49.2188 56.6016 49.2188ZM67.8516 42.1875C67.8516 42.5605 67.7034 42.9181 67.4397 43.1819C67.176 43.4456 66.8183 43.5938 66.4453 43.5938H63.4922C63.2752 42.5705 62.8306 41.6092 62.1914 40.7812H67.8516V42.1875Z" fill="#808080"/>
</svg>
