<svg width="90" height="90" viewBox="0 0 90 90" fill="none" xmlns="http://www.w3.org/2000/svg">
<path d="M60.4688 23.9062C55.622 23.9118 50.9753 25.8397 47.5481 29.2669C44.1209 32.6941 42.1931 37.3407 42.1875 42.1875C42.1875 59.4141 58.7306 77.535 59.4352 78.2986C59.5668 78.4413 59.7267 78.5553 59.9046 78.6332C60.0824 78.7111 60.2745 78.7513 60.4688 78.7513C60.663 78.7513 60.8551 78.7111 61.0329 78.6332C61.2108 78.5553 61.3707 78.4413 61.5023 78.2986C62.2069 77.535 78.75 59.4141 78.75 42.1875C78.7444 37.3407 76.8166 32.6941 73.3894 29.2669C69.9622 25.8397 65.3155 23.9118 60.4688 23.9062ZM60.4688 48.5156C59.2172 48.5156 57.9937 48.1445 56.953 47.4491C55.9124 46.7538 55.1013 45.7655 54.6223 44.6092C54.1434 43.4529 54.018 42.1805 54.2622 40.9529C54.5064 39.7254 55.1091 38.5978 55.9941 37.7128C56.8791 36.8278 58.0067 36.2251 59.2342 35.981C60.4617 35.7368 61.7341 35.8621 62.8904 36.3411C64.0467 36.82 65.035 37.6311 65.7304 38.6718C66.4257 39.7124 66.7969 40.9359 66.7969 42.1875C66.795 43.8653 66.1277 45.4738 64.9414 46.6601C63.755 47.8465 62.1465 48.5138 60.4688 48.5156ZM73.125 43.5938C72.752 43.5938 72.3944 43.4456 72.1306 43.1819C71.8669 42.9181 71.7188 42.5605 71.7188 42.1875C71.7154 39.2048 70.5291 36.3453 68.42 34.2363C66.3109 32.1272 63.4514 30.9409 60.4688 30.9375C60.0958 30.9375 59.7381 30.7893 59.4744 30.5256C59.2107 30.2619 59.0625 29.9042 59.0625 29.5313C59.0625 29.1583 59.2107 28.8006 59.4744 28.5369C59.7381 28.2732 60.0958 28.125 60.4688 28.125C64.1971 28.1291 67.7716 29.612 70.4079 32.2483C73.0443 34.8847 74.5272 38.4592 74.5312 42.1875C74.5312 42.5605 74.3831 42.9181 74.1194 43.1819C73.8556 43.4456 73.498 43.5938 73.125 43.5938Z" fill="#F0F5F9"/>
<path d="M84.375 80.1562C83.709 80.1574 83.0529 80.3169 82.4607 80.6215C81.8685 80.9262 81.3572 81.3673 80.9691 81.9084L67.1302 77.8387C66.9514 77.7806 66.7627 77.759 66.5754 77.775C66.3881 77.7911 66.2059 77.8446 66.0396 77.9323C65.8733 78.02 65.7262 78.1401 65.6072 78.2856C65.4881 78.4312 65.3995 78.5991 65.3464 78.7794C65.2934 78.9598 65.2771 79.149 65.2984 79.3358C65.3197 79.5226 65.3783 79.7032 65.4707 79.8669C65.563 80.0307 65.6873 80.1743 65.8361 80.2892C65.9849 80.4041 66.1552 80.488 66.337 80.5359L80.1802 84.607C80.2272 85.4285 80.5138 86.2182 81.0048 86.8786C81.4957 87.5389 82.1694 88.0409 82.9426 88.3226C83.7157 88.6042 84.5544 88.6531 85.3551 88.4632C86.1557 88.2734 86.8832 87.8531 87.4475 87.2543C88.0119 86.6555 88.3884 85.9044 88.5306 85.094C88.6728 84.2835 88.5743 83.4491 88.2474 82.694C87.9206 81.9389 87.3796 81.2961 86.6914 80.845C86.0031 80.394 85.1978 80.1546 84.375 80.1562Z" fill="#F0F5F9"/>
<path d="M53.8073 77.8387L39.9684 81.9084C39.3868 81.1008 38.5384 80.5248 37.5732 80.2823C36.608 80.0397 35.5881 80.1462 34.6938 80.5829C33.7995 81.0197 33.0884 81.7585 32.6862 82.6688C32.284 83.5791 32.2165 84.6023 32.4958 85.5576C32.775 86.5128 33.383 87.3386 34.2122 87.8889C35.0415 88.4392 36.0386 88.6787 37.0273 88.5649C38.016 88.4512 38.9326 87.9915 39.6152 87.2673C40.2978 86.543 40.7023 85.6007 40.7573 84.607L54.6005 80.5359C54.7823 80.488 54.9526 80.4041 55.1014 80.2892C55.2502 80.1743 55.3745 80.0307 55.4668 79.8669C55.5592 79.7032 55.6178 79.5226 55.6391 79.3358C55.6604 79.149 55.6441 78.9598 55.5911 78.7794C55.538 78.5991 55.4494 78.4312 55.3303 78.2856C55.2113 78.1401 55.0642 78.02 54.8979 77.9323C54.7316 77.8446 54.5494 77.7911 54.3621 77.775C54.1748 77.759 53.9861 77.7806 53.8073 77.8387Z" fill="#F0F5F9"/>
<path d="M36.5625 74.5312C37.2285 74.5301 37.8847 74.3706 38.4768 74.0659C39.069 73.7613 39.5803 73.3202 39.9685 72.779L50.6039 75.9079C50.7828 75.966 50.9714 75.9877 51.1587 75.9716C51.346 75.9556 51.5282 75.9021 51.6945 75.8144C51.8608 75.7267 52.0079 75.6065 52.1269 75.461C52.246 75.3155 52.3346 75.1476 52.3877 74.9672C52.4407 74.7869 52.4571 74.5977 52.4357 74.4109C52.4144 74.2241 52.3558 74.0435 52.2634 73.8797C52.1711 73.716 52.0468 73.5724 51.898 73.4575C51.7492 73.3426 51.5789 73.2587 51.3971 73.2107L40.7574 70.0804C40.7104 69.2589 40.4237 68.4692 39.9328 67.8089C39.4418 67.1485 38.7681 66.6465 37.995 66.3649C37.2218 66.0833 36.3831 66.0343 35.5825 66.2242C34.7818 66.4141 34.0544 66.8344 33.49 67.4332C32.9256 68.032 32.5491 68.783 32.4069 69.5935C32.2648 70.404 32.3632 71.2383 32.6901 71.9934C33.017 72.7486 33.5579 73.3914 34.2462 73.8424C34.9344 74.2934 35.7397 74.5329 36.5625 74.5312Z" fill="#F0F5F9"/>
<path d="M69.5405 73.2108C69.3587 73.2587 69.1884 73.3426 69.0396 73.4575C68.8908 73.5724 68.7665 73.716 68.6742 73.8798C68.5818 74.0435 68.5232 74.2241 68.5019 74.4109C68.4805 74.5977 68.4969 74.7869 68.5499 74.9673C68.603 75.1477 68.6916 75.3156 68.8107 75.4611C68.9297 75.6066 69.0768 75.7267 69.2431 75.8144C69.4094 75.9021 69.5916 75.9556 69.7789 75.9717C69.9662 75.9877 70.1548 75.9661 70.3336 75.908L80.9691 72.7791C81.5507 73.5867 82.3991 74.1626 83.3643 74.4052C84.3296 74.6478 85.3494 74.5413 86.2437 74.1045C87.138 73.6678 87.8491 72.929 88.2514 72.0187C88.6536 71.1084 88.721 70.0852 88.4418 69.1299C88.1625 68.1747 87.5545 67.3489 86.7253 66.7986C85.8961 66.2483 84.899 66.0088 83.9103 66.1226C82.9216 66.2363 82.0049 66.696 81.3223 67.4202C80.6398 68.1445 80.2352 69.0868 80.1802 70.0805L69.5405 73.2108Z" fill="#F0F5F9"/>
<path d="M69.3872 17.6526L37.1911 1.55389C36.9959 1.45635 36.7807 1.40558 36.5625 1.40558C36.3443 1.40558 36.1291 1.45635 35.9339 1.55389L3.73784 17.6526C3.03548 18.0008 2.44474 18.5389 2.03264 19.2058C1.62053 19.8727 1.40354 20.6417 1.40628 21.4256V50.625C1.40628 51.7439 1.85075 52.8169 2.64192 53.6081C3.03367 53.9998 3.49874 54.3106 4.01058 54.5226C4.52242 54.7346 5.07101 54.8437 5.62503 54.8437H67.5C68.6189 54.8437 69.692 54.3993 70.4831 53.6081C71.2743 52.8169 71.7188 51.7439 71.7188 50.625V21.4256C71.7215 20.6417 71.5045 19.8727 71.0924 19.2058C70.6803 18.5389 70.0896 18.0008 69.3872 17.6526ZM35.1563 52.0312H23.9063V40.7812H35.1563V52.0312ZM49.2188 52.0312H37.9688V40.7812H49.2188V52.0312ZM57.6563 52.0312H52.0313V39.375C52.0313 39.002 51.8831 38.6443 51.6194 38.3806C51.3557 38.1169 50.998 37.9687 50.625 37.9687H22.5C22.1271 37.9687 21.7694 38.1169 21.5057 38.3806C21.2419 38.6443 21.0938 39.002 21.0938 39.375V52.0312H15.4688V30.9375H57.6563V52.0312ZM57.6563 28.125H15.4688V23.9062H57.6563V28.125ZM68.9063 50.625C68.9063 50.9979 68.7581 51.3556 68.4944 51.6194C68.2307 51.8831 67.873 52.0312 67.5 52.0312H60.4688V22.5C60.4688 22.127 60.3206 21.7693 60.0569 21.5056C59.7932 21.2419 59.4355 21.0937 59.0625 21.0937H14.0625C13.6896 21.0937 13.3319 21.2419 13.0682 21.5056C12.8044 21.7693 12.6563 22.127 12.6563 22.5V52.0312H5.62503C5.25206 52.0312 4.89438 51.8831 4.63066 51.6194C4.36693 51.3556 4.21878 50.9979 4.21878 50.625V21.4256C4.21891 21.1645 4.29174 20.9086 4.42908 20.6866C4.56643 20.4645 4.76288 20.2851 4.99643 20.1684L36.5625 4.38467L68.1286 20.1684C68.3622 20.2851 68.5586 20.4645 68.696 20.6866C68.8333 20.9086 68.9061 21.1645 68.9063 21.4256V50.625Z" fill="#808080"/>
</svg>
