<svg width="90" height="90" viewBox="0 0 90 90" fill="none" xmlns="http://www.w3.org/2000/svg">
<path d="M42.1875 54.8438H49.2188V61.875H42.1875V54.8438Z" fill="#F0F5F9"/>
<path d="M42.1875 70.3125H49.2188V77.3438H42.1875V70.3125Z" fill="#F0F5F9"/>
<path d="M26.7188 70.3125H33.75V77.3438H26.7188V70.3125Z" fill="#F0F5F9"/>
<path d="M87.5122 77.5729L78.7625 75.3918L75.9697 86.5898L87.5122 77.5729Z" fill="#F0F5F9"/>
<path d="M26.7188 54.8438H33.75V61.875H26.7188V54.8438Z" fill="#F0F5F9"/>
<path d="M76.3734 73.3472C76.418 73.168 76.4975 72.9993 76.6073 72.8507C76.717 72.7022 76.855 72.5768 77.0133 72.4816C77.1716 72.3864 77.347 72.3233 77.5297 72.2959C77.7123 72.2685 77.8986 72.2774 78.0778 72.322L88.5938 74.9433V33.75C88.5938 32.6311 88.1493 31.5581 87.3581 30.7669C86.5669 29.9757 85.4939 29.5313 84.375 29.5312H77.3438V35.415C78.282 35.7467 79.0728 36.3995 79.5764 37.2579C80.0799 38.1163 80.2638 39.125 80.0955 40.1059C79.9272 41.0867 79.4176 41.9765 78.6567 42.618C77.8958 43.2594 76.9327 43.6112 75.9375 43.6112C74.9423 43.6112 73.9792 43.2594 73.2183 42.618C72.4574 41.9765 71.9478 41.0867 71.7795 40.1059C71.6112 39.125 71.7951 38.1163 72.2986 37.2579C72.8022 36.3995 73.593 35.7467 74.5312 35.415V29.5312H54.8438V35.415C55.782 35.7467 56.5728 36.3995 57.0764 37.2579C57.5799 38.1163 57.7638 39.125 57.5955 40.1059C57.4272 41.0867 56.9176 41.9765 56.1567 42.618C55.3958 43.2594 54.4327 43.6112 53.4375 43.6112C52.4423 43.6112 51.4792 43.2594 50.7183 42.618C49.9574 41.9765 49.4478 41.0867 49.2795 40.1059C49.1112 39.125 49.2951 38.1163 49.7986 37.2579C50.3022 36.3995 51.093 35.7467 52.0312 35.415V29.5312H32.3438V35.415C33.282 35.7467 34.0728 36.3995 34.5764 37.2579C35.0799 38.1163 35.2638 39.125 35.0955 40.1059C34.9272 41.0867 34.4176 41.9765 33.6567 42.618C32.8958 43.2594 31.9327 43.6112 30.9375 43.6112C29.9423 43.6112 28.9792 43.2594 28.2183 42.618C27.4574 41.9765 26.9478 41.0867 26.7795 40.1059C26.6112 39.125 26.7951 38.1163 27.2986 37.2579C27.8022 36.3995 28.593 35.7467 29.5312 35.415V29.5312H22.5C21.3811 29.5313 20.3081 29.9757 19.5169 30.7669C18.7257 31.5581 18.2812 32.6311 18.2812 33.75V82.9688C18.2812 84.0876 18.7257 85.1607 19.5169 85.9519C20.3081 86.743 21.3811 87.1875 22.5 87.1875H72.9225L76.3734 73.3472ZM25.3125 46.4062H81.5625C81.9355 46.4062 82.2931 46.5544 82.5569 46.8181C82.8206 47.0819 82.9688 47.4395 82.9688 47.8125C82.9688 48.1855 82.8206 48.5431 82.5569 48.8069C82.2931 49.0706 81.9355 49.2188 81.5625 49.2188H25.3125C24.9395 49.2188 24.5819 49.0706 24.3181 48.8069C24.0544 48.5431 23.9062 48.1855 23.9062 47.8125C23.9062 47.4395 24.0544 47.0819 24.3181 46.8181C24.5819 46.5544 24.9395 46.4062 25.3125 46.4062ZM36.5625 78.75C36.5625 79.123 36.4143 79.4806 36.1506 79.7444C35.8869 80.0081 35.5292 80.1562 35.1562 80.1562H25.3125C24.9395 80.1562 24.5819 80.0081 24.3181 79.7444C24.0544 79.4806 23.9062 79.123 23.9062 78.75V68.9062C23.9062 68.5333 24.0544 68.1756 24.3181 67.9119C24.5819 67.6482 24.9395 67.5 25.3125 67.5H35.1562C35.5292 67.5 35.8869 67.6482 36.1506 67.9119C36.4143 68.1756 36.5625 68.5333 36.5625 68.9062V78.75ZM36.5625 63.2812C36.5625 63.6542 36.4143 64.0119 36.1506 64.2756C35.8869 64.5393 35.5292 64.6875 35.1562 64.6875H25.3125C24.9395 64.6875 24.5819 64.5393 24.3181 64.2756C24.0544 64.0119 23.9062 63.6542 23.9062 63.2812V53.4375C23.9062 53.0645 24.0544 52.7069 24.3181 52.4431C24.5819 52.1794 24.9395 52.0312 25.3125 52.0312H35.1562C35.5292 52.0312 35.8869 52.1794 36.1506 52.4431C36.4143 52.7069 36.5625 53.0645 36.5625 53.4375V63.2812ZM52.0312 78.75C52.0312 79.123 51.8831 79.4806 51.6194 79.7444C51.3556 80.0081 50.998 80.1562 50.625 80.1562H40.7812C40.4083 80.1562 40.0506 80.0081 39.7869 79.7444C39.5232 79.4806 39.375 79.123 39.375 78.75V68.9062C39.375 68.5333 39.5232 68.1756 39.7869 67.9119C40.0506 67.6482 40.4083 67.5 40.7812 67.5H50.625C50.998 67.5 51.3556 67.6482 51.6194 67.9119C51.8831 68.1756 52.0312 68.5333 52.0312 68.9062V78.75ZM52.0312 63.2812C52.0312 63.6542 51.8831 64.0119 51.6194 64.2756C51.3556 64.5393 50.998 64.6875 50.625 64.6875H40.7812C40.4083 64.6875 40.0506 64.5393 39.7869 64.2756C39.5232 64.0119 39.375 63.6542 39.375 63.2812V53.4375C39.375 53.0645 39.5232 52.7069 39.7869 52.4431C40.0506 52.1794 40.4083 52.0312 40.7812 52.0312H50.625C50.998 52.0312 51.3556 52.1794 51.6194 52.4431C51.8831 52.7069 52.0312 53.0645 52.0312 53.4375V63.2812ZM67.5 78.75C67.5 79.123 67.3518 79.4806 67.0881 79.7444C66.8244 80.0081 66.4667 80.1562 66.0938 80.1562H56.25C55.877 80.1562 55.5194 80.0081 55.2556 79.7444C54.9919 79.4806 54.8438 79.123 54.8438 78.75V68.9062C54.8438 68.5333 54.9919 68.1756 55.2556 67.9119C55.5194 67.6482 55.877 67.5 56.25 67.5H66.0938C66.4667 67.5 66.8244 67.6482 67.0881 67.9119C67.3518 68.1756 67.5 68.5333 67.5 68.9062V78.75ZM67.5 63.2812C67.5 63.6542 67.3518 64.0119 67.0881 64.2756C66.8244 64.5393 66.4667 64.6875 66.0938 64.6875H56.25C55.877 64.6875 55.5194 64.5393 55.2556 64.2756C54.9919 64.0119 54.8438 63.6542 54.8438 63.2812V53.4375C54.8438 53.0645 54.9919 52.7069 55.2556 52.4431C55.5194 52.1794 55.877 52.0312 56.25 52.0312H66.0938C66.4667 52.0312 66.8244 52.1794 67.0881 52.4431C67.3518 52.7069 67.5 53.0645 67.5 53.4375V63.2812ZM70.3125 63.2812V53.4375C70.3125 53.0645 70.4607 52.7069 70.7244 52.4431C70.9881 52.1794 71.3458 52.0312 71.7188 52.0312H81.5625C81.9355 52.0312 82.2931 52.1794 82.5569 52.4431C82.8206 52.7069 82.9688 53.0645 82.9688 53.4375V63.2812C82.9688 63.6542 82.8206 64.0119 82.5569 64.2756C82.2931 64.5393 81.9355 64.6875 81.5625 64.6875H71.7188C71.3458 64.6875 70.9881 64.5393 70.7244 64.2756C70.4607 64.0119 70.3125 63.6542 70.3125 63.2812Z" fill="#F0F5F9"/>
<path d="M73.125 54.8438H80.1562V61.875H73.125V54.8438Z" fill="#F0F5F9"/>
<path d="M57.6562 54.8438H64.6875V61.875H57.6562V54.8438Z" fill="#F0F5F9"/>
<path d="M57.6562 70.3125H64.6875V77.3438H57.6562V70.3125Z" fill="#F0F5F9"/>
<path d="M32.3438 0C25.9468 0 19.6934 1.89693 14.3745 5.4509C9.05564 9.00488 4.91006 14.0563 2.46204 19.9663C0.0140142 25.8764 -0.6265 32.3796 0.621491 38.6537C1.86948 44.9278 4.94993 50.6909 9.47328 55.2142C13.9966 59.7376 19.7597 62.818 26.0338 64.066C32.3079 65.314 38.8111 64.6735 44.7212 62.2255C50.6312 59.7775 55.6826 55.6319 59.2366 50.313C62.7906 44.9941 64.6875 38.7407 64.6875 32.3438C64.6778 23.7686 61.2671 15.5475 55.2036 9.48395C49.14 3.42042 40.9189 0.00967722 32.3438 0ZM32.3438 61.875C26.503 61.875 20.7935 60.143 15.9371 56.8981C11.0807 53.6532 7.2956 49.041 5.06045 43.6449C2.8253 38.2487 2.24048 32.311 3.37995 26.5825C4.51942 20.854 7.332 15.592 11.462 11.462C15.592 7.33198 20.854 4.5194 26.5825 3.37994C32.311 2.24047 38.2487 2.82528 43.6449 5.06043C49.041 7.29558 53.6532 11.0807 56.8981 15.9371C60.143 20.7935 61.875 26.503 61.875 32.3438C61.8661 40.1732 58.7519 47.6794 53.2156 53.2156C47.6794 58.7519 40.1732 61.8661 32.3438 61.875Z" fill="#808080"/>
<path d="M32.3438 8.4375C27.6156 8.4375 22.9935 9.83958 19.0622 12.4664C15.1308 15.0933 12.0667 18.8269 10.2573 23.1952C8.44786 27.5635 7.97443 32.3703 8.89686 37.0076C9.81929 41.645 12.0961 45.9047 15.4395 49.248C18.7828 52.5914 23.0425 54.8682 27.6799 55.7906C32.3172 56.7131 37.124 56.2397 41.4923 54.4302C45.8606 52.6208 49.5942 49.5567 52.2211 45.6254C54.8479 41.694 56.25 37.072 56.25 32.3438C56.2429 26.0056 53.722 19.929 49.2402 15.4473C44.7585 10.9655 38.6819 8.44457 32.3438 8.4375ZM32.3438 53.4375C28.1718 53.4375 24.0936 52.2004 20.6247 49.8826C17.1559 47.5648 14.4522 44.2704 12.8557 40.416C11.2591 36.5616 10.8414 32.3204 11.6553 28.2286C12.4692 24.1368 14.4782 20.3782 17.4282 17.4282C20.3782 14.4782 24.1368 12.4692 28.2286 11.6553C32.3204 10.8414 36.5616 11.2591 40.416 12.8557C44.2704 14.4522 47.5648 17.1558 49.8826 20.6247C52.2004 24.0935 53.4375 28.1718 53.4375 32.3438C53.4312 37.9362 51.2068 43.2978 47.2523 47.2523C43.2978 51.2068 37.9362 53.4312 32.3438 53.4375Z" fill="#808080"/>
<path fill-rule="evenodd" clip-rule="evenodd" d="M29.3873 30.8174C30.0089 30.5981 30.5657 30.3956 31.0917 30.1888L33.9042 28.9738C34.5756 28.6488 35.2134 28.2583 35.8082 27.8081C36.21 27.4335 36.5025 26.9569 36.6546 26.4292C36.8066 25.9014 36.8126 25.3422 36.6717 24.8113C36.5579 24.0852 36.2359 23.4077 35.7447 22.8611C35.2534 22.3144 34.6141 21.9221 33.9042 21.7317C33.9042 21.7317 32.9592 21.4885 32.3404 21.4722C31.8513 21.4593 31.0917 21.5756 31.0917 21.5756C30.148 21.7319 29.2584 22.122 28.5042 22.7104C28.368 22.8352 28.2086 22.9318 28.035 22.995C27.8614 23.0581 27.6771 23.0864 27.4926 23.0783C27.3081 23.0702 27.127 23.0259 26.9596 22.9478C26.7922 22.8697 26.6419 22.7594 26.5171 22.6232C26.3924 22.487 26.2957 22.3276 26.2326 22.154C26.1694 21.9805 26.1411 21.7962 26.1492 21.6116C26.1573 21.4271 26.2017 21.246 26.2798 21.0786C26.3579 20.9113 26.4681 20.7609 26.6043 20.6362C27.8823 19.5759 29.4418 18.9113 31.0917 18.7237C31.0917 18.7237 31.9495 18.6136 32.5054 18.6358C33.0487 18.6575 33.9042 18.8334 33.9042 18.8334C35.2808 19.0502 36.5548 19.693 37.5472 20.6715C38.5395 21.6499 39.2002 22.9148 39.4364 24.2882C39.6758 25.3258 39.6259 26.4092 39.2921 27.4203C38.9584 28.4315 38.3535 29.3317 37.5436 30.0229C36.4218 30.8598 35.1984 31.5511 33.9028 32.0803L31.0917 33.1912C30.9986 33.2253 30.9069 33.2591 30.8146 33.293C30.656 33.3513 30.496 33.4102 30.3253 33.4724C29.2926 33.7636 28.4079 34.4336 27.8476 35.3486C27.2874 36.2636 27.093 37.3563 27.3032 38.4084H27.3089C27.473 39.3985 27.9161 40.3213 28.5861 41.0685C29.2561 41.8157 30.1253 42.3564 31.0917 42.6271C31.0917 42.6271 31.8957 42.8766 32.4283 42.9175C33.0039 42.9617 33.9028 42.8113 33.9028 42.8113C33.9028 42.8113 36.881 42.2614 38.0878 41.346C38.2423 41.2449 38.4153 41.1753 38.5968 41.141C38.7783 41.1067 38.9648 41.1086 39.1456 41.1464C39.3264 41.1842 39.4979 41.2572 39.6505 41.3613C39.8031 41.4654 39.9336 41.5986 40.0347 41.7531C40.1358 41.9077 40.2055 42.0807 40.2398 42.2622C40.274 42.4437 40.2722 42.6301 40.2344 42.8109C40.1966 42.9917 40.1235 43.1633 40.0194 43.3159C39.9153 43.4684 39.7822 43.599 39.6276 43.7001C37.9621 44.9136 35.9631 45.5843 33.9028 45.621C33.9028 45.621 32.8961 45.6552 32.2525 45.621C31.7974 45.5969 31.0903 45.5156 31.0903 45.5156C29.4427 45.2278 27.9258 44.4336 26.7508 43.2434C25.5757 42.0533 24.801 40.5264 24.5343 38.8753C24.2088 37.1702 24.524 35.4051 25.4196 33.9181C26.3151 32.4311 27.728 31.327 29.3873 30.8174Z" fill="#808080"/>
<path d="M24.082 29.9707H39.2871M39.375 34.1016H24.082" stroke="#808080" stroke-width="3" stroke-linecap="round" stroke-linejoin="round"/>
</svg>
