<svg width="90" height="90" viewBox="0 0 90 90" fill="none" xmlns="http://www.w3.org/2000/svg">
<path d="M80.5964 78.2452C85.1968 73.543 87.9674 67.3529 88.4095 60.7894L88.5937 30.8532C88.6091 30.2101 88.4956 29.5705 88.26 28.972C88.0244 28.3735 87.6713 27.8281 87.2217 27.3682C86.7721 26.9082 86.235 26.5428 85.642 26.2937C85.049 26.0445 84.4121 25.9165 83.7689 25.9172C82.451 25.9463 81.197 26.4905 80.2757 27.4331C79.3543 28.3758 78.8389 29.6419 78.84 30.96L78.7809 39.9474C78.7773 40.2512 78.6838 40.5471 78.5122 40.7979C78.3406 41.0486 78.0987 41.2429 77.8168 41.3563C77.5349 41.4697 77.2258 41.4971 76.9284 41.4351C76.631 41.3731 76.3586 41.2243 76.1456 41.0077L53.7637 18.2546C52.8362 17.3633 51.5966 16.8706 50.3103 16.8819C49.024 16.8932 47.7932 17.4076 46.8815 18.315C45.9571 19.2483 45.4298 20.5031 45.4102 21.8165C45.3905 23.1299 45.88 24.3999 46.776 25.3604C46.9251 25.5122 45.3248 23.8866 58.0964 36.8677C58.3713 37.1607 58.5203 37.5499 58.5114 37.9516C58.5024 38.3533 58.3363 38.7355 58.0486 39.016C57.7609 39.2965 57.3747 39.4529 56.9729 39.4517C56.571 39.4505 56.1858 39.2917 55.8998 39.0094L44.6231 27.5471L44.5668 27.488L38.9854 21.8152C38.0579 20.9239 36.8183 20.4312 35.532 20.4425C34.2457 20.4538 33.015 20.9683 32.1032 21.8757C31.1707 22.8163 30.6424 24.084 30.6311 25.4085C30.6198 26.733 31.1264 28.0096 32.0428 28.966L47.8293 45.0141C47.9705 45.1573 48.082 45.327 48.1573 45.5134C48.2326 45.6999 48.2702 45.8994 48.268 46.1005C48.2658 46.3016 48.2238 46.5002 48.1444 46.685C48.065 46.8697 47.9498 47.0369 47.8054 47.1769C47.513 47.4595 47.1211 47.6156 46.7145 47.6113C46.3079 47.6071 45.9193 47.443 45.6328 47.1544L33.2296 34.546C32.3023 33.6545 31.0628 33.1616 29.7765 33.1726C28.4902 33.1837 27.2594 33.6978 26.3474 34.605C25.4138 35.5454 24.8848 36.8135 24.8735 38.1386C24.8622 39.4637 25.3695 40.7406 26.287 41.6968L45.4556 61.1818C45.5965 61.3252 45.7077 61.4951 45.7828 61.6817C45.8579 61.8682 45.8954 62.0678 45.8932 62.2688C45.891 62.4699 45.8491 62.6686 45.7699 62.8534C45.6907 63.0383 45.5757 63.2057 45.4317 63.346C45.139 63.6288 44.7467 63.7849 44.3397 63.7804C43.9328 63.7759 43.544 63.6113 43.2576 63.3221L30.8334 50.6911C29.9039 49.8092 28.6672 49.3244 27.386 49.3399C26.1048 49.3554 24.8801 49.8699 23.9723 50.7741C23.0392 51.7144 22.5101 52.9819 22.4978 54.3065C22.4854 55.6312 22.9908 56.9083 23.9062 57.8658L44.2096 78.4969C53.7721 89.1366 68.1117 91.0857 80.5964 78.2452Z" fill="#F0F5F9"/>
<path d="M9.66372 64.1658C-2.83081 51.6923 2.99388 36.0534 1.50747 18.6497C1.50395 17.6805 1.69194 16.7202 2.06064 15.8239C2.42934 14.9276 2.97149 14.113 3.65594 13.4269C4.34039 12.7407 5.15366 12.1966 6.04904 11.8256C6.94441 11.4547 7.90424 11.2643 8.87341 11.2655H8.89872C10.8634 11.2758 12.7449 12.0602 14.1351 13.4485C15.5253 14.8369 16.3122 16.7173 16.3251 18.682L16.342 23.5716L34.9776 4.96547C35.9698 3.98661 37.2169 3.30588 38.5768 3.00072C39.9368 2.69557 41.3551 2.77824 42.6704 3.23934C43.9857 3.70043 45.1452 4.52144 46.0169 5.60895C46.8887 6.69646 47.4377 8.00681 47.6015 9.39094L48.8011 8.19422C50.1227 6.88693 51.886 6.12195 53.7436 6.04998C55.6011 5.97801 57.4183 6.60427 58.8371 7.80538C60.256 9.0065 61.1736 10.6954 61.4092 12.5394C61.6448 14.3833 61.1813 16.2487 60.1101 17.768C61.5079 17.905 62.8381 18.4353 63.9468 19.2974C65.0555 20.1595 65.8973 21.318 66.3746 22.6389C66.8518 23.9597 66.9451 25.3888 66.6435 26.7604C66.3419 28.1321 65.6579 29.3902 64.6706 30.3891L62.4206 32.6391C63.8051 32.7985 65.1169 33.3442 66.206 34.2138C67.2951 35.0834 68.1177 36.2418 68.5797 37.5567C69.0417 38.8716 69.1245 40.2899 68.8187 41.6496C68.5129 43.0094 67.8308 44.2556 66.8503 45.2461L60.5222 51.5742L60.5011 51.5953L47.79 64.2853C47.5383 64.575 40.1048 72.7945 29.2739 73.1152C21.5915 73.3345 15.0468 69.5447 9.66372 64.1658ZM11.6522 62.1759C17.2237 67.7405 23.0695 70.4841 29.1543 70.3055C38.7618 70.0341 45.6679 62.4305 45.7368 62.3545L64.8619 43.2605C65.7106 42.3936 66.1844 41.2277 66.1809 40.0145C66.1775 38.8012 65.697 37.638 64.8433 36.776C63.9896 35.914 62.8311 35.4223 61.618 35.4071C60.4049 35.3919 59.2344 35.8544 58.3594 36.6947L46.6692 48.3666C46.5385 48.4971 46.3834 48.6007 46.2128 48.6713C46.0421 48.7419 45.8592 48.7782 45.6745 48.7782C45.4898 48.7781 45.3069 48.7417 45.1363 48.6709C44.9656 48.6002 44.8106 48.4965 44.68 48.3659C44.5495 48.2352 44.4459 48.0801 44.3753 47.9094C44.3047 47.7388 44.2684 47.5559 44.2684 47.3711C44.2685 47.1864 44.305 47.0035 44.3757 46.8329C44.4464 46.6623 44.5501 46.5073 44.6808 46.3767C64.6875 26.3953 49.5225 41.5392 62.6836 28.4062C63.5329 27.5398 64.0074 26.374 64.0045 25.1607C64.0017 23.9473 63.5217 22.7838 62.6683 21.9213C61.8149 21.0589 60.6565 20.5667 59.4432 20.551C58.23 20.5353 57.0593 20.9975 56.1839 21.8377L44.4909 33.5095C44.3603 33.6401 44.2052 33.7436 44.0345 33.8143C43.8638 33.8849 43.6809 33.9212 43.4962 33.9211C43.3115 33.9211 43.1286 33.8846 42.958 33.8139C42.7874 33.7431 42.6323 33.6395 42.5018 33.5088C42.3712 33.3782 42.2677 33.2231 42.197 33.0524C42.1264 32.8817 42.0901 32.6988 42.0902 32.5141C42.0902 32.3294 42.1267 32.1465 42.1974 31.9759C42.2682 31.8053 42.3718 31.6502 42.5025 31.5197L57.33 16.7105C57.7585 16.281 58.0983 15.7714 58.3298 15.2106C58.5614 14.6499 58.6802 14.049 58.6796 13.4423C58.6789 12.8356 58.5588 12.235 58.326 11.6747C58.0932 11.1145 57.7524 10.6056 57.3229 10.177C56.8935 9.7485 56.3838 9.40875 55.8231 9.17719C55.2623 8.94562 54.6615 8.82677 54.0548 8.82743C53.4481 8.82808 52.8475 8.94822 52.2872 9.18099C51.727 9.41376 51.218 9.75461 50.7895 10.1841L34.8989 26.0466C34.7698 26.1838 34.6144 26.2937 34.442 26.3698C34.2696 26.4459 34.0837 26.4865 33.8953 26.4893C33.7069 26.4921 33.5198 26.457 33.3453 26.386C33.1707 26.3151 33.0121 26.2099 32.879 26.0765C32.7459 25.9431 32.641 25.7843 32.5705 25.6096C32.4999 25.4349 32.4652 25.2478 32.4684 25.0594C32.4716 24.871 32.5126 24.6851 32.589 24.5129C32.6655 24.3406 32.7757 24.1855 32.9133 24.0567L43.5051 13.4817C43.9291 13.0604 44.2653 12.5593 44.4943 12.0073C44.7234 11.4552 44.8408 10.8633 44.8397 10.2656C44.8381 9.35405 44.5677 8.46318 44.0623 7.70453C43.557 6.94588 42.839 6.35315 41.9984 6.00054C41.1578 5.64793 40.2318 5.55111 39.3365 5.72219C38.4411 5.89327 37.6161 6.32465 36.9647 6.96234L15.9412 27.9464C15.7451 28.1424 15.4955 28.2761 15.2237 28.3307C14.9518 28.3852 14.6699 28.3582 14.4134 28.253C14.1569 28.1478 13.9372 27.9692 13.7819 27.7395C13.6266 27.5098 13.5427 27.2393 13.5408 26.962L13.5126 18.6975C13.5056 17.4745 13.0161 16.3038 12.1505 15.4398C11.2849 14.5758 10.1133 14.0884 8.89028 14.0836C8.28945 14.0799 7.69385 14.1953 7.1379 14.4231C6.58194 14.651 6.07667 14.9868 5.65129 15.4112C5.22591 15.8355 4.88886 16.3399 4.65962 16.8953C4.43039 17.4507 4.31351 18.046 4.31575 18.6469C4.21872 43.1058 2.48481 53.0227 11.6522 62.1759Z" fill="#808080"/>
</svg>
