<svg width="62" height="42" viewBox="0 0 62 42" fill="none" xmlns="http://www.w3.org/2000/svg">
<path d="M29.283 9.21855L25.6133 18.1309C25.4889 18.4331 25.2063 18.6408 24.8808 18.6694L6.10994 20.3189C5.64939 20.3593 5.29988 20.7511 5.31194 21.213L5.69367 35.9473C5.7042 36.3525 5.99161 36.6973 6.38823 36.7809L28.4864 41.4291C29.0266 41.5427 29.5757 41.599 30.1248 41.5977L30.1252 37.2279V9.3852C30.125 8.1689 29.7461 8.09394 29.283 9.21855ZM26.7134 36.6963L18.4177 35.3604V31.0122H26.7134V36.6963ZM23.0861 16.5514L0.96424 18.7867C0.28842 18.855 -0.204034 18.1606 0.0838809 17.5455L5.97439 4.95443C6.09423 4.69822 6.33058 4.51567 6.60877 4.46461L30.9158 0.000101252L23.7978 16.036C23.6703 16.323 23.3987 16.5198 23.0861 16.5514ZM55.8901 20.3189L37.1193 18.6695C36.7937 18.6409 36.5111 18.4332 36.3868 18.131L32.717 9.21865C32.2539 8.09394 31.8749 8.1689 31.8749 9.3852V37.2278L31.8753 41.5976C32.4243 41.599 32.9735 41.5426 33.5138 41.429L55.612 36.7808C56.0086 36.6973 56.296 36.3524 56.3064 35.9472L56.6882 21.213C56.7002 20.751 56.3505 20.3593 55.8901 20.3189ZM48.1652 28.189L47.1285 28.2177L47.1075 34.7425C47.1066 35.0299 46.8147 35.3047 46.4516 35.3569L44.7526 35.6013C44.3644 35.6571 44.0468 35.4582 44.0476 35.1563L44.0634 28.3028L42.8776 28.3356C42.301 28.3515 41.9362 27.8893 42.2297 27.5066L45.0498 23.8318C45.3169 23.4835 45.9726 23.5156 46.2301 23.8826L48.7056 27.4106C48.9402 27.7452 48.6435 28.1757 48.1652 28.189ZM61.0357 18.7867L38.9138 16.5514C38.6012 16.5198 38.3295 16.323 38.2021 16.0359L31.0842 0L55.3912 4.46451C55.6694 4.51557 55.9058 4.69812 56.0257 4.95433L61.9162 17.5454C62.204 18.1606 61.7115 18.855 61.0357 18.7867Z" fill="white"/>
<g clip-path="url(#clip0)">
<path d="M43.1895 3H19.8562C18.246 3.00187 16.9413 4.30657 16.9395 5.91676V33.9166C16.9395 34.8832 17.7229 35.6667 18.6896 35.6667V37.4165C18.6896 37.7388 18.9507 38 19.2728 38H43.7729C44.0949 38 44.3561 37.7388 44.3561 37.4165V35.6667C45.3225 35.6667 46.1062 34.8832 46.1062 33.9166V5.91676C46.1041 4.30657 44.7996 3.00187 43.1895 3V3ZM19.8562 4.16665H43.1895C44.1558 4.16665 44.9396 4.95011 44.9396 5.91676V10.0002H18.1061V5.91676C18.1061 4.95011 18.8896 4.16665 19.8562 4.16665ZM43.1895 36.8334H19.8562V35.6667H43.1895V36.8334ZM44.3561 34.5001H18.6896C18.3673 34.5001 18.1061 34.2389 18.1061 33.9166V11.1665H44.9396V33.9166C44.9396 34.2389 44.6784 34.5001 44.3561 34.5001Z" fill="#FFD500"/>
<path d="M19.8569 8.83326H26.8568C27.1791 8.83326 27.4402 8.57211 27.4402 8.25007V5.91677C27.4402 5.59447 27.1791 5.33331 26.8568 5.33331H19.8569C19.5346 5.33331 19.2734 5.59447 19.2734 5.91677V8.25007C19.2734 8.57211 19.5346 8.83326 19.8569 8.83326ZM20.4401 6.49996H26.2736V7.66661H20.4401V6.49996Z" fill="#FFD500"/>
<path d="M30.3553 8.83326C31.322 8.83326 32.1054 8.0498 32.1054 7.08342C32.1054 6.11678 31.322 5.33331 30.3553 5.33331C29.3889 5.33331 28.6055 6.11678 28.6055 7.08342C28.6055 8.0498 29.3889 8.83326 30.3553 8.83326ZM30.3553 6.49996C30.6776 6.49996 30.9388 6.76112 30.9388 7.08342C30.9388 7.40546 30.6776 7.66661 30.3553 7.66661C30.0333 7.66661 29.7721 7.40546 29.7721 7.08342C29.7721 6.76112 30.0333 6.49996 30.3553 6.49996Z" fill="#FFD500"/>
<path d="M35.0233 8.83326C35.9899 8.83326 36.7734 8.0498 36.7734 7.08342C36.7734 6.11678 35.9899 5.33331 35.0233 5.33331C34.0569 5.33331 33.2734 6.11678 33.2734 7.08342C33.2734 8.0498 34.0569 8.83326 35.0233 8.83326ZM35.0233 6.49996C35.3456 6.49996 35.6067 6.76112 35.6067 7.08342C35.6067 7.40546 35.3456 7.66661 35.0233 7.66661C34.7012 7.66661 34.4401 7.40546 34.4401 7.08342C34.4401 6.76112 34.7012 6.49996 35.0233 6.49996Z" fill="#FFD500"/>
<path d="M38.5229 7.66659H39.6896C40.0116 7.66659 40.2728 7.40543 40.2728 7.0834C40.2728 6.76109 40.0116 6.49994 39.6896 6.49994H38.5229C38.2006 6.49994 37.9395 6.76109 37.9395 7.0834C37.9395 7.40543 38.2006 7.66659 38.5229 7.66659Z" fill="#FFD500"/>
<path d="M42.0229 7.66659H43.1896C43.5119 7.66659 43.773 7.40543 43.773 7.0834C43.773 6.76109 43.5119 6.49994 43.1896 6.49994H42.0229C41.7006 6.49994 41.4395 6.76109 41.4395 7.0834C41.4395 7.40543 41.7006 7.66659 42.0229 7.66659Z" fill="#FFD500"/>
<path d="M31.5226 13.5001C26.3682 13.5001 22.1895 17.6786 22.1895 22.8333C22.1895 27.988 26.3682 32.1668 31.5226 32.1668C36.6774 32.1668 40.8561 27.988 40.8561 22.8333C40.85 17.6813 36.675 13.5063 31.5226 13.5001ZM31.5226 31.0001C27.0125 31.0001 23.3561 27.3437 23.3561 22.8333C23.3561 18.3229 27.0125 14.6668 31.5226 14.6668C36.033 14.6668 39.6895 18.3229 39.6895 22.8333C39.6846 27.3416 36.0312 30.9953 31.5226 31.0001Z" fill="#FFD500"/>
<path d="M31.5228 15.2501C27.339 15.2461 23.9437 18.6344 23.9395 22.8182C23.9387 23.8097 24.1323 24.7918 24.5096 25.7088C24.513 25.7205 24.5096 25.7326 24.5141 25.7443C24.5189 25.7561 24.5299 25.767 24.5357 25.7806C26.1603 29.6373 30.604 31.4467 34.4607 29.8221C36.6188 28.9129 38.2351 27.057 38.8397 24.7947C38.8429 24.7851 38.8453 24.7753 38.8471 24.7654C39.9305 20.7364 37.5424 16.5921 33.5132 15.5091C32.8644 15.3347 32.1949 15.2474 31.5228 15.2501ZM31.5228 16.4167C35.0583 16.4084 37.9312 19.2678 37.9395 22.803C37.9406 23.2804 37.8885 23.7563 37.7838 24.2217C37.4797 24.3224 37.1811 24.4393 36.8896 24.5718C36.1328 24.9646 35.2922 25.1686 34.4396 25.1667C33.7135 25.1862 32.9963 25.0044 32.3669 24.6417C31.5749 24.2009 30.6793 23.9795 29.773 24.0001C28.2912 24.0604 26.826 24.3355 25.4236 24.8166C24.324 21.4521 26.1601 17.8333 29.5246 16.7339C30.1698 16.523 30.8443 16.4159 31.5228 16.4167ZM31.5228 29.2501C29.1714 29.2485 27.0087 27.9614 25.8856 25.8954C27.1401 25.4685 28.449 25.2231 29.773 25.1667C30.499 25.1475 31.2163 25.3291 31.8454 25.6917C32.6377 26.1326 33.5333 26.3542 34.4396 26.3334C35.4193 26.3387 36.3867 26.1152 37.2647 25.6807C36.1835 27.864 33.9592 29.2469 31.5228 29.2501Z" fill="#FFD500"/>
</g>
<defs>
<clipPath id="clip0">
<rect width="35" height="35" fill="white" transform="translate(14 3)"/>
</clipPath>
</defs>
</svg>
