<svg width="62" height="42" viewBox="0 0 62 42" fill="none" xmlns="http://www.w3.org/2000/svg">
<path d="M29.283 9.21855L25.6133 18.1309C25.4889 18.4331 25.2063 18.6408 24.8808 18.6694L6.10994 20.3189C5.64939 20.3593 5.29988 20.7511 5.31194 21.213L5.69367 35.9473C5.7042 36.3525 5.99161 36.6973 6.38823 36.7809L28.4864 41.4291C29.0266 41.5427 29.5757 41.599 30.1248 41.5977L30.1252 37.2279V9.3852C30.125 8.1689 29.7461 8.09394 29.283 9.21855ZM26.7134 36.6963L18.4177 35.3604V31.0122H26.7134V36.6963ZM23.0861 16.5514L0.96424 18.7867C0.28842 18.855 -0.204034 18.1606 0.0838809 17.5455L5.97439 4.95443C6.09423 4.69822 6.33058 4.51567 6.60877 4.46461L30.9158 0.000101252L23.7978 16.036C23.6703 16.323 23.3987 16.5198 23.0861 16.5514ZM55.8901 20.3189L37.1193 18.6695C36.7937 18.6409 36.5111 18.4332 36.3868 18.131L32.717 9.21865C32.2539 8.09394 31.8749 8.1689 31.8749 9.3852V37.2278L31.8753 41.5976C32.4243 41.599 32.9735 41.5426 33.5138 41.429L55.612 36.7808C56.0086 36.6973 56.296 36.3524 56.3064 35.9472L56.6882 21.213C56.7002 20.751 56.3505 20.3593 55.8901 20.3189ZM48.1652 28.189L47.1285 28.2177L47.1075 34.7425C47.1066 35.0299 46.8147 35.3047 46.4516 35.3569L44.7526 35.6013C44.3644 35.6571 44.0468 35.4582 44.0476 35.1563L44.0634 28.3028L42.8776 28.3356C42.301 28.3515 41.9362 27.8893 42.2297 27.5066L45.0498 23.8318C45.3169 23.4835 45.9726 23.5156 46.2301 23.8826L48.7056 27.4106C48.9402 27.7452 48.6435 28.1757 48.1652 28.189ZM61.0357 18.7867L38.9138 16.5514C38.6012 16.5198 38.3295 16.323 38.2021 16.0359L31.0842 0L55.3912 4.46451C55.6694 4.51557 55.9058 4.69812 56.0257 4.95433L61.9162 17.5454C62.204 18.1606 61.7115 18.855 61.0357 18.7867Z" fill="white"/>
<path d="M31.5 5.09375C28.2552 5.09375 25.0832 6.05596 22.3852 7.8587C19.6872 9.66144 17.5844 12.2237 16.3426 15.2216C15.1009 18.2194 14.776 21.5182 15.409 24.7007C16.042 27.8832 17.6046 30.8065 19.899 33.101C22.1935 35.3954 25.1168 36.958 28.2993 37.591C31.4818 38.224 34.7806 37.8991 37.7784 36.6574C40.7763 35.4156 43.3386 33.3128 45.1413 30.6148C46.944 27.9168 47.9063 24.7449 47.9063 21.5C47.9009 17.1504 46.1707 12.9806 43.0951 9.90494C40.0195 6.82933 35.8496 5.0991 31.5 5.09375ZM31.5 6.1875C35.372 6.18631 39.0999 7.65633 41.9289 10.3L39.6102 12.6188C37.3952 10.5925 34.502 9.46874 31.5 9.46874C28.498 9.46874 25.6048 10.5925 23.3899 12.6188L21.0711 10.3C23.9002 7.65633 27.628 6.18631 31.5 6.1875ZM24.9375 22.5938V25.1039L22.4328 27.6086C21.4203 26.1138 20.7963 24.3903 20.6172 22.5938H24.9375ZM20.5625 21.5C20.5627 20.7654 20.636 20.0326 20.7813 19.3125H24.9375V21.5H20.5625ZM25.5227 26.0609L27.3984 27.5594L24.8172 30.1406C24.1857 29.6531 23.6082 29.0995 23.0945 28.4891L25.5227 26.0609ZM27.3984 22.0469L28.7656 23.868V26.9688H28.4102L26.0313 25.0656V22.0469H27.3984ZM26.0313 20.9531V18.443L26.8024 17.6719H27.6008L27.1906 20.9531H26.0313ZM35.6016 22.0469H36.9688V25.0656L34.5899 26.9688H34.2344V23.868L35.6016 22.0469ZM35.3992 17.6719H36.1977L36.9688 18.443V20.9531H35.8094L35.3992 17.6719ZM33.25 23.3594C33.1784 23.4537 33.14 23.5691 33.1406 23.6875V26.9688H29.8594V23.6875C29.86 23.5691 29.8216 23.4537 29.75 23.3594L28.2406 21.3469L28.7 17.6719H34.3L34.7594 21.3469L33.25 23.3594ZM28.443 28.0625H34.557L37.2695 30.775C35.5412 31.8613 33.5413 32.4375 31.5 32.4375C29.4587 32.4375 27.4588 31.8613 25.7305 30.775L28.443 28.0625ZM35.6016 27.5594L37.4774 26.0609L39.9055 28.4891C39.3918 29.0995 38.8143 29.6531 38.1828 30.1406L35.6016 27.5594ZM38.0625 25.1039V22.5938H42.3828C42.2037 24.3903 41.5797 26.1138 40.5672 27.6086L38.0625 25.1039ZM38.0625 21.5V19.3125H42.2188C42.3641 20.0326 42.4373 20.7654 42.4375 21.5H38.0625ZM38.0625 18.2188C38.0614 18.0738 38.0046 17.9347 37.9039 17.8305L36.8102 16.7367C36.7059 16.636 36.5669 16.5792 36.4219 16.5781H26.5781C26.4331 16.5792 26.2941 16.636 26.1899 16.7367L25.0961 17.8305C24.9954 17.9347 24.9386 18.0738 24.9375 18.2188H21.0656C21.7635 15.998 23.1518 14.0578 25.0284 12.6804C26.905 11.3031 29.1722 10.5604 31.5 10.5604C33.8279 10.5604 36.095 11.3031 37.9716 12.6804C39.8482 14.0578 41.2365 15.998 41.9344 18.2188H38.0625ZM31.5 36.8125C28.5178 36.8143 25.6001 35.9448 23.1055 34.3107C20.6109 32.6767 18.648 30.3493 17.4582 27.6148C16.2684 24.8803 15.9035 21.8577 16.4084 18.9185C16.9133 15.9794 18.2659 13.2519 20.3 11.0711L22.6188 13.3898C21.0446 15.1124 20.0053 17.2555 19.6275 19.5582C19.2497 21.8609 19.5497 24.2238 20.4909 26.3591C21.4322 28.4943 22.974 30.3098 24.9287 31.5843C26.8834 32.8588 29.1665 33.5374 31.5 33.5374C33.8335 33.5374 36.1166 32.8588 38.0713 31.5843C40.026 30.3098 41.5679 28.4943 42.5091 26.3591C43.4503 24.2238 43.7503 21.8609 43.3725 19.5582C42.9947 17.2555 41.9554 15.1124 40.3813 13.3898L42.7 11.0711C44.7341 13.2519 46.0867 15.9794 46.5916 18.9185C47.0965 21.8577 46.7316 24.8803 45.5418 27.6148C44.352 30.3493 42.3892 32.6767 39.8945 34.3107C37.3999 35.9448 34.4822 36.8143 31.5 36.8125Z" fill="#FFD500"/>
<path d="M30.4063 22.0469H32.5938C32.7388 22.0469 32.8779 21.9893 32.9805 21.8867C33.083 21.7841 33.1406 21.645 33.1406 21.5V19.8594C33.1406 19.7143 33.083 19.5752 32.9805 19.4727C32.8779 19.3701 32.7388 19.3125 32.5938 19.3125H30.4063C30.2612 19.3125 30.1221 19.3701 30.0196 19.4727C29.917 19.5752 29.8594 19.7143 29.8594 19.8594V21.5C29.8594 21.645 29.917 21.7841 30.0196 21.8867C30.1221 21.9893 30.2612 22.0469 30.4063 22.0469ZM30.9531 20.4062H32.0469V20.9531H30.9531V20.4062Z" fill="#FFD500"/>
</svg>
