<svg width="62" height="42" viewBox="0 0 62 42" fill="none" xmlns="http://www.w3.org/2000/svg">
<path d="M29.283 9.21855L25.6133 18.1309C25.4889 18.4331 25.2063 18.6408 24.8808 18.6694L6.10994 20.3189C5.64939 20.3593 5.29988 20.7511 5.31194 21.213L5.69367 35.9473C5.7042 36.3525 5.99161 36.6973 6.38823 36.7809L28.4864 41.4291C29.0266 41.5427 29.5757 41.599 30.1248 41.5977L30.1252 37.2279V9.3852C30.125 8.1689 29.7461 8.09394 29.283 9.21855ZM26.7134 36.6963L18.4177 35.3604V31.0122H26.7134V36.6963ZM23.0861 16.5514L0.96424 18.7867C0.28842 18.855 -0.204034 18.1606 0.0838809 17.5455L5.97439 4.95443C6.09423 4.69822 6.33058 4.51567 6.60877 4.46461L30.9158 0.000101252L23.7978 16.036C23.6703 16.323 23.3987 16.5198 23.0861 16.5514ZM55.8901 20.3189L37.1193 18.6695C36.7937 18.6409 36.5111 18.4332 36.3868 18.131L32.717 9.21865C32.2539 8.09394 31.8749 8.1689 31.8749 9.3852V37.2278L31.8753 41.5976C32.4243 41.599 32.9735 41.5426 33.5138 41.429L55.612 36.7808C56.0086 36.6973 56.296 36.3524 56.3064 35.9472L56.6882 21.213C56.7002 20.751 56.3505 20.3593 55.8901 20.3189ZM48.1652 28.189L47.1285 28.2177L47.1075 34.7425C47.1066 35.0299 46.8147 35.3047 46.4516 35.3569L44.7526 35.6013C44.3644 35.6571 44.0468 35.4582 44.0476 35.1563L44.0634 28.3028L42.8776 28.3356C42.301 28.3515 41.9362 27.8893 42.2297 27.5066L45.0498 23.8318C45.3169 23.4835 45.9726 23.5156 46.2301 23.8826L48.7056 27.4106C48.9402 27.7452 48.6435 28.1757 48.1652 28.189ZM61.0357 18.7867L38.9138 16.5514C38.6012 16.5198 38.3295 16.323 38.2021 16.0359L31.0842 0L55.3912 4.46451C55.6694 4.51557 55.9058 4.69812 56.0257 4.95433L61.9162 17.5454C62.204 18.1606 61.7115 18.855 61.0357 18.7867Z" fill="white"/>
<g clip-path="url(#clip0)">
<path d="M19.8333 2.99983C18.7686 2.9964 17.8367 3.71403 17.568 4.74419C17.2992 5.77434 17.7619 6.85576 18.6925 7.37282C19.6232 7.88987 20.7858 7.71143 21.5185 6.93908L24.1377 8.39391C24.4178 8.55047 24.6221 8.81438 24.7035 9.12483L24.9246 10.0156C24.5703 10.0644 24.2583 10.2738 24.0788 10.5832H20.4166C19.4501 10.5832 18.6666 11.3667 18.6666 12.3332C18.6666 13.2997 19.4501 14.0832 20.4166 14.0832H24.0788C24.2855 14.4429 24.6683 14.6652 25.0833 14.6665H25.3551C23.2241 17.0751 22.0848 20.2016 22.1666 23.4165C22.1666 29.7538 23.2808 31.1888 23.5042 31.4122C23.5235 31.4315 23.5442 31.4495 23.566 31.4659C23.6418 31.5242 25.3959 32.8076 29.166 33.2083V35.6665C29.166 36.9552 30.2107 37.9998 31.4993 37.9998C32.788 37.9998 33.8327 36.9552 33.8327 35.6665V33.2083C37.6033 32.8058 39.3574 31.5231 39.4327 31.4659C39.4545 31.4495 39.4751 31.4315 39.4945 31.4122C39.7191 31.1888 40.8333 29.7538 40.8333 23.4165C40.9151 20.2016 39.7758 17.0751 37.6448 14.6665H37.9166C38.3315 14.6652 38.7143 14.4429 38.9211 14.0832H42.5833C43.5497 14.0832 44.3333 13.2997 44.3333 12.3332C44.3333 11.3667 43.5497 10.5832 42.5833 10.5832H38.9211C38.7416 10.2738 38.4295 10.0644 38.0753 10.0156L38.294 9.133C38.3751 8.81852 38.5812 8.55087 38.8645 8.39216L41.4813 6.93908C42.2536 7.74392 43.4883 7.88771 44.4249 7.28189C45.3615 6.67606 45.7365 5.49095 45.3191 4.45658C44.9017 3.4222 43.8091 2.82939 42.7144 3.04331C41.6196 3.25723 40.8306 4.21773 40.8333 5.33316C40.836 5.53038 40.864 5.72642 40.9167 5.9165L38.3016 7.37075C37.7364 7.68526 37.325 8.21791 37.1635 8.84425L36.8771 9.99983H35.1854C34.512 8.57519 33.0775 7.66657 31.5017 7.66657C29.9259 7.66657 28.4914 8.57519 27.8179 9.99983H26.1263L25.8346 8.83666C25.6723 8.21504 25.2628 7.68686 24.7012 7.37483L22.0832 5.9165C22.1358 5.72642 22.1639 5.53038 22.1666 5.33316C22.1666 4.0445 21.1219 2.99983 19.8333 2.99983ZM43.1666 4.1665C43.8109 4.1665 44.3333 4.68883 44.3333 5.33316C44.3333 5.97749 43.8109 6.49983 43.1666 6.49983C42.5223 6.49983 41.9999 5.97749 41.9999 5.33316C41.9999 4.68883 42.5223 4.1665 43.1666 4.1665ZM19.8333 12.3332C19.8333 12.011 20.0944 11.7498 20.4166 11.7498H23.9166V12.9165H20.4166C20.0944 12.9165 19.8333 12.6553 19.8333 12.3332ZM31.4999 23.9998C32.7548 23.956 33.9878 24.3364 34.9999 25.0796V29.3239C33.8699 29.6879 32.6868 29.86 31.4999 29.8332C30.313 29.86 29.13 29.6878 27.9999 29.3239V25.0802C29.0118 24.3365 30.2449 23.9559 31.4999 23.9998ZM31.4999 36.8332C30.8556 36.8332 30.3333 36.3108 30.3333 35.6665V30.9514C30.6949 30.9794 31.077 30.9998 31.4999 30.9998C31.9228 30.9998 32.3049 30.9794 32.6666 30.9514V35.6665C32.6666 36.3108 32.1442 36.8332 31.4999 36.8332ZM39.6666 23.4165C39.6666 28.8613 38.8056 30.3768 38.6848 30.5658C38.3932 30.7577 36.8392 31.6952 33.8333 32.037V30.812C34.5286 30.7128 35.2072 30.5195 35.8504 30.2374C36.0453 30.137 36.1675 29.9358 36.1666 29.7165V24.8165C36.167 24.664 36.1078 24.5175 36.0015 24.4082C34.9142 23.4531 33.5296 22.9042 32.0833 22.8547V18.1665C32.0833 17.8443 31.8221 17.5832 31.4999 17.5832C31.1778 17.5832 30.9166 17.8443 30.9166 18.1665V22.8547C29.4702 22.9042 28.0857 23.4531 26.9983 24.4082C26.8921 24.5175 26.8328 24.664 26.8333 24.8165V29.7165C26.8332 29.9349 26.9553 30.135 27.1494 30.2351C27.7927 30.517 28.4713 30.7101 29.1666 30.8091V32.0341C26.184 31.6952 24.63 30.7694 24.3249 30.5693C24.1657 30.3255 23.3333 28.7709 23.3333 23.4165C23.3333 17.9915 26.3316 15.2358 27.0322 14.6665H28.6474C30.231 16.2221 32.7689 16.2221 34.3524 14.6665H35.9677C36.6706 15.2376 39.6666 17.9915 39.6666 23.4165ZM43.1666 12.3332C43.1666 12.6553 42.9054 12.9165 42.5833 12.9165H39.0833V11.7498H42.5833C42.9054 11.7498 43.1666 12.011 43.1666 12.3332ZM37.9166 11.1665V13.4998H35.1837C35.4462 12.9538 35.5827 12.3557 35.5833 11.7498C35.5816 11.5545 35.566 11.3596 35.5366 11.1665H37.9166ZM31.4999 8.83316C33.1107 8.83316 34.4166 10.139 34.4166 11.7498C34.4166 13.3607 33.1107 14.6665 31.4999 14.6665C29.8891 14.6665 28.5833 13.3607 28.5833 11.7498C28.5852 10.1398 29.8899 8.83509 31.4999 8.83316ZM27.8162 13.4998H25.0833V11.1665H27.4633C27.4338 11.3596 27.4182 11.5545 27.4166 11.7498C27.4171 12.3557 27.5537 12.9538 27.8162 13.4998ZM19.8333 6.49983C19.1889 6.49983 18.6666 5.97749 18.6666 5.33316C18.6666 4.68883 19.1889 4.1665 19.8333 4.1665C20.4776 4.1665 20.9999 4.68883 20.9999 5.33316C20.9999 5.64258 20.877 5.93933 20.6582 6.15812C20.4394 6.37691 20.1427 6.49983 19.8333 6.49983Z" fill="#FFD500"/>
<path d="M25.8504 19.3631C25.5449 19.2616 25.2148 19.4269 25.1131 19.7323C24.7353 20.9252 24.5289 22.1657 24.5 23.4167C24.5 23.7388 24.7612 24 25.0833 24C25.4055 24 25.6667 23.7388 25.6667 23.4167C25.6973 22.291 25.8836 21.175 26.2202 20.1004C26.3217 19.7947 26.1561 19.4646 25.8504 19.3631Z" fill="#FFD500"/>
<path d="M37.3327 23.4163C37.3327 23.7385 37.5939 23.9996 37.916 23.9996C38.2382 23.9996 38.4994 23.7385 38.4994 23.4163C38.4705 22.1653 38.2641 20.9248 37.8863 19.732C37.7846 19.4259 37.4541 19.2602 37.1481 19.3618C36.842 19.4635 36.6763 19.794 36.778 20.1C37.115 21.1746 37.3017 22.2906 37.3327 23.4163Z" fill="#FFD500"/>
<path d="M31.5013 12.3332C31.8235 12.3332 32.0846 12.0721 32.0846 11.7499C32.0846 11.4277 31.8235 11.1666 31.5013 11.1666C31.1791 11.1666 30.918 11.4277 30.918 11.7499C30.918 12.0721 31.1791 12.3332 31.5013 12.3332Z" fill="#FFD500"/>
</g>
<defs>
<clipPath id="clip0">
<rect width="35" height="35" fill="white" transform="translate(14 3)"/>
</clipPath>
</defs>
</svg>
