<svg width="62" height="42" viewBox="0 0 62 42" fill="none" xmlns="http://www.w3.org/2000/svg">
<path d="M29.283 9.21855L25.6133 18.1309C25.4889 18.4331 25.2063 18.6408 24.8808 18.6694L6.10994 20.3189C5.64939 20.3593 5.29988 20.7511 5.31194 21.213L5.69367 35.9473C5.7042 36.3525 5.99161 36.6973 6.38823 36.7809L28.4864 41.4291C29.0266 41.5427 29.5757 41.599 30.1248 41.5977L30.1252 37.2279V9.3852C30.125 8.1689 29.7461 8.09394 29.283 9.21855ZM26.7134 36.6963L18.4177 35.3604V31.0122H26.7134V36.6963ZM23.0861 16.5514L0.96424 18.7867C0.28842 18.855 -0.204034 18.1606 0.0838809 17.5455L5.97439 4.95443C6.09423 4.69822 6.33058 4.51567 6.60877 4.46461L30.9158 0.000101252L23.7978 16.036C23.6703 16.323 23.3987 16.5198 23.0861 16.5514ZM55.8901 20.3189L37.1193 18.6695C36.7937 18.6409 36.5111 18.4332 36.3868 18.131L32.717 9.21865C32.2539 8.09394 31.8749 8.1689 31.8749 9.3852V37.2278L31.8753 41.5976C32.4243 41.599 32.9735 41.5426 33.5138 41.429L55.612 36.7808C56.0086 36.6973 56.296 36.3524 56.3064 35.9472L56.6882 21.213C56.7002 20.751 56.3505 20.3593 55.8901 20.3189ZM48.1652 28.189L47.1285 28.2177L47.1075 34.7425C47.1066 35.0299 46.8147 35.3047 46.4516 35.3569L44.7526 35.6013C44.3644 35.6571 44.0468 35.4582 44.0476 35.1563L44.0634 28.3028L42.8776 28.3356C42.301 28.3515 41.9362 27.8893 42.2297 27.5066L45.0498 23.8318C45.3169 23.4835 45.9726 23.5156 46.2301 23.8826L48.7056 27.4106C48.9402 27.7452 48.6435 28.1757 48.1652 28.189ZM61.0357 18.7867L38.9138 16.5514C38.6012 16.5198 38.3295 16.323 38.2021 16.0359L31.0842 0L55.3912 4.46451C55.6694 4.51557 55.9058 4.69812 56.0257 4.95433L61.9162 17.5454C62.204 18.1606 61.7115 18.855 61.0357 18.7867Z" fill="white"/>
<path d="M31.5 5.05078C25.447 5.05078 14 5.90421 14 9.13419V12.6341C14 13.2408 14.4024 13.789 15.1872 14.2665C15.2297 15.2913 15.4508 16.3007 15.8401 17.2495L18.0717 32.4271L18.0893 32.5494C18.109 32.6901 18.1798 32.8186 18.2882 32.9107C19.4864 35.0069 25.7933 35.9674 31.5 35.9674C37.2067 35.9674 43.5136 35.0069 44.7121 32.9107C44.8202 32.8188 44.8912 32.6904 44.911 32.5497L47.1602 17.2489C47.5492 16.3002 47.7701 15.2911 47.8128 14.2667C48.5989 13.7872 49 13.2395 49 12.6341V9.13419C49 5.90421 37.553 5.05078 31.5 5.05078V5.05078ZM31.5 6.21743C42.0685 6.21743 47.8334 8.14404 47.8334 9.13419C47.8334 9.44741 47.2547 9.85436 46.1313 10.2643C43.0028 9.20602 37.4379 8.55073 31.5 8.55073C25.5621 8.55073 19.9972 9.20602 16.8687 10.2643C15.7453 9.85436 15.1666 9.44741 15.1666 9.13419C15.1666 8.14404 20.9315 6.21743 31.5 6.21743ZM44.0052 10.8779C39.8927 11.7278 35.6988 12.1214 31.5 12.0507C27.3012 12.1214 23.1073 11.7278 18.9948 10.8779C23.1102 10.0493 27.3023 9.6605 31.5 9.71738C35.6977 9.6605 39.8898 10.0493 44.0052 10.8779ZM46.0264 16.9402C44.4677 20.4746 40.3523 22.1235 38.2126 22.7612C37.8903 22.2667 37.3402 21.9681 36.7501 21.9673H26.2499C25.6593 21.9681 25.1089 22.2672 24.7869 22.7623C23.0998 22.283 21.5016 21.5329 20.0546 20.5417C18.7197 19.6439 17.6546 18.3993 16.9739 16.9418L16.6794 14.9383C19.7622 16.0307 25.3696 16.7175 31.5 16.7175C37.6443 16.7175 43.2629 16.0275 46.3204 14.9402L46.0264 16.9402ZM26.2499 23.1342H36.7501C37.0721 23.1342 37.3332 23.3954 37.3332 23.7174C37.3332 24.0397 37.0721 24.3009 36.7501 24.3009H26.2499C25.9279 24.3009 25.6668 24.0397 25.6668 23.7174C25.6668 23.3954 25.9279 23.1342 26.2499 23.1342ZM43.7972 32.0981C43.7745 32.1374 43.7569 32.1793 43.7443 32.2231C43.5259 33.2998 38.7624 34.8007 31.5 34.8007C24.2376 34.8007 19.4741 33.2998 19.2559 32.2231C19.2431 32.1785 19.225 32.1358 19.2017 32.0955L17.379 19.6984C17.9731 20.3724 18.6444 20.9745 19.379 21.492C20.9489 22.57 22.6851 23.3828 24.5183 23.8982C24.6088 24.7874 25.3562 25.4646 26.2499 25.4675H36.7501C37.6435 25.4646 38.3907 24.7877 38.4817 23.899C40.5525 23.2939 43.5702 22.0581 45.6199 19.7035L43.7972 32.0981ZM47.0315 13.3714C47.0237 13.3743 47.0178 13.3799 47.0104 13.3834C46.9967 13.3906 46.9858 13.3976 46.9719 13.4048C46.914 13.4366 46.8544 13.4654 46.7935 13.491C44.1847 14.7423 38.1819 15.5509 31.5 15.5509C24.8181 15.5509 18.8153 14.7423 16.1776 13.4777C16.1245 13.4552 16.0727 13.4299 16.0222 13.4013H16.0219C16.0027 13.3888 15.9827 13.3775 15.9619 13.3677C15.3792 13.0488 15.1666 12.7749 15.1666 12.6341V10.7518C18.2303 12.6614 26.6179 13.2173 31.5 13.2173C36.3821 13.2173 44.7697 12.6614 47.8334 10.7518V12.6341C47.8334 12.7749 47.6203 13.0494 47.0315 13.3714Z" fill="#FFD500"/>
<path d="M20.3781 26.3356C20.0584 26.3757 19.8317 26.667 19.8718 26.9866L20.42 31.3734C20.4566 31.665 20.7041 31.884 20.9978 31.8845C21.0224 31.8842 21.047 31.8829 21.0713 31.8799C21.3909 31.8399 21.6176 31.5483 21.5776 31.2287L21.0293 26.8422C20.9877 26.5234 20.6972 26.2974 20.3781 26.3356Z" fill="#FFD500"/>
<path d="M20.2126 24.9731C20.3659 24.9533 20.5052 24.8732 20.5998 24.7507C20.6943 24.6284 20.7362 24.4732 20.7165 24.3197L20.6289 23.643C20.5846 23.3253 20.2943 23.1012 19.9755 23.1389C19.8222 23.1587 19.6828 23.2388 19.5883 23.3611C19.4937 23.4836 19.4518 23.6388 19.4716 23.7923L19.5592 24.469C19.5966 24.7595 19.8438 24.9771 20.1368 24.9776C20.1621 24.9776 20.1872 24.976 20.2126 24.9731Z" fill="#FFD500"/>
</svg>
