<svg width="62" height="42" viewBox="0 0 62 42" fill="none" xmlns="http://www.w3.org/2000/svg">
<path d="M29.283 9.21855L25.6133 18.1309C25.4889 18.4331 25.2063 18.6408 24.8808 18.6694L6.10994 20.3189C5.64939 20.3593 5.29988 20.7511 5.31194 21.213L5.69367 35.9473C5.7042 36.3525 5.99161 36.6973 6.38823 36.7809L28.4864 41.4291C29.0266 41.5427 29.5757 41.599 30.1248 41.5977L30.1252 37.2279V9.3852C30.125 8.1689 29.7461 8.09394 29.283 9.21855ZM26.7134 36.6963L18.4177 35.3604V31.0122H26.7134V36.6963ZM23.0861 16.5514L0.96424 18.7867C0.28842 18.855 -0.204034 18.1606 0.0838809 17.5455L5.97439 4.95443C6.09423 4.69822 6.33058 4.51567 6.60877 4.46461L30.9158 0.000101252L23.7978 16.036C23.6703 16.323 23.3987 16.5198 23.0861 16.5514ZM55.8901 20.3189L37.1193 18.6695C36.7937 18.6409 36.5111 18.4332 36.3868 18.131L32.717 9.21865C32.2539 8.09394 31.8749 8.1689 31.8749 9.3852V37.2278L31.8753 41.5976C32.4243 41.599 32.9735 41.5426 33.5138 41.429L55.612 36.7808C56.0086 36.6973 56.296 36.3524 56.3064 35.9472L56.6882 21.213C56.7002 20.751 56.3505 20.3593 55.8901 20.3189ZM48.1652 28.189L47.1285 28.2177L47.1075 34.7425C47.1066 35.0299 46.8147 35.3047 46.4516 35.3569L44.7526 35.6013C44.3644 35.6571 44.0468 35.4582 44.0476 35.1563L44.0634 28.3028L42.8776 28.3356C42.301 28.3515 41.9362 27.8893 42.2297 27.5066L45.0498 23.8318C45.3169 23.4835 45.9726 23.5156 46.2301 23.8826L48.7056 27.4106C48.9402 27.7452 48.6435 28.1757 48.1652 28.189ZM61.0357 18.7867L38.9138 16.5514C38.6012 16.5198 38.3295 16.323 38.2021 16.0359L31.0842 0L55.3912 4.46451C55.6694 4.51557 55.9058 4.69812 56.0257 4.95433L61.9162 17.5454C62.204 18.1606 61.7115 18.855 61.0357 18.7867Z" fill="white"/>
<path d="M16.1875 36.3594H46.8125C47.1144 36.3594 47.3594 36.1144 47.3594 35.8125V20.5C47.3594 20.1981 47.1144 19.9531 46.8125 19.9531H32.0469V5.1875C32.0469 4.88563 31.8019 4.64062 31.5 4.64062H16.1875C15.8856 4.64062 15.6406 4.88563 15.6406 5.1875V35.8125C15.6406 36.1144 15.8856 36.3594 16.1875 36.3594ZM30.9531 26.4877C28.0662 26.2209 25.7791 23.9338 25.5123 21.0469H30.9531V26.4877ZM30.9531 27.5886V29.233C26.5535 28.952 23.048 25.4465 22.767 21.0469H24.4114C24.6854 24.5398 27.4602 27.3146 30.9531 27.5886ZM32.0469 21.0469H37.4877C37.2209 23.9338 34.9338 26.2209 32.0469 26.4877V21.0469ZM25.5123 19.9531C25.7791 17.0662 28.0662 14.7791 30.9531 14.5123V19.9531H25.5123ZM30.9531 13.4114C27.4602 13.6854 24.6854 16.4602 24.4114 19.9531H22.767C23.048 15.5535 26.5535 12.048 30.9531 11.767V13.4114ZM21.6841 21.0469C21.9669 26.0442 25.9558 30.0331 30.9531 30.3159V35.2656H24.3627C24.0849 31.1734 20.8266 27.9151 16.7344 27.6373V21.0469H21.6841ZM16.7344 30.9229C19.017 31.1816 20.8184 32.983 21.0771 35.2656H16.7344V30.9229ZM22.1785 35.2656C21.9111 32.377 19.623 30.0889 16.7344 29.8215V28.7239C20.2273 28.9979 23.0021 31.7727 23.2761 35.2656H22.1785ZM39.7239 35.2656C39.9979 31.7727 42.7727 28.9979 46.2656 28.7239V29.8215C43.377 30.0889 41.0889 32.377 40.8215 35.2656H39.7239ZM41.9229 35.2656C42.1816 32.983 43.983 31.1816 46.2656 30.9229V35.2656H41.9229ZM46.2656 27.6373C42.1734 27.9151 38.9151 31.1734 38.6373 35.2656H32.0469V30.3159C37.0442 30.0331 41.0331 26.0442 41.3159 21.0469H46.2656V27.6373ZM40.233 21.0469C39.952 25.4465 36.4465 28.952 32.0469 29.233V27.5886C35.5398 27.3146 38.3146 24.5398 38.5886 21.0469H40.233ZM30.9531 10.6841C25.9558 10.9669 21.9669 14.9558 21.6841 19.9531H16.7344V13.3627C20.8266 13.0849 24.0849 9.82664 24.3627 5.73438H30.9531V10.6841ZM23.2761 5.73438C23.0021 9.22727 20.2273 12.0021 16.7344 12.2761V11.1785C19.623 10.9111 21.9111 8.62297 22.1785 5.73438H23.2761ZM21.0771 5.73438C20.8184 8.01703 19.017 9.81844 16.7344 10.0771V5.73438H21.0771Z" fill="#FFD500"/>
</svg>
