<svg width="62" height="42" viewBox="0 0 62 42" fill="none" xmlns="http://www.w3.org/2000/svg">
<path d="M29.283 9.21855L25.6133 18.1309C25.4889 18.4331 25.2063 18.6408 24.8808 18.6694L6.10994 20.3189C5.64939 20.3593 5.29988 20.7511 5.31194 21.213L5.69367 35.9473C5.7042 36.3525 5.99161 36.6973 6.38823 36.7809L28.4864 41.4291C29.0266 41.5427 29.5757 41.599 30.1248 41.5977L30.1252 37.2279V9.3852C30.125 8.1689 29.7461 8.09394 29.283 9.21855ZM26.7134 36.6963L18.4177 35.3604V31.0122H26.7134V36.6963ZM23.0861 16.5514L0.96424 18.7867C0.28842 18.855 -0.204034 18.1606 0.0838809 17.5455L5.97439 4.95443C6.09423 4.69822 6.33058 4.51567 6.60877 4.46461L30.9158 0.000101252L23.7978 16.036C23.6703 16.323 23.3987 16.5198 23.0861 16.5514ZM55.8901 20.3189L37.1193 18.6695C36.7937 18.6409 36.5111 18.4332 36.3868 18.131L32.717 9.21865C32.2539 8.09394 31.8749 8.1689 31.8749 9.3852V37.2278L31.8753 41.5976C32.4243 41.599 32.9735 41.5426 33.5138 41.429L55.612 36.7808C56.0086 36.6973 56.296 36.3524 56.3064 35.9472L56.6882 21.213C56.7002 20.751 56.3505 20.3593 55.8901 20.3189ZM48.1652 28.189L47.1285 28.2177L47.1075 34.7425C47.1066 35.0299 46.8147 35.3047 46.4516 35.3569L44.7526 35.6013C44.3644 35.6571 44.0468 35.4582 44.0476 35.1563L44.0634 28.3028L42.8776 28.3356C42.301 28.3515 41.9362 27.8893 42.2297 27.5066L45.0498 23.8318C45.3169 23.4835 45.9726 23.5156 46.2301 23.8826L48.7056 27.4106C48.9402 27.7452 48.6435 28.1757 48.1652 28.189ZM61.0357 18.7867L38.9138 16.5514C38.6012 16.5198 38.3295 16.323 38.2021 16.0359L31.0842 0L55.3912 4.46451C55.6694 4.51557 55.9058 4.69812 56.0257 4.95433L61.9162 17.5454C62.204 18.1606 61.7115 18.855 61.0357 18.7867Z" fill="white"/>
<g clip-path="url(#clip0)">
<path d="M48.4165 36.8334H47.8334V4.75011C47.8334 3.78346 47.0499 3 46.0832 3H16.9168C15.9501 3 15.1666 3.78346 15.1666 4.75011V36.8334H14.5835C14.2612 36.8334 14 37.0945 14 37.4165C14 37.7388 14.2612 38 14.5835 38H48.4165C48.7388 38 49 37.7388 49 37.4165C49 37.0945 48.7388 36.8334 48.4165 36.8334ZM18.6666 6.49995H44.3334V36.8334H18.6666V6.49995ZM44.6752 5.3333H18.3248L17.1581 4.16665H45.8419L44.6752 5.3333ZM16.3333 4.9915L17.4999 6.15815V36.8334H16.3333V4.9915ZM45.5001 36.8334V6.15815L46.6667 4.9915V36.8334H45.5001Z" fill="#FFD500"/>
<path d="M30.3341 7.66663H20.4174C20.0951 7.66663 19.834 7.92778 19.834 8.25008V35.0833C19.834 35.4056 20.0951 35.6667 20.4174 35.6667H30.3341C30.6561 35.6667 30.9173 35.4056 30.9173 35.0833V8.25008C30.9173 7.92778 30.6561 7.66663 30.3341 7.66663ZM29.7506 34.5001H21.0006V8.83327H29.7506V34.5001Z" fill="#FFD500"/>
<path d="M42.5838 7.66663H32.6672C32.3451 7.66663 32.084 7.92778 32.084 8.25008V35.0833C32.084 35.4056 32.3451 35.6667 32.6672 35.6667H42.5838C42.9061 35.6667 43.1673 35.4056 43.1673 35.0833V8.25008C43.1673 7.92778 42.9061 7.66663 42.5838 7.66663ZM42.0006 34.5001H33.2506V8.83327H42.0006V34.5001Z" fill="#FFD500"/>
<path d="M35.1702 22.6626C35.3991 22.8837 35.763 22.8805 35.9882 22.6554C36.213 22.4305 36.2162 22.0666 35.9951 21.8377L34.8284 20.6711C34.5996 20.45 34.2356 20.4532 34.0108 20.6783C33.7857 20.9031 33.7825 21.2671 34.0036 21.4959L35.1702 22.6626Z" fill="#FFD500"/>
<path d="M27.0048 22.6626C27.2326 22.8903 27.6019 22.8903 27.8297 22.6626L28.9963 21.4959C29.2174 21.2671 29.2142 20.9031 28.9891 20.6783C28.7643 20.4532 28.4003 20.45 28.1715 20.6711L27.0048 21.8377C26.777 22.0655 26.777 22.4348 27.0048 22.6626Z" fill="#FFD500"/>
<path d="M22.167 11.7501C22.3219 11.7501 22.4701 11.6887 22.5796 11.5792L23.7463 10.4125C23.9674 10.1837 23.9641 9.81974 23.739 9.5949C23.5142 9.3698 23.1502 9.3666 22.9214 9.58769L21.7547 10.7543C21.5879 10.9212 21.5382 11.172 21.6284 11.3899C21.7187 11.608 21.9313 11.7501 22.167 11.7501Z" fill="#FFD500"/>
<path d="M22.167 14.6669C22.3219 14.6669 22.4701 14.6052 22.5796 14.496L26.663 10.4125C26.8841 10.1837 26.8809 9.81974 26.6558 9.5949C26.4307 9.3698 26.067 9.3666 25.8382 9.5877L21.7547 13.6711C21.5879 13.8377 21.5382 14.0887 21.6284 14.3066C21.7187 14.5245 21.9313 14.6666 22.167 14.6669Z" fill="#FFD500"/>
<path d="M34.4172 11.7501C34.5719 11.7501 34.7203 11.6887 34.8295 11.5792L35.9962 10.4125C36.2173 10.1837 36.2141 9.81974 35.9893 9.5949C35.7642 9.3698 35.4002 9.3666 35.1713 9.58769L34.0047 10.7543C33.8381 10.9212 33.7881 11.172 33.8784 11.3899C33.9686 11.608 34.1812 11.7501 34.4172 11.7501Z" fill="#FFD500"/>
<path d="M34.4172 14.6669C34.5719 14.6669 34.7203 14.6052 34.8295 14.496L38.9129 10.4125C39.134 10.1837 39.1308 9.81974 38.9057 9.5949C38.6809 9.3698 38.3169 9.3666 38.0881 9.5877L34.0047 13.6711C33.8381 13.8377 33.7881 14.0887 33.8784 14.3066C33.9686 14.5245 34.1812 14.6666 34.4172 14.6669Z" fill="#FFD500"/>
</g>
<defs>
<clipPath id="clip0">
<rect width="35" height="35" fill="white" transform="translate(14 3)"/>
</clipPath>
</defs>
</svg>
