<svg width="62" height="42" viewBox="0 0 62 42" fill="none" xmlns="http://www.w3.org/2000/svg">
<path d="M29.283 9.21855L25.6133 18.1309C25.4889 18.4331 25.2063 18.6408 24.8808 18.6694L6.10994 20.3189C5.64939 20.3593 5.29988 20.7511 5.31194 21.213L5.69367 35.9473C5.7042 36.3525 5.99161 36.6973 6.38823 36.7809L28.4864 41.4291C29.0266 41.5427 29.5757 41.599 30.1248 41.5977L30.1252 37.2279V9.3852C30.125 8.1689 29.7461 8.09394 29.283 9.21855ZM26.7134 36.6963L18.4177 35.3604V31.0122H26.7134V36.6963ZM23.0861 16.5514L0.96424 18.7867C0.28842 18.855 -0.204034 18.1606 0.0838809 17.5455L5.97439 4.95443C6.09423 4.69822 6.33058 4.51567 6.60877 4.46461L30.9158 0.000101252L23.7978 16.036C23.6703 16.323 23.3987 16.5198 23.0861 16.5514ZM55.8901 20.3189L37.1193 18.6695C36.7937 18.6409 36.5111 18.4332 36.3868 18.131L32.717 9.21865C32.2539 8.09394 31.8749 8.1689 31.8749 9.3852V37.2278L31.8753 41.5976C32.4243 41.599 32.9735 41.5426 33.5138 41.429L55.612 36.7808C56.0086 36.6973 56.296 36.3524 56.3064 35.9472L56.6882 21.213C56.7002 20.751 56.3505 20.3593 55.8901 20.3189ZM48.1652 28.189L47.1285 28.2177L47.1075 34.7425C47.1066 35.0299 46.8147 35.3047 46.4516 35.3569L44.7526 35.6013C44.3644 35.6571 44.0468 35.4582 44.0476 35.1563L44.0634 28.3028L42.8776 28.3356C42.301 28.3515 41.9362 27.8893 42.2297 27.5066L45.0498 23.8318C45.3169 23.4835 45.9726 23.5156 46.2301 23.8826L48.7056 27.4106C48.9402 27.7452 48.6435 28.1757 48.1652 28.189ZM61.0357 18.7867L38.9138 16.5514C38.6012 16.5198 38.3295 16.323 38.2021 16.0359L31.0842 0L55.3912 4.46451C55.6694 4.51557 55.9058 4.69812 56.0257 4.95433L61.9162 17.5454C62.204 18.1606 61.7115 18.855 61.0357 18.7867Z" fill="white"/>
<path d="M24.5556 20H28.4444C28.5918 20 28.7331 19.9473 28.8373 19.8536C28.9415 19.7598 29 19.6326 29 19.5C29 19.3674 28.9415 19.2402 28.8373 19.1464C28.7331 19.0527 28.5918 19 28.4444 19H24.5556C24.4082 19 24.2669 19.0527 24.1627 19.1464C24.0585 19.2402 24 19.3674 24 19.5C24 19.6326 24.0585 19.7598 24.1627 19.8536C24.2669 19.9473 24.4082 20 24.5556 20Z" fill="#FFD500"/>
<path d="M46.0833 23.5263H45.8094C46.3412 22.7629 46.6667 21.697 46.6667 20.5C46.6667 18.1243 45.3855 16.2632 43.75 16.2632C43.6536 16.2633 43.5572 16.2699 43.4616 16.2831C44.0019 15.5184 44.3333 14.4444 44.3333 13.2368C44.3333 10.8612 43.0522 9 41.4167 9H21.5833C19.9478 9 18.6667 10.8612 18.6667 13.2368C18.6667 14.4338 18.9921 15.4997 19.5239 16.2632H19.25C17.6145 16.2632 16.3333 18.1243 16.3333 20.5C16.3333 21.697 16.6588 22.7629 17.1906 23.5263H16.9167C15.2811 23.5263 14 25.3875 14 27.7632C14 30.1388 15.2811 32 16.9167 32H46.0833C47.7189 32 49 30.1388 49 27.7632C49 25.3875 47.7189 23.5263 46.0833 23.5263ZM43.75 17.4737C44.6986 17.4737 45.5 18.8595 45.5 20.5C45.5 22.1405 44.6986 23.5263 43.75 23.5263C42.8014 23.5263 42 22.1405 42 20.5C42 18.8595 42.8014 17.4737 43.75 17.4737ZM41.4167 10.2105C42.3653 10.2105 43.1667 11.5964 43.1667 13.2368C43.1667 14.8773 42.3653 16.2632 41.4167 16.2632C40.468 16.2632 39.6667 14.8773 39.6667 13.2368C39.6667 11.5964 40.468 10.2105 41.4167 10.2105ZM41.4167 17.9289C41.3313 17.7638 41.2349 17.605 41.1283 17.4537C41.3197 17.4803 41.5136 17.4803 41.705 17.4537C41.5984 17.605 41.5021 17.7638 41.4167 17.9289ZM41.6906 23.5263H41.1427C41.2436 23.381 41.3351 23.2289 41.4167 23.0711C41.4982 23.2289 41.5897 23.381 41.6906 23.5263ZM40.8333 20.5C40.8333 22.1405 40.032 23.5263 39.0833 23.5263C38.1347 23.5263 37.3333 22.1405 37.3333 20.5C37.3333 18.8595 38.1347 17.4737 39.0833 17.4737C40.032 17.4737 40.8333 18.8595 40.8333 20.5ZM21.5833 10.2105H39.3573C38.8254 10.974 38.5 12.0399 38.5 13.2368C38.5 13.4429 38.5103 13.6447 38.5292 13.8421H34.4167C34.262 13.8421 34.1136 13.9059 34.0042 14.0194C33.8948 14.1329 33.8333 14.2868 33.8333 14.4474C33.8333 14.6079 33.8948 14.7618 34.0042 14.8754C34.1136 14.9889 34.262 15.0526 34.4167 15.0526H38.7721C38.909 15.4927 39.1113 15.9079 39.3717 16.2831C39.2761 16.2699 39.1798 16.2633 39.0833 16.2632H21.5833C21.0692 16.2632 20.5333 15.8126 20.1922 15.0526H22.75C22.9047 15.0526 23.0531 14.9889 23.1625 14.8754C23.2719 14.7618 23.3333 14.6079 23.3333 14.4474C23.3333 14.2868 23.2719 14.1329 23.1625 14.0194C23.0531 13.9059 22.9047 13.8421 22.75 13.8421H19.8689C19.8452 13.6413 19.8333 13.4392 19.8333 13.2368C19.8333 11.4266 20.7382 10.2105 21.5833 10.2105ZM19.25 17.4737H37.0239C36.4921 18.2371 36.1667 19.303 36.1667 20.5C36.1667 20.706 36.1769 20.9079 36.1958 21.1053H32.0833C31.9286 21.1053 31.7802 21.169 31.6709 21.2825C31.5615 21.396 31.5 21.55 31.5 21.7105C31.5 21.8711 31.5615 22.025 31.6709 22.1385C31.7802 22.252 31.9286 22.3158 32.0833 22.3158H36.4388C36.5757 22.7559 36.778 23.171 37.0384 23.5463C36.9428 23.5331 36.8464 23.5264 36.75 23.5263H19.25C18.7359 23.5263 18.2 23.0758 17.8589 22.3158H20.4167C20.5714 22.3158 20.7197 22.252 20.8291 22.1385C20.9385 22.025 21 21.8711 21 21.7105C21 21.55 20.9385 21.396 20.8291 21.2825C20.7197 21.169 20.5714 21.1053 20.4167 21.1053H17.5356C17.5118 20.9045 17.4999 20.7023 17.5 20.5C17.5 18.6897 18.4048 17.4737 19.25 17.4737ZM33.8625 28.3684H29.75C29.5953 28.3684 29.4469 28.4322 29.3375 28.5457C29.2281 28.6592 29.1667 28.8132 29.1667 28.9737C29.1667 29.1342 29.2281 29.2882 29.3375 29.4017C29.4469 29.5152 29.5953 29.5789 29.75 29.5789H34.1055C34.2399 30.011 34.4372 30.4193 34.6906 30.7895H16.9167C16.4025 30.7895 15.8667 30.3389 15.5256 29.5789H18.0833C18.238 29.5789 18.3864 29.5152 18.4958 29.4017C18.6052 29.2882 18.6667 29.1342 18.6667 28.9737C18.6667 28.8132 18.6052 28.6592 18.4958 28.5457C18.3864 28.4322 18.238 28.3684 18.0833 28.3684H15.2022C15.1785 28.1676 15.1666 27.9655 15.1667 27.7632C15.1667 25.9529 16.0715 24.7368 16.9167 24.7368H34.6906C34.1588 25.5003 33.8333 26.5662 33.8333 27.7632C33.8333 27.9692 33.8436 28.171 33.8625 28.3684ZM36.75 30.7895C35.8014 30.7895 35 29.4036 35 27.7632C35 26.1227 35.8014 24.7368 36.75 24.7368C37.6986 24.7368 38.5 26.1227 38.5 27.7632C38.5 29.4036 37.6986 30.7895 36.75 30.7895ZM38.8094 30.7895C39.0628 30.4193 39.2601 30.011 39.3945 29.5789H43.4388C43.5732 30.011 43.7706 30.4193 44.0239 30.7895H38.8094ZM43.1667 27.7632C43.1667 27.9692 43.1769 28.171 43.1958 28.3684H39.6375C39.6561 28.171 39.6667 27.9692 39.6667 27.7632C39.6667 27.5571 39.6564 27.3553 39.6375 27.1579H41.4167C41.5714 27.1579 41.7197 27.0941 41.8291 26.9806C41.9385 26.8671 42 26.7132 42 26.5526C42 26.3921 41.9385 26.2382 41.8291 26.1246C41.7197 26.0111 41.5714 25.9474 41.4167 25.9474H39.3945C39.2601 25.5153 39.0628 25.1071 38.8094 24.7368H44.0239C43.4921 25.5003 43.1667 26.5662 43.1667 27.7632ZM46.0833 30.7895C45.1347 30.7895 44.3333 29.4036 44.3333 27.7632C44.3333 26.1227 45.1347 24.7368 46.0833 24.7368C47.032 24.7368 47.8333 26.1227 47.8333 27.7632C47.8333 29.4036 47.032 30.7895 46.0833 30.7895Z" fill="#FFD500"/>
<path d="M32.375 26H28.625C28.4592 26 28.3003 26.0527 28.1831 26.1464C28.0658 26.2402 28 26.3674 28 26.5C28 26.6326 28.0658 26.7598 28.1831 26.8536C28.3003 26.9473 28.4592 27 28.625 27H32.375C32.5408 27 32.6997 26.9473 32.8169 26.8536C32.9342 26.7598 33 26.6326 33 26.5C33 26.3674 32.9342 26.2402 32.8169 26.1464C32.6997 26.0527 32.5408 26 32.375 26Z" fill="#FFD500"/>
<path d="M21 26.5C21 26.3674 20.9398 26.2402 20.8326 26.1464C20.7255 26.0527 20.5801 26 20.4286 26H17.5714C17.4199 26 17.2745 26.0527 17.1674 26.1464C17.0602 26.2402 17 26.3674 17 26.5C17 26.6326 17.0602 26.7598 17.1674 26.8536C17.2745 26.9473 17.4199 27 17.5714 27H20.4286C20.5801 27 20.7255 26.9473 20.8326 26.8536C20.9398 26.7598 21 26.6326 21 26.5Z" fill="#FFD500"/>
<path d="M22.625 27H26.375C26.5408 27 26.6997 26.9473 26.8169 26.8536C26.9342 26.7598 27 26.6326 27 26.5C27 26.3674 26.9342 26.2402 26.8169 26.1464C26.6997 26.0527 26.5408 26 26.375 26H22.625C22.4592 26 22.3003 26.0527 22.1831 26.1464C22.0658 26.2402 22 26.3674 22 26.5C22 26.6326 22.0658 26.7598 22.1831 26.8536C22.3003 26.9473 22.4592 27 22.625 27Z" fill="#FFD500"/>
<path d="M27.4286 28H20.5714C20.4199 28 20.2745 28.0527 20.1674 28.1464C20.0602 28.2402 20 28.3674 20 28.5C20 28.6326 20.0602 28.7598 20.1674 28.8536C20.2745 28.9473 20.4199 29 20.5714 29H27.4286C27.5801 29 27.7255 28.9473 27.8326 28.8536C27.9398 28.7598 28 28.6326 28 28.5C28 28.3674 27.9398 28.2402 27.8326 28.1464C27.7255 28.0527 27.5801 28 27.4286 28Z" fill="#FFD500"/>
<path d="M30.625 20H34.375C34.5408 20 34.6997 19.9473 34.8169 19.8536C34.9342 19.7598 35 19.6326 35 19.5C35 19.3674 34.9342 19.2402 34.8169 19.1464C34.6997 19.0527 34.5408 19 34.375 19H30.625C30.4592 19 30.3003 19.0527 30.1831 19.1464C30.0658 19.2402 30 19.3674 30 19.5C30 19.6326 30.0658 19.7598 30.1831 19.8536C30.3003 19.9473 30.4592 20 30.625 20Z" fill="#FFD500"/>
<path d="M19.5714 20H22.4286C22.5801 20 22.7255 19.9473 22.8326 19.8536C22.9398 19.7598 23 19.6326 23 19.5C23 19.3674 22.9398 19.2402 22.8326 19.1464C22.7255 19.0527 22.5801 19 22.4286 19H19.5714C19.4199 19 19.2745 19.0527 19.1674 19.1464C19.0602 19.2402 19 19.3674 19 19.5C19 19.6326 19.0602 19.7598 19.1674 19.8536C19.2745 19.9473 19.4199 20 19.5714 20Z" fill="#FFD500"/>
<path d="M23.0667 21H22.5333C22.3919 21 22.2562 21.0527 22.1562 21.1464C22.0562 21.2402 22 21.3674 22 21.5C22 21.6326 22.0562 21.7598 22.1562 21.8536C22.2562 21.9473 22.3919 22 22.5333 22H29.4667C29.6081 22 29.7438 21.9473 29.8438 21.8536C29.9438 21.7598 30 21.6326 30 21.5C30 21.3674 29.9438 21.2402 29.8438 21.1464C29.7438 21.0527 29.6081 21 29.4667 21H23.0667Z" fill="#FFD500"/>
<path d="M33.5 13H36.5C36.6326 13 36.7598 12.9473 36.8536 12.8536C36.9473 12.7598 37 12.6326 37 12.5C37 12.3674 36.9473 12.2402 36.8536 12.1464C36.7598 12.0527 36.6326 12 36.5 12H33.5C33.3674 12 33.2402 12.0527 33.1464 12.1464C33.0527 12.2402 33 12.3674 33 12.5C33 12.6326 33.0527 12.7598 33.1464 12.8536C33.2402 12.9473 33.3674 13 33.5 13Z" fill="#FFD500"/>
<path d="M22.5714 13H25.4286C25.5801 13 25.7255 12.9473 25.8326 12.8536C25.9398 12.7598 26 12.6326 26 12.5C26 12.3674 25.9398 12.2402 25.8326 12.1464C25.7255 12.0527 25.5801 12 25.4286 12H22.5714C22.4199 12 22.2745 12.0527 22.1674 12.1464C22.0602 12.2402 22 12.3674 22 12.5C22 12.6326 22.0602 12.7598 22.1674 12.8536C22.2745 12.9473 22.4199 13 22.5714 13Z" fill="#FFD500"/>
<path d="M27.625 13H31.375C31.5408 13 31.6997 12.9473 31.8169 12.8536C31.9342 12.7598 32 12.6326 32 12.5C32 12.3674 31.9342 12.2402 31.8169 12.1464C31.6997 12.0527 31.5408 12 31.375 12H27.625C27.4592 12 27.3003 12.0527 27.1831 12.1464C27.0658 12.2402 27 12.3674 27 12.5C27 12.6326 27.0658 12.7598 27.1831 12.8536C27.3003 12.9473 27.4592 13 27.625 13Z" fill="#FFD500"/>
<path d="M24 14.5C24 14.6326 24.0677 14.7598 24.1883 14.8536C24.3088 14.9473 24.4724 15 24.6429 15H32.3571C32.5276 15 32.6912 14.9473 32.8117 14.8536C32.9323 14.7598 33 14.6326 33 14.5C33 14.3674 32.9323 14.2402 32.8117 14.1464C32.6912 14.0527 32.5276 14 32.3571 14H24.6429C24.4724 14 24.3088 14.0527 24.1883 14.1464C24.0677 14.2402 24 14.3674 24 14.5Z" fill="#FFD500"/>
</svg>
