<svg width="62" height="42" viewBox="0 0 62 42" fill="none" xmlns="http://www.w3.org/2000/svg">
<path d="M29.283 9.21855L25.6133 18.1309C25.4889 18.4331 25.2063 18.6408 24.8808 18.6694L6.10994 20.3189C5.64939 20.3593 5.29988 20.7511 5.31194 21.213L5.69367 35.9473C5.7042 36.3525 5.99161 36.6973 6.38823 36.7809L28.4864 41.4291C29.0266 41.5427 29.5757 41.599 30.1248 41.5977L30.1252 37.2279V9.3852C30.125 8.1689 29.7461 8.09394 29.283 9.21855ZM26.7134 36.6963L18.4177 35.3604V31.0122H26.7134V36.6963ZM23.0861 16.5514L0.96424 18.7867C0.28842 18.855 -0.204034 18.1606 0.0838809 17.5455L5.97439 4.95443C6.09423 4.69822 6.33058 4.51567 6.60877 4.46461L30.9158 0.000101252L23.7978 16.036C23.6703 16.323 23.3987 16.5198 23.0861 16.5514ZM55.8901 20.3189L37.1193 18.6695C36.7937 18.6409 36.5111 18.4332 36.3868 18.131L32.717 9.21865C32.2539 8.09394 31.8749 8.1689 31.8749 9.3852V37.2278L31.8753 41.5976C32.4243 41.599 32.9735 41.5426 33.5138 41.429L55.612 36.7808C56.0086 36.6973 56.296 36.3524 56.3064 35.9472L56.6882 21.213C56.7002 20.751 56.3505 20.3593 55.8901 20.3189ZM48.1652 28.189L47.1285 28.2177L47.1075 34.7425C47.1066 35.0299 46.8147 35.3047 46.4516 35.3569L44.7526 35.6013C44.3644 35.6571 44.0468 35.4582 44.0476 35.1563L44.0634 28.3028L42.8776 28.3356C42.301 28.3515 41.9362 27.8893 42.2297 27.5066L45.0498 23.8318C45.3169 23.4835 45.9726 23.5156 46.2301 23.8826L48.7056 27.4106C48.9402 27.7452 48.6435 28.1757 48.1652 28.189ZM61.0357 18.7867L38.9138 16.5514C38.6012 16.5198 38.3295 16.323 38.2021 16.0359L31.0842 0L55.3912 4.46451C55.6694 4.51557 55.9058 4.69812 56.0257 4.95433L61.9162 17.5454C62.204 18.1606 61.7115 18.855 61.0357 18.7867Z" fill="white"/>
<g clip-path="url(#clip0)">
<path d="M42.2258 33.4839H47.3064C48.2401 33.4839 49 32.7239 49 31.7903C49 30.8567 48.2401 30.0968 47.3064 30.0968H43.2509C43.3143 29.9195 43.3548 29.731 43.3548 29.5323V20.4035C43.3548 19.9512 43.1787 19.5256 42.8587 19.2056L34.725 11.0719C34.558 10.8591 34.3661 10.6678 34.1533 10.5002L27.1691 3.516C26.8411 3.18799 26.3871 3 25.9232 3C24.9516 3 24.1613 3.79027 24.1613 4.76191C24.1613 5.16931 24.3057 5.55107 24.5588 5.8631L24.1698 6.3893C19.3811 6.40005 14 8.70387 14 12.0323C14 13.6348 15.2492 14.9998 17.0748 15.9877L15.5061 18.1099C15.2627 18.4396 15.129 18.8464 15.129 19.2552V19.371C15.129 19.8864 15.3294 20.3702 15.6935 20.7337L25.6211 30.6613C25.9852 31.0254 26.469 31.2258 26.9839 31.2258H27.0996C27.509 31.2258 27.9153 31.0921 28.2449 30.8482L35.7058 25.3334C36.0043 25.8182 36.5354 26.1452 37.1452 26.1452C38.0788 26.1452 38.8387 25.3852 38.8387 24.4516V21.0645C38.8387 20.7536 39.0917 20.5 39.4032 20.5C39.7147 20.5 39.9677 20.7536 39.9677 21.0645V29.5323C39.9677 30.4659 40.7277 31.2258 41.6613 31.2258H47.3064C47.6179 31.2258 47.871 31.4788 47.871 31.7903C47.871 32.1018 47.6179 32.3548 47.3064 32.3548H42.2258C41.2922 32.3548 40.5323 33.1148 40.5323 34.0484C40.5323 34.982 41.2922 35.7419 42.2258 35.7419H46.1774C46.4889 35.7419 46.7419 35.995 46.7419 36.3064C46.7419 36.6179 46.4889 36.871 46.1774 36.871H26.4194C26.1079 36.871 25.8548 36.6179 25.8548 36.3064C25.8548 35.995 26.1079 35.7419 26.4194 35.7419H32.629C33.5626 35.7419 34.3226 34.982 34.3226 34.0484C34.3226 33.1148 33.5626 32.3548 32.629 32.3548H32.0645C31.753 32.3548 31.5 32.1018 31.5 31.7903C31.5 31.4788 31.753 31.2258 32.0645 31.2258H38.2742V30.0968H32.0645C31.1309 30.0968 30.371 30.8567 30.371 31.7903C30.371 32.7239 31.1309 33.4839 32.0645 33.4839H32.629C32.9405 33.4839 33.1935 33.7369 33.1935 34.0484C33.1935 34.3599 32.9405 34.6129 32.629 34.6129H26.4194C25.4858 34.6129 24.7258 35.3728 24.7258 36.3064C24.7258 37.2401 25.4858 38 26.4194 38H46.1774C47.111 38 47.871 37.2401 47.871 36.3064C47.871 35.3728 47.111 34.6129 46.1774 34.6129H42.2258C41.9143 34.6129 41.6613 34.3599 41.6613 34.0484C41.6613 33.7369 41.9143 33.4839 42.2258 33.4839ZM34.3226 13.1613C34.3226 14.4066 33.3099 15.4194 32.0645 15.4194C30.8192 15.4194 29.8065 14.4066 29.8065 13.1613C29.8065 11.9159 30.8192 10.9032 32.0645 10.9032C32.5838 10.9032 33.0574 11.0868 33.4391 11.3826L33.8427 11.7861C34.139 12.1684 34.3226 12.642 34.3226 13.1613ZM17.3871 12.0339C17.4254 11.6276 18.996 10.5849 21.4512 10.0672L19.0964 13.2528C18.0464 12.7859 17.4108 12.2853 17.3871 12.0339ZM25.3545 6.68507L29.5598 10.8897C29.0134 11.4914 28.6774 12.287 28.6774 13.1613C28.6774 13.1742 28.6791 13.1872 28.6791 13.2002C27.5365 13.8843 25.8819 14.2903 24.1613 14.2903C22.6513 14.2903 21.293 14.0238 20.1929 13.6687L25.3545 6.68507ZM25.9232 4.12903C26.0897 4.12903 26.2529 4.19684 26.3708 4.31426L31.8421 9.78549C31.3415 9.8183 30.8688 9.95667 30.4506 10.1841L25.4756 5.20955C25.3559 5.08992 25.2903 4.93115 25.2903 4.76191C25.2903 4.41294 25.5742 4.12903 25.9232 4.12903ZM15.129 12.0323C15.129 9.89382 19.0671 7.79343 23.3178 7.54149L22.4165 8.76148C19.4528 9.14407 16.2581 10.543 16.2581 12.0323C16.2581 13.6784 20.3202 15.4194 24.1613 15.4194C25.9373 15.4194 27.6151 15.0395 28.9037 14.3689C29.041 14.7272 29.2356 15.0569 29.479 15.3449C28.0214 16.1143 26.128 16.5484 24.1613 16.5484C19.6027 16.5484 15.129 14.3118 15.129 12.0323ZM27.5743 29.9405C27.4379 30.0408 27.2689 30.0968 27.0996 30.0968H26.9839C26.7705 30.0968 26.5707 30.0138 26.4194 29.863L16.4918 19.9355C16.3405 19.7847 16.2581 19.5843 16.2581 19.371V19.2552C16.2581 19.086 16.314 18.917 16.4138 18.7805L18.1101 16.4858C19.9139 17.2438 22.0879 17.6774 24.1613 17.6774C26.5249 17.6774 28.7204 17.1198 30.406 16.1115C30.8966 16.3885 31.4617 16.5484 32.0645 16.5484C32.9389 16.5484 33.7344 16.2124 34.3361 15.6666L35.2862 16.6167C35.3929 16.7234 35.4516 16.8657 35.4516 17.0164V24.1181L27.5743 29.9405ZM41.0968 29.5323V21.0645C41.0968 20.1309 40.3368 19.371 39.4032 19.371C38.4696 19.371 37.7097 20.1309 37.7097 21.0645V24.4516C37.7097 24.7631 37.4566 25.0161 37.1452 25.0161C36.8337 25.0161 36.5806 24.7631 36.5806 24.4516V17.0164C36.5806 16.5641 36.4045 16.1385 36.0845 15.8185L35.0412 14.7757C35.2691 14.3576 35.407 13.8851 35.4403 13.3837L42.0604 20.0038C42.1671 20.1105 42.2258 20.2527 42.2258 20.4035V29.5323C42.2258 29.8437 41.9728 30.0968 41.6613 30.0968C41.3498 30.0968 41.0968 29.8437 41.0968 29.5323Z" fill="#FFD500"/>
</g>
<defs>
<clipPath id="clip0">
<rect width="35" height="35" fill="white" transform="translate(14 3)"/>
</clipPath>
</defs>
</svg>
