<svg width="35" height="35" viewBox="0 0 35 35" fill="none" xmlns="http://www.w3.org/2000/svg">
<g clip-path="url(#clip0)">
<rect width="35" height="35" fill="white"/>
<path d="M15.7507 25.667C13.1776 25.667 11.084 27.7606 11.084 30.3337C11.084 32.9068 13.1776 35.0004 15.7507 35.0004C18.3238 35.0004 20.4174 32.9068 20.4174 30.3337C20.4174 27.7606 18.3238 25.667 15.7507 25.667ZM15.7507 33.8336C13.8204 33.8336 12.2507 32.2639 12.2507 30.3336C12.2507 28.4034 13.8204 26.8336 15.7507 26.8336C17.6809 26.8336 19.2507 28.4034 19.2507 30.3336C19.2507 32.2639 17.6809 33.8336 15.7507 33.8336Z" fill="#999999"/>
<path d="M3.5 27.9999C1.56974 27.9999 0 29.5696 0 31.4999C0 33.4301 1.56974 34.9999 3.5 34.9999C5.43026 34.9999 7 33.4301 7 31.4999C7 29.5696 5.43026 27.9999 3.5 27.9999ZM3.5 33.8332C2.21313 33.8332 1.16669 32.7867 1.16669 31.4999C1.16669 30.213 2.2132 29.1666 3.5 29.1666C4.7868 29.1666 5.83331 30.2131 5.83331 31.4999C5.83331 32.7868 4.78687 33.8332 3.5 33.8332Z" fill="#999999"/>
<path d="M12.834 32.6665H5.83398V33.8332H12.834V32.6665Z" fill="#999999"/>
<path d="M19.4209 22.9211L16.6752 25.6668H14.7508L10.2259 22.8388C10.1331 22.781 10.0264 22.7501 9.91669 22.7501H0.583311C0.261338 22.7501 0 23.0108 0 23.3334V31.5002H1.16669V23.9168H9.74928L14.2742 26.7449C14.367 26.8026 14.4737 26.8335 14.5834 26.8335H16.9167C17.0712 26.8335 17.22 26.7723 17.3291 26.6626L20.2458 23.746L19.4209 22.9211Z" fill="#999999"/>
<path d="M20.3554 21.3219L14.4229 9.45743C14.0257 8.66235 13.2271 8.1677 12.3375 8.16653H1.75C0.785176 8.16653 0 8.95171 0 9.91653V23.3332H1.16669V9.9166C1.16669 9.59518 1.42857 9.33329 1.75 9.33329H12.337C12.7814 9.33391 13.1811 9.58123 13.3794 9.97901L19.25 21.7209V30.3332H20.4167V21.5832C20.4167 21.4929 20.3956 21.403 20.3554 21.3219Z" fill="#999999"/>
<path d="M15.75 28.5835C14.7852 28.5835 14 29.3687 14 30.3335C14 31.2984 14.7852 32.0835 15.75 32.0835C16.7148 32.0835 17.5 31.2984 17.5 30.3335C17.5 29.3687 16.7148 28.5835 15.75 28.5835ZM15.75 30.9169C15.4286 30.9169 15.1667 30.6556 15.1667 30.3336C15.1667 30.0116 15.4286 29.7503 15.75 29.7503C16.0714 29.7503 16.3333 30.0116 16.3333 30.3336C16.3333 30.6556 16.0714 30.9169 15.75 30.9169Z" fill="#999999"/>
<path d="M9.91736 20.4169H5.83398V15.7502C5.83398 14.7854 5.04881 14.0002 4.08398 14.0002C3.11916 14.0002 2.33398 14.7854 2.33398 15.7502V23.3335H3.50067V15.7502C3.50067 15.4288 3.76256 15.1669 4.08398 15.1669C4.40541 15.1669 4.66729 15.4288 4.66729 15.7502V21.0002C4.66729 21.3228 4.92863 21.5835 5.25061 21.5835H9.91729C10.2387 21.5835 10.5006 21.8448 10.5006 22.1668C10.5006 22.4888 10.2387 22.7501 9.91729 22.7501H9.33398V23.9168H9.91729C10.8821 23.9168 11.6673 23.1316 11.6673 22.1668C11.6673 21.202 10.8822 20.4169 9.91736 20.4169Z" fill="#999999"/>
<path d="M14.1701 15.9218L11.2539 18.838L12.0789 19.6629L14.995 16.7467L14.1701 15.9218Z" fill="#999999"/>
<path d="M13.8289 17.6707L13.0039 18.4957L18.8362 24.328L19.6612 23.503L13.8289 17.6707Z" fill="#999999"/>
<path d="M22.1666 0H19.8333C19.5107 0 19.25 0.261338 19.25 0.583311V33.25C19.25 33.5726 19.5107 33.8333 19.8333 33.8333H22.1666C22.4892 33.8333 22.7499 33.5726 22.7499 33.25V0.583311C22.7499 0.261338 22.4892 0 22.1666 0ZM21.5832 32.6667H20.4166V1.16669H21.5832V32.6667Z" fill="#999999"/>
<path d="M34.9993 29.7498H22.166V30.9165H34.9993V29.7498Z" fill="#999999"/>
<path d="M4.08271 30.9166H2.91602V32.0833H4.08271V30.9166Z" fill="#999999"/>
<mask id="path-13-inside-1" fill="white">
<path d="M26.375 24H28.625C28.7245 24 28.8198 23.9548 28.8902 23.8745C28.9605 23.7941 29 23.6851 29 23.5714V21.4286C29 21.3149 28.9605 21.2059 28.8902 21.1255C28.8198 21.0452 28.7245 21 28.625 21H26.375C26.2755 21 26.1802 21.0452 26.1098 21.1255C26.0395 21.2059 26 21.3149 26 21.4286V23.5714C26 23.6851 26.0395 23.7941 26.1098 23.8745C26.1802 23.9548 26.2755 24 26.375 24ZM26.75 21.8571H28.25V23.1429H26.75V21.8571Z"/>
</mask>
<path d="M26.75 21.8571V13.8571H18.75V21.8571H26.75ZM28.25 21.8571H36.25V13.8571H28.25V21.8571ZM28.25 23.1429V31.1429H36.25V23.1429H28.25ZM26.75 23.1429H18.75V31.1429H26.75V23.1429ZM26.375 32H28.625V16H26.375V32ZM28.625 32C31.2171 32 33.4481 30.8141 34.9108 29.1425L22.8696 18.6064C24.1916 17.0955 26.2318 16 28.625 16V32ZM34.9108 29.1425C36.3436 27.505 37 25.4874 37 23.5714H21C21 21.8828 21.5774 20.0832 22.8696 18.6064L34.9108 29.1425ZM37 23.5714V21.4286H21V23.5714H37ZM37 21.4286C37 19.5126 36.3436 17.495 34.9108 15.8575L22.8696 26.3936C21.5774 24.9168 21 23.1172 21 21.4286H37ZM34.9108 15.8575C33.4481 14.1859 31.2171 13 28.625 13V29C26.2318 29 24.1916 27.9045 22.8696 26.3936L34.9108 15.8575ZM28.625 13H26.375V29H28.625V13ZM26.375 13C23.7829 13 21.5519 14.1859 20.0892 15.8575L32.1304 26.3936C30.8084 27.9044 28.7682 29 26.375 29V13ZM20.0892 15.8575C18.6564 17.495 18 19.5126 18 21.4286H34C34 23.1173 33.4226 24.9168 32.1304 26.3936L20.0892 15.8575ZM18 21.4286V23.5714H34V21.4286H18ZM18 23.5714C18 25.4874 18.6564 27.505 20.0892 29.1425L32.1304 18.6064C33.4226 20.0832 34 21.8827 34 23.5714H18ZM20.0892 29.1425C21.5519 30.8141 23.7829 32 26.375 32V16C28.7682 16 30.8084 17.0956 32.1304 18.6064L20.0892 29.1425ZM26.75 29.8571H28.25V13.8571H26.75V29.8571ZM20.25 21.8571V23.1429H36.25V21.8571H20.25ZM28.25 15.1429H26.75V31.1429H28.25V15.1429ZM34.75 23.1429V21.8571H18.75V23.1429H34.75Z" fill="#999999" mask="url(#path-13-inside-1)"/>
<mask id="path-15-inside-2" fill="white">
<path d="M31 24H33V25H31V24Z"/>
</mask>
<path d="M31 24V16H23V24H31ZM33 24H41V16H33V24ZM33 25V33H41V25H33ZM31 25H23V33H31V25ZM31 32H33V16H31V32ZM25 24V25H41V24H25ZM33 17H31V33H33V17ZM39 25V24H23V25H39Z" fill="#999999" mask="url(#path-15-inside-2)"/>
<mask id="path-17-inside-3" fill="white">
<path d="M31 26H33V27H31V26Z"/>
</mask>
<path d="M31 26V18H23V26H31ZM33 26H41V18H33V26ZM33 27V35H41V27H33ZM31 27H23V35H31V27ZM31 34H33V18H31V34ZM25 26V27H41V26H25ZM33 19H31V35H33V19ZM39 27V26H23V27H39Z" fill="#999999" mask="url(#path-17-inside-3)"/>
<path d="M24 28V19H34V28H24Z" stroke="#999999" stroke-linejoin="round"/>
</g>
<defs>
<clipPath id="clip0">
<rect width="35" height="35" fill="white"/>
</clipPath>
</defs>
</svg>
