<svg width="35" height="35" viewBox="0 0 35 35" fill="none" xmlns="http://www.w3.org/2000/svg">
<g clip-path="url(#clip0)">
<path d="M15.7507 25.667C13.1776 25.667 11.084 27.7606 11.084 30.3337C11.084 32.9068 13.1776 35.0004 15.7507 35.0004C18.3238 35.0004 20.4174 32.9068 20.4174 30.3337C20.4174 27.7606 18.3238 25.667 15.7507 25.667ZM15.7507 33.8336C13.8204 33.8336 12.2507 32.2639 12.2507 30.3336C12.2507 28.4034 13.8204 26.8336 15.7507 26.8336C17.6809 26.8336 19.2507 28.4034 19.2507 30.3336C19.2507 32.2639 17.6809 33.8336 15.7507 33.8336Z" fill="#999999"/>
<path d="M3.5 27.9999C1.56974 27.9999 0 29.5696 0 31.4999C0 33.4301 1.56974 34.9999 3.5 34.9999C5.43026 34.9999 7 33.4301 7 31.4999C7 29.5696 5.43026 27.9999 3.5 27.9999ZM3.5 33.8332C2.21313 33.8332 1.16669 32.7867 1.16669 31.4999C1.16669 30.213 2.2132 29.1666 3.5 29.1666C4.7868 29.1666 5.83331 30.2131 5.83331 31.4999C5.83331 32.7868 4.78687 33.8332 3.5 33.8332Z" fill="#999999"/>
<path d="M12.834 32.6665H5.83398V33.8332H12.834V32.6665Z" fill="#999999"/>
<path d="M19.4209 22.9211L16.6752 25.6668H14.7508L10.2259 22.8388C10.1331 22.781 10.0264 22.7501 9.91669 22.7501H0.583311C0.261338 22.7501 0 23.0108 0 23.3334V31.5002H1.16669V23.9168H9.74928L14.2742 26.7449C14.367 26.8026 14.4737 26.8335 14.5834 26.8335H16.9167C17.0712 26.8335 17.22 26.7723 17.3291 26.6626L20.2458 23.746L19.4209 22.9211Z" fill="#999999"/>
<path d="M20.3554 21.3219L14.4229 9.45743C14.0257 8.66235 13.2271 8.1677 12.3375 8.16653H1.75C0.785176 8.16653 0 8.95171 0 9.91653V23.3332H1.16669V9.9166C1.16669 9.59518 1.42857 9.33329 1.75 9.33329H12.337C12.7814 9.33391 13.1811 9.58123 13.3794 9.97901L19.25 21.7209V30.3332H20.4167V21.5832C20.4167 21.4929 20.3956 21.403 20.3554 21.3219Z" fill="#999999"/>
<path d="M15.75 28.5835C14.7852 28.5835 14 29.3687 14 30.3335C14 31.2984 14.7852 32.0835 15.75 32.0835C16.7148 32.0835 17.5 31.2984 17.5 30.3335C17.5 29.3687 16.7148 28.5835 15.75 28.5835ZM15.75 30.9169C15.4286 30.9169 15.1667 30.6556 15.1667 30.3336C15.1667 30.0116 15.4286 29.7503 15.75 29.7503C16.0714 29.7503 16.3333 30.0116 16.3333 30.3336C16.3333 30.6556 16.0714 30.9169 15.75 30.9169Z" fill="#999999"/>
<path d="M9.91736 20.4169H5.83398V15.7502C5.83398 14.7854 5.04881 14.0002 4.08398 14.0002C3.11916 14.0002 2.33398 14.7854 2.33398 15.7502V23.3335H3.50067V15.7502C3.50067 15.4288 3.76256 15.1669 4.08398 15.1669C4.40541 15.1669 4.66729 15.4288 4.66729 15.7502V21.0002C4.66729 21.3228 4.92863 21.5835 5.25061 21.5835H9.91729C10.2387 21.5835 10.5006 21.8448 10.5006 22.1668C10.5006 22.4888 10.2387 22.7501 9.91729 22.7501H9.33398V23.9168H9.91729C10.8821 23.9168 11.6673 23.1316 11.6673 22.1668C11.6673 21.202 10.8822 20.4169 9.91736 20.4169Z" fill="#999999"/>
<path d="M14.1701 15.9218L11.2539 18.838L12.0789 19.6629L14.995 16.7467L14.1701 15.9218Z" fill="#999999"/>
<path d="M13.8289 17.6707L13.0039 18.4957L18.8362 24.328L19.6612 23.503L13.8289 17.6707Z" fill="#999999"/>
<path d="M22.1666 0H19.8333C19.5107 0 19.25 0.261338 19.25 0.583311V33.25C19.25 33.5726 19.5107 33.8333 19.8333 33.8333H22.1666C22.4892 33.8333 22.7499 33.5726 22.7499 33.25V0.583311C22.7499 0.261338 22.4892 0 22.1666 0ZM21.5832 32.6667H20.4166V1.16669H21.5832V32.6667Z" fill="#999999"/>
<path d="M34.9993 29.7498H22.166V30.9165H34.9993V29.7498Z" fill="#999999"/>
<path d="M4.08271 30.9166H2.91602V32.0833H4.08271V30.9166Z" fill="#999999"/>
<path d="M28.625 21.6737L28.9052 21.4286L28.625 21.6737ZM28.625 21.6737L28.4154 21.8571M28.625 21.6737L28.4154 21.8571M28.4154 21.8571H28.625H29L28.25 21V21.4286V21.6857V21.8571M28.4154 21.8571H28.25M28.4154 21.8571L28.25 22.0018M28.4154 21.8571L28.25 22.0018M28.25 21.8571V22.0018M28.25 21.8571H28.054H26.946H26.75M26.75 21.8571H26.5846M26.75 21.8571H26H26.375H26.5846M26.75 21.8571L28.25 22.0018M26.5846 21.8571L26.375 21.6737M26.5846 21.8571L26.375 21.6737M26.5846 21.8571L26.75 22.0018L26.5846 21.8571ZM26.375 21.6737L26.0948 21.4286L26.375 21.6737ZM28.054 23.1429H26.946H28.054Z" fill="black" stroke="#999999" stroke-width="8"/>
<mask id="path-14-inside-1" fill="white">
<path d="M31 24H33V25H31V24Z"/>
</mask>
<path d="M31 24H33V25H31V24Z" fill="black"/>
<path d="M31 24V16H23V24H31ZM33 24H41V16H33V24ZM33 25V33H41V25H33ZM31 25H23V33H31V25ZM31 32H33V16H31V32ZM25 24V25H41V24H25ZM33 17H31V33H33V17ZM39 25V24H23V25H39Z" fill="#999999" mask="url(#path-14-inside-1)"/>
<mask id="path-16-inside-2" fill="white">
<path d="M31 26H33V27H31V26Z"/>
</mask>
<path d="M31 26H33V27H31V26Z" fill="black"/>
<path d="M31 26V18H23V26H31ZM33 26H41V18H33V26ZM33 27V35H41V27H33ZM31 27H23V35H31V27ZM31 34H33V18H31V34ZM25 26V27H41V26H25ZM33 19H31V35H33V19ZM39 27V26H23V27H39Z" fill="#999999" mask="url(#path-16-inside-2)"/>
<path d="M24 28V19H34V28H24Z" stroke="#999999" stroke-linejoin="round"/>
</g>
<defs>
<clipPath id="clip0">
<rect width="35" height="35" fill="white"/>
</clipPath>
</defs>
</svg>
