<svg width="35" height="35" viewBox="0 0 35 35" fill="none" xmlns="http://www.w3.org/2000/svg">
<path d="M33.8816 28.8203L31.1473 20.0703C31.1123 19.9592 31.0428 19.8622 30.9489 19.7933C30.8549 19.7244 30.7415 19.6874 30.625 19.6875H30.0781V7.10938C30.0775 7.03992 30.0636 6.97124 30.0371 6.90703L27.8496 1.43828C27.8093 1.33696 27.7395 1.25002 27.6494 1.18862C27.5592 1.12723 27.4528 1.09419 27.3438 1.09375H7.65625C7.54694 1.09367 7.44012 1.12634 7.34956 1.18756C7.259 1.24877 7.18887 1.33572 7.1482 1.43719L4.9607 6.90594C4.93483 6.97063 4.92165 7.0397 4.92188 7.10938V17.5V19.6875H4.375C4.25853 19.6874 4.14506 19.7244 4.05112 19.7933C3.95718 19.8622 3.88768 19.9592 3.85273 20.0703L1.11836 28.8203C1.11598 28.8405 1.1147 28.8607 1.11453 28.881C1.10398 28.9146 1.09701 28.9493 1.09375 28.9844V33.3594C1.09375 33.5044 1.15137 33.6435 1.25393 33.7461C1.35648 33.8486 1.49558 33.9062 1.64062 33.9062H4.92188C5.06692 33.9062 5.20601 33.8486 5.30857 33.7461C5.41113 33.6435 5.46875 33.5044 5.46875 33.3594V31.7188H15.3125V33.3594C15.3125 33.5044 15.3701 33.6435 15.4727 33.7461C15.5752 33.8486 15.7143 33.9062 15.8594 33.9062H19.1406C19.2857 33.9062 19.4248 33.8486 19.5273 33.7461C19.6299 33.6435 19.6875 33.5044 19.6875 33.3594V31.7188H29.5312V33.3594C29.5312 33.5044 29.5889 33.6435 29.6914 33.7461C29.794 33.8486 29.9331 33.9062 30.0781 33.9062H33.3594C33.5044 33.9062 33.6435 33.8486 33.7461 33.7461C33.8486 33.6435 33.9062 33.5044 33.9062 33.3594V28.9844C33.9029 28.9497 33.896 28.9154 33.8855 28.8821C33.8853 28.8615 33.8841 28.8408 33.8816 28.8203ZM2.1875 29.5312H4.92188H18.0469H32.8125V30.625H2.1875V29.5312ZM4.92188 24.0625H3.75156L4.09336 22.9688H4.92188V24.0625ZM4.92188 25.1562V26.25H3.06797L3.40977 25.1562H4.92188ZM28.7235 6.5625H18.0469V4.92188H28.0673L28.7235 6.5625ZM28.9844 17.5C28.9844 17.5 22.3182 17.5 18.0469 17.5C18.0469 13.6558 18.0469 7.65625 18.0469 7.65625H28.9844V17.5ZM30.0781 22.9688H30.9066L31.2484 24.0625H30.0781V22.9688ZM30.0781 25.1562H31.5902L31.932 26.25H30.0781V25.1562ZM30.0781 27.3438H32.2738L32.6156 28.4375H30.0781V27.3438ZM28.9844 28.4375H18.0469V18.5938H28.9844V28.4375ZM16.9531 6.5625H6.27648L6.93273 4.92188H16.9531V6.5625ZM16.9531 7.65625V17.5H6.01562V7.65625H16.9531ZM16.9531 28.4375H6.01562V18.5938H16.9531V28.4375ZM30.223 20.7812L30.5648 21.875H30.0781V20.7812H30.223ZM27.6298 3.82813H18.0469V2.1875H26.9735L27.6298 3.82813ZM8.02648 2.1875H16.9531V3.82813H7.37023L8.02648 2.1875ZM4.92188 20.7812V21.875H4.43516L4.77695 20.7812H4.92188ZM2.73438 27.318V27.3438H4.92188V28.4375H2.38438L2.73438 27.318ZM4.375 32.8125H2.1875V31.7188H4.375V32.8125ZM18.5938 32.8125H16.4062V31.7188H18.5938V32.8125ZM30.625 32.8125V31.7188H32.8125V32.8125H30.625Z" fill="#999999"/>
<path d="M7.65625 12.5781H10.9375C11.0825 12.5781 11.2216 12.5205 11.3242 12.4179C11.4268 12.3154 11.4844 12.1763 11.4844 12.0312V9.29688C11.4844 9.15183 11.4268 9.01273 11.3242 8.91018C11.2216 8.80762 11.0825 8.75 10.9375 8.75H7.65625C7.51121 8.75 7.37211 8.80762 7.26955 8.91018C7.16699 9.01273 7.10938 9.15183 7.10938 9.29688V12.0312C7.10938 12.1763 7.16699 12.3154 7.26955 12.4179C7.37211 12.5205 7.51121 12.5781 7.65625 12.5781ZM8.20312 9.84375H10.3906V11.4844H8.20312V9.84375Z" fill="#999999"/>
<path d="M19.6875 12.5781H22.9688C23.1138 12.5781 23.2529 12.5205 23.3554 12.4179C23.458 12.3154 23.5156 12.1763 23.5156 12.0312V9.29688C23.5156 9.15183 23.458 9.01273 23.3554 8.91018C23.2529 8.80762 23.1138 8.75 22.9688 8.75H19.6875C19.5425 8.75 19.4034 8.80762 19.3008 8.91018C19.1982 9.01273 19.1406 9.15183 19.1406 9.29688V12.0312C19.1406 12.1763 19.1982 12.3154 19.3008 12.4179C19.4034 12.5205 19.5425 12.5781 19.6875 12.5781ZM20.2344 9.84375H22.4219V11.4844H20.2344V9.84375Z" fill="#999999"/>
<path d="M7.65625 23.5156H10.9375C11.0825 23.5156 11.2216 23.458 11.3242 23.3554C11.4268 23.2529 11.4844 23.1138 11.4844 22.9688V20.2344C11.4844 20.0893 11.4268 19.9502 11.3242 19.8477C11.2216 19.7451 11.0825 19.6875 10.9375 19.6875H7.65625C7.51121 19.6875 7.37211 19.7451 7.26955 19.8477C7.16699 19.9502 7.10938 20.0893 7.10938 20.2344V22.9688C7.10938 23.1138 7.16699 23.2529 7.26955 23.3554C7.37211 23.458 7.51121 23.5156 7.65625 23.5156ZM8.20312 20.7812H10.3906V22.4219H8.20312V20.7812Z" fill="#999999"/>
<path d="M19.6875 23.5156H22.9688C23.1138 23.5156 23.2529 23.458 23.3554 23.3554C23.458 23.2529 23.5156 23.1138 23.5156 22.9688V20.2344C23.5156 20.0893 23.458 19.9502 23.3554 19.8477C23.2529 19.7451 23.1138 19.6875 22.9688 19.6875H19.6875C19.5425 19.6875 19.4034 19.7451 19.3008 19.8477C19.1982 19.9502 19.1406 20.0893 19.1406 20.2344V22.9688C19.1406 23.1138 19.1982 23.2529 19.3008 23.3554C19.4034 23.458 19.5425 23.5156 19.6875 23.5156ZM20.2344 20.7812H22.4219V22.4219H20.2344V20.7812Z" fill="#999999"/>
<path d="M13.6719 13.6719H15.8594V14.7656H13.6719V13.6719Z" fill="#999999"/>
<path d="M13.6719 15.3125H15.8594V16.4062H13.6719V15.3125Z" fill="#999999"/>
<path d="M13.6719 24.6094H15.8594V25.7031H13.6719V24.6094Z" fill="#999999"/>
<path d="M13.6719 26.25H15.8594V27.3438H13.6719V26.25Z" fill="#999999"/>
<path d="M25.7031 24.6094H27.8906V25.7031H25.7031V24.6094Z" fill="#999999"/>
<path d="M25.7031 26.25H27.8906V27.3438H25.7031V26.25Z" fill="#999999"/>
<path d="M25.7031 13.6719H27.8906V14.7656H25.7031V13.6719Z" fill="#999999"/>
<path d="M25.7031 15.3125H27.8906V16.4062H25.7031V15.3125Z" fill="#999999"/>
</svg>
