<svg width="62" height="42" viewBox="0 0 62 42" fill="none" xmlns="http://www.w3.org/2000/svg">
<path d="M29.283 9.21855L25.6133 18.1309C25.4889 18.4331 25.2063 18.6408 24.8808 18.6694L6.10994 20.3189C5.64939 20.3593 5.29988 20.7511 5.31194 21.213L5.69367 35.9473C5.7042 36.3525 5.99161 36.6973 6.38823 36.7809L28.4864 41.4291C29.0266 41.5427 29.5757 41.599 30.1248 41.5977L30.1252 37.2279V9.3852C30.125 8.1689 29.7461 8.09394 29.283 9.21855ZM26.7134 36.6963L18.4177 35.3604V31.0122H26.7134V36.6963ZM23.0861 16.5514L0.96424 18.7867C0.28842 18.855 -0.204034 18.1606 0.0838809 17.5455L5.97439 4.95443C6.09423 4.69822 6.33058 4.51567 6.60877 4.46461L30.9158 0.000101252L23.7978 16.036C23.6703 16.323 23.3987 16.5198 23.0861 16.5514ZM55.8901 20.3189L37.1193 18.6695C36.7937 18.6409 36.5111 18.4332 36.3868 18.131L32.717 9.21865C32.2539 8.09394 31.8749 8.1689 31.8749 9.3852V37.2278L31.8753 41.5976C32.4243 41.599 32.9735 41.5426 33.5138 41.429L55.612 36.7808C56.0086 36.6973 56.296 36.3524 56.3064 35.9472L56.6882 21.213C56.7002 20.751 56.3505 20.3593 55.8901 20.3189ZM48.1652 28.189L47.1285 28.2177L47.1075 34.7425C47.1066 35.0299 46.8147 35.3047 46.4516 35.3569L44.7526 35.6013C44.3644 35.6571 44.0468 35.4582 44.0476 35.1563L44.0634 28.3028L42.8776 28.3356C42.301 28.3515 41.9362 27.8893 42.2297 27.5066L45.0498 23.8318C45.3169 23.4835 45.9726 23.5156 46.2301 23.8826L48.7056 27.4106C48.9402 27.7452 48.6435 28.1757 48.1652 28.189ZM61.0357 18.7867L38.9138 16.5514C38.6012 16.5198 38.3295 16.323 38.2021 16.0359L31.0842 0L55.3912 4.46451C55.6694 4.51557 55.9058 4.69812 56.0257 4.95433L61.9162 17.5454C62.204 18.1606 61.7115 18.855 61.0357 18.7867Z" fill="white"/>
<path d="M22.4873 27.2969C22.5752 27.3848 22.6904 27.4288 22.8056 27.4288C22.9207 27.4288 23.0359 27.3849 23.1238 27.2969L23.4269 26.9939L23.7299 27.2969C23.8178 27.3848 23.9331 27.4288 24.0482 27.4288C24.1634 27.4288 24.2786 27.3849 24.3665 27.2969C24.5423 27.1212 24.5423 26.8362 24.3665 26.6605L24.0634 26.3574L24.3665 26.0542C24.5423 25.8785 24.5423 25.5935 24.3665 25.4178C24.1907 25.242 23.9058 25.242 23.73 25.4178L23.4269 25.7208L23.1239 25.4178C22.9481 25.242 22.6632 25.242 22.4874 25.4178C22.3116 25.5935 22.3116 25.8785 22.4874 26.0542L22.7905 26.3574L22.4874 26.6605C22.3115 26.8362 22.3115 27.1212 22.4873 27.2969Z" fill="#FFD500"/>
<path d="M31.0615 20.8683C31.1494 20.9562 31.2646 21.0001 31.3798 21.0001C31.4949 21.0001 31.6101 20.9562 31.698 20.8683L32.0011 20.5652L32.3042 20.8683C32.3921 20.9562 32.5073 21.0001 32.6225 21.0001C32.7376 21.0001 32.8528 20.9562 32.9407 20.8683C33.1165 20.6925 33.1165 20.4076 32.9407 20.2319L32.6376 19.9288L32.9407 19.6257C33.1165 19.4499 33.1165 19.165 32.9407 18.9892C32.765 18.8135 32.4801 18.8134 32.3043 18.9892L32.0011 19.2922L31.698 18.9891C31.5222 18.8133 31.2373 18.8133 31.0615 18.9891C30.8857 19.1649 30.8857 19.4498 31.0615 19.6255L31.3646 19.9286L31.0615 20.2317C30.8857 20.4076 30.8857 20.6925 31.0615 20.8683Z" fill="#FFD500"/>
<path d="M45.423 6H37.9152C37.5519 6 37.1973 6.12674 36.9167 6.35684C36.8669 6.39768 36.8025 6.39779 36.7525 6.35684C36.4719 6.12674 36.1172 6 35.7539 6L28.2461 6C27.8828 6 27.5282 6.12674 27.2476 6.35684C27.1977 6.39768 27.1333 6.39779 27.0833 6.35684C26.8027 6.12674 26.4481 6 26.0848 6H18.577C17.7074 6 17 6.70746 17 7.57699V11.0465C17 11.2892 17.1967 11.486 17.4395 11.486C17.6822 11.486 17.8789 11.2892 17.8789 11.0465V7.57699C17.8789 7.19209 18.1921 6.87891 18.577 6.87891H26.0848C26.2478 6.87891 26.4004 6.93334 26.5261 7.03641C26.9025 7.3452 27.4283 7.3452 27.8049 7.03641C27.9305 6.9334 28.0832 6.87891 28.2461 6.87891L35.7539 6.87891C35.9169 6.87891 36.0695 6.93334 36.1951 7.03641C36.5717 7.3452 37.0975 7.3452 37.474 7.03641C37.5996 6.9334 37.7523 6.87891 37.9152 6.87891H45.423C45.8079 6.87891 46.1211 7.19209 46.121 7.57699V31.8909C45.9104 31.7865 45.6735 31.7275 45.4229 31.7275H41.3562C41.1135 31.7275 40.9168 31.9242 40.9168 32.1669C40.9168 32.4096 41.1135 32.6064 41.3562 32.6064H45.4229C45.8079 32.6064 46.121 32.9196 46.121 33.3045V33.8539V34.423C46.121 34.8079 45.8079 35.1211 45.4229 35.1211H37.9152C37.7522 35.1211 37.5996 35.0667 37.4739 34.9636C37.0974 34.6548 36.5716 34.6548 36.1951 34.9636C36.0695 35.0666 35.9168 35.1211 35.7539 35.1211H28.2461C28.0831 35.1211 27.9305 35.0667 27.8049 34.9636C27.4284 34.6548 26.9026 34.6548 26.526 34.9636C26.4004 35.0666 26.2477 35.1211 26.0848 35.1211H18.577C18.1921 35.1211 17.8789 34.8079 17.8789 34.423V33.8539V33.3045C17.8789 32.9196 18.1921 32.6064 18.577 32.6064H26.0848C26.2478 32.6064 26.4004 32.6608 26.5261 32.7639C26.9025 33.0727 27.4283 33.0727 27.8049 32.7639C27.9305 32.6609 28.0832 32.6064 28.2461 32.6064H35.754C35.9169 32.6064 36.0695 32.6608 36.1952 32.7639C36.5717 33.0727 37.0975 33.0727 37.4741 32.7639C37.5997 32.6609 37.7523 32.6064 37.9153 32.6064H39.6216C39.8643 32.6064 40.061 32.4096 40.061 32.1669C40.061 31.9242 39.8643 31.7275 39.6216 31.7275H37.9153C37.552 31.7275 37.1973 31.8542 36.9167 32.0843C36.8669 32.1251 36.8025 32.1253 36.7525 32.0843C36.4719 31.8542 36.1172 31.7275 35.7539 31.7275H28.2461C27.8829 31.7275 27.5282 31.8542 27.2476 32.0843C27.1977 32.1251 27.1333 32.1253 27.0833 32.0843C26.8027 31.8542 26.4481 31.7275 26.0848 31.7275H18.577C18.3264 31.7275 18.0895 31.7865 17.8789 31.8909V12.7244C17.8789 12.4817 17.6822 12.2849 17.4395 12.2849C17.1967 12.2849 17 12.4817 17 12.7244V33.3045V33.8539V34.423C17 35.2925 17.7074 36 18.577 36H26.0848C26.4481 36 26.8027 35.8733 27.0833 35.6432C27.1332 35.6023 27.1976 35.6022 27.2476 35.6432C27.5282 35.8733 27.8829 36 28.2461 36H35.7539C36.1171 36 36.4718 35.8733 36.7524 35.6432C36.8023 35.6023 36.8667 35.6022 36.9167 35.6432C37.1973 35.8733 37.5519 36 37.9152 36H45.423C46.2926 36 47 35.2925 47 34.423V33.8539V33.3045V7.57699C47 6.70746 46.2926 6 45.423 6Z" fill="#FFD500"/>
<path d="M40.9168 32.1669C40.9168 31.9242 41.1135 31.7275 41.3562 31.7275H39.6216C39.8643 31.7275 40.061 31.9242 40.061 32.1669C40.061 32.4096 39.8643 32.6064 39.6216 32.6064H41.3562C41.1135 32.6064 40.9168 32.4096 40.9168 32.1669Z" fill="#FFD500"/>
<path d="M17.4395 11.486C17.1967 11.486 17 11.2892 17 11.0465V12.7244C17 12.4817 17.1967 12.2849 17.4395 12.2849C17.6822 12.2849 17.8789 12.4817 17.8789 12.7244V11.0465C17.8789 11.2892 17.6822 11.486 17.4395 11.486Z" fill="#FFD500"/>
<path d="M22.4873 13.3683C22.5752 13.4562 22.6904 13.5001 22.8056 13.5001C22.9207 13.5001 23.0359 13.4562 23.1238 13.3683L23.4269 13.0652L23.7299 13.3683C23.8178 13.4562 23.9331 13.5001 24.0482 13.5001C24.1634 13.5001 24.2786 13.4562 24.3665 13.3683C24.5423 13.1925 24.5423 12.9075 24.3665 12.7318L24.0634 12.4287L24.3665 12.1256C24.5423 11.9498 24.5423 11.6648 24.3665 11.4891C24.1907 11.3133 23.9058 11.3133 23.73 11.4891L23.4269 11.7922L23.1239 11.4891C22.9481 11.3133 22.6632 11.3133 22.4874 11.4891C22.3116 11.6649 22.3116 11.9499 22.4874 12.1256L22.7905 12.4287L22.4874 12.7318C22.3115 12.9075 22.3115 13.1925 22.4873 13.3683Z" fill="#FFD500"/>
<path d="M22.4873 20.8683C22.5752 20.9562 22.6904 21.0001 22.8056 21.0001C22.9207 21.0001 23.0359 20.9562 23.1238 20.8683L23.4269 20.5652L23.7299 20.8683C23.8178 20.9562 23.933 21.0001 24.0482 21.0001C24.1634 21.0001 24.2786 20.9562 24.3665 20.8683C24.5423 20.6925 24.5423 20.4076 24.3665 20.2318L24.0634 19.9287L24.3665 19.6256C24.5423 19.4498 24.5423 19.1648 24.3665 18.9891C24.1907 18.8134 23.9058 18.8134 23.73 18.9891L23.4269 19.2922L23.1239 18.9891C22.9481 18.8134 22.6632 18.8133 22.4874 18.9891C22.3116 19.1649 22.3116 19.4499 22.4874 19.6256L22.7905 19.9287L22.4874 20.2318C22.3115 20.4075 22.3115 20.6925 22.4873 20.8683Z" fill="#FFD500"/>
<path d="M31.0615 13.3683C31.1494 13.4562 31.2646 13.5001 31.3798 13.5001C31.4949 13.5001 31.6101 13.4562 31.698 13.3683L32.0011 13.0651L32.3043 13.3683C32.3921 13.4562 32.5073 13.5001 32.6225 13.5001C32.7376 13.5001 32.8528 13.4562 32.9407 13.3683C33.1165 13.1925 33.1165 12.9076 32.9407 12.7319L32.6376 12.4287L32.9407 12.1256C33.1165 11.9499 33.1165 11.665 32.9407 11.4892C32.765 11.3134 32.48 11.3134 32.3043 11.4892L32.0011 11.7923L31.6979 11.4891C31.5222 11.3133 31.2373 11.3134 31.0615 11.4891C30.8857 11.6649 30.8857 11.9499 31.0616 12.1256L31.3646 12.4287L31.0616 12.7318C30.8857 12.9076 30.8857 13.1925 31.0615 13.3683Z" fill="#FFD500"/>
<path d="M39.6318 20.8683C39.7197 20.9562 39.8349 21.0001 39.9501 21.0001C40.0653 21.0001 40.1805 20.9562 40.2684 20.8683L40.5714 20.5652L40.8745 20.8683C40.9624 20.9562 41.0775 21.0001 41.1927 21.0001C41.3079 21.0001 41.4231 20.9562 41.511 20.8683C41.6868 20.6925 41.6868 20.4076 41.511 20.2318L41.2079 19.9287L41.511 19.6256C41.6868 19.4498 41.6868 19.1648 41.511 18.9891C41.3352 18.8134 41.0503 18.8134 40.8745 18.9891L40.5715 19.2922L40.2684 18.9891C40.0926 18.8134 39.8077 18.8133 39.6319 18.9891C39.4562 19.1649 39.4562 19.4499 39.6319 19.6256L39.935 19.9287L39.6319 20.2318C39.456 20.4075 39.456 20.6925 39.6318 20.8683Z" fill="#FFD500"/>
<path d="M39.6318 27.2969C39.7197 27.3848 39.8349 27.4288 39.9501 27.4288C40.0653 27.4288 40.1805 27.3849 40.2684 27.2969L40.5714 26.9939L40.8745 27.2969C40.9624 27.3848 41.0776 27.4288 41.1927 27.4288C41.3079 27.4288 41.4231 27.3849 41.511 27.2969C41.6868 27.1212 41.6868 26.8362 41.511 26.6605L41.2079 26.3574L41.511 26.0542C41.6868 25.8785 41.6868 25.5935 41.511 25.4178C41.3352 25.242 41.0503 25.242 40.8745 25.4178L40.5715 25.7208L40.2684 25.4178C40.0926 25.242 39.8077 25.242 39.6319 25.4178C39.4562 25.5935 39.4562 25.8785 39.6319 26.0542L39.935 26.3574L39.6319 26.6605C39.456 26.8362 39.456 27.1212 39.6318 27.2969Z" fill="#FFD500"/>
<path d="M31.0615 27.2969C31.1494 27.3849 31.2646 27.4288 31.3798 27.4288C31.4949 27.4288 31.6101 27.3849 31.698 27.2969L32.0011 26.9938L32.3043 27.2969C32.3921 27.3849 32.5073 27.4288 32.6225 27.4288C32.7376 27.4288 32.8528 27.3849 32.9407 27.2969C33.1165 27.1212 33.1165 26.8362 32.9407 26.6605L32.6376 26.3574L32.9407 26.0543C33.1164 25.8785 33.1164 25.5936 32.9406 25.4178C32.7649 25.242 32.4799 25.242 32.3042 25.4178L32.0011 25.721L31.6979 25.4178C31.5222 25.242 31.2373 25.242 31.0615 25.4178C30.8857 25.5936 30.8857 25.8785 31.0616 26.0543L31.3646 26.3574L31.0616 26.6605C30.8857 26.8363 30.8857 27.1212 31.0615 27.2969Z" fill="#FFD500"/>
<path d="M39.6318 13.3683C39.7197 13.4562 39.8349 13.5001 39.9501 13.5001C40.0653 13.5001 40.1805 13.4562 40.2684 13.3683L40.5714 13.0652L40.8745 13.3683C40.9624 13.4562 41.0776 13.5001 41.1927 13.5001C41.3079 13.5001 41.4231 13.4562 41.511 13.3683C41.6868 13.1925 41.6868 12.9075 41.511 12.7318L41.2079 12.4287L41.511 12.1256C41.6868 11.9498 41.6868 11.6648 41.511 11.4891C41.3352 11.3133 41.0503 11.3133 40.8745 11.4891L40.5715 11.7922L40.2684 11.4891C40.0926 11.3133 39.8077 11.3133 39.6319 11.4891C39.4562 11.6649 39.4562 11.9499 39.6319 12.1256L39.935 12.4287L39.6319 12.7318C39.456 12.9075 39.456 13.1925 39.6318 13.3683Z" fill="#FFD500"/>
</svg>
