<svg width="62" height="42" viewBox="0 0 62 42" fill="none" xmlns="http://www.w3.org/2000/svg">
<path d="M29.283 9.21855L25.6133 18.1309C25.4889 18.4331 25.2063 18.6408 24.8808 18.6694L6.10994 20.3189C5.64939 20.3593 5.29988 20.7511 5.31194 21.213L5.69367 35.9473C5.7042 36.3525 5.99161 36.6973 6.38823 36.7809L28.4864 41.4291C29.0266 41.5427 29.5757 41.599 30.1248 41.5977L30.1252 37.2279V9.3852C30.125 8.1689 29.7461 8.09394 29.283 9.21855ZM26.7134 36.6963L18.4177 35.3604V31.0122H26.7134V36.6963ZM23.0861 16.5514L0.96424 18.7867C0.28842 18.855 -0.204034 18.1606 0.0838809 17.5455L5.97439 4.95443C6.09423 4.69822 6.33058 4.51567 6.60877 4.46461L30.9158 0.000101252L23.7978 16.036C23.6703 16.323 23.3987 16.5198 23.0861 16.5514ZM55.8901 20.3189L37.1193 18.6695C36.7937 18.6409 36.5111 18.4332 36.3868 18.131L32.717 9.21865C32.2539 8.09394 31.8749 8.1689 31.8749 9.3852V37.2278L31.8753 41.5976C32.4243 41.599 32.9735 41.5426 33.5138 41.429L55.612 36.7808C56.0086 36.6973 56.296 36.3524 56.3064 35.9472L56.6882 21.213C56.7002 20.751 56.3505 20.3593 55.8901 20.3189ZM48.1652 28.189L47.1285 28.2177L47.1075 34.7425C47.1066 35.0299 46.8147 35.3047 46.4516 35.3569L44.7526 35.6013C44.3644 35.6571 44.0468 35.4582 44.0476 35.1563L44.0634 28.3028L42.8776 28.3356C42.301 28.3515 41.9362 27.8893 42.2297 27.5066L45.0498 23.8318C45.3169 23.4835 45.9726 23.5156 46.2301 23.8826L48.7056 27.4106C48.9402 27.7452 48.6435 28.1757 48.1652 28.189ZM61.0357 18.7867L38.9138 16.5514C38.6012 16.5198 38.3295 16.323 38.2021 16.0359L31.0842 0L55.3912 4.46451C55.6694 4.51557 55.9058 4.69812 56.0257 4.95433L61.9162 17.5454C62.204 18.1606 61.7115 18.855 61.0357 18.7867Z" fill="white"/>
<path d="M37.0673 31.8861L34 35.5342H32.5L37.0248 30.1723L37.0673 31.8861Z" fill="#FFD500"/>
<path fill-rule="evenodd" clip-rule="evenodd" d="M37.0475 33.0428L37.048 33.0161C37.0476 33.025 37.0475 33.0339 37.0475 33.0428Z" fill="#FFD500"/>
<path fill-rule="evenodd" clip-rule="evenodd" d="M15.8057 17.1643C16.3267 16.6526 16.9259 16.2483 17.575 15.9594C15.4706 15.0197 14.0001 12.9073 14.0001 10.4576C14.0001 7.13707 16.7016 4.43555 20.0221 4.43555H42.978C46.2985 4.43555 49 7.13707 49 10.4576C49 12.9081 47.5289 15.0208 45.4234 15.9602C47.5289 16.8996 49 19.0126 49 21.4629C49 24.7836 46.2985 27.4849 42.978 27.4849H38.0289L38.0556 30.8531L37.0673 31.8861L37.0248 30.1723L36.956 21.4671L36.9557 21.4629C36.9557 19.3931 38.0054 17.5643 39.6001 16.4799H20.0221C19.9332 16.4799 19.8448 16.4775 19.7569 16.4737C18.5395 16.537 17.3999 17.0363 16.524 17.8962C15.5859 18.8169 15.0548 20.0471 15.0281 21.3601C15.0279 21.3748 15.0268 21.3894 15.0252 21.4039V35.5342H32.5H34L32.8395 36.5596H14.5128C14.2294 36.5596 14.0001 36.3299 14.0001 36.0469V21.3497C14.0001 21.327 14.0014 21.3045 14.0043 21.2826C14.0503 19.7213 14.6887 18.2607 15.8057 17.1643ZM37.0475 33.0428L37.048 33.0161C37.0476 33.025 37.0475 33.0339 37.0475 33.0428ZM20.0221 5.46094C17.2669 5.46094 15.0255 7.70237 15.0255 10.4576C15.0255 13.1238 17.1248 15.3092 19.7577 15.447C19.8456 15.4433 19.9337 15.4409 20.0221 15.4409C20.0619 15.4409 20.1003 15.4457 20.1374 15.4542H39.6201C38.0142 14.3714 36.956 12.5359 36.956 10.4576C36.956 8.37929 38.0142 6.54347 39.6201 5.46094H20.0221ZM47.9746 10.4576C47.9746 7.70237 45.7332 5.46094 42.978 5.46094C40.2228 5.46094 37.9813 7.70237 37.9813 10.4576C37.9813 13.1233 40.0794 15.3079 42.7109 15.447C42.7996 15.4433 42.8885 15.4409 42.978 15.4409C43.0674 15.4409 43.1564 15.4433 43.2447 15.447C45.8763 15.3079 47.9746 13.1233 47.9746 10.4576ZM38.0209 26.4595H39.6201C38.9872 26.0328 38.4396 25.4891 38.008 24.8597L38.0209 26.4595ZM37.9813 21.4629C37.9813 24.2181 40.2228 26.4595 42.978 26.4595C45.7332 26.4595 47.9746 24.2181 47.9746 21.4629C47.9746 18.7971 45.8763 16.6126 43.2447 16.4735C43.1564 16.4775 43.0674 16.4799 42.978 16.4799H42.9753H42.6298C40.0367 16.6593 37.9813 18.8249 37.9813 21.4629Z" fill="#FFD500"/>
<path d="M31 27C30.5 27 19.5 27 19 27C18.5 27 18.5 26 19 26C19.5 26 30.5 26 31 26C31.5 26 31.5 27 31 27Z" fill="#FFD500"/>
<path d="M32.5 36V30.5H37.5" stroke="#FFD500" stroke-linejoin="round"/>
<path d="M42.9771 19.1138C44.2725 19.1138 45.3262 20.1675 45.3262 21.4628C45.3262 22.7582 44.2725 23.8121 42.9771 23.8121C41.6818 23.8121 40.6278 22.7582 40.6278 21.4628C40.6278 20.1675 41.6818 19.1138 42.9771 19.1138ZM42.9771 22.7865C43.7069 22.7865 44.3008 22.1926 44.3008 21.4628C44.3008 20.7328 43.7069 20.1389 42.9771 20.1389C42.2471 20.1389 41.6532 20.7328 41.6532 21.4628C41.6532 22.1926 42.2471 22.7865 42.9771 22.7865Z" fill="#FFD500"/>
<path d="M40.6278 10.4574C40.6278 9.16209 41.6818 8.1084 42.9771 8.1084C44.2725 8.1084 45.3262 9.16209 45.3262 10.4574C45.3262 11.7528 44.2725 12.8068 42.9771 12.8068C41.6818 12.8068 40.6278 11.7528 40.6278 10.4574ZM44.3008 10.4574C44.3008 9.72766 43.7072 9.13379 42.9771 9.13379C42.2471 9.13379 41.6532 9.72766 41.6532 10.4574C41.6532 11.1875 42.2471 11.7814 42.9771 11.7814C43.7069 11.7814 44.3008 11.1875 44.3008 10.4574Z" fill="#FFD500"/>
</svg>
