<svg width="62" height="42" viewBox="0 0 62 42" fill="none" xmlns="http://www.w3.org/2000/svg">
<path d="M29.283 9.21855L25.6133 18.1309C25.4889 18.4331 25.2063 18.6408 24.8808 18.6694L6.10994 20.3189C5.64939 20.3593 5.29988 20.7511 5.31194 21.213L5.69367 35.9473C5.7042 36.3525 5.99161 36.6973 6.38823 36.7809L28.4864 41.4291C29.0266 41.5427 29.5757 41.599 30.1248 41.5977L30.1252 37.2279V9.3852C30.125 8.1689 29.7461 8.09394 29.283 9.21855ZM26.7134 36.6963L18.4177 35.3604V31.0122H26.7134V36.6963ZM23.0861 16.5514L0.96424 18.7867C0.28842 18.855 -0.204034 18.1606 0.0838809 17.5455L5.97439 4.95443C6.09423 4.69822 6.33058 4.51567 6.60877 4.46461L30.9158 0.000101252L23.7978 16.036C23.6703 16.323 23.3987 16.5198 23.0861 16.5514ZM55.8901 20.3189L37.1193 18.6695C36.7937 18.6409 36.5111 18.4332 36.3868 18.131L32.717 9.21865C32.2539 8.09394 31.8749 8.1689 31.8749 9.3852V37.2278L31.8753 41.5976C32.4243 41.599 32.9735 41.5426 33.5138 41.429L55.612 36.7808C56.0086 36.6973 56.296 36.3524 56.3064 35.9472L56.6882 21.213C56.7002 20.751 56.3505 20.3593 55.8901 20.3189ZM48.1652 28.189L47.1285 28.2177L47.1075 34.7425C47.1066 35.0299 46.8147 35.3047 46.4516 35.3569L44.7526 35.6013C44.3644 35.6571 44.0468 35.4582 44.0476 35.1563L44.0634 28.3028L42.8776 28.3356C42.301 28.3515 41.9362 27.8893 42.2297 27.5066L45.0498 23.8318C45.3169 23.4835 45.9726 23.5156 46.2301 23.8826L48.7056 27.4106C48.9402 27.7452 48.6435 28.1757 48.1652 28.189ZM61.0357 18.7867L38.9138 16.5514C38.6012 16.5198 38.3295 16.323 38.2021 16.0359L31.0842 0L55.3912 4.46451C55.6694 4.51557 55.9058 4.69812 56.0257 4.95433L61.9162 17.5454C62.204 18.1606 61.7115 18.855 61.0357 18.7867Z" fill="white"/>
<path d="M21.9844 12.9896C21.6116 12.9268 21.2599 13.1789 21.1977 13.5514C21.1339 13.9332 21.1016 14.3162 21.1016 14.6892C21.1016 15.7664 21.3657 16.8818 21.8869 18.0046C22.7264 19.8137 23.1523 21.5841 23.1523 23.2662V25.9685C23.1523 26.3461 23.4584 26.6521 23.8359 26.6521C24.2135 26.6521 24.5195 26.3461 24.5195 25.9685V23.2662C24.5195 21.3839 24.0509 19.4199 23.127 17.4289C22.6901 16.4879 22.4688 15.5661 22.4688 14.6892C22.4688 14.3915 22.4949 14.0841 22.5462 13.7762C22.6084 13.404 22.3569 13.0518 21.9844 12.9896Z" fill="#FFD500"/>
<path d="M35.7748 14.0084C35.4477 13.9533 35.139 14.1746 35.0844 14.5015C35.0284 14.8367 35 15.1728 35 15.5002C35 16.4456 35.2318 17.4246 35.6893 18.4101C36.4262 19.998 36.8 21.5519 36.8 23.0282V25.4C36.8 25.7314 37.0686 26 37.4 26C37.7314 26 38 25.7314 38 25.4V23.0282C38 21.3761 37.5887 19.6523 36.7777 17.9048C36.3943 17.0789 36.2 16.2699 36.2 15.5002C36.2 15.2389 36.223 14.9691 36.268 14.6989C36.3226 14.3722 36.1018 14.063 35.7748 14.0084Z" fill="#FFD500"/>
<path d="M26.5703 15.7148V13.6641C26.5703 13.2865 26.2643 12.9805 25.8867 12.9805C25.5091 12.9805 25.2031 13.2865 25.2031 13.6641V15.7148C25.2031 16.0924 25.5091 16.3984 25.8867 16.3984C26.2643 16.3984 26.5703 16.0924 26.5703 15.7148Z" fill="#FFD500"/>
<path d="M39 16.4V14.6C39 14.2686 38.7762 14 38.5 14C38.2238 14 38 14.2686 38 14.6V16.4C38 16.7314 38.2238 17 38.5 17C38.7762 17 39 16.7314 39 16.4Z" fill="#FFD500"/>
<path d="M30.6719 28.0195V25.9688C30.6719 25.5912 30.3659 25.2852 29.9883 25.2852C29.6107 25.2852 29.3047 25.5912 29.3047 25.9688V28.0195C29.3047 28.3971 29.6107 28.7031 29.9883 28.7031C30.3659 28.7031 30.6719 28.3971 30.6719 28.0195Z" fill="#FFD500"/>
<path d="M43 27.4V25.6C43 25.2686 42.7762 25 42.5 25C42.2238 25 42 25.2686 42 25.6V27.4C42 27.7314 42.2238 28 42.5 28C42.7762 28 43 27.7314 43 27.4Z" fill="#FFD500"/>
<path d="M17 37.3164C17 37.694 17.306 38 17.6836 38H34.0898C34.4674 38 34.7734 37.694 34.7734 37.3164V3.68359C34.7734 3.30601 34.4674 3 34.0898 3H17.6836C17.306 3 17 3.30601 17 3.68359V17.4238C17 17.8014 17.306 18.1074 17.6836 18.1074C18.0612 18.1074 18.3672 17.8014 18.3672 17.4238V4.36719H23.1523V6.11249C23.1523 7.16618 22.9849 8.26127 22.6546 9.36677C22.5465 9.72859 22.7521 10.1094 23.1139 10.2173C23.473 10.3249 23.8557 10.1222 23.9646 9.75797C24.3329 8.52536 24.5195 7.2989 24.5195 6.11249V4.36719H27.2539V6.11249C27.2539 7.99477 27.7225 9.95877 28.6465 11.9497C29.0833 12.8907 29.3047 13.8125 29.3047 14.6895C29.3047 15.5664 29.0833 16.4882 28.6465 17.4292C27.7225 19.4201 27.2539 21.3841 27.2539 23.2664V23.918C27.2539 24.2955 27.5599 24.6016 27.9375 24.6016C28.3151 24.6016 28.6211 24.2955 28.6211 23.918V23.2664C28.6211 21.5844 29.047 19.814 29.8865 18.0049C30.4078 16.882 30.6719 15.7666 30.6719 14.6895C30.6719 13.6123 30.4078 12.4969 29.8865 11.374C29.047 9.5649 28.6211 7.7945 28.6211 6.11249V4.36719H33.4062V36.6328H28.6211V32.1211C28.6211 31.7435 28.3151 31.4375 27.9375 31.4375C27.5599 31.4375 27.2539 31.7435 27.2539 32.1211V36.6328H22.4688V30.0703C22.4688 29.6927 22.1627 29.3867 21.7852 29.3867C21.4076 29.3867 21.1016 29.6927 21.1016 30.0703V36.6328H18.3672V23.5762C18.3672 23.1986 18.0612 22.8926 17.6836 22.8926C17.306 22.8926 17 23.1986 17 23.5762V37.3164Z" fill="#FFD500"/>
<path d="M17.6836 18.1074C17.306 18.1074 17 17.8014 17 17.4238V23.5762C17 23.1986 17.306 22.8926 17.6836 22.8926C18.0612 22.8926 18.3672 23.1986 18.3672 23.5762V17.4238C18.3672 17.8014 18.0612 18.1074 17.6836 18.1074Z" fill="#FFD500"/>
<path fill-rule="evenodd" clip-rule="evenodd" d="M34.6923 34.7891H34.0694V36H46.3846C46.7245 36 47 35.729 47 35.3945V5.60547C47 5.27104 46.7245 5 46.3846 5H34.0915V6.21094H36.5385V7.75677C36.5385 8.69005 36.3877 9.65998 36.0904 10.6391C35.993 10.9596 36.1781 11.2969 36.5038 11.3924C36.8272 11.4877 37.1716 11.3082 37.2697 10.9856C37.6012 9.89389 37.7692 8.80759 37.7692 7.75677V6.21094H40.2308V7.75677C40.2308 9.42394 40.6526 11.1635 41.4844 12.9269C41.8776 13.7604 42.0769 14.5768 42.0769 15.3535C42.0769 16.1302 41.8776 16.9467 41.4844 17.7801C40.6526 19.5435 40.2308 21.2831 40.2308 22.9503V23.5273C40.2308 23.8618 40.5063 24.1328 40.8462 24.1328C41.1861 24.1328 41.4615 23.8618 41.4615 23.5273V22.9503C41.4615 21.4605 41.845 19.8924 42.6007 18.29C43.07 17.2955 43.3077 16.3076 43.3077 15.3535C43.3077 14.3994 43.07 13.4115 42.6007 12.417C41.845 10.8146 41.4615 9.24656 41.4615 7.75677V6.21094H45.7692V34.7891H41.4615V30.793C41.4615 30.4585 41.1861 30.1875 40.8462 30.1875C40.5063 30.1875 40.2308 30.4585 40.2308 30.793V34.7891H35.9231V28.9766C35.9231 28.6421 35.6476 28.3711 35.3077 28.3711C34.9678 28.3711 34.6923 28.6421 34.6923 28.9766V34.7891Z" fill="#FFD500"/>
</svg>
