<svg width="62" height="42" viewBox="0 0 62 42" fill="none" xmlns="http://www.w3.org/2000/svg">
<path d="M29.283 9.21855L25.6133 18.1309C25.4889 18.4331 25.2063 18.6408 24.8808 18.6694L6.10994 20.3189C5.64939 20.3593 5.29988 20.7511 5.31194 21.213L5.69367 35.9473C5.7042 36.3525 5.99161 36.6973 6.38823 36.7809L28.4864 41.4291C29.0266 41.5427 29.5757 41.599 30.1248 41.5977L30.1252 37.2279V9.3852C30.125 8.1689 29.7461 8.09394 29.283 9.21855ZM26.7134 36.6963L18.4177 35.3604V31.0122H26.7134V36.6963ZM23.0861 16.5514L0.96424 18.7867C0.28842 18.855 -0.204034 18.1606 0.0838809 17.5455L5.97439 4.95443C6.09423 4.69822 6.33058 4.51567 6.60877 4.46461L30.9158 0.000101252L23.7978 16.036C23.6703 16.323 23.3987 16.5198 23.0861 16.5514ZM55.8901 20.3189L37.1193 18.6695C36.7937 18.6409 36.5111 18.4332 36.3868 18.131L32.717 9.21865C32.2539 8.09394 31.8749 8.1689 31.8749 9.3852V37.2278L31.8753 41.5976C32.4243 41.599 32.9735 41.5426 33.5138 41.429L55.612 36.7808C56.0086 36.6973 56.296 36.3524 56.3064 35.9472L56.6882 21.213C56.7002 20.751 56.3505 20.3593 55.8901 20.3189ZM48.1652 28.189L47.1285 28.2177L47.1075 34.7425C47.1066 35.0299 46.8147 35.3047 46.4516 35.3569L44.7526 35.6013C44.3644 35.6571 44.0468 35.4582 44.0476 35.1563L44.0634 28.3028L42.8776 28.3356C42.301 28.3515 41.9362 27.8893 42.2297 27.5066L45.0498 23.8318C45.3169 23.4835 45.9726 23.5156 46.2301 23.8826L48.7056 27.4106C48.9402 27.7452 48.6435 28.1757 48.1652 28.189ZM61.0357 18.7867L38.9138 16.5514C38.6012 16.5198 38.3295 16.323 38.2021 16.0359L31.0842 0L55.3912 4.46451C55.6694 4.51557 55.9058 4.69812 56.0257 4.95433L61.9162 17.5454C62.204 18.1606 61.7115 18.855 61.0357 18.7867Z" fill="white"/>
<g clip-path="url(#clip0)">
<path d="M44.625 3H18.375C18.23 3 18.0909 3.05762 17.9883 3.16018C17.8857 3.26273 17.8281 3.40183 17.8281 3.54688V37.4531C17.8281 37.5982 17.8857 37.7373 17.9883 37.8398C18.0909 37.9424 18.23 38 18.375 38H44.625C44.77 38 44.9091 37.9424 45.0117 37.8398C45.1143 37.7373 45.1719 37.5982 45.1719 37.4531V3.54688C45.1719 3.40183 45.1143 3.26273 45.0117 3.16018C44.9091 3.05762 44.77 3 44.625 3V3ZM44.0781 36.9062H18.9219V4.09375H44.0781V36.9062Z" fill="#FFD500"/>
<path d="M32.5938 19.9531H42.9844C43.1294 19.9531 43.2685 19.8955 43.3711 19.7929C43.4736 19.6904 43.5312 19.5513 43.5312 19.4062V5.1875C43.5312 5.04246 43.4736 4.90336 43.3711 4.8008C43.2685 4.69824 43.1294 4.64063 42.9844 4.64062H32.5938C32.4487 4.64062 32.3096 4.69824 32.2071 4.8008C32.1045 4.90336 32.0469 5.04246 32.0469 5.1875V19.4062C32.0469 19.5513 32.1045 19.6904 32.2071 19.7929C32.3096 19.8955 32.4487 19.9531 32.5938 19.9531ZM33.1406 18.8594V17.992L42.4375 8.69516V10.4298C42.4375 10.4298 38.3673 14.5 37.6759 15.1915C36.9844 15.883 37.8983 16.5156 38.4491 15.9648C39 15.4139 42.4375 11.9764 42.4375 11.9764V18.8594H33.1406ZM42.4375 5.73438V7.14859L33.1406 16.4455V14.7108C33.1406 14.7108 37.8983 9.95312 38.4491 9.40227C39 8.85141 38.3048 8 37.6759 8.62898C37.0469 9.25797 33.1406 13.1642 33.1406 13.1642V5.73438H42.4375Z" fill="#FFD500"/>
<path d="M32.5938 36.3594H42.9844C43.1294 36.3594 43.2685 36.3018 43.3711 36.1992C43.4736 36.0966 43.5312 35.9575 43.5312 35.8125V21.5938C43.5312 21.4487 43.4736 21.3096 43.3711 21.2071C43.2685 21.1045 43.1294 21.0469 42.9844 21.0469H32.5938C32.4487 21.0469 32.3096 21.1045 32.2071 21.2071C32.1045 21.3096 32.0469 21.4487 32.0469 21.5938V35.8125C32.0469 35.9575 32.1045 36.0966 32.2071 36.1992C32.3096 36.3018 32.4487 36.3594 32.5938 36.3594ZM33.1406 35.2656V33.8514L42.4375 24.5545V26.2892C42.4375 26.2892 38.4491 30.2776 37.6759 31.0509C36.9026 31.8241 37.8983 32.375 38.4491 31.8241C39 31.2733 42.4375 27.8358 42.4375 27.8358V35.2656H33.1406ZM42.4375 22.1406V23.008L33.1406 32.3048V30.5702C33.1406 30.5702 37.8983 25.8125 38.4491 25.2616C39 24.7108 38.4491 23.7151 37.6759 24.4884C36.9026 25.2616 33.1406 29.0236 33.1406 29.0236V22.1406H42.4375Z" fill="#FFD500"/>
<path d="M20.0156 36.3594H30.4062C30.5513 36.3594 30.6904 36.3018 30.7929 36.1992C30.8955 36.0966 30.9531 35.9575 30.9531 35.8125V5.1875C30.9531 5.04246 30.8955 4.90336 30.7929 4.8008C30.6904 4.69824 30.5513 4.64063 30.4062 4.64062H20.0156C19.8706 4.64062 19.7315 4.69824 19.6289 4.8008C19.5264 4.90336 19.4688 5.04246 19.4688 5.1875V35.8125C19.4688 35.9575 19.5264 36.0966 19.6289 36.1992C19.7315 36.3018 19.8706 36.3594 20.0156 36.3594ZM20.5625 35.2656V25.6483L29.8594 16.3514V18.0861C29.8594 18.0861 25.871 22.0745 25.0977 22.8477C24.3245 23.621 25.0977 24.3943 25.871 23.621C26.6443 22.8477 29.8594 19.6327 29.8594 19.6327V35.2656H20.5625ZM29.8594 5.73438V14.8048L20.5625 24.1017V22.367C20.5625 22.367 25.0977 17.8318 25.871 17.0585C26.6443 16.2852 26 15.383 25.0977 16.2852C24.1955 17.1875 20.5625 20.8205 20.5625 20.8205V5.73438H29.8594Z" fill="#FFD500"/>
</g>
<defs>
<clipPath id="clip0">
<rect width="35" height="35" fill="white" transform="translate(14 3)"/>
</clipPath>
</defs>
</svg>
