<svg width="30" height="30" viewBox="0 0 30 30" fill="none" xmlns="http://www.w3.org/2000/svg">
<rect width="30" height="30" fill="#F0F5F9"/>
<path d="M15.0005 15.9375C13.888 15.9375 12.8004 15.6076 11.8754 14.9895C10.9504 14.3714 10.2294 13.4929 9.80367 12.4651C9.37793 11.4373 9.26653 10.3063 9.48357 9.21512C9.70062 8.12398 10.2363 7.1217 11.023 6.33503C11.8097 5.54836 12.812 5.01263 13.9031 4.79559C14.9943 4.57854 16.1253 4.68994 17.1531 5.11568C18.1809 5.54142 19.0594 6.26239 19.6775 7.18742C20.2956 8.11245 20.6255 9.19998 20.6255 10.3125C20.6255 11.8043 20.0329 13.2351 18.978 14.29C17.9231 15.3449 16.4923 15.9375 15.0005 15.9375ZM15.0005 6.5625C14.2588 6.5625 13.5338 6.78244 12.9171 7.19449C12.3004 7.60655 11.8198 8.19222 11.5359 8.87744C11.2521 9.56266 11.1779 10.3167 11.3225 11.0441C11.4672 11.7715 11.8244 12.4397 12.3488 12.9642C12.8733 13.4886 13.5415 13.8458 14.2689 13.9904C14.9963 14.1351 15.7503 14.0609 16.4356 13.777C17.1208 13.4932 17.7064 13.0126 18.1185 12.3959C18.5306 11.7792 18.7505 11.0542 18.7505 10.3125C18.7505 9.31794 18.3554 8.36411 17.6521 7.66085C16.9489 6.95759 15.9951 6.5625 15.0005 6.5625Z" fill="#FFD500"/>
<path d="M15.0001 29.0628C12.9211 29.0614 10.8683 28.5991 8.98951 27.7091C7.11067 26.8191 5.45253 25.5237 4.13447 23.9159L3.64697 23.3159L4.13447 22.7253C5.45364 21.1197 7.11227 19.8263 8.99105 18.9384C10.8698 18.0504 12.922 17.5898 15.0001 17.5898C17.0781 17.5898 19.1304 18.0504 21.0091 18.9384C22.8879 19.8263 24.5466 21.1197 25.8657 22.7253L26.3532 23.3159L25.8657 23.9159C24.5477 25.5237 22.8895 26.8191 21.0107 27.7091C19.1319 28.5991 17.0791 29.0614 15.0001 29.0628ZM6.10322 23.3253C7.24344 24.5459 8.62241 25.5192 10.1545 26.1846C11.6866 26.85 13.3391 27.1933 15.0095 27.1933C16.6798 27.1933 18.3323 26.85 19.8644 26.1846C21.3965 25.5192 22.7755 24.5459 23.9157 23.3253C22.7755 22.1047 21.3965 21.1314 19.8644 20.466C18.3323 19.8006 16.6798 19.4573 15.0095 19.4573C13.3391 19.4573 11.6866 19.8006 10.1545 20.466C8.62241 21.1314 7.24344 22.1047 6.10322 23.3253Z" fill="#FFD500"/>
<path d="M15.0001 29.0625C11.8058 29.0646 8.70596 27.9792 6.21075 25.9848C3.71555 23.9904 1.97369 21.206 1.27186 18.0897C0.570031 14.9735 0.950054 11.7111 2.34938 8.83965C3.74871 5.96816 6.08396 3.65864 8.97077 2.2912C11.8576 0.923762 15.1239 0.579897 18.2322 1.3162C21.3405 2.05251 24.1055 3.8251 26.0721 6.34224C28.0387 8.85938 29.0898 11.9711 29.0523 15.1651C29.0148 18.3592 27.8909 21.4454 25.8657 23.9156C24.5477 25.5234 22.8895 26.8189 21.0107 27.7088C19.1319 28.5988 17.0791 29.0611 15.0001 29.0625ZM15.0001 2.81251C12.5897 2.81251 10.2333 3.52729 8.2291 4.86647C6.22487 6.20565 4.66277 8.10908 3.74033 10.3361C2.81789 12.563 2.57653 15.0135 3.04679 17.3777C3.51705 19.7418 4.67779 21.9134 6.38225 23.6179C8.0867 25.3223 10.2583 26.4831 12.6224 26.9533C14.9866 27.4236 17.4371 27.1822 19.6641 26.2598C21.891 25.3374 23.7945 23.7752 25.1336 21.771C26.4728 19.7668 27.1876 17.4105 27.1876 15C27.1876 11.7677 25.9036 8.66775 23.618 6.38215C21.3324 4.09655 18.2324 2.81251 15.0001 2.81251Z" fill="#FFD500"/>
</svg>
