<svg width="30" height="30" viewBox="0 0 30 30" fill="none" xmlns="http://www.w3.org/2000/svg">
<rect width="30" height="30" fill="#F0F5F9"/>
<path d="M5.50781 8.4375H6.67969V9.60938C6.67969 10.0948 7.0732 10.4883 7.55859 10.4883C8.04398 10.4883 8.4375 10.0948 8.4375 9.60938V8.4375H9.60938C10.0948 8.4375 10.4883 8.04398 10.4883 7.55859C10.4883 7.0732 10.0948 6.67969 9.60938 6.67969H8.4375V5.50781C8.4375 5.02242 8.04398 4.62891 7.55859 4.62891C7.0732 4.62891 6.67969 5.02242 6.67969 5.50781V6.67969H5.50781C5.02242 6.67969 4.62891 7.0732 4.62891 7.55859C4.62891 8.04398 5.02242 8.4375 5.50781 8.4375Z" fill="#FFD500"/>
<path d="M19.1602 8.4375H22.6758C23.1612 8.4375 23.5547 8.04398 23.5547 7.55859C23.5547 7.0732 23.1612 6.67969 22.6758 6.67969H19.1602C18.6748 6.67969 18.2812 7.0732 18.2812 7.55859C18.2812 8.04398 18.6748 8.4375 19.1602 8.4375Z" fill="#FFD500"/>
<path d="M22.9688 21.5039H18.8672C18.3818 21.5039 17.9883 21.8974 17.9883 22.3828C17.9883 22.8682 18.3818 23.2617 18.8672 23.2617H22.9688C23.4541 23.2617 23.8477 22.8682 23.8477 22.3828C23.8477 21.8974 23.4541 21.5039 22.9688 21.5039Z" fill="#FFD500"/>
<path d="M22.9688 18.5742H18.8672C18.3818 18.5742 17.9883 18.9677 17.9883 19.4531C17.9883 19.9385 18.3818 20.332 18.8672 20.332H22.9688C23.4541 20.332 23.8477 19.9385 23.8477 19.4531C23.8477 18.9677 23.4541 18.5742 22.9688 18.5742Z" fill="#FFD500"/>
<path d="M9.64539 18.8317C9.30221 18.4885 8.74569 18.4885 8.40245 18.8317L7.55911 19.675L6.71571 18.8317C6.37253 18.4884 5.816 18.4884 5.47276 18.8317C5.12952 19.1749 5.12952 19.7314 5.47276 20.0746L6.31616 20.918L5.47276 21.7614C5.12952 22.1046 5.12952 22.6611 5.47276 23.0044C5.64438 23.176 5.86933 23.2618 6.09427 23.2618C6.31921 23.2618 6.54415 23.176 6.71571 23.0043L7.55911 22.161L8.40251 23.0044C8.57407 23.176 8.79901 23.2618 9.02395 23.2618C9.24889 23.2618 9.47383 23.176 9.64539 23.0043C9.98864 22.6611 9.98864 22.1046 9.64539 21.7613L8.80206 20.918L9.64545 20.0746C9.98869 19.7314 9.98869 19.1749 9.64539 18.8317Z" fill="#FFD500"/>
<path d="M28.4766 15.8888V2.63672C28.4766 1.18283 27.2937 0 25.8398 0H2.63672C1.18283 0 0 1.18283 0 2.63672V25.8398C0 27.2937 1.18283 28.4766 2.63672 28.4766H15.8888C17.3296 29.4384 19.0593 30 20.918 30C25.9259 30 30 25.9258 30 20.918C30 19.0594 29.4384 17.3296 28.4766 15.8888ZM26.7188 2.63672V13.9354C25.1443 12.6251 23.1216 11.8359 20.918 11.8359C18.7143 11.8359 16.6917 12.6251 15.1172 13.9354V1.75781H25.8398C26.3245 1.75781 26.7188 2.15209 26.7188 2.63672ZM2.63672 1.75781H13.3594V13.3594H1.75781V2.63672C1.75781 2.15209 2.15209 1.75781 2.63672 1.75781ZM1.75781 25.8398V15.1172H13.3594V15.8888C12.3975 17.3296 11.8359 19.0594 11.8359 20.918C11.8359 23.1216 12.6251 25.1443 13.9354 26.7188H2.63672C2.15209 26.7188 1.75781 26.3245 1.75781 25.8398ZM20.918 28.2422C16.8794 28.2422 13.5938 24.9565 13.5938 20.918C13.5938 16.8794 16.8794 13.5938 20.918 13.5938C24.9565 13.5938 28.2422 16.8794 28.2422 20.918C28.2422 24.9565 24.9565 28.2422 20.918 28.2422Z" fill="#FFD500"/>
</svg>
