<svg width="12" height="12" viewBox="0 0 12 12" fill="none" xmlns="http://www.w3.org/2000/svg">
<path fill-rule="evenodd" clip-rule="evenodd" d="M6 11.25C7.39239 11.25 8.72774 10.6969 9.71231 9.71231C10.6969 8.72774 11.25 7.39239 11.25 6C11.25 4.60761 10.6969 3.27226 9.71231 2.28769C8.72774 1.30312 7.39239 0.75 6 0.75C4.60761 0.75 3.27226 1.30312 2.28769 2.28769C1.30312 3.27226 0.75 4.60761 0.75 6C0.75 7.39239 1.30312 8.72774 2.28769 9.71231C3.27226 10.6969 4.60761 11.25 6 11.25ZM6 12C7.5913 12 9.11742 11.3679 10.2426 10.2426C11.3679 9.11742 12 7.5913 12 6C12 4.4087 11.3679 2.88258 10.2426 1.75736C9.11742 0.632141 7.5913 0 6 0C4.4087 0 2.88258 0.632141 1.75736 1.75736C0.632141 2.88258 0 4.4087 0 6C0 7.5913 0.632141 9.11742 1.75736 10.2426C2.88258 11.3679 4.4087 12 6 12Z" fill="#C4C4C4"/>
<path d="M3.9375 4.52475H4.9275C4.9275 3.939 5.271 3.48675 5.9475 3.48675C6.46125 3.48675 6.93225 3.744 6.93225 4.36275C6.93225 4.839 6.65175 5.058 6.2085 5.391C5.70375 5.75775 5.304 6.186 5.3325 6.88125L5.33775 7.2285H6.318V6.96225C6.318 6.42375 6.52275 6.267 7.0755 5.84775C7.53225 5.5005 8.0085 5.115 8.0085 4.30575C8.0085 3.1725 7.0515 2.625 6.00375 2.625C5.00925 2.625 3.91425 3.11025 3.93825 4.52475H3.9375ZM5.109 8.66175C5.109 9.0615 5.42775 9.357 5.8665 9.357C6.32325 9.357 6.6375 9.0615 6.6375 8.66175C6.6375 8.24775 6.3225 7.95675 5.86575 7.95675C5.42775 7.95675 5.109 8.24775 5.109 8.66175Z" fill="#C4C4C4"/>
</svg>
