<svg width="14" height="18" viewBox="0 0 14 18" fill="none" xmlns="http://www.w3.org/2000/svg">
<path d="M1.86356 17.3327H11.7599C12.1973 17.3327 12.6169 17.1571 12.9262 16.8445C13.2355 16.532 13.4093 16.1081 13.4093 15.666V2.33268C13.4093 1.89066 13.2355 1.46673 12.9262 1.15417C12.6169 0.84161 12.1973 0.666016 11.7599 0.666016H1.86356C1.42612 0.666016 1.00659 0.84161 0.697268 1.15417C0.387947 1.46673 0.214172 1.89066 0.214172 2.33268V15.666C0.214172 16.1081 0.387947 16.532 0.697268 16.8445C1.00659 17.1571 1.42612 17.3327 1.86356 17.3327ZM4.33765 14.8327H2.68826V13.166H4.33765V14.8327ZM4.33765 11.4994H2.68826V9.83269H4.33765V11.4994ZM4.33765 8.16602H2.68826V6.49936H4.33765V8.16602ZM7.63643 14.8327H5.98704V13.166H7.63643V14.8327ZM7.63643 11.4994H5.98704V9.83269H7.63643V11.4994ZM7.63643 8.16602H5.98704V6.49936H7.63643V8.16602ZM10.9352 14.8327H9.28582V9.83269H10.9352V14.8327ZM10.9352 8.16602H9.28582V6.49936H10.9352V8.16602ZM1.86356 2.33268H11.7599V4.83269H1.86356V2.33268Z" fill="#FF2727"/>
</svg>
