<svg width="12" height="12" viewBox="0 0 12 12" fill="none" xmlns="http://www.w3.org/2000/svg">
<path d="M12 1V12H0V1H1.5V1.5C1.5 2.0515 1.9485 2.5 2.5 2.5C3.0515 2.5 3.5 2.0515 3.5 1.5V1H8.5V1.5C8.5 2.0515 8.9485 2.5 9.5 2.5C10.0515 2.5 10.5 2.0515 10.5 1.5V1H12ZM11 4H1V11H11V4ZM10 0.5C10 0.224 9.7765 0 9.5 0C9.2235 0 9 0.224 9 0.5V1.5C9 1.776 9.2235 2 9.5 2C9.7765 2 10 1.776 10 1.5V0.5ZM3 1.5C3 1.776 2.7765 2 2.5 2C2.2235 2 2 1.776 2 1.5V0.5C2 0.224 2.2235 0 2.5 0C2.7765 0 3 0.224 3 0.5V1.5ZM3.5 7.3645L3.9275 6.969C4.4275 7.211 4.745 7.395 5.3075 7.796C6.364 6.5965 7.063 5.988 8.3605 5.1805L8.5 5.5005C7.4295 6.435 6.6455 7.475 5.5165 9.5C4.82 8.68 4.3555 8.157 3.5 7.3645Z" fill="#757575"/>
</svg>
