<svg width="17" height="12" viewBox="0 0 17 12" fill="none" xmlns="http://www.w3.org/2000/svg">
<path d="M6.09891 9.74618C6.01135 10.3717 5.70502 10.944 5.23619 11.358C4.76736 11.772 4.16751 12 3.54682 12C2.92613 12 2.32628 11.772 1.85745 11.358C1.38862 10.944 1.08229 10.3717 0.994734 9.74618H0.232422V0.749707C0.232422 0.550872 0.310021 0.360181 0.448147 0.219584C0.586274 0.0789869 0.773614 0 0.968955 0H11.2804C11.4758 0 11.6631 0.0789869 11.8012 0.219584C11.9394 0.360181 12.017 0.550872 12.017 0.749707V2.24912H14.2266L16.4362 5.28993V9.74618H14.9373C14.8498 10.3717 14.5434 10.944 14.0746 11.358C13.6058 11.772 13.0059 12 12.3852 12C11.7645 12 11.1647 11.772 10.6959 11.358C10.227 10.944 9.92069 10.3717 9.83313 9.74618H6.09891ZM10.5439 1.49941H1.70549V7.53455C1.9961 7.23257 2.35408 7.00652 2.74897 6.87565C3.14387 6.74477 3.56398 6.71295 3.97355 6.78289C4.38313 6.85283 4.77004 7.02245 5.10136 7.27733C5.43267 7.53221 5.69859 7.86479 5.87648 8.24677H10.0556C10.1793 7.98213 10.345 7.74147 10.5439 7.53455V1.49941ZM12.017 5.99765H14.9631V5.78399L13.4841 3.74853H12.017V5.99765ZM12.3852 10.4959C12.6783 10.4959 12.9594 10.3774 13.1667 10.1664C13.374 9.95544 13.4904 9.66931 13.4904 9.37096C13.4904 9.07261 13.374 8.78647 13.1667 8.57551C12.9594 8.36454 12.6783 8.24602 12.3852 8.24602C12.0921 8.24602 11.811 8.36454 11.6038 8.57551C11.3965 8.78647 11.2801 9.07261 11.2801 9.37096C11.2801 9.66931 11.3965 9.95544 11.6038 10.1664C11.811 10.3774 12.0921 10.4959 12.3852 10.4959ZM4.65162 9.37133C4.65162 9.22365 4.62305 9.07742 4.56752 8.94098C4.512 8.80454 4.43062 8.68057 4.32803 8.57615C4.22544 8.47172 4.10365 8.38889 3.96961 8.33237C3.83557 8.27586 3.69191 8.24677 3.54682 8.24677C3.40174 8.24677 3.25807 8.27586 3.12403 8.33237C2.98999 8.38889 2.8682 8.47172 2.76561 8.57615C2.66302 8.68057 2.58164 8.80454 2.52612 8.94098C2.4706 9.07742 2.44202 9.22365 2.44202 9.37133C2.44202 9.66958 2.55842 9.95562 2.76561 10.1665C2.9728 10.3774 3.25381 10.4959 3.54682 10.4959C3.83983 10.4959 4.12084 10.3774 4.32803 10.1665C4.53522 9.95562 4.65162 9.66958 4.65162 9.37133Z" fill="#FF2727"/>
</svg>
