<svg width="16" height="16" viewBox="0 0 16 16" fill="none" xmlns="http://www.w3.org/2000/svg">
<mask id="mask0" mask-type="alpha" maskUnits="userSpaceOnUse" x="0" y="0" width="16" height="16">
<circle cx="8" cy="8" r="8" fill="#C4C4C4"/>
</mask>
<g mask="url(#mask0)">
<path d="M-10 0H25.8616V15.9982H-10V0Z" fill="white"/>
<path d="M6.13757 9.59403V15.9982H9.72417V9.59403H25.8617V6.39573H9.72417V0H6.13757V6.39573H-10V9.59403H6.13757Z" fill="#CF142B"/>
<path d="M10.9209 5.17856V0H22.5318L10.9209 5.17856ZM10.9209 10.8195V15.9982H22.5318L10.9209 10.8195ZM4.94244 10.8195V15.9982H-6.66834L4.94244 10.8195ZM4.94244 5.17856V0H-6.66834L4.94244 5.17856ZM-9.999 1.48715V5.33259H-1.3773L-9.999 1.48715ZM25.8625 1.48715V5.33259H17.2408L25.8625 1.48715ZM25.8625 14.511V10.6656H17.2408L25.8625 14.511ZM-9.999 14.511V10.6656H-1.3773L-9.999 14.511Z" fill="#00247D"/>
<path d="M25.8616 0H23.8698L11.9349 5.33259H13.9267L25.8804 0H25.8616ZM3.92674 10.6653H1.9349L-10 15.9979H-8.00816L3.94552 10.6653H3.92674ZM-0.0410347 5.33675H1.95069L-10 0V0.8944L-0.0410347 5.33675ZM15.8964 10.6633H13.9046L25.8553 16V15.1056L15.8964 10.6633Z" fill="#CF142B"/>
</g>
</svg>
