<svg width="35" height="35" viewBox="0 0 35 35" fill="none" xmlns="http://www.w3.org/2000/svg">
<path d="M23.1553 12.54L15.5428 20.147L11.7803 16.4064C11.5751 16.2012 11.2967 16.0859 11.0065 16.0859C10.7162 16.0859 10.4379 16.2012 10.2326 16.4064C10.0274 16.6116 9.91211 16.89 9.91211 17.1802C9.91211 17.4705 10.0274 17.7488 10.2326 17.9541L14.7717 22.4931C14.8733 22.5948 14.9939 22.6755 15.1267 22.7305C15.2595 22.7856 15.4018 22.8139 15.5455 22.8139C15.6893 22.8139 15.8316 22.7856 15.9644 22.7305C16.0971 22.6755 16.2178 22.5948 16.3194 22.4931L24.7029 14.0822C24.9082 13.8769 25.0235 13.5986 25.0235 13.3083C25.0235 13.0181 24.9082 12.7398 24.7029 12.5345C24.4977 12.3293 24.2194 12.214 23.9291 12.214C23.6389 12.214 23.3605 12.3293 23.1553 12.5345V12.54Z" fill="#039E12"/>
<path d="M17.5 1.64062C14.3633 1.64063 11.2971 2.57076 8.68901 4.31341C6.08095 6.05606 4.04821 8.53296 2.84786 11.4309C1.6475 14.3288 1.33343 17.5176 1.94537 20.594C2.5573 23.6704 4.06776 26.4963 6.28574 28.7143C8.50371 30.9322 11.3296 32.4427 14.406 33.0546C17.4824 33.6666 20.6712 33.3525 23.5691 32.1522C26.467 30.9518 28.9439 28.9191 30.6866 26.311C32.4292 23.7029 33.3594 20.6367 33.3594 17.5C33.3594 13.2938 31.6885 9.25994 28.7143 6.28573C25.7401 3.31152 21.7062 1.64063 17.5 1.64062ZM17.5 31.1719C14.796 31.1719 12.1526 30.37 9.90432 28.8677C7.65599 27.3655 5.90363 25.2302 4.86884 22.732C3.83405 20.2338 3.5633 17.4848 4.09083 14.8327C4.61837 12.1807 5.92049 9.74457 7.83253 7.83252C9.74458 5.92048 12.1807 4.61836 14.8328 4.09083C17.4848 3.56329 20.2338 3.83404 22.732 4.86883C25.2302 5.90363 27.3655 7.65598 28.8678 9.90431C30.37 12.1526 31.1719 14.796 31.1719 17.5C31.1719 19.2954 30.8182 21.0733 30.1312 22.732C29.4441 24.3907 28.437 25.8979 27.1675 27.1675C25.8979 28.437 24.3908 29.4441 22.732 30.1312C21.0733 30.8182 19.2954 31.1719 17.5 31.1719Z" fill="#039E12"/>
</svg>
