<svg width="25" height="25" viewBox="0 0 25 25" fill="none" xmlns="http://www.w3.org/2000/svg">
<path d="M24.9548 15.7147L23.6383 12.1356C23.5264 11.8312 23.2278 11.6366 22.9038 11.6575L21.6342 11.7394L21.0703 10.599C20.9393 10.3339 20.6618 10.1737 20.3666 10.1927L18.831 10.2917L15.4648 8.34829C15.5865 7.36318 15.4445 6.36885 15.0463 5.44331C14.5657 4.32617 13.7535 3.41348 12.6977 2.80386C11.5775 2.15713 10.2676 1.91753 8.99443 2.12363C8.29858 2.01089 7.57563 2.02808 6.86182 2.19043C6.69316 2.15205 6.52163 2.12124 6.34761 2.09849V0.732422C6.34761 0.32793 6.01968 0 5.61519 0C5.21069 0 4.88276 0.32793 4.88276 0.732422V2.09854C2.1314 2.45854 0 4.81797 0 7.66602C0 8.88521 0.384375 10.0449 1.11152 11.0197C1.71396 11.8274 2.50405 12.4475 3.41797 12.8347V23.291C3.41797 23.5359 3.54033 23.7646 3.74414 23.9004L5.20898 24.877C5.33335 24.9599 5.47461 25 5.61484 25C5.82568 25 6.03398 24.9092 6.17793 24.7365L8.61934 21.8068C8.82695 21.5576 8.846 21.2015 8.66611 20.9316L7.96035 19.873L8.66606 18.8145C8.83008 18.5685 8.83008 18.2479 8.66606 18.0019L7.8125 16.7216V13.2744C8.13765 13.2919 8.46289 13.2814 8.78672 13.2416L14.0149 22.2971C14.1374 22.5092 14.3577 22.646 14.602 22.6618L16.3589 22.7751C16.375 22.7762 16.3908 22.7767 16.4066 22.7767C16.7604 22.7767 17.0668 22.5221 17.1279 22.169L17.7773 18.4111C17.8326 18.0915 17.671 17.7736 17.3802 17.6298L16.2398 17.066L16.3217 15.7963C16.3407 15.5013 16.1804 15.2237 15.9154 15.0926L14.5361 14.4106L13.2432 12.1712C13.2511 12.1653 13.2593 12.1597 13.2672 12.1538L22.3232 17.3823C22.4362 17.4476 22.5627 17.4804 22.6894 17.4804C22.8003 17.4804 22.9116 17.4552 23.014 17.4045L24.5921 16.6242C24.9276 16.4583 25.0841 16.0661 24.9548 15.7147ZM6.47065 20.2793L7.1439 21.2891L5.47393 23.2931L4.88281 22.899V12.3246C4.88281 12.0047 4.67515 11.7217 4.36992 11.6258C2.63232 11.08 1.46484 9.48862 1.46484 7.66602C1.46484 5.62749 2.94258 3.92876 4.88281 3.58164V4.98047H4.63867C4.23418 4.98047 3.90625 5.3084 3.90625 5.71289C3.90625 6.11738 4.23418 6.44531 4.63867 6.44531H6.5918C6.99629 6.44531 7.32422 6.11738 7.32422 5.71289C7.32422 5.3084 6.99629 4.98047 6.5918 4.98047H6.34766V3.58164C8.28789 3.92871 9.76562 5.62749 9.76562 7.66602C9.76562 9.48862 8.59814 11.08 6.86055 11.6258C6.55532 11.7217 6.34766 12.0046 6.34766 12.3246V16.9434C6.34766 17.0879 6.39043 17.2293 6.47065 17.3496L7.17637 18.4082L6.47065 19.4668C6.30664 19.7128 6.30664 20.0333 6.47065 20.2793ZM13.3783 15.3351C13.4505 15.4603 13.5584 15.5613 13.6879 15.6254L14.8284 16.1893L14.7465 17.4588C14.7274 17.7539 14.8877 18.0315 15.1527 18.1625L16.2406 18.7005L15.7964 21.2709L15.0874 21.2252L9.80029 12.0675C9.71958 11.9277 9.5978 11.8227 9.45688 11.7617C9.69663 11.5361 9.91841 11.2886 10.1189 11.0197C10.8461 10.0449 11.2305 8.88521 11.2305 7.66602C11.2305 6.19375 10.6606 4.85229 9.73032 3.8498C10.5381 4.19404 11.2383 4.79253 11.6997 5.59165C12.611 7.17007 12.3956 9.13193 11.1637 10.4735C10.9473 10.7092 10.9089 11.058 11.0689 11.3351L13.3783 15.3351ZM22.7161 15.9176L13.5583 10.6304C13.3529 10.5118 13.1082 10.5025 12.8993 10.5936C13.3192 9.90698 13.5863 9.13603 13.6825 8.31934C13.8226 7.13076 13.5848 5.95347 12.9963 4.91006C13.8667 5.88594 14.2391 7.23525 13.942 8.56826C13.8724 8.88057 14.0136 9.20186 14.2907 9.36182L18.2907 11.6712C18.4159 11.7435 18.5598 11.7774 18.7041 11.7678L19.9737 11.6859L20.5375 12.8264C20.6686 13.0914 20.9458 13.2519 21.2413 13.2326L22.4523 13.1545L23.3529 15.6027L22.7161 15.9176Z" fill="#3072C4"/>
</svg>
