<svg width="14" height="14" viewBox="0 0 14 14" fill="none" xmlns="http://www.w3.org/2000/svg">
<g clip-path="url(#clip0)">
<path d="M9.33333 9.91667H4.66667V9.33333H9.33333V9.91667ZM14 2.91667V10.5H11.6387C11.403 11.9134 9.60517 14 7.8855 14H2.33333V10.5H0V2.91667H2.33333V0H11.6667V2.91667H14ZM3.5 2.91667H10.5V1.16667H3.5V2.91667ZM10.5 8.16667H3.5V12.8333H7.40308C9.42667 12.8333 8.56975 10.878 8.56975 10.878C8.56975 10.878 10.5 11.8078 10.5 9.71133V8.16667ZM12.8333 4.08333H1.16667V9.33333H2.33333V7H11.6667V9.33333H12.8333V4.08333ZM7.58333 10.5H4.66667V11.0833H7.58333V10.5ZM11.9583 4.66667C11.7973 4.66667 11.6667 4.79733 11.6667 4.95833C11.6667 5.11933 11.7973 5.25 11.9583 5.25C12.1193 5.25 12.25 5.11933 12.25 4.95833C12.25 4.79733 12.1193 4.66667 11.9583 4.66667Z" fill="#808080"/>
</g>
<defs>
<clipPath id="clip0">
<rect width="14" height="14" fill="white"/>
</clipPath>
</defs>
</svg>
