<svg width="11" height="12" viewBox="0 0 11 12" fill="none" xmlns="http://www.w3.org/2000/svg">
<path d="M5.6083 0.754395C2.89836 0.754395 0.70105 3.11895 0.70105 6.03516C0.70105 8.95136 2.89836 11.3159 5.6083 11.3159C8.31824 11.3159 10.5155 8.95136 10.5155 6.03516C10.5155 3.11895 8.31824 0.754395 5.6083 0.754395ZM5.6083 10.4201C3.35841 10.4201 1.53353 8.45629 1.53353 6.03516C1.53353 3.61402 3.35841 1.65024 5.6083 1.65024C7.85818 1.65024 9.68307 3.61402 9.68307 6.03516C9.68307 8.45629 7.85818 10.4201 5.6083 10.4201Z" fill="#666666"/>
<path d="M7.52188 7.5275L5.95988 6.31222V3.39484C5.95988 3.34297 5.92045 3.30054 5.87225 3.30054H5.34538C5.29718 3.30054 5.25775 3.34297 5.25775 3.39484V6.64109C5.25775 6.67174 5.2709 6.70003 5.2939 6.71771L7.10564 8.13927C7.14507 8.16992 7.19984 8.16049 7.22832 8.11923L7.54159 7.65952C7.57007 7.61591 7.56131 7.55697 7.52188 7.5275Z" fill="#666666"/>
</svg>
