<svg width="60" height="60" viewBox="0 0 60 60" fill="none" xmlns="http://www.w3.org/2000/svg">
<path d="M30 0C13.4573 0 0 13.4573 0 30C0 46.5427 13.4573 60 30 60C46.5427 60 60 46.5427 60 30C60 13.4573 46.5427 0 30 0Z" fill="#F44336"/>
<path d="M41.0473 37.5127C42.0247 38.4905 42.0247 40.0703 41.0473 41.0481C40.5598 41.5356 39.9199 41.7805 39.2794 41.7805C38.6395 41.7805 37.9995 41.5356 37.512 41.0481L29.9997 33.5352L22.4873 41.0481C21.9998 41.5356 21.3598 41.7805 20.7199 41.7805C20.0795 41.7805 19.4395 41.5356 18.952 41.0481C17.9747 40.0703 17.9747 38.4905 18.952 37.5127L26.4648 30.0004L18.952 22.488C17.9747 21.5102 17.9747 19.9305 18.952 18.9527C19.9298 17.9754 21.5095 17.9754 22.4873 18.9527L29.9997 26.4655L37.512 18.9527C38.4898 17.9754 40.0695 17.9754 41.0473 18.9527C42.0247 19.9305 42.0247 21.5102 41.0473 22.488L33.5345 30.0004L41.0473 37.5127Z" fill="#FAFAFA"/>
</svg>
