<svg width="60" height="60" viewBox="0 0 60 60" fill="none" xmlns="http://www.w3.org/2000/svg">
<g clip-path="url(#clip0)">
<path d="M35.9272 39.6388C34.5123 41.0565 32.6272 41.8365 30.6245 41.8365C28.6223 41.8365 26.7372 41.0565 25.3223 39.6388L14.6973 29.0142C13.28 27.5988 12.5 25.7142 12.5 23.7115C12.5 21.7088 13.28 19.8243 14.6973 18.4093C16.1122 16.9916 17.9973 16.2116 19.9999 16.2116C22.0022 16.2116 23.8872 16.9916 25.3022 18.4093L30.6245 23.7289L45.3172 9.03671C40.5172 4.94434 34.3022 2.46191 27.4999 2.46191C12.3123 2.46191 0 14.7743 0 29.9613C0 45.1489 12.3123 57.4612 27.4999 57.4612C42.6869 57.4612 54.9993 45.1489 54.9993 29.9613C54.9993 27.1191 54.5672 24.379 53.767 21.799L35.9272 39.6388Z" fill="#4CAF50"/>
<path d="M30.6253 36.8362C29.9854 36.8362 29.3454 36.5913 28.8579 36.1038L18.2333 25.4787C17.2556 24.5014 17.2556 22.9212 18.2333 21.9439C19.2106 20.9661 20.7904 20.9661 21.7681 21.9439L30.6253 30.8011L55.7329 5.69392C56.7103 4.71661 58.29 4.71661 59.2677 5.69392C60.2451 6.6717 60.2451 8.25142 59.2677 9.2292L32.3927 36.1038C31.9057 36.5913 31.2653 36.8362 30.6253 36.8362Z" fill="#4CAF50"/>
</g>
<defs>
<clipPath id="clip0">
<rect width="60" height="60" fill="white"/>
</clipPath>
</defs>
</svg>
