<svg width="93" height="85" viewBox="0 0 93 85" fill="none" xmlns="http://www.w3.org/2000/svg">
<path d="M90.7481 59.22L62.6059 9.20827C59.41 3.52852 53.3708 0 46.8449 0C40.3192 0 34.28 3.52852 31.0839 9.20827L2.94185 59.22C1.51939 61.748 0.767578 64.6163 0.767578 67.5156C0.767578 76.855 8.37843 84.4531 17.7336 84.4531H75.9562C85.3113 84.4531 92.9222 76.855 92.9222 67.5156C92.9222 64.6163 92.1704 61.748 90.7481 59.22ZM75.9562 79.0625H17.7336C11.356 79.0625 6.16726 73.8827 6.16726 67.5156C6.16726 65.539 6.67987 63.5833 7.64948 61.8601L35.7916 11.8484C38.033 7.8651 42.2685 5.39062 46.8449 5.39062C51.4215 5.39062 55.6568 7.8651 57.898 11.8484L86.0401 61.8601C87.0099 63.5833 87.5223 65.539 87.5223 67.5156C87.5225 73.8827 82.334 79.0625 75.9562 79.0625Z" fill="#FF2727"/>
<path d="M75.9562 79.0625H17.7336C11.356 79.0625 6.16726 73.8827 6.16726 67.5156C6.16726 65.539 6.67987 63.5833 7.64948 61.8601L35.7916 11.8484C38.033 7.8651 42.2685 5.39062 46.8449 5.39062C51.4215 5.39062 55.6568 7.8651 57.898 11.8484L86.0401 61.8601C87.0099 63.5833 87.5223 65.539 87.5223 67.5156C87.5225 73.8827 82.334 79.0625 75.9562 79.0625Z" fill="#FF2727"/>
<path d="M46.8446 12.5776C42.3786 12.5776 38.7451 16.205 38.7451 20.6636V44.0229C38.7451 48.4815 42.3786 52.1089 46.8446 52.1089C51.3107 52.1089 54.9442 48.4815 54.9442 44.0229V20.6636C54.9442 16.205 51.3107 12.5776 46.8446 12.5776ZM49.5445 44.0229C49.5445 45.5091 48.3333 46.7183 46.8446 46.7183C45.356 46.7183 44.1448 45.5091 44.1448 44.0229V20.6636C44.1448 19.1774 45.356 17.9683 46.8446 17.9683C48.3333 17.9683 49.5445 19.1774 49.5445 20.6636V44.0229Z" fill="white"/>
<path d="M46.8446 57.5C42.3786 57.5 38.7451 61.1274 38.7451 65.5859C38.7451 70.0445 42.3786 73.6719 46.8446 73.6719C51.3107 73.6719 54.9442 70.0445 54.9442 65.5859C54.9442 61.1274 51.3107 57.5 46.8446 57.5ZM46.8446 68.2812C45.356 68.2812 44.1448 67.0721 44.1448 65.5859C44.1448 64.0997 45.356 62.8906 46.8446 62.8906C48.3333 62.8906 49.5445 64.0997 49.5445 65.5859C49.5445 67.0721 48.3333 68.2812 46.8446 68.2812Z" fill="white"/>
</svg>
