<svg width="7" height="11" viewBox="0 0 7 11" fill="none" xmlns="http://www.w3.org/2000/svg">
<path d="M6.5685 9.28449C6.5685 9.52735 6.53278 9.73092 6.46136 9.89521C6.38993 10.0595 6.28278 10.1845 6.13993 10.2702C5.99707 10.3631 5.86493 10.4345 5.7435 10.4845C5.62207 10.5345 5.51136 10.5631 5.41136 10.5702H5.28278L0.139928 5.42735L5.28278 0.284495H5.41136C5.65421 0.305923 5.85778 0.37378 6.02207 0.488066C6.1935 0.602352 6.32564 0.755923 6.4185 0.94878C6.4685 1.03449 6.50778 1.13092 6.53636 1.23807C6.55778 1.33807 6.5685 1.44878 6.5685 1.57021L2.71136 5.42735L6.5685 9.28449Z" fill="#3072C4"/>
</svg>
