<svg width="13" height="12" viewBox="0 0 13 12" fill="none" xmlns="http://www.w3.org/2000/svg">
<path d="M11.3792 8.18318L9.71225 7.98946C9.51625 7.96603 9.31757 7.98811 9.13116 8.05406C8.94475 8.12001 8.77544 8.22811 8.63596 8.37023L7.42841 9.59937C5.56537 8.63491 4.05107 7.09352 3.10356 5.19716L4.31767 3.96133C4.59987 3.67408 4.73768 3.27327 4.69174 2.86578L4.50142 1.18239C4.46422 0.856513 4.31058 0.555947 4.06975 0.337914C3.82893 0.119882 3.51774 -0.000388955 3.19544 9.45032e-07H2.06008C1.31849 9.45032e-07 0.701589 0.627935 0.747528 1.38279C1.09535 7.08764 5.57772 11.6435 11.1757 11.9975C11.9173 12.0443 12.5342 11.4164 12.5342 10.6615V9.50585C12.5408 8.83116 12.042 8.26334 11.3792 8.18318Z" fill="#FF2727"/>
</svg>
