<svg width="13" height="20" viewBox="0 0 13 20" fill="none" xmlns="http://www.w3.org/2000/svg">
<path d="M6.91159 0.411133C3.63156 0.411133 0.973816 3.08593 0.973816 6.39913C0.973816 12.1279 6.91159 19.5991 6.91159 19.5991C6.91159 19.5991 12.8494 12.1267 12.8494 6.39913C12.8494 3.08713 10.1916 0.411133 6.91159 0.411133ZM6.91159 9.71233C6.0612 9.71233 5.24564 9.37097 4.64432 8.76335C4.04301 8.15574 3.70519 7.33163 3.70519 6.47233C3.70519 5.61303 4.04301 4.78892 4.64432 4.1813C5.24564 3.57369 6.0612 3.23233 6.91159 3.23233C7.76198 3.23233 8.57754 3.57369 9.17886 4.1813C9.78017 4.78892 10.118 5.61303 10.118 6.47233C10.118 7.33163 9.78017 8.15574 9.17886 8.76335C8.57754 9.37097 7.76198 9.71233 6.91159 9.71233Z" fill="#FF2727"/>
</svg>
