<svg width="20" height="20" viewBox="0 0 20 20" fill="none" xmlns="http://www.w3.org/2000/svg">
<g clip-path="url(#clip0)">
<path d="M13.3333 14.1667H6.66667V13.3333H13.3333V14.1667ZM20 4.16667V15H16.6267C16.29 17.0192 13.7217 20 11.265 20H3.33333V15H0V4.16667H3.33333V0H16.6667V4.16667H20ZM5 4.16667H15V1.66667H5V4.16667ZM15 11.6667H5V18.3333H10.5758C13.4667 18.3333 12.2425 15.54 12.2425 15.54C12.2425 15.54 15 16.8683 15 13.8733V11.6667ZM18.3333 5.83333H1.66667V13.3333H3.33333V10H16.6667V13.3333H18.3333V5.83333ZM10.8333 15H6.66667V15.8333H10.8333V15ZM17.0833 6.66667C16.8533 6.66667 16.6667 6.85333 16.6667 7.08333C16.6667 7.31333 16.8533 7.5 17.0833 7.5C17.3133 7.5 17.5 7.31333 17.5 7.08333C17.5 6.85333 17.3133 6.66667 17.0833 6.66667Z" fill="white"/>
</g>
<defs>
<clipPath id="clip0">
<rect width="20" height="20" fill="white"/>
</clipPath>
</defs>
</svg>
