<svg width="15" height="15" viewBox="0 0 15 15" fill="none" xmlns="http://www.w3.org/2000/svg">
<g clip-path="url(#clip0)">
<path d="M9.76894 9.92546H5.09443V9.34212H9.76894V9.92546ZM14.4435 2.92546V10.5088H12.0781C11.8421 11.9222 10.0412 14.0088 8.31867 14.0088H2.75718V10.5088H0.419922V2.92546H2.75718V0.00878906H12.1062V2.92546H14.4435ZM3.9258 2.92546H10.9376V1.17546H3.9258V2.92546ZM10.9376 8.17546H3.9258V12.8421H7.83545C9.86243 12.8421 9.00407 10.8868 9.00407 10.8868C9.00407 10.8868 10.9376 11.8166 10.9376 9.72012V8.17546ZM13.2748 4.09212H1.58855V9.34212H2.75718V7.00879H12.1062V9.34212H13.2748V4.09212ZM8.016 10.5088H5.09443V11.0921H8.016V10.5088ZM12.3984 4.67546C12.2371 4.67546 12.1062 4.80612 12.1062 4.96712C12.1062 5.12812 12.2371 5.25879 12.3984 5.25879C12.5596 5.25879 12.6905 5.12812 12.6905 4.96712C12.6905 4.80612 12.5596 4.67546 12.3984 4.67546Z" fill="#808080"/>
</g>
<defs>
<clipPath id="clip0">
<rect width="14.0235" height="14" fill="white" transform="translate(0.419922 0.00878906)"/>
</clipPath>
</defs>
</svg>
