<svg width="35" height="35" viewBox="0 0 35 35" fill="none" xmlns="http://www.w3.org/2000/svg">
<path d="M24.2862 10.7132C24.1846 10.6115 24.0639 10.5309 23.9312 10.4758C23.7984 10.4208 23.6561 10.3925 23.5123 10.3925C23.3686 10.3925 23.2263 10.4208 23.0935 10.4758C22.9607 10.5309 22.8401 10.6115 22.7385 10.7132L17.4994 15.9578L12.2549 10.7132C12.0497 10.508 11.7713 10.3927 11.4811 10.3927C11.1908 10.3927 10.9125 10.508 10.7072 10.7132C10.502 10.9185 10.3867 11.1968 10.3867 11.4871C10.3867 11.7773 10.502 12.0557 10.7072 12.2609L15.9518 17.5L10.7072 22.7445C10.502 22.9497 10.3867 23.2281 10.3867 23.5183C10.3867 23.8086 10.502 24.0869 10.7072 24.2921C10.9125 24.4974 11.1908 24.6127 11.4811 24.6127C11.7713 24.6127 12.0497 24.4974 12.2549 24.2921L17.4994 19.0476L22.744 24.2921C22.9492 24.4974 23.2276 24.6127 23.5178 24.6127C23.808 24.6127 24.0864 24.4974 24.2916 24.2921C24.4969 24.0869 24.6122 23.8086 24.6122 23.5183C24.6122 23.2281 24.4969 22.9497 24.2916 22.7445L19.0471 17.5L24.2916 12.2554C24.4946 12.0498 24.608 11.7722 24.6069 11.4832C24.6059 11.1943 24.4906 10.9174 24.2862 10.7132Z" fill="#FF2727"/>
<path d="M17.5 1.64062C14.3633 1.64063 11.2971 2.57076 8.68901 4.31341C6.08095 6.05606 4.04821 8.53296 2.84786 11.4309C1.6475 14.3288 1.33343 17.5176 1.94537 20.594C2.5573 23.6704 4.06776 26.4963 6.28574 28.7143C8.50371 30.9322 11.3296 32.4427 14.406 33.0546C17.4824 33.6666 20.6712 33.3525 23.5691 32.1522C26.4671 30.9518 28.9439 28.9191 30.6866 26.311C32.4292 23.7029 33.3594 20.6367 33.3594 17.5C33.3594 13.2938 31.6885 9.25994 28.7143 6.28573C25.7401 3.31152 21.7062 1.64063 17.5 1.64062ZM17.5 31.1719C14.796 31.1719 12.1526 30.37 9.90432 28.8678C7.65599 27.3655 5.90363 25.2302 4.86884 22.732C3.83405 20.2338 3.5633 17.4848 4.09083 14.8328C4.61837 12.1807 5.92049 9.74457 7.83253 7.83253C9.74458 5.92048 12.1807 4.61836 14.8328 4.09083C17.4848 3.56329 20.2338 3.83404 22.732 4.86883C25.2302 5.90363 27.3655 7.65599 28.8678 9.90431C30.37 12.1526 31.1719 14.796 31.1719 17.5C31.1719 19.2954 30.8183 21.0733 30.1312 22.732C29.4441 24.3908 28.437 25.8979 27.1675 27.1675C25.8979 28.437 24.3908 29.4441 22.732 30.1312C21.0733 30.8182 19.2954 31.1719 17.5 31.1719Z" fill="#FF2727"/>
</svg>
