<svg width="16" height="16" viewBox="0 0 16 16" fill="none" xmlns="http://www.w3.org/2000/svg">
<path d="M7.97338 0C4.50672 0 1.54672 2.24 0.453384 5.33333H15.5467C14.4267 2.24 11.4667 0 7.97338 0Z" fill="#F9F9F9"/>
<path d="M7.97338 16C11.4667 16 14.4267 13.76 15.5201 10.6666H0.453384C1.54672 13.7866 4.50672 16 7.97338 16Z" fill="#ED4C5C"/>
<path d="M0.453333 5.33337C0.16 6.16004 0 7.06671 0 8.00004C0 8.93337 0.16 9.84004 0.453333 10.6667H15.5467C15.84 9.84004 16 8.93337 16 8.00004C16 7.06671 15.84 6.16004 15.5467 5.33337H0.453333Z" fill="#428BC1"/>
</svg>
