<svg width="16" height="16" viewBox="0 0 16 16" fill="none" xmlns="http://www.w3.org/2000/svg">
<path d="M13.6562 0H2.34375C1.05151 0 0 1.05151 0 2.34375V13.6562C0 14.9485 1.05151 16 2.34375 16H13.6562C14.9485 16 16 14.9485 16 13.6562V2.34375C16 1.05151 14.9485 0 13.6562 0ZM5.65625 12.6875H3.78125V6.125H5.65625V12.6875ZM5.65625 5.1875H3.78125V3.3125H5.65625V5.1875ZM12.2188 12.6875H10.3438V8.9375C10.3438 8.42065 9.9231 8 9.40625 8C8.8894 8 8.46875 8.42065 8.46875 8.9375V12.6875H6.59375V6.125H8.46875V6.47839C8.95996 6.32568 9.27905 6.125 9.875 6.125C11.1466 6.12634 12.2188 7.26709 12.2188 8.61523V12.6875Z" fill="white"/>
</svg>
