<svg width="33" height="32" viewBox="0 0 33 32" fill="none" xmlns="http://www.w3.org/2000/svg">
<path fill-rule="evenodd" clip-rule="evenodd" d="M16.3955 7.4668C14.0848 7.4668 13.7949 7.47693 12.8873 7.51835C11.9816 7.55995 11.3633 7.70378 10.8224 7.9148C10.2628 8.13276 9.78809 8.42432 9.31519 8.89881C8.84193 9.37313 8.55123 9.84922 8.33321 10.4103C8.12229 10.9531 7.97871 11.5733 7.93794 12.4814C7.89735 13.3917 7.88672 13.6827 7.88672 16.0002C7.88672 18.3178 7.897 18.6077 7.93812 19.5179C7.97978 20.4264 8.12317 21.0465 8.33339 21.5891C8.55088 22.1503 8.84157 22.6264 9.31466 23.1007C9.78738 23.5754 10.2621 23.8677 10.8213 24.0856C11.3626 24.2967 11.981 24.4405 12.8866 24.4821C13.7942 24.5235 14.084 24.5336 16.3944 24.5336C18.7053 24.5336 18.9944 24.5235 19.9019 24.4821C20.8076 24.4405 21.4266 24.2967 21.9679 24.0856C22.5273 23.8677 23.0013 23.5754 23.474 23.1007C23.9473 22.6264 24.238 22.1503 24.456 21.5893C24.6652 21.0465 24.8087 20.4262 24.8513 19.5181C24.892 18.6079 24.9027 18.3178 24.9027 16.0002C24.9027 13.6827 24.892 13.3918 24.8513 12.4816C24.8087 11.5732 24.6652 10.9531 24.456 10.4105C24.238 9.84922 23.9473 9.37313 23.474 8.89881C23.0008 8.42414 22.5275 8.13258 21.9674 7.9148C21.425 7.70378 20.8064 7.55995 19.9006 7.51835C18.9931 7.47693 18.7042 7.4668 16.3928 7.4668L16.3955 7.4668Z" fill="#F8F8F8"/>
<path fill-rule="evenodd" clip-rule="evenodd" d="M15.6328 9.00482C15.8593 9.00446 16.1121 9.00482 16.396 9.00482C18.6677 9.00482 18.9369 9.013 19.834 9.05389C20.6635 9.09193 21.1138 9.23095 21.4137 9.34776C21.8107 9.50242 22.0938 9.68731 22.3914 9.98598C22.6892 10.2847 22.8735 10.5691 23.0281 10.9673C23.1445 11.2678 23.2833 11.7193 23.3211 12.5513C23.3618 13.4509 23.3707 13.7211 23.3707 15.9985C23.3707 18.2758 23.3618 18.5461 23.3211 19.4456C23.2831 20.2776 23.1445 20.7292 23.0281 21.0297C22.8739 21.4279 22.6892 21.7114 22.3914 22.0099C22.0936 22.3086 21.8109 22.4935 21.4137 22.6482C21.1141 22.7655 20.6635 22.9042 19.834 22.9422C18.9371 22.9831 18.6677 22.992 16.396 22.992C14.1242 22.992 13.855 22.9831 12.9581 22.9422C12.1285 22.9038 11.6783 22.7648 11.3782 22.648C10.9812 22.4933 10.6976 22.3084 10.3998 22.0098C10.102 21.7111 9.91768 21.4273 9.76312 21.0289C9.64667 20.7285 9.50788 20.2769 9.47012 19.4449C9.42936 18.5454 9.4212 18.2751 9.4212 15.9964C9.4212 13.7176 9.42936 13.4488 9.47012 12.5492C9.50806 11.7172 9.64667 11.2656 9.76312 10.9648C9.91733 10.5666 10.102 10.2822 10.3998 9.9835C10.6976 9.68483 10.9812 9.49994 11.3782 9.34491C11.6781 9.22758 12.1285 9.08891 12.9581 9.05069C13.7429 9.01513 14.0471 9.00446 15.6328 9.00269V9.00482Z" fill="#6E6E6E"/>
<path fill-rule="evenodd" clip-rule="evenodd" d="M20.9369 10.4215C20.3733 10.4215 19.916 10.8796 19.916 11.4452C19.916 12.0105 20.3733 12.4692 20.9369 12.4692C21.5006 12.4692 21.9579 12.0105 21.9579 11.4452C21.9579 10.8798 21.5006 10.4211 20.9369 10.4211V10.4215Z" fill="#6E6E6E"/>
<path fill-rule="evenodd" clip-rule="evenodd" d="M16.396 11.6179C13.9831 11.6179 12.0267 13.5801 12.0267 16.0002C12.0267 18.4203 13.9831 20.3816 16.396 20.3816C18.8089 20.3816 20.7645 18.4203 20.7645 16.0002C20.7645 13.5801 18.8087 11.6179 16.3958 11.6179L16.396 11.6179Z" fill="#F8F8F8"/>
<path fill-rule="evenodd" clip-rule="evenodd" d="M16.396 13.1555C17.9622 13.1555 19.232 14.429 19.232 16C19.232 17.5709 17.9622 18.8445 16.396 18.8445C14.8296 18.8445 13.5599 17.5709 13.5599 16C13.5599 14.429 14.8296 13.1555 16.396 13.1555V13.1555Z" fill="#6F6F6F"/>
</svg>
