<svg width="33" height="32" viewBox="0 0 33 32" fill="none" xmlns="http://www.w3.org/2000/svg">
<path fill-rule="evenodd" clip-rule="evenodd" d="M11.9479 13.252H8.33276V24.1464H11.9479V13.252Z" fill="#F8F8F8"/>
<path fill-rule="evenodd" clip-rule="evenodd" d="M12.1856 9.8818C12.1622 8.8136 11.4005 8 10.1638 8C8.92709 8 8.11856 8.8136 8.11856 9.8818C8.11856 10.9279 8.90319 11.7649 10.1169 11.7649H10.14C11.4005 11.7649 12.1856 10.9279 12.1856 9.8818Z" fill="#F8F8F8"/>
<path fill-rule="evenodd" clip-rule="evenodd" d="M24.9855 17.8998C24.9855 14.5535 23.202 12.9961 20.8231 12.9961C18.9036 12.9961 18.0443 14.0535 17.5645 14.7953V13.2522H13.9489C13.9965 14.2745 13.9489 24.1467 13.9489 24.1467H17.5645V18.0623C17.5645 17.7367 17.5879 17.4119 17.6835 17.1788C17.9448 16.5283 18.5397 15.8548 19.5385 15.8548C20.8472 15.8548 21.3703 16.8538 21.3703 18.3178V24.1464H24.9853L24.9855 17.8998Z" fill="#F8F8F8"/>
</svg>
