<svg width="33" height="32" viewBox="0 0 33 32" fill="none" xmlns="http://www.w3.org/2000/svg">
<path fill-rule="evenodd" clip-rule="evenodd" d="M24.66 12.049C24.4644 11.295 23.8878 10.7013 23.1556 10.4998C21.8287 10.1335 16.5077 10.1335 16.5077 10.1335C16.5077 10.1335 11.1866 10.1335 9.85965 10.4998C9.12748 10.7013 8.55088 11.295 8.35519 12.049C7.99969 13.4156 7.99969 16.2669 7.99969 16.2669C7.99969 16.2669 7.99969 19.1181 8.35519 20.4847C8.55088 21.2387 9.12748 21.8325 9.85965 22.0341C11.1866 22.4002 16.5077 22.4002 16.5077 22.4002C16.5077 22.4002 21.8287 22.4002 23.1556 22.0341C23.8878 21.8325 24.4644 21.2387 24.66 20.4847C25.0156 19.1181 25.0156 16.2669 25.0156 16.2669C25.0156 16.2669 25.0156 13.4156 24.66 12.049Z" fill="#F8F8F8"/>
<path fill-rule="evenodd" clip-rule="evenodd" d="M12.9186 19.2V13.8667L17.1726 16.5335L12.9186 19.2Z" fill="#6E6E6E"/>
</svg>
