<svg width="360" height="211" viewBox="0 0 360 211" fill="none" xmlns="http://www.w3.org/2000/svg">
<g opacity="0.85">
<path d="M47.997 17.6445L51.4939 27.0948L60.9442 30.5917L51.4939 34.0886L47.997 43.5389L44.5001 34.0886L35.0498 30.5917L44.5001 27.0948L47.997 17.6445Z" fill="#C4C4C4"/>
<path d="M294.283 65.1176L297.78 74.5678L307.23 78.0647L297.78 81.5617L294.283 91.0119L290.786 81.5617L281.336 78.0647L290.786 74.5678L294.283 65.1176Z" fill="#C4C4C4"/>
<path d="M79.2855 30.5917L80.4511 33.7418L83.6012 34.9075L80.4511 36.0731L79.2855 39.2232L78.1198 36.0731L74.9697 34.9075L78.1198 33.7418L79.2855 30.5917Z" fill="#C4C4C4"/>
<path d="M30.7337 169.774L31.8993 172.924L35.0494 174.09L31.8993 175.255L30.7337 178.406L29.5681 175.255L26.418 174.09L29.5681 172.924L30.7337 169.774Z" fill="#C4C4C4"/>
<path d="M298.599 151.432L299.765 154.582L302.915 155.748L299.765 156.913L298.599 160.064L297.433 156.913L294.283 155.748L297.433 154.582L298.599 151.432Z" fill="#C4C4C4"/>
<path d="M13.7328 65.9346L11.628 70.5122L13.7328 75.0897L9.15527 72.9849L4.57775 75.0897L6.68258 70.5122L4.57775 65.9346L9.15527 68.0395L13.7328 65.9346Z" fill="#C4C4C4"/>
<path d="M279.44 120.96L277.335 125.538L279.44 130.115L274.862 128.01L270.285 130.115L272.39 125.538L270.285 120.96L274.862 123.065L279.44 120.96Z" fill="#C4C4C4"/>
<path d="M228.551 209.155H2.73047" stroke="#BDBDBD" stroke-width="3" stroke-miterlimit="10"/>
<path d="M221.789 209.155H263.436" stroke="#BDBDBD" stroke-width="3" stroke-miterlimit="10"/>
<path d="M266.996 209.155H360" stroke="#BDBDBD" stroke-width="3" stroke-miterlimit="10"/>
<path d="M150.26 208.831C143.787 208.831 136.019 205.271 136.019 194.589C136.019 183.908 136.019 20.7734 136.019 14.9472C136.019 9.12095 138.932 2 148.966 2C159 2 222.333 2 231.073 2C239.812 2 244.343 6.31573 244.343 15.2709C244.343 24.226 244.343 184.34 244.343 193.726C244.343 203.113 240.999 208.723 231.073 208.723C221.146 208.723 150.26 208.831 150.26 208.831Z" stroke="#BDBDBD" stroke-width="3" stroke-miterlimit="10"/>
<path d="M233.878 31.0232H147.024V180.887H233.878V31.0232Z" fill="#ECECED" stroke="#BDBDBD" stroke-width="3" stroke-miterlimit="10"/>
<path d="M204.639 21.8522H177.666" stroke="#BDBDBD" stroke-width="3" stroke-miterlimit="10"/>
<path d="M170.545 24.0101C171.736 24.0101 172.702 23.044 172.702 21.8523C172.702 20.6605 171.736 19.6944 170.545 19.6944C169.353 19.6944 168.387 20.6605 168.387 21.8523C168.387 23.044 169.353 24.0101 170.545 24.0101Z" fill="#BDBDBD"/>
<path d="M189.092 203.184C193.561 203.184 197.184 199.561 197.184 195.092C197.184 190.623 193.561 187 189.092 187C184.623 187 181 190.623 181 195.092C181 199.561 184.623 203.184 189.092 203.184Z" fill="#D9DADA" stroke="#BDBDBD" stroke-width="3" stroke-miterlimit="10"/>
<path d="M59.5571 174.737C62.9536 174.737 65.7071 171.984 65.7071 168.587C65.7071 165.191 62.9536 162.437 59.5571 162.437C56.1606 162.437 53.4072 165.191 53.4072 168.587C53.4072 171.984 56.1606 174.737 59.5571 174.737Z" fill="#E0E0E0" stroke="#BDBDBD" stroke-width="3" stroke-miterlimit="10"/>
<path d="M316.309 122.517C319.706 122.517 322.459 119.763 322.459 116.367C322.459 112.97 319.706 110.217 316.309 110.217C312.913 110.217 310.159 112.97 310.159 116.367C310.159 119.763 312.913 122.517 316.309 122.517Z" fill="#E0E0E0" stroke="#BDBDBD" stroke-width="3" stroke-miterlimit="10"/>
<path d="M78.7625 138.053C78.7625 138.053 61.3917 138.053 53.4076 138.053C44.2366 138.053 36.792 129.961 36.792 119.388C36.792 110.756 36.792 88.6382 36.792 80.762C36.792 71.699 41.1077 64.2543 53.4076 64.2543C63.5495 64.2543 90.0913 64.2543 96.7806 64.2543C109.62 64.2543 111.67 72.9937 111.67 81.1936C111.67 88.5303 111.67 113.022 111.67 121.761C111.67 132.443 106.923 136.651 98.2911 136.651V156.395L78.7625 138.053Z" fill="#ECECED" stroke="#BDBDBD" stroke-width="3" stroke-miterlimit="10"/>
<path d="M49.6309 87.7751H96.025" stroke="#BDBDBD" stroke-width="3" stroke-miterlimit="10"/>
<path d="M49.6309 100.722H91.2777" stroke="#BDBDBD" stroke-width="3" stroke-miterlimit="10"/>
<path d="M49.6309 113.669H78.762" stroke="#BDBDBD" stroke-width="3" stroke-miterlimit="10"/>
</g>
<g clip-path="url(#clip0)">
<g filter="url(#filter0_d)">
<path d="M189.5 79.3585C204.071 79.3585 215.882 91.0534 215.882 105.481C215.882 117.77 207.314 128.075 195.769 130.862C193.898 133.213 191.809 135.692 189.5 138.302C187.19 135.692 185.101 133.211 183.23 130.862C171.685 128.075 163.117 117.77 163.117 105.481C163.117 91.0534 174.928 79.3585 189.5 79.3585Z" fill="#333333"/>
</g>
<path d="M189.5 79.3585C204.071 79.3585 215.882 91.0534 215.882 105.481C215.882 117.77 207.314 128.075 195.769 130.862C193.898 133.213 191.809 135.692 189.5 138.302C187.19 135.692 185.101 133.211 183.23 130.862C171.685 128.075 163.117 117.77 163.117 105.481C163.117 91.0534 174.928 79.3585 189.5 79.3585Z" fill="url(#paint0_linear)"/>
<path d="M189.5 123.566C199.587 123.566 207.765 115.469 207.765 105.481C207.765 95.4931 199.587 87.3962 189.5 87.3962C179.413 87.3962 171.235 95.4931 171.235 105.481C171.235 115.469 179.413 123.566 189.5 123.566Z" fill="white"/>
<path d="M188.882 92.2497C189.126 92.1264 189.406 92.105 189.66 92.1881L189.809 92.2497L200.632 97.7636C200.93 97.9149 201.129 98.1976 201.173 98.5178L201.184 98.6571V111.72C201.184 112.028 201.042 112.315 200.804 112.503L200.677 112.589L191.016 118.126C190.454 118.596 189.2 118.28 188.971 118.19L188.837 118.126L178.014 111.926C177.746 111.772 177.565 111.507 177.519 111.208L177.508 111.057V98.6571C177.508 98.3275 177.67 98.0234 177.937 97.8359L178.058 97.7636L188.882 92.2497ZM179.537 100.093V110.477L189.008 115.902V104.557L179.537 100.093ZM199.155 100.166L195.771 101.93V106.539C195.771 107.094 195.318 107.544 194.756 107.544C194.244 107.544 193.819 107.166 193.753 106.676L193.743 106.539L193.742 102.987L191.036 104.396V115.788L199.154 111.138V100.166H199.155ZM184.697 96.6396L180.969 98.5405L189.868 102.736L193.102 101.05L184.812 96.7106L184.699 96.6396H184.697ZM189.345 94.2725L186.889 95.5237L195.23 99.8909L195.275 99.9163L197.818 98.5901L189.345 94.2725Z" fill="#434343"/>
</g>
<defs>
<filter id="filter0_d" x="157.117" y="74.3585" width="64.7647" height="70.9434" filterUnits="userSpaceOnUse" color-interpolation-filters="sRGB">
<feFlood flood-opacity="0" result="BackgroundImageFix"/>
<feColorMatrix in="SourceAlpha" type="matrix" values="0 0 0 0 0 0 0 0 0 0 0 0 0 0 0 0 0 0 127 0"/>
<feOffset dy="1"/>
<feGaussianBlur stdDeviation="3"/>
<feColorMatrix type="matrix" values="0 0 0 0 0 0 0 0 0 0 0 0 0 0 0 0 0 0 0.200038 0"/>
<feBlend mode="normal" in2="BackgroundImageFix" result="effect1_dropShadow"/>
<feBlend mode="normal" in="SourceGraphic" in2="effect1_dropShadow" result="shape"/>
</filter>
<linearGradient id="paint0_linear" x1="189.5" y1="79.3585" x2="189.5" y2="138.302" gradientUnits="userSpaceOnUse">
<stop stop-color="#FFDD33"/>
<stop offset="1" stop-color="#FFCE1E"/>
</linearGradient>
<clipPath id="clip0">
<rect width="69" height="71" fill="white" transform="translate(155 74)"/>
</clipPath>
</defs>
</svg>
