<svg width="128" height="128" viewBox="0 0 128 128" fill="none" xmlns="http://www.w3.org/2000/svg">
<path d="M128 0H0V128H128V0Z" fill="white"/>
<path d="M9.48195 4.74072H4.74121V9.48146H9.48195V4.74072Z" fill="black"/>
<path d="M14.2222 4.74072H9.48145V9.48146H14.2222V4.74072Z" fill="black"/>
<path d="M18.9634 4.74072H14.2227V9.48146H18.9634V4.74072Z" fill="black"/>
<path d="M23.7036 4.74072H18.9629V9.48146H23.7036V4.74072Z" fill="black"/>
<path d="M28.4448 4.74072H23.7041V9.48146H28.4448V4.74072Z" fill="black"/>
<path d="M33.1851 4.74072H28.4443V9.48146H33.1851V4.74072Z" fill="black"/>
<path d="M37.9263 4.74072H33.1855V9.48146H37.9263V4.74072Z" fill="black"/>
<path d="M56.8892 4.74072H52.1484V9.48146H56.8892V4.74072Z" fill="black"/>
<path d="M71.1109 4.74072H66.3701V9.48146H71.1109V4.74072Z" fill="black"/>
<path d="M75.8521 4.74072H71.1113V9.48146H75.8521V4.74072Z" fill="black"/>
<path d="M80.5923 4.74072H75.8516V9.48146H80.5923V4.74072Z" fill="black"/>
<path d="M85.3335 4.74072H80.5928V9.48146H85.3335V4.74072Z" fill="black"/>
<path d="M94.815 4.74072H90.0742V9.48146H94.815V4.74072Z" fill="black"/>
<path d="M99.5552 4.74072H94.8145V9.48146H99.5552V4.74072Z" fill="black"/>
<path d="M104.296 4.74072H99.5557V9.48146H104.296V4.74072Z" fill="black"/>
<path d="M109.037 4.74072H104.296V9.48146H109.037V4.74072Z" fill="black"/>
<path d="M113.778 4.74072H109.037V9.48146H113.778V4.74072Z" fill="black"/>
<path d="M118.518 4.74072H113.777V9.48146H118.518V4.74072Z" fill="black"/>
<path d="M123.259 4.74072H118.519V9.48146H123.259V4.74072Z" fill="black"/>
<path d="M9.48195 9.48145H4.74121V14.2222H9.48195V9.48145Z" fill="black"/>
<path d="M37.9263 9.48145H33.1855V14.2222H37.9263V9.48145Z" fill="black"/>
<path d="M47.4077 9.48145H42.667V14.2222H47.4077V9.48145Z" fill="black"/>
<path d="M52.148 9.48145H47.4072V14.2222H52.148V9.48145Z" fill="black"/>
<path d="M56.8892 9.48145H52.1484V14.2222H56.8892V9.48145Z" fill="black"/>
<path d="M71.1109 9.48145H66.3701V14.2222H71.1109V9.48145Z" fill="black"/>
<path d="M75.8521 9.48145H71.1113V14.2222H75.8521V9.48145Z" fill="black"/>
<path d="M80.5923 9.48145H75.8516V14.2222H80.5923V9.48145Z" fill="black"/>
<path d="M94.815 9.48145H90.0742V14.2222H94.815V9.48145Z" fill="black"/>
<path d="M123.259 9.48145H118.519V14.2222H123.259V9.48145Z" fill="black"/>
<path d="M9.48195 14.2222H4.74121V18.9629H9.48195V14.2222Z" fill="black"/>
<path d="M18.9634 14.2222H14.2227V18.9629H18.9634V14.2222Z" fill="black"/>
<path d="M23.7036 14.2222H18.9629V18.9629H23.7036V14.2222Z" fill="black"/>
<path d="M28.4448 14.2222H23.7041V18.9629H28.4448V14.2222Z" fill="black"/>
<path d="M37.9263 14.2222H33.1855V18.9629H37.9263V14.2222Z" fill="black"/>
<path d="M47.4077 14.2222H42.667V18.9629H47.4077V14.2222Z" fill="black"/>
<path d="M75.8521 14.2222H71.1113V18.9629H75.8521V14.2222Z" fill="black"/>
<path d="M80.5923 14.2222H75.8516V18.9629H80.5923V14.2222Z" fill="black"/>
<path d="M94.815 14.2222H90.0742V18.9629H94.815V14.2222Z" fill="black"/>
<path d="M104.296 14.2222H99.5557V18.9629H104.296V14.2222Z" fill="black"/>
<path d="M109.037 14.2222H104.296V18.9629H109.037V14.2222Z" fill="black"/>
<path d="M113.778 14.2222H109.037V18.9629H113.778V14.2222Z" fill="black"/>
<path d="M123.259 14.2222H118.519V18.9629H123.259V14.2222Z" fill="black"/>
<path d="M9.48195 18.963H4.74121V23.7038H9.48195V18.963Z" fill="black"/>
<path d="M18.9634 18.963H14.2227V23.7038H18.9634V18.963Z" fill="black"/>
<path d="M23.7036 18.963H18.9629V23.7038H23.7036V18.963Z" fill="black"/>
<path d="M28.4448 18.963H23.7041V23.7038H28.4448V18.963Z" fill="black"/>
<path d="M37.9263 18.963H33.1855V23.7038H37.9263V18.963Z" fill="black"/>
<path d="M52.148 18.963H47.4072V23.7038H52.148V18.963Z" fill="black"/>
<path d="M66.3706 18.963H61.6299V23.7038H66.3706V18.963Z" fill="black"/>
<path d="M75.8521 18.963H71.1113V23.7038H75.8521V18.963Z" fill="black"/>
<path d="M94.815 18.963H90.0742V23.7038H94.815V18.963Z" fill="black"/>
<path d="M104.296 18.963H99.5557V23.7038H104.296V18.963Z" fill="black"/>
<path d="M109.037 18.963H104.296V23.7038H109.037V18.963Z" fill="black"/>
<path d="M113.778 18.963H109.037V23.7038H113.778V18.963Z" fill="black"/>
<path d="M123.259 18.963H118.519V23.7038H123.259V18.963Z" fill="black"/>
<path d="M9.48195 23.7037H4.74121V28.4445H9.48195V23.7037Z" fill="black"/>
<path d="M18.9634 23.7037H14.2227V28.4445H18.9634V23.7037Z" fill="black"/>
<path d="M23.7036 23.7037H18.9629V28.4445H23.7036V23.7037Z" fill="black"/>
<path d="M28.4448 23.7037H23.7041V28.4445H28.4448V23.7037Z" fill="black"/>
<path d="M37.9263 23.7037H33.1855V28.4445H37.9263V23.7037Z" fill="black"/>
<path d="M47.4077 23.7037H42.667V28.4445H47.4077V23.7037Z" fill="black"/>
<path d="M52.148 23.7037H47.4072V28.4445H52.148V23.7037Z" fill="black"/>
<path d="M56.8892 23.7037H52.1484V28.4445H56.8892V23.7037Z" fill="black"/>
<path d="M66.3706 23.7037H61.6299V28.4445H66.3706V23.7037Z" fill="black"/>
<path d="M71.1109 23.7037H66.3701V28.4445H71.1109V23.7037Z" fill="black"/>
<path d="M75.8521 23.7037H71.1113V28.4445H75.8521V23.7037Z" fill="black"/>
<path d="M80.5923 23.7037H75.8516V28.4445H80.5923V23.7037Z" fill="black"/>
<path d="M85.3335 23.7037H80.5928V28.4445H85.3335V23.7037Z" fill="black"/>
<path d="M94.815 23.7037H90.0742V28.4445H94.815V23.7037Z" fill="black"/>
<path d="M104.296 23.7037H99.5557V28.4445H104.296V23.7037Z" fill="black"/>
<path d="M109.037 23.7037H104.296V28.4445H109.037V23.7037Z" fill="black"/>
<path d="M113.778 23.7037H109.037V28.4445H113.778V23.7037Z" fill="black"/>
<path d="M123.259 23.7037H118.519V28.4445H123.259V23.7037Z" fill="black"/>
<path d="M9.48195 28.4445H4.74121V33.1852H9.48195V28.4445Z" fill="black"/>
<path d="M37.9263 28.4445H33.1855V33.1852H37.9263V28.4445Z" fill="black"/>
<path d="M47.4077 28.4445H42.667V33.1852H47.4077V28.4445Z" fill="black"/>
<path d="M56.8892 28.4445H52.1484V33.1852H56.8892V28.4445Z" fill="black"/>
<path d="M66.3706 28.4445H61.6299V33.1852H66.3706V28.4445Z" fill="black"/>
<path d="M75.8521 28.4445H71.1113V33.1852H75.8521V28.4445Z" fill="black"/>
<path d="M80.5923 28.4445H75.8516V33.1852H80.5923V28.4445Z" fill="black"/>
<path d="M94.815 28.4445H90.0742V33.1852H94.815V28.4445Z" fill="black"/>
<path d="M123.259 28.4445H118.519V33.1852H123.259V28.4445Z" fill="black"/>
<path d="M9.48195 33.1852H4.74121V37.9259H9.48195V33.1852Z" fill="black"/>
<path d="M14.2222 33.1852H9.48145V37.9259H14.2222V33.1852Z" fill="black"/>
<path d="M18.9634 33.1852H14.2227V37.9259H18.9634V33.1852Z" fill="black"/>
<path d="M23.7036 33.1852H18.9629V37.9259H23.7036V33.1852Z" fill="black"/>
<path d="M28.4448 33.1852H23.7041V37.9259H28.4448V33.1852Z" fill="black"/>
<path d="M33.1851 33.1852H28.4443V37.9259H33.1851V33.1852Z" fill="black"/>
<path d="M37.9263 33.1852H33.1855V37.9259H37.9263V33.1852Z" fill="black"/>
<path d="M47.4077 33.1852H42.667V37.9259H47.4077V33.1852Z" fill="black"/>
<path d="M56.8892 33.1852H52.1484V37.9259H56.8892V33.1852Z" fill="black"/>
<path d="M66.3706 33.1852H61.6299V37.9259H66.3706V33.1852Z" fill="black"/>
<path d="M75.8521 33.1852H71.1113V37.9259H75.8521V33.1852Z" fill="black"/>
<path d="M85.3335 33.1852H80.5928V37.9259H85.3335V33.1852Z" fill="black"/>
<path d="M94.815 33.1852H90.0742V37.9259H94.815V33.1852Z" fill="black"/>
<path d="M99.5552 33.1852H94.8145V37.9259H99.5552V33.1852Z" fill="black"/>
<path d="M104.296 33.1852H99.5557V37.9259H104.296V33.1852Z" fill="black"/>
<path d="M109.037 33.1852H104.296V37.9259H109.037V33.1852Z" fill="black"/>
<path d="M113.778 33.1852H109.037V37.9259H113.778V33.1852Z" fill="black"/>
<path d="M118.518 33.1852H113.777V37.9259H118.518V33.1852Z" fill="black"/>
<path d="M123.259 33.1852H118.519V37.9259H123.259V33.1852Z" fill="black"/>
<path d="M47.4077 37.9259H42.667V42.6666H47.4077V37.9259Z" fill="black"/>
<path d="M56.8892 37.9259H52.1484V42.6666H56.8892V37.9259Z" fill="black"/>
<path d="M61.6294 37.9259H56.8887V42.6666H61.6294V37.9259Z" fill="black"/>
<path d="M80.5923 37.9259H75.8516V42.6666H80.5923V37.9259Z" fill="black"/>
<path d="M9.48195 42.6666H4.74121V47.4074H9.48195V42.6666Z" fill="black"/>
<path d="M14.2222 42.6666H9.48145V47.4074H14.2222V42.6666Z" fill="black"/>
<path d="M23.7036 42.6666H18.9629V47.4074H23.7036V42.6666Z" fill="black"/>
<path d="M37.9263 42.6666H33.1855V47.4074H37.9263V42.6666Z" fill="black"/>
<path d="M42.6665 42.6666H37.9258V47.4074H42.6665V42.6666Z" fill="black"/>
<path d="M61.6294 42.6666H56.8887V47.4074H61.6294V42.6666Z" fill="black"/>
<path d="M66.3706 42.6666H61.6299V47.4074H66.3706V42.6666Z" fill="black"/>
<path d="M71.1109 42.6666H66.3701V47.4074H71.1109V42.6666Z" fill="black"/>
<path d="M75.8521 42.6666H71.1113V47.4074H75.8521V42.6666Z" fill="black"/>
<path d="M94.815 42.6666H90.0742V47.4074H94.815V42.6666Z" fill="black"/>
<path d="M99.5552 42.6666H94.8145V47.4074H99.5552V42.6666Z" fill="black"/>
<path d="M104.296 42.6666H99.5557V47.4074H104.296V42.6666Z" fill="black"/>
<path d="M113.778 42.6666H109.037V47.4074H113.778V42.6666Z" fill="black"/>
<path d="M118.518 42.6666H113.777V47.4074H118.518V42.6666Z" fill="black"/>
<path d="M18.9634 47.4073H14.2227V52.1481H18.9634V47.4073Z" fill="black"/>
<path d="M52.148 47.4073H47.4072V52.1481H52.148V47.4073Z" fill="black"/>
<path d="M61.6294 47.4073H56.8887V52.1481H61.6294V47.4073Z" fill="black"/>
<path d="M66.3706 47.4073H61.6299V52.1481H66.3706V47.4073Z" fill="black"/>
<path d="M71.1109 47.4073H66.3701V52.1481H71.1109V47.4073Z" fill="black"/>
<path d="M85.3335 47.4073H80.5928V52.1481H85.3335V47.4073Z" fill="black"/>
<path d="M90.0737 47.4073H85.333V52.1481H90.0737V47.4073Z" fill="black"/>
<path d="M94.815 47.4073H90.0742V52.1481H94.815V47.4073Z" fill="black"/>
<path d="M123.259 47.4073H118.519V52.1481H123.259V47.4073Z" fill="black"/>
<path d="M14.2222 52.1482H9.48145V56.8889H14.2222V52.1482Z" fill="black"/>
<path d="M18.9634 52.1482H14.2227V56.8889H18.9634V52.1482Z" fill="black"/>
<path d="M23.7036 52.1482H18.9629V56.8889H23.7036V52.1482Z" fill="black"/>
<path d="M28.4448 52.1482H23.7041V56.8889H28.4448V52.1482Z" fill="black"/>
<path d="M37.9263 52.1482H33.1855V56.8889H37.9263V52.1482Z" fill="black"/>
<path d="M42.6665 52.1482H37.9258V56.8889H42.6665V52.1482Z" fill="black"/>
<path d="M61.6294 52.1482H56.8887V56.8889H61.6294V52.1482Z" fill="black"/>
<path d="M66.3706 52.1482H61.6299V56.8889H66.3706V52.1482Z" fill="black"/>
<path d="M71.1109 52.1482H66.3701V56.8889H71.1109V52.1482Z" fill="black"/>
<path d="M90.0737 52.1482H85.333V56.8889H90.0737V52.1482Z" fill="black"/>
<path d="M94.815 52.1482H90.0742V56.8889H94.815V52.1482Z" fill="black"/>
<path d="M99.5552 52.1482H94.8145V56.8889H99.5552V52.1482Z" fill="black"/>
<path d="M118.518 52.1482H113.777V56.8889H118.518V52.1482Z" fill="black"/>
<path d="M123.259 52.1482H118.519V56.8889H123.259V52.1482Z" fill="black"/>
<path d="M14.2222 56.8889H9.48145V61.6297H14.2222V56.8889Z" fill="black"/>
<path d="M28.4448 56.8889H23.7041V61.6297H28.4448V56.8889Z" fill="black"/>
<path d="M47.4077 56.8889H42.667V61.6297H47.4077V56.8889Z" fill="black"/>
<path d="M52.148 56.8889H47.4072V61.6297H52.148V56.8889Z" fill="black"/>
<path d="M56.8892 56.8889H52.1484V61.6297H56.8892V56.8889Z" fill="black"/>
<path d="M61.6294 56.8889H56.8887V61.6297H61.6294V56.8889Z" fill="black"/>
<path d="M66.3706 56.8889H61.6299V61.6297H66.3706V56.8889Z" fill="black"/>
<path d="M71.1109 56.8889H66.3701V61.6297H71.1109V56.8889Z" fill="black"/>
<path d="M75.8521 56.8889H71.1113V61.6297H75.8521V56.8889Z" fill="black"/>
<path d="M85.3335 56.8889H80.5928V61.6297H85.3335V56.8889Z" fill="black"/>
<path d="M90.0737 56.8889H85.333V61.6297H90.0737V56.8889Z" fill="black"/>
<path d="M9.48195 61.6296H4.74121V66.3704H9.48195V61.6296Z" fill="black"/>
<path d="M14.2222 61.6296H9.48145V66.3704H14.2222V61.6296Z" fill="black"/>
<path d="M18.9634 61.6296H14.2227V66.3704H18.9634V61.6296Z" fill="black"/>
<path d="M28.4448 61.6296H23.7041V66.3704H28.4448V61.6296Z" fill="black"/>
<path d="M33.1851 61.6296H28.4443V66.3704H33.1851V61.6296Z" fill="black"/>
<path d="M37.9263 61.6296H33.1855V66.3704H37.9263V61.6296Z" fill="black"/>
<path d="M42.6665 61.6296H37.9258V66.3704H42.6665V61.6296Z" fill="black"/>
<path d="M56.8892 61.6296H52.1484V66.3704H56.8892V61.6296Z" fill="black"/>
<path d="M61.6294 61.6296H56.8887V66.3704H61.6294V61.6296Z" fill="black"/>
<path d="M71.1109 61.6296H66.3701V66.3704H71.1109V61.6296Z" fill="black"/>
<path d="M80.5923 61.6296H75.8516V66.3704H80.5923V61.6296Z" fill="black"/>
<path d="M85.3335 61.6296H80.5928V66.3704H85.3335V61.6296Z" fill="black"/>
<path d="M90.0737 61.6296H85.333V66.3704H90.0737V61.6296Z" fill="black"/>
<path d="M94.815 61.6296H90.0742V66.3704H94.815V61.6296Z" fill="black"/>
<path d="M109.037 61.6296H104.296V66.3704H109.037V61.6296Z" fill="black"/>
<path d="M118.518 61.6296H113.777V66.3704H118.518V61.6296Z" fill="black"/>
<path d="M123.259 61.6296H118.519V66.3704H123.259V61.6296Z" fill="black"/>
<path d="M14.2222 66.3704H9.48145V71.1111H14.2222V66.3704Z" fill="black"/>
<path d="M28.4448 66.3704H23.7041V71.1111H28.4448V66.3704Z" fill="black"/>
<path d="M33.1851 66.3704H28.4443V71.1111H33.1851V66.3704Z" fill="black"/>
<path d="M47.4077 66.3704H42.667V71.1111H47.4077V66.3704Z" fill="black"/>
<path d="M61.6294 66.3704H56.8887V71.1111H61.6294V66.3704Z" fill="black"/>
<path d="M85.3335 66.3704H80.5928V71.1111H85.3335V66.3704Z" fill="black"/>
<path d="M90.0737 66.3704H85.333V71.1111H90.0737V66.3704Z" fill="black"/>
<path d="M94.815 66.3704H90.0742V71.1111H94.815V66.3704Z" fill="black"/>
<path d="M99.5552 66.3704H94.8145V71.1111H99.5552V66.3704Z" fill="black"/>
<path d="M109.037 66.3704H104.296V71.1111H109.037V66.3704Z" fill="black"/>
<path d="M113.778 66.3704H109.037V71.1111H113.778V66.3704Z" fill="black"/>
<path d="M123.259 66.3704H118.519V71.1111H123.259V66.3704Z" fill="black"/>
<path d="M9.48195 71.1111H4.74121V75.8518H9.48195V71.1111Z" fill="black"/>
<path d="M23.7036 71.1111H18.9629V75.8518H23.7036V71.1111Z" fill="black"/>
<path d="M28.4448 71.1111H23.7041V75.8518H28.4448V71.1111Z" fill="black"/>
<path d="M33.1851 71.1111H28.4443V75.8518H33.1851V71.1111Z" fill="black"/>
<path d="M37.9263 71.1111H33.1855V75.8518H37.9263V71.1111Z" fill="black"/>
<path d="M52.148 71.1111H47.4072V75.8518H52.148V71.1111Z" fill="black"/>
<path d="M61.6294 71.1111H56.8887V75.8518H61.6294V71.1111Z" fill="black"/>
<path d="M71.1109 71.1111H66.3701V75.8518H71.1109V71.1111Z" fill="black"/>
<path d="M75.8521 71.1111H71.1113V75.8518H75.8521V71.1111Z" fill="black"/>
<path d="M99.5552 71.1111H94.8145V75.8518H99.5552V71.1111Z" fill="black"/>
<path d="M104.296 71.1111H99.5557V75.8518H104.296V71.1111Z" fill="black"/>
<path d="M113.778 71.1111H109.037V75.8518H113.778V71.1111Z" fill="black"/>
<path d="M123.259 71.1111H118.519V75.8518H123.259V71.1111Z" fill="black"/>
<path d="M14.2222 75.8518H9.48145V80.5925H14.2222V75.8518Z" fill="black"/>
<path d="M52.148 75.8518H47.4072V80.5925H52.148V75.8518Z" fill="black"/>
<path d="M61.6294 75.8518H56.8887V80.5925H61.6294V75.8518Z" fill="black"/>
<path d="M71.1109 75.8518H66.3701V80.5925H71.1109V75.8518Z" fill="black"/>
<path d="M75.8521 75.8518H71.1113V80.5925H75.8521V75.8518Z" fill="black"/>
<path d="M90.0737 75.8518H85.333V80.5925H90.0737V75.8518Z" fill="black"/>
<path d="M104.296 75.8518H99.5557V80.5925H104.296V75.8518Z" fill="black"/>
<path d="M109.037 75.8518H104.296V80.5925H109.037V75.8518Z" fill="black"/>
<path d="M118.518 75.8518H113.777V80.5925H118.518V75.8518Z" fill="black"/>
<path d="M9.48195 80.5927H4.74121V85.3334H9.48195V80.5927Z" fill="black"/>
<path d="M14.2222 80.5927H9.48145V85.3334H14.2222V80.5927Z" fill="black"/>
<path d="M28.4448 80.5927H23.7041V85.3334H28.4448V80.5927Z" fill="black"/>
<path d="M37.9263 80.5927H33.1855V85.3334H37.9263V80.5927Z" fill="black"/>
<path d="M42.6665 80.5927H37.9258V85.3334H42.6665V80.5927Z" fill="black"/>
<path d="M52.148 80.5927H47.4072V85.3334H52.148V80.5927Z" fill="black"/>
<path d="M56.8892 80.5927H52.1484V85.3334H56.8892V80.5927Z" fill="black"/>
<path d="M66.3706 80.5927H61.6299V85.3334H66.3706V80.5927Z" fill="black"/>
<path d="M80.5923 80.5927H75.8516V85.3334H80.5923V80.5927Z" fill="black"/>
<path d="M85.3335 80.5927H80.5928V85.3334H85.3335V80.5927Z" fill="black"/>
<path d="M90.0737 80.5927H85.333V85.3334H90.0737V80.5927Z" fill="black"/>
<path d="M94.815 80.5927H90.0742V85.3334H94.815V80.5927Z" fill="black"/>
<path d="M99.5552 80.5927H94.8145V85.3334H99.5552V80.5927Z" fill="black"/>
<path d="M104.296 80.5927H99.5557V85.3334H104.296V80.5927Z" fill="black"/>
<path d="M109.037 80.5927H104.296V85.3334H109.037V80.5927Z" fill="black"/>
<path d="M113.778 80.5927H109.037V85.3334H113.778V80.5927Z" fill="black"/>
<path d="M47.4077 85.3334H42.667V90.0741H47.4077V85.3334Z" fill="black"/>
<path d="M52.148 85.3334H47.4072V90.0741H52.148V85.3334Z" fill="black"/>
<path d="M66.3706 85.3334H61.6299V90.0741H66.3706V85.3334Z" fill="black"/>
<path d="M75.8521 85.3334H71.1113V90.0741H75.8521V85.3334Z" fill="black"/>
<path d="M80.5923 85.3334H75.8516V90.0741H80.5923V85.3334Z" fill="black"/>
<path d="M85.3335 85.3334H80.5928V90.0741H85.3335V85.3334Z" fill="black"/>
<path d="M104.296 85.3334H99.5557V90.0741H104.296V85.3334Z" fill="black"/>
<path d="M109.037 85.3334H104.296V90.0741H109.037V85.3334Z" fill="black"/>
<path d="M113.778 85.3334H109.037V90.0741H113.778V85.3334Z" fill="black"/>
<path d="M123.259 85.3334H118.519V90.0741H123.259V85.3334Z" fill="black"/>
<path d="M9.48195 90.0741H4.74121V94.8148H9.48195V90.0741Z" fill="black"/>
<path d="M14.2222 90.0741H9.48145V94.8148H14.2222V90.0741Z" fill="black"/>
<path d="M18.9634 90.0741H14.2227V94.8148H18.9634V90.0741Z" fill="black"/>
<path d="M23.7036 90.0741H18.9629V94.8148H23.7036V90.0741Z" fill="black"/>
<path d="M28.4448 90.0741H23.7041V94.8148H28.4448V90.0741Z" fill="black"/>
<path d="M33.1851 90.0741H28.4443V94.8148H33.1851V90.0741Z" fill="black"/>
<path d="M37.9263 90.0741H33.1855V94.8148H37.9263V90.0741Z" fill="black"/>
<path d="M47.4077 90.0741H42.667V94.8148H47.4077V90.0741Z" fill="black"/>
<path d="M52.148 90.0741H47.4072V94.8148H52.148V90.0741Z" fill="black"/>
<path d="M61.6294 90.0741H56.8887V94.8148H61.6294V90.0741Z" fill="black"/>
<path d="M66.3706 90.0741H61.6299V94.8148H66.3706V90.0741Z" fill="black"/>
<path d="M71.1109 90.0741H66.3701V94.8148H71.1109V90.0741Z" fill="black"/>
<path d="M80.5923 90.0741H75.8516V94.8148H80.5923V90.0741Z" fill="black"/>
<path d="M85.3335 90.0741H80.5928V94.8148H85.3335V90.0741Z" fill="black"/>
<path d="M94.815 90.0741H90.0742V94.8148H94.815V90.0741Z" fill="black"/>
<path d="M104.296 90.0741H99.5557V94.8148H104.296V90.0741Z" fill="black"/>
<path d="M118.518 90.0741H113.777V94.8148H118.518V90.0741Z" fill="black"/>
<path d="M123.259 90.0741H118.519V94.8148H123.259V90.0741Z" fill="black"/>
<path d="M9.48195 94.8148H4.74121V99.5556H9.48195V94.8148Z" fill="black"/>
<path d="M37.9263 94.8148H33.1855V99.5556H37.9263V94.8148Z" fill="black"/>
<path d="M52.148 94.8148H47.4072V99.5556H52.148V94.8148Z" fill="black"/>
<path d="M56.8892 94.8148H52.1484V99.5556H56.8892V94.8148Z" fill="black"/>
<path d="M66.3706 94.8148H61.6299V99.5556H66.3706V94.8148Z" fill="black"/>
<path d="M85.3335 94.8148H80.5928V99.5556H85.3335V94.8148Z" fill="black"/>
<path d="M104.296 94.8148H99.5557V99.5556H104.296V94.8148Z" fill="black"/>
<path d="M109.037 94.8148H104.296V99.5556H109.037V94.8148Z" fill="black"/>
<path d="M113.778 94.8148H109.037V99.5556H113.778V94.8148Z" fill="black"/>
<path d="M118.518 94.8148H113.777V99.5556H118.518V94.8148Z" fill="black"/>
<path d="M9.48195 99.5555H4.74121V104.296H9.48195V99.5555Z" fill="black"/>
<path d="M18.9634 99.5555H14.2227V104.296H18.9634V99.5555Z" fill="black"/>
<path d="M23.7036 99.5555H18.9629V104.296H23.7036V99.5555Z" fill="black"/>
<path d="M28.4448 99.5555H23.7041V104.296H28.4448V99.5555Z" fill="black"/>
<path d="M37.9263 99.5555H33.1855V104.296H37.9263V99.5555Z" fill="black"/>
<path d="M56.8892 99.5555H52.1484V104.296H56.8892V99.5555Z" fill="black"/>
<path d="M66.3706 99.5555H61.6299V104.296H66.3706V99.5555Z" fill="black"/>
<path d="M71.1109 99.5555H66.3701V104.296H71.1109V99.5555Z" fill="black"/>
<path d="M75.8521 99.5555H71.1113V104.296H75.8521V99.5555Z" fill="black"/>
<path d="M85.3335 99.5555H80.5928V104.296H85.3335V99.5555Z" fill="black"/>
<path d="M90.0737 99.5555H85.333V104.296H90.0737V99.5555Z" fill="black"/>
<path d="M94.815 99.5555H90.0742V104.296H94.815V99.5555Z" fill="black"/>
<path d="M99.5552 99.5555H94.8145V104.296H99.5552V99.5555Z" fill="black"/>
<path d="M104.296 99.5555H99.5557V104.296H104.296V99.5555Z" fill="black"/>
<path d="M118.518 99.5555H113.777V104.296H118.518V99.5555Z" fill="black"/>
<path d="M9.48195 104.296H4.74121V109.037H9.48195V104.296Z" fill="black"/>
<path d="M18.9634 104.296H14.2227V109.037H18.9634V104.296Z" fill="black"/>
<path d="M23.7036 104.296H18.9629V109.037H23.7036V104.296Z" fill="black"/>
<path d="M28.4448 104.296H23.7041V109.037H28.4448V104.296Z" fill="black"/>
<path d="M37.9263 104.296H33.1855V109.037H37.9263V104.296Z" fill="black"/>
<path d="M47.4077 104.296H42.667V109.037H47.4077V104.296Z" fill="black"/>
<path d="M52.148 104.296H47.4072V109.037H52.148V104.296Z" fill="black"/>
<path d="M56.8892 104.296H52.1484V109.037H56.8892V104.296Z" fill="black"/>
<path d="M61.6294 104.296H56.8887V109.037H61.6294V104.296Z" fill="black"/>
<path d="M71.1109 104.296H66.3701V109.037H71.1109V104.296Z" fill="black"/>
<path d="M75.8521 104.296H71.1113V109.037H75.8521V104.296Z" fill="black"/>
<path d="M80.5923 104.296H75.8516V109.037H80.5923V104.296Z" fill="black"/>
<path d="M85.3335 104.296H80.5928V109.037H85.3335V104.296Z" fill="black"/>
<path d="M99.5552 104.296H94.8145V109.037H99.5552V104.296Z" fill="black"/>
<path d="M104.296 104.296H99.5557V109.037H104.296V104.296Z" fill="black"/>
<path d="M113.778 104.296H109.037V109.037H113.778V104.296Z" fill="black"/>
<path d="M9.48195 109.037H4.74121V113.778H9.48195V109.037Z" fill="black"/>
<path d="M18.9634 109.037H14.2227V113.778H18.9634V109.037Z" fill="black"/>
<path d="M23.7036 109.037H18.9629V113.778H23.7036V109.037Z" fill="black"/>
<path d="M28.4448 109.037H23.7041V113.778H28.4448V109.037Z" fill="black"/>
<path d="M37.9263 109.037H33.1855V113.778H37.9263V109.037Z" fill="black"/>
<path d="M52.148 109.037H47.4072V113.778H52.148V109.037Z" fill="black"/>
<path d="M56.8892 109.037H52.1484V113.778H56.8892V109.037Z" fill="black"/>
<path d="M66.3706 109.037H61.6299V113.778H66.3706V109.037Z" fill="black"/>
<path d="M80.5923 109.037H75.8516V113.778H80.5923V109.037Z" fill="black"/>
<path d="M85.3335 109.037H80.5928V113.778H85.3335V109.037Z" fill="black"/>
<path d="M104.296 109.037H99.5557V113.778H104.296V109.037Z" fill="black"/>
<path d="M109.037 109.037H104.296V113.778H109.037V109.037Z" fill="black"/>
<path d="M113.778 109.037H109.037V113.778H113.778V109.037Z" fill="black"/>
<path d="M123.259 109.037H118.519V113.778H123.259V109.037Z" fill="black"/>
<path d="M9.48195 113.778H4.74121V118.519H9.48195V113.778Z" fill="black"/>
<path d="M37.9263 113.778H33.1855V118.519H37.9263V113.778Z" fill="black"/>
<path d="M47.4077 113.778H42.667V118.519H47.4077V113.778Z" fill="black"/>
<path d="M56.8892 113.778H52.1484V118.519H56.8892V113.778Z" fill="black"/>
<path d="M66.3706 113.778H61.6299V118.519H66.3706V113.778Z" fill="black"/>
<path d="M71.1109 113.778H66.3701V118.519H71.1109V113.778Z" fill="black"/>
<path d="M75.8521 113.778H71.1113V118.519H75.8521V113.778Z" fill="black"/>
<path d="M80.5923 113.778H75.8516V118.519H80.5923V113.778Z" fill="black"/>
<path d="M85.3335 113.778H80.5928V118.519H85.3335V113.778Z" fill="black"/>
<path d="M94.815 113.778H90.0742V118.519H94.815V113.778Z" fill="black"/>
<path d="M109.037 113.778H104.296V118.519H109.037V113.778Z" fill="black"/>
<path d="M9.48195 118.519H4.74121V123.259H9.48195V118.519Z" fill="black"/>
<path d="M14.2222 118.519H9.48145V123.259H14.2222V118.519Z" fill="black"/>
<path d="M18.9634 118.519H14.2227V123.259H18.9634V118.519Z" fill="black"/>
<path d="M23.7036 118.519H18.9629V123.259H23.7036V118.519Z" fill="black"/>
<path d="M28.4448 118.519H23.7041V123.259H28.4448V118.519Z" fill="black"/>
<path d="M33.1851 118.519H28.4443V123.259H33.1851V118.519Z" fill="black"/>
<path d="M37.9263 118.519H33.1855V123.259H37.9263V118.519Z" fill="black"/>
<path d="M47.4077 118.519H42.667V123.259H47.4077V118.519Z" fill="black"/>
<path d="M56.8892 118.519H52.1484V123.259H56.8892V118.519Z" fill="black"/>
<path d="M71.1109 118.519H66.3701V123.259H71.1109V118.519Z" fill="black"/>
<path d="M75.8521 118.519H71.1113V123.259H75.8521V118.519Z" fill="black"/>
<path d="M80.5923 118.519H75.8516V123.259H80.5923V118.519Z" fill="black"/>
<path d="M85.3335 118.519H80.5928V123.259H85.3335V118.519Z" fill="black"/>
<path d="M90.0737 118.519H85.333V123.259H90.0737V118.519Z" fill="black"/>
<path d="M94.815 118.519H90.0742V123.259H94.815V118.519Z" fill="black"/>
<path d="M99.5552 118.519H94.8145V123.259H99.5552V118.519Z" fill="black"/>
<path d="M118.518 118.519H113.777V123.259H118.518V118.519Z" fill="black"/>
<path d="M123.259 118.519H118.519V123.259H123.259V118.519Z" fill="black"/>
</svg>
