<svg width="20" height="20" viewBox="0 0 20 20" fill="none" xmlns="http://www.w3.org/2000/svg">
<path d="M18.8079 17.845C19.1538 17.845 19.4329 18.125 19.4329 18.47C19.4329 18.7867 19.1988 19.0475 18.8929 19.0892L18.8088 19.095H14.0288C13.6838 19.095 13.4038 18.815 13.4038 18.47C13.4038 18.1533 13.6388 17.8917 13.9438 17.8508L14.0288 17.845H18.8088H18.8079ZM9.33293 0.529175C9.59376 0.529175 9.8496 0.591675 10.1013 0.710008L10.2513 0.788341L10.3596 0.856675L10.4321 0.825008C10.7671 0.685841 11.0671 0.594175 11.3371 0.554175L11.4954 0.535841L11.6471 0.529175C12.5888 0.529175 13.3938 1.66417 12.9913 2.54251L12.9413 2.63917L12.8429 2.81584L12.7238 3.04001L12.4238 3.63084L12.2254 4.03084L12.3129 4.13751C12.7763 4.72334 13.0146 5.32001 13.0046 5.91417L12.9963 6.07584L12.9879 6.14334L13.2863 6.32167C15.1529 7.47251 16.4446 8.81501 17.0071 10.6333L15.7571 10.8558C15.2679 9.43751 14.2238 8.37917 12.7004 7.42917L12.4421 7.27167L11.5446 6.74751H11.3113C12.0071 7.31417 12.5321 7.93001 12.8813 8.60001C13.0404 8.90667 12.9221 9.28334 12.6154 9.44334C12.3096 9.60251 11.9321 9.48417 11.7729 9.17751C11.3563 8.37917 10.5746 7.63751 9.4146 6.96334L9.25543 6.87251L9.09293 7.01417C8.3346 7.68417 7.7796 8.33917 7.42626 8.97584L7.32626 9.16667C7.17376 9.47501 6.79876 9.60251 6.48876 9.44917C6.18043 9.29584 6.05293 8.92084 6.20626 8.61167C6.51626 7.98584 6.96876 7.36584 7.56293 6.74834H6.9846L6.19876 7.20667L5.89043 7.39001L5.63043 7.55167L5.40126 7.70167L5.2946 7.77501L5.0846 7.92667L4.86876 8.09251C2.94793 9.60084 2.0721 11.6208 2.63543 14.715C2.90543 16.195 4.4046 17.0775 6.52043 17.4225C6.95126 17.4925 7.4171 17.5442 7.92043 17.5783L8.30376 17.6L8.7521 17.6208L8.94626 17.6233H9.58126L9.77543 17.6208L10.2254 17.6C10.6146 17.5817 10.9846 17.5525 11.3346 17.5142L11.6779 17.4717L12.0529 17.415L12.4529 18.6133L12.2088 18.6558C11.9738 18.6942 11.7304 18.7275 11.4779 18.7558L11.0929 18.7942L10.8371 18.8133L10.8346 18.8442L9.9271 18.8692L9.5871 18.8733H8.9371L8.60043 18.8692L7.69376 18.8442L7.69126 18.8133L7.43543 18.7942C7.26043 18.7783 7.09126 18.7608 6.9246 18.7408L6.67793 18.7092L6.3196 18.6558C3.73626 18.235 1.79793 17.095 1.40543 14.9392C0.75543 11.3642 1.82793 8.89167 4.0971 7.10917C4.46543 6.82001 4.75043 6.62168 5.1821 6.35751L5.5396 6.14334L5.53126 6.07667C5.4771 5.48251 5.67293 4.88501 6.0946 4.29751L6.2146 4.13751L6.3021 4.03167L6.19126 3.80584L5.9446 3.31251L5.74376 2.92501L5.59043 2.64667C5.07376 1.75001 5.9046 0.530008 6.88126 0.530008C7.1771 0.530008 7.51293 0.603341 7.89876 0.746675L8.09626 0.825008L8.1671 0.856675L8.2771 0.788341C8.47626 0.675008 8.67876 0.597508 8.8846 0.559175L9.0396 0.536675L9.19543 0.529175H9.3321H9.33293ZM18.8079 15.7833C19.1538 15.7833 19.4329 16.0633 19.4329 16.4083C19.4329 16.725 19.1988 16.9858 18.8929 17.0275L18.8088 17.0333H14.0288C13.6838 17.0333 13.4038 16.7533 13.4038 16.4083C13.4038 16.0917 13.6388 15.83 13.9438 15.7892L14.0288 15.7833H18.8088H18.8079ZM8.96626 8.87834L9.7996 8.89917L9.78043 9.66917C10.0688 9.71917 10.3721 9.79834 10.6888 9.90584C10.9071 9.97917 11.0238 10.2158 10.9504 10.4333C10.8771 10.6517 10.6404 10.7683 10.4221 10.695C10.1871 10.615 9.9646 10.555 9.75793 10.5117L9.71043 12.4008L9.9146 12.4658C11.1479 12.8875 11.7879 13.4908 11.5496 14.5625C11.3396 15.5025 10.5863 16.0025 9.6196 16.0575L9.59793 16.8825L8.7646 16.8608L8.7871 16.0033C8.1571 15.8917 7.48376 15.6208 6.8371 15.1917C6.64543 15.0642 6.59293 14.8058 6.72043 14.6142C6.8471 14.4225 7.10626 14.37 7.29793 14.4975C7.81876 14.8433 8.3371 15.0617 8.80793 15.1642L8.86126 13.0083L8.79126 12.9867L8.59126 12.915C7.3546 12.4283 6.74126 11.3625 7.20626 10.4742C7.49793 9.91584 8.11793 9.61251 8.94793 9.59751L8.96626 8.87834ZM9.68876 13.2708L9.64126 15.2217C10.2154 15.1625 10.6271 14.87 10.7354 14.3817C10.8438 13.8933 10.5621 13.5917 9.7946 13.3083L9.68876 13.2708ZM18.8096 13.64C19.1546 13.64 19.4346 13.92 19.4346 14.265C19.4346 14.5817 19.1996 14.8425 18.8938 14.8842L18.8096 14.89H14.0296C13.6846 14.89 13.4046 14.61 13.4046 14.265C13.4046 13.9483 13.6396 13.6867 13.9446 13.6458L14.0296 13.64H18.8096ZM18.8096 11.5783C19.1546 11.5783 19.4346 11.8583 19.4346 12.2033C19.4346 12.52 19.1996 12.7808 18.8938 12.8225L18.8096 12.8283H14.0296C13.6846 12.8283 13.4046 12.5483 13.4046 12.2033C13.4046 11.8867 13.6396 11.625 13.9446 11.5842L14.0296 11.5783H18.8096ZM8.9246 10.425C8.41626 10.4392 8.0771 10.6025 7.94293 10.8592C7.74293 11.2408 8.06793 11.8092 8.8821 12.1342L8.9246 10.425ZM9.33293 1.77917H9.19626C9.07626 1.77917 8.92543 1.83834 8.74293 1.97667L8.64876 2.05251L8.3371 2.31917L7.96876 2.13917C7.46876 1.89501 7.09626 1.77917 6.8821 1.77917C6.82793 1.77917 6.7071 1.94584 6.6796 2.00417L6.6746 2.02251L6.8421 2.32751L7.05543 2.73751L7.31376 3.25417L7.80793 4.26334L7.4946 4.57917C7.1596 4.91667 6.94876 5.22001 6.84793 5.49834H11.6813C11.5938 5.25584 11.4229 4.99417 11.1588 4.70834L11.0346 4.57917L10.7229 4.26501L11.1229 3.44251L11.3088 3.06584L11.6221 2.45167L11.8554 2.02251C11.8646 2.00584 11.7104 1.77917 11.6471 1.77917C11.4571 1.77917 11.1421 1.87084 10.7221 2.06251L10.5604 2.13917L10.1929 2.31917L9.88126 2.05251C9.68793 1.88751 9.52626 1.80501 9.39543 1.78417L9.33293 1.77917Z" fill="#999999"/>
</svg>
