<svg width="32" height="32" viewBox="0 0 32 32" fill="none" xmlns="http://www.w3.org/2000/svg">
<path fill-rule="evenodd" clip-rule="evenodd" d="M0 0H32V32H0V0Z" fill="white" fill-opacity="0.01"/>
<path d="M15.9996 29.0909C24.033 29.0909 30.545 22.5789 30.545 14.5455C30.545 6.512 24.033 0 15.9996 0C7.9661 0 1.4541 6.512 1.4541 14.5455C1.4541 22.5789 7.9661 29.0909 15.9996 29.0909Z" fill="#D4EBAC"/>
<path d="M15.8586 18.2327C16.775 18.2327 17.5772 18.0146 18.2645 17.5767C18.9525 17.1389 19.4834 16.5047 19.8586 15.6742C20.2332 14.8437 20.4208 13.8706 20.4208 12.7564V12.0378C20.4208 10.928 20.2332 9.95565 19.8586 9.12002C19.4834 8.28365 18.9481 7.64583 18.2528 7.20583C17.5576 6.76583 16.7546 6.54547 15.8426 6.54547C14.9466 6.54547 14.151 6.76802 13.4557 7.21311C12.7605 7.65893 12.223 8.30038 11.8426 9.13893C11.4623 9.97747 11.2725 10.944 11.2725 12.0378V12.8582C11.2826 13.9309 11.4797 14.8749 11.8623 15.6902C12.2448 16.5047 12.783 17.1324 13.4754 17.5731C14.1685 18.0131 14.9626 18.2327 15.8586 18.2327ZM15.8586 16.96C14.895 16.96 14.1386 16.5862 13.5896 15.8386C13.0397 15.0909 12.7648 14.064 12.7648 12.7564V11.92C12.7801 10.6393 13.0601 9.63784 13.6048 8.91638C14.1488 8.19493 14.895 7.8342 15.8426 7.8342C16.8172 7.8342 17.5743 8.19493 18.1161 8.91638C18.6579 9.63784 18.9285 10.6727 18.9285 12.0218V12.8655C18.9132 14.1833 18.6397 15.1949 18.1081 15.9011C17.5772 16.6066 16.8274 16.9593 15.8586 16.9593V16.96Z" fill="#646464"/>
<path fill-rule="evenodd" clip-rule="evenodd" d="M13.8178 15.2727V19.6363L29.6287 19.6371C27.5967 25.0742 22.4047 28.9694 16.2869 29.088L15.9996 29.0909H13.8178V32L4.36328 23.6363L13.8178 15.2727Z" fill="url(#paint0_linear)"/>
<defs>
<linearGradient id="paint0_linear" x1="26.3859" y1="23.6363" x2="4.36328" y2="23.6363" gradientUnits="userSpaceOnUse">
<stop stop-color="#94D341"/>
<stop offset="1" stop-color="#B9E56C"/>
</linearGradient>
</defs>
</svg>
