<svg width="24" height="24" viewBox="0 0 24 24" fill="none" xmlns="http://www.w3.org/2000/svg">
<rect width="24" height="24" rx="12" fill="white"/>
<rect x="0.5" y="0.5" width="23" height="23" rx="11.5" stroke="black" stroke-opacity="0.15"/>
<path d="M18 12C17.9556 13.7 17.3694 15.1139 16.2417 16.2417C15.1139 17.3694 13.7 17.9556 12 18C10.3 17.9556 8.88611 17.3694 7.75833 16.2417C6.63056 15.1139 6.04444 13.7 6 12C6.04444 10.3 6.63056 8.88611 7.75833 7.75833C8.88611 6.63056 10.3 6.04444 12 6C13.7 6.04444 15.1139 6.63056 16.2417 7.75833C17.3694 8.88611 17.9556 10.3 18 12Z" fill="#BDBDBD"/>
</svg>
