<svg width="20" height="20" viewBox="0 0 20 20" fill="none" xmlns="http://www.w3.org/2000/svg">
<path d="M13.4691 10.1766C16.4166 10.1766 18.9307 11.365 19.4232 13.0933V16.15C19.3299 17.6866 17.4824 19.5516 13.4691 19.5516C9.45491 19.5516 7.61741 17.6933 7.51408 16.1641V13.0933C8.00658 11.365 10.5207 10.1766 13.4691 10.1766ZM14.7191 17.1875C14.3141 17.235 13.8957 17.26 13.4691 17.26C13.0407 17.26 12.6224 17.235 12.2182 17.1875V18.2183C12.6149 18.2725 13.0349 18.3016 13.4682 18.3016C13.9032 18.3016 14.3216 18.2725 14.7182 18.2183V17.1875H14.7191ZM18.2607 15.91C17.5674 16.4325 16.6291 16.8283 15.5524 17.0516V18.0616C17.1049 17.6841 18.1724 16.9116 18.2549 16.1108L18.2607 16.0108V15.9108V15.91ZM8.67658 15.91V16.01L8.68241 16.11C8.76408 16.9116 9.83158 17.6833 11.3841 18.0608V17.0525C10.3082 16.8275 9.36908 16.4325 8.67574 15.91H8.67658ZM13.4682 11.4266C10.7766 11.4266 8.67658 12.5575 8.67658 13.7183C8.67658 14.88 10.7766 16.01 13.4682 16.01C16.1607 16.01 18.2599 14.88 18.2599 13.7183C18.2599 12.5575 16.1607 11.4266 13.4682 11.4266ZM16.3849 2.67664C17.1507 2.67664 17.7782 3.2658 17.8391 4.0158L17.8441 4.13497V9.9683H16.5941V8.7183H2.01074V14.135C2.01074 14.2341 2.07908 14.3166 2.17074 14.3383L2.21908 14.3433H6.38491V15.5933H2.21824C1.45324 15.5933 0.826576 15.0041 0.764909 14.255L0.760742 14.135V4.13497C0.760742 3.36997 1.34991 2.74247 2.09908 2.68164L2.21908 2.67664H16.3857H16.3849ZM16.5932 7.05164H2.00991V7.88497H16.5932V7.05164ZM16.3849 3.92664H2.21824C2.11991 3.92664 2.03741 3.99497 2.01574 4.08747L2.01074 4.13497V6.2183H16.5941V4.13497C16.5941 4.03664 16.5249 3.95414 16.4332 3.93247L16.3857 3.92664H16.3849Z" fill="#999999"/>
</svg>
