<svg width="32" height="32" viewBox="0 0 32 32" fill="none" xmlns="http://www.w3.org/2000/svg">
<path fill-rule="evenodd" clip-rule="evenodd" d="M15.9996 29.0909C24.033 29.0909 30.545 22.5789 30.545 14.5455C30.545 6.512 24.033 0 15.9996 0C7.9661 0 1.4541 6.512 1.4541 14.5455C1.4541 22.5789 7.9661 29.0909 15.9996 29.0909Z" fill="#C0DCFF"/>
<path d="M11.0084 18.9091V8.76872H16.6179V18.9091H18.1262V7.53381H9.50879V18.9091H11.0084ZM25.047 12.2727H20.7197L20.6295 12.36L20.5008 15.3731L20.4761 15.7687L20.4441 16.1251L20.4062 16.4407C20.3575 16.7869 20.2957 17.0516 20.2215 17.2356C20.0935 17.5505 19.8964 17.7331 19.6259 17.7927L19.5277 17.8095L19.2222 17.8327L19.1379 17.9229V18.9091L19.2288 19H19.6666C20.3459 18.9789 20.847 18.7113 21.1619 18.2C21.447 17.7367 21.6288 16.9978 21.711 15.9825L21.7284 15.7455L21.8535 13.3796H23.8542L23.855 18.9091L23.9459 19H25.047L25.1379 18.9091V12.3636L25.047 12.2727Z" fill="#646464"/>
<path d="M25.4548 31.2727C28.0656 31.2727 30.1821 30.2959 30.1821 29.0909C30.1821 27.8859 28.0656 26.9091 25.4548 26.9091C22.844 26.9091 20.7275 27.8859 20.7275 29.0909C20.7275 30.2959 22.844 31.2727 25.4548 31.2727Z" fill="#E3C047"/>
<path d="M25.4548 29.0909C28.0656 29.0909 30.1821 28.1141 30.1821 26.9091C30.1821 25.7041 28.0656 24.7273 25.4548 24.7273C22.844 24.7273 20.7275 25.7041 20.7275 26.9091C20.7275 28.1141 22.844 29.0909 25.4548 29.0909Z" fill="#FDDE57"/>
<path fill-rule="evenodd" clip-rule="evenodd" d="M5.69207 29.9854H19.2288L15.9997 16.9069L12.9924 20.9193C10.2361 19.8633 8.77571 18.416 7.20625 15.8298C5.33934 12.7534 5.06952 9.49598 5.41352 6.99271L5.47462 6.59271C5.48552 6.52726 5.49643 6.46326 5.5088 6.39853L5.58443 6.02035C5.7568 5.21889 5.9888 4.52507 6.23752 3.98035C5.62225 4.32362 4.9328 4.97889 4.27243 5.86689L4.05352 6.17162C4.01716 6.22326 3.9808 6.27635 3.94516 6.33017L3.73134 6.65889C1.99898 9.41307 0.694252 13.7367 1.89062 18.0603C2.92043 21.7825 4.68334 24.0531 6.32552 25.5134L6.61352 25.7636L6.89789 25.9963L7.03898 26.1076L7.31607 26.3185L7.58734 26.5156L7.85134 26.6996L8.10662 26.8705L8.35316 27.0305L8.47243 27.1062L5.69134 29.9862L5.69207 29.9854Z" fill="url(#paint0_linear)"/>
<defs>
<linearGradient id="paint0_linear" x1="19.0478" y1="16.9833" x2="1.92296" y2="16.9833" gradientUnits="userSpaceOnUse">
<stop stop-color="#91B3DF"/>
<stop offset="1" stop-color="#ABCBEF"/>
</linearGradient>
</defs>
</svg>
