<svg width="22" height="16" viewBox="0 0 22 16" fill="none" xmlns="http://www.w3.org/2000/svg">
<path d="M7.88242 12.9865C7.76477 13.8199 7.35318 14.5825 6.72324 15.1342C6.09331 15.6859 5.28733 15.9896 4.45335 15.9896C3.61936 15.9896 2.81338 15.6859 2.18345 15.1342C1.55351 14.5825 1.14192 13.8199 1.02427 12.9865H0V0.99896C0 0.73402 0.104264 0.47993 0.289857 0.292589C0.475449 0.105248 0.727166 0 0.989632 0H14.8445C15.107 0 15.3587 0.105248 15.5443 0.292589C15.7299 0.47993 15.8341 0.73402 15.8341 0.99896V2.99688H18.803L21.7719 7.04866V12.9865H19.758C19.6404 13.8199 19.2288 14.5825 18.5988 15.1342C17.9689 15.6859 17.1629 15.9896 16.3289 15.9896C15.495 15.9896 14.689 15.6859 14.059 15.1342C13.4291 14.5825 13.0175 13.8199 12.8999 12.9865H7.88242ZM13.8549 1.99792H1.97926V10.0396C2.36974 9.63717 2.85074 9.33597 3.38133 9.16158C3.91192 8.9872 4.4764 8.9448 5.02672 9.03799C5.57703 9.13118 6.0969 9.3572 6.54207 9.69681C6.98724 10.0364 7.34454 10.4796 7.58355 10.9886H13.1987C13.365 10.6359 13.5877 10.3153 13.8549 10.0396V1.99792ZM15.8341 7.99168H19.7926V7.70698L17.8055 4.9948H15.8341V7.99168ZM16.3289 13.9854C16.7228 13.9854 17.1005 13.8275 17.3789 13.5464C17.6574 13.2653 17.8139 12.884 17.8139 12.4865C17.8139 12.089 17.6574 11.7077 17.3789 11.4266C17.1005 11.1455 16.7228 10.9876 16.3289 10.9876C15.9351 10.9876 15.5574 11.1455 15.2789 11.4266C15.0004 11.7077 14.844 12.089 14.844 12.4865C14.844 12.884 15.0004 13.2653 15.2789 13.5464C15.5574 13.8275 15.9351 13.9854 16.3289 13.9854ZM5.93779 12.487C5.93779 12.2902 5.8994 12.0954 5.8248 11.9136C5.7502 11.7318 5.64085 11.5666 5.50301 11.4274C5.36517 11.2883 5.20152 11.1779 5.02142 11.1026C4.84132 11.0273 4.64829 10.9886 4.45335 10.9886C4.25841 10.9886 4.06537 11.0273 3.88527 11.1026C3.70517 11.1779 3.54153 11.2883 3.40368 11.4274C3.26584 11.5666 3.15649 11.7318 3.08189 11.9136C3.00729 12.0954 2.9689 12.2902 2.9689 12.487C2.9689 12.8844 3.12529 13.2655 3.40368 13.5466C3.68207 13.8276 4.05965 13.9854 4.45335 13.9854C4.84705 13.9854 5.22462 13.8276 5.50301 13.5466C5.7814 13.2655 5.93779 12.8844 5.93779 12.487Z" fill="#FFD500"/>
</svg>
