<svg width="12" height="20" viewBox="0 0 12 20" fill="none" xmlns="http://www.w3.org/2000/svg">
<path d="M5.93777 0C2.65775 0 0 2.67201 0 5.98175C0 11.7046 5.93777 19.168 5.93777 19.168C5.93777 19.168 11.8755 11.7034 11.8755 5.98175C11.8755 2.67321 9.2178 0 5.93777 0ZM5.93777 9.29149C5.08739 9.29149 4.27183 8.95049 3.67051 8.34351C3.06919 7.73652 2.73138 6.91328 2.73138 6.05487C2.73138 5.19647 3.06919 4.37322 3.67051 3.76624C4.27183 3.15925 5.08739 2.81825 5.93777 2.81825C6.78816 2.81825 7.60372 3.15925 8.20504 3.76624C8.80636 4.37322 9.14417 5.19647 9.14417 6.05487C9.14417 6.91328 8.80636 7.73652 8.20504 8.34351C7.60372 8.95049 6.78816 9.29149 5.93777 9.29149Z" fill="#FFD500"/>
</svg>
