<svg width="14" height="17" viewBox="0 0 14 17" fill="none" xmlns="http://www.w3.org/2000/svg">
<path d="M1.64939 16.6493H11.5457C11.9832 16.6493 12.4027 16.4739 12.712 16.1616C13.0214 15.8494 13.1951 15.4259 13.1951 14.9844V1.66493C13.1951 1.22336 13.0214 0.799881 12.712 0.487646C12.4027 0.175412 11.9832 0 11.5457 0H1.64939C1.21195 0 0.792416 0.175412 0.483095 0.487646C0.173775 0.799881 0 1.22336 0 1.66493V14.9844C0 15.4259 0.173775 15.8494 0.483095 16.1616C0.792416 16.4739 1.21195 16.6493 1.64939 16.6493ZM4.12348 14.1519H2.47409V12.487H4.12348V14.1519ZM4.12348 10.822H2.47409V9.15711H4.12348V10.822ZM4.12348 7.49218H2.47409V5.82725H4.12348V7.49218ZM7.42226 14.1519H5.77287V12.487H7.42226V14.1519ZM7.42226 10.822H5.77287V9.15711H7.42226V10.822ZM7.42226 7.49218H5.77287V5.82725H7.42226V7.49218ZM10.721 14.1519H9.07165V9.15711H10.721V14.1519ZM10.721 7.49218H9.07165V5.82725H10.721V7.49218ZM1.64939 1.66493H11.5457V4.16232H1.64939V1.66493Z" fill="#FFD500"/>
</svg>
