<svg width="20" height="24" viewBox="0 0 20 24" fill="none" xmlns="http://www.w3.org/2000/svg">
<path d="M17.7778 3.33203H2.22222C1.63285 3.33203 1.06762 3.61298 0.650874 4.11308C0.234126 4.61318 0 5.29145 0 5.9987L0 11.9987H20V5.9987C20 5.29145 19.7659 4.61318 19.3491 4.11308C18.9324 3.61298 18.3671 3.33203 17.7778 3.33203Z" fill="#005BBB"/>
<path d="M20 18C20 18.7072 19.7659 19.3855 19.3491 19.8856C18.9324 20.3857 18.3671 20.6667 17.7778 20.6667H2.22222C1.63285 20.6667 1.06762 20.3857 0.650874 19.8856C0.234126 19.3855 0 18.7072 0 18V12H20V18Z" fill="#FFD500"/>
</svg>
