<svg width="20" height="24" viewBox="0 0 20 24" fill="none" xmlns="http://www.w3.org/2000/svg">
<path d="M0 6.03803V8.66536H3.12667L0 6.03803ZM2.59111 20.6654H7.22222V16.774L2.59111 20.6654ZM12.7778 16.7747V20.6654H17.4083L12.7778 16.7747ZM0 15.332V17.9594L3.12778 15.332H0ZM17.4094 3.33203H12.7778V7.22336L17.4094 3.33203ZM20 17.96V15.332H16.8717L20 17.96ZM20 8.66536V6.03803L16.8728 8.66536H20ZM7.22222 3.33203H2.59111L7.22222 7.22336V3.33203Z" fill="#00247D"/>
<path d="M13.9667 15.333L19.3623 19.867C19.6258 19.5413 19.8152 19.1398 19.9123 18.701L15.9039 15.333H13.9667ZM7.22228 15.333H6.03284L0.637836 19.8663C0.92728 20.2197 1.29839 20.4723 1.7145 20.5897L7.22228 15.9617V15.333ZM12.7778 8.66634H13.9673L19.3623 4.133C19.0679 3.77452 18.6947 3.52369 18.2862 3.40967L12.7778 8.03767V8.66634ZM6.03284 8.66634L0.637836 4.133C0.374476 4.45898 0.184955 4.86036 0.0872803 5.299L4.09561 8.66634H6.03284Z" fill="#CF1B2B"/>
<path d="M20 13.9987H11.6667V20.6654H12.7778V16.7747L17.4083 20.6654H17.7778C18.0729 20.6654 18.3651 20.5947 18.6372 20.4575C18.9093 20.3202 19.1558 20.1191 19.3622 19.866L13.9667 15.332H15.9039L19.9122 18.7C19.9639 18.4754 20 18.2427 20 17.9987V17.96L16.8717 15.332H20V13.9987ZM0 13.9987V15.332H3.12778L0 17.9594V17.9987C0 18.726 0.243889 19.384 0.637778 19.8654L6.03278 15.332H7.22222V15.9607L1.71444 20.588C1.87778 20.6347 2.04667 20.6654 2.22222 20.6654H2.59111L7.22222 16.774V20.6654H8.33333V13.9987H0ZM20 5.9987C20.0003 5.30002 19.7712 4.62933 19.3622 4.13203L13.9672 8.66536H12.7778V8.0367L18.2861 3.4087C18.1197 3.35972 17.9491 3.33399 17.7778 3.33203H17.4094L12.7778 7.22336V3.33203H11.6667V9.9987H20V8.66536H16.8728L20 6.03803V5.9987ZM7.22222 3.33203V7.22336L2.59111 3.33203H2.22222C1.92701 3.33188 1.63476 3.40257 1.36265 3.53996C1.09055 3.67735 0.844091 3.87865 0.637778 4.13203L6.03278 8.66536H4.09556L0.0872222 5.29803C0.0321001 5.52584 0.00276301 5.76151 0 5.9987L0 6.03803L3.12667 8.66536H0V9.9987H8.33333V3.33203H7.22222Z" fill="#EEEEEE"/>
<path d="M11.6667 9.9987V3.33203H8.33333V9.9987H0V13.9987H8.33333V20.6654H11.6667V13.9987H20V9.9987H11.6667Z" fill="#CF1B2B"/>
</svg>
