<svg width="20" height="24" viewBox="0 0 20 24" fill="none" xmlns="http://www.w3.org/2000/svg">
<path d="M20 17.9987C20 18.7059 19.7659 19.3842 19.3491 19.8843C18.9324 20.3844 18.3671 20.6654 17.7778 20.6654H2.22222C1.63285 20.6654 1.06762 20.3844 0.650874 19.8843C0.234126 19.3842 0 18.7059 0 17.9987V15.332H20V17.9987Z" fill="#CE2028"/>
<path d="M0 8.66797H20V15.3346H0V8.66797Z" fill="#22408C"/>
<path d="M17.7778 3.33203H2.22222C1.63285 3.33203 1.06762 3.61298 0.650874 4.11308C0.234126 4.61318 0 5.29145 0 5.9987L0 8.66536H20V5.9987C20 5.29145 19.7659 4.61318 19.3491 4.11308C18.9324 3.61298 18.3671 3.33203 17.7778 3.33203Z" fill="#EEEEEE"/>
</svg>
