<svg width="62" height="62" viewBox="0 0 62 62" fill="none" xmlns="http://www.w3.org/2000/svg">
<circle cx="31" cy="31" r="31" fill="white"/>
<path d="M45.7909 33.5135L31.5 39.697V23.2176L45.7909 17.0415V33.5135Z" fill="white"/>
<path d="M31.5001 40.0933C31.4218 40.0931 31.3452 40.0701 31.2798 40.0272C31.2254 39.9909 31.1809 39.9417 31.1502 39.8841C31.1194 39.8264 31.1034 39.762 31.1035 39.6967V23.2173C31.1036 23.1401 31.1267 23.0646 31.1699 23.0005C31.2131 22.9364 31.2743 22.8866 31.3459 22.8575L45.6368 16.6814C45.694 16.6492 45.7585 16.6323 45.8241 16.6323C45.8897 16.6323 45.9542 16.6492 46.0113 16.6814C46.0761 16.7232 46.1272 16.783 46.1585 16.8534C46.1898 16.9239 46.1999 17.0019 46.1876 17.078V33.5133C46.1879 33.5916 46.1651 33.6682 46.122 33.7336C46.0789 33.7989 46.0174 33.85 45.9452 33.8805L31.6543 40.0566C31.6059 40.079 31.5534 40.0915 31.5001 40.0933V40.0933ZM31.8966 23.4817V39.1092L45.4018 33.2342V17.6434L31.8966 23.4817Z" fill="#F7D00F"/>
<path d="M17.209 17.0415L31.4999 23.2176V39.697L17.209 33.5135V17.0415Z" fill="white"/>
<path d="M31.5 40.0936C31.4467 40.0918 31.3942 40.0794 31.3458 40.0569L17.0548 33.8808C16.9827 33.8503 16.9212 33.7992 16.8781 33.7339C16.835 33.6685 16.8121 33.5919 16.8125 33.5136V17.0783C16.8124 17.0129 16.8284 16.9486 16.8592 16.8909C16.8899 16.8333 16.9344 16.7841 16.9888 16.7478C17.0459 16.7156 17.1104 16.6987 17.176 16.6987C17.2416 16.6987 17.3061 16.7156 17.3633 16.7478L31.6542 22.9239C31.7258 22.953 31.787 23.0028 31.8302 23.0669C31.8733 23.131 31.8964 23.2065 31.8966 23.2837V39.697C31.8967 39.7624 31.8807 39.8267 31.8499 39.8844C31.8192 39.942 31.7746 39.9912 31.7203 40.0275C31.6548 40.0704 31.5783 40.0934 31.5 40.0936ZM17.5983 33.2345L31.1034 39.1095V23.482L17.5983 17.6437V33.2345Z" fill="#F7D00F"/>
<path d="M31.4999 10.8652L17.209 17.0413L31.4999 23.2174L45.7909 17.0413L31.4999 10.8652Z" fill="white"/>
<path d="M31.5005 23.6214C31.4472 23.6197 31.3947 23.6072 31.3463 23.5847L17.0554 17.4086C16.9824 17.3789 16.92 17.328 16.876 17.2626C16.8321 17.1973 16.8086 17.1202 16.8086 17.0414C16.8086 16.9626 16.8321 16.8856 16.876 16.8202C16.92 16.7548 16.9824 16.704 17.0554 16.6743L31.3463 10.4688C31.4459 10.4323 31.5552 10.4323 31.6547 10.4688L45.9457 16.6522C46.0186 16.682 46.0811 16.7328 46.125 16.7982C46.169 16.8636 46.1925 16.9406 46.1925 17.0194C46.1925 17.0982 46.169 17.1752 46.125 17.2406C46.0811 17.306 46.0186 17.3568 45.9457 17.3866L31.6547 23.5847C31.6063 23.6072 31.5539 23.6197 31.5005 23.6214V23.6214ZM18.2083 17.0782L31.5005 22.7916L44.7927 17.0782L31.5005 11.2986L18.2083 17.0782Z" fill="#F7D00F"/>
<path d="M25.3756 25.09C25.3245 25.0976 25.2725 25.0976 25.2214 25.09L23.1798 24.2014C23.1083 24.1722 23.047 24.1225 23.0039 24.0584C22.9607 23.9943 22.9376 23.9188 22.9375 23.8416V19.6189C22.9381 19.5408 22.9613 19.4646 23.0043 19.3994C23.0473 19.3342 23.1083 19.2829 23.1798 19.2517L37.4708 13.0756C37.5226 13.0519 37.579 13.0396 37.636 13.0396C37.693 13.0396 37.7494 13.0519 37.8013 13.0756L39.8428 14.1405C39.9097 14.1755 39.9657 14.2283 40.0045 14.2931C40.0434 14.3579 40.0637 14.4321 40.0631 14.5076C40.0587 14.5838 40.0338 14.6574 39.9912 14.7207C39.9486 14.784 39.8897 14.8347 39.8208 14.8675L25.7648 20.9114V24.6934C25.765 24.7588 25.7489 24.8231 25.7182 24.8808C25.6874 24.9384 25.6429 24.9876 25.5886 25.0239C25.5258 25.0666 25.4516 25.0896 25.3756 25.09V25.09ZM23.7306 23.5478L24.9791 24.0912V20.647C24.9796 20.5689 25.0028 20.4927 25.0459 20.4275C25.0889 20.3624 25.1498 20.3111 25.2214 20.2798L38.7339 14.4416L37.6103 13.8761L23.7306 19.8759V23.5478Z" fill="#F7D00F"/>
<path d="M33.5411 37.1488C33.4628 37.1486 33.3863 37.1256 33.3208 37.0827C33.2665 37.0464 33.2219 36.9972 33.1912 36.9396C33.1604 36.8819 33.1444 36.8176 33.1445 36.7522V24.4221C33.1442 24.3438 33.167 24.2671 33.2101 24.2018C33.2532 24.1364 33.3147 24.0853 33.3869 24.0549L39.5116 21.4038C39.572 21.3783 39.6378 21.3681 39.7031 21.3743C39.7684 21.3805 39.8312 21.4028 39.8858 21.4392C39.9403 21.4755 39.985 21.5249 40.0159 21.5828C40.0467 21.6407 40.0627 21.7054 40.0623 21.771V34.1085C40.0622 34.1857 40.0391 34.2612 39.996 34.3253C39.9528 34.3894 39.8916 34.4392 39.82 34.4683L33.7027 37.1194C33.6516 37.1408 33.5964 37.1508 33.5411 37.1488V37.1488ZM33.9377 24.6644V36.1721L39.2692 33.8661V22.3511L33.9377 24.6644Z" fill="#F7D00F"/>
<path d="M35.0762 26.1917C34.9979 26.1921 34.9213 26.1693 34.8559 26.1261C34.7906 26.083 34.7395 26.0215 34.709 25.9494C34.6985 25.8985 34.6985 25.846 34.709 25.7952C34.7087 25.7169 34.7315 25.6402 34.7746 25.5749C34.8177 25.5095 34.8793 25.4584 34.9514 25.428L38.0137 24.1061C38.0609 24.0855 38.1118 24.0746 38.1633 24.0738C38.2147 24.073 38.2659 24.0824 38.3137 24.1016C38.3615 24.1207 38.4051 24.1491 38.4418 24.1852C38.4786 24.2213 38.5078 24.2643 38.5278 24.3117C38.5383 24.3651 38.5383 24.42 38.5278 24.4733C38.5293 24.5499 38.5076 24.6252 38.4657 24.6894C38.4238 24.7536 38.3635 24.8037 38.2928 24.8331L35.2304 26.1624C35.1816 26.1827 35.1291 26.1927 35.0762 26.1917V26.1917Z" fill="#C4C4C4"/>
<path d="M35.0762 27.7339C34.999 27.734 34.9233 27.7119 34.8582 27.6702C34.7931 27.6286 34.7414 27.5691 34.709 27.4989C34.6985 27.4456 34.6985 27.3907 34.709 27.3374C34.7082 27.2599 34.7309 27.184 34.7742 27.1197C34.8174 27.0554 34.8793 27.0058 34.9514 26.9775L36.9856 26.0889C37.0831 26.0496 37.1922 26.0498 37.2895 26.0896C37.3869 26.1293 37.4649 26.2055 37.507 26.3019C37.5175 26.3528 37.5175 26.4053 37.507 26.4561C37.5071 26.5334 37.485 26.6091 37.4433 26.6742C37.4016 26.7392 37.3422 26.791 37.272 26.8233L35.2304 27.7046C35.1816 27.7249 35.1291 27.7349 35.0762 27.7339V27.7339Z" fill="#C4C4C4"/>
<path d="M35.0762 29.2836C34.9984 29.2821 34.9225 29.2586 34.8575 29.2157C34.7925 29.1727 34.741 29.1123 34.709 29.0413C34.6985 28.9904 34.6985 28.9379 34.709 28.887C34.7087 28.8087 34.7315 28.7321 34.7746 28.6667C34.8177 28.6014 34.8793 28.5503 34.9514 28.5198L38.0137 27.1906C38.1102 27.1515 38.2182 27.152 38.3144 27.1918C38.4106 27.2317 38.4872 27.3077 38.5278 27.4036C38.5383 27.4545 38.5383 27.5069 38.5278 27.5578C38.5278 27.6351 38.5057 27.7108 38.4641 27.7758C38.4224 27.8409 38.363 27.8927 38.2928 27.925L35.2304 29.2469C35.182 29.2694 35.1296 29.2819 35.0762 29.2836V29.2836Z" fill="#C4C4C4"/>
<path d="M35.0762 30.8255C34.9979 30.8259 34.9213 30.803 34.8559 30.7599C34.7906 30.7168 34.7395 30.6553 34.709 30.5831C34.6985 30.5323 34.6985 30.4798 34.709 30.4289C34.709 30.3517 34.7311 30.276 34.7727 30.2109C34.8144 30.1458 34.8738 30.0941 34.944 30.0617L35.9648 29.6211C36.0612 29.5793 36.1703 29.5775 36.2681 29.616C36.3658 29.6546 36.4443 29.7304 36.4862 29.8267C36.4967 29.8801 36.4967 29.935 36.4862 29.9883C36.4863 30.0656 36.4642 30.1412 36.4225 30.2063C36.3809 30.2714 36.3214 30.3232 36.2512 30.3555L35.2304 30.7961C35.1816 30.8165 35.1291 30.8265 35.0762 30.8255V30.8255Z" fill="#C4C4C4"/>
<path d="M35.0767 32.368C34.9984 32.3684 34.9218 32.3455 34.8564 32.3024C34.7911 32.2593 34.74 32.1978 34.7095 32.1257C34.6984 32.0749 34.6984 32.0222 34.7095 31.9714C34.7092 31.8932 34.732 31.8165 34.7751 31.7512C34.8182 31.6858 34.8797 31.6347 34.9519 31.6043L36.9861 30.723C37.0343 30.7025 37.0861 30.6918 37.1384 30.6914C37.1908 30.691 37.2427 30.701 37.2912 30.7208C37.3396 30.7406 37.3837 30.7699 37.4209 30.8068C37.458 30.8437 37.4874 30.8876 37.5075 30.936C37.518 30.9868 37.518 31.0393 37.5075 31.0902C37.5076 31.1675 37.4854 31.2431 37.4438 31.3082C37.4021 31.3733 37.3427 31.4251 37.2725 31.4574L35.2309 32.3386C35.1821 32.359 35.1296 32.369 35.0767 32.368V32.368Z" fill="#C4C4C4"/>
<path d="M35.0767 33.9174C34.9988 33.9159 34.923 33.8923 34.858 33.8494C34.7929 33.8065 34.7415 33.7461 34.7095 33.675C34.6984 33.6218 34.6984 33.5668 34.7095 33.5135C34.7086 33.436 34.7313 33.3601 34.7746 33.2958C34.8179 33.2315 34.8797 33.1819 34.9518 33.1536L38.0142 31.8244C38.1107 31.7853 38.2187 31.7858 38.3148 31.8256C38.411 31.8655 38.4877 31.9415 38.5282 32.0374C38.5387 32.0883 38.5387 32.1407 38.5282 32.1916C38.5283 32.2689 38.5062 32.3445 38.4645 32.4096C38.4229 32.4747 38.3634 32.5265 38.2932 32.5588L35.2309 33.8807C35.1825 33.9032 35.13 33.9156 35.0767 33.9174Z" fill="#C4C4C4"/>
<path d="M25.3748 35.3862C25.324 35.3971 25.2714 35.3971 25.2206 35.3862L19.0959 32.7425C19.0243 32.7112 18.9634 32.6599 18.9203 32.5948C18.8773 32.5296 18.8541 32.4534 18.8536 32.3753V28.2187C18.8526 28.1531 18.8682 28.0882 18.8991 28.0302C18.9299 27.9723 18.9749 27.923 19.0299 27.8871C19.0848 27.8512 19.148 27.8298 19.2135 27.8248C19.2789 27.8199 19.3446 27.8316 19.4043 27.8589L25.529 30.5026C25.5998 30.5342 25.6597 30.5858 25.7015 30.651C25.7433 30.7163 25.765 30.7923 25.764 30.8698V34.9896C25.7641 35.055 25.7481 35.1193 25.7174 35.177C25.6866 35.2347 25.6421 35.2838 25.5878 35.3201C25.5249 35.3628 25.4508 35.3859 25.3748 35.3862V35.3862ZM19.6393 32.0815L24.9782 34.3875V31.1342L19.6393 28.8282V32.0815Z" fill="#C4C4C4"/>
<path d="M40.481 36.2235C42.0552 37.9082 42.9135 40.1383 42.8751 42.4437C42.8403 44.7771 41.8813 47.0015 40.2086 48.6288C38.5358 50.256 36.2859 51.1534 33.9524 51.124H28.7677C28.573 51.124 28.3862 51.2014 28.2485 51.3391C28.1107 51.4768 28.0334 51.6636 28.0334 51.8584V54.157L20.6309 48.0249L28.0627 41.9149V44.2502C28.0627 44.445 28.1401 44.6318 28.2778 44.7695C28.4155 44.9072 28.6023 44.9846 28.7971 44.9846H30.9195C31.9139 45.0246 32.9038 44.8293 33.8086 44.4146C34.7133 43.9999 35.5074 43.3774 36.1262 42.5979C37.2033 41.2663 37.7077 39.5615 37.5287 37.8582C37.3497 36.1549 36.5019 34.5923 35.1715 33.5137C37.2456 33.7196 39.1706 34.6847 40.5765 36.2235H40.481Z" fill="white"/>
<path d="M28.0632 54.5311C27.9724 54.5312 27.8842 54.5 27.8136 54.4429L20.3817 48.3329C20.3357 48.2958 20.2986 48.2488 20.2731 48.1954C20.2476 48.142 20.2344 48.0836 20.2344 48.0245C20.2344 47.9654 20.2476 47.907 20.2731 47.8536C20.2986 47.8002 20.3357 47.7532 20.3817 47.7161L27.8282 41.6061C27.8861 41.559 27.9561 41.5292 28.0301 41.5201C28.1042 41.511 28.1793 41.523 28.2468 41.5547C28.3132 41.5885 28.3688 41.64 28.4077 41.7035C28.4466 41.767 28.4672 41.84 28.4672 41.9145V44.2498C28.4672 44.3336 28.5004 44.4139 28.5596 44.4731C28.6189 44.5323 28.6992 44.5656 28.7829 44.5656H30.9053C31.8379 44.6048 32.7669 44.426 33.6184 44.0436C34.4699 43.6612 35.2206 43.0856 35.8109 42.3625C36.8026 41.1153 37.2638 39.528 37.0947 37.9437C36.9257 36.3593 36.1401 34.905 34.9076 33.8951C34.8405 33.8412 34.7927 33.7669 34.7715 33.6834C34.7503 33.6 34.7568 33.5119 34.7901 33.4325C34.8204 33.3541 34.8756 33.2878 34.9473 33.244C35.019 33.2002 35.1031 33.1813 35.1867 33.1901C37.3578 33.3959 39.3741 34.4041 40.8414 36.0175C40.8845 36.0626 40.9149 36.1183 40.9295 36.179C42.1182 37.5032 42.8996 39.1423 43.1798 40.8996C43.46 42.6568 43.2272 44.4576 42.5092 46.0858C41.7912 47.7141 40.6187 49.1005 39.1322 50.0788C37.6458 51.057 35.9086 51.5855 34.1292 51.6009H28.7682C28.6845 51.6009 28.6042 51.6342 28.545 51.6934C28.4857 51.7526 28.4525 51.8329 28.4525 51.9167V54.2153C28.4525 54.2897 28.4319 54.3627 28.393 54.4263C28.3542 54.4898 28.2985 54.5413 28.2322 54.5751C28.1736 54.5711 28.1163 54.5562 28.0632 54.5311V54.5311ZM21.2556 48.0245L27.6667 53.2973V51.8286C27.6667 51.5357 27.7825 51.2548 27.9889 51.047C28.1952 50.8393 28.4754 50.7216 28.7682 50.7197H34.1072C35.7487 50.7042 37.3503 50.211 38.7162 49.3004C40.0821 48.3897 41.1533 47.1011 41.799 45.5917C42.4446 44.0824 42.6367 42.4177 42.3519 40.8009C42.0671 39.1842 41.3177 37.6853 40.1951 36.4875C40.1536 36.444 40.1233 36.3911 40.107 36.3332C39.0732 35.2609 37.761 34.498 36.3176 34.1301C37.3211 35.3438 37.8773 36.8653 37.8934 38.44C37.9094 40.0147 37.3843 41.5472 36.4057 42.7811C35.7463 43.6063 34.9024 44.2653 33.9421 44.7054C32.9817 45.1454 31.9315 45.354 30.8759 45.3147H28.7682C28.4823 45.3148 28.2076 45.2038 28.002 45.0051C27.7965 44.8064 27.6762 44.5355 27.6667 44.2498V42.7811L21.2556 48.0245Z" fill="#C4C4C4"/>
</svg>
